<svg width="64" height="44" viewBox="0 0 64 44" fill="none" xmlns="http://www.w3.org/2000/svg">
<path opacity="0.4" d="M49.9452 32.6302C55.7911 32.6302 60.5301 31.9524 60.5301 31.1162C60.5301 30.2801 55.7911 29.6023 49.9452 29.6023C44.0994 29.6023 39.3604 30.2801 39.3604 31.1162C39.3604 31.9524 44.0994 32.6302 49.9452 32.6302Z" fill="#D16D95"/>
<path opacity="0.4" d="M16.2162 41.4454C22.0621 41.4454 26.8011 40.7676 26.8011 39.9314C26.8011 39.0953 22.0621 38.4175 16.2162 38.4175C10.3704 38.4175 5.63135 39.0953 5.63135 39.9314C5.63135 40.7676 10.3704 41.4454 16.2162 41.4454Z" fill="#D16D95"/>
<path d="M55.9001 17.9682C55.9645 17.8104 55.9875 17.6619 55.9645 17.5273C55.9369 17.3602 55.8449 17.2071 55.6886 17.0725C55.5736 16.9704 55.4127 16.8729 55.2103 16.7755C53.6468 16.0237 51.9638 15.7127 50.1611 15.838C48.3631 15.9633 46.7352 16.5063 45.2866 17.467C44.2612 18.1538 43.6542 18.901 43.4702 19.7039C43.3737 20.1262 43.3874 20.581 43.5162 21.0683C43.622 21.4813 43.8105 21.9083 44.0726 22.3492C44.3853 22.869 44.7394 23.3099 45.1395 23.6811C45.581 24.0895 46.0592 24.3865 46.565 24.5675C47.1813 24.7949 47.8526 24.8599 48.5792 24.7671C49.2368 24.6836 50.0462 24.5026 51.0027 24.2288C51.9592 23.9503 52.5938 23.644 52.9019 23.3006C53.21 22.9618 53.2881 22.6137 53.1272 22.2703L55.6656 18.3812C55.7852 18.2095 55.8587 18.0749 55.9001 17.9682Z" fill="#442222"/>
<path d="M43.261 8.00651C42.9575 7.5285 43.0632 7.23613 43.5691 7.1201C43.192 6.78132 42.9115 6.53535 42.7183 6.38684C42.3137 6.08054 41.909 5.85314 41.5135 5.70463C41.0399 5.53292 40.5938 5.47723 40.1707 5.5422C39.8212 5.59325 39.4396 5.73248 39.0303 5.95988C39.0165 5.96916 38.667 6.19192 37.9818 6.62817C37.0621 7.18972 36.2758 7.34751 35.6182 7.10154C35.632 7.44032 35.6963 7.76519 35.8159 8.08541C35.9309 8.41027 36.0918 8.70265 36.2988 8.96718C36.5103 9.23171 36.754 9.45911 37.0299 9.64475C37.3012 9.83038 37.5863 9.96961 37.8853 10.0531C37.899 10.0531 37.9174 10.0578 37.9312 10.0624C37.9174 10.0578 37.9036 10.0531 37.8853 10.0531C37.5128 10.132 37.1403 10.1552 36.7632 10.1274C36.8184 10.494 36.9701 10.856 37.2139 11.2041C37.4116 11.4918 37.6829 11.7842 38.0232 12.0859C38.3129 12.3457 38.5934 12.5453 38.8601 12.6845C39.182 12.8609 39.5039 12.9583 39.8166 12.9723L40.0328 12.6149C40.4512 12.8748 40.9157 13.0187 41.4261 13.0512C41.9366 13.079 42.4194 12.9862 42.8655 12.7774C42.9575 12.4478 42.9529 12.058 42.8563 11.5986C42.7597 11.1391 42.631 10.7586 42.4792 10.4523C42.3275 10.146 42.4056 9.91392 42.7091 9.76541C42.3367 9.52873 42.4286 9.23171 42.9896 8.87436C42.6172 8.38243 42.7045 8.09469 43.261 8.00651Z" fill="#562C2C"/>
<path d="M44.3176 7.79305C44.1521 7.65382 43.9681 7.48675 43.7658 7.30111C43.6968 7.23614 43.6278 7.17581 43.5635 7.12012C43.0576 7.23614 42.9564 7.53316 43.2554 8.00653C42.6989 8.09006 42.6116 8.3778 42.9886 8.86973C42.4276 9.22708 42.3356 9.5241 42.7081 9.76079C42.8047 9.75614 42.9059 9.7515 43.0116 9.75614C43.2002 9.76543 43.3841 9.79327 43.5635 9.83968C44.4464 9.38487 44.6993 8.70266 44.3176 7.79305Z" fill="#FA9543"/>
<path d="M42.7081 9.76079C42.8047 9.75614 42.9059 9.7515 43.0116 9.75614C43.2002 9.76543 43.3841 9.79327 43.5635 9.83968C44.4464 9.38487 44.6993 8.70266 44.3176 7.79305C44.1521 7.65382 43.9681 7.48675 43.7658 7.30111C43.6968 7.23614 43.6278 7.17581 43.5635 7.12012C43.0576 7.23614 42.9564 7.53316 43.2554 8.00653C42.6989 8.09006 42.6116 8.3778 42.9886 8.86973C42.4276 9.22708 42.3356 9.5241 42.7081 9.76079Z" stroke="#FA9543" stroke-width="0.0802544" stroke-miterlimit="3.4736" stroke-linecap="round" stroke-linejoin="round"/>
<path d="M42.7099 9.76077C42.4064 9.91392 42.3282 10.1413 42.48 10.4476C42.6317 10.7539 42.7605 11.1345 42.8571 11.5939C42.9536 12.0534 42.9582 12.4432 42.8663 12.7727C42.4202 12.9862 41.9374 13.079 41.4269 13.0465C40.9165 13.014 40.452 12.8702 40.0335 12.6103L39.822 12.9723C39.5047 12.9583 39.1874 12.8609 38.8655 12.6845C38.5988 12.5453 38.3229 12.3411 38.0286 12.0859C37.6883 11.7842 37.417 11.4918 37.2192 11.2041C36.9709 10.8514 36.8238 10.494 36.7686 10.1274C37.1457 10.1552 37.5181 10.132 37.8906 10.0531C37.5917 9.96497 37.3066 9.83039 37.0353 9.64475C36.7594 9.45912 36.5157 9.23171 36.3041 8.96718C36.0972 8.70265 35.9362 8.40563 35.8213 8.08541C35.7017 7.76519 35.6373 7.44033 35.6235 7.10154C36.2811 7.34751 37.0675 7.18972 37.9826 6.62353C38.6632 6.18729 39.0127 5.96452 39.0265 5.95524C39.4357 5.72784 39.8174 5.58861 40.1669 5.53756C40.59 5.47259 41.036 5.52828 41.5097 5.69999C41.9052 5.8485 42.3098 6.0759 42.7145 6.3822C42.9076 6.53071 43.1882 6.77668 43.5652 7.11546M37.886 10.0578C37.8998 10.0578 37.9182 10.0624 37.932 10.0671" stroke="#472523" stroke-width="0.0802544" stroke-miterlimit="3.4736" stroke-linecap="round" stroke-linejoin="round"/>
<path d="M50.1072 9.52894C49.9462 9.08805 49.7347 8.69358 49.468 8.34551C49.1829 7.9696 48.861 7.67258 48.4931 7.44517C48.1252 7.21777 47.7941 7.06926 47.509 6.99037C47.1733 6.89755 46.7641 6.8697 46.2858 6.90219C45.8535 6.87899 45.1684 7.01357 44.2211 7.30595C43.4255 7.55192 42.7357 7.80716 42.1517 8.07634C41.9953 8.15059 41.5263 8.35015 40.7537 8.67965C40.2617 8.88849 39.9352 9.04628 39.7834 9.14838C39.2776 9.48253 38.8729 9.87236 38.574 10.3132C38.2337 10.8145 38.013 11.3992 37.921 12.0675C37.8337 12.6847 37.967 13.5294 38.3119 14.6061C38.6568 15.6828 39.0937 16.6341 39.6271 17.4695C40.1559 18.3049 40.8319 18.9453 41.6459 19.3955C42.4598 19.8456 42.8001 20.1705 42.6575 20.3701C42.515 20.5696 42.6162 22.0037 42.961 24.6722C43.3059 27.3407 43.7934 27.4846 44.428 25.0991C45.0626 22.7137 45.7064 21.4282 46.3548 21.2425C47.0308 21.0476 47.647 20.6671 48.1988 20.1055C48.7046 19.5904 49.1139 18.9732 49.4266 18.2585C49.6933 17.6505 49.9003 16.9404 50.052 16.1376C50.1532 15.6039 50.2498 14.866 50.3463 13.9239C50.4383 12.9818 50.4797 12.2392 50.4659 11.6916C50.4567 10.8794 50.3325 10.1555 50.1072 9.52894Z" fill="#623432"/>
<path d="M41.4821 19.0555C41.3625 18.9348 41.2338 18.8281 41.0912 18.7399C40.7831 18.5496 40.4934 18.4661 40.2221 18.4985C40.0795 18.5125 39.9462 18.5589 39.822 18.6331C39.7346 18.6888 39.6473 18.7538 39.5691 18.8373C39.3851 19.0322 39.2748 19.2643 39.238 19.5242C39.2012 19.7469 39.2196 19.9651 39.284 20.1878C39.3484 20.4013 39.4495 20.5962 39.5875 20.7679C39.7668 20.9953 39.9922 21.1671 40.2635 21.2831C40.5348 21.4037 40.8107 21.4502 41.0912 21.4177C41.3763 21.3898 41.6384 21.2831 41.8776 21.1021C41.9833 21.0232 42.0753 20.935 42.1535 20.8329C42.0983 20.7819 42.0431 20.7308 41.9971 20.6798C42.0477 20.7308 42.0983 20.7819 42.1535 20.8329L41.4821 19.0555ZM41.4361 20.0579C41.5005 20.211 41.5143 20.3549 41.4775 20.4895C41.2568 20.5034 41.059 20.4988 40.8797 20.4709C40.7003 20.4431 40.5394 20.3827 40.4014 20.2806C40.2773 20.1925 40.2083 20.0997 40.1991 19.9976C40.1899 19.9279 40.2129 19.8583 40.2589 19.7934C40.3049 19.733 40.36 19.6913 40.429 19.6588C40.4934 19.6356 40.5624 19.6216 40.6405 19.6216C40.7003 19.6216 40.7739 19.6263 40.8613 19.6356C40.7279 19.4917 40.544 19.3664 40.3186 19.255C40.1807 19.19 40.0013 19.1111 39.7714 19.0183C40.0749 19.0972 40.3232 19.1761 40.521 19.2597C40.7831 19.371 40.9992 19.5103 41.174 19.6727C41.2935 19.798 41.3809 19.9233 41.4361 20.0579Z" fill="#F7AB8B"/>
<path d="M41.4773 20.4892C41.5141 20.35 41.5003 20.2061 41.4359 20.0576C41.3807 19.923 41.2887 19.7977 41.1692 19.6817C40.9944 19.5193 40.7783 19.3801 40.5162 19.2687C40.3184 19.1851 40.0701 19.1016 39.7666 19.0273C39.9965 19.1202 40.1805 19.1991 40.3138 19.264C40.5392 19.3754 40.7231 19.5007 40.8565 19.6446C40.7691 19.6353 40.6955 19.6307 40.6357 19.6307C40.5576 19.6307 40.484 19.6446 40.4242 19.6678C40.3552 19.6956 40.3 19.742 40.254 19.8024C40.2035 19.8673 40.1851 19.937 40.1943 20.0066C40.2035 20.1087 40.2724 20.2015 40.3966 20.2897C40.5392 20.3871 40.6955 20.4521 40.8749 20.4799C41.0588 20.4985 41.2611 20.5031 41.4773 20.4892Z" fill="#E2936F"/>
<path d="M41.4816 19.0555C41.362 18.9348 41.2333 18.8281 41.0907 18.7399C40.7826 18.5496 40.4929 18.4661 40.2216 18.4985C40.079 18.5125 39.9457 18.5589 39.8215 18.6331C39.7341 18.6888 39.6468 18.7538 39.5686 18.8373C39.3847 19.0322 39.2743 19.2643 39.2375 19.5242C39.2007 19.7469 39.2191 19.9651 39.2835 20.1878C39.3479 20.4013 39.449 20.5962 39.587 20.7679C39.7663 20.9953 39.9917 21.1671 40.263 21.2831C40.5343 21.4037 40.8102 21.4502 41.0907 21.4177C41.3758 21.3898 41.6379 21.2831 41.8771 21.1021C41.9828 21.0232 42.0748 20.935 42.153 20.8329M42.1622 20.8376C42.107 20.7865 42.0518 20.7355 42.0058 20.6844" stroke="#E48F66" stroke-width="0.0802544" stroke-miterlimit="3.4736" stroke-linecap="round" stroke-linejoin="round"/>
<path d="M54.7442 14.8378L54.7534 14.7868C54.6338 13.5709 54.2384 12.4292 53.5716 11.3618C52.9048 10.2944 52.054 9.44512 51.0194 8.81395C49.9893 8.18279 48.8672 7.78832 47.6578 7.63981C46.4438 7.48202 45.3677 7.57948 44.4204 7.93218C43.4731 8.28025 42.6362 8.75826 41.905 9.36158C41.1739 9.9649 40.6404 10.6564 40.3001 11.4314C39.9323 12.2761 39.7759 13.1485 39.8403 14.0489C39.9001 14.9492 40.0794 15.701 40.3737 16.3044C40.668 16.9077 40.783 17.5156 40.714 18.1375C40.645 18.7547 40.7002 19.3488 40.8888 19.9103C41.0773 20.4719 41.436 20.9731 41.9694 21.414C42.4201 21.7852 42.9489 22.0869 43.5651 22.3236C44.1031 22.5278 44.6228 22.6485 45.1332 22.6902C45.1792 22.6949 45.2298 22.6949 45.2804 22.6995C47.8832 22.6624 49.9893 21.8502 51.5942 20.263C52.5645 19.3024 53.1945 18.4856 53.4888 17.808V17.8034C53.521 17.7338 53.544 17.6641 53.5716 17.5945C53.5486 17.6641 53.521 17.7338 53.4888 17.8034V17.808C53.5992 17.8637 53.7233 17.9055 53.8521 17.938C54.1418 18.0029 54.4223 17.989 54.6936 17.9008C54.9649 17.8126 55.1995 17.6549 55.4018 17.4321C55.6041 17.214 55.7375 16.9634 55.8111 16.6849C55.8708 16.4714 55.8846 16.2487 55.857 16.0305C55.8295 15.7985 55.7559 15.5943 55.6363 15.4087C55.4938 15.1859 55.3006 15.0235 55.0569 14.9167C54.9557 14.8796 54.85 14.8518 54.7442 14.8378C54.6016 14.8193 54.4591 14.8332 54.3257 14.8796C54.0636 14.9631 53.8291 15.1534 53.6313 15.4504C53.5348 15.5897 53.4612 15.7428 53.4014 15.9006C53.4612 15.7428 53.5394 15.5897 53.6313 15.4504C53.8337 15.1488 54.0636 14.9585 54.3257 14.8796C54.4637 14.8332 54.6016 14.8193 54.7442 14.8378Z" fill="#F7AB8B"/>
<path d="M54.7529 14.7868C54.6333 13.5709 54.2379 12.4292 53.5711 11.3618C52.9043 10.2944 52.0536 9.44512 51.0189 8.81395C49.9888 8.18279 48.8668 7.78832 47.6573 7.63981C46.4433 7.48202 45.3673 7.57948 44.42 7.93218C43.4727 8.28025 42.6357 8.75826 41.9045 9.36158C41.1734 9.9649 40.6399 10.6564 40.2997 11.4314C39.9318 12.2761 39.7754 13.1485 39.8398 14.0489C39.8996 14.9492 40.0789 15.701 40.3732 16.3044C40.6675 16.9077 40.7825 17.5156 40.7135 18.1375C40.6445 18.7547 40.6997 19.3488 40.8883 19.9103C41.0768 20.4719 41.4355 20.9731 41.9689 21.414C42.4196 21.7852 42.9484 22.0869 43.5646 22.3236C44.1027 22.5278 44.6223 22.6485 45.1327 22.6902C45.1787 22.6949 45.2293 22.6949 45.2799 22.6995C47.8827 22.6624 49.9888 21.8502 51.5937 20.263C52.564 19.3024 53.194 18.4856 53.4883 17.808M53.5757 17.6038C53.5481 17.6734 53.5251 17.743 53.4929 17.8126C53.6033 17.8683 53.7274 17.9101 53.8562 17.9426C54.1459 18.0076 54.4264 17.9936 54.6977 17.9055C54.969 17.8173 55.2036 17.6595 55.4059 17.4367C55.6082 17.2186 55.7416 16.968 55.8152 16.6895C55.875 16.4761 55.8888 16.2533 55.8612 16.0352C55.8336 15.8031 55.76 15.5989 55.6404 15.4133C55.4979 15.1905 55.3047 15.0281 55.061 14.9214C54.9552 14.875 54.8495 14.8471 54.7437 14.8332C54.6012 14.8146 54.4586 14.8286 54.3252 14.875C54.0631 14.9585 53.8286 15.1488 53.6309 15.4458C53.5343 15.585 53.4607 15.7382 53.4009 15.896" stroke="#E48F66" stroke-width="0.0802544" stroke-miterlimit="3.4736" stroke-linecap="round" stroke-linejoin="round"/>
<g opacity="0.43">
<path d="M46.5195 16.6433C45.8157 16.4056 45.0298 16.357 44.1618 16.5011C43.2938 16.6417 42.5963 16.9013 42.0593 17.2799C41.5224 17.662 41.2824 17.9424 41.3295 18.1245C41.3815 18.3101 41.7099 18.3379 42.3047 18.2115C42.9095 18.085 43.6382 17.9375 44.496 17.7723C45.3537 17.6072 46.1082 17.5297 46.7594 17.5363C47.4106 17.5465 47.7078 17.4622 47.6557 17.2766C47.6037 17.0945 47.2283 16.8846 46.5195 16.6433Z" fill="url(#paint0_radial_1_26215)"/>
</g>
<path d="M56.8615 11.8794C56.8247 11.2529 56.6178 10.4918 56.2361 9.59147C55.8315 8.63544 55.2934 7.78616 54.6312 7.04826C53.969 6.31035 53.1321 5.77201 52.1296 5.43323C51.4996 5.21974 50.8328 5.10372 50.1246 5.08516C50.2442 4.95057 50.3408 4.81135 50.4098 4.6582C50.4879 4.48648 50.4925 4.3519 50.4144 4.25908C50.3592 4.19411 50.281 4.16162 50.1752 4.16162C50.0695 4.16626 49.9683 4.19875 49.8717 4.26372C49.7844 4.32405 49.7062 4.40295 49.6464 4.50041C49.5958 4.58394 49.5544 4.6814 49.5176 4.79742C49.4992 4.86704 49.4762 4.9645 49.4487 5.0898C49.4441 5.09908 49.4441 5.10372 49.4441 5.113C49.4441 5.10372 49.4487 5.09908 49.4487 5.0898C49.4579 4.9645 49.4119 4.84847 49.3153 4.73245C49.2555 4.66284 49.1498 4.57466 48.998 4.46792C48.8922 4.39367 48.8095 4.34726 48.7589 4.31941C48.6669 4.26836 48.5795 4.23588 48.5014 4.22195C48.4462 4.20803 48.4002 4.21267 48.3634 4.24052C48.3312 4.26836 48.3266 4.32405 48.3404 4.40295C48.4002 4.64427 48.5703 4.85776 48.8508 5.05267C48.8876 5.07588 48.929 5.10372 48.9796 5.13621C48.9244 5.14085 48.8692 5.15013 48.8141 5.15477C47.6092 5.30792 42.9831 6.63986 42.022 7.59124C41.0425 8.55191 41.0655 9.41975 41.0471 9.63787C41.0287 9.8792 41.0517 10.1066 41.1207 10.3108C41.1667 10.4454 41.2264 10.5614 41.3092 10.6496C41.4012 10.7517 41.507 10.812 41.6265 10.8213C41.7093 10.8306 41.7967 10.812 41.8886 10.7703C41.9576 10.7378 42.0358 10.6867 42.1278 10.6217C42.5324 10.3108 42.8635 9.93489 43.1118 9.48937C43.0337 9.66108 42.9877 9.85136 42.9785 10.0509C42.9647 10.3154 43.0107 10.5661 43.1164 10.7935C43.1716 10.9188 43.2406 11.0209 43.3234 11.0998C43.42 11.1926 43.5211 11.2529 43.6361 11.2715C43.8522 11.3132 44.0775 11.2251 44.3029 11.0116C44.5328 10.7935 44.7305 10.4593 44.9053 10.0091C45.0938 10.3758 45.2916 10.7192 45.4939 11.0394C47.0942 13.578 49.3429 15.0306 52.2354 15.3972C52.5021 15.4436 52.7688 15.4715 53.0355 15.4808C53.6149 16.1769 54.015 16.9798 54.2312 17.894C54.4519 18.8036 54.4657 19.7318 54.2863 20.6786C54.2404 20.6971 54.1852 20.7157 54.1254 20.7296C53.9966 20.7621 53.9001 20.7853 53.8357 20.8039C53.7253 20.8363 53.6517 20.8688 53.6149 20.8967C53.5782 20.9199 53.5322 20.9709 53.477 21.0498C53.4172 21.1241 53.3206 21.2076 53.1873 21.2912C53.0493 21.3747 52.939 21.4118 52.847 21.4025C52.7918 21.3979 52.732 21.3933 52.6676 21.3886C52.2906 22.5256 52.2722 23.723 52.3733 24.1407C52.7044 23.9875 55.6337 23.2357 56.1717 20.7946C56.3281 20.5115 56.3879 20.233 56.3557 19.9546C57.0777 19.8432 57.6893 19.4719 58.1859 18.8454C58.678 18.2189 58.8987 17.5367 58.8481 16.8034C58.2595 16.7663 57.7904 16.5667 57.4363 16.2094C57.0823 15.8427 56.8753 15.4436 56.8155 15.0027C56.7558 14.5619 56.7558 14.0885 56.8155 13.578C56.8845 13.0721 56.8983 12.5013 56.8615 11.8794Z" fill="#623432"/>
<path d="M55.8068 16.6967C55.8666 16.4832 55.8804 16.2651 55.8528 16.0423C55.8252 15.8103 55.7516 15.6061 55.6367 15.4251C55.4941 15.2023 55.301 15.0399 55.0573 14.9332C54.9515 14.8867 54.8457 14.8589 54.7446 14.8496C54.602 14.8311 54.4594 14.845 54.3261 14.8867C54.0594 14.961 53.8248 15.1513 53.6225 15.4529C53.5259 15.5922 53.4524 15.7453 53.3926 15.9031L53.4891 17.8105C53.5213 17.7409 53.5443 17.6713 53.5673 17.6017C53.5443 17.6713 53.5167 17.7409 53.4891 17.8105V17.8152C53.5995 17.8708 53.7237 17.9126 53.8524 17.9451C54.1421 18.0101 54.4227 17.9961 54.694 17.908C54.9653 17.8198 55.1998 17.662 55.3975 17.4439C55.5999 17.2258 55.7378 16.9751 55.8068 16.6967ZM55.2136 15.4715C54.9975 15.5922 54.8227 15.6896 54.694 15.7685C54.4824 15.9031 54.3169 16.0516 54.1973 16.2094C54.2801 16.1908 54.3537 16.1769 54.4135 16.1723C54.4916 16.163 54.5652 16.1676 54.6296 16.1862C54.7032 16.2048 54.7629 16.2419 54.8135 16.2976C54.8687 16.3579 54.8963 16.4229 54.8963 16.4925C54.8963 16.5946 54.8411 16.6967 54.7262 16.7942C54.5974 16.9102 54.441 16.9891 54.2663 17.0355C54.0916 17.0819 53.8938 17.1097 53.6777 17.119C53.6225 16.9891 53.6179 16.8406 53.6685 16.6828C53.7099 16.5435 53.7835 16.409 53.8938 16.279C54.0456 16.098 54.2479 15.9356 54.4962 15.7917C54.6848 15.6943 54.9239 15.5829 55.2136 15.4715Z" fill="#F7AB8B"/>
<path d="M54.6935 15.7728C54.8223 15.694 54.997 15.5919 55.2132 15.4758C54.9235 15.5872 54.6843 15.694 54.4958 15.8007C54.2475 15.9446 54.0451 16.107 53.8934 16.288C53.783 16.4179 53.7094 16.5525 53.668 16.6917C53.6175 16.8495 53.6221 16.998 53.6772 17.128C53.898 17.1187 54.0911 17.0862 54.2659 17.0445C54.4406 16.998 54.597 16.9191 54.7257 16.8031C54.8407 16.701 54.8959 16.6036 54.8959 16.5015C54.8959 16.4319 54.8683 16.3669 54.8131 16.3065C54.7625 16.2509 54.7027 16.2137 54.6291 16.1952C54.5648 16.1766 54.4912 16.172 54.413 16.1812C54.3532 16.1859 54.2797 16.1998 54.1969 16.2184C54.3164 16.0513 54.482 15.9074 54.6935 15.7728Z" fill="#E2936F"/>
<path d="M53.3931 15.9033C53.4528 15.7455 53.531 15.5923 53.623 15.4531C53.8253 15.1514 54.0599 14.9612 54.322 14.8823C54.4599 14.8359 54.5979 14.8266 54.7404 14.8451C54.8416 14.8591 54.9474 14.8869 55.0531 14.9287C55.2969 15.0354 55.49 15.1979 55.6326 15.4206C55.7475 15.6016 55.8211 15.8105 55.8487 16.0379C55.8763 16.2606 55.8625 16.4787 55.8027 16.6922C55.7291 16.9707 55.5958 17.2213 55.3934 17.4394C55.1911 17.6622 54.9566 17.8153 54.6899 17.9035C54.4185 17.9917 54.138 18.0056 53.8483 17.9406C53.7196 17.9081 53.5954 17.8664 53.485 17.8107M53.4896 17.8153C53.5218 17.7457 53.5448 17.6761 53.5678 17.6065" stroke="#E48F66" stroke-width="0.0802544" stroke-miterlimit="3.4736" stroke-linecap="round" stroke-linejoin="round"/>
<path d="M53.0423 15.4851C52.7756 15.4759 52.5089 15.448 52.2422 15.4016C52.4583 15.926 52.6285 16.404 52.7572 16.8449C52.9182 17.3833 53.0239 17.8938 53.0791 18.3764C53.1435 18.924 53.1435 19.4485 53.0791 19.9497C53.0147 20.4741 52.8768 20.9568 52.6745 21.3976C52.7388 21.4023 52.7986 21.4069 52.8538 21.4116C52.9458 21.4208 53.0561 21.3837 53.1941 21.3002C53.3274 21.212 53.424 21.1331 53.4838 21.0589C53.539 20.98 53.585 20.9289 53.6218 20.9057C53.6585 20.8779 53.7321 20.85 53.8425 20.8175C53.9069 20.799 54.0034 20.7711 54.1322 20.7433C54.192 20.7294 54.2426 20.7108 54.2885 20.6922C54.4725 19.7455 54.4541 18.8173 54.238 17.9077C54.0264 16.9842 53.6264 16.1813 53.0423 15.4851Z" fill="#6D3B3B"/>
<path d="M43.7486 16.6867C43.703 16.3919 43.6203 16.1478 43.5094 15.9539C43.3942 15.7603 43.2843 15.6728 43.1754 15.6918C43.0663 15.7062 42.9844 15.8258 42.9384 16.0454C42.8924 16.2651 42.8966 16.5221 42.9423 16.8169C42.9879 17.1116 43.0708 17.3602 43.1817 17.554C43.2969 17.7476 43.407 17.8395 43.5159 17.8206C43.6248 17.8017 43.7023 17.6824 43.7483 17.4627C43.7941 17.2387 43.7943 16.9814 43.7486 16.6867Z" fill="#21000D"/>
<path d="M45.9537 16.1837C46.0135 16.0723 46.0503 15.9516 46.0687 15.8263C46.0871 15.701 46.0825 15.5757 46.0641 15.455C46.0043 15.6453 45.9169 15.8263 45.7974 15.9887C45.7422 16.063 45.687 16.128 45.6272 16.1883C45.5858 15.9377 45.5214 15.7242 45.4249 15.5479C45.3191 15.3529 45.2133 15.2601 45.103 15.2787C44.988 15.2926 44.9052 15.4086 44.8501 15.6268C44.7995 15.8449 44.7903 16.1001 44.8271 16.3971C44.8639 16.6942 44.9328 16.9401 45.0386 17.135C45.1444 17.3346 45.2547 17.4274 45.3651 17.4135C45.4755 17.3996 45.5536 17.2789 45.6042 17.0608C45.6134 17.0283 45.6226 16.9912 45.6272 16.9587C45.7606 16.903 45.8755 16.838 45.9721 16.7545C46.0641 16.6756 46.1377 16.5874 46.1974 16.4853C46.2572 16.3786 46.294 16.2672 46.3032 16.1512C46.1101 16.3368 45.8939 16.4853 45.6502 16.606C45.6502 16.5921 45.6502 16.5781 45.6502 16.5689C45.779 16.4575 45.8801 16.3322 45.9537 16.1837Z" fill="#21000D"/>
<path d="M45.2862 16.5166C45.226 16.4512 45.1721 16.4274 45.1188 16.4418C45.0655 16.4562 45.0306 16.5041 45.0108 16.5911C44.9911 16.6781 44.9983 16.777 45.0269 16.8846C45.0554 16.9922 45.0982 17.0815 45.1584 17.1469C45.2186 17.2123 45.2737 17.2407 45.327 17.2263C45.3803 17.2119 45.4185 17.1583 45.4338 17.0725C45.4535 16.9855 45.4463 16.8865 45.4178 16.7789C45.3936 16.6702 45.3464 16.582 45.2862 16.5166Z" fill="#F5ECEC"/>
<path d="M44.645 13.0411C44.9991 12.9344 45.3808 12.9298 45.7855 13.0272C46.1901 13.1247 46.5258 13.3474 46.7879 13.7048C46.6086 13.1061 46.3143 12.7581 45.9096 12.6606C45.5049 12.5631 45.0819 12.6884 44.645 13.0411Z" fill="#21000D"/>
<path d="M41.3369 14.4461C41.5071 14.1166 41.7738 13.8428 42.1279 13.6201C42.4866 13.3973 42.882 13.3184 43.3143 13.3834C42.7671 13.091 42.3164 13.0539 41.9623 13.2766C41.6036 13.4948 41.3967 13.8846 41.3369 14.4461Z" fill="#21000D"/>
<path d="M46.2766 17.2568C46.379 17.3463 46.4513 17.4676 46.4931 17.6163C46.4356 17.5248 46.3462 17.4374 46.2242 17.3448L46.2209 17.3443C46.2138 17.334 46.2002 17.3227 46.1869 17.316C46.0986 17.2471 46.0098 17.2194 45.923 17.2241C46.037 17.1412 46.1572 17.1555 46.2766 17.2568ZM42.9388 18.153C42.9974 18.0613 43.0723 18.0227 43.1662 18.0283C43.107 18.0602 43.0472 18.1333 42.9868 18.2476C42.9279 18.3346 42.8992 18.4401 42.8975 18.5636C42.8577 18.3969 42.8716 18.2616 42.9388 18.153Z" fill="#C47554"/>
<path d="M46.2197 17.3577C45.7854 20.1866 44.7147 20.4858 43.0016 18.2589" stroke="#C47554" stroke-width="0.117368" stroke-linecap="round" stroke-linejoin="round"/>
<path d="M51.6464 5.84068C51.506 6.08038 51.3809 6.29038 51.2619 6.47168C51.1608 7.45404 51.6031 8.03054 52.5794 8.2022C52.74 8.10499 52.9072 8.02572 53.0809 7.9644C53.1789 7.93017 53.2734 7.90566 53.3725 7.88065C53.6592 7.54065 53.4833 7.28473 52.8446 7.1129C53.0636 6.53298 52.8932 6.28578 52.3375 6.36619C52.4864 5.82207 52.3063 5.57127 51.7878 5.6102C51.74 5.68088 51.6932 5.76078 51.6464 5.84068Z" fill="#FA9543"/>
<path d="M59.4793 4.24219C59.4979 3.90396 59.4663 3.57132 59.3798 3.24477C58.8207 3.67572 58.0244 3.75485 56.9862 3.48268C56.2043 3.27073 55.8083 3.16065 55.7896 3.15806C55.3301 3.05971 54.9254 3.0393 54.58 3.09635C54.1569 3.16203 53.7469 3.34764 53.3449 3.64909C53.0075 3.90602 52.6882 4.24496 52.3907 4.6562C52.2504 4.85388 52.0494 5.17501 51.7915 5.60985C52.3101 5.57092 52.4901 5.82172 52.3413 6.36584C52.8969 6.28543 53.0673 6.53263 52.8483 7.11255C53.487 7.28438 53.663 7.5403 53.3762 7.8803C53.7108 7.93651 53.8477 8.1314 53.792 8.46907C53.7363 8.80675 53.7248 9.20956 53.7664 9.67649C53.8081 10.1434 53.9184 10.5187 54.1025 10.8064C54.5915 10.8781 55.076 10.8243 55.556 10.6449C56.0361 10.4655 56.436 10.1876 56.7609 9.81538L57.0648 10.0991C57.363 9.99127 57.639 9.80654 57.8972 9.5444C58.1097 9.32937 58.3161 9.05899 58.5201 8.72351C58.7602 8.33733 58.9291 7.97773 59.0361 7.64369C59.167 7.23229 59.2081 6.84489 59.1546 6.48198C58.8041 6.61897 58.4388 6.70624 58.059 6.74377C58.3222 6.56979 58.5535 6.35734 58.7563 6.09669C58.9684 5.83502 59.1357 5.54563 59.2589 5.23314C59.3949 4.90989 59.4612 4.58503 59.4793 4.24219Z" fill="#6B3E3E"/>
<path d="M54.2944 31.1187L44.3741 34.2324L40.8164 23.7867L50.7498 20.6895L54.2944 31.1187Z" fill="#6B2B2B"/>
<path d="M50.2124 20.1928L49.7465 20.3637C49.2806 19.6502 49.2806 19.0551 49.7465 18.585L50.2124 20.1928Z" fill="#FAF6C6"/>
<path d="M50.7498 20.6894V19.9956L54.2944 30.5597V31.1153L50.7498 20.6894Z" fill="#844A49"/>
<path d="M35.6205 19.0222L40.8136 23.7864L44.3745 34.2321L39.0641 29.3857L35.6205 19.0222Z" fill="#4D1312"/>
<path d="M36.3202 19.1309L36.3495 19.1013C36.6134 18.8482 36.7633 18.4306 36.7991 17.8519C38.6431 17.556 40.233 18.9797 41.5622 22.1196C42.507 21.0609 43.7027 20.1732 45.1427 19.4597C46.6771 18.6542 48.2116 18.3615 49.7461 18.5851C49.2802 19.0553 49.2802 19.6504 49.7461 20.3639L40.8618 23.2507L36.3202 19.1309Z" fill="#EEE1AC"/>
<path d="M35.9367 18.7822L36.3212 19.1307L40.8594 23.2505L49.747 20.3637L50.2129 20.1927L50.7505 19.9955V20.6892L40.8171 23.7864L35.6207 19.0222L35.9367 18.7822Z" fill="#844A48"/>
<path d="M40.6158 23.5988L40.9742 23.1516L41.6421 30.2108L41.1501 29.7669L40.6777 30.1943L40.6158 23.5988Z" fill="#EE9821"/>
<path d="M50.2607 25.8223C50.1303 25.7335 50.1238 25.6448 50.2476 25.556C50.3714 25.4639 50.7037 25.3817 51.2511 25.3028C51.7984 25.2239 52.0981 25.1812 52.1503 25.1779C52.2056 25.1713 52.2578 25.1549 52.3066 25.122C52.362 25.0825 52.3946 25.0266 52.4011 24.9543C52.4109 24.9017 52.4142 24.8458 52.4174 24.78C52.5608 24.7965 52.7008 24.8622 52.8442 24.9773C52.9908 25.0957 53.0722 25.2436 53.082 25.4146C53.0918 25.5527 53.0527 25.6974 52.9713 25.8453C52.9126 25.9538 52.8214 26.0788 52.7008 26.2168C52.463 26.493 52.2284 26.7265 52.0004 26.9139C51.73 27.1408 51.4563 27.315 51.1761 27.44C50.8829 27.5748 50.9057 27.4498 51.2446 27.0717C51.5866 26.7002 51.9027 26.4075 52.1959 26.2004C51.9287 26.3812 51.6453 26.5259 51.3456 26.6377C51.0393 26.7495 50.7298 26.8185 50.4138 26.8448C50.3258 26.8481 50.2607 26.835 50.2248 26.8087C50.189 26.7791 50.1694 26.7462 50.1727 26.7133C50.176 26.6772 50.1955 26.6377 50.2346 26.5982C50.2737 26.5588 50.3714 26.493 50.5246 26.3977C50.6777 26.3023 50.8797 26.2004 51.1273 26.0886C51.3749 25.9768 51.6942 25.8486 52.0851 25.7072C51.0002 25.8716 50.3942 25.9111 50.2607 25.8223Z" fill="#F5AC89"/>
<path d="M37.9252 25.3231C37.9284 25.3231 37.9284 25.3231 37.9252 25.3231C38.2054 25.5039 38.4008 25.6321 38.5084 25.7045C38.7103 25.8426 38.8732 25.9905 38.9938 26.1483C39.0361 26.2009 39.0589 26.2503 39.0687 26.2897C39.0752 26.316 39.072 26.3456 39.0655 26.3719C39.0557 26.4015 39.0427 26.4212 39.0231 26.4344C38.997 26.4508 38.971 26.4574 38.9384 26.4541C38.9156 26.4541 38.8863 26.4508 38.8472 26.441C38.6322 26.3884 38.4236 26.316 38.2217 26.2207C38.036 26.1352 37.8926 26.0497 37.7949 25.9609C37.658 25.8294 37.5766 25.6847 37.5505 25.5269C37.544 25.471 37.5473 25.4184 37.5668 25.3724C37.5864 25.3165 37.6613 25.2705 37.7949 25.2343C37.834 25.2639 37.8828 25.2935 37.9252 25.3231ZM37.0781 24.1361C37.0195 24.0309 37.0032 23.9191 37.0325 23.7942C37.0586 23.6627 37.1205 23.564 37.215 23.4917C37.3029 23.5772 37.3388 23.7021 37.3257 23.8665C37.6776 24.0243 37.9969 24.2085 38.277 24.4222C38.378 24.4978 38.4432 24.5636 38.4725 24.6195C38.4921 24.6655 38.4986 24.7017 38.4888 24.728C38.4725 24.7641 38.4334 24.7838 38.3715 24.7937C38.2803 24.8003 38.1598 24.7773 38.0131 24.7247C38.2933 24.9055 38.4986 25.0732 38.6289 25.2343C38.668 25.2737 38.6941 25.3165 38.7071 25.3559C38.7234 25.4086 38.7201 25.4513 38.6941 25.4842C38.6517 25.5368 38.5703 25.5401 38.4497 25.4973C38.2184 25.4184 38.049 25.3527 37.9382 25.3033H37.935V25.3001C37.8828 25.277 37.834 25.254 37.7884 25.231C37.7818 25.2277 37.7721 25.2211 37.7655 25.2179C37.6548 25.1587 37.5603 25.0962 37.4756 25.0304C37.3616 24.9384 37.2866 24.8496 37.2508 24.7575C37.228 24.6984 37.2182 24.6392 37.228 24.58C37.2378 24.5142 37.2606 24.4616 37.2997 24.4222L37.329 24.3761V24.3729C37.2084 24.2939 37.127 24.215 37.0781 24.1361Z" fill="#F5AC89"/>
<path d="M53.1039 24.7928C53.0074 24.7139 52.9108 24.6628 52.805 24.6396C52.7637 24.6303 52.7223 24.6257 52.6809 24.6257C52.5843 24.6025 52.4648 24.6025 52.3268 24.6211C52.1888 24.6396 52.0739 24.6721 51.9911 24.7139C51.9083 24.751 51.8531 24.7881 51.8301 24.816C51.8072 24.8485 51.8026 24.8809 51.8164 24.9088C51.8301 24.9366 51.8623 24.9598 51.9129 24.9738C52.1199 25.0248 52.3176 25.0155 52.5107 24.9506C52.359 25.0666 52.267 25.1826 52.2348 25.2986C52.2164 25.3729 52.221 25.4471 52.2486 25.5214C52.2808 25.6003 52.3314 25.6467 52.4004 25.6653C52.4648 25.6838 52.5291 25.6745 52.5981 25.6374C52.6625 25.6049 52.7131 25.5585 52.7545 25.4935C52.6901 25.6792 52.6763 25.8695 52.7131 26.0737C52.7269 26.1618 52.7591 26.2268 52.805 26.2593C52.8372 26.2825 52.874 26.2964 52.9154 26.2964C52.9568 26.2964 52.9982 26.2871 53.0304 26.2639C53.0948 26.2314 53.1499 26.1758 53.1959 26.0922C53.2833 25.953 53.3431 25.8091 53.3707 25.6513C53.3983 25.4889 53.3937 25.3311 53.3477 25.1826C53.3155 25.0295 53.2281 24.8995 53.1039 24.7928Z" fill="#EF8695"/>
<path d="M52.6758 24.6257C52.5792 24.6025 52.4597 24.6025 52.3217 24.6211C52.1837 24.6396 52.0734 24.6721 51.9906 24.7139C51.9078 24.751 51.8527 24.7881 51.8297 24.816C51.8067 24.8485 51.8021 24.8809 51.8159 24.9088C51.8297 24.9366 51.8619 24.9598 51.9124 24.9738C52.1194 25.0248 52.3171 25.0155 52.5102 24.9506C52.3585 25.0666 52.2665 25.1826 52.2343 25.2986C52.2159 25.3729 52.2205 25.4471 52.2481 25.5214C52.2803 25.6003 52.3309 25.6467 52.3999 25.6653C52.4643 25.6838 52.5286 25.6745 52.5976 25.6374C52.662 25.6049 52.7126 25.5585 52.754 25.4935C52.6896 25.6792 52.6758 25.8695 52.7126 26.0737C52.7264 26.1618 52.7586 26.2268 52.8046 26.2593C52.8367 26.2825 52.8735 26.2964 52.9149 26.2964C52.9563 26.2964 52.9977 26.2871 53.0299 26.2639C53.0943 26.2314 53.1494 26.1758 53.1954 26.0922C53.2828 25.953 53.3426 25.8091 53.3702 25.6513C53.3978 25.4889 53.3932 25.3311 53.3472 25.1826C53.3012 25.0295 53.2138 24.8995 53.0897 24.7928C52.9931 24.7139 52.8965 24.6628 52.7908 24.6396C52.7632 24.6303 52.7218 24.6257 52.6758 24.6257Z" stroke="#FEA6B6" stroke-width="0.0802544" stroke-miterlimit="3.4736" stroke-linecap="round" stroke-linejoin="round"/>
<path d="M43.1615 15.687C43.0511 15.7056 42.9729 15.8262 42.9316 16.0397C42.8948 16.2346 42.8902 16.462 42.927 16.7126C42.8534 16.6709 42.7798 16.6245 42.7062 16.5688C42.5453 16.4481 42.4073 16.3042 42.297 16.1372C42.3108 16.2625 42.3429 16.3831 42.3935 16.4945C42.4487 16.6105 42.5223 16.7126 42.6051 16.8055C42.72 16.9215 42.8534 17.0143 43.0005 17.0793C43.0051 17.0932 43.0051 17.1071 43.0097 17.121C42.743 17.0746 42.4901 16.9957 42.251 16.8797C42.297 16.9864 42.3613 17.0839 42.4533 17.1628C42.5361 17.2417 42.6373 17.302 42.7476 17.3531C42.8626 17.4041 42.9913 17.432 43.1339 17.4459C43.1477 17.4784 43.1661 17.5109 43.1845 17.5387C43.2994 17.7336 43.4098 17.8218 43.5202 17.8079C43.6305 17.7893 43.7041 17.664 43.7501 17.4459C43.7961 17.2278 43.7915 16.9679 43.7409 16.6755C43.6903 16.3785 43.6075 16.1372 43.4972 15.9422C43.3868 15.7566 43.2765 15.6684 43.1615 15.687Z" fill="#21000D"/>
<path d="M43.4474 16.8557C43.3872 16.7903 43.3332 16.7665 43.2799 16.7809C43.2266 16.7953 43.1917 16.8432 43.172 16.9302C43.1522 17.0172 43.1594 17.1162 43.188 17.2237C43.2166 17.3313 43.2593 17.4207 43.3195 17.4861C43.3797 17.5515 43.4349 17.5798 43.4882 17.5654C43.5415 17.551 43.5796 17.4974 43.5949 17.4116C43.6147 17.3246 43.6075 17.2256 43.5789 17.1181C43.5548 17.0093 43.5076 16.9211 43.4474 16.8557Z" fill="#F5ECEC"/>
<path d="M5.95258 17.8934C6.30207 18.0002 6.59178 18.144 6.82171 18.325C6.69295 18.3297 6.58718 18.3343 6.49981 18.3482C6.38484 18.3668 6.28368 18.4039 6.2009 18.4503C6.10433 18.506 6.03075 18.5849 5.98017 18.6824C5.92499 18.7845 5.90659 18.8866 5.93419 18.9887C5.97557 19.1325 6.09054 19.2578 6.28827 19.3553C6.5182 19.4713 6.76652 19.527 7.03324 19.5224C7.29996 19.5224 7.58967 19.4852 7.90237 19.4156C7.92996 19.2068 7.87937 19.0026 7.75521 18.7938C7.64485 18.6128 7.4885 18.4503 7.28616 18.3111C6.99645 18.1115 6.65156 17.9584 6.24689 17.8517C5.94338 17.7728 5.5617 17.7078 5.10645 17.666C5.45134 17.7496 5.73645 17.8238 5.95258 17.8934Z" fill="#E2936F"/>
<path d="M30.0175 21.9287C30.1278 21.4925 30.1141 21.0655 29.9715 20.6571C29.8381 20.2673 29.622 19.9749 29.3277 19.7754C29.0196 19.5665 28.6977 19.5108 28.3574 19.6129C27.9711 19.7197 27.5021 20.142 26.9365 20.8845L26.2007 22.9961C26.6743 23.6737 27.1204 24.045 27.5343 24.1192C27.9481 24.1935 28.3252 24.1471 28.6609 23.9754C28.9966 23.8037 29.2817 23.5531 29.5162 23.2282C29.7692 22.8801 29.9347 22.4485 30.0175 21.9287ZM29.3277 20.7639C28.9782 20.8474 28.6931 20.9263 28.477 20.9913C28.1275 21.098 27.8378 21.2419 27.6078 21.4229C27.7366 21.4275 27.8424 21.4322 27.9297 21.4461C28.0447 21.4647 28.1459 21.5018 28.2286 21.5482C28.3252 21.6039 28.3988 21.6828 28.4494 21.7802C28.5046 21.8823 28.523 21.9844 28.4954 22.0865C28.454 22.2304 28.339 22.3557 28.1413 22.4532C27.9113 22.5692 27.663 22.6249 27.3963 22.6202C27.1296 22.6202 26.8399 22.5831 26.5272 22.5135C26.4996 22.3047 26.5456 22.1005 26.6743 21.8916C26.7847 21.7106 26.9411 21.5482 27.1434 21.409C27.4331 21.2094 27.778 21.0563 28.1827 20.9495C28.4954 20.8706 28.8724 20.8103 29.3277 20.7639Z" fill="#F8AF89"/>
<path d="M28.4761 20.9911C28.6922 20.9261 28.9773 20.8472 29.3268 20.7637C28.8716 20.8101 28.4899 20.8704 28.1864 20.9493C27.7817 21.056 27.4368 21.2092 27.1471 21.4088C26.9448 21.548 26.7884 21.7104 26.6781 21.8914C26.5493 22.1002 26.4987 22.3044 26.5309 22.5133C26.8482 22.5829 27.1379 22.62 27.4 22.62C27.6668 22.6247 27.9151 22.5643 28.145 22.453C28.3427 22.3555 28.4623 22.2302 28.4991 22.0863C28.5221 21.9842 28.5083 21.8821 28.4531 21.78C28.4025 21.6826 28.3289 21.6037 28.2324 21.548C28.1496 21.5016 28.0484 21.4644 27.9335 21.4459C27.8461 21.432 27.7403 21.4227 27.6116 21.4227C27.8369 21.2463 28.1266 21.0978 28.4761 20.9911Z" fill="#E2936F"/>
<path d="M26.936 20.8843C27.5016 20.1418 27.9706 19.7194 28.3523 19.6081C28.6926 19.506 29.0191 19.5616 29.3272 19.7705C29.6215 19.97 29.8377 20.2671 29.971 20.6523C30.1136 21.0607 30.1274 21.4876 30.017 21.9239C29.9342 22.4436 29.7687 22.8799 29.5204 23.2233C29.2858 23.5528 29.0007 23.7988 28.665 23.9705C28.3293 24.1422 27.9522 24.1886 27.5384 24.1144C27.1245 24.0401 26.6738 23.6688 26.2002 22.9959L26.936 20.8843Z" stroke="#E2936F" stroke-width="0.120386" stroke-miterlimit="3.4736" stroke-linecap="round" stroke-linejoin="round"/>
<path d="M29.6729 15.8634C29.6407 15.3111 29.5165 14.8285 29.3004 14.4201C29.0842 14.0117 28.8175 13.7054 28.5048 13.5058C27.8242 13.0974 27.1942 12.8422 26.6102 12.7447C25.8745 12.6194 25.2491 12.7215 24.7294 13.0371C24.2374 13.348 23.8787 13.84 23.6442 14.5129C23.4602 15.0466 23.3636 15.687 23.3453 16.4389C23.3315 17.0329 23.3544 17.5759 23.405 18.0678C23.4648 18.6433 23.5706 19.1723 23.7223 19.655C23.8925 20.198 24.1224 20.6853 24.4121 21.1262C24.7202 21.5995 25.0881 22.0451 25.5158 22.4627C26.4125 21.4464 27.1391 20.5971 27.6955 19.9242C28.2565 19.2512 28.7302 18.5412 29.1256 17.7986C29.5257 17.0654 29.7051 16.4157 29.6729 15.8634Z" fill="#311413"/>
<path d="M28.5007 13.5054C28.8134 13.7049 29.0801 14.0112 29.2963 14.4196C29.5124 14.828 29.6366 15.3107 29.6688 15.8629C29.7009 16.4152 29.517 17.0649 29.1261 17.8075C28.7306 18.55 28.257 19.2601 27.696 19.933C27.1349 20.6059 26.4084 21.4552 25.5163 22.4716C25.0886 22.0539 24.7207 21.6084 24.4126 21.135C24.1229 20.6941 23.893 20.2022 23.7228 19.6638C23.5711 19.1812 23.4653 18.6521 23.4055 18.0766C23.3549 17.5847 23.3319 17.0417 23.3457 16.4477C23.3641 15.6959 23.4653 15.0554 23.6446 14.5217C23.8746 13.8488 24.2379 13.3569 24.7299 13.0506C25.2495 12.7303 25.8749 12.6329 26.6107 12.7582C27.1947 12.8417 27.8247 13.097 28.5007 13.5054Z" stroke="#311413" stroke-width="0.120386" stroke-miterlimit="3.4736" stroke-linecap="round" stroke-linejoin="round"/>
<path d="M27.8464 8.18058C27.6716 7.70257 27.3681 7.2524 26.9359 6.83936C26.5818 6.49594 26.1311 6.17107 25.5931 5.86478C24.117 5.02013 22.4109 4.45858 20.4795 4.18013C18.8378 3.93416 17.0168 3.90168 15.0164 4.06875C14.3174 4.12908 13.715 4.20334 13.2138 4.29615C12.57 4.41218 11.9906 4.57461 11.4709 4.77417C10.6064 5.10831 9.80166 5.60024 9.05669 6.24533C8.33932 6.86721 7.72771 7.59119 7.21727 8.41727C6.51369 9.545 6.05384 12.0325 5.83311 15.8798C5.90208 15.8891 5.96646 15.9077 6.03544 15.9262C6.06763 15.9355 6.09982 15.9448 6.12741 15.9541C6.54588 16.0979 6.91837 16.3671 7.24486 16.7662C7.61735 17.221 7.87027 17.7733 7.99443 18.4184C7.86567 17.7733 7.61735 17.221 7.24486 16.7662C6.91837 16.3671 6.54588 16.0979 6.12741 15.9541C6.09522 15.9448 6.06763 15.9355 6.03544 15.9262C5.96646 15.9077 5.89749 15.8891 5.83311 15.8798C5.44683 15.8102 5.07894 15.8705 4.73865 16.0562C4.30179 16.2975 3.96609 16.7523 3.73617 17.4206C3.45105 18.242 3.41886 19.0124 3.6396 19.7271C3.85113 20.4093 4.27879 20.9709 4.92259 21.4071C5.49741 21.732 6.05844 21.7134 6.61026 21.3561C7.1253 21.0219 7.61735 20.3954 8.091 19.4812C8.13238 19.9081 8.22435 20.3212 8.36691 20.7203C8.78538 21.7691 9.38779 22.6091 10.1649 23.2403C11.2548 24.187 12.685 24.9388 14.46 25.5004C16.0603 26.0063 17.7204 26.294 19.4448 26.3636C21.1141 26.4332 22.4385 26.294 23.4272 25.9459C25.5241 25.208 26.7795 24.0617 27.2026 22.5024C27.4279 21.6577 27.4141 20.7667 27.1566 19.8199C26.9589 19.1052 26.8623 18.5576 26.8623 18.1817C26.8623 17.8012 26.9359 17.3185 27.083 16.7245C27.2302 16.1304 27.3819 15.1605 27.5383 13.8193C27.69 12.4827 27.4509 11.5313 26.8209 10.9605C27.3084 10.7748 27.6487 10.3989 27.8418 9.8281C28.0441 9.26655 28.0441 8.71892 27.8464 8.18058Z" fill="#F8AF89"/>
<path d="M5.83319 15.8846C6.05392 12.0327 6.51837 9.54516 7.21735 8.41742C7.72779 7.59134 8.3394 6.86736 9.05677 6.24548C9.80174 5.6004 10.6065 5.10847 11.471 4.77432C11.9907 4.57476 12.5701 4.41233 13.2139 4.29631C13.7151 4.20349 14.3175 4.12924 15.0165 4.06891C17.0169 3.90183 18.8333 3.93896 20.475 4.17565C22.4064 4.4541 24.1124 5.01565 25.5886 5.86029C26.1312 6.17123 26.5773 6.49609 26.9314 6.83488C27.3636 7.25256 27.6671 7.69808 27.8419 8.1761C28.035 8.71444 28.0396 9.26671 27.8511 9.82361C27.6579 10.3944 27.3176 10.7704 26.8302 10.956C27.4602 11.5268 27.6993 12.4782 27.5476 13.8148C27.3912 15.156 27.2395 16.1259 27.0923 16.72C26.9451 17.314 26.8716 17.8013 26.8716 18.1772C26.8716 18.5531 26.9681 19.1008 27.1659 19.8155C27.4234 20.7622 27.4418 21.6579 27.2119 22.4979C26.7888 24.0572 25.5334 25.2082 23.4365 25.9414C22.4478 26.2895 21.1188 26.4287 19.4541 26.3591C17.7296 26.2895 16.065 26.0018 14.4693 25.4959C12.6942 24.9344 11.2595 24.1825 10.1742 23.2358C9.39707 22.6046 8.79466 21.7646 8.37619 20.7158C8.23363 20.3167 8.14166 19.9036 8.10027 19.4767C7.62662 20.3956 7.13458 21.0174 6.61954 21.3516C6.06771 21.7089 5.50669 21.7229 4.93187 21.4026C4.28807 20.9664 3.86041 20.4048 3.64887 19.7226C3.42814 19.0079 3.46033 18.2376 3.74544 17.4161C3.97537 16.7478 4.31106 16.293 4.74793 16.0517C5.08362 15.8707 5.44691 15.8104 5.83319 15.8846ZM5.83319 15.8846C5.90216 15.8939 5.96654 15.9125 6.03552 15.931C6.06771 15.9403 6.0999 15.9496 6.12749 15.9589C6.54596 16.1027 6.91845 16.3719 7.24494 16.771C7.61743 17.2258 7.87035 17.7781 7.99451 18.4232M26.8302 10.9606C26.8256 10.9699 26.8164 10.9792 26.8072 10.9838" stroke="#E2936F" stroke-width="0.120386" stroke-miterlimit="3.4736" stroke-linecap="round" stroke-linejoin="round"/>
<path d="M36.5521 5.35856C36.0049 4.0916 35.2783 3.03811 34.3678 2.20739C33.4987 1.40916 32.4824 0.829048 31.3189 0.467059C30.1923 0.114351 28.9599 -0.020235 27.6263 0.063301C26.3111 0.142196 24.9407 0.429932 23.5152 0.921866C22.5909 1.23745 21.8965 1.44629 21.4366 1.54839C20.4985 1.75259 19.588 1.81292 18.7143 1.7201C18.282 1.67369 17.4635 1.54375 16.2587 1.33026C15.2332 1.14927 14.4147 1.04717 13.803 1.01468C12.8971 0.968275 12.0694 1.04253 11.3152 1.24209C10.9244 1.34419 10.4507 1.58087 9.88968 1.95214C9.41603 2.26308 9.01595 2.57402 8.68026 2.88496C8.2342 2.40231 7.77894 2.12386 7.31909 2.0496C6.92361 1.98463 6.6247 2.07281 6.43156 2.30949C6.34419 2.41623 6.29821 2.5369 6.29821 2.67612C6.29821 2.81999 6.34419 2.96386 6.44076 3.10309C6.67069 3.43723 7.11675 3.69248 7.77434 3.85955C7.36967 3.76673 6.9512 3.73425 6.52813 3.76673C6.06368 3.79922 5.62222 3.90596 5.20375 4.08231C5.10718 4.11944 5.0336 4.16585 4.97842 4.2169C4.90944 4.28187 4.87725 4.35613 4.88645 4.43502C4.89565 4.54176 4.97842 4.63458 5.13017 4.71348C5.42908 4.87127 5.78777 4.96872 6.21083 5.00585C6.38098 5.01977 6.60171 5.02442 6.87762 5.01977C6.15105 5.58596 5.55324 6.18464 5.08419 6.82508C4.50017 7.61867 4.06791 8.48652 3.79659 9.42862C3.4655 10.5703 3.38732 11.763 3.55747 12.9975C3.7598 14.4501 4.29783 15.9305 5.18076 17.4388C5.9947 18.6315 6.74886 19.0399 7.44325 18.6547C7.9215 18.3577 8.33996 17.9818 8.69865 17.5316C9.05734 17.0815 9.32405 16.5895 9.508 16.0512C9.69194 15.5175 9.77931 14.9606 9.77471 14.3805C9.76552 13.8096 9.66895 13.2574 9.48041 12.7283C9.73793 12.6308 9.98625 12.5195 10.23 12.3942C10.9152 12.0322 11.49 11.5727 11.9544 11.0112C12.4419 10.4264 12.7776 9.76277 12.9615 9.02487C13.1409 8.31945 13.1179 7.51193 12.8925 6.59304C13.1363 7.00608 13.5317 7.40055 14.079 7.77646C14.6262 8.15238 15.1734 8.40299 15.7114 8.52365C16.3093 8.65823 16.7691 8.60254 17.091 8.35194C17.4681 8.05956 17.6107 7.5305 17.5233 6.76939C18.2866 8.51437 19.0592 9.76741 19.8501 10.5285C20.5077 11.1643 21.032 11.466 21.4275 11.4428C21.8229 11.4196 22.0988 11.3407 22.2644 11.2061C22.4299 11.0715 22.5679 10.8441 22.6829 10.5192C22.7978 10.1944 22.8392 9.90663 22.8024 9.66067C22.7656 9.41006 22.6967 9.13161 22.6001 8.82531C23.9567 10.6585 25.3408 11.9718 26.7434 12.7654C28.1092 13.5358 29.5531 13.8885 31.0752 13.8235C32.1651 13.7493 33.1538 13.4384 34.0505 12.8907C34.8966 12.3756 35.5818 11.698 36.106 10.858C36.6211 10.0273 36.9246 9.14089 37.012 8.1895C37.1085 7.20564 36.9522 6.25889 36.5521 5.35856Z" fill="#381919"/>
<g opacity="0.49">
<path d="M22.4518 18.5418C21.4266 17.8729 20.19 17.472 18.7405 17.3446C17.2924 17.2116 16.0587 17.3366 15.0474 17.7214C14.0267 18.1098 13.5241 18.4582 13.5222 18.768C13.5269 19.0854 14.0404 19.265 15.0534 19.3102C16.0664 19.3554 17.2947 19.42 18.7461 19.5061C20.1868 19.6014 21.428 19.7827 22.4575 20.0648C23.495 20.349 24.006 20.337 24.0013 20.0195C23.9952 19.7077 23.4836 19.2183 22.4518 18.5418Z" fill="url(#paint1_radial_1_26215)"/>
</g>
<path d="M8.0956 19.4903L8.00362 18.4229C7.87487 17.7779 7.62654 17.2256 7.25406 16.7708C6.92756 16.3717 6.55048 16.1025 6.13201 15.9586C6.09982 15.9493 6.07223 15.9401 6.04004 15.9308C5.57559 15.7962 5.14332 15.838 4.73865 16.0607C4.30179 16.3021 3.96609 16.7569 3.73617 17.4251C3.45105 18.2466 3.41886 19.017 3.6396 19.7363C3.85113 20.4185 4.27879 20.9801 4.92259 21.4163C5.49741 21.7412 6.05844 21.7226 6.61026 21.3653C7.1299 21.0358 7.62194 20.4092 8.0956 19.4903Z" fill="#F8AF89"/>
<path d="M8.0046 18.4229C7.87584 17.7779 7.62752 17.2256 7.25504 16.7708C6.92854 16.3717 6.55146 16.1025 6.13299 15.9586C6.1008 15.9493 6.07321 15.9401 6.04102 15.9308C5.57656 15.7962 5.1443 15.838 4.73963 16.0607C4.30276 16.3021 3.96707 16.7569 3.73714 17.4251C3.45203 18.2466 3.41984 19.017 3.64057 19.7363C3.85211 20.4185 4.27977 20.9801 4.92357 21.4163C5.49839 21.7412 6.05941 21.7226 6.61124 21.3653C7.13088 21.0358 7.62292 20.4092 8.09657 19.4903C8.13796 19.9173 8.22993 20.3303 8.37248 20.7295" stroke="#E2936F" stroke-width="0.120386" stroke-miterlimit="3.4736" stroke-linecap="round" stroke-linejoin="round"/>
<path d="M5.58931 17.4045C5.31227 17.3212 4.94681 17.2201 4.49884 17.113C5.08239 17.1725 5.57162 17.2499 5.96066 17.351C6.47936 17.4878 6.92145 17.6841 7.2928 17.9399C7.55215 18.1184 7.75256 18.3266 7.89403 18.5586C8.05907 18.8263 8.12391 19.088 8.08265 19.3557C7.67593 19.4449 7.30458 19.4925 6.9686 19.4925C6.62673 19.4985 6.30843 19.4271 6.01371 19.2784C5.76025 19.1534 5.60699 18.9928 5.55983 18.8084C5.53036 18.6775 5.54805 18.5467 5.61878 18.4158C5.68362 18.2909 5.77793 18.1898 5.90171 18.1184C6.00781 18.0589 6.13749 18.0113 6.28485 17.9875C6.39684 17.9696 6.53241 17.9578 6.69746 17.9578C6.41453 17.7317 6.04318 17.5413 5.58931 17.4045Z" fill="#E2936F"/>
<path d="M22.6306 18.2857C22.6812 17.8819 22.6628 17.5246 22.5709 17.2229C22.4835 16.9213 22.3501 16.7588 22.1708 16.7356C21.9914 16.7124 21.8259 16.8377 21.6649 17.1069C21.504 17.3761 21.3982 17.7149 21.3476 18.1233C21.2971 18.5317 21.3155 18.8844 21.4028 19.186C21.4902 19.4923 21.6236 19.6548 21.8029 19.6733C21.9822 19.6965 22.1478 19.5712 22.3087 19.302C22.4743 19.0329 22.5801 18.6941 22.6306 18.2857ZM22.3593 17.4086C22.4283 17.4086 22.4835 17.4596 22.5295 17.5617C22.5801 17.6638 22.6031 17.7891 22.6031 17.933C22.6031 18.0768 22.5801 18.1975 22.5295 18.2996C22.4835 18.4017 22.4237 18.4528 22.3593 18.4528C22.2903 18.4528 22.2352 18.4017 22.1846 18.2996C22.134 18.1975 22.111 18.0722 22.111 17.9283C22.111 17.7845 22.134 17.6592 22.1846 17.5571C22.2352 17.4596 22.2949 17.4086 22.3593 17.4086Z" fill="#21000D"/>
<path d="M22.5347 17.5616C22.4887 17.4595 22.4289 17.4084 22.3645 17.4084C22.2956 17.4084 22.2404 17.4595 22.1898 17.5616C22.1392 17.6637 22.1162 17.789 22.1162 17.9329C22.1162 18.0767 22.1392 18.202 22.1898 18.3041C22.2404 18.4062 22.2956 18.4573 22.3645 18.4573C22.4335 18.4573 22.4887 18.4062 22.5347 18.3041C22.5853 18.202 22.6083 18.0814 22.6083 17.9375C22.6083 17.789 22.5853 17.6637 22.5347 17.5616Z" fill="#F5ECEC"/>
<path d="M22.6092 17.9329C22.6092 18.0767 22.5862 18.1974 22.5357 18.2995C22.4897 18.4016 22.4299 18.4527 22.3655 18.4527C22.2965 18.4527 22.2413 18.4016 22.1908 18.2995C22.1402 18.1974 22.1172 18.0721 22.1172 17.9282C22.1172 17.7844 22.1402 17.6591 22.1908 17.557C22.2413 17.4549 22.2965 17.4038 22.3655 17.4038C22.4345 17.4038 22.4897 17.4549 22.5357 17.557C22.5862 17.6637 22.6092 17.789 22.6092 17.9329Z" stroke="white" stroke-width="0.0802544" stroke-miterlimit="3.4736" stroke-linecap="round" stroke-linejoin="round"/>
<path d="M18.7805 18.2864C18.8311 17.8827 18.8127 17.5253 18.7208 17.2237C18.6334 16.922 18.5 16.7596 18.3207 16.7364C18.1413 16.7132 17.9758 16.8385 17.8148 17.1076C17.6539 17.3768 17.5481 17.7156 17.4975 18.124C17.447 18.5324 17.4654 18.8851 17.5527 19.1868C17.6401 19.4931 17.7735 19.6555 17.9528 19.674C18.1321 19.6973 18.2977 19.5719 18.4586 19.3028C18.6242 19.0336 18.73 18.6948 18.7805 18.2864ZM18.5092 17.4093C18.5782 17.4093 18.6334 17.4603 18.6794 17.5624C18.73 17.6645 18.753 17.7898 18.753 17.9337C18.753 18.0776 18.73 18.1982 18.6794 18.3003C18.6334 18.4024 18.5736 18.4535 18.5092 18.4535C18.4449 18.4535 18.3851 18.4024 18.3345 18.3003C18.2839 18.1982 18.2609 18.0729 18.2609 17.9291C18.2609 17.7852 18.2839 17.6599 18.3345 17.5578C18.3851 17.4603 18.4449 17.4093 18.5092 17.4093Z" fill="#21000D"/>
<path d="M18.6851 17.5621C18.6391 17.46 18.5793 17.4089 18.5149 17.4089C18.4505 17.4089 18.3908 17.46 18.3402 17.5621C18.2896 17.6642 18.2666 17.7895 18.2666 17.9334C18.2666 18.0772 18.2896 18.2025 18.3402 18.3046C18.3908 18.4067 18.4459 18.4578 18.5149 18.4578C18.5839 18.4578 18.6391 18.4067 18.6851 18.3046C18.7357 18.2025 18.7586 18.0819 18.7586 17.938C18.7586 17.7895 18.7357 17.6642 18.6851 17.5621Z" fill="#F5ECEC"/>
<path d="M18.7591 17.9336C18.7591 18.0775 18.7361 18.1981 18.6856 18.3002C18.6396 18.4023 18.5798 18.4534 18.5154 18.4534C18.451 18.4534 18.3913 18.4023 18.3407 18.3002C18.2901 18.1981 18.2671 18.0728 18.2671 17.929C18.2671 17.7851 18.2901 17.6598 18.3407 17.5577C18.3913 17.4556 18.4464 17.4045 18.5154 17.4045C18.5844 17.4045 18.6396 17.4556 18.6856 17.5577C18.7361 17.6644 18.7591 17.7897 18.7591 17.9336Z" stroke="white" stroke-width="0.0802544" stroke-miterlimit="3.4736" stroke-linecap="round" stroke-linejoin="round"/>
<path d="M14.939 10.5031C14.4561 10.6516 14.0561 10.9486 13.7388 11.3942C13.4169 11.8443 13.2099 12.4012 13.1226 13.0602C14.3826 11.5473 16.1668 11.0971 18.4707 11.719C17.8315 11.1482 17.1969 10.7584 16.5669 10.5588C15.9829 10.3639 15.4402 10.3453 14.939 10.5031ZM26.486 14.8145C26.5503 14.1508 26.4722 13.5615 26.2514 13.051C26.0399 12.5451 25.718 12.1692 25.2811 11.9139C24.8259 11.654 24.2924 11.5519 23.6762 11.6123C23.0186 11.6633 22.3197 11.8954 21.5701 12.3084C23.9522 12.2202 25.5938 13.0556 26.486 14.8145Z" fill="#3C1925"/>
<path d="M13.9651 19.1814C13.8179 19.2928 13.7535 19.4553 13.7765 19.6687C13.8317 19.5481 13.9513 19.4274 14.1444 19.316C14.1582 19.3021 14.172 19.2882 14.195 19.2743C14.3329 19.1907 14.4985 19.1582 14.687 19.1814C14.5399 19.1118 14.4019 19.0793 14.2824 19.0793C14.1628 19.0793 14.057 19.1118 13.9651 19.1814ZM22.6517 20.7129C22.4632 20.5737 22.2701 20.5041 22.0769 20.4995C22.2241 20.5551 22.408 20.6712 22.6195 20.8429C22.8081 20.9728 22.9506 21.1306 23.0518 21.3116C23.038 21.242 23.0196 21.177 22.9966 21.1167C22.9276 20.9589 22.8127 20.829 22.6517 20.7129Z" fill="#C47554"/>
<path d="M22.616 20.8381C22.3815 21.214 22.2022 21.4971 22.078 21.6874C21.8619 22.0216 21.6641 22.2954 21.4894 22.5089C21.0066 23.0936 20.5007 23.4324 19.9627 23.5252C19.2913 23.6459 18.5187 23.4092 17.645 22.8198C16.6425 22.1422 15.4745 20.9727 14.1455 19.3159" stroke="#C47554" stroke-width="0.120386" stroke-miterlimit="3.4736" stroke-linecap="round" stroke-linejoin="round"/>
<path d="M7.19052 32.5188C7.19971 32.6302 7.21351 32.7462 7.22731 32.8576C7.49862 34.9321 8.63906 36.988 10.6578 39.0346C11.3338 38.9371 11.9454 38.7701 12.5018 38.5334C12.088 37.7027 11.6143 36.8998 11.0901 36.1248C10.4417 35.1734 9.72892 34.2823 8.94717 33.4562C8.75863 33.4423 8.57468 33.4145 8.38614 33.3681C8.29877 33.3449 8.216 33.3217 8.13322 33.2938C8.216 33.3217 8.30337 33.3449 8.38614 33.3681C8.57468 33.4145 8.75863 33.4423 8.94717 33.4562C9.72892 34.2823 10.4417 35.1734 11.0901 36.1248C11.6143 36.8998 12.088 37.7027 12.5018 38.5334C13.7894 37.9858 14.7643 37.0622 15.4219 35.7721C13.3342 32.8808 11.2786 31.0198 9.26906 30.1983C7.70096 29.5533 7.00658 30.3283 7.19052 32.5188Z" fill="#623A80"/>
<path d="M12.5061 38.5337C11.9497 38.7704 11.3335 38.9375 10.6621 39.035C8.64331 36.9883 7.49827 34.9278 7.22696 32.8579C7.21316 32.7466 7.19937 32.6305 7.19017 32.5192C7.00623 30.3287 7.69601 29.5583 9.26412 30.2033C11.2737 31.0248 13.3292 32.8811 15.4216 35.7724C14.7686 37.0626 13.7937 37.9815 12.5061 38.5337ZM12.5061 38.5337C12.0922 37.703 11.6186 36.9002 11.0943 36.1251C10.4459 35.1737 9.73317 34.2827 8.95142 33.4566C8.76288 33.4427 8.57893 33.4148 8.39039 33.3684C8.30302 33.3452 8.22025 33.322 8.13747 33.2942M8.27543 32.7698C8.50536 32.9925 8.73069 33.2199 8.95142 33.452" stroke="#35175A" stroke-width="0.0802544" stroke-miterlimit="3.4736" stroke-linecap="round" stroke-linejoin="round"/>
<path d="M9.30078 39.393L23.3034 43.788L28.325 29.0438L14.304 24.6721L9.30078 39.393Z" fill="#6B2B2B"/>
<path d="M15.062 23.9708L15.7196 24.2121C16.3772 23.2051 16.3772 22.3651 15.7196 21.7014L15.062 23.9708Z" fill="#FAF6C6"/>
<path d="M14.304 24.6721V23.6929L9.30078 38.6041V39.3884L14.304 24.6721Z" fill="#844A49"/>
<path d="M35.661 22.3191L28.3263 29.0437L23.3047 43.7879L30.8003 36.9472L35.661 22.3191Z" fill="#4D1312"/>
<path d="M34.667 22.472L34.6256 22.4302C34.2531 22.0729 34.0416 21.4835 33.991 20.6667C31.3882 20.249 29.1441 22.2585 27.2679 26.6906C25.9343 25.1962 24.2466 23.9432 22.2141 22.9361C20.0481 21.7991 17.8822 21.386 15.7163 21.7016C16.3739 22.3653 16.3739 23.2053 15.7163 24.2123L28.2566 28.287L34.667 22.472Z" fill="#EEE1AC"/>
<path d="M35.2133 21.9802L34.6707 22.4722L28.2603 28.2872L15.7201 24.2125L15.0625 23.9712L14.3037 23.6927V24.6719L28.3247 29.0437L35.6594 22.319L35.2133 21.9802Z" fill="#844A48"/>
<path d="M28.6126 28.7784L28.1068 28.1472L27.1641 38.1112L27.8584 37.4847L28.5252 38.088L28.6126 28.7784Z" fill="#EE9821"/>
<path d="M14.9949 31.916C15.1788 31.7907 15.188 31.6654 15.0133 31.5401C14.8385 31.4101 14.3695 31.2941 13.5969 31.1827C12.8244 31.0713 12.4013 31.011 12.3277 31.0064C12.2495 30.9971 12.176 30.9739 12.107 30.9275C12.0288 30.8718 11.9828 30.7929 11.9736 30.6908C11.9598 30.6165 11.9552 30.5376 11.946 30.4448C11.7437 30.468 11.546 30.5608 11.3436 30.7233C11.1367 30.8903 11.0217 31.0992 11.0079 31.3405C10.9941 31.5354 11.0493 31.7396 11.1643 31.9485C11.2471 32.1016 11.3758 32.278 11.546 32.4729C11.8817 32.8627 12.2128 33.1922 12.5347 33.4568C12.9163 33.777 13.3026 34.023 13.6981 34.1993C14.112 34.3896 14.0798 34.2132 13.6015 33.6795C13.1233 33.1551 12.6772 32.7421 12.2633 32.4497C12.6404 32.7049 13.0405 32.9091 13.4636 33.0669C13.8958 33.2247 14.3327 33.3222 14.7788 33.3593C14.9029 33.3639 14.9949 33.3454 15.0455 33.3083C15.0961 33.2665 15.1236 33.2201 15.119 33.1737C15.1144 33.1226 15.0869 33.0669 15.0317 33.0112C14.9765 32.9555 14.8385 32.8627 14.6224 32.7281C14.4063 32.5936 14.1212 32.4497 13.7717 32.2919C13.4222 32.1341 12.9715 31.9531 12.4197 31.7536C13.951 31.9856 14.8063 32.0413 14.9949 31.916Z" fill="#F5AC89"/>
<path d="M32.3967 31.2092C32.0013 31.4645 31.7253 31.6455 31.5736 31.7476C31.2885 31.9425 31.0632 32.1513 30.893 32.3741C30.8332 32.4484 30.801 32.518 30.7872 32.5737C30.778 32.6108 30.7826 32.6526 30.7918 32.6897C30.8056 32.7315 30.824 32.7593 30.8516 32.7779C30.8884 32.8011 30.9252 32.8104 30.9712 32.8057C31.0034 32.8057 31.0448 32.7964 31.0999 32.7871C31.4034 32.7129 31.6978 32.6108 31.9829 32.4762C32.245 32.3555 32.4473 32.2349 32.5853 32.1096C32.7784 31.9239 32.8934 31.7197 32.9302 31.497C32.9394 31.4181 32.9348 31.3438 32.9118 31.2789C32.8842 31.2 32.7784 31.135 32.5899 31.0839C32.5255 31.1257 32.4611 31.1675 32.3967 31.2092ZM33.5924 29.5339C33.6751 29.3854 33.6981 29.2276 33.6567 29.0512C33.6199 28.8702 33.5326 28.731 33.3992 28.6289C33.2751 28.7496 33.2245 28.9259 33.2429 29.158C32.7462 29.3761 32.3002 29.636 31.9001 29.9376C31.7575 30.0444 31.6656 30.1372 31.6242 30.2161C31.5966 30.2811 31.5874 30.3321 31.6012 30.3692C31.6242 30.4203 31.6794 30.4481 31.7667 30.4621C31.8955 30.4713 32.0656 30.4389 32.2726 30.3646C31.8817 30.6198 31.592 30.8565 31.4034 31.0839C31.3483 31.1396 31.3115 31.2 31.2931 31.2557C31.2701 31.3299 31.2747 31.3902 31.3115 31.4366C31.3713 31.5109 31.4862 31.5155 31.6564 31.4552C31.9829 31.3438 32.222 31.251 32.3783 31.1814H32.3829C32.3829 31.1814 32.3829 31.1768 32.3875 31.1768C32.4611 31.1443 32.5301 31.1118 32.5945 31.0793C32.6037 31.0747 32.6175 31.0654 32.6313 31.0607C32.7876 30.9772 32.921 30.889 33.0405 30.7962C33.2015 30.6663 33.3072 30.541 33.3578 30.411C33.39 30.3275 33.4038 30.2439 33.39 30.1604C33.3762 30.0676 33.344 29.9933 33.2889 29.9376L33.2475 29.8727C33.413 29.7566 33.528 29.6453 33.5924 29.5339Z" fill="#F5AC89"/>
<defs>
<radialGradient id="paint0_radial_1_26215" cx="0" cy="0" r="1" gradientUnits="userSpaceOnUse" gradientTransform="translate(44.8005 17.6021) rotate(22.0179) scale(2.79983 1.21763)">
<stop stop-color="#D23F41" stop-opacity="0.8078"/>
<stop offset="0.5176" stop-color="#DB5E61" stop-opacity="0.5686"/>
<stop offset="1" stop-color="#F0ACAD" stop-opacity="0.0588235"/>
</radialGradient>
<radialGradient id="paint1_radial_1_26215" cx="0" cy="0" r="1" gradientUnits="userSpaceOnUse" gradientTransform="translate(19.293 19.3592) rotate(32.7908) scale(12.6157 5.47306)">
<stop stop-color="#D23F41" stop-opacity="0.8078"/>
<stop offset="0.5176" stop-color="#DB5E61" stop-opacity="0.5686"/>
<stop offset="1" stop-color="#F0ACAD" stop-opacity="0.0588235"/>
</radialGradient>
</defs>
</svg>
