<svg width="63" height="62" viewBox="0 0 63 62" fill="none" xmlns="http://www.w3.org/2000/svg">
<path d="M8.08398 24.8336V39.7629C8.08398 45.2299 8.08398 45.2299 13.2506 48.7144L27.459 56.915C29.5917 58.1466 33.0762 58.1466 35.209 56.915L49.4173 48.7144C54.5839 45.2299 54.5839 45.2299 54.5839 39.7629V24.8336C54.5839 19.3666 54.5839 19.3666 49.4173 15.8821L35.209 7.6815C33.0762 6.44992 29.5917 6.44992 27.459 7.6815L13.2506 15.8821C8.08398 19.3666 8.08398 19.3666 8.08398 24.8336Z" stroke="#292D32" stroke-width="4.50581" stroke-linecap="round" stroke-linejoin="round"/>
<path d="M33.2268 22.9934L34.939 25.6669C35.2093 26.0874 35.8101 26.508 36.2607 26.6281L39.3246 27.4091C41.2171 27.8897 41.7277 29.5118 40.4961 31.0138L38.4835 33.4469C38.1832 33.8374 37.9428 34.5283 37.9729 35.0089L38.1531 38.163C38.2733 40.1155 36.8915 41.1068 35.0892 40.3859L32.1454 39.2143C31.6948 39.0341 30.9438 39.0341 30.4932 39.2143L27.5494 40.3859C25.7471 41.1068 24.3653 40.0855 24.4855 38.163L24.6657 35.0089C24.6958 34.5283 24.4555 33.8074 24.1551 33.4469L22.1425 31.0138C20.9109 29.5118 21.4215 27.8897 23.314 27.4091L26.3779 26.6281C26.8586 26.508 27.4593 26.0574 27.6996 25.6669L29.4118 22.9934C30.4932 21.3713 32.1754 21.3713 33.2268 22.9934Z" stroke="#292D32" stroke-width="4.50581" stroke-linecap="round" stroke-linejoin="round"/>
</svg>
