<svg width="63" height="62" viewBox="0 0 63 62" fill="none" xmlns="http://www.w3.org/2000/svg">
<path d="M41.2774 56.8203H21.0422C20.138 56.8203 19.1263 56.1099 18.8249 55.2488L9.91277 30.3207C8.64269 26.7472 10.128 25.6494 13.1849 27.8451L21.5803 33.8511C22.9796 34.8198 24.5726 34.3247 25.1753 32.7532L28.9641 22.6571C30.1696 19.4281 32.1716 19.4281 33.3771 22.6571L37.1658 32.7532C37.7686 34.3247 39.3615 34.8198 40.7393 33.8511L48.6181 28.2326C51.9763 25.8216 53.5908 27.0486 52.2131 30.945L43.5162 55.2919C43.1933 56.1099 42.1816 56.8203 41.2774 56.8203Z" stroke="#292D32" stroke-width="3.22903" stroke-linecap="round" stroke-linejoin="round"/>
<path d="M25.7783 46.0996H36.5418" stroke="#292D32" stroke-width="3.22903" stroke-linecap="round" stroke-linejoin="round"/>
<path d="M27.9312 6.11369L31.1602 5.1665L30.213 8.39554L31.1602 11.6246L27.9312 10.6774L24.7021 11.6246L25.6493 8.39554L24.7021 5.1665L27.9312 6.11369Z" stroke="#292D32" stroke-width="2.15269" stroke-linecap="round" stroke-linejoin="round"/>
<path d="M15.0142 14.7245L18.2432 13.7773L17.296 17.0064L18.2432 20.2354L15.0142 19.2882L11.7852 20.2354L12.7323 17.0064L11.7852 13.7773L15.0142 14.7245Z" stroke="#292D32" stroke-width="2.15269" stroke-linecap="round" stroke-linejoin="round"/>
<path d="M45.1529 16.8774L48.3819 15.9302L47.4347 19.1592L48.3819 22.3882L45.1529 21.4411L41.9238 22.3882L42.871 19.1592L41.9238 15.9302L45.1529 16.8774Z" stroke="#292D32" stroke-width="2.15269" stroke-linecap="round" stroke-linejoin="round"/>
</svg>
