<svg width="1200" height="509" viewBox="0 0 1200 509" fill="none" xmlns="http://www.w3.org/2000/svg">
<g clip-path="url(#clip0_1_28129)">
<path d="M170.233 457.719C223.574 511.061 256.83 574.357 267.494 633.555C278.159 692.755 266.228 747.805 229.276 784.756C192.325 821.708 137.275 833.639 78.0748 822.974C18.8771 812.31 -44.4194 779.054 -97.7606 725.713C-151.102 672.372 -184.357 609.075 -195.022 549.878C-205.687 490.678 -193.756 435.628 -156.804 398.676C-119.852 361.725 -64.8024 349.793 -5.60246 360.458C53.5953 371.123 116.892 404.378 170.233 457.719Z" stroke="white"/>
<path d="M202.233 425.719C255.574 479.061 288.83 542.357 299.494 601.555C310.159 660.755 298.228 715.805 261.276 752.756C224.325 789.708 169.275 801.639 110.075 790.974C50.8771 780.31 -12.4194 747.054 -65.7606 693.713C-119.102 640.372 -152.357 577.075 -163.022 517.878C-173.687 458.678 -161.756 403.628 -124.804 366.676C-87.8524 329.725 -32.8024 317.793 26.3975 328.458C85.5953 339.123 148.892 372.378 202.233 425.719Z" stroke="white"/>
<path d="M234.233 393.719C287.574 447.061 320.83 510.357 331.494 569.555C342.159 628.755 330.228 683.805 293.276 720.756C256.325 757.708 201.275 769.639 142.075 758.974C82.8771 748.31 19.5806 715.054 -33.7606 661.713C-87.1017 608.372 -120.357 545.075 -131.022 485.878C-141.687 426.678 -129.756 371.628 -92.804 334.676C-55.8524 297.725 -0.802425 285.793 58.3975 296.458C117.595 307.123 180.892 340.378 234.233 393.719Z" stroke="white"/>
<path d="M1233.22 -122.757C1286.56 -69.4159 1319.81 -6.11939 1330.48 53.0783C1341.14 112.278 1329.21 167.328 1292.26 204.28C1255.31 241.231 1200.26 253.163 1141.06 242.498C1081.86 231.833 1018.56 198.578 965.224 145.236C911.883 91.8953 878.627 28.5988 867.963 -30.5989C857.298 -89.7989 869.229 -144.849 906.18 -181.8C943.132 -218.752 998.182 -230.683 1057.38 -220.018C1116.58 -209.354 1179.88 -176.098 1233.22 -122.757Z" stroke="white"/>
<path d="M1265.22 -154.757C1318.56 -101.416 1351.81 -38.1194 1362.48 21.0783C1373.14 80.2783 1361.21 135.328 1324.26 172.28C1287.31 209.231 1232.26 221.163 1173.06 210.498C1113.86 199.833 1050.56 166.578 997.224 113.236C943.883 59.8953 910.627 -3.4012 899.963 -62.5989C889.298 -121.799 901.229 -176.849 938.18 -213.8C975.132 -250.752 1030.18 -262.683 1089.38 -252.018C1148.58 -241.354 1211.88 -208.098 1265.22 -154.757Z" stroke="white"/>
<path d="M1297.22 -186.757C1350.56 -133.416 1383.81 -70.1194 1394.48 -10.9217C1405.14 48.2783 1393.21 103.328 1356.26 140.28C1319.31 177.231 1264.26 189.163 1205.06 178.498C1145.86 167.833 1082.56 134.578 1029.22 81.2364C975.883 27.8953 942.627 -35.4012 931.963 -94.5989C921.298 -153.799 933.229 -208.849 970.18 -245.8C1007.13 -282.752 1062.18 -294.683 1121.38 -284.018C1180.58 -273.354 1243.88 -240.098 1297.22 -186.757Z" stroke="white"/>
<path d="M517.912 355.954L502.838 372.624L522.326 383.82L501.813 374.635L497.187 396.629L499.584 374.282L477.237 376.679L499.231 372.053L490.046 351.54L501.242 371.028L517.912 355.954Z" fill="white"/>
<path d="M624.814 49.954L609.74 66.6242L629.228 77.8203L608.715 68.6353L604.089 90.629L606.486 68.2822L584.139 70.679L606.133 66.0529L596.948 45.5404L608.144 65.0282L624.814 49.954Z" fill="white"/>
</g>
<defs>
<clipPath id="clip0_1_28129">
<rect y="0.983398" width="1200" height="508" rx="23" fill="white"/>
</clipPath>
</defs>
</svg>
