<svg width="241" height="242" viewBox="0 0 241 242" fill="none" xmlns="http://www.w3.org/2000/svg">
<g clip-path="url(#clip0_1_28414)">
<g filter="url(#filter0_d_1_28414)">
<path d="M211.83 89.6926C210.12 84.5669 207.991 79.5906 205.464 74.8142L162.827 97.3681C164.116 99.8051 165.202 102.344 166.075 104.959L211.83 89.6926Z" fill="#6765FE"/>
<mask id="mask0_1_28414" style="mask-type:alpha" maskUnits="userSpaceOnUse" x="29" y="95" width="188" height="125">
<path d="M213.476 95.211C219.888 119.027 217.129 144.381 205.747 166.261C194.365 188.141 175.187 204.953 152.005 213.374C128.824 221.795 103.326 221.211 80.5548 211.738C57.7832 202.265 39.395 184.592 29.0261 162.214L72.7913 141.935C78.0816 153.353 87.4635 162.37 99.0818 167.203C110.7 172.036 123.709 172.334 135.536 168.038C147.364 163.741 157.149 155.163 162.956 144C168.763 132.837 170.171 119.901 166.9 107.75L213.476 95.211Z" fill="#344BFD"/>
</mask>
<g mask="url(#mask0_1_28414)">
<path d="M212.046 90.3764C219.822 114.307 218.142 140.306 207.353 163.037C196.564 185.768 177.483 203.508 154.026 212.614C130.57 221.72 104.518 221.503 81.217 212.006C57.916 202.51 39.1337 184.455 28.7252 161.547L72.6398 141.594C77.9503 153.281 87.5332 162.493 99.4216 167.339C111.31 172.184 124.602 172.295 136.57 167.649C148.537 163.002 158.273 153.952 163.777 142.354C169.282 130.756 170.139 117.491 166.172 105.282L212.046 90.3764Z" fill="#88115F"/>
</g>
<mask id="mask1_1_28414" style="mask-type:alpha" maskUnits="userSpaceOnUse" x="19" y="22" width="191" height="144">
<path d="M209.422 83.3182C204.369 71.0423 196.886 59.9148 187.423 50.6043C177.96 41.2939 166.713 33.9928 154.356 29.1398C142 24.2868 128.79 21.9821 115.52 22.3642C102.25 22.7464 89.1947 25.8075 77.138 31.3635C65.0814 36.9195 54.2725 44.8558 45.361 54.6954C36.4495 64.535 29.6193 76.0748 25.281 88.6211C20.9427 101.167 19.1858 114.461 20.1159 127.704C21.046 140.947 24.6439 153.865 30.6933 165.681L73.6291 143.701C70.5426 137.672 68.7069 131.081 68.2324 124.325C67.7578 117.568 68.6542 110.785 70.8677 104.384C73.0811 97.9829 76.5659 92.0952 81.1127 87.0749C85.6594 82.0547 91.1742 78.0055 97.3256 75.1708C103.477 72.336 110.138 70.7743 116.908 70.5793C123.679 70.3843 130.419 71.5602 136.723 74.0362C143.027 76.5122 148.766 80.2373 153.594 84.9876C158.422 89.7379 162.24 95.4153 164.818 101.679L209.422 83.3182Z" fill="#344BFD"/>
</mask>
<g mask="url(#mask1_1_28414)">
<path d="M203.558 71.4169C190.559 48.9912 169.242 32.5946 144.232 25.7837C119.223 18.9727 92.5358 22.2966 69.9607 35.0343C47.3856 47.7721 30.7427 68.8966 23.6418 93.8257C16.541 118.755 19.5549 145.478 32.0297 168.2L74.3112 144.986C67.9464 133.393 66.4087 119.759 70.0317 107.039C73.6546 94.3204 82.146 83.5425 93.664 77.0435C105.182 70.5446 118.798 68.8487 131.558 72.3237C144.318 75.7988 155.194 84.1645 161.826 95.6063L203.558 71.4169Z" fill="#88115F"/>
</g>
</g>
<g filter="url(#filter1_dd_1_28414)">
<g filter="url(#filter2_d_1_28414)">
<circle cx="53.593" cy="43.5725" r="26.2307" fill="#88115F"/>
<circle cx="53.593" cy="43.5725" r="25.454" stroke="white" stroke-width="1.55335"/>
</g>
<path d="M36.3411 38.4238C36.8862 38.4238 37.4106 38.5153 37.9143 38.6981C38.4214 38.881 38.8734 39.1725 39.2701 39.5727C39.6703 39.9729 39.986 40.5042 40.2171 41.1665C40.4517 41.8255 40.5708 42.6345 40.5742 43.5936C40.5742 44.494 40.4724 45.2979 40.2689 46.0051C40.0688 46.7089 39.7807 47.3075 39.4047 47.8008C39.0286 48.2942 38.575 48.6702 38.0437 48.9289C37.5124 49.1842 36.919 49.3119 36.2635 49.3119C35.5563 49.3119 34.9318 49.1756 34.3902 48.9031C33.8485 48.6271 33.4121 48.2528 33.0809 47.7801C32.7532 47.304 32.5548 46.7693 32.4858 46.1759H34.6955C34.7817 46.5623 34.9629 46.8624 35.2389 47.0763C35.5149 47.2868 35.8564 47.392 36.2635 47.392C36.9535 47.392 37.4779 47.0918 37.8367 46.4916C38.1955 45.8878 38.3766 45.0615 38.38 44.0128H38.3076C38.1489 44.3233 37.935 44.5906 37.6659 44.8149C37.3968 45.0357 37.088 45.2064 36.7396 45.3272C36.3946 45.4479 36.0272 45.5083 35.6373 45.5083C35.0129 45.5083 34.4557 45.3617 33.9658 45.0684C33.4759 44.7752 33.0895 44.3716 32.8066 43.8575C32.5237 43.3435 32.3823 42.757 32.3823 42.098C32.3789 41.3873 32.5427 40.7543 32.8739 40.1988C33.2051 39.6434 33.6674 39.2087 34.2608 38.8948C34.8576 38.5774 35.5511 38.4204 36.3411 38.4238ZM36.3566 40.1833C36.0082 40.1833 35.6977 40.2661 35.4252 40.4317C35.1561 40.5973 34.9422 40.8198 34.7835 41.0993C34.6282 41.3787 34.5523 41.6909 34.5558 42.0359C34.5558 42.3844 34.6317 42.6983 34.7835 42.9778C34.9387 43.2538 35.1492 43.4746 35.4148 43.6402C35.6839 43.8023 35.991 43.8834 36.336 43.8834C36.5947 43.8834 36.8345 43.8351 37.0553 43.7385C37.2761 43.6419 37.4675 43.5091 37.6297 43.34C37.7953 43.1675 37.9247 42.9691 38.0178 42.7449C38.111 42.5207 38.1575 42.2826 38.1575 42.0308C38.1541 41.6961 38.0747 41.3891 37.9195 41.1096C37.7642 40.8302 37.5503 40.6059 37.2778 40.4369C37.0052 40.2678 36.6982 40.1833 36.3566 40.1833ZM46.0803 49.3119C45.2834 49.3119 44.5744 49.1825 43.9535 48.9238C43.3359 48.6616 42.8512 48.3045 42.4993 47.8526C42.1474 47.4006 41.9715 46.8883 41.9715 46.3156C41.9715 45.874 42.0715 45.4686 42.2716 45.0995C42.4751 44.7269 42.7511 44.4181 43.0996 44.1732C43.448 43.9248 43.8379 43.7661 44.2691 43.6971V43.6246C43.7033 43.5108 43.2445 43.2365 42.8926 42.8018C42.5407 42.3637 42.3647 41.8548 42.3647 41.2752C42.3647 40.7267 42.5252 40.2385 42.846 39.8107C43.1669 39.3795 43.6067 39.0414 44.1656 38.7964C44.728 38.548 45.3662 38.4238 46.0803 38.4238C46.7945 38.4238 47.431 38.548 47.9899 38.7964C48.5522 39.0448 48.9938 39.3846 49.3147 39.8159C49.6355 40.2437 49.7977 40.7301 49.8011 41.2752C49.7977 41.8583 49.6183 42.3671 49.2629 42.8018C48.9076 43.2365 48.4522 43.5108 47.8968 43.6246V43.6971C48.3211 43.7661 48.7058 43.9248 49.0508 44.1732C49.3992 44.4181 49.6752 44.7269 49.8787 45.0995C50.0857 45.4686 50.191 45.874 50.1944 46.3156C50.191 46.8883 50.0133 47.4006 49.6614 47.8526C49.3095 48.3045 48.8231 48.6616 48.2021 48.9238C47.5845 49.1825 46.8773 49.3119 46.0803 49.3119ZM46.0803 47.6663C46.4357 47.6663 46.7462 47.6024 47.0118 47.4748C47.2775 47.3437 47.4845 47.1643 47.6328 46.9366C47.7846 46.7054 47.8605 46.4398 47.8605 46.1397C47.8605 45.8326 47.7829 45.5618 47.6277 45.3272C47.4724 45.0891 47.262 44.9028 46.9963 44.7683C46.7307 44.6303 46.4253 44.5613 46.0803 44.5613C45.7388 44.5613 45.4335 44.6303 45.1644 44.7683C44.8953 44.9028 44.6831 45.0891 44.5279 45.3272C44.3761 45.5618 44.3002 45.8326 44.3002 46.1397C44.3002 46.4398 44.3743 46.7054 44.5227 46.9366C44.671 47.1643 44.8798 47.3437 45.1489 47.4748C45.418 47.6024 45.7285 47.6663 46.0803 47.6663ZM46.0803 42.9312C46.377 42.9312 46.641 42.8708 46.8721 42.7501C47.1033 42.6293 47.2844 42.462 47.4155 42.2481C47.5466 42.0342 47.6121 41.7875 47.6121 41.5081C47.6121 41.2321 47.5466 40.9906 47.4155 40.7836C47.2844 40.5732 47.105 40.4093 46.8773 40.292C46.6496 40.1712 46.3839 40.1109 46.0803 40.1109C45.7802 40.1109 45.5146 40.1712 45.2834 40.292C45.0523 40.4093 44.8711 40.5732 44.74 40.7836C44.6124 40.9906 44.5486 41.2321 44.5486 41.5081C44.5486 41.7875 44.6141 42.0342 44.7452 42.2481C44.8763 42.462 45.0574 42.6293 45.2886 42.7501C45.5197 42.8708 45.7837 42.9312 46.0803 42.9312ZM52.7715 49.3015C52.43 49.3015 52.1367 49.1808 51.8918 48.9393C51.6503 48.6943 51.5296 48.4011 51.5296 48.0596C51.5296 47.7215 51.6503 47.4317 51.8918 47.1902C52.1367 46.9487 52.43 46.8279 52.7715 46.8279C53.1027 46.8279 53.3925 46.9487 53.6409 47.1902C53.8893 47.4317 54.0135 47.7215 54.0135 48.0596C54.0135 48.2873 53.9549 48.496 53.8376 48.6857C53.7237 48.872 53.5737 49.0221 53.3874 49.1359C53.2011 49.2463 52.9958 49.3015 52.7715 49.3015ZM59.4381 38.4238C59.9832 38.4238 60.5076 38.5153 61.0113 38.6981C61.5185 38.881 61.9704 39.1725 62.3672 39.5727C62.7674 39.9729 63.083 40.5042 63.3142 41.1665C63.5488 41.8255 63.6678 42.6345 63.6712 43.5936C63.6712 44.494 63.5695 45.2979 63.3659 46.0051C63.1658 46.7089 62.8777 47.3075 62.5017 47.8008C62.1257 48.2942 61.672 48.6702 61.1407 48.9289C60.6094 49.1842 60.016 49.3119 59.3605 49.3119C58.6533 49.3119 58.0288 49.1756 57.4872 48.9031C56.9456 48.6271 56.5091 48.2528 56.1779 47.7801C55.8502 47.304 55.6518 46.7693 55.5828 46.1759H57.7925C57.8788 46.5623 58.0599 46.8624 58.3359 47.0763C58.6119 47.2868 58.9534 47.392 59.3605 47.392C60.0505 47.392 60.5749 47.0918 60.9337 46.4916C61.2925 45.8878 61.4736 45.0615 61.4771 44.0128H61.4046C61.2459 44.3233 61.032 44.5906 60.7629 44.8149C60.4938 45.0357 60.1851 45.2064 59.8366 45.3272C59.4916 45.4479 59.1242 45.5083 58.7344 45.5083C58.1099 45.5083 57.5527 45.3617 57.0629 45.0684C56.573 44.7752 56.1866 44.3716 55.9037 43.8575C55.6208 43.3435 55.4793 42.757 55.4793 42.098C55.4759 41.3873 55.6397 40.7543 55.9709 40.1988C56.3021 39.6434 56.7644 39.2087 57.3578 38.8948C57.9547 38.5774 58.6481 38.4204 59.4381 38.4238ZM59.4537 40.1833C59.1052 40.1833 58.7947 40.2661 58.5222 40.4317C58.2531 40.5973 58.0392 40.8198 57.8805 41.0993C57.7252 41.3787 57.6493 41.6909 57.6528 42.0359C57.6528 42.3844 57.7287 42.6983 57.8805 42.9778C58.0357 43.2538 58.2462 43.4746 58.5118 43.6402C58.7809 43.8023 59.088 43.8834 59.433 43.8834C59.6917 43.8834 59.9315 43.8351 60.1523 43.7385C60.3731 43.6419 60.5646 43.5091 60.7267 43.34C60.8923 43.1675 61.0217 42.9691 61.1148 42.7449C61.208 42.5207 61.2545 42.2826 61.2545 42.0308C61.2511 41.6961 61.1717 41.3891 61.0165 41.1096C60.8613 40.8302 60.6474 40.6059 60.3748 40.4369C60.1023 40.2678 59.7952 40.1833 59.4537 40.1833ZM71.0248 47.1798V46.6209C71.0248 46.1966 71.1145 45.8067 71.2939 45.4514C71.4768 45.0926 71.7407 44.8062 72.0857 44.5924C72.4341 44.375 72.8585 44.2663 73.3587 44.2663C73.8659 44.2663 74.2919 44.3733 74.6369 44.5872C74.9854 44.8011 75.2476 45.0874 75.4235 45.4462C75.6029 45.8016 75.6926 46.1931 75.6926 46.6209V47.1798C75.6926 47.6042 75.6029 47.9957 75.4235 48.3545C75.2441 48.7099 74.9802 48.9945 74.6317 49.2084C74.2833 49.4257 73.859 49.5344 73.3587 49.5344C72.8516 49.5344 72.4255 49.4257 72.0805 49.2084C71.7355 48.9945 71.4733 48.7099 71.2939 48.3545C71.1145 47.9957 71.0248 47.6042 71.0248 47.1798ZM72.5307 46.6209V47.1798C72.5307 47.4248 72.5894 47.6559 72.7067 47.8733C72.8274 48.0906 73.0448 48.1993 73.3587 48.1993C73.6727 48.1993 73.8866 48.0923 74.0004 47.8784C74.1177 47.6645 74.1764 47.4317 74.1764 47.1798V46.6209C74.1764 46.3691 74.1212 46.1345 74.0108 45.9171C73.9004 45.6998 73.683 45.5911 73.3587 45.5911C73.0482 45.5911 72.8326 45.6998 72.7118 45.9171C72.5911 46.1345 72.5307 46.3691 72.5307 46.6209ZM65.586 41.1148V40.5559C65.586 40.1281 65.6774 39.7365 65.8602 39.3812C66.0431 39.0224 66.307 38.7361 66.652 38.5222C67.0004 38.3083 67.4213 38.2013 67.9147 38.2013C68.4253 38.2013 68.8531 38.3083 69.1981 38.5222C69.5431 38.7361 69.8053 39.0224 69.9847 39.3812C70.1641 39.7365 70.2538 40.1281 70.2538 40.5559V41.1148C70.2538 41.5426 70.1623 41.9342 69.9795 42.2895C69.8001 42.6449 69.5362 42.9295 69.1877 43.1434C68.8427 43.3538 68.4184 43.459 67.9147 43.459C67.411 43.459 66.9849 43.3521 66.6365 43.1382C66.2915 42.9208 66.0293 42.6362 65.8499 42.2843C65.6739 41.929 65.586 41.5391 65.586 41.1148ZM67.1022 40.5559V41.1148C67.1022 41.3666 67.1609 41.5995 67.2782 41.8134C67.3989 42.0273 67.6111 42.1343 67.9147 42.1343C68.2321 42.1343 68.4477 42.0273 68.5616 41.8134C68.6789 41.5995 68.7375 41.3666 68.7375 41.1148V40.5559C68.7375 40.3041 68.6823 40.0695 68.5719 39.8521C68.4615 39.6348 68.2424 39.5261 67.9147 39.5261C67.6076 39.5261 67.3955 39.6365 67.2782 39.8573C67.1609 40.0781 67.1022 40.311 67.1022 40.5559ZM66.2691 49.167L73.5554 38.5687H74.9112L67.6249 49.167H66.2691Z" fill="white"/>
</g>
<g filter="url(#filter3_dd_1_28414)">
<g filter="url(#filter4_d_1_28414)">
<circle cx="213.076" cy="94.9121" r="26.2307" fill="#6765FE"/>
<circle cx="213.076" cy="94.9121" r="25.454" stroke="white" stroke-width="1.55335"/>
</g>
<path d="M203.184 89.5878V100.186H200.943V91.7147H200.881L198.454 93.2361V91.2489L201.078 89.5878H203.184ZM206.443 100.321C206.101 100.321 205.808 100.2 205.563 99.9583C205.321 99.7134 205.201 99.4201 205.201 99.0786C205.201 98.7405 205.321 98.4507 205.563 98.2092C205.808 97.9677 206.101 97.847 206.443 97.847C206.774 97.847 207.064 97.9677 207.312 98.2092C207.56 98.4507 207.685 98.7405 207.685 99.0786C207.685 99.3063 207.626 99.515 207.509 99.7048C207.395 99.8911 207.245 100.041 207.059 100.155C206.872 100.265 206.667 100.321 206.443 100.321ZM212.761 89.5878V100.186H210.521V91.7147H210.458L208.031 93.2361V91.2489L210.655 89.5878H212.761ZM221.081 98.1989V97.64C221.081 97.2156 221.171 96.8258 221.35 96.4704C221.533 96.1116 221.797 95.8253 222.142 95.6114C222.491 95.394 222.915 95.2854 223.415 95.2854C223.922 95.2854 224.348 95.3923 224.693 95.6062C225.042 95.8201 225.304 96.1065 225.48 96.4653C225.659 96.8206 225.749 97.2122 225.749 97.64V98.1989C225.749 98.6232 225.659 99.0148 225.48 99.3736C225.301 99.7289 225.037 100.014 224.688 100.227C224.34 100.445 223.915 100.553 223.415 100.553C222.908 100.553 222.482 100.445 222.137 100.227C221.792 100.014 221.53 99.7289 221.35 99.3736C221.171 99.0148 221.081 98.6232 221.081 98.1989ZM222.587 97.64V98.1989C222.587 98.4438 222.646 98.675 222.763 98.8923C222.884 99.1096 223.101 99.2183 223.415 99.2183C223.729 99.2183 223.943 99.1114 224.057 98.8975C224.174 98.6836 224.233 98.4507 224.233 98.1989V97.64C224.233 97.3881 224.178 97.1535 224.067 96.9362C223.957 96.7188 223.739 96.6102 223.415 96.6102C223.105 96.6102 222.889 96.7188 222.768 96.9362C222.648 97.1535 222.587 97.3881 222.587 97.64ZM215.642 92.1338V91.5749C215.642 91.1472 215.734 90.7556 215.917 90.4002C216.1 90.0414 216.363 89.7551 216.708 89.5412C217.057 89.3273 217.478 89.2204 217.971 89.2204C218.482 89.2204 218.91 89.3273 219.255 89.5412C219.6 89.7551 219.862 90.0414 220.041 90.4002C220.221 90.7556 220.31 91.1472 220.31 91.5749V92.1338C220.31 92.5616 220.219 92.9532 220.036 93.3085C219.857 93.6639 219.593 93.9485 219.244 94.1624C218.899 94.3729 218.475 94.4781 217.971 94.4781C217.467 94.4781 217.041 94.3711 216.693 94.1572C216.348 93.9399 216.086 93.6553 215.906 93.3034C215.73 92.948 215.642 92.5582 215.642 92.1338ZM217.159 91.5749V92.1338C217.159 92.3857 217.217 92.6186 217.335 92.8325C217.455 93.0464 217.668 93.1533 217.971 93.1533C218.289 93.1533 218.504 93.0464 218.618 92.8325C218.735 92.6186 218.794 92.3857 218.794 92.1338V91.5749C218.794 91.3231 218.739 91.0885 218.628 90.8712C218.518 90.6538 218.299 90.5451 217.971 90.5451C217.664 90.5451 217.452 90.6555 217.335 90.8763C217.217 91.0971 217.159 91.33 217.159 91.5749ZM216.326 100.186L223.612 89.5878H224.968L217.681 100.186H216.326Z" fill="white"/>
</g>
</g>
<defs>
<filter id="filter0_d_1_28414" x="15.2557" y="22.3235" width="206.225" height="206.203" filterUnits="userSpaceOnUse" color-interpolation-filters="sRGB">
<feFlood flood-opacity="0" result="BackgroundImageFix"/>
<feColorMatrix in="SourceAlpha" type="matrix" values="0 0 0 0 0 0 0 0 0 0 0 0 0 0 0 0 0 0 127 0" result="hardAlpha"/>
<feOffset dy="4.61828"/>
<feGaussianBlur stdDeviation="2.30914"/>
<feComposite in2="hardAlpha" operator="out"/>
<feColorMatrix type="matrix" values="0 0 0 0 0.523333 0 0 0 0 0.523333 0 0 0 0 0.523333 0 0 0 0.25 0"/>
<feBlend mode="normal" in2="BackgroundImageFix" result="effect1_dropShadow_1_28414"/>
<feBlend mode="normal" in="SourceGraphic" in2="effect1_dropShadow_1_28414" result="shape"/>
</filter>
<filter id="filter1_dd_1_28414" x="16.163" y="10.7607" width="74.8596" height="74.8601" filterUnits="userSpaceOnUse" color-interpolation-filters="sRGB">
<feFlood flood-opacity="0" result="BackgroundImageFix"/>
<feColorMatrix in="SourceAlpha" type="matrix" values="0 0 0 0 0 0 0 0 0 0 0 0 0 0 0 0 0 0 127 0" result="hardAlpha"/>
<feOffset dy="4.61828"/>
<feGaussianBlur stdDeviation="5.59967"/>
<feComposite in2="hardAlpha" operator="out"/>
<feColorMatrix type="matrix" values="0 0 0 0 1 0 0 0 0 1 0 0 0 0 1 0 0 0 0.11 0"/>
<feBlend mode="normal" in2="BackgroundImageFix" result="effect1_dropShadow_1_28414"/>
<feColorMatrix in="SourceAlpha" type="matrix" values="0 0 0 0 0 0 0 0 0 0 0 0 0 0 0 0 0 0 127 0" result="hardAlpha"/>
<feOffset dy="4.61828"/>
<feGaussianBlur stdDeviation="2.30914"/>
<feComposite in2="hardAlpha" operator="out"/>
<feColorMatrix type="matrix" values="0 0 0 0 0 0 0 0 0 0 0 0 0 0 0 0 0 0 0.25 0"/>
<feBlend mode="normal" in2="effect1_dropShadow_1_28414" result="effect2_dropShadow_1_28414"/>
<feBlend mode="normal" in="SourceGraphic" in2="effect2_dropShadow_1_28414" result="shape"/>
</filter>
<filter id="filter2_d_1_28414" x="24.0309" y="14.0104" width="59.1237" height="59.1242" filterUnits="userSpaceOnUse" color-interpolation-filters="sRGB">
<feFlood flood-opacity="0" result="BackgroundImageFix"/>
<feColorMatrix in="SourceAlpha" type="matrix" values="0 0 0 0 0 0 0 0 0 0 0 0 0 0 0 0 0 0 127 0" result="hardAlpha"/>
<feOffset/>
<feGaussianBlur stdDeviation="1.6657"/>
<feComposite in2="hardAlpha" operator="out"/>
<feColorMatrix type="matrix" values="0 0 0 0 0 0 0 0 0 0 0 0 0 0 0 0 0 0 0.25 0"/>
<feBlend mode="normal" in2="BackgroundImageFix" result="effect1_dropShadow_1_28414"/>
<feBlend mode="normal" in="SourceGraphic" in2="effect1_dropShadow_1_28414" result="shape"/>
</filter>
<filter id="filter3_dd_1_28414" x="175.646" y="62.1003" width="74.8596" height="74.8601" filterUnits="userSpaceOnUse" color-interpolation-filters="sRGB">
<feFlood flood-opacity="0" result="BackgroundImageFix"/>
<feColorMatrix in="SourceAlpha" type="matrix" values="0 0 0 0 0 0 0 0 0 0 0 0 0 0 0 0 0 0 127 0" result="hardAlpha"/>
<feOffset dy="4.61828"/>
<feGaussianBlur stdDeviation="5.59967"/>
<feComposite in2="hardAlpha" operator="out"/>
<feColorMatrix type="matrix" values="0 0 0 0 1 0 0 0 0 1 0 0 0 0 1 0 0 0 0.11 0"/>
<feBlend mode="normal" in2="BackgroundImageFix" result="effect1_dropShadow_1_28414"/>
<feColorMatrix in="SourceAlpha" type="matrix" values="0 0 0 0 0 0 0 0 0 0 0 0 0 0 0 0 0 0 127 0" result="hardAlpha"/>
<feOffset dy="4.61828"/>
<feGaussianBlur stdDeviation="2.30914"/>
<feComposite in2="hardAlpha" operator="out"/>
<feColorMatrix type="matrix" values="0 0 0 0 0 0 0 0 0 0 0 0 0 0 0 0 0 0 0.25 0"/>
<feBlend mode="normal" in2="effect1_dropShadow_1_28414" result="effect2_dropShadow_1_28414"/>
<feBlend mode="normal" in="SourceGraphic" in2="effect2_dropShadow_1_28414" result="shape"/>
</filter>
<filter id="filter4_d_1_28414" x="183.514" y="65.35" width="59.1237" height="59.1242" filterUnits="userSpaceOnUse" color-interpolation-filters="sRGB">
<feFlood flood-opacity="0" result="BackgroundImageFix"/>
<feColorMatrix in="SourceAlpha" type="matrix" values="0 0 0 0 0 0 0 0 0 0 0 0 0 0 0 0 0 0 127 0" result="hardAlpha"/>
<feOffset/>
<feGaussianBlur stdDeviation="1.6657"/>
<feComposite in2="hardAlpha" operator="out"/>
<feColorMatrix type="matrix" values="0 0 0 0 0 0 0 0 0 0 0 0 0 0 0 0 0 0 0.25 0"/>
<feBlend mode="normal" in2="BackgroundImageFix" result="effect1_dropShadow_1_28414"/>
<feBlend mode="normal" in="SourceGraphic" in2="effect1_dropShadow_1_28414" result="shape"/>
</filter>
<clipPath id="clip0_1_28414">
<rect width="240.743" height="240.743" fill="white" transform="translate(0.0917969 0.693848)"/>
</clipPath>
</defs>
</svg>
