<svg width="241" height="242" viewBox="0 0 241 242" fill="none" xmlns="http://www.w3.org/2000/svg">
<g clip-path="url(#clip0_1_28444)">
<g filter="url(#filter0_d_1_28444)">
<path d="M211.756 89.6926C207.477 76.8684 200.603 65.0625 191.563 55.0102L155.698 87.264C160.311 92.3927 163.817 98.4162 166.001 104.959L211.756 89.6926Z" fill="#53B0F3"/>
<mask id="mask0_1_28444" style="mask-type:alpha" maskUnits="userSpaceOnUse" x="28" y="95" width="189" height="125">
<path d="M213.402 95.2108C219.813 119.026 217.055 144.381 205.673 166.261C194.29 188.141 175.112 204.953 151.931 213.374C128.75 221.795 103.252 221.211 80.4806 211.738C57.709 202.265 39.3208 184.592 28.9519 162.214L72.7171 141.935C78.0074 153.353 87.3892 162.369 99.0076 167.203C110.626 172.036 123.635 172.334 135.462 168.038C147.29 163.741 157.074 155.163 162.882 144C168.689 132.837 170.096 119.901 166.825 107.75L213.402 95.2108Z" fill="#344BFD"/>
</mask>
<g mask="url(#mask0_1_28444)">
<path d="M211.971 90.3762C219.746 114.307 218.067 140.306 207.278 163.037C196.488 185.768 177.407 203.507 153.951 212.614C130.495 221.72 104.443 221.503 81.1418 212.006C57.8408 202.51 39.0585 184.454 28.65 161.546L72.5646 141.593C77.8751 153.281 87.458 162.493 99.3464 167.338C111.235 172.184 124.527 172.294 136.494 167.648C148.462 163.002 158.197 153.951 163.702 142.354C169.207 130.756 170.064 117.491 166.097 105.282L211.971 90.3762Z" fill="#F39C28"/>
</g>
<mask id="mask1_1_28444" style="mask-type:alpha" maskUnits="userSpaceOnUse" x="19" y="22" width="191" height="144">
<path d="M209.348 83.3182C204.295 71.0423 196.812 59.9148 187.349 50.6043C177.886 41.2939 166.638 33.9928 154.282 29.1398C141.926 24.2868 128.715 21.9821 115.446 22.3642C102.176 22.7464 89.1205 25.8075 77.0638 31.3635C65.0072 36.9195 54.1983 44.8558 45.2868 54.6954C36.3753 64.535 29.5451 76.0748 25.2068 88.6211C20.8685 101.167 19.1116 114.461 20.0417 127.704C20.9718 140.947 24.5697 153.865 30.6191 165.681L73.5549 143.701C70.4684 137.672 68.6327 131.081 68.1582 124.325C67.6836 117.568 68.58 110.785 70.7935 104.384C73.0069 97.9829 76.4917 92.0952 81.0384 87.0749C85.5852 82.0547 91.1 78.0055 97.2514 75.1708C103.403 72.336 110.064 70.7743 116.834 70.5793C123.605 70.3843 130.344 71.5602 136.649 74.0362C142.953 76.5122 148.692 80.2373 153.52 84.9876C158.348 89.7379 162.166 95.4153 164.744 101.679L209.348 83.3182Z" fill="#344BFD"/>
</mask>
<g mask="url(#mask1_1_28444)">
<path d="M185.31 48.6537C166.319 31.0114 141.139 21.5675 115.231 22.3704C89.3225 23.1733 64.7754 34.1582 46.9138 52.9425C29.0523 71.7268 19.3167 96.7957 19.8188 122.712C20.3208 148.627 31.0201 173.3 49.5958 191.379L83.2372 156.812C73.7597 147.588 68.3009 135 68.0447 121.777C67.7886 108.555 72.7558 95.7644 81.8689 86.1804C90.982 76.5965 103.506 70.9919 116.725 70.5823C129.944 70.1726 142.791 74.991 152.48 83.9923L185.31 48.6537Z" fill="#F39C28"/>
</g>
</g>
<g filter="url(#filter1_dd_1_28444)">
<g filter="url(#filter2_d_1_28444)">
<circle cx="53.5862" cy="43.9089" r="26.2307" fill="#F39C28"/>
<circle cx="53.5862" cy="43.9089" r="25.6534" stroke="white" stroke-width="1.15457"/>
</g>
<path d="M42.9788 38.4231C43.5239 38.4231 44.0483 38.5145 44.552 38.6974C45.0591 38.8802 45.5111 39.1717 45.9078 39.5719C46.308 39.9721 46.6237 40.5034 46.8548 41.1658C47.0894 41.8248 47.2085 42.6338 47.2119 43.5929C47.2119 44.4933 47.1101 45.2971 46.9066 46.0044C46.7065 46.7082 46.4184 47.3067 46.0424 47.8001C45.6663 48.2934 45.2127 48.6695 44.6814 48.9282C44.1501 49.1835 43.5567 49.3112 42.9012 49.3112C42.194 49.3112 41.5695 49.1749 41.0279 48.9023C40.4862 48.6263 40.0498 48.252 39.7186 47.7794C39.3909 47.3033 39.1925 46.7685 39.1235 46.1751H41.3332C41.4194 46.5615 41.6006 46.8617 41.8766 47.0756C42.1526 47.286 42.4941 47.3913 42.9012 47.3913C43.5912 47.3913 44.1156 47.0911 44.4744 46.4908C44.8332 45.8871 45.0143 45.0608 45.0177 44.012H44.9453C44.7866 44.3225 44.5727 44.5899 44.3036 44.8141C44.0345 45.0349 43.7257 45.2057 43.3773 45.3265C43.0323 45.4472 42.6649 45.5076 42.275 45.5076C41.6506 45.5076 41.0934 45.361 40.6035 45.0677C40.1136 44.7745 39.7272 44.3708 39.4443 43.8568C39.1614 43.3427 39.02 42.7562 39.02 42.0973C39.0165 41.3866 39.1804 40.7535 39.5116 40.1981C39.8428 39.6427 40.3051 39.208 40.8985 38.894C41.4953 38.5766 42.1888 38.4196 42.9788 38.4231ZM42.9943 40.1826C42.6459 40.1826 42.3354 40.2654 42.0629 40.431C41.7938 40.5966 41.5799 40.8191 41.4212 41.0985C41.2659 41.378 41.19 41.6902 41.1935 42.0352C41.1935 42.3836 41.2694 42.6976 41.4212 42.977C41.5764 43.253 41.7869 43.4738 42.0525 43.6394C42.3216 43.8016 42.6286 43.8827 42.9736 43.8827C43.2324 43.8827 43.4722 43.8344 43.693 43.7378C43.9138 43.6412 44.1052 43.5083 44.2674 43.3393C44.433 43.1668 44.5624 42.9684 44.6555 42.7442C44.7486 42.5199 44.7952 42.2819 44.7952 42.03C44.7918 41.6954 44.7124 41.3883 44.5572 41.1089C44.4019 40.8294 44.188 40.6052 43.9155 40.4361C43.6429 40.2671 43.3359 40.1826 42.9943 40.1826ZM48.8989 49.1663L53.2925 40.4724V40.3999H48.1745V38.568H55.6108V40.4258L51.2121 49.1663H48.8989ZM62.9476 47.1791V46.6202C62.9476 46.1958 63.0373 45.806 63.2167 45.4507C63.3995 45.0919 63.6635 44.8055 64.0085 44.5916C64.3569 44.3743 64.7812 44.2656 65.2815 44.2656C65.7886 44.2656 66.2147 44.3725 66.5597 44.5864C66.9081 44.8003 67.1703 45.0867 67.3463 45.4455C67.5257 45.8008 67.6154 46.1924 67.6154 46.6202V47.1791C67.6154 47.6034 67.5257 47.995 67.3463 48.3538C67.1669 48.7091 66.903 48.9938 66.5545 49.2077C66.2061 49.425 65.7817 49.5337 65.2815 49.5337C64.7743 49.5337 64.3483 49.425 64.0033 49.2077C63.6583 48.9938 63.3961 48.7091 63.2167 48.3538C63.0373 47.995 62.9476 47.6034 62.9476 47.1791ZM64.4535 46.6202V47.1791C64.4535 47.424 64.5121 47.6552 64.6294 47.8725C64.7502 48.0899 64.9675 48.1985 65.2815 48.1985C65.5954 48.1985 65.8093 48.0916 65.9232 47.8777C66.0405 47.6638 66.0991 47.4309 66.0991 47.1791V46.6202C66.0991 46.3683 66.0439 46.1337 65.9335 45.9164C65.8231 45.6991 65.6058 45.5904 65.2815 45.5904C64.971 45.5904 64.7554 45.6991 64.6346 45.9164C64.5139 46.1337 64.4535 46.3683 64.4535 46.6202ZM57.5087 41.1141V40.5552C57.5087 40.1274 57.6002 39.7358 57.783 39.3805C57.9659 39.0217 58.2298 38.7353 58.5748 38.5214C58.9232 38.3075 59.3441 38.2006 59.8375 38.2006C60.3481 38.2006 60.7758 38.3075 61.1208 38.5214C61.4658 38.7353 61.728 39.0217 61.9074 39.3805C62.0868 39.7358 62.1765 40.1274 62.1765 40.5552V41.1141C62.1765 41.5419 62.0851 41.9334 61.9023 42.2888C61.7229 42.6441 61.4589 42.9287 61.1105 43.1426C60.7655 43.3531 60.3412 43.4583 59.8375 43.4583C59.3338 43.4583 58.9077 43.3514 58.5592 43.1375C58.2143 42.9201 57.9521 42.6355 57.7727 42.2836C57.5967 41.9283 57.5087 41.5384 57.5087 41.1141ZM59.025 40.5552V41.1141C59.025 41.3659 59.0836 41.5988 59.2009 41.8127C59.3217 42.0266 59.5339 42.1335 59.8375 42.1335C60.1549 42.1335 60.3705 42.0266 60.4843 41.8127C60.6016 41.5988 60.6603 41.3659 60.6603 41.1141V40.5552C60.6603 40.3033 60.6051 40.0687 60.4947 39.8514C60.3843 39.634 60.1652 39.5254 59.8375 39.5254C59.5304 39.5254 59.3182 39.6358 59.2009 39.8566C59.0836 40.0774 59.025 40.3102 59.025 40.5552ZM58.1918 49.1663L65.4781 38.568H66.834L59.5477 49.1663H58.1918Z" fill="white"/>
</g>
<g filter="url(#filter3_dd_1_28444)">
<g filter="url(#filter4_d_1_28444)">
<circle cx="209.406" cy="82.6858" r="26.2307" fill="#53B0F3"/>
<circle cx="209.406" cy="82.6858" r="25.6534" stroke="white" stroke-width="1.15457"/>
</g>
<path d="M202.632 87.9266C201.859 87.9266 201.171 87.7938 200.567 87.5282C199.967 87.2591 199.492 86.8899 199.144 86.4207C198.799 85.9481 198.621 85.403 198.611 84.7855H200.867C200.881 85.0442 200.966 85.2719 201.121 85.4685C201.28 85.6617 201.49 85.8118 201.752 85.9188C202.014 86.0257 202.309 86.0792 202.637 86.0792C202.979 86.0792 203.281 86.0188 203.543 85.8981C203.805 85.7773 204.01 85.61 204.159 85.3961C204.307 85.1822 204.381 84.9355 204.381 84.6561C204.381 84.3732 204.302 84.1231 204.143 83.9057C203.988 83.6849 203.764 83.5124 203.47 83.3882C203.18 83.264 202.835 83.2019 202.435 83.2019H201.447V81.5563H202.435C202.773 81.5563 203.072 81.4976 203.331 81.3803C203.593 81.263 203.796 81.1009 203.941 80.8939C204.086 80.6835 204.159 80.4385 204.159 80.1591C204.159 79.8934 204.095 79.6605 203.967 79.4604C203.843 79.2569 203.667 79.0982 203.439 78.9844C203.215 78.8705 202.953 78.8136 202.653 78.8136C202.349 78.8136 202.071 78.8688 201.819 78.9792C201.568 79.0861 201.366 79.2396 201.214 79.4397C201.062 79.6398 200.981 79.8744 200.971 80.1435H198.823C198.834 79.5329 199.008 78.9947 199.346 78.529C199.684 78.0632 200.139 77.6992 200.712 77.437C201.288 77.1714 201.938 77.0386 202.663 77.0386C203.394 77.0386 204.034 77.1714 204.583 77.437C205.131 77.7027 205.557 78.0615 205.861 78.5134C206.168 78.9619 206.32 79.4656 206.316 80.0245C206.32 80.6179 206.135 81.113 205.763 81.5097C205.394 81.9065 204.912 82.1583 204.319 82.2653V82.3481C205.099 82.4481 205.692 82.7189 206.099 83.1605C206.51 83.5987 206.713 84.1472 206.71 84.8062C206.713 85.4099 206.539 85.9464 206.187 86.4156C205.839 86.8847 205.357 87.2539 204.743 87.523C204.129 87.7921 203.425 87.9266 202.632 87.9266ZM214.122 85.7946V85.2357C214.122 84.8113 214.211 84.4215 214.391 84.0661C214.574 83.7073 214.837 83.421 215.182 83.2071C215.531 82.9898 215.955 82.8811 216.455 82.8811C216.963 82.8811 217.389 82.988 217.734 83.2019C218.082 83.4158 218.344 83.7022 218.52 84.061C218.7 84.4163 218.789 84.8079 218.789 85.2357V85.7946C218.789 86.2189 218.7 86.6105 218.52 86.9693C218.341 87.3246 218.077 87.6092 217.729 87.8231C217.38 88.0405 216.956 88.1492 216.455 88.1492C215.948 88.1492 215.522 88.0405 215.177 87.8231C214.832 87.6092 214.57 87.3246 214.391 86.9693C214.211 86.6105 214.122 86.2189 214.122 85.7946ZM215.627 85.2357V85.7946C215.627 86.0395 215.686 86.2707 215.803 86.488C215.924 86.7054 216.142 86.814 216.455 86.814C216.769 86.814 216.983 86.7071 217.097 86.4932C217.214 86.2793 217.273 86.0464 217.273 85.7946V85.2357C217.273 84.9838 217.218 84.7492 217.108 84.5319C216.997 84.3145 216.78 84.2059 216.455 84.2059C216.145 84.2059 215.929 84.3145 215.809 84.5319C215.688 84.7492 215.627 84.9838 215.627 85.2357ZM208.683 79.7295V79.1706C208.683 78.7429 208.774 78.3513 208.957 77.9959C209.14 77.6371 209.404 77.3508 209.749 77.1369C210.097 76.923 210.518 76.8161 211.011 76.8161C211.522 76.8161 211.95 76.923 212.295 77.1369C212.64 77.3508 212.902 77.6371 213.081 77.9959C213.261 78.3513 213.351 78.7429 213.351 79.1706V79.7295C213.351 80.1573 213.259 80.5489 213.076 80.9043C212.897 81.2596 212.633 81.5442 212.284 81.7581C211.939 81.9686 211.515 82.0738 211.011 82.0738C210.508 82.0738 210.082 81.9668 209.733 81.7529C209.388 81.5356 209.126 81.251 208.947 80.8991C208.771 80.5437 208.683 80.1539 208.683 79.7295ZM210.199 79.1706V79.7295C210.199 79.9814 210.258 80.2143 210.375 80.4282C210.496 80.6421 210.708 80.749 211.011 80.749C211.329 80.749 211.544 80.6421 211.658 80.4282C211.776 80.2143 211.834 79.9814 211.834 79.7295V79.1706C211.834 78.9188 211.779 78.6842 211.669 78.4669C211.558 78.2495 211.339 78.1408 211.011 78.1408C210.704 78.1408 210.492 78.2512 210.375 78.472C210.258 78.6928 210.199 78.9257 210.199 79.1706ZM209.366 87.7817L216.652 77.1835H218.008L210.722 87.7817H209.366Z" fill="white"/>
</g>
</g>
<defs>
<filter id="filter0_d_1_28444" x="15.1815" y="22.3235" width="206.225" height="206.202" filterUnits="userSpaceOnUse" color-interpolation-filters="sRGB">
<feFlood flood-opacity="0" result="BackgroundImageFix"/>
<feColorMatrix in="SourceAlpha" type="matrix" values="0 0 0 0 0 0 0 0 0 0 0 0 0 0 0 0 0 0 127 0" result="hardAlpha"/>
<feOffset dy="4.61828"/>
<feGaussianBlur stdDeviation="2.30914"/>
<feComposite in2="hardAlpha" operator="out"/>
<feColorMatrix type="matrix" values="0 0 0 0 0.523333 0 0 0 0 0.523333 0 0 0 0 0.523333 0 0 0 0.25 0"/>
<feBlend mode="normal" in2="BackgroundImageFix" result="effect1_dropShadow_1_28444"/>
<feBlend mode="normal" in="SourceGraphic" in2="effect1_dropShadow_1_28444" result="shape"/>
</filter>
<filter id="filter1_dd_1_28444" x="16.1561" y="11.0972" width="74.8596" height="74.8601" filterUnits="userSpaceOnUse" color-interpolation-filters="sRGB">
<feFlood flood-opacity="0" result="BackgroundImageFix"/>
<feColorMatrix in="SourceAlpha" type="matrix" values="0 0 0 0 0 0 0 0 0 0 0 0 0 0 0 0 0 0 127 0" result="hardAlpha"/>
<feOffset dy="4.61828"/>
<feGaussianBlur stdDeviation="5.59967"/>
<feComposite in2="hardAlpha" operator="out"/>
<feColorMatrix type="matrix" values="0 0 0 0 1 0 0 0 0 1 0 0 0 0 1 0 0 0 0.11 0"/>
<feBlend mode="normal" in2="BackgroundImageFix" result="effect1_dropShadow_1_28444"/>
<feColorMatrix in="SourceAlpha" type="matrix" values="0 0 0 0 0 0 0 0 0 0 0 0 0 0 0 0 0 0 127 0" result="hardAlpha"/>
<feOffset dy="4.61828"/>
<feGaussianBlur stdDeviation="2.30914"/>
<feComposite in2="hardAlpha" operator="out"/>
<feColorMatrix type="matrix" values="0 0 0 0 0 0 0 0 0 0 0 0 0 0 0 0 0 0 0.25 0"/>
<feBlend mode="normal" in2="effect1_dropShadow_1_28444" result="effect2_dropShadow_1_28444"/>
<feBlend mode="normal" in="SourceGraphic" in2="effect2_dropShadow_1_28444" result="shape"/>
</filter>
<filter id="filter2_d_1_28444" x="24.8793" y="15.2021" width="57.4133" height="57.4137" filterUnits="userSpaceOnUse" color-interpolation-filters="sRGB">
<feFlood flood-opacity="0" result="BackgroundImageFix"/>
<feColorMatrix in="SourceAlpha" type="matrix" values="0 0 0 0 0 0 0 0 0 0 0 0 0 0 0 0 0 0 127 0" result="hardAlpha"/>
<feOffset/>
<feGaussianBlur stdDeviation="1.23808"/>
<feComposite in2="hardAlpha" operator="out"/>
<feColorMatrix type="matrix" values="0 0 0 0 0 0 0 0 0 0 0 0 0 0 0 0 0 0 0.25 0"/>
<feBlend mode="normal" in2="BackgroundImageFix" result="effect1_dropShadow_1_28444"/>
<feBlend mode="normal" in="SourceGraphic" in2="effect1_dropShadow_1_28444" result="shape"/>
</filter>
<filter id="filter3_dd_1_28444" x="171.975" y="49.874" width="74.8596" height="74.8601" filterUnits="userSpaceOnUse" color-interpolation-filters="sRGB">
<feFlood flood-opacity="0" result="BackgroundImageFix"/>
<feColorMatrix in="SourceAlpha" type="matrix" values="0 0 0 0 0 0 0 0 0 0 0 0 0 0 0 0 0 0 127 0" result="hardAlpha"/>
<feOffset dy="4.61828"/>
<feGaussianBlur stdDeviation="5.59967"/>
<feComposite in2="hardAlpha" operator="out"/>
<feColorMatrix type="matrix" values="0 0 0 0 1 0 0 0 0 1 0 0 0 0 1 0 0 0 0.11 0"/>
<feBlend mode="normal" in2="BackgroundImageFix" result="effect1_dropShadow_1_28444"/>
<feColorMatrix in="SourceAlpha" type="matrix" values="0 0 0 0 0 0 0 0 0 0 0 0 0 0 0 0 0 0 127 0" result="hardAlpha"/>
<feOffset dy="4.61828"/>
<feGaussianBlur stdDeviation="2.30914"/>
<feComposite in2="hardAlpha" operator="out"/>
<feColorMatrix type="matrix" values="0 0 0 0 0 0 0 0 0 0 0 0 0 0 0 0 0 0 0.25 0"/>
<feBlend mode="normal" in2="effect1_dropShadow_1_28444" result="effect2_dropShadow_1_28444"/>
<feBlend mode="normal" in="SourceGraphic" in2="effect2_dropShadow_1_28444" result="shape"/>
</filter>
<filter id="filter4_d_1_28444" x="180.699" y="53.9789" width="57.4133" height="57.4137" filterUnits="userSpaceOnUse" color-interpolation-filters="sRGB">
<feFlood flood-opacity="0" result="BackgroundImageFix"/>
<feColorMatrix in="SourceAlpha" type="matrix" values="0 0 0 0 0 0 0 0 0 0 0 0 0 0 0 0 0 0 127 0" result="hardAlpha"/>
<feOffset/>
<feGaussianBlur stdDeviation="1.23808"/>
<feComposite in2="hardAlpha" operator="out"/>
<feColorMatrix type="matrix" values="0 0 0 0 0 0 0 0 0 0 0 0 0 0 0 0 0 0 0.25 0"/>
<feBlend mode="normal" in2="BackgroundImageFix" result="effect1_dropShadow_1_28444"/>
<feBlend mode="normal" in="SourceGraphic" in2="effect1_dropShadow_1_28444" result="shape"/>
</filter>
<clipPath id="clip0_1_28444">
<rect width="240.743" height="240.743" fill="white" transform="translate(0.0175781 0.693848)"/>
</clipPath>
</defs>
</svg>
