<svg width="161" height="153" viewBox="0 0 161 153" fill="none" xmlns="http://www.w3.org/2000/svg">
<rect x="1.19874" y="1.24757" width="158.444" height="150.875" rx="14.4906" stroke="#B8DFF2" stroke-width="0.760761"/>
<path opacity="0.4" d="M116.221 78.6265C127.883 78.6265 137.336 77.2743 137.336 75.6064C137.336 73.9385 127.883 72.5864 116.221 72.5864C104.56 72.5864 95.1064 73.9385 95.1064 75.6064C95.1064 77.2743 104.56 78.6265 116.221 78.6265Z" fill="#D16D95"/>
<path opacity="0.4" d="M48.9391 96.2112C60.6005 96.2112 70.054 94.8591 70.054 93.1911C70.054 91.5232 60.6005 90.1711 48.9391 90.1711C37.2777 90.1711 27.8242 91.5232 27.8242 93.1911C27.8242 94.8591 37.2777 96.2112 48.9391 96.2112Z" fill="#D16D95"/>
<path d="M128.104 49.3787C128.232 49.0639 128.278 48.7677 128.232 48.4992C128.177 48.1659 127.993 47.8604 127.682 47.5919C127.452 47.3883 127.131 47.1939 126.728 46.9994C123.609 45.4997 120.251 44.8794 116.655 45.1294C113.069 45.3793 109.821 46.4625 106.932 48.3788C104.886 49.749 103.675 51.2395 103.308 52.8411C103.116 53.6835 103.143 54.5908 103.4 55.5628C103.611 56.3868 103.987 57.2385 104.51 58.1179C105.134 59.1548 105.84 60.0343 106.638 60.7749C107.519 61.5896 108.473 62.1821 109.482 62.5431C110.711 62.9968 112.05 63.1264 113.5 62.9412C114.812 62.7746 116.426 62.4135 118.334 61.8673C120.242 61.3119 121.508 60.7008 122.123 60.0158C122.737 59.34 122.893 58.6456 122.572 57.9606L127.636 50.2026C127.874 49.8601 128.021 49.5916 128.104 49.3787Z" fill="#442222"/>
<path d="M102.889 29.5066C102.283 28.5531 102.494 27.9699 103.503 27.7384C102.751 27.0626 102.191 26.5719 101.806 26.2757C100.999 25.6647 100.192 25.2111 99.4027 24.9148C98.4578 24.5723 97.568 24.4612 96.7241 24.5908C96.0269 24.6926 95.2656 24.9704 94.4491 25.424C94.4216 25.4425 93.7244 25.8869 92.3576 26.7571C90.523 27.8773 88.9544 28.192 87.6426 27.7014C87.6701 28.3772 87.7985 29.0252 88.037 29.664C88.2664 30.3121 88.5874 30.8953 89.0002 31.423C89.4222 31.9507 89.9084 32.4043 90.4588 32.7746C91 33.1449 91.5687 33.4226 92.165 33.5893C92.1925 33.5893 92.2292 33.5985 92.2567 33.6078C92.2292 33.5985 92.2017 33.5893 92.165 33.5893C91.422 33.7467 90.6789 33.793 89.9267 33.7374C90.0368 34.4688 90.3395 35.1909 90.8257 35.8852C91.2201 36.4592 91.7614 37.0424 92.4402 37.6442C93.0181 38.1626 93.5777 38.5607 94.1097 38.8384C94.7518 39.1902 95.394 39.3846 96.0178 39.4124L96.4489 38.6995C97.2837 39.218 98.2102 39.505 99.2284 39.5698C100.247 39.6253 101.21 39.4402 102.1 39.0236C102.283 38.3663 102.274 37.5886 102.081 36.6721C101.889 35.7556 101.632 34.9965 101.329 34.3855C101.026 33.7744 101.182 33.3116 101.788 33.0153C101.045 32.5432 101.228 31.9507 102.347 31.2378C101.604 30.2565 101.779 29.6825 102.889 29.5066Z" fill="#562C2C"/>
<path d="M104.998 29.0807C104.668 28.803 104.301 28.4697 103.897 28.0994C103.759 27.9698 103.622 27.8494 103.493 27.7383C102.484 27.9698 102.283 28.5623 102.879 29.5066C101.769 29.6732 101.595 30.2472 102.347 31.2285C101.228 31.9413 101.044 32.5338 101.787 33.006C101.98 32.9967 102.182 32.9875 102.393 32.9967C102.769 33.0152 103.136 33.0708 103.493 33.1634C105.255 32.2561 105.759 30.8952 104.998 29.0807Z" fill="#FA9543"/>
<path d="M101.785 33.006C101.978 32.9967 102.18 32.9875 102.391 32.9967C102.767 33.0152 103.134 33.0708 103.491 33.1634C105.253 32.2561 105.757 30.8952 104.996 29.0807C104.666 28.803 104.299 28.4697 103.895 28.0994C103.757 27.9698 103.62 27.8494 103.491 27.7383C102.482 27.9698 102.281 28.5623 102.877 29.5066C101.767 29.6732 101.593 30.2472 102.345 31.2285C101.226 31.9413 101.042 32.5338 101.785 33.006Z" stroke="#FA9543" stroke-width="0.160093" stroke-miterlimit="3.4736" stroke-linecap="round" stroke-linejoin="round"/>
<path d="M101.787 33.0057C101.182 33.3112 101.026 33.7649 101.329 34.3759C101.631 34.9869 101.888 35.746 102.081 36.6625C102.274 37.579 102.283 38.3567 102.099 39.014C101.209 39.4398 100.246 39.625 99.228 39.5602C98.2098 39.4954 97.2833 39.2084 96.4485 38.69L96.0265 39.4121C95.3936 39.3843 94.7606 39.1899 94.1185 38.8381C93.5865 38.5603 93.0361 38.153 92.449 37.6438C91.7702 37.0421 91.2289 36.4588 90.8345 35.8849C90.3391 35.1813 90.0456 34.4684 89.9355 33.7371C90.6877 33.7926 91.4307 33.7463 92.1738 33.589C91.5775 33.4131 91.0088 33.1446 90.4676 32.7743C89.9172 32.404 89.431 31.9503 89.009 31.4227C88.5962 30.895 88.2751 30.3025 88.0458 29.6637C87.8073 29.0249 87.6789 28.3769 87.6514 27.7011C88.9631 28.1917 90.5318 27.877 92.3572 26.7475C93.7149 25.8773 94.4121 25.4329 94.4396 25.4144C95.256 24.9608 96.0174 24.683 96.7145 24.5812C97.5585 24.4516 98.4483 24.5627 99.3931 24.9052C100.182 25.2015 100.989 25.6551 101.797 26.2661C102.182 26.5624 102.741 27.053 103.494 27.7288M92.1646 33.5982C92.1921 33.5982 92.2288 33.6075 92.2563 33.6167" stroke="#472523" stroke-width="0.160093" stroke-miterlimit="3.4736" stroke-linecap="round" stroke-linejoin="round"/>
<path d="M116.547 32.5439C116.225 31.6644 115.804 30.8775 115.271 30.1832C114.703 29.4333 114.061 28.8408 113.327 28.3872C112.593 27.9335 111.932 27.6373 111.364 27.4799C110.694 27.2948 109.878 27.2392 108.924 27.304C108.061 27.2577 106.694 27.5262 104.805 28.1094C103.218 28.6001 101.842 29.1093 100.677 29.6462C100.365 29.7943 99.4293 30.1924 97.8882 30.8497C96.9066 31.2663 96.2553 31.5811 95.9526 31.7847C94.9435 32.4513 94.1363 33.2289 93.54 34.1084C92.8612 35.1083 92.4209 36.2747 92.2374 37.6078C92.0631 38.8391 92.3292 40.524 93.0172 42.6718C93.7052 44.8196 94.5766 46.7174 95.6407 48.3838C96.6956 50.0502 98.0441 51.3278 99.6678 52.2258C101.291 53.1238 101.97 53.7718 101.686 54.1699C101.402 54.568 101.603 57.4286 102.291 62.7518C102.979 68.075 103.952 68.3619 105.218 63.6035C106.483 58.845 107.768 56.2806 109.061 55.9103C110.41 55.5215 111.639 54.7624 112.74 53.6422C113.749 52.6146 114.565 51.3833 115.189 49.9576C115.721 48.7449 116.134 47.3284 116.436 45.7268C116.638 44.6622 116.831 43.1902 117.024 41.3109C117.207 39.4316 117.29 37.9504 117.262 36.858C117.244 35.2379 116.996 33.7937 116.547 32.5439Z" fill="#623432"/>
<path d="M99.3362 51.548C99.0977 51.3073 98.8409 51.0944 98.5565 50.9185C97.9419 50.5389 97.364 50.3723 96.8227 50.4371C96.5384 50.4648 96.2723 50.5574 96.0247 50.7055C95.8504 50.8166 95.6761 50.9462 95.5201 51.1129C95.1532 51.5017 94.9331 51.9646 94.8597 52.483C94.7863 52.9274 94.823 53.3625 94.9514 53.8069C95.0798 54.2327 95.2816 54.6215 95.5568 54.9641C95.9146 55.4177 96.3641 55.7602 96.9053 55.9917C97.4465 56.2324 97.9969 56.325 98.5565 56.2602C99.1252 56.2046 99.6481 55.9917 100.125 55.6306C100.336 55.4733 100.52 55.2974 100.676 55.0937C100.565 54.9919 100.455 54.89 100.364 54.7882C100.465 54.89 100.565 54.9919 100.676 55.0937L99.3362 51.548ZM99.2445 53.5477C99.3729 53.8532 99.4004 54.1401 99.327 54.4086C98.8867 54.4364 98.4923 54.4271 98.1345 54.3716C97.7768 54.316 97.4557 54.1957 97.1805 53.992C96.9328 53.8161 96.7952 53.631 96.7769 53.4273C96.7585 53.2884 96.8044 53.1496 96.8961 53.02C96.9879 52.8996 97.0979 52.8163 97.2355 52.7515C97.364 52.7052 97.5016 52.6774 97.6575 52.6774C97.7768 52.6774 97.9235 52.6867 98.0978 52.7052C97.8318 52.4182 97.4649 52.1683 97.0154 51.9461C96.7402 51.8165 96.3824 51.6591 95.9238 51.4739C96.5292 51.6313 97.0246 51.7887 97.419 51.9553C97.9419 52.1775 98.373 52.4552 98.7216 52.7793C98.9601 53.0292 99.1344 53.2792 99.2445 53.5477Z" fill="#F7AB8B"/>
<path d="M99.3275 54.4078C99.4009 54.1301 99.3734 53.8431 99.2449 53.5468C99.1349 53.2784 98.9514 53.0284 98.7129 52.797C98.3643 52.473 97.9332 52.1952 97.4103 51.973C97.0158 51.8064 96.5205 51.6398 95.915 51.4916C96.3737 51.6768 96.7406 51.8342 97.0067 51.9638C97.4561 52.186 97.8231 52.4359 98.0891 52.7229C97.9148 52.7044 97.768 52.6951 97.6488 52.6951C97.4928 52.6951 97.3461 52.7229 97.2268 52.7692C97.0892 52.8247 96.9791 52.9173 96.8874 53.0377C96.7865 53.1673 96.7498 53.3061 96.7682 53.445C96.7865 53.6487 96.9241 53.8338 97.1718 54.0097C97.4561 54.2041 97.768 54.3338 98.1258 54.3893C98.4927 54.4263 98.8963 54.4356 99.3275 54.4078Z" fill="#E2936F"/>
<path d="M99.3362 51.5476C99.0977 51.3069 98.8409 51.0939 98.5565 50.918C97.9419 50.5385 97.364 50.3718 96.8227 50.4366C96.5384 50.4644 96.2723 50.557 96.0247 50.7051C95.8504 50.8162 95.6761 50.9458 95.5201 51.1124C95.1532 51.5013 94.9331 51.9642 94.8597 52.4826C94.7863 52.927 94.823 53.3621 94.9514 53.8064C95.0798 54.2323 95.2816 54.6211 95.5568 54.9637C95.9146 55.4173 96.3641 55.7598 96.9053 55.9913C97.4465 56.232 97.9969 56.3245 98.5565 56.2597C99.1252 56.2042 99.6481 55.9913 100.125 55.6302C100.336 55.4728 100.52 55.2969 100.676 55.0933M100.694 55.1025C100.584 55.0007 100.474 54.8988 100.382 54.797" stroke="#E48F66" stroke-width="0.160093" stroke-miterlimit="3.4736" stroke-linecap="round" stroke-linejoin="round"/>
<path d="M125.792 43.135L125.81 43.0331C125.572 40.6076 124.783 38.3302 123.453 36.2009C122.123 34.0717 120.426 32.3775 118.362 31.1184C116.307 29.8594 114.068 29.0725 111.656 28.7762C109.234 28.4615 107.088 28.6559 105.198 29.3595C103.308 30.0538 101.639 31.0074 100.18 32.2109C98.7216 33.4144 97.6575 34.7938 96.9787 36.3398C96.2448 38.0247 95.9329 39.7651 96.0614 41.5611C96.1806 43.3571 96.5384 44.8569 97.1255 46.0604C97.7125 47.2639 97.9419 48.4767 97.8043 49.7172C97.6667 50.9485 97.7768 52.1334 98.1529 53.2536C98.529 54.3738 99.2445 55.3736 100.309 56.2531C101.208 56.9937 102.262 57.5955 103.492 58.0676C104.565 58.475 105.602 58.7157 106.62 58.799C106.711 58.8083 106.812 58.8083 106.913 58.8175C112.105 58.7434 116.307 57.1234 119.508 53.9572C121.444 52.0409 122.7 50.4115 123.288 49.0599V49.0506C123.352 48.9118 123.398 48.7729 123.453 48.634C123.407 48.7729 123.352 48.9118 123.288 49.0506V49.0599C123.508 49.171 123.755 49.2543 124.012 49.3191C124.59 49.4487 125.15 49.4209 125.691 49.245C126.232 49.0691 126.7 48.7544 127.104 48.31C127.507 47.8749 127.773 47.375 127.92 46.8195C128.039 46.3937 128.067 45.9493 128.012 45.5142C127.957 45.0513 127.81 44.644 127.571 44.2737C127.287 43.8293 126.902 43.5053 126.416 43.2923C126.214 43.2183 126.003 43.1627 125.792 43.135C125.507 43.0979 125.223 43.1257 124.957 43.2183C124.434 43.3849 123.966 43.7645 123.572 44.357C123.379 44.6347 123.233 44.9402 123.113 45.255C123.233 44.9402 123.388 44.6347 123.572 44.357C123.976 43.7552 124.434 43.3757 124.957 43.2183C125.232 43.1257 125.507 43.0979 125.792 43.135Z" fill="#F7AB8B"/>
<path d="M125.81 43.033C125.572 40.6075 124.783 38.3301 123.453 36.2008C122.123 34.0715 120.426 32.3774 118.362 31.1183C116.307 29.8593 114.068 29.0724 111.656 28.7761C109.234 28.4614 107.088 28.6558 105.198 29.3594C103.308 30.0537 101.639 31.0072 100.18 32.2107C98.7216 33.4142 97.6575 34.7936 96.9787 36.3397C96.2448 38.0246 95.9329 39.765 96.0614 41.561C96.1806 43.357 96.5384 44.8568 97.1255 46.0603C97.7125 47.2638 97.9419 48.4765 97.8043 49.7171C97.6667 50.9483 97.7768 52.1333 98.1529 53.2535C98.529 54.3737 99.2445 55.3735 100.309 56.253C101.208 56.9936 102.262 57.5954 103.492 58.0675C104.565 58.4749 105.602 58.7156 106.62 58.7989C106.712 58.8081 106.812 58.8081 106.913 58.8174C112.105 58.7433 116.307 57.1232 119.508 53.9571C121.444 52.0407 122.7 50.4114 123.288 49.0598M123.462 48.6524C123.407 48.7913 123.361 48.9302 123.297 49.069C123.517 49.1801 123.765 49.2634 124.021 49.3282C124.599 49.4578 125.159 49.4301 125.7 49.2542C126.241 49.0783 126.709 48.7635 127.113 48.3191C127.516 47.884 127.782 47.3841 127.929 46.8287C128.048 46.4028 128.076 45.9584 128.021 45.5233C127.966 45.0604 127.819 44.6531 127.581 44.2828C127.296 43.8384 126.911 43.5144 126.425 43.3015C126.214 43.2089 126.003 43.1533 125.792 43.1256C125.507 43.0885 125.223 43.1163 124.957 43.2089C124.434 43.3755 123.966 43.7551 123.572 44.3476C123.379 44.6253 123.233 44.9308 123.113 45.2456" stroke="#E48F66" stroke-width="0.160093" stroke-miterlimit="3.4736" stroke-linecap="round" stroke-linejoin="round"/>
<g opacity="0.43">
<path d="M109.384 46.7363C107.98 46.262 106.412 46.1651 104.681 46.4526C102.949 46.7331 101.558 47.251 100.487 48.0062C99.4158 48.7684 98.937 49.3276 99.0309 49.6909C99.1347 50.0611 99.7898 50.1166 100.976 49.8644C102.183 49.6121 103.636 49.3178 105.347 48.9884C107.059 48.659 108.564 48.5044 109.863 48.5176C111.162 48.5378 111.754 48.3698 111.651 47.9995C111.547 47.6363 110.798 47.2175 109.384 46.7363Z" fill="url(#paint0_radial_510_59336)"/>
</g>
<path d="M130.013 37.2322C129.94 35.9824 129.527 34.4642 128.765 32.6682C127.958 30.7611 126.885 29.0669 125.564 27.595C124.243 26.123 122.574 25.0491 120.574 24.3733C119.317 23.9474 117.987 23.716 116.574 23.679C116.813 23.4105 117.005 23.1327 117.143 22.8272C117.299 22.4847 117.308 22.2162 117.152 22.0311C117.042 21.9015 116.886 21.8367 116.675 21.8367C116.464 21.8459 116.262 21.9107 116.07 22.0403C115.895 22.1607 115.739 22.3181 115.62 22.5125C115.519 22.6791 115.437 22.8735 115.363 23.105C115.327 23.2438 115.281 23.4383 115.226 23.6882C115.217 23.7067 115.217 23.716 115.217 23.7345C115.217 23.716 115.226 23.7067 115.226 23.6882C115.244 23.4383 115.152 23.2068 114.96 22.9754C114.84 22.8365 114.63 22.6606 114.327 22.4477C114.116 22.2996 113.951 22.207 113.85 22.1514C113.666 22.0496 113.492 21.9848 113.336 21.957C113.226 21.9292 113.134 21.9385 113.061 21.9941C112.997 22.0496 112.987 22.1607 113.015 22.3181C113.134 22.7995 113.474 23.2253 114.033 23.6141C114.107 23.6604 114.189 23.716 114.29 23.7808C114.18 23.79 114.07 23.8086 113.96 23.8178C111.556 24.1233 102.328 26.7803 100.411 28.6781C98.4571 30.5945 98.5029 32.3257 98.4662 32.7608C98.4295 33.2422 98.4754 33.6958 98.613 34.1031C98.7047 34.3716 98.824 34.6031 98.9891 34.7789C99.1726 34.9826 99.3836 35.103 99.6221 35.1215C99.7872 35.14 99.9615 35.103 100.145 35.0196C100.283 34.9548 100.438 34.853 100.622 34.7234C101.429 34.1031 102.09 33.3533 102.585 32.4645C102.429 32.8071 102.337 33.1866 102.319 33.5847C102.291 34.1124 102.383 34.6123 102.594 35.0659C102.704 35.3159 102.842 35.5196 103.007 35.6769C103.2 35.8621 103.401 35.9824 103.631 36.0195C104.062 36.1028 104.511 35.9269 104.961 35.501C105.42 35.0659 105.814 34.3994 106.163 33.5014C106.539 34.2327 106.933 34.9178 107.337 35.5566C110.529 40.6206 115.015 43.5182 120.785 44.2496C121.317 44.3422 121.849 44.3977 122.381 44.4162C123.537 45.8049 124.335 47.4065 124.766 49.2302C125.206 51.0447 125.234 52.8963 124.876 54.7849C124.784 54.8219 124.674 54.8589 124.555 54.8867C124.298 54.9515 124.105 54.9978 123.977 55.0348C123.757 55.0996 123.61 55.1644 123.537 55.22C123.463 55.2663 123.372 55.3681 123.262 55.5255C123.142 55.6736 122.95 55.8402 122.684 56.0069C122.408 56.1735 122.188 56.2476 122.005 56.2291C121.895 56.2198 121.775 56.2105 121.647 56.2013C120.895 58.4694 120.858 60.8579 121.06 61.6911C121.72 61.3856 127.564 59.8859 128.637 55.0163C128.949 54.4516 129.068 53.8961 129.004 53.3407C130.444 53.1185 131.664 52.3778 132.655 51.1281C133.636 49.8783 134.077 48.5174 133.976 47.0547C132.802 46.9806 131.866 46.5825 131.16 45.8697C130.453 45.1383 130.041 44.3422 129.921 43.4627C129.802 42.5832 129.802 41.6389 129.921 40.6206C130.059 39.6115 130.086 38.4728 130.013 37.2322Z" fill="#623432"/>
<path d="M127.92 46.8427C128.04 46.4168 128.067 45.9817 128.012 45.5374C127.957 45.0745 127.81 44.6671 127.581 44.3061C127.297 43.8617 126.911 43.5377 126.425 43.3248C126.214 43.2322 126.003 43.1766 125.801 43.1581C125.517 43.1211 125.233 43.1489 124.967 43.2322C124.435 43.3803 123.967 43.7599 123.563 44.3616C123.371 44.6394 123.224 44.9449 123.104 45.2596L123.297 49.0645C123.361 48.9257 123.407 48.7868 123.453 48.6479C123.407 48.7868 123.352 48.9257 123.297 49.0645V49.0738C123.517 49.1849 123.765 49.2682 124.022 49.333C124.6 49.4626 125.159 49.4348 125.701 49.259C126.242 49.0831 126.71 48.7683 127.104 48.3332C127.508 47.8981 127.783 47.3982 127.92 46.8427ZM126.737 44.3987C126.306 44.6394 125.957 44.8338 125.701 44.9911C125.279 45.2596 124.948 45.5559 124.71 45.8706C124.875 45.8336 125.022 45.8058 125.141 45.7966C125.297 45.7781 125.444 45.7873 125.572 45.8243C125.719 45.8614 125.838 45.9354 125.939 46.0465C126.049 46.1669 126.104 46.2965 126.104 46.4354C126.104 46.639 125.994 46.8427 125.765 47.0371C125.508 47.2685 125.196 47.4259 124.847 47.5185C124.499 47.6111 124.104 47.6666 123.673 47.6851C123.563 47.4259 123.554 47.1297 123.655 46.8149C123.737 46.5372 123.884 46.2687 124.104 46.0095C124.407 45.6484 124.811 45.3244 125.306 45.0374C125.682 44.843 126.159 44.6208 126.737 44.3987Z" fill="#F7AB8B"/>
<path d="M125.699 44.9998C125.956 44.8425 126.304 44.6388 126.736 44.4073C126.158 44.6295 125.681 44.8425 125.304 45.0554C124.809 45.3424 124.405 45.6664 124.103 46.0274C123.883 46.2867 123.736 46.5551 123.653 46.8329C123.552 47.1476 123.562 47.4439 123.672 47.7031C124.112 47.6846 124.497 47.6198 124.846 47.5365C125.194 47.4439 125.506 47.2865 125.763 47.0551C125.992 46.8514 126.103 46.657 126.103 46.4533C126.103 46.3144 126.048 46.1848 125.937 46.0645C125.837 45.9534 125.717 45.8793 125.571 45.8423C125.442 45.8053 125.295 45.796 125.139 45.8145C125.02 45.8238 124.873 45.8516 124.708 45.8886C124.947 45.5553 125.277 45.2683 125.699 44.9998Z" fill="#E2936F"/>
<path d="M123.104 45.2592C123.224 44.9444 123.38 44.6389 123.563 44.3612C123.967 43.7594 124.435 43.3799 124.957 43.2225C125.233 43.1299 125.508 43.1114 125.792 43.1484C125.994 43.1762 126.205 43.2318 126.416 43.3151C126.902 43.528 127.287 43.852 127.572 44.2964C127.801 44.6574 127.948 45.074 128.003 45.5277C128.058 45.972 128.031 46.4071 127.911 46.833C127.765 47.3885 127.498 47.8884 127.095 48.3235C126.691 48.7679 126.223 49.0734 125.691 49.2493C125.15 49.4252 124.591 49.4529 124.013 49.3233C123.756 49.2585 123.508 49.1752 123.288 49.0641M123.297 49.0734C123.361 48.9345 123.407 48.7956 123.453 48.6568" stroke="#E48F66" stroke-width="0.160093" stroke-miterlimit="3.4736" stroke-linecap="round" stroke-linejoin="round"/>
<path d="M122.399 44.4257C121.867 44.4072 121.335 44.3516 120.803 44.259C121.234 45.3052 121.573 46.2587 121.83 47.1382C122.151 48.2121 122.362 49.2304 122.472 50.1932C122.601 51.2856 122.601 52.3318 122.472 53.3316C122.344 54.3777 122.069 55.3405 121.665 56.22C121.793 56.2292 121.913 56.2385 122.023 56.2478C122.206 56.2663 122.426 56.1922 122.702 56.0256C122.968 55.8497 123.16 55.6923 123.28 55.5442C123.39 55.3868 123.481 55.285 123.555 55.2387C123.628 55.1831 123.775 55.1276 123.995 55.0628C124.123 55.0257 124.316 54.9702 124.573 54.9147C124.692 54.8869 124.793 54.8499 124.885 54.8128C125.252 52.9242 125.215 51.0727 124.784 49.2582C124.362 47.4159 123.564 45.8143 122.399 44.4257Z" fill="#6D3B3B"/>
<path d="M103.861 46.822C103.77 46.234 103.605 45.7471 103.384 45.3604C103.154 44.9741 102.935 44.7996 102.717 44.8374C102.5 44.8663 102.336 45.1047 102.245 45.5429C102.153 45.9811 102.161 46.4938 102.252 47.0818C102.343 47.6698 102.509 48.1655 102.73 48.5522C102.96 48.9385 103.179 49.1218 103.397 49.0841C103.614 49.0463 103.768 48.8084 103.86 48.3702C103.952 47.9232 103.952 47.41 103.861 46.822Z" fill="#21000D"/>
<path d="M108.259 45.8187C108.378 45.5966 108.452 45.3559 108.488 45.1059C108.525 44.8559 108.516 44.606 108.479 44.3653C108.36 44.7448 108.185 45.1059 107.947 45.4299C107.837 45.578 107.727 45.7077 107.608 45.828C107.525 45.3281 107.397 44.9022 107.204 44.5504C106.993 44.1616 106.782 43.9765 106.562 44.0135C106.332 44.0413 106.167 44.2727 106.057 44.7078C105.956 45.1429 105.938 45.6521 106.011 46.2446C106.085 46.8371 106.222 47.3277 106.433 47.7166C106.644 48.1147 106.865 48.2998 107.085 48.272C107.305 48.2443 107.461 48.0036 107.562 47.5684C107.58 47.5036 107.598 47.4296 107.608 47.3648C107.874 47.2537 108.103 47.1241 108.296 46.9574C108.479 46.8001 108.626 46.6242 108.745 46.4205C108.864 46.2076 108.938 45.9854 108.956 45.7539C108.571 46.1242 108.14 46.4205 107.653 46.6612C107.653 46.6334 107.653 46.6056 107.653 46.5871C107.91 46.3649 108.112 46.115 108.259 45.8187Z" fill="#21000D"/>
<path d="M106.924 46.4827C106.804 46.3522 106.696 46.3046 106.59 46.3334C106.484 46.3621 106.414 46.4576 106.375 46.6312C106.335 46.8048 106.35 47.0021 106.407 47.2168C106.464 47.4314 106.549 47.6096 106.669 47.74C106.789 47.8705 106.899 47.927 107.006 47.8983C107.112 47.8695 107.188 47.7627 107.218 47.5915C107.258 47.4179 107.243 47.2205 107.186 47.0059C107.138 46.7889 107.044 46.6131 106.924 46.4827Z" fill="#F5ECEC"/>
<path d="M105.654 39.551C106.361 39.338 107.122 39.3288 107.929 39.5232C108.737 39.7176 109.406 40.162 109.929 40.8748C109.571 39.6806 108.984 38.9863 108.177 38.7918C107.37 38.5974 106.526 38.8474 105.654 39.551Z" fill="#21000D"/>
<path d="M99.0547 42.3518C99.3941 41.6945 99.9261 41.1483 100.632 40.704C101.348 40.2596 102.137 40.1022 102.999 40.2318C101.908 39.6486 101.009 39.5745 100.302 40.0189C99.5867 40.454 99.1739 41.2316 99.0547 42.3518Z" fill="#21000D"/>
<path d="M108.909 47.9581C109.113 48.1366 109.257 48.3788 109.341 48.6753C109.226 48.4927 109.048 48.3183 108.804 48.1337L108.798 48.1327C108.783 48.1122 108.756 48.0896 108.73 48.0763C108.554 47.9389 108.376 47.8836 108.203 47.8929C108.431 47.7275 108.671 47.7561 108.909 47.9581ZM102.25 49.7459C102.367 49.5631 102.517 49.486 102.704 49.4971C102.586 49.5608 102.467 49.7067 102.346 49.9347C102.229 50.1082 102.171 50.3187 102.168 50.565C102.089 50.2325 102.116 49.9625 102.25 49.7459Z" fill="#C47554"/>
<path d="M108.793 48.1596C107.926 53.8028 105.791 54.3997 102.373 49.9574" stroke="#C47554" stroke-width="0.234126" stroke-linecap="round" stroke-linejoin="round"/>
<path d="M119.618 25.1876C119.338 25.6658 119.089 26.0847 118.851 26.4464C118.65 28.406 119.532 29.556 121.479 29.8984C121.8 29.7045 122.133 29.5464 122.48 29.4241C122.675 29.3558 122.864 29.3069 123.061 29.257C123.633 28.5787 123.282 28.0682 122.008 27.7255C122.445 26.5686 122.105 26.0755 120.997 26.2359C121.294 25.1505 120.935 24.6502 119.9 24.7279C119.805 24.8689 119.712 25.0282 119.618 25.1876Z" fill="#FA9543"/>
<path d="M135.244 21.9984C135.281 21.3237 135.218 20.6601 135.045 20.0087C133.93 20.8683 132.341 21.0262 130.27 20.4833C128.711 20.0605 127.921 19.8409 127.883 19.8357C126.967 19.6395 126.159 19.5988 125.47 19.7126C124.626 19.8436 123.809 20.2139 123.007 20.8152C122.334 21.3278 121.697 22.0039 121.103 22.8242C120.823 23.2185 120.422 23.8591 119.908 24.7266C120.942 24.6489 121.302 25.1492 121.005 26.2346C122.113 26.0742 122.453 26.5673 122.016 27.7242C123.29 28.067 123.641 28.5775 123.069 29.2557C123.737 29.3678 124.01 29.7566 123.899 30.4302C123.788 31.1038 123.764 31.9073 123.848 32.8388C123.931 33.7702 124.151 34.5188 124.518 35.0927C125.493 35.2358 126.46 35.1284 127.417 34.7705C128.375 34.4127 129.173 33.8584 129.821 33.1158L130.427 33.6818C131.022 33.4667 131.573 33.0982 132.088 32.5753C132.512 32.1463 132.923 31.607 133.33 30.9377C133.809 30.1674 134.146 29.4501 134.36 28.7837C134.621 27.963 134.703 27.1902 134.596 26.4663C133.897 26.7396 133.168 26.9137 132.41 26.9885C132.935 26.6415 133.397 26.2177 133.801 25.6977C134.224 25.1758 134.558 24.5985 134.804 23.9751C135.075 23.3303 135.208 22.6823 135.244 21.9984Z" fill="#6B3E3E"/>
<path d="M124.897 75.6119L105.108 81.8231L98.0114 60.9859L117.827 54.8075L124.897 75.6119Z" fill="#6B2B2B"/>
<path d="M116.755 53.8167L115.826 54.1577C114.896 52.7345 114.896 51.5473 115.826 50.6094L116.755 53.8167Z" fill="#FAF6C6"/>
<path d="M117.827 54.8072V53.4233L124.897 74.4966V75.605L117.827 54.8072Z" fill="#844A49"/>
<path d="M87.6458 51.4819L98.0051 60.9855L105.108 81.8227L94.5151 72.1551L87.6458 51.4819Z" fill="#4D1312"/>
<path d="M89.0431 51.6987L89.1016 51.6396C89.628 51.1346 89.9269 50.3016 89.9984 49.1473C93.6768 48.557 96.8483 51.397 99.4999 57.6606C101.385 55.5487 103.77 53.7778 106.642 52.3545C109.703 50.7476 112.764 50.1639 115.825 50.6099C114.896 51.5478 114.896 52.7349 115.825 54.1582L98.1026 59.9168L89.0431 51.6987Z" fill="#EEE1AC"/>
<path d="M88.2775 51.0029L89.0443 51.6982L98.0974 59.9163L115.826 54.1577L116.756 53.8166L117.828 53.4231V54.807L98.0129 60.9854L87.6471 51.4817L88.2775 51.0029Z" fill="#844A48"/>
<path d="M97.6081 60.6103L98.323 59.7183L99.6553 73.8L98.6739 72.9146L97.7316 73.7672L97.6081 60.6103Z" fill="#EE9821"/>
<path d="M116.848 65.0452C116.588 64.8681 116.575 64.691 116.822 64.5139C117.068 64.3303 117.731 64.1663 118.823 64.0089C119.915 63.8515 120.513 63.7662 120.617 63.7597C120.727 63.7466 120.831 63.7138 120.929 63.6482C121.039 63.5695 121.104 63.458 121.117 63.3137C121.137 63.2087 121.143 63.0972 121.15 62.9661C121.436 62.9989 121.715 63.13 122.001 63.3596C122.294 63.5957 122.456 63.8909 122.476 64.2319C122.495 64.5074 122.417 64.796 122.255 65.0911C122.138 65.3075 121.956 65.5568 121.715 65.8322C121.241 66.3832 120.773 66.8489 120.318 67.2227C119.779 67.6753 119.233 68.0229 118.674 68.2721C118.089 68.541 118.134 68.2918 118.81 67.5375C119.493 66.7964 120.123 66.2127 120.708 65.7995C120.175 66.1602 119.61 66.4488 119.012 66.6718C118.401 66.8948 117.783 67.0325 117.153 67.085C116.977 67.0915 116.848 67.0653 116.776 67.0128C116.705 66.9538 116.666 66.8882 116.672 66.8226C116.679 66.7505 116.718 66.6718 116.796 66.5931C116.873 66.5144 117.068 66.3832 117.374 66.193C117.679 66.0028 118.082 65.7995 118.576 65.5765C119.07 65.3535 119.707 65.0977 120.487 64.8156C118.323 65.1436 117.114 65.2223 116.848 65.0452Z" fill="#F5AC89"/>
<path d="M92.2411 64.0501C92.2476 64.0501 92.2476 64.0501 92.2411 64.0501C92.8 64.4109 93.1899 64.6667 93.4044 64.811C93.8073 65.0864 94.1323 65.3816 94.3727 65.6964C94.4572 65.8013 94.5027 65.8997 94.5222 65.9784C94.5352 66.0309 94.5287 66.0899 94.5157 66.1424C94.4962 66.2014 94.4702 66.2408 94.4312 66.267C94.3792 66.2998 94.3272 66.3129 94.2623 66.3064C94.2168 66.3064 94.1583 66.2998 94.0803 66.2801C93.6514 66.1752 93.2354 66.0309 92.8325 65.8407C92.462 65.6702 92.1761 65.4996 91.9811 65.3225C91.7082 65.0602 91.5457 64.7716 91.4937 64.4568C91.4807 64.3453 91.4872 64.2403 91.5262 64.1485C91.5652 64.037 91.7147 63.9452 91.9811 63.8731C92.0591 63.9321 92.1566 63.9911 92.2411 64.0501ZM90.5514 61.6824C90.4344 61.4725 90.4019 61.2496 90.4604 61.0003C90.5124 60.738 90.6358 60.5412 90.8243 60.3969C90.9998 60.5674 91.0713 60.8167 91.0453 61.1446C91.7472 61.4594 92.3841 61.8267 92.943 62.253C93.1444 62.4039 93.2744 62.5351 93.3329 62.6466C93.3719 62.7384 93.3849 62.8105 93.3654 62.863C93.3329 62.9352 93.2549 62.9745 93.1314 62.9942C92.9495 63.0073 92.709 62.9614 92.4166 62.8564C92.9755 63.2172 93.3849 63.5517 93.6449 63.8731C93.7228 63.9518 93.7748 64.037 93.8008 64.1157C93.8333 64.2207 93.8268 64.3059 93.7748 64.3715C93.6903 64.4765 93.5279 64.483 93.2874 64.3978C92.826 64.2403 92.488 64.1092 92.2671 64.0108H92.2606V64.0042C92.1566 63.9583 92.0591 63.9124 91.9681 63.8665C91.9551 63.8599 91.9356 63.8468 91.9226 63.8403C91.7017 63.7222 91.5132 63.5976 91.3442 63.4664C91.1168 63.2828 90.9673 63.1057 90.8958 62.922C90.8503 62.804 90.8308 62.6859 90.8503 62.5679C90.8698 62.4367 90.9153 62.3317 90.9933 62.253L91.0518 62.1612V62.1547C90.8113 61.9973 90.6488 61.8398 90.5514 61.6824Z" fill="#F5AC89"/>
<path d="M122.519 62.9919C122.326 62.8345 122.133 62.7327 121.922 62.6864C121.84 62.6678 121.757 62.6586 121.675 62.6586C121.482 62.6123 121.243 62.6123 120.968 62.6493C120.693 62.6864 120.464 62.7512 120.299 62.8345C120.134 62.9085 120.023 62.9826 119.978 63.0382C119.932 63.103 119.923 63.1678 119.95 63.2233C119.978 63.2789 120.042 63.3251 120.143 63.3529C120.555 63.4548 120.95 63.4362 121.335 63.3066C121.032 63.5381 120.849 63.7695 120.785 64.001C120.748 64.1491 120.757 64.2972 120.812 64.4453C120.877 64.6027 120.977 64.6953 121.115 64.7323C121.243 64.7693 121.372 64.7508 121.51 64.6768C121.638 64.612 121.739 64.5194 121.821 64.3898C121.693 64.7601 121.665 65.1397 121.739 65.547C121.766 65.7229 121.831 65.8525 121.922 65.9173C121.987 65.9636 122.06 65.9914 122.142 65.9914C122.225 65.9914 122.308 65.9728 122.372 65.9266C122.5 65.8618 122.61 65.7507 122.702 65.584C122.876 65.3063 122.996 65.0193 123.051 64.7045C123.106 64.3805 123.096 64.0658 123.005 63.7695C122.941 63.464 122.766 63.2048 122.519 62.9919Z" fill="#EF8695"/>
<path d="M121.665 62.6587C121.473 62.6124 121.234 62.6124 120.959 62.6495C120.684 62.6865 120.464 62.7513 120.299 62.8346C120.134 62.9087 120.023 62.9827 119.978 63.0383C119.932 63.1031 119.923 63.1679 119.95 63.2234C119.978 63.279 120.042 63.3253 120.143 63.353C120.555 63.4549 120.95 63.4364 121.335 63.3068C121.032 63.5382 120.849 63.7696 120.785 64.0011C120.748 64.1492 120.757 64.2973 120.812 64.4454C120.877 64.6028 120.977 64.6954 121.115 64.7324C121.243 64.7695 121.372 64.751 121.51 64.6769C121.638 64.6121 121.739 64.5195 121.821 64.3899C121.693 64.7602 121.665 65.1398 121.739 65.5471C121.766 65.723 121.831 65.8526 121.922 65.9174C121.987 65.9637 122.06 65.9915 122.142 65.9915C122.225 65.9915 122.308 65.973 122.372 65.9267C122.5 65.8619 122.61 65.7508 122.702 65.5841C122.876 65.3064 122.996 65.0194 123.051 64.7047C123.106 64.3806 123.096 64.0659 123.005 63.7696C122.913 63.4641 122.739 63.2049 122.491 62.992C122.298 62.8346 122.106 62.7328 121.895 62.6865C121.84 62.668 121.757 62.6587 121.665 62.6587Z" stroke="#FEA6B6" stroke-width="0.160093" stroke-miterlimit="3.4736" stroke-linecap="round" stroke-linejoin="round"/>
<path d="M102.688 44.8283C102.468 44.8653 102.312 45.106 102.23 45.5319C102.156 45.9207 102.147 46.3743 102.221 46.8742C102.074 46.7909 101.927 46.6983 101.78 46.5872C101.459 46.3465 101.184 46.0595 100.964 45.7263C100.991 45.9762 101.056 46.2169 101.156 46.4391C101.267 46.6706 101.413 46.8742 101.578 47.0594C101.808 47.2908 102.074 47.476 102.367 47.6056C102.376 47.6334 102.376 47.6611 102.386 47.6889C101.854 47.5963 101.349 47.4389 100.872 47.2075C100.964 47.4204 101.092 47.6148 101.276 47.7722C101.441 47.9296 101.643 48.0499 101.863 48.1518C102.092 48.2536 102.349 48.3092 102.633 48.3369C102.661 48.4017 102.698 48.4665 102.734 48.5221C102.964 48.9109 103.184 49.0868 103.404 49.059C103.624 49.022 103.771 48.7721 103.863 48.3369C103.954 47.9018 103.945 47.3834 103.844 46.8002C103.743 46.2077 103.578 45.7263 103.358 45.3374C103.138 44.9671 102.918 44.7912 102.688 44.8283Z" fill="#21000D"/>
<path d="M103.256 47.1593C103.136 47.0288 103.028 46.9813 102.922 47.01C102.816 47.0388 102.746 47.1342 102.707 47.3078C102.667 47.4814 102.682 47.6788 102.739 47.8934C102.796 48.108 102.881 48.2862 103.001 48.4167C103.121 48.5471 103.231 48.6036 103.338 48.5749C103.444 48.5462 103.52 48.4393 103.55 48.2681C103.59 48.0946 103.575 47.8972 103.519 47.6826C103.47 47.4656 103.376 47.2897 103.256 47.1593Z" fill="#F5ECEC"/>
<path d="M28.4623 49.229C29.1595 49.4419 29.7374 49.7289 30.196 50.09C29.9392 50.0992 29.7282 50.1085 29.5539 50.1363C29.3246 50.1733 29.1228 50.2474 28.9576 50.3399C28.765 50.451 28.6182 50.6084 28.5173 50.8028C28.4073 51.0065 28.3706 51.2102 28.4256 51.4138C28.5082 51.7008 28.7375 51.9508 29.1319 52.1452C29.5906 52.3766 30.086 52.4877 30.618 52.4785C31.1501 52.4785 31.728 52.4044 32.3518 52.2655C32.4068 51.849 32.3059 51.4416 32.0582 51.025C31.838 50.664 31.5262 50.3399 31.1225 50.0622C30.5446 49.6641 29.8566 49.3586 29.0494 49.1457C28.4439 48.9883 27.6826 48.8587 26.7744 48.7754C27.4624 48.942 28.0311 49.0902 28.4623 49.229Z" fill="#E2936F"/>
<path d="M76.4634 57.28C76.6836 56.4098 76.656 55.5581 76.3717 54.7434C76.1057 53.9658 75.6745 53.3825 75.0874 52.9845C74.4728 52.5679 73.8307 52.4568 73.1519 52.6604C72.3813 52.8734 71.4456 53.7158 70.3173 55.197L68.8496 59.4093C69.7945 60.7609 70.6843 61.5015 71.5099 61.6497C72.3354 61.7978 73.0877 61.7052 73.7573 61.3627C74.4269 61.0201 74.9957 60.5202 75.4635 59.8722C75.9681 59.1779 76.2983 58.3169 76.4634 57.28ZM75.0874 54.9563C74.3903 55.123 73.8215 55.2804 73.3904 55.41C72.6932 55.6229 72.1153 55.9099 71.6566 56.2709C71.9135 56.2802 72.1245 56.2895 72.2988 56.3172C72.5281 56.3543 72.7299 56.4283 72.895 56.5209C73.0877 56.632 73.2344 56.7894 73.3353 56.9838C73.4454 57.1875 73.4821 57.3911 73.4271 57.5948C73.3445 57.8818 73.1152 58.1317 72.7207 58.3262C72.2621 58.5576 71.7667 58.6687 71.2347 58.6594C70.7026 58.6594 70.1247 58.5854 69.5009 58.4465C69.4459 58.0299 69.5376 57.6226 69.7945 57.206C70.0146 56.8449 70.3265 56.5209 70.7301 56.2432C71.308 55.8451 71.996 55.5396 72.8033 55.3267C73.4271 55.1693 74.1793 55.0489 75.0874 54.9563Z" fill="#F8AF89"/>
<path d="M73.3893 55.41C73.8205 55.2804 74.3892 55.1231 75.0864 54.9564C74.1782 55.049 73.4168 55.1693 72.8114 55.3267C72.0042 55.5397 71.3162 55.8452 70.7382 56.2432C70.3346 56.521 70.0227 56.845 69.8026 57.206C69.5457 57.6226 69.4448 58.03 69.509 58.4466C70.142 58.5854 70.7199 58.6595 71.2428 58.6595C71.7748 58.6688 72.2702 58.5484 72.7288 58.3262C73.1233 58.1318 73.3618 57.8819 73.4352 57.5949C73.481 57.3912 73.4535 57.1875 73.3435 56.9839C73.2425 56.7894 73.0958 56.6321 72.9031 56.521C72.738 56.4284 72.5362 56.3543 72.3069 56.3173C72.1326 56.2895 71.9216 56.271 71.6647 56.271C72.1142 55.9192 72.6921 55.623 73.3893 55.41Z" fill="#E2936F"/>
<path d="M70.3173 55.1965C71.4456 53.7152 72.3813 52.8728 73.1427 52.6506C73.8215 52.4469 74.4728 52.558 75.0874 52.9746C75.6745 53.3727 76.1057 53.9652 76.3717 54.7336C76.656 55.5483 76.6836 56.4 76.4634 57.2702C76.2983 58.3071 75.9681 59.1773 75.4727 59.8624C75.0049 60.5197 74.4361 61.0103 73.7665 61.3529C73.0968 61.6954 72.3446 61.788 71.519 61.6398C70.6934 61.4917 69.7945 60.7511 68.8496 59.4087L70.3173 55.1965Z" stroke="#E2936F" stroke-width="0.240148" stroke-miterlimit="3.4736" stroke-linecap="round" stroke-linejoin="round"/>
<path d="M75.7816 45.1792C75.7174 44.0775 75.4697 43.1147 75.0386 42.3C74.6075 41.4854 74.0754 40.8744 73.4516 40.4763C72.094 39.6616 70.8372 39.1524 69.6722 38.958C68.2045 38.7081 66.957 38.9117 65.9204 39.5412C64.9388 40.1615 64.2233 41.1428 63.7555 42.4852C63.3886 43.5498 63.1959 44.8274 63.1592 46.3271C63.1317 47.5121 63.1776 48.5953 63.2785 49.5766C63.3977 50.7246 63.6087 51.7799 63.9114 52.7427C64.2508 53.8259 64.7095 54.798 65.2874 55.6774C65.902 56.6217 66.6359 57.5105 67.489 58.3437C69.2778 56.3162 70.7272 54.6221 71.8371 53.2797C72.9563 51.9373 73.9011 50.5209 74.69 49.0397C75.4881 47.5769 75.8458 46.2809 75.7816 45.1792Z" fill="#311413"/>
<path d="M73.4424 40.4765C74.0662 40.8746 74.5983 41.4856 75.0294 42.3003C75.4606 43.1149 75.7082 44.0777 75.7725 45.1794C75.8367 46.2811 75.4697 47.5772 74.69 49.0584C73.9011 50.5396 72.9563 51.9561 71.8371 53.2984C70.718 54.6408 69.2686 56.335 67.489 58.3624C66.6359 57.5292 65.902 56.6405 65.2874 55.6962C64.7095 54.8167 64.2508 53.8354 63.9114 52.7615C63.6087 51.7987 63.3977 50.7433 63.2785 49.5953C63.1776 48.614 63.1317 47.5309 63.1592 46.3459C63.1959 44.8461 63.3977 43.5686 63.7555 42.5039C64.2142 41.1616 64.9388 40.1802 65.9204 39.5692C66.957 38.9305 68.2045 38.736 69.6722 38.986C70.8372 39.1526 72.094 39.6618 73.4424 40.4765Z" stroke="#311413" stroke-width="0.240148" stroke-miterlimit="3.4736" stroke-linecap="round" stroke-linejoin="round"/>
<path d="M72.1387 29.8538C71.7901 28.9002 71.1847 28.0022 70.3224 27.1783C69.6161 26.4932 68.7171 25.8452 67.6438 25.2342C64.6992 23.5493 61.2959 22.4291 57.4432 21.8736C54.1683 21.383 50.5357 21.3181 46.5453 21.6514C45.151 21.7718 43.9493 21.9199 42.9494 22.1051C41.6652 22.3365 40.5093 22.6605 39.4728 23.0586C37.7482 23.7252 36.1429 24.7065 34.6568 25.9933C33.2258 27.2338 32.0057 28.678 30.9875 30.3259C29.584 32.5755 28.6667 37.5377 28.2263 45.2123C28.3639 45.2308 28.4924 45.2678 28.63 45.3049C28.6942 45.3234 28.7584 45.3419 28.8134 45.3604C29.6482 45.6474 30.3912 46.1844 31.0425 46.9805C31.7856 47.8878 32.2901 48.9894 32.5378 50.2763C32.2809 48.9894 31.7856 47.8878 31.0425 46.9805C30.3912 46.1844 29.6482 45.6474 28.8134 45.3604C28.7492 45.3419 28.6942 45.3234 28.63 45.3049C28.4924 45.2678 28.3548 45.2308 28.2263 45.2123C27.4558 45.0734 26.7219 45.1938 26.0431 45.5641C25.1717 46.0455 24.502 46.9527 24.0433 48.2859C23.4746 49.9245 23.4104 51.4612 23.8507 52.8869C24.2727 54.2478 25.1258 55.368 26.41 56.2382C27.5567 56.8863 28.6758 56.8492 29.7766 56.1364C30.804 55.4698 31.7856 54.22 32.7304 52.3963C32.813 53.248 32.9964 54.0719 33.2808 54.8681C34.1156 56.9603 35.3173 58.636 36.8676 59.895C39.0416 61.7836 41.8945 63.2833 45.4354 64.4035C48.6277 65.4126 51.9392 65.9866 55.3792 66.1255C58.7091 66.2643 61.351 65.9866 63.3232 65.2923C67.5062 63.8203 70.0105 61.5336 70.8545 58.423C71.3039 56.7381 71.2764 54.9607 70.7627 53.0721C70.3683 51.6464 70.1756 50.554 70.1756 49.8041C70.1756 49.045 70.3224 48.0822 70.616 46.8972C70.9095 45.7122 71.2122 43.7773 71.5241 41.1019C71.8268 38.4357 71.3498 36.5378 70.0931 35.3991C71.0654 35.0288 71.7443 34.2789 72.1295 33.1402C72.5332 32.0201 72.5332 30.9276 72.1387 29.8538Z" fill="#F8AF89"/>
<path d="M28.2236 45.2217C28.6639 37.5379 29.5904 32.5757 30.9848 30.3261C32.003 28.6782 33.223 27.234 34.6541 25.9935C36.1401 24.7067 37.7455 23.7253 39.47 23.0588C40.5066 22.6607 41.6624 22.3367 42.9467 22.1052C43.9466 21.9201 45.1483 21.772 46.5426 21.6516C50.533 21.3183 54.1564 21.3924 57.4313 21.8645C61.284 22.42 64.6873 23.5402 67.6319 25.2251C68.7144 25.8454 69.6042 26.4934 70.3105 27.1692C71.1728 28.0024 71.7782 28.8912 72.1268 29.8447C72.5121 30.9186 72.5213 32.0203 72.1451 33.1312C71.7599 34.2699 71.0811 35.0198 70.1087 35.3901C71.3654 36.5288 71.8424 38.4266 71.5397 41.0928C71.2278 43.7683 70.9251 45.7031 70.6316 46.8881C70.338 48.0731 70.1912 49.0452 70.1912 49.7951C70.1912 50.5449 70.3839 51.6373 70.7783 53.063C71.292 54.9516 71.3287 56.7383 70.8701 58.414C70.0261 61.5246 67.5218 63.8205 63.3388 65.2832C61.3666 65.9775 58.7155 66.2553 55.3948 66.1164C51.9548 65.9775 48.6341 65.4036 45.451 64.3945C41.9101 63.2743 39.0481 61.7745 36.8832 59.886C35.3329 58.6269 34.1312 56.9513 33.2964 54.859C33.0121 54.0629 32.8286 53.2389 32.746 52.3872C31.8012 54.2202 30.8197 55.4608 29.7923 56.1273C28.6915 56.8402 27.5723 56.8679 26.4257 56.2292C25.1414 55.3589 24.2883 54.2388 23.8663 52.8779C23.426 51.4522 23.4902 49.9154 24.059 48.2768C24.5176 46.9437 25.1873 46.0364 26.0587 45.555C26.7284 45.194 27.4531 45.0736 28.2236 45.2217ZM28.2236 45.2217C28.3612 45.2403 28.4897 45.2773 28.6272 45.3143C28.6915 45.3328 28.7557 45.3514 28.8107 45.3699C29.6455 45.6569 30.3885 46.1938 31.0398 46.99C31.7828 47.8972 32.2874 48.9989 32.5351 50.2857M70.1087 35.3993C70.0995 35.4178 70.0812 35.4364 70.0628 35.4456" stroke="#E2936F" stroke-width="0.240148" stroke-miterlimit="3.4736" stroke-linecap="round" stroke-linejoin="round"/>
<path d="M89.4961 24.2247C88.4044 21.6973 86.9551 19.5958 85.1388 17.9387C83.405 16.3464 81.3777 15.1892 79.0569 14.4671C76.8094 13.7635 74.351 13.495 71.6908 13.6616C69.0672 13.819 66.3336 14.393 63.4899 15.3743C61.6461 16.0038 60.2609 16.4204 59.3436 16.6241C57.4722 17.0314 55.6559 17.1518 53.913 16.9666C53.0507 16.8741 51.4179 16.6148 49.0145 16.189C46.9688 15.8279 45.336 15.6243 44.116 15.5595C42.3088 15.4669 40.6576 15.615 39.1532 16.0131C38.3735 16.2168 37.4287 16.6889 36.3095 17.4295C35.3647 18.0498 34.5666 18.6701 33.897 19.2903C33.0072 18.3275 32.099 17.7721 31.1817 17.6239C30.3928 17.4943 29.7965 17.6702 29.4112 18.1424C29.237 18.3553 29.1452 18.596 29.1452 18.8737C29.1452 19.1607 29.237 19.4477 29.4296 19.7254C29.8883 20.392 30.7781 20.9012 32.0898 21.2344C31.2826 21.0493 30.4478 20.9845 29.6039 21.0493C28.6774 21.1141 27.7967 21.327 26.962 21.6788C26.7693 21.7529 26.6226 21.8454 26.5125 21.9473C26.3749 22.0769 26.3107 22.225 26.329 22.3824C26.3474 22.5953 26.5125 22.7805 26.8152 22.9379C27.4115 23.2526 28.127 23.447 28.9709 23.5211C29.3103 23.5489 29.7507 23.5581 30.301 23.5489C28.8517 24.6783 27.6592 25.8726 26.7235 27.1501C25.5585 28.7332 24.6962 30.4644 24.155 32.3437C23.4945 34.6211 23.3385 37.0003 23.678 39.4629C24.0816 42.3605 25.1549 45.3137 26.9161 48.3225C28.5398 50.7017 30.0442 51.5164 31.4294 50.748C32.3834 50.1555 33.2181 49.4056 33.9337 48.5076C34.6492 47.6097 35.1812 46.6283 35.5481 45.5544C35.9151 44.4898 36.0894 43.3789 36.0802 42.2217C36.0618 41.083 35.8692 39.9813 35.4931 38.9259C36.0068 38.7315 36.5022 38.5093 36.9883 38.2594C38.3552 37.5373 39.5018 36.6208 40.4283 35.5006C41.4007 34.3341 42.0703 33.0102 42.4373 31.5383C42.795 30.1311 42.7492 28.5203 42.2997 26.6872C42.7858 27.5112 43.5747 28.2981 44.6664 29.0479C45.758 29.7978 46.8496 30.2977 47.9229 30.5384C49.1154 30.8069 50.0327 30.6958 50.6748 30.1959C51.427 29.6127 51.7114 28.5573 51.5371 27.039C53.0599 30.5199 54.601 33.0195 56.1788 34.5378C57.4906 35.8061 58.5363 36.4078 59.3252 36.3615C60.1141 36.3152 60.6645 36.1579 60.9948 35.8894C61.325 35.6209 61.6002 35.1673 61.8295 34.5193C62.0589 33.8712 62.1414 33.2972 62.068 32.8066C61.9946 32.3067 61.857 31.7512 61.6644 31.1402C64.3705 34.797 67.1317 37.4169 69.9295 39C72.654 40.5368 75.5344 41.2403 78.5707 41.1107C80.7448 40.9626 82.717 40.3423 84.5058 39.2499C86.1937 38.2223 87.5605 36.8707 88.6062 35.1951C89.6336 33.5379 90.2391 31.7697 90.4134 29.8719C90.606 27.9092 90.2941 26.0207 89.4961 24.2247Z" fill="#381919"/>
<g opacity="0.49">
<path d="M61.3716 50.5241C59.3265 49.1898 56.8596 48.39 53.9682 48.1359C51.0795 47.8707 48.6186 48.1198 46.6011 48.8876C44.565 49.6624 43.5624 50.3573 43.5586 50.9753C43.568 51.6085 44.5924 51.9666 46.6132 52.0568C48.634 52.147 51.0841 52.2759 53.9794 52.4477C56.8533 52.6377 59.3292 52.9994 61.3829 53.5622C63.4524 54.1291 64.4718 54.1051 64.4625 53.4718C64.4504 52.8498 63.4297 51.8736 61.3716 50.5241Z" fill="url(#paint1_radial_510_59336)"/>
</g>
<path d="M32.7396 52.4147L32.5561 50.2854C32.2993 48.9986 31.8039 47.8969 31.0609 46.9897C30.4096 46.1935 29.6574 45.6566 28.8226 45.3696C28.7584 45.3511 28.7034 45.3326 28.6391 45.314C27.7126 45.0456 26.8504 45.1289 26.0431 45.5733C25.1717 46.0547 24.502 46.9619 24.0433 48.295C23.4746 49.9336 23.4104 51.4704 23.8507 52.9054C24.2727 54.2662 25.1258 55.3864 26.41 56.2567C27.5567 56.9047 28.6758 56.8677 29.7766 56.1548C30.8132 55.4975 31.7947 54.2477 32.7396 52.4147Z" fill="#F8AF89"/>
<path d="M32.5561 50.2856C32.2993 48.9987 31.8039 47.8971 31.0609 46.9898C30.4096 46.1936 29.6574 45.6567 28.8226 45.3697C28.7584 45.3512 28.7034 45.3327 28.6391 45.3142C27.7126 45.0457 26.8504 45.129 26.0431 45.5734C25.1717 46.0548 24.502 46.962 24.0433 48.2951C23.4746 49.9338 23.4104 51.4705 23.8507 52.9055C24.2727 54.2664 25.1258 55.3866 26.41 56.2568C27.5567 56.9048 28.6758 56.8678 29.7766 56.1549C30.8132 55.4976 31.7947 54.2479 32.7396 52.4148C32.8221 53.2665 33.0056 54.0905 33.29 54.8866" stroke="#E2936F" stroke-width="0.240148" stroke-miterlimit="3.4736" stroke-linecap="round" stroke-linejoin="round"/>
<path d="M27.7375 48.2539C27.1849 48.0878 26.4559 47.886 25.5622 47.6724C26.7263 47.7911 27.7022 47.9454 28.4783 48.1471C29.513 48.42 30.3949 48.8116 31.1356 49.3219C31.653 49.6779 32.0528 50.0932 32.335 50.556C32.6642 51.09 32.7936 51.6121 32.7113 52.1461C31.8999 52.3241 31.1592 52.419 30.4889 52.419C29.807 52.4309 29.172 52.2885 28.5841 51.9918C28.0785 51.7426 27.7728 51.4222 27.6787 51.0544C27.6199 50.7933 27.6552 50.5323 27.7963 50.2712C27.9256 50.022 28.1138 49.8203 28.3607 49.6779C28.5723 49.5592 28.831 49.4643 29.125 49.4168C29.3484 49.3812 29.6188 49.3575 29.9481 49.3575C29.3837 48.9065 28.6429 48.5268 27.7375 48.2539Z" fill="#E2936F"/>
<path d="M61.732 50.0126C61.8329 49.2072 61.7962 48.4943 61.6128 47.8926C61.4385 47.2908 61.1725 46.9668 60.8147 46.9205C60.4569 46.8742 60.1267 47.1242 59.8056 47.6611C59.4846 48.1981 59.2736 48.8739 59.1727 49.6886C59.0718 50.5033 59.1085 51.2068 59.2828 51.8086C59.4571 52.4196 59.7231 52.7436 60.0808 52.7807C60.4386 52.8269 60.7688 52.577 61.0899 52.04C61.4201 51.5031 61.6311 50.8273 61.732 50.0126ZM61.1908 48.2629C61.3284 48.2629 61.4385 48.3647 61.5302 48.5684C61.6311 48.7721 61.677 49.022 61.677 49.309C61.677 49.596 61.6311 49.8367 61.5302 50.0404C61.4385 50.244 61.3192 50.3459 61.1908 50.3459C61.0532 50.3459 60.9431 50.244 60.8422 50.0404C60.7413 49.8367 60.6954 49.5867 60.6954 49.2998C60.6954 49.0128 60.7413 48.7628 60.8422 48.5591C60.9431 48.3647 61.0624 48.2629 61.1908 48.2629Z" fill="#21000D"/>
<path d="M61.5398 48.5682C61.4481 48.3645 61.3289 48.2627 61.2004 48.2627C61.0628 48.2627 60.9528 48.3645 60.8519 48.5682C60.7509 48.7719 60.7051 49.0218 60.7051 49.3088C60.7051 49.5958 60.7509 49.8458 60.8519 50.0494C60.9528 50.2531 61.0628 50.3549 61.2004 50.3549C61.338 50.3549 61.4481 50.2531 61.5398 50.0494C61.6407 49.8458 61.6866 49.6051 61.6866 49.3181C61.6866 49.0218 61.6407 48.7719 61.5398 48.5682Z" fill="#F5ECEC"/>
<path d="M61.6876 49.3086C61.6876 49.5956 61.6417 49.8363 61.5408 50.04C61.4491 50.2436 61.3298 50.3455 61.2014 50.3455C61.0638 50.3455 60.9537 50.2436 60.8528 50.04C60.7519 49.8363 60.7061 49.5863 60.7061 49.2994C60.7061 49.0124 60.7519 48.7624 60.8528 48.5587C60.9537 48.3551 61.0638 48.2532 61.2014 48.2532C61.339 48.2532 61.4491 48.3551 61.5408 48.5587C61.6417 48.7717 61.6876 49.0216 61.6876 49.3086Z" stroke="white" stroke-width="0.160093" stroke-miterlimit="3.4736" stroke-linecap="round" stroke-linejoin="round"/>
<path d="M54.0523 50.0121C54.1532 49.2066 54.1165 48.4938 53.9331 47.892C53.7588 47.2903 53.4928 46.9663 53.135 46.92C52.7773 46.8737 52.447 47.1236 52.126 47.6606C51.8049 48.1975 51.5939 48.8734 51.493 49.688C51.3921 50.5027 51.4288 51.2063 51.6031 51.808C51.7774 52.4191 52.0434 52.7431 52.4012 52.7801C52.7589 52.8264 53.0891 52.5764 53.4102 52.0395C53.7404 51.5025 53.9514 50.8267 54.0523 50.0121ZM53.5111 48.2623C53.6487 48.2623 53.7588 48.3642 53.8505 48.5679C53.9514 48.7715 53.9973 49.0215 53.9973 49.3085C53.9973 49.5955 53.9514 49.8362 53.8505 50.0398C53.7588 50.2435 53.6395 50.3453 53.5111 50.3453C53.3827 50.3453 53.2634 50.2435 53.1625 50.0398C53.0616 49.8362 53.0158 49.5862 53.0158 49.2992C53.0158 49.0122 53.0616 48.7623 53.1625 48.5586C53.2634 48.3642 53.3827 48.2623 53.5111 48.2623Z" fill="#21000D"/>
<path d="M53.8602 48.5674C53.7684 48.3637 53.6492 48.2619 53.5207 48.2619C53.3923 48.2619 53.2731 48.3637 53.1722 48.5674C53.0713 48.7711 53.0254 49.021 53.0254 49.308C53.0254 49.595 53.0713 49.845 53.1722 50.0486C53.2731 50.2523 53.3831 50.3541 53.5207 50.3541C53.6583 50.3541 53.7684 50.2523 53.8602 50.0486C53.9611 49.845 54.0069 49.6043 54.0069 49.3173C54.0069 49.021 53.9611 48.7711 53.8602 48.5674Z" fill="#F5ECEC"/>
<path d="M54.0079 49.309C54.0079 49.596 53.962 49.8367 53.8611 50.0403C53.7694 50.244 53.6501 50.3458 53.5217 50.3458C53.3933 50.3458 53.274 50.244 53.1731 50.0403C53.0722 49.8367 53.0264 49.5867 53.0264 49.2997C53.0264 49.0127 53.0722 48.7628 53.1731 48.5591C53.274 48.3554 53.3841 48.2536 53.5217 48.2536C53.6593 48.2536 53.7694 48.3554 53.8611 48.5591C53.962 48.772 54.0079 49.022 54.0079 49.309Z" stroke="white" stroke-width="0.160093" stroke-miterlimit="3.4736" stroke-linecap="round" stroke-linejoin="round"/>
<path d="M46.3891 34.4869C45.4259 34.7831 44.6278 35.3756 43.9948 36.2643C43.3527 37.1623 42.9399 38.2733 42.7656 39.5879C45.2791 36.5698 48.8383 35.6718 53.4341 36.9124C52.159 35.7737 50.8931 34.996 49.6364 34.5979C48.4714 34.2091 47.3889 34.1721 46.3891 34.4869ZM69.4231 43.0873C69.5515 41.7634 69.3956 40.5877 68.9553 39.5693C68.5333 38.5602 67.8912 37.8104 67.0197 37.3012C66.1116 36.7828 65.0475 36.5791 63.8182 36.6994C62.5065 36.8013 61.1121 37.2642 59.6169 38.0881C64.3686 37.9122 67.6435 39.5786 69.4231 43.0873Z" fill="#3C1925"/>
<path d="M44.4447 51.7978C44.1512 52.02 44.0228 52.344 44.0686 52.7698C44.1787 52.5291 44.4172 52.2884 44.8025 52.0663C44.83 52.0385 44.8575 52.0107 44.9034 51.9829C45.1786 51.8163 45.5088 51.7515 45.8849 51.7978C45.5914 51.6589 45.3162 51.5941 45.0777 51.5941C44.8392 51.5941 44.6282 51.6589 44.4447 51.7978ZM61.773 54.8528C61.3969 54.5751 61.0116 54.4362 60.6264 54.427C60.9199 54.5381 61.2868 54.7695 61.7088 55.112C62.0849 55.3713 62.3693 55.686 62.5711 56.0471C62.5436 55.9082 62.5069 55.7786 62.461 55.6583C62.3234 55.3435 62.0941 55.0843 61.773 54.8528Z" fill="#C47554"/>
<path d="M61.7018 55.1026C61.234 55.8525 60.8762 56.4172 60.6285 56.7968C60.1974 57.4633 59.803 58.0095 59.4544 58.4354C58.4912 59.6019 57.4821 60.2777 56.4089 60.4628C55.0696 60.7035 53.5285 60.2314 51.7855 59.0557C49.7858 57.704 47.4558 55.3711 44.8047 52.0661" stroke="#C47554" stroke-width="0.240148" stroke-miterlimit="3.4736" stroke-linecap="round" stroke-linejoin="round"/>
<path d="M30.9278 78.4048C30.9461 78.627 30.9736 78.8584 31.0011 79.0806C31.5424 83.2188 33.8173 87.3199 37.8444 91.4026C39.1929 91.2082 40.4129 90.8749 41.5229 90.4028C40.6973 88.7456 39.7524 87.144 38.7067 85.598C37.4133 83.7002 35.9914 81.9227 34.4319 80.2748C34.0558 80.2471 33.6889 80.1915 33.3128 80.0989C33.1385 80.0526 32.9734 80.0064 32.8083 79.9508C32.9734 80.0064 33.1477 80.0526 33.3128 80.0989C33.6889 80.1915 34.0558 80.2471 34.4319 80.2748C35.9914 81.9227 37.4133 83.7002 38.7067 85.598C39.7524 87.144 40.6973 88.7456 41.5229 90.4028C44.0914 89.3103 46.0361 87.4681 47.3479 84.8944C43.1832 79.1269 39.0828 75.4145 35.0741 73.7759C31.946 72.4891 30.5608 74.0351 30.9278 78.4048Z" fill="#623A80"/>
<path d="M41.5323 90.403C40.4224 90.8752 39.1931 91.2084 37.8538 91.4028C33.8268 87.3202 31.5427 83.2098 31.0014 79.0808C30.9739 78.8587 30.9464 78.6272 30.928 78.405C30.5611 74.0354 31.9371 72.4986 35.0652 73.7854C39.0739 75.424 43.1743 79.1271 47.3482 84.8947C46.0456 87.4683 44.1008 89.3013 41.5323 90.403ZM41.5323 90.403C40.7067 88.7459 39.7619 87.1443 38.7161 85.5983C37.4227 83.7004 36.0009 81.923 34.4414 80.2751C34.0653 80.2473 33.6984 80.1918 33.3223 80.0992C33.148 80.0529 32.9829 80.0066 32.8177 79.9511M33.0929 78.9049C33.5516 79.3493 34.0011 79.8029 34.4414 80.2658" stroke="#35175A" stroke-width="0.160093" stroke-miterlimit="3.4736" stroke-linecap="round" stroke-linejoin="round"/>
<path d="M35.1436 92.1179L63.0761 100.885L73.0933 71.4732L45.1241 62.7524L35.1436 92.1179Z" fill="#6B2B2B"/>
<path d="M46.6357 61.3537L47.9475 61.8351C49.2593 59.8262 49.2593 58.1505 47.9475 56.8267L46.6357 61.3537Z" fill="#FAF6C6"/>
<path d="M45.1241 62.7523V60.799L35.1436 90.544V92.1085L45.1241 62.7523Z" fill="#844A49"/>
<path d="M87.7267 58.0586L73.0953 71.473L63.0781 100.885L78.0305 87.2389L87.7267 58.0586Z" fill="#4D1312"/>
<path d="M85.7424 58.3637L85.6599 58.2804C84.9168 57.5675 84.4949 56.3918 84.394 54.7624C79.2019 53.9293 74.7254 57.9378 70.9827 66.779C68.3224 63.798 64.9558 61.2984 60.9013 59.2895C56.5807 57.0213 52.2601 56.1974 47.9395 56.8269C49.2512 58.1508 49.2512 59.8264 47.9395 61.8353L72.9549 69.9636L85.7424 58.3637Z" fill="#EEE1AC"/>
<path d="M86.8348 57.3828L85.7524 58.3641L72.9648 69.964L47.9494 61.8357L46.6376 61.3543L45.124 60.7988V62.7522L73.0933 71.473L87.7246 58.0586L86.8348 57.3828Z" fill="#844A48"/>
<path d="M73.6591 70.9425L72.65 69.6834L70.7695 89.5597L72.1547 88.3099L73.4848 89.5134L73.6591 70.9425Z" fill="#EE9821"/>
<path d="M46.5013 77.2022C46.8682 76.9523 46.8866 76.7023 46.538 76.4523C46.1894 76.1931 45.2537 75.9617 43.7126 75.7395C42.1715 75.5173 41.3276 75.397 41.1808 75.3877C41.0249 75.3692 40.8781 75.3229 40.7405 75.2303C40.5846 75.1192 40.4928 74.9618 40.4745 74.7582C40.447 74.6101 40.4378 74.4527 40.4194 74.2675C40.0158 74.3138 39.6214 74.499 39.2177 74.823C38.8049 75.1563 38.5756 75.5729 38.5481 76.0543C38.5206 76.4431 38.6307 76.8504 38.86 77.267C39.0251 77.5725 39.282 77.9243 39.6214 78.3131C40.291 79.0908 40.9515 79.7481 41.5936 80.2758C42.355 80.9146 43.1255 81.4052 43.9144 81.757C44.74 82.1366 44.6758 81.7848 43.7218 80.7201C42.7678 79.674 41.878 78.8501 41.0524 78.2668C41.8046 78.776 42.6027 79.1834 43.4466 79.4981C44.3089 79.8129 45.1804 80.0073 46.0702 80.0814C46.3178 80.0906 46.5013 80.0536 46.6022 79.9795C46.7031 79.8962 46.7582 79.8036 46.749 79.711C46.7398 79.6092 46.6848 79.4981 46.5747 79.387C46.4646 79.2759 46.1894 79.0908 45.7583 78.8223C45.3271 78.5538 44.7584 78.2668 44.0612 77.9521C43.364 77.6373 42.4651 77.2763 41.3643 76.8782C44.419 77.3411 46.1252 77.4522 46.5013 77.2022Z" fill="#F5AC89"/>
<path d="M81.2148 75.7913C80.4259 76.3004 79.8755 76.6615 79.5728 76.8652C79.004 77.254 78.5545 77.6706 78.2151 78.115C78.0959 78.2631 78.0317 78.4019 78.0041 78.513C77.9858 78.5871 77.995 78.6704 78.0133 78.7445C78.0408 78.8278 78.0775 78.8833 78.1326 78.9204C78.206 78.9667 78.2793 78.9852 78.3711 78.9759C78.4353 78.9759 78.5178 78.9574 78.6279 78.9389C79.2334 78.7908 79.8204 78.5871 80.3892 78.3186C80.9121 78.0779 81.3157 77.8372 81.5909 77.5873C81.9762 77.217 82.2055 76.8096 82.2789 76.3652C82.2972 76.2079 82.288 76.0597 82.2422 75.9301C82.1871 75.7728 81.9762 75.6431 81.6001 75.5413C81.4716 75.6246 81.3432 75.7079 81.2148 75.7913ZM83.5998 72.4492C83.7649 72.153 83.8108 71.8382 83.7283 71.4864C83.6549 71.1254 83.4806 70.8477 83.2145 70.644C82.9669 70.8847 82.866 71.2365 82.9027 71.6994C81.9119 72.1345 81.0221 72.6529 80.2241 73.2547C79.9397 73.4676 79.7562 73.6527 79.6737 73.8101C79.6186 73.9397 79.6003 74.0416 79.6278 74.1156C79.6737 74.2175 79.7838 74.273 79.958 74.3008C80.2149 74.3193 80.5543 74.2545 80.9671 74.1064C80.1874 74.6155 79.6095 75.0877 79.2334 75.5413C79.1233 75.6524 79.0499 75.7728 79.0132 75.8838C78.9673 76.032 78.9765 76.1523 79.0499 76.2449C79.1691 76.393 79.3985 76.4023 79.7379 76.2819C80.3892 76.0597 80.8662 75.8746 81.1781 75.7357H81.1873C81.1873 75.7357 81.1873 75.7265 81.1964 75.7265C81.3432 75.6617 81.4808 75.5969 81.6092 75.5321C81.6276 75.5228 81.6551 75.5043 81.6826 75.495C81.9945 75.3284 82.2605 75.1525 82.499 74.9673C82.8201 74.7081 83.0311 74.4582 83.132 74.1989C83.1962 74.0323 83.2237 73.8657 83.1962 73.699C83.1687 73.5139 83.1045 73.3657 82.9944 73.2547L82.9118 73.125C83.2421 72.8936 83.4714 72.6714 83.5998 72.4492Z" fill="#F5AC89"/>
<path d="M45.2313 126.519L46.7174 126.519L47.0293 126.611L46.9192 128.922L46.6073 129.014L45.0845 129.014C44.5341 131.381 42.7544 133.069 40.1859 133.069C39.3786 133.069 38.6998 132.922 38.4062 132.83L38.5714 130.518C39.0117 130.574 39.4153 130.592 39.8373 130.592C42.3141 130.592 43.3782 129.051 43.3782 127.62C43.3782 126.354 42.993 124.739 42.6444 122.849L44.5341 122.317C44.846 123.767 45.1395 125.235 45.2313 126.519ZM57.0944 126.519L57.4063 126.574L57.2962 128.959L56.9843 129.014L56.6908 129.014C54.5992 129.014 53.7369 128.354 52.0674 126.427C51.7738 128.005 50.5996 129.014 47.7375 129.014L46.6 129.014L46.2881 128.959L46.3982 126.574L46.7101 126.519L47.8843 126.519C49.9758 126.519 50.7097 126.244 50.9666 125.381L47.7008 121.547L47.7008 119.584L55.59 115.492L56.3789 117.4L49.7924 120.721L53.1131 124.372C54.6176 126.023 55.2414 126.519 57.0944 126.519ZM58.8448 120.666C58.2944 120.666 57.8358 120.208 57.8358 119.657C57.8358 119.107 58.2944 118.648 58.8448 118.648C59.3952 118.648 59.8356 119.107 59.8356 119.657C59.8356 120.208 59.4136 120.666 58.8448 120.666ZM61.3584 120.666C60.7713 120.666 60.3493 120.226 60.3493 119.657C60.3493 119.107 60.7713 118.648 61.3584 118.648C61.9088 118.648 62.3491 119.107 62.3491 119.657C62.3491 120.208 61.9088 120.666 61.3584 120.666ZM63.1013 126.519L63.4132 126.574L63.3031 128.959L62.9912 129.014C61.4134 129.014 60.3126 128.427 59.8723 127.198C59.487 128.299 58.5329 129.014 56.9918 129.014L56.6799 128.959L56.79 126.574L57.1019 126.519C58.4596 126.519 59.1567 126.262 59.1567 124.684L59.1567 122.042L61.0648 122.042L61.0648 124.611C61.0648 126.244 61.6336 126.519 63.1013 126.519ZM62.994 129.014L62.6821 128.904L62.7921 126.629L63.104 126.519C64.4617 126.519 65.1039 126.023 65.1039 124.959C65.1039 124.06 64.8287 122.684 64.5718 121.547L66.3881 121.033C66.7 122.116 66.9936 123.528 66.9936 124.794C66.9936 127.473 65.5258 129.014 62.994 129.014ZM65.0121 132.5C64.3333 132.5 63.8746 131.986 63.8746 131.381C63.8746 130.775 64.3333 130.262 65.0121 130.262C65.6726 130.262 66.1313 130.775 66.1313 131.381C66.1313 131.986 65.6726 132.5 65.0121 132.5ZM71.0824 129.014L69.1009 129.014L69.1009 115.878L71.0824 115.878L71.0824 129.014ZM77.2359 120.813C79.7678 120.813 81.1438 123.326 81.1438 126.097C81.1438 129.638 79.5293 132.885 74.649 132.885C73.5482 132.885 72.5024 132.702 72.0437 132.555L72.2088 130.262C72.8143 130.39 73.6583 130.5 74.704 130.5C78.0615 130.5 79.4192 128.831 79.4926 127.161C79.0156 127.932 78.1716 128.629 76.6305 128.629C74.282 128.629 73.1996 127.051 73.1996 125.235C73.1996 122.721 74.8691 120.813 77.2359 120.813ZM76.8506 126.244C78.1532 126.244 78.9789 125.84 79.4008 125.381C79.0706 124.336 78.3551 123.271 76.9974 123.271C75.548 123.271 74.8325 124.244 74.8325 125.014C74.8325 125.84 75.6764 126.244 76.8506 126.244ZM99.9276 126.519L100.239 126.574L100.111 128.959L99.7992 129.014C98.5149 129.014 97.5058 128.464 97.0655 127.363C96.5885 128.243 95.4693 129.087 93.708 129.087C92.1118 129.087 91.011 128.464 90.4606 127.418C88.7543 127.766 88.4241 127.968 88.4241 128.665L88.4241 134.812L86.4243 134.812L86.4243 128.702C86.4243 126.501 87.0848 125.803 90.0936 124.959C90.3689 122.831 91.9834 121.143 94.1667 121.143C96.0197 121.143 97.2489 122.354 97.9645 124.684C98.3681 126.097 98.8451 126.519 99.9276 126.519ZM93.8364 126.611C95.2124 126.611 95.9647 126.189 96.3683 125.73C95.9647 124.464 95.1574 123.638 93.8915 123.638C92.6622 123.638 91.7082 124.427 91.7082 125.418C91.7082 126.134 92.4604 126.611 93.8364 126.611ZM105.923 126.519L106.235 126.574L106.125 128.959L105.813 129.014C104.216 129.014 103.116 128.427 102.675 127.216C102.308 128.317 101.354 129.014 99.8132 129.014L99.5013 128.959L99.6114 126.574L99.9233 126.519C101.263 126.519 101.923 126.262 101.923 124.684L101.923 115.878L103.923 115.878L103.923 124.611C103.923 126.244 104.565 126.519 105.923 126.519ZM115.576 126.519L116.035 126.519L116.347 126.574L116.236 128.959L115.925 129.014L115.411 129.014C112.971 129.014 111.852 128.904 110.806 128.06C109.65 128.684 108.237 129.014 105.815 129.014L105.503 128.959L105.614 126.574L105.925 126.519C107.246 126.519 108.2 126.482 108.953 126.427C108.109 125.638 107.191 124.684 106.769 124.152L106.769 121.914C107.1 121.639 108.843 120.483 111.301 120.483C113.65 120.483 115.026 121.602 115.026 123.382C115.026 124.611 114.273 125.528 112.934 126.482C113.558 126.519 114.42 126.519 115.576 126.519ZM113.356 123.84C113.356 123.253 112.402 122.849 111.118 122.849C110.035 122.849 108.989 123.143 108.384 123.455C109.191 124.244 110.365 125.418 110.971 125.932C112.494 125.143 113.356 124.464 113.356 123.84ZM116.141 118.868C116.141 118.318 116.599 117.859 117.15 117.859C117.7 117.859 118.14 118.318 118.14 118.868C118.14 119.419 117.719 119.877 117.15 119.877C116.599 119.877 116.141 119.419 116.141 118.868ZM118.654 118.868C118.654 118.318 119.076 117.859 119.663 117.859C120.214 117.859 120.654 118.318 120.654 118.868C120.654 119.419 120.214 119.877 119.663 119.877C119.076 119.877 118.654 119.437 118.654 118.868ZM115.921 129.014L115.609 128.904L115.719 126.629L116.031 126.519C117.388 126.519 118.03 126.023 118.03 124.959C118.03 124.06 117.755 122.684 117.498 121.547L119.315 121.033C119.627 122.116 119.92 123.528 119.92 124.794C119.92 127.473 118.452 129.014 115.921 129.014Z" fill="#121212"/>
<defs>
<radialGradient id="paint0_radial_510_59336" cx="0" cy="0" r="1" gradientUnits="userSpaceOnUse" gradientTransform="translate(105.955 48.6488) rotate(22.0179) scale(5.58514 2.42894)">
<stop stop-color="#D23F41" stop-opacity="0.8078"/>
<stop offset="0.5176" stop-color="#DB5E61" stop-opacity="0.5686"/>
<stop offset="1" stop-color="#F0ACAD" stop-opacity="0.0588235"/>
</radialGradient>
<radialGradient id="paint1_radial_510_59336" cx="0" cy="0" r="1" gradientUnits="userSpaceOnUse" gradientTransform="translate(55.0703 52.1546) rotate(32.7908) scale(25.1659 10.9177)">
<stop stop-color="#D23F41" stop-opacity="0.8078"/>
<stop offset="0.5176" stop-color="#DB5E61" stop-opacity="0.5686"/>
<stop offset="1" stop-color="#F0ACAD" stop-opacity="0.0588235"/>
</radialGradient>
</defs>
</svg>
