<svg width="190" height="42" viewBox="0 0 190 42" fill="none" xmlns="http://www.w3.org/2000/svg">
<g clip-path="url(#clip0_175_13051)">
<path d="M38.0063 26.2584C38.3637 23.8554 37.5339 20.4102 37.0287 19.1942C38.5938 14.2724 37.0574 15.083 36.1331 17.2213V17.2503C35.2495 15.5058 34.1954 13.8543 32.9865 12.3202V12.2913C33.886 10.8017 34.6281 9.22144 35.2007 7.57626C34.2476 8.92045 33.2412 10.1943 32.206 11.3979L32.1773 11.3565C30.8278 9.81404 29.3013 8.43817 27.6298 7.25779C28.8281 6.63212 30.0627 6.07965 31.3269 5.6034C29.6715 5.67085 28.0328 5.96301 26.455 6.47195C25.4037 5.80191 24.284 5.24728 23.1153 4.81757C23.9369 5.47519 24.7091 6.15762 25.4527 6.85246C23.0172 7.79152 20.8498 9.32163 19.143 11.3069L19.106 11.249C18.2784 10.6184 17.3957 10.0647 16.4688 9.59461C17.2205 10.3639 17.9312 11.1911 18.5966 11.9728V12.0183C17.756 13.1816 17.0826 14.4584 16.5961 15.811C17.4893 14.8352 18.4355 13.9101 19.4305 13.0399H19.4634C21.0575 15.0737 22.481 17.2374 23.7191 19.5085L23.8013 19.5333C21.6747 21.2842 19.4321 22.8872 17.089 24.3311C19.7497 23.7534 22.2879 22.706 24.5859 21.2374L24.6434 21.258C25.8014 23.6088 26.7646 26.0518 27.523 28.5622H27.4779C22.7784 32.1398 25.502 31.9413 28.016 30.6302V30.564C28.55 32.6609 28.9567 34.4683 28.9567 34.4683L29.0881 34.5511C29.5482 32.9422 29.3675 31.0603 29.2648 29.9105H29.2976C32.2732 27.9532 34.6083 25.1547 36.0099 21.866L36.0428 21.9198C37.0163 24.0746 38.0022 26.2005 38.0022 26.2005L38.0063 26.2584ZM31.8076 14.3468C32.9608 16.0528 34.0103 17.8276 34.9501 19.6616C33.4176 22.5644 31.3823 25.1682 28.9403 27.3503C28.4922 24.738 27.6484 22.2105 26.4386 19.856L26.4714 19.9097C28.4931 18.296 30.2688 16.3925 31.7418 14.26L31.8076 14.3468ZM26.5043 7.88232C28.0753 9.45931 29.528 11.1514 30.8504 12.9447V12.9696C29.1676 14.7775 27.3862 16.4897 25.5143 18.0982H25.4239C24.0487 15.907 22.3458 13.9428 20.3753 12.2747H20.3548C22.268 10.6408 24.314 9.17147 26.4714 7.88232H26.5043Z" fill="#204483"/>
<path d="M19.4688 9.23079L21.8748 5.35084L19.5142 0.762817C16.3228 0.976142 13.2246 1.93084 10.4641 3.55153C7.70363 5.17223 5.3564 7.41455 3.60774 10.1015C1.85907 12.7884 0.756858 15.8464 0.388102 19.034C0.0193463 22.2217 0.394147 25.4517 1.48291 28.469C1.48291 28.469 1.25592 5.85188 19.477 9.23907" fill="#59B948"/>
<path d="M21.1992 0.762817C21.1992 0.762817 46.688 6.71819 32.7915 30.5806L31.1277 33.0733L36.4559 34.5509C39.0182 31.6133 40.6813 28.0209 41.252 24.1906C41.8228 20.3603 41.2778 16.4492 39.6803 12.9115C38.0829 9.37375 35.4985 6.35442 32.2273 4.20403C28.956 2.05364 25.132 0.860393 21.1992 0.762817Z" fill="#204483"/>
<path d="M10.2124 27.1828L5.33658 26.4418L2.27783 30.1466C3.67456 33.1133 5.76406 35.705 8.37217 37.7057C10.9803 39.7064 14.0315 41.0581 17.2714 41.6481C20.5113 42.2382 23.8461 42.0495 26.9979 41.0979C30.1496 40.1462 33.027 38.4591 35.3901 36.1772C35.3901 36.1772 12.9483 46.0977 10.2124 27.1828Z" fill="#59B948"/>
<path d="M54.3115 9.5481H57.398V20.958H57.5069C58.1435 20.0475 58.7842 19.2074 59.3873 18.4335L66.6994 9.5481H70.5313L61.8707 19.5923L71.2056 33.1997H67.5495L59.672 21.5912L57.398 24.186V33.1997H54.3115V9.5481Z" fill="#59B948"/>
<path d="M76.6088 11.4798C76.6088 11.9863 76.3954 12.4721 76.0155 12.8303C75.6357 13.1885 75.1205 13.3897 74.5833 13.3897C74.0461 13.3897 73.5309 13.1885 73.1511 12.8303C72.7712 12.4721 72.5578 11.9863 72.5578 11.4798C72.5506 11.2248 72.5985 10.971 72.6986 10.734C72.7986 10.497 72.9488 10.2816 73.1399 10.101C73.331 9.92043 73.5591 9.77839 73.8102 9.68353C74.0614 9.58867 74.3304 9.54298 74.6008 9.54924C74.8705 9.54024 75.1391 9.58432 75.3897 9.67865C75.6403 9.77299 75.8672 9.91551 76.0561 10.0971C76.2451 10.2788 76.3918 10.4955 76.4869 10.7336C76.5821 10.9716 76.6236 11.2258 76.6088 11.4798ZM72.9656 33.1997V16.2504H76.2449V33.1997H72.9656Z" fill="#59B948"/>
<path d="M82.4309 16.3338L84.6448 24.9144C85.1308 26.7892 85.5679 28.5325 85.8946 30.2593H85.9967C86.3766 28.5531 86.9321 26.7399 87.4835 24.9144L90.2201 16.305H92.7811L95.3707 24.7664C95.9915 26.7892 96.4776 28.5654 96.8575 30.2717H96.9637C97.2887 28.4264 97.7155 26.6009 98.2421 24.8034L100.632 16.3338H103.642L98.2421 33.1908H95.4728L92.92 25.1488C92.3295 23.3299 91.8333 21.4813 91.4332 19.6106H91.3638C90.9623 21.4968 90.4536 23.3582 89.8403 25.1858L87.1404 33.199H84.3711L79.3145 16.342L82.4309 16.3338Z" fill="#59B948"/>
<path d="M111.073 11.4797C111.073 11.9862 110.859 12.472 110.479 12.8302C110.1 13.1884 109.584 13.3896 109.047 13.3896C108.51 13.3896 107.995 13.1884 107.615 12.8302C107.235 12.472 107.022 11.9862 107.022 11.4797C107.014 11.2243 107.062 10.9702 107.163 10.7329C107.263 10.4956 107.414 10.28 107.605 10.0994C107.797 9.9187 108.025 9.77674 108.277 9.68214C108.529 9.58754 108.798 9.54227 109.069 9.5491C109.338 9.54069 109.607 9.5852 109.857 9.6798C110.107 9.77439 110.333 9.91701 110.521 10.0986C110.71 10.2801 110.856 10.4967 110.951 10.7345C111.046 10.9722 111.087 11.226 111.073 11.4797ZM107.434 33.1997V16.2503H110.704V33.1997H107.434Z" fill="#59B948"/>
<path d="M120.319 12.1554H113.103V9.5481H130.672V12.1554H123.418V33.1997H120.319V12.1554Z" fill="#204483"/>
<path d="M132.246 25.6622C132.316 29.7991 134.962 31.5064 138.026 31.5064C139.626 31.5549 141.218 31.2582 142.693 30.6363L143.214 32.8279C141.439 33.5643 139.529 33.9194 137.607 33.8703C132.419 33.8703 129.321 30.4598 129.321 25.3831C129.321 20.3064 132.324 16.305 137.225 16.305C142.726 16.305 144.188 21.1396 144.188 24.234C144.182 24.7117 144.148 25.1886 144.085 25.6622H132.246ZM141.23 23.4707C141.263 21.5212 140.429 18.4966 136.983 18.4966C133.881 18.4966 132.526 21.3694 132.283 23.4707H141.23Z" fill="#204483"/>
<path d="M160.352 32.8977C158.802 33.5745 157.12 33.9072 155.424 33.8723C150.255 33.8723 146.891 30.4223 146.891 25.2657C146.891 20.1092 150.501 16.3056 156.085 16.3056C157.572 16.2902 159.045 16.5874 160.406 17.1773L159.7 19.55C158.588 18.9707 157.342 18.6872 156.085 18.7276C152.156 18.7276 150.029 21.606 150.029 25.1054C150.029 29.0077 152.578 31.4133 155.98 31.4133C157.301 31.4259 158.609 31.1448 159.804 30.5909L160.352 32.8977Z" fill="#204483"/>
<path d="M163.785 8.87231H166.816V18.9775H166.885C167.399 18.0695 168.15 17.3224 169.055 16.8183C169.996 16.2582 171.065 15.9576 172.156 15.9464C174.395 15.9464 177.976 17.3406 177.976 23.1603V33.1997H174.944V23.5099C174.944 20.7913 173.944 18.4922 171.087 18.4922C170.178 18.5099 169.297 18.8153 168.568 19.3656C167.84 19.9159 167.299 20.6834 167.024 21.5604C166.858 22.0281 166.788 22.5246 166.816 23.0205V33.1997H163.785V8.87231Z" fill="#204483"/>
<path d="M179.917 9.54132H177.976V8.87231H182.706V9.54132H180.752V14.9542H179.9L179.917 9.54132Z" fill="#204483"/>
<path d="M188.56 12.2822C188.516 11.4348 188.464 10.4171 188.472 9.6589H188.448C188.241 10.3684 187.994 11.1267 187.691 11.9659L186.636 14.9177H186.054L185.087 12.0227C184.804 11.1631 184.565 10.3806 184.393 9.6589C184.393 10.4171 184.33 11.4348 184.278 12.3471L184.119 14.9542H183.382L183.8 8.87231H184.784L185.803 11.8159C186.05 12.562 186.253 13.231 186.405 13.8635C186.556 13.2472 186.767 12.5822 187.034 11.8159L188.11 8.87231H189.093L189.464 14.9542H188.711L188.56 12.2822Z" fill="#204483"/>
</g>
<defs>
<clipPath id="clip0_175_13051">
<rect width="189.213" height="41.2214" fill="white" transform="translate(0.250488 0.762085)"/>
</clipPath>
</defs>
</svg>
