<svg width="141" height="142" viewBox="0 0 141 142" fill="none" xmlns="http://www.w3.org/2000/svg">
<circle cx="70.4219" cy="70.9186" r="70.1299" fill="white"/>
<path fill-rule="evenodd" clip-rule="evenodd" d="M70.4233 95.8456C64.7699 100.724 57.4366 103.669 49.4232 103.669C31.5431 103.669 17.0483 89.0064 17.0483 70.9187C17.0483 52.831 31.5431 38.168 49.4232 38.168C57.4366 38.168 64.77 41.1131 70.4233 45.9918C76.0766 41.1131 83.41 38.168 91.4234 38.168C109.304 38.168 123.798 52.831 123.798 70.9187C123.798 89.0064 109.304 103.669 91.4234 103.669C83.41 103.669 76.0766 100.724 70.4233 95.8456Z" fill="#ED0006"/>
<path fill-rule="evenodd" clip-rule="evenodd" d="M70.4238 95.8451C77.3845 89.8381 81.7981 80.8998 81.7981 70.9187C81.7981 60.9376 77.3845 51.9993 70.4238 45.9922C76.0772 41.1133 83.4108 38.168 91.4244 38.168C109.305 38.168 123.799 52.831 123.799 70.9187C123.799 89.0064 109.305 103.669 91.4244 103.669C83.4108 103.669 76.0772 100.724 70.4238 95.8451Z" fill="#F9A000"/>
<path fill-rule="evenodd" clip-rule="evenodd" d="M70.4224 95.8449C77.3829 89.8378 81.7964 80.8996 81.7964 70.9186C81.7964 60.9377 77.3829 51.9995 70.4224 45.9924C63.4619 51.9995 59.0483 60.9377 59.0483 70.9186C59.0483 80.8996 63.4619 89.8378 70.4224 95.8449Z" fill="#FF5E00"/>
</svg>
