<svg width="60" height="61" viewBox="0 0 60 61" fill="none" xmlns="http://www.w3.org/2000/svg">
<rect y="0.628906" width="60" height="60" rx="8" fill="#7BBFF0"/>
<path d="M28.3833 33.9973C28.3833 31.2605 26.4117 29.7166 23.9669 29.7166C23.0205 29.7166 22.3107 29.9272 21.7587 30.2079C21.7587 27.9622 23.9669 26.1377 27.0426 25.5763V22.6289C21.5221 23.3307 17.5 27.4008 17.5 32.5236C17.5 36.3131 20.0237 38.6289 23.1782 38.6289C26.3328 38.6289 28.3833 36.664 28.3833 33.9973ZM42.5 33.9973C42.5 31.2605 40.4495 29.7166 38.0047 29.7166C37.1372 29.7166 36.4274 29.857 35.8754 30.1377C35.8754 27.9622 38.0836 26.1377 41.1593 25.5763V22.6289C35.6388 23.3307 31.5379 27.4008 31.5379 32.5236C31.5379 36.3131 34.0615 38.6289 37.295 38.6289C40.3707 38.6289 42.5 36.664 42.5 33.9973Z" fill="white"/>
</svg>
