<svg width="205" height="53" viewBox="0 0 205 53" fill="none" xmlns="http://www.w3.org/2000/svg">
<g filter="url(#filter0_i_175_13073)">
<path d="M2.14325 1.10049C2.82694 0.821546 3.54892 1.09502 4.18338 1.36303C12.7596 5.16432 21.3577 8.9164 29.9284 12.7341C31.066 13.1279 31.881 14.364 31.3833 15.5618C30.7051 16.8362 29.5072 17.7278 28.5337 18.7615C27.0186 20.1726 25.7169 21.8025 24.1198 23.1207C23.1735 23.8044 22.0195 23.1863 21.3084 22.4643C14.7997 16.5463 8.22535 10.6995 1.70569 4.7924C0.409416 3.8954 0.6993 1.66385 2.14325 1.10049ZM3.10042 2.45146C2.23076 3.27735 2.14325 4.75411 3.16058 5.49796C9.06766 10.9073 15.0677 16.2182 21.0076 21.5947C21.6968 22.4096 23.0751 22.53 23.7697 21.6548C25.6512 19.7351 27.5765 17.859 29.4142 15.9009C30.3824 14.9766 30.0104 13.2099 28.7251 12.7943C21.1826 9.35396 13.5472 6.11055 5.98832 2.71399C5.06944 2.353 4.01383 1.72401 3.10042 2.45146Z" fill="#C81F24"/>
<path d="M61.8594 7.96448C63.6315 7.96448 65.4036 7.96448 67.1812 7.96995C67.1976 12.0283 67.1812 16.0867 67.1922 20.1505C68.9971 20.145 70.8021 20.145 72.607 20.1505C72.6125 22.0211 72.6125 23.8862 72.6125 25.7567C70.8021 25.7622 68.9971 25.7567 67.1922 25.7622C67.3563 28.7704 66.7765 31.8716 67.586 34.8142C68.4173 37.6693 71.2341 39.3977 74.0728 39.7039C74.0728 41.5581 74.0728 43.4123 74.0728 45.2664C67.761 45.3375 62.1274 39.9391 61.8922 33.6492C61.8047 25.0895 61.8813 16.5242 61.8594 7.96448Z" fill="#C81F24"/>
<path d="M103.116 7.89398C104.921 7.89398 106.726 7.89398 108.531 7.89398C108.536 14.9332 108.52 21.967 108.536 29.0062C111.949 26.1238 115.198 23.0554 118.622 20.1894C121.433 19.8175 124.316 20.1456 127.154 20.0472C123.522 23.2359 119.863 26.4027 116.264 29.6352C119.858 34.8367 123.55 39.978 127.105 45.2123C124.895 45.2069 122.686 45.2069 120.476 45.2233C117.681 41.2251 114.831 37.2652 112.124 33.2068C110.937 34.2843 109.734 35.3399 108.52 36.3846C108.541 39.3272 108.525 42.2697 108.531 45.2123C106.726 45.2123 104.921 45.2123 103.116 45.2178C103.116 32.7747 103.116 20.3316 103.116 7.89398Z" fill="#C81F24"/>
<path d="M131.3 21.9777C135.638 19.046 141.949 19.6586 145.636 23.3779C148.682 26.1509 149.951 30.4663 149.497 34.4974C143.372 34.5247 137.246 34.4536 131.125 34.5411C131.946 36.7945 133.636 38.9003 136.092 39.4144C138.832 40.1911 141.583 38.6596 143.202 36.4992C144.695 37.5329 146.172 38.5831 147.66 39.6223C145.477 42.7727 141.966 45.1027 138.061 45.2011C132.919 45.5129 128.068 41.903 126.361 37.1446C124.349 31.7407 126.329 25.0515 131.3 21.9777ZM131.918 28.8966C135.698 28.9622 139.483 28.9513 143.262 28.913C141.922 27.0917 139.882 25.6641 137.536 25.7133C135.233 25.6915 133.258 27.1354 131.918 28.8966Z" fill="#C81F24"/>
<path d="M155.164 30.8543C155.738 26.1614 159.222 21.9116 163.8 20.6208C165.501 20.0848 167.306 20.1778 169.067 20.2763C169.029 22.1906 169.023 24.1049 169.034 26.0192C164.856 24.6245 160.25 28.2016 160.398 32.5498C160.108 36.9692 164.708 40.7103 168.985 39.3648C169.001 41.2463 169.023 43.1223 169.067 45.0038V45.0585C166.048 45.4578 162.859 44.889 160.36 43.0895C156.476 40.4423 154.469 35.4705 155.164 30.8543Z" fill="#C81F24"/>
<path d="M81.4676 28.4861C81.67 27.5891 82.9225 27.1516 83.4585 28.0376C84.6892 29.5089 86.5433 30.7341 87.1176 32.5828C83.907 37.024 80.1823 41.0878 76.7638 45.3814C76.0255 45.097 74.8987 44.6047 75.3801 43.6038C77.371 38.55 79.422 33.5181 81.4676 28.4861Z" fill="#C81F24"/>
<path d="M181.33 15.661C183.07 11.2088 187.533 7.97631 192.351 7.93256C192.357 9.78125 192.357 11.6299 192.357 13.4786C190.541 13.7794 188.665 14.3537 187.489 15.8688C185.794 17.6683 185.679 20.2553 185.722 22.5853C187.538 22.5799 189.354 22.5799 191.176 22.5853C191.17 24.4504 191.176 26.321 191.17 28.1916C189.365 28.1916 187.555 28.1916 185.75 28.197C185.75 33.8689 185.75 39.5353 185.75 45.2072C183.972 45.2126 182.189 45.2126 180.417 45.1743C180.466 38.239 180.422 31.2982 180.439 24.3629C180.477 21.4531 180.116 18.4066 181.33 15.661Z" fill="#C81F24"/>
<path d="M192.378 19.9766C192.45 13.6484 197.941 7.91088 204.346 7.94917C204.351 9.79238 204.351 11.6301 204.346 13.4788C202.158 13.7304 199.937 14.7204 198.822 16.7168C197.64 18.4397 197.744 20.5946 197.711 22.5855C199.522 22.5855 201.332 22.5801 203.142 22.5855C203.159 24.4506 203.159 26.3212 203.148 28.1918C201.348 28.1918 199.549 28.1918 197.75 28.1863C197.733 33.8582 197.75 39.53 197.739 45.2074C195.945 45.2074 194.145 45.2128 192.351 45.1964C192.368 36.7898 192.313 28.3777 192.378 19.9766Z" fill="#C81F24"/>
<path d="M85.712 17.9473C86.3793 16.5581 86.609 14.8461 87.7576 13.7577C89.043 13.5225 89.2946 14.9446 89.754 15.7978C93.8069 25.0741 98.0294 34.2792 102.049 43.5719C102.591 44.447 101.552 45.0268 100.988 45.4644C97.1761 41.6685 93.5881 37.643 89.8743 33.7487C87.5115 31.1288 84.9244 28.7004 82.7202 25.9437C83.3383 23.1652 84.7768 20.6329 85.712 17.9473Z" fill="#881A1D"/>
<path d="M34.2493 15.163C35.1135 14.9661 35.9449 15.3873 36.727 15.71C42.5411 18.3244 48.4044 20.824 54.235 23.4056C55.6789 23.8486 56.0344 26.0802 54.8092 26.9498C54.0435 27.5022 53.1684 27.8796 52.3261 28.2898C36.1418 36.1495 19.9794 44.0639 3.77869 51.8962C1.79326 53.094 -0.148419 50.0639 1.44321 48.6145C8.05585 41.7174 14.7615 34.9079 21.4288 28.0601C25.7825 23.8486 29.6878 19.1448 34.2493 15.163ZM32.5866 17.8814C24.1909 26.4576 15.8226 35.0665 7.44873 43.6591C6.22903 44.9609 4.79602 46.093 3.77869 47.5698C2.98561 48.9645 4.68663 50.9773 6.16887 50.0748C21.6202 42.7019 36.9349 35.0283 52.3972 27.6827C52.9277 26.5669 53.0535 24.948 51.6533 24.4338C46.1893 22.0218 40.7143 19.6207 35.2339 17.2579C34.2822 16.5851 33.243 17.0938 32.5866 17.8814Z" fill="#881A1D"/>
<path d="M169.067 20.2768C174.548 21.3324 178.82 26.4354 178.929 32.0089C179.399 37.9651 175.029 43.9925 169.067 45.0044C169.024 43.1229 169.002 41.2468 168.985 39.3653C171.479 38.2988 173.476 35.9195 173.552 33.1301C173.837 30.0617 171.813 27.1848 169.035 26.0198C169.024 24.1054 169.029 22.1911 169.067 20.2768Z" fill="#881A1D"/>
<path opacity="0.51" d="M112.633 8.86755C114.044 10.7272 113.098 13.4072 113.355 15.595C113.109 15.6005 112.611 15.6224 112.365 15.6278C112.332 13.3744 112.272 11.1046 112.633 8.86755Z" fill="#C81F24"/>
<path opacity="0.51" d="M126.247 9.21794C127.806 9.03197 129.381 9.14683 130.951 9.14683C130.956 9.39296 130.967 9.88522 130.972 10.1313C130.475 10.1368 129.479 10.1478 128.987 10.1478C128.949 11.8761 129.129 13.6209 128.916 15.3383C128.752 15.4805 128.413 15.7649 128.249 15.9071C128.183 13.9928 128.227 12.073 128.216 10.1587C127.428 10.1423 126.641 10.1149 125.853 10.0876C125.951 9.87428 126.148 9.43672 126.247 9.21794Z" fill="#C81F24"/>
<path opacity="0.51" d="M164.588 10.0821C164.626 9.55701 164.867 9.14133 165.321 8.8241C165.786 10.8642 164.561 13.6482 166.628 15.021C167.377 15.1851 168.05 14.6765 168.734 14.4522C168.92 12.8114 168.838 11.1596 169.04 9.52419C169.21 9.38198 169.549 9.09757 169.713 8.96083C169.718 10.8369 170.167 12.877 169.407 14.6546C168.745 16.011 167.098 15.5789 165.89 15.7321C164.32 14.2772 164.484 12.0292 164.588 10.0821Z" fill="#C81F24"/>
<path opacity="0.91" d="M118.043 10.7939C118.508 8.84132 121.275 8.87961 122.435 10.1704C121.215 10.1759 118.77 9.257 118.737 11.2151C119.607 12.5989 122.402 11.9589 122.457 13.9717C122.178 16.3564 118.715 16.0611 117.572 14.453C118.901 14.8578 122.074 15.9298 121.663 13.4685C120.455 12.5879 117.846 12.8395 118.043 10.7939Z" fill="#C81F24"/>
<path opacity="0.91" d="M137.087 8.95599C138.455 11.1055 139.346 13.5066 140.293 15.8585C139.467 15.5413 139.128 14.7646 138.827 13.9989C137.749 13.977 136.672 13.9715 135.594 13.977C135.173 14.6607 134.867 15.5084 134.046 15.8366C134.927 13.4902 135.966 11.1985 137.087 8.95599ZM135.742 13.4191C136.683 13.4191 137.629 13.4191 138.575 13.4191C138.105 12.3197 137.645 11.2149 137.175 10.121C136.694 11.2149 136.212 12.3143 135.742 13.4191Z" fill="#C81F24"/>
<path opacity="0.91" d="M144.63 8.97248C146.249 10.6133 147.518 12.5495 148.994 14.3162C149.115 12.5112 148.551 10.5368 149.509 8.89044C149.7 11.215 149.64 13.5504 149.58 15.875C147.813 14.3873 146.686 12.3308 145.204 10.586C145.188 12.2706 145.193 13.9497 145.188 15.6343L144.586 15.607C144.575 13.3918 144.559 11.1822 144.63 8.97248Z" fill="#C81F24"/>
<path opacity="0.91" d="M154.831 9.34949C156.269 9.3659 157.921 8.95022 159.173 9.84722C160.01 10.4871 159.523 11.581 159.201 12.3468C159.671 12.9812 160.185 13.6813 159.945 14.5236C158.894 16.2684 156.543 15.437 154.885 15.623C154.896 13.5337 154.902 11.4388 154.831 9.34949ZM155.585 9.91832C155.585 10.4981 155.58 11.6522 155.58 12.2264C156.696 12.0295 158.49 12.6148 158.987 11.2255C159.075 9.40966 156.739 10.148 155.585 9.91832ZM155.585 12.746C155.58 13.5227 155.58 14.2994 155.574 15.0761C156.882 14.9284 158.818 15.541 159.441 13.9493C159.069 12.1663 156.871 12.9703 155.585 12.746Z" fill="#C81F24"/>
<path opacity="0.91" d="M174.893 15.6123C174.997 13.3534 174.521 10.996 175.319 8.81915C175.806 10.8538 175.62 12.9541 175.626 15.027C176.845 15.1419 178.256 14.7153 179.307 15.5302C177.835 15.6506 176.364 15.6232 174.893 15.6123Z" fill="#C81F24"/>
</g>
<defs>
<filter id="filter0_i_175_13073" x="0.856934" y="0.983521" width="203.493" height="55.1867" filterUnits="userSpaceOnUse" color-interpolation-filters="sRGB">
<feFlood flood-opacity="0" result="BackgroundImageFix"/>
<feBlend mode="normal" in="SourceGraphic" in2="BackgroundImageFix" result="shape"/>
<feColorMatrix in="SourceAlpha" type="matrix" values="0 0 0 0 0 0 0 0 0 0 0 0 0 0 0 0 0 0 127 0" result="hardAlpha"/>
<feOffset dy="4"/>
<feGaussianBlur stdDeviation="2"/>
<feComposite in2="hardAlpha" operator="arithmetic" k2="-1" k3="1"/>
<feColorMatrix type="matrix" values="0 0 0 0 0 0 0 0 0 0 0 0 0 0 0 0 0 0 0.25 0"/>
<feBlend mode="normal" in2="shape" result="effect1_innerShadow_175_13073"/>
</filter>
</defs>
</svg>
