<?xml version="1.0" standalone="no"?>
<!DOCTYPE svg PUBLIC "-//W3C//DTD SVG 1.1//EN" "http://www.w3.org/Graphics/SVG/1.1/DTD/svg11.dtd" >
<svg xmlns="http://www.w3.org/2000/svg" xmlns:xlink="http://www.w3.org/1999/xlink" version="1.1">
<metadata>
Created by FontForge 20201107 at Fri Sep 27 13:48:36 2024
 By 
Copyright (c) 2020 by TPTQ Arabic. All rights reserved.
</metadata>
<defs>
<font id="PingAR+LT-Medium" horiz-adv-x="1536" >
  <font-face 
    font-family="Ping AR + LT Medium"
    font-weight="500"
    font-stretch="normal"
    units-per-em="2048"
    panose-1="0 0 6 0 0 0 0 0 0 0"
    ascent="1638"
    descent="-410"
    x-height="1075"
    cap-height="1440"
    bbox="-555 -1128 3142 1966"
    underline-thickness="102"
    underline-position="-204"
    unicode-range="U+000D-1F5FA"
  />
<missing-glyph horiz-adv-x="1368" 
d="M254 1845h868v-2736h-868v2736zM911 1571v90h-452v-90h178v-101h-180v-90h454v90h-180v101h180zM731 1118v191h-274v-285h454v94h-180zM547 1217h90v-99h-90v99zM911 860v90h-454v-90h180v-100h-180v-90h274v190h180zM911 512v274h-90v-180h-364v-94h454zM911 143v310
h-274v-154h94v63h90v-129h-274v220h-90v-310h454zM911 -330v310h-454v-310h454zM547 -111h274v-129h-274v129zM911 -483v90h-454v-90h192l-192 -129v-90h454v90h-278l190 129h88z" />
    <glyph glyph-name="uniFDF2" unicode="&#x627;&#xfedf;&#xfee0;&#xfeea;" horiz-adv-x="2838" arabic-form="isolated" 
d="M2030 418v1034h176v-1014q0 -222 -115 -330t-305 -108h-2q-132 0 -221 50.5t-119 148.5q-31 -93 -113.5 -146t-202.5 -53q-338 0 -385 299q-82 -172 -311 -172q-168 0 -271.5 97t-103.5 259q0 94 36 173t114 148t209.5 121.5t312.5 86.5v145h170v-717q0 -69 16.5 -114
t50.5 -67t73 -30t98 -8q60 0 99.5 7.5t73.5 30t50 68t16 115.5v1010h176v-1006q0 -71 15.5 -117t49 -69t73.5 -31t102 -8h2q58 0 98 7.5t73 28.5t49 60.5t16 100.5zM2511 0v1452h176v-1452h-176zM455 350q106 0 176 31.5t98 77.5v356q-272 -49 -393 -129.5t-121 -175.5
q0 -79 66 -119.5t174 -40.5z" />
    <glyph glyph-name="uniFEF5" unicode="&#xfedf;&#xfe82;" horiz-adv-x="1202" arabic-form="isolated" 
d="M451 1307q-55 0 -136 19.5t-114 19.5q-70 0 -135 -27v127q71 49 155 49q46 0 129.5 -19.5t134.5 -19.5q61 0 125 19v-129q-57 -39 -159 -39zM922 649q174 -160 174 -311q0 -168 -110.5 -253t-311.5 -85h-541v211l524 407q-257 193 -643 455l101 168q105 -76 256 -184
t255.5 -183t182.5 -133q48 48 63 92.5t15 118.5v500h176v-410q0 -144 -28 -229.5t-113 -163.5zM358 221h328q120 0 186 24t66 85q0 52 -40.5 99t-121.5 108z" />
    <glyph glyph-name="uniFEF6" unicode="&#xfee0;&#xfe82;" horiz-adv-x="1376" arabic-form="final" 
d="M492 1286q-54 0 -135 19.5t-115 19.5q-71 0 -136 -27v127q73 50 156 50q46 0 129.5 -19.5t134.5 -19.5q64 0 125 18v-129q-57 -39 -159 -39zM1376 221l35 -6l-10 -209l-35 -6q-135 0 -224.5 52t-119.5 159q-46 -105 -148.5 -158t-246.5 -53h-594v221h483l-254 924l174 55
l262 -977q131 7 197 56.5t66 171.5v1001h176v-1006q0 -71 15.5 -117t49 -69t73 -31t101.5 -8z" />
    <glyph glyph-name="uniFEF7" unicode="&#xfedf;&#xfe84;" horiz-adv-x="1202" arabic-form="isolated" 
d="M379 1425h147v-118h-379v112h62q-27 30 -27 84q0 71 48 123.5t130 52.5q49 0 89.5 -24t58.5 -58l-53 -86q-1 1 -9 6.5t-11 7.5t-11 7t-14 7t-14 5.5t-16.5 4.5t-17.5 1q-37 0 -64.5 -18.5t-27.5 -46.5q0 -26 29 -43t80 -17zM922 649q174 -160 174 -311
q0 -168 -110.5 -253t-311.5 -85h-541v211l524 407q-257 193 -643 455l101 168q105 -76 256 -184t255.5 -183t182.5 -133q48 48 63 92.5t15 118.5v500h176v-410q0 -144 -28 -229.5t-113 -163.5zM358 221h328q120 0 186 24t66 85q0 52 -40.5 99t-121.5 108z" />
    <glyph glyph-name="uniFEF8" unicode="&#xfee0;&#xfe84;" horiz-adv-x="1376" arabic-form="final" 
d="M420 1405h147v-119h-379v113h62q-27 30 -27 84q0 71 48 123.5t130 52.5q49 0 89.5 -24t58.5 -58l-53 -86q-1 1 -9 6.5t-11 7.5t-11 7t-14 7t-14 5.5t-16.5 4.5t-17.5 1q-37 0 -64.5 -19t-27.5 -47q0 -26 29 -42.5t80 -16.5zM1376 221l35 -6l-10 -209l-35 -6
q-135 0 -224.5 52t-119.5 159q-46 -105 -148.5 -158t-246.5 -53h-594v221h483l-254 924l174 55l262 -977q131 7 197 56.5t66 171.5v1001h176v-1006q0 -71 15.5 -117t49 -69t73 -31t101.5 -8z" />
    <glyph glyph-name="uniFEF9" unicode="&#xfedf;&#xfe88;" horiz-adv-x="1202" arabic-form="isolated" 
d="M922 649q174 -160 174 -311q0 -168 -110.5 -253t-311.5 -85h-541v211l524 407q-257 193 -643 455l101 168q105 -76 256 -184t255.5 -183t182.5 -133q48 48 63 92.5t15 118.5v500h176v-410q0 -144 -28 -229.5t-113 -163.5zM358 221h328q120 0 186 24t66 85q0 52 -40.5 99
t-121.5 108zM270 -342q0 -26 29 -42.5t80 -16.5h147v-121h-379v114h60q-25 31 -25 84q0 71 48 124t130 53q49 0 89.5 -24t58.5 -58l-53 -88q-47 38 -93 38q-37 0 -64.5 -17.5t-27.5 -45.5z" />
    <glyph glyph-name="uniFEFA" unicode="&#xfee0;&#xfe88;" horiz-adv-x="1376" arabic-form="final" 
d="M1376 221l35 -6l-10 -209l-35 -6q-135 0 -224.5 52t-119.5 159q-46 -105 -148.5 -158t-246.5 -53h-594v221h483l-254 924l174 55l262 -977q131 7 197 56.5t66 171.5v1001h176v-1006q0 -71 15.5 -117t49 -69t73 -31t101.5 -8zM381 -342q0 -26 28.5 -42.5t79.5 -16.5h148
v-121h-379v114h59q-24 30 -24 84q0 71 48 124t130 53q49 0 89 -24t58 -58l-53 -88q-47 38 -92 38q-37 0 -64.5 -17.5t-27.5 -45.5z" />
    <glyph glyph-name="uniFEFB" unicode="&#xfedf;&#xfe8e;" horiz-adv-x="1202" arabic-form="isolated" 
d="M922 649q174 -160 174 -311q0 -168 -110.5 -253t-311.5 -85h-541v211l524 407q-257 193 -643 455l101 168q105 -76 256 -184t255.5 -183t182.5 -133q48 48 63 92.5t15 118.5v500h176v-410q0 -144 -28 -229.5t-113 -163.5zM358 221h328q120 0 186 24t66 85q0 52 -40.5 99
t-121.5 108z" />
    <glyph glyph-name="uniFEFC" unicode="&#xfee0;&#xfe8e;" horiz-adv-x="1376" arabic-form="final" 
d="M1376 221l35 -6l-10 -209l-35 -6q-135 0 -224.5 52t-119.5 159q-46 -105 -148.5 -158t-246.5 -53h-594v221h483l-254 924l174 55l262 -977q131 7 197 56.5t66 171.5v1001h176v-1006q0 -71 15.5 -117t49 -69t73 -31t101.5 -8z" />
    <glyph glyph-name="uniFC6A.liga" unicode="&#xfe92;&#xfeae;" horiz-adv-x="1433" 
d="M1434 221l34 -6l-10 -209l-35 -6q-165 0 -258.5 61.5t-115.5 204.5h-443q4 -62 4 -86q0 -124 -39 -235t-110.5 -195t-180 -133t-239.5 -49q-108 0 -176 22l18 207q63 -8 140 -8q105 0 188 33.5t131 88t73 117t25 126.5q0 28 -2.5 59.5t-5 57.5t-9.5 68.5t-11 65.5
t-15 76.5t-15.5 75t-18.5 87t-19 87.5l170 45q45 -184 64 -295h450v336h170v-371q0 -72 14 -117t46.5 -68.5t72 -31.5t103.5 -8zM1065 -150q47 0 79 -32.5t32 -77.5q0 -46 -32 -79.5t-79 -33.5q-49 0 -81 33t-32 80q0 45 32 77.5t81 32.5z" />
    <glyph glyph-name="uniFC6B.liga" unicode="&#xfe92;&#xfeb0;" horiz-adv-x="1433" 
d="M418 940q-48 0 -80.5 33t-32.5 78q0 47 32 79.5t81 32.5q47 0 78.5 -33t31.5 -79q0 -45 -32 -78t-78 -33zM1434 221l34 -6l-10 -209l-35 -6q-165 0 -258.5 61.5t-115.5 204.5h-443q4 -62 4 -86q0 -124 -39 -235t-110.5 -195t-180 -133t-239.5 -49q-108 0 -176 22l18 207
q63 -8 140 -8q105 0 188 33.5t131 88t73 117t25 126.5q0 28 -2.5 59.5t-5 57.5t-9.5 68.5t-11 65.5t-15 76.5t-15.5 75t-18.5 87t-19 87.5l170 45q45 -184 64 -295h450v336h170v-371q0 -72 14 -117t46.5 -68.5t72 -31.5t103.5 -8zM1065 -150q47 0 79 -32.5t32 -77.5
q0 -46 -32 -79.5t-79 -33.5q-49 0 -81 33t-32 80q0 45 32 77.5t81 32.5z" />
    <glyph glyph-name="uniFE92FB8B.liga" unicode="&#xfe92;&#xfb8b;" horiz-adv-x="1433" 
d="M420 1178q-41 0 -69.5 29t-28.5 69q0 42 27.5 71t70.5 29t70.5 -29t27.5 -71q0 -40 -28.5 -69t-69.5 -29zM293 944q-42 0 -70 29t-28 69q0 42 28 70.5t70 28.5q43 0 70.5 -28.5t27.5 -70.5t-27 -70t-71 -28zM446 1042q0 42 27.5 70.5t71.5 28.5q43 0 70.5 -28.5
t27.5 -70.5q0 -41 -27.5 -69.5t-70.5 -28.5q-44 0 -71.5 28t-27.5 70zM1434 221l34 -6l-10 -209l-35 -6q-165 0 -258.5 61.5t-115.5 204.5h-443q4 -62 4 -86q0 -124 -39 -235t-110.5 -195t-180 -133t-239.5 -49q-108 0 -176 22l18 207q63 -8 140 -8q105 0 188 33.5t131 88
t73 117t25 126.5q0 28 -2.5 59.5t-5 57.5t-9.5 68.5t-11 65.5t-15 76.5t-15.5 75t-18.5 87t-19 87.5l170 45q45 -184 64 -295h450v336h170v-371q0 -72 14 -117t46.5 -68.5t72 -31.5t103.5 -8zM1065 -150q47 0 79 -32.5t32 -77.5q0 -46 -32 -79.5t-79 -33.5q-49 0 -81 33
t-32 80q0 45 32 77.5t81 32.5z" />
    <glyph glyph-name="uniFC6D.liga" unicode="&#xfe92;&#xfee6;" horiz-adv-x="2125" 
d="M676 836q-49 0 -81 32.5t-32 77.5q0 47 32 80t81 33q47 0 78.5 -33.5t31.5 -79.5q0 -45 -31.5 -77.5t-78.5 -32.5zM2126 221l35 -6l-11 -209l-34 -6q-179 0 -275 72.5t-108 242.5h-408v-28q0 -282 -174.5 -445.5t-476.5 -163.5q-290 0 -453.5 150.5t-163.5 404.5
q0 240 109 472l149 -56q-35 -77 -60.5 -183t-25.5 -190q0 -187 120.5 -281.5t338.5 -94.5q216 0 340.5 93t124.5 261q0 106 -23.5 228t-70.5 300l172 47q53 -178 72 -299h417v320h170v-404q0 -72 14 -117t46.5 -68.5t72 -31.5t103.5 -8zM1653 -150q47 0 78.5 -32.5
t31.5 -77.5q0 -46 -31.5 -79.5t-78.5 -33.5q-49 0 -81 33t-32 80q0 45 32 77.5t81 32.5z" />
    <glyph glyph-name="uniFC6E.liga" unicode="&#xfe92;&#xfef0;" horiz-adv-x="1892" 
d="M745 -492q-324 0 -506 164.5t-182 442.5q0 254 117 516l152 -53q-43 -100 -70 -217.5t-27 -202.5q0 -213 141.5 -320.5t401.5 -107.5q133 0 246.5 23t181 57.5t105.5 70t38 64.5q0 39 -38 58t-134 40l-163 37q-267 57 -267 307q0 191 138.5 320t347.5 129q74 0 135 -23
t108 -68t82.5 -97.5t69.5 -123.5l59 -123q26 -55 43 -83t41 -53.5t54 -34.5t73 -9l35 -6l-10 -209l-35 -6q-133 0 -206 66t-156 243l-43 92q-50 105 -117.5 160t-173.5 55q-111 0 -200 -63.5t-89 -142.5q0 -95 170 -134l137 -26q155 -33 227 -93.5t72 -189.5
q0 -65 -29.5 -129t-92 -123.5t-150 -105.5t-213.5 -73.5t-273 -27.5zM1462 -752q-49 0 -80.5 33t-31.5 80q0 45 32 78t80 33q47 0 79 -33t32 -78q0 -46 -32 -79.5t-79 -33.5z" />
    <glyph glyph-name="uniFC09.liga" unicode="&#xfe91;&#xfef0;" 
d="M1434 23q0 -76 -28.5 -149.5t-89 -140t-145 -116.5t-206 -79.5t-263.5 -29.5q-304 0 -474.5 160.5t-170.5 429.5q0 249 117 512l150 -55q-43 -97 -68 -212.5t-25 -203.5q0 -202 129.5 -305.5t366.5 -103.5q133 0 240.5 26t171 67t96.5 86t33 89q0 60 -44.5 90.5
t-154.5 30.5h-238v217h250q47 63 47 199q0 158 -90 413l170 58q92 -242 92 -449q0 -144 -55 -252q89 -31 139 -104.5t50 -177.5zM1257 -506q47 0 79 -32.5t32 -77.5q0 -46 -32 -79.5t-79 -33.5q-49 0 -80.5 33t-31.5 80q0 45 32 77.5t80 32.5z" />
    <glyph glyph-name="uniFC6F.liga" unicode="&#xfe92;&#xfef2;" horiz-adv-x="1892" 
d="M745 -492q-324 0 -506 164.5t-182 442.5q0 254 117 516l152 -53q-43 -100 -70 -217.5t-27 -202.5q0 -213 141.5 -320.5t401.5 -107.5q133 0 246.5 23t181 57.5t105.5 70t38 64.5q0 39 -38 58t-134 40l-163 37q-267 57 -267 307q0 191 138.5 320t347.5 129q74 0 135 -23
t108 -68t82.5 -97.5t69.5 -123.5l59 -123q26 -55 43 -83t41 -53.5t54 -34.5t73 -9l35 -6l-10 -209l-35 -6q-133 0 -206 66t-156 243l-43 92q-50 105 -117.5 160t-173.5 55q-111 0 -200 -63.5t-89 -142.5q0 -95 170 -134l137 -26q155 -33 227 -93.5t72 -189.5
q0 -65 -29.5 -129t-92 -123.5t-150 -105.5t-213.5 -73.5t-273 -27.5zM1462 -752q-49 0 -80.5 33t-31.5 80q0 45 32 78t80 33q47 0 79 -33t32 -78q0 -46 -32 -79.5t-79 -33.5zM653 -846q-41 0 -71.5 30t-30.5 73q0 41 30.5 71.5t71.5 30.5q43 0 73 -30.5t30 -71.5
q0 -43 -29.5 -73t-73.5 -30zM922 -846q-44 0 -73.5 30t-29.5 73q0 42 29.5 72t73.5 30q41 0 71.5 -30.5t30.5 -71.5q0 -43 -30 -73t-72 -30z" />
    <glyph glyph-name="uniFC0A.liga" unicode="&#xfe91;&#xfef2;" 
d="M1434 23q0 -76 -28.5 -149.5t-89 -140t-145 -116.5t-206 -79.5t-263.5 -29.5q-304 0 -474.5 160.5t-170.5 429.5q0 249 117 512l150 -55q-43 -97 -68 -212.5t-25 -203.5q0 -202 129.5 -305.5t366.5 -103.5q133 0 240.5 26t171 67t96.5 86t33 89q0 60 -44.5 90.5
t-154.5 30.5h-238v217h250q47 63 47 199q0 158 -90 413l170 58q92 -242 92 -449q0 -144 -55 -252q89 -31 139 -104.5t50 -177.5zM1257 -506q47 0 79 -32.5t32 -77.5q0 -46 -32 -79.5t-79 -33.5q-49 0 -80.5 33t-31.5 80q0 45 32 77.5t80 32.5zM602 -641q42 0 72.5 -30.5
t30.5 -71.5q0 -43 -29.5 -73t-73.5 -30q-42 0 -72 30t-30 73q0 41 30.5 71.5t71.5 30.5zM870 -641q41 0 72 -30.5t31 -71.5q0 -42 -30.5 -72.5t-72.5 -30.5q-44 0 -73 30t-29 73q0 42 29 72t73 30z" />
    <glyph glyph-name="uniFE92FE8A.liga" unicode="&#xfe92;&#xfe8a;" horiz-adv-x="1892" 
d="M293 866h147v-118h-379v112h62q-27 30 -27 84q0 71 48 123.5t130 52.5q49 0 89.5 -24t58.5 -58l-53 -86q-1 1 -9 6.5t-11 7.5t-11 7t-14 7t-14 5.5t-16.5 4.5t-17.5 1q-37 0 -64.5 -18.5t-27.5 -46.5q0 -26 29 -43t80 -17zM1892 221l35 -6l-10 -209l-35 -6
q-133 0 -206 66t-156 243l-43 92q-50 105 -117.5 160t-173.5 55q-111 0 -200 -63.5t-89 -142.5q0 -95 170 -134l137 -26q155 -33 227 -93.5t72 -189.5q0 -65 -29.5 -129t-92 -123.5t-150 -105.5t-213.5 -73.5t-273 -27.5q-324 0 -506 164.5t-182 442.5q0 254 117 516
l152 -53q-43 -100 -70 -217.5t-27 -202.5q0 -213 141.5 -320.5t401.5 -107.5q133 0 246.5 23t181 57.5t105.5 70t38 64.5q0 39 -38 58t-134 40l-163 37q-267 57 -267 307q0 191 138.5 320t347.5 129q74 0 135 -23t108 -68t82.5 -97.5t69.5 -123.5l59 -123q26 -55 43 -83
t41 -53.5t54 -34.5t73 -9zM1462 -528q47 0 79 -33t32 -78q0 -46 -32 -79.5t-79 -33.5q-49 0 -80.5 33t-31.5 80q0 45 32 78t80 33z" />
    <glyph glyph-name="uniFE91FE8A.liga" unicode="&#xfe91;&#xfe8a;" 
d="M287 829h147v-118h-379v112h62q-27 30 -27 84q0 71 48 123.5t130 52.5q49 0 89.5 -24t58.5 -58l-54 -86l-10 7q-10 8 -13.5 10t-13.5 7.5t-17 8t-17.5 4.5t-20.5 2q-37 0 -64.5 -18.5t-27.5 -46.5q0 -26 29 -43t80 -17zM1434 23q0 -76 -28.5 -149.5t-89 -140t-145 -116.5
t-206 -79.5t-263.5 -29.5q-304 0 -474.5 160.5t-170.5 429.5q0 249 117 512l150 -55q-43 -97 -68 -212.5t-25 -203.5q0 -202 129.5 -305.5t366.5 -103.5q133 0 240.5 26t171 67t96.5 86t33 89q0 60 -44.5 90.5t-154.5 30.5h-238v217h250q47 63 47 199q0 158 -90 413l170 58
q92 -242 92 -449q0 -144 -55 -252q89 -31 139 -104.5t50 -177.5zM1257 -506q47 0 79 -32.5t32 -77.5q0 -46 -32 -79.5t-79 -33.5q-49 0 -80.5 33t-31.5 80q0 45 32 77.5t80 32.5z" />
    <glyph glyph-name="uniFB58FB59.rlig" unicode="&#xfb58;&#xfb59;" horiz-adv-x="1175" 
d="M1065 434q0 -208 -116.5 -321t-311.5 -113q-127 0 -214 50t-118 151q-28 -94 -111.5 -147.5t-201.5 -53.5l-35 6l8 209l35 6q59 0 98 8t74 30t51.5 67.5t16.5 115.5v289h172v-268q0 -138 57.5 -190t183.5 -52q242 0 242 193q0 129 -57 397l166 43q61 -250 61 -420z
M291 -248q0 -42 -27.5 -71t-70.5 -29t-71 29t-28 71q0 41 28 69.5t71 28.5t70.5 -28.5t27.5 -69.5zM444 -150q43 0 70 -28.5t27 -69.5q0 -42 -27 -71t-70 -29q-44 0 -72 29t-28 71t28 70t72 28zM844 -248q0 -42 -28 -71t-71 -29q-42 0 -70 29t-28 71q0 40 28 69t70 29
q43 0 71 -28.5t28 -69.5zM997 -150q43 0 71 -28.5t28 -69.5q0 -42 -28 -71t-71 -29t-70.5 29t-27.5 71t27 70t71 28zM319 -385q40 0 68.5 -28.5t28.5 -69.5t-27.5 -70t-69.5 -29q-43 0 -71.5 29t-28.5 70t28.5 69.5t71.5 28.5zM872 -385q41 0 70 -28.5t29 -69.5t-28 -70
t-71 -29t-70.5 29t-27.5 70t28.5 69.5t69.5 28.5z" />
    <glyph glyph-name="uniFB59FEAE.liga" unicode="&#xfb59;&#xfeae;" horiz-adv-x="1433" 
d="M1434 221l34 -6l-10 -209l-35 -6q-165 0 -258.5 61.5t-115.5 204.5h-443q4 -62 4 -86q0 -124 -39 -235t-110.5 -195t-180 -133t-239.5 -49q-108 0 -176 22l18 207q63 -8 140 -8q105 0 188 33.5t131 88t73 117t25 126.5q0 28 -2.5 59.5t-5 57.5t-9.5 68.5t-11 65.5
t-15 76.5t-15.5 75t-18.5 87t-19 87.5l170 45q45 -184 64 -295h450v336h170v-371q0 -72 14 -117t46.5 -68.5t72 -31.5t103.5 -8zM1038 -248q0 -42 -27.5 -71t-70.5 -29q-42 0 -70 29t-28 71q0 40 28 69t70 29q43 0 70.5 -28.5t27.5 -69.5zM1192 -150q43 0 70.5 -28.5
t27.5 -69.5q0 -42 -27.5 -71t-70.5 -29t-70.5 29t-27.5 71t27 70t71 28zM1067 -385q41 0 69.5 -28.5t28.5 -69.5t-27.5 -70t-70.5 -29t-70.5 29t-27.5 70t28.5 69.5t69.5 28.5z" />
    <glyph glyph-name="uniFB59FEB0.liga" unicode="&#xfb59;&#xfeb0;" horiz-adv-x="1433" 
d="M418 940q-48 0 -80.5 33t-32.5 78q0 47 32 79.5t81 32.5q47 0 78.5 -33t31.5 -79q0 -45 -32 -78t-78 -33zM1434 221l34 -6l-10 -209l-35 -6q-165 0 -258.5 61.5t-115.5 204.5h-443q4 -62 4 -86q0 -124 -39 -235t-110.5 -195t-180 -133t-239.5 -49q-108 0 -176 22l18 207
q63 -8 140 -8q105 0 188 33.5t131 88t73 117t25 126.5q0 28 -2.5 59.5t-5 57.5t-9.5 68.5t-11 65.5t-15 76.5t-15.5 75t-18.5 87t-19 87.5l170 45q45 -184 64 -295h450v336h170v-371q0 -72 14 -117t46.5 -68.5t72 -31.5t103.5 -8zM1038 -248q0 -42 -27.5 -71t-70.5 -29
q-42 0 -70 29t-28 71q0 40 28 69t70 29q43 0 70.5 -28.5t27.5 -69.5zM1192 -150q43 0 70.5 -28.5t27.5 -69.5q0 -42 -27.5 -71t-70.5 -29t-70.5 29t-27.5 71t27 70t71 28zM1067 -385q41 0 69.5 -28.5t28.5 -69.5t-27.5 -70t-70.5 -29t-70.5 29t-27.5 70t28.5 69.5t69.5 28.5
z" />
    <glyph glyph-name="uniFB59FB8B.liga" unicode="&#xfb59;&#xfb8b;" horiz-adv-x="1433" 
d="M420 1178q-41 0 -69.5 29t-28.5 69q0 42 27.5 71t70.5 29t70.5 -29t27.5 -71q0 -40 -28.5 -69t-69.5 -29zM293 944q-42 0 -70 29t-28 69q0 42 28 70.5t70 28.5q43 0 70.5 -28.5t27.5 -70.5t-27 -70t-71 -28zM446 1042q0 42 27.5 70.5t71.5 28.5q43 0 70.5 -28.5
t27.5 -70.5q0 -41 -27.5 -69.5t-70.5 -28.5q-44 0 -71.5 28t-27.5 70zM1434 221l34 -6l-10 -209l-35 -6q-165 0 -258.5 61.5t-115.5 204.5h-443q4 -62 4 -86q0 -124 -39 -235t-110.5 -195t-180 -133t-239.5 -49q-108 0 -176 22l18 207q63 -8 140 -8q105 0 188 33.5t131 88
t73 117t25 126.5q0 28 -2.5 59.5t-5 57.5t-9.5 68.5t-11 65.5t-15 76.5t-15.5 75t-18.5 87t-19 87.5l170 45q45 -184 64 -295h450v336h170v-371q0 -72 14 -117t46.5 -68.5t72 -31.5t103.5 -8zM1038 -248q0 -42 -27.5 -71t-70.5 -29q-42 0 -70 29t-28 71q0 40 28 69t70 29
q43 0 70.5 -28.5t27.5 -69.5zM1192 -150q43 0 70.5 -28.5t27.5 -69.5q0 -42 -27.5 -71t-70.5 -29t-70.5 29t-27.5 71t27 70t71 28zM1067 -385q41 0 69.5 -28.5t28.5 -69.5t-27.5 -70t-70.5 -29t-70.5 29t-27.5 70t28.5 69.5t69.5 28.5z" />
    <glyph glyph-name="uniFB59FEE6.liga" unicode="&#xfb59;&#xfee6;" horiz-adv-x="2125" 
d="M676 836q-49 0 -81 32.5t-32 77.5q0 47 32 80t81 33q47 0 78.5 -33.5t31.5 -79.5q0 -45 -31.5 -77.5t-78.5 -32.5zM2126 221l35 -6l-11 -209l-34 -6q-179 0 -275 72.5t-108 242.5h-408v-28q0 -282 -174.5 -445.5t-476.5 -163.5q-290 0 -453.5 150.5t-163.5 404.5
q0 240 109 472l149 -56q-35 -77 -60.5 -183t-25.5 -190q0 -187 120.5 -281.5t338.5 -94.5q216 0 340.5 93t124.5 261q0 106 -23.5 228t-70.5 300l172 47q53 -178 72 -299h417v320h170v-404q0 -72 14 -117t46.5 -68.5t72 -31.5t103.5 -8zM1624 -248q0 -42 -27.5 -71
t-70.5 -29q-42 0 -70.5 29t-28.5 71q0 40 28.5 69t70.5 29q43 0 70.5 -28.5t27.5 -69.5zM1778 -150q43 0 70.5 -28.5t27.5 -69.5q0 -42 -27.5 -71t-70.5 -29t-71 29t-28 71t27.5 70t71.5 28zM1653 -385q41 0 69.5 -28.5t28.5 -69.5t-27.5 -70t-70.5 -29t-71 29t-28 70
t29 69.5t70 28.5z" />
    <glyph glyph-name="uniFB59FEF0.liga" unicode="&#xfb59;&#xfef0;" horiz-adv-x="1892" 
d="M745 -492q-324 0 -506 164.5t-182 442.5q0 254 117 516l152 -53q-43 -100 -70 -217.5t-27 -202.5q0 -213 141.5 -320.5t401.5 -107.5q133 0 246.5 23t181 57.5t105.5 70t38 64.5q0 39 -38 58t-134 40l-163 37q-267 57 -267 307q0 191 138.5 320t347.5 129q74 0 135 -23
t108 -68t82.5 -97.5t69.5 -123.5l59 -123q26 -55 43 -83t41 -53.5t54 -34.5t73 -9l35 -6l-10 -209l-35 -6q-133 0 -206 66t-156 243l-43 92q-50 105 -117.5 160t-173.5 55q-111 0 -200 -63.5t-89 -142.5q0 -95 170 -134l137 -26q155 -33 227 -93.5t72 -189.5
q0 -65 -29.5 -129t-92 -123.5t-150 -105.5t-213.5 -73.5t-273 -27.5zM1335 -727q-42 0 -70 29t-28 71q0 41 28 70t70 29q43 0 71 -29t28 -70q0 -42 -28 -71t-71 -29zM1587 -727q-43 0 -70.5 29t-27.5 71t27.5 70.5t70.5 28.5t71 -29t28 -70q0 -42 -28 -71t-71 -29z
M1462 -961q-43 0 -70.5 29t-27.5 70t28.5 69.5t69.5 28.5t70 -28.5t29 -69.5t-28 -70t-71 -29z" />
    <glyph glyph-name="uniFB58FEF0.liga" unicode="&#xfb58;&#xfef0;" 
d="M1434 23q0 -76 -28.5 -149.5t-89 -140t-145 -116.5t-206 -79.5t-263.5 -29.5q-304 0 -474.5 160.5t-170.5 429.5q0 249 117 512l150 -55q-43 -97 -68 -212.5t-25 -203.5q0 -202 129.5 -305.5t366.5 -103.5q133 0 240.5 26t171 67t96.5 86t33 89q0 60 -44.5 90.5
t-154.5 30.5h-238v217h250q47 63 47 199q0 158 -90 413l170 58q92 -242 92 -449q0 -144 -55 -252q89 -31 139 -104.5t50 -177.5zM1231 -604q0 -42 -27.5 -71.5t-70.5 -29.5q-42 0 -70.5 29.5t-28.5 71.5q0 40 28.5 69t70.5 29q43 0 70.5 -28.5t27.5 -69.5zM1384 -506
q43 0 71 -28.5t28 -69.5q0 -42 -28 -71.5t-71 -29.5t-70.5 29.5t-27.5 71.5t27 70t71 28zM1260 -741q41 0 69.5 -29t28.5 -70t-27.5 -69.5t-70.5 -28.5t-71 28.5t-28 69.5t29 70t70 29z" />
    <glyph glyph-name="uniFB59FEF2.liga" unicode="&#xfb59;&#xfef2;" horiz-adv-x="1892" 
d="M745 -492q-324 0 -506 164.5t-182 442.5q0 254 117 516l152 -53q-43 -100 -70 -217.5t-27 -202.5q0 -213 141.5 -320.5t401.5 -107.5q133 0 246.5 23t181 57.5t105.5 70t38 64.5q0 39 -38 58t-134 40l-163 37q-267 57 -267 307q0 191 138.5 320t347.5 129q74 0 135 -23
t108 -68t82.5 -97.5t69.5 -123.5l59 -123q26 -55 43 -83t41 -53.5t54 -34.5t73 -9l35 -6l-10 -209l-35 -6q-133 0 -206 66t-156 243l-43 92q-50 105 -117.5 160t-173.5 55q-111 0 -200 -63.5t-89 -142.5q0 -95 170 -134l137 -26q155 -33 227 -93.5t72 -189.5
q0 -65 -29.5 -129t-92 -123.5t-150 -105.5t-213.5 -73.5t-273 -27.5zM1335 -727q-42 0 -70 29t-28 71q0 41 28 70t70 29q43 0 71 -29t28 -70q0 -42 -28 -71t-71 -29zM1587 -727q-43 0 -70.5 29t-27.5 71t27.5 70.5t70.5 28.5t71 -29t28 -70q0 -42 -28 -71t-71 -29zM653 -846
q-41 0 -71.5 30t-30.5 73q0 41 30.5 71.5t71.5 30.5q43 0 73 -30.5t30 -71.5q0 -43 -29.5 -73t-73.5 -30zM922 -846q-44 0 -73.5 30t-29.5 73q0 42 29.5 72t73.5 30q41 0 71.5 -30.5t30.5 -71.5q0 -43 -30 -73t-72 -30zM1462 -961q-43 0 -70.5 29t-27.5 70t28.5 69.5
t69.5 28.5t70 -28.5t29 -69.5t-28 -70t-71 -29z" />
    <glyph glyph-name="uniFB58FEF4.rlig" unicode="&#xfb58;&#xfef4;" horiz-adv-x="1175" 
d="M1065 434q0 -208 -116.5 -321t-311.5 -113q-127 0 -214 50t-118 151q-28 -94 -111.5 -147.5t-201.5 -53.5l-35 6l8 209l35 6q59 0 98 8t74 30t51.5 67.5t16.5 115.5v289h172v-268q0 -138 57.5 -190t183.5 -52q242 0 242 193q0 129 -57 397l166 43q61 -250 61 -420z
M184 -150q42 0 72.5 -30t30.5 -72q0 -43 -29.5 -72.5t-73.5 -29.5q-42 0 -72 30t-30 72q0 41 30.5 71.5t71.5 30.5zM453 -150q41 0 71.5 -30.5t30.5 -71.5q0 -42 -30 -72t-72 -30q-44 0 -73.5 29.5t-29.5 72.5q0 42 29.5 72t73.5 30zM844 -248q0 -42 -28 -71t-71 -29
q-42 0 -70 29t-28 71q0 40 28 69t70 29q43 0 71 -28.5t28 -69.5zM997 -150q43 0 71 -28.5t28 -69.5q0 -42 -28 -71t-71 -29t-70.5 29t-27.5 71t27 70t71 28zM872 -385q41 0 70 -28.5t29 -69.5t-28 -70t-71 -29t-70.5 29t-27.5 70t28.5 69.5t69.5 28.5z" />
    <glyph glyph-name="uniFB58FEF2.liga" unicode="&#xfb58;&#xfef2;" 
d="M1434 23q0 -76 -28.5 -149.5t-89 -140t-145 -116.5t-206 -79.5t-263.5 -29.5q-304 0 -474.5 160.5t-170.5 429.5q0 249 117 512l150 -55q-43 -97 -68 -212.5t-25 -203.5q0 -202 129.5 -305.5t366.5 -103.5q133 0 240.5 26t171 67t96.5 86t33 89q0 60 -44.5 90.5
t-154.5 30.5h-238v217h250q47 63 47 199q0 158 -90 413l170 58q92 -242 92 -449q0 -144 -55 -252q89 -31 139 -104.5t50 -177.5zM1231 -604q0 -42 -27.5 -71.5t-70.5 -29.5q-42 0 -70.5 29.5t-28.5 71.5q0 40 28.5 69t70.5 29q43 0 70.5 -28.5t27.5 -69.5zM1384 -506
q43 0 71 -28.5t28 -69.5q0 -42 -28 -71.5t-71 -29.5t-70.5 29.5t-27.5 71.5t27 70t71 28zM602 -641q42 0 72.5 -30.5t30.5 -71.5q0 -43 -29.5 -73t-73.5 -30q-42 0 -72 30t-30 73q0 41 30.5 71.5t71.5 30.5zM870 -641q41 0 72 -30.5t31 -71.5q0 -42 -30.5 -72.5t-72.5 -30.5
q-44 0 -73 30t-29 73q0 42 29 72t73 30zM1260 -741q41 0 69.5 -29t28.5 -70t-27.5 -69.5t-70.5 -28.5t-71 28.5t-28 69.5t29 70t70 29z" />
    <glyph glyph-name="uniFB59FE8A.liga" unicode="&#xfb59;&#xfe8a;" horiz-adv-x="1892" 
d="M293 866h147v-118h-379v112h62q-27 30 -27 84q0 71 48 123.5t130 52.5q49 0 89.5 -24t58.5 -58l-53 -86q-1 1 -9 6.5t-11 7.5t-11 7t-14 7t-14 5.5t-16.5 4.5t-17.5 1q-37 0 -64.5 -18.5t-27.5 -46.5q0 -26 29 -43t80 -17zM1892 221l35 -6l-10 -209l-35 -6
q-133 0 -206 66t-156 243l-43 92q-50 105 -117.5 160t-173.5 55q-111 0 -200 -63.5t-89 -142.5q0 -95 170 -134l137 -26q155 -33 227 -93.5t72 -189.5q0 -65 -29.5 -129t-92 -123.5t-150 -105.5t-213.5 -73.5t-273 -27.5q-324 0 -506 164.5t-182 442.5q0 254 117 516
l152 -53q-43 -100 -70 -217.5t-27 -202.5q0 -213 141.5 -320.5t401.5 -107.5q133 0 246.5 23t181 57.5t105.5 70t38 64.5q0 39 -38 58t-134 40l-163 37q-267 57 -267 307q0 191 138.5 320t347.5 129q74 0 135 -23t108 -68t82.5 -97.5t69.5 -123.5l59 -123q26 -55 43 -83
t41 -53.5t54 -34.5t73 -9zM1434 -627q0 -42 -28 -71t-71 -29q-42 0 -70 29t-28 71q0 41 28 70t70 29q43 0 71 -29t28 -70zM1587 -528q43 0 71 -29t28 -70q0 -42 -28 -71t-71 -29t-70.5 29t-27.5 71t27.5 70.5t70.5 28.5zM1462 -764q41 0 70 -28.5t29 -69.5t-28 -70t-71 -29
t-70.5 29t-27.5 70t28.5 69.5t69.5 28.5z" />
    <glyph glyph-name="uniFB58FE8A.liga" unicode="&#xfb58;&#xfe8a;" 
d="M287 829h147v-118h-379v112h62q-27 30 -27 84q0 71 48 123.5t130 52.5q49 0 89.5 -24t58.5 -58l-54 -86l-10 7q-10 8 -13.5 10t-13.5 7.5t-17 8t-17.5 4.5t-20.5 2q-37 0 -64.5 -18.5t-27.5 -46.5q0 -26 29 -43t80 -17zM1434 23q0 -76 -28.5 -149.5t-89 -140t-145 -116.5
t-206 -79.5t-263.5 -29.5q-304 0 -474.5 160.5t-170.5 429.5q0 249 117 512l150 -55q-43 -97 -68 -212.5t-25 -203.5q0 -202 129.5 -305.5t366.5 -103.5q133 0 240.5 26t171 67t96.5 86t33 89q0 60 -44.5 90.5t-154.5 30.5h-238v217h250q47 63 47 199q0 158 -90 413l170 58
q92 -242 92 -449q0 -144 -55 -252q89 -31 139 -104.5t50 -177.5zM1231 -604q0 -42 -27.5 -71.5t-70.5 -29.5q-42 0 -70.5 29.5t-28.5 71.5q0 40 28.5 69t70.5 29q43 0 70.5 -28.5t27.5 -69.5zM1384 -506q43 0 71 -28.5t28 -69.5q0 -42 -28 -71.5t-71 -29.5t-70.5 29.5
t-27.5 71.5t27 70t71 28zM1260 -741q41 0 69.5 -29t28.5 -70t-27.5 -69.5t-70.5 -28.5t-71 28.5t-28 69.5t29 70t70 29z" />
    <glyph glyph-name="uniFC70.liga" unicode="&#xfe98;&#xfeae;" horiz-adv-x="1433" 
d="M977 991q-42 0 -72.5 30.5t-30.5 72.5q0 41 31 71.5t72 30.5q42 0 72 -30t30 -72q0 -43 -29 -73t-73 -30zM1245 991q-44 0 -73 30t-29 73q0 42 29 72t73 30q41 0 72 -30.5t31 -71.5q0 -42 -30.5 -72.5t-72.5 -30.5zM1434 221l34 -6l-10 -209l-35 -6q-165 0 -258.5 61.5
t-115.5 204.5h-443q4 -62 4 -86q0 -124 -39 -235t-110.5 -195t-180 -133t-239.5 -49q-108 0 -176 22l18 207q63 -8 140 -8q105 0 188 33.5t131 88t73 117t25 126.5q0 28 -2.5 59.5t-5 57.5t-9.5 68.5t-11 65.5t-15 76.5t-15.5 75t-18.5 87t-19 87.5l170 45q45 -184 64 -295
h450v336h170v-371q0 -72 14 -117t46.5 -68.5t72 -31.5t103.5 -8z" />
    <glyph glyph-name="uniFC71.liga" unicode="&#xfe98;&#xfeb0;" horiz-adv-x="1433" 
d="M977 991q-42 0 -72.5 30.5t-30.5 72.5q0 41 31 71.5t72 30.5q42 0 72 -30t30 -72q0 -43 -29 -73t-73 -30zM1245 991q-44 0 -73 30t-29 73q0 42 29 72t73 30q41 0 72 -30.5t31 -71.5q0 -42 -30.5 -72.5t-72.5 -30.5zM418 940q-48 0 -80.5 33t-32.5 78q0 47 32 79.5
t81 32.5q47 0 78.5 -33t31.5 -79q0 -45 -32 -78t-78 -33zM1434 221l34 -6l-10 -209l-35 -6q-165 0 -258.5 61.5t-115.5 204.5h-443q4 -62 4 -86q0 -124 -39 -235t-110.5 -195t-180 -133t-239.5 -49q-108 0 -176 22l18 207q63 -8 140 -8q105 0 188 33.5t131 88t73 117
t25 126.5q0 28 -2.5 59.5t-5 57.5t-9.5 68.5t-11 65.5t-15 76.5t-15.5 75t-18.5 87t-19 87.5l170 45q45 -184 64 -295h450v336h170v-371q0 -72 14 -117t46.5 -68.5t72 -31.5t103.5 -8z" />
    <glyph glyph-name="uniFE98FB8B.liga" unicode="&#xfe98;&#xfb8b;" horiz-adv-x="1433" 
d="M420 1178q-41 0 -69.5 29t-28.5 69q0 42 27.5 71t70.5 29t70.5 -29t27.5 -71q0 -40 -28.5 -69t-69.5 -29zM977 991q-42 0 -72.5 30.5t-30.5 72.5q0 41 31 71.5t72 30.5q42 0 72 -30t30 -72q0 -43 -29 -73t-73 -30zM1245 991q-44 0 -73 30t-29 73q0 42 29 72t73 30
q41 0 72 -30.5t31 -71.5q0 -42 -30.5 -72.5t-72.5 -30.5zM293 944q-42 0 -70 29t-28 69q0 42 28 70.5t70 28.5q43 0 70.5 -28.5t27.5 -70.5t-27 -70t-71 -28zM446 1042q0 42 27.5 70.5t71.5 28.5q43 0 70.5 -28.5t27.5 -70.5q0 -41 -27.5 -69.5t-70.5 -28.5q-44 0 -71.5 28
t-27.5 70zM1434 221l34 -6l-10 -209l-35 -6q-165 0 -258.5 61.5t-115.5 204.5h-443q4 -62 4 -86q0 -124 -39 -235t-110.5 -195t-180 -133t-239.5 -49q-108 0 -176 22l18 207q63 -8 140 -8q105 0 188 33.5t131 88t73 117t25 126.5q0 28 -2.5 59.5t-5 57.5t-9.5 68.5t-11 65.5
t-15 76.5t-15.5 75t-18.5 87t-19 87.5l170 45q45 -184 64 -295h450v336h170v-371q0 -72 14 -117t46.5 -68.5t72 -31.5t103.5 -8z" />
    <glyph glyph-name="uniFC73.liga" unicode="&#xfe98;&#xfee6;" horiz-adv-x="2125" 
d="M1669 1024q-42 0 -72 30t-30 72q0 41 30.5 72t71.5 31q42 0 72.5 -30.5t30.5 -72.5q0 -43 -29.5 -72.5t-73.5 -29.5zM1937 1024q-44 0 -73 29.5t-29 72.5q0 42 29.5 72.5t72.5 30.5q41 0 72 -31t31 -72q0 -42 -30.5 -72t-72.5 -30zM676 836q-49 0 -81 32.5t-32 77.5
q0 47 32 80t81 33q47 0 78.5 -33.5t31.5 -79.5q0 -45 -31.5 -77.5t-78.5 -32.5zM2126 221l35 -6l-11 -209l-34 -6q-179 0 -275 72.5t-108 242.5h-408v-28q0 -282 -174.5 -445.5t-476.5 -163.5q-290 0 -453.5 150.5t-163.5 404.5q0 240 109 472l149 -56q-35 -77 -60.5 -183
t-25.5 -190q0 -187 120.5 -281.5t338.5 -94.5q216 0 340.5 93t124.5 261q0 106 -23.5 228t-70.5 300l172 47q53 -178 72 -299h417v320h170v-404q0 -72 14 -117t46.5 -68.5t72 -31.5t103.5 -8z" />
    <glyph glyph-name="uniFC74.liga" unicode="&#xfe98;&#xfef0;" horiz-adv-x="1892" 
d="M989 1112q0 41 31 71.5t72 30.5q42 0 72 -30t30 -72q0 -43 -29 -72.5t-73 -29.5q-42 0 -72.5 30t-30.5 72zM1257 1112q0 42 29.5 72t73.5 30q41 0 71.5 -30.5t30.5 -71.5q0 -42 -30 -72t-72 -30q-44 0 -73.5 29.5t-29.5 72.5zM745 -492q-324 0 -506 164.5t-182 442.5
q0 254 117 516l152 -53q-43 -100 -70 -217.5t-27 -202.5q0 -213 141.5 -320.5t401.5 -107.5q133 0 246.5 23t181 57.5t105.5 70t38 64.5q0 39 -38 58t-134 40l-163 37q-267 57 -267 307q0 191 138.5 320t347.5 129q74 0 135 -23t108 -68t82.5 -97.5t69.5 -123.5l59 -123
q26 -55 43 -83t41 -53.5t54 -34.5t73 -9l35 -6l-10 -209l-35 -6q-133 0 -206 66t-156 243l-43 92q-50 105 -117.5 160t-173.5 55q-111 0 -200 -63.5t-89 -142.5q0 -95 170 -134l137 -26q155 -33 227 -93.5t72 -189.5q0 -65 -29.5 -129t-92 -123.5t-150 -105.5t-213.5 -73.5
t-273 -27.5z" />
    <glyph glyph-name="uniFC0F.liga" unicode="&#xfe97;&#xfef0;" 
d="M985 1147q-42 0 -72 30t-30 72q0 41 30.5 72t71.5 31q42 0 72 -30.5t30 -72.5q0 -43 -29 -72.5t-73 -29.5zM1253 1147q-44 0 -73 29.5t-29 72.5q0 42 29.5 72.5t72.5 30.5q41 0 72 -31t31 -72q0 -42 -30.5 -72t-72.5 -30zM1245 305q89 -31 139 -104.5t50 -177.5
q0 -76 -28.5 -149.5t-89 -140t-145 -116.5t-206 -79.5t-263.5 -29.5q-304 0 -474.5 160.5t-170.5 429.5q0 249 117 512l150 -55q-43 -97 -68 -212.5t-25 -203.5q0 -202 129.5 -305.5t366.5 -103.5q133 0 240.5 26t171 67t96.5 86t33 89q0 60 -44.5 90.5t-154.5 30.5h-238
v217h250q47 63 47 199q0 158 -90 413l170 58q92 -242 92 -449q0 -144 -55 -252z" />
    <glyph glyph-name="uniFC75.liga" unicode="&#xfe98;&#xfef2;" horiz-adv-x="1892" 
d="M989 1112q0 41 31 71.5t72 30.5q42 0 72 -30t30 -72q0 -43 -29 -72.5t-73 -29.5q-42 0 -72.5 30t-30.5 72zM1257 1112q0 42 29.5 72t73.5 30q41 0 71.5 -30.5t30.5 -71.5q0 -42 -30 -72t-72 -30q-44 0 -73.5 29.5t-29.5 72.5zM745 -492q-324 0 -506 164.5t-182 442.5
q0 254 117 516l152 -53q-43 -100 -70 -217.5t-27 -202.5q0 -213 141.5 -320.5t401.5 -107.5q133 0 246.5 23t181 57.5t105.5 70t38 64.5q0 39 -38 58t-134 40l-163 37q-267 57 -267 307q0 191 138.5 320t347.5 129q74 0 135 -23t108 -68t82.5 -97.5t69.5 -123.5l59 -123
q26 -55 43 -83t41 -53.5t54 -34.5t73 -9l35 -6l-10 -209l-35 -6q-133 0 -206 66t-156 243l-43 92q-50 105 -117.5 160t-173.5 55q-111 0 -200 -63.5t-89 -142.5q0 -95 170 -134l137 -26q155 -33 227 -93.5t72 -189.5q0 -65 -29.5 -129t-92 -123.5t-150 -105.5t-213.5 -73.5
t-273 -27.5zM653 -846q-41 0 -71.5 30t-30.5 73q0 41 30.5 71.5t71.5 30.5q43 0 73 -30.5t30 -71.5q0 -43 -29.5 -73t-73.5 -30zM922 -846q-44 0 -73.5 30t-29.5 73q0 42 29.5 72t73.5 30q41 0 71.5 -30.5t30.5 -71.5q0 -43 -30 -73t-72 -30z" />
    <glyph glyph-name="uniFC10.liga" unicode="&#xfe97;&#xfef2;" 
d="M985 1147q-42 0 -72 30t-30 72q0 41 30.5 72t71.5 31q42 0 72 -30.5t30 -72.5q0 -43 -29 -72.5t-73 -29.5zM1253 1147q-44 0 -73 29.5t-29 72.5q0 42 29.5 72.5t72.5 30.5q41 0 72 -31t31 -72q0 -42 -30.5 -72t-72.5 -30zM1245 305q89 -31 139 -104.5t50 -177.5
q0 -76 -28.5 -149.5t-89 -140t-145 -116.5t-206 -79.5t-263.5 -29.5q-304 0 -474.5 160.5t-170.5 429.5q0 249 117 512l150 -55q-43 -97 -68 -212.5t-25 -203.5q0 -202 129.5 -305.5t366.5 -103.5q133 0 240.5 26t171 67t96.5 86t33 89q0 60 -44.5 90.5t-154.5 30.5h-238
v217h250q47 63 47 199q0 158 -90 413l170 58q92 -242 92 -449q0 -144 -55 -252zM602 -641q42 0 72.5 -30.5t30.5 -71.5q0 -43 -29.5 -73t-73.5 -30q-42 0 -72 30t-30 73q0 41 30.5 71.5t71.5 30.5zM870 -641q41 0 72 -30.5t31 -71.5q0 -42 -30.5 -72.5t-72.5 -30.5
q-44 0 -73 30t-29 73q0 42 29 72t73 30z" />
    <glyph glyph-name="uniFE98FE8A.liga" unicode="&#xfe98;&#xfe8a;" horiz-adv-x="1892" 
d="M1092 1010q-42 0 -72.5 30t-30.5 72q0 41 31 71.5t72 30.5q42 0 72 -30t30 -72q0 -43 -29 -72.5t-73 -29.5zM1360 1010q-44 0 -73.5 29.5t-29.5 72.5q0 42 29.5 72t73.5 30q41 0 71.5 -30.5t30.5 -71.5q0 -42 -30 -72t-72 -30zM293 866h147v-118h-379v112h62
q-27 30 -27 84q0 71 48 123.5t130 52.5q49 0 89.5 -24t58.5 -58l-53 -86q-1 1 -9 6.5t-11 7.5t-11 7t-14 7t-14 5.5t-16.5 4.5t-17.5 1q-37 0 -64.5 -18.5t-27.5 -46.5q0 -26 29 -43t80 -17zM1892 221l35 -6l-10 -209l-35 -6q-133 0 -206 66t-156 243l-43 92
q-50 105 -117.5 160t-173.5 55q-111 0 -200 -63.5t-89 -142.5q0 -95 170 -134l137 -26q155 -33 227 -93.5t72 -189.5q0 -65 -29.5 -129t-92 -123.5t-150 -105.5t-213.5 -73.5t-273 -27.5q-324 0 -506 164.5t-182 442.5q0 254 117 516l152 -53q-43 -100 -70 -217.5
t-27 -202.5q0 -213 141.5 -320.5t401.5 -107.5q133 0 246.5 23t181 57.5t105.5 70t38 64.5q0 39 -38 58t-134 40l-163 37q-267 57 -267 307q0 191 138.5 320t347.5 129q74 0 135 -23t108 -68t82.5 -97.5t69.5 -123.5l59 -123q26 -55 43 -83t41 -53.5t54 -34.5t73 -9z" />
    <glyph glyph-name="uniFE97FE8A.liga" unicode="&#xfe97;&#xfe8a;" 
d="M985 1147q-42 0 -72 30t-30 72q0 41 30.5 72t71.5 31q42 0 72 -30.5t30 -72.5q0 -43 -29 -72.5t-73 -29.5zM1253 1147q-44 0 -73 29.5t-29 72.5q0 42 29.5 72.5t72.5 30.5q41 0 72 -31t31 -72q0 -42 -30.5 -72t-72.5 -30zM287 829h147v-118h-379v112h62q-27 30 -27 84
q0 71 48 123.5t130 52.5q49 0 89.5 -24t58.5 -58l-54 -86l-10 7q-10 8 -13.5 10t-13.5 7.5t-17 8t-17.5 4.5t-20.5 2q-37 0 -64.5 -18.5t-27.5 -46.5q0 -26 29 -43t80 -17zM1245 305q89 -31 139 -104.5t50 -177.5q0 -76 -28.5 -149.5t-89 -140t-145 -116.5t-206 -79.5
t-263.5 -29.5q-304 0 -474.5 160.5t-170.5 429.5q0 249 117 512l150 -55q-43 -97 -68 -212.5t-25 -203.5q0 -202 129.5 -305.5t366.5 -103.5q133 0 240.5 26t171 67t96.5 86t33 89q0 60 -44.5 90.5t-154.5 30.5h-238v217h250q47 63 47 199q0 158 -90 413l170 58
q92 -242 92 -449q0 -144 -55 -252z" />
    <glyph glyph-name="uniFC76.liga" unicode="&#xfe9c;&#xfeae;" horiz-adv-x="1433" 
d="M1114 1231q-41 0 -69.5 29t-28.5 69q0 42 27.5 71.5t70.5 29.5t70.5 -29.5t27.5 -71.5q0 -40 -28.5 -69t-69.5 -29zM987 997q-42 0 -70 29t-28 70q0 42 28 70t70 28q44 0 71 -28t27 -70t-27.5 -70.5t-70.5 -28.5zM1141 1096q0 42 27 70t71 28t71 -28t27 -70
q0 -41 -27.5 -70t-70.5 -29t-70.5 28.5t-27.5 70.5zM1434 221l34 -6l-10 -209l-35 -6q-165 0 -258.5 61.5t-115.5 204.5h-443q4 -62 4 -86q0 -124 -39 -235t-110.5 -195t-180 -133t-239.5 -49q-108 0 -176 22l18 207q63 -8 140 -8q105 0 188 33.5t131 88t73 117t25 126.5
q0 28 -2.5 59.5t-5 57.5t-9.5 68.5t-11 65.5t-15 76.5t-15.5 75t-18.5 87t-19 87.5l170 45q45 -184 64 -295h450v336h170v-371q0 -72 14 -117t46.5 -68.5t72 -31.5t103.5 -8z" />
    <glyph glyph-name="uniFC77.liga" unicode="&#xfe9c;&#xfeb0;" horiz-adv-x="1433" 
d="M1114 1231q-41 0 -69.5 29t-28.5 69q0 42 27.5 71.5t70.5 29.5t70.5 -29.5t27.5 -71.5q0 -40 -28.5 -69t-69.5 -29zM987 997q-42 0 -70 29t-28 70q0 42 28 70t70 28q44 0 71 -28t27 -70t-27.5 -70.5t-70.5 -28.5zM1141 1096q0 42 27 70t71 28t71 -28t27 -70
q0 -41 -27.5 -70t-70.5 -29t-70.5 28.5t-27.5 70.5zM418 940q-48 0 -80.5 33t-32.5 78q0 47 32 79.5t81 32.5q47 0 78.5 -33t31.5 -79q0 -45 -32 -78t-78 -33zM1434 221l34 -6l-10 -209l-35 -6q-165 0 -258.5 61.5t-115.5 204.5h-443q4 -62 4 -86q0 -124 -39 -235
t-110.5 -195t-180 -133t-239.5 -49q-108 0 -176 22l18 207q63 -8 140 -8q105 0 188 33.5t131 88t73 117t25 126.5q0 28 -2.5 59.5t-5 57.5t-9.5 68.5t-11 65.5t-15 76.5t-15.5 75t-18.5 87t-19 87.5l170 45q45 -184 64 -295h450v336h170v-371q0 -72 14 -117t46.5 -68.5
t72 -31.5t103.5 -8z" />
    <glyph glyph-name="uniFE9CFB8B.liga" unicode="&#xfe9c;&#xfb8b;" horiz-adv-x="1433" 
d="M1114 1231q-41 0 -69.5 29t-28.5 69q0 42 27.5 71.5t70.5 29.5t70.5 -29.5t27.5 -71.5q0 -40 -28.5 -69t-69.5 -29zM420 1178q-41 0 -69.5 29t-28.5 69q0 42 27.5 71t70.5 29t70.5 -29t27.5 -71q0 -40 -28.5 -69t-69.5 -29zM987 997q-42 0 -70 29t-28 70q0 42 28 70
t70 28q44 0 71 -28t27 -70t-27.5 -70.5t-70.5 -28.5zM1141 1096q0 42 27 70t71 28t71 -28t27 -70q0 -41 -27.5 -70t-70.5 -29t-70.5 28.5t-27.5 70.5zM293 944q-42 0 -70 29t-28 69q0 42 28 70.5t70 28.5q43 0 70.5 -28.5t27.5 -70.5t-27 -70t-71 -28zM446 1042
q0 42 27.5 70.5t71.5 28.5q43 0 70.5 -28.5t27.5 -70.5q0 -41 -27.5 -69.5t-70.5 -28.5q-44 0 -71.5 28t-27.5 70zM1434 221l34 -6l-10 -209l-35 -6q-165 0 -258.5 61.5t-115.5 204.5h-443q4 -62 4 -86q0 -124 -39 -235t-110.5 -195t-180 -133t-239.5 -49q-108 0 -176 22
l18 207q63 -8 140 -8q105 0 188 33.5t131 88t73 117t25 126.5q0 28 -2.5 59.5t-5 57.5t-9.5 68.5t-11 65.5t-15 76.5t-15.5 75t-18.5 87t-19 87.5l170 45q45 -184 64 -295h450v336h170v-371q0 -72 14 -117t46.5 -68.5t72 -31.5t103.5 -8z" />
    <glyph glyph-name="uniFC79.liga" unicode="&#xfe9c;&#xfee6;" horiz-adv-x="2125" 
d="M1808 1264q-41 0 -69.5 29t-28.5 69q0 42 27.5 71t70.5 29t71 -29t28 -71q0 -40 -29 -69t-70 -29zM1681 1030q-42 0 -70 29t-28 69q0 42 28 70.5t70 28.5q44 0 71.5 -28.5t27.5 -70.5t-27.5 -70t-71.5 -28zM1835 1128q0 42 27.5 70.5t70.5 28.5q44 0 71.5 -28.5
t27.5 -70.5q0 -41 -28 -69.5t-71 -28.5q-44 0 -71 28t-27 70zM676 836q-49 0 -81 32.5t-32 77.5q0 47 32 80t81 33q47 0 78.5 -33.5t31.5 -79.5q0 -45 -31.5 -77.5t-78.5 -32.5zM2126 221l35 -6l-11 -209l-34 -6q-179 0 -275 72.5t-108 242.5h-408v-28q0 -282 -174.5 -445.5
t-476.5 -163.5q-290 0 -453.5 150.5t-163.5 404.5q0 240 109 472l149 -56q-35 -77 -60.5 -183t-25.5 -190q0 -187 120.5 -281.5t338.5 -94.5q216 0 340.5 93t124.5 261q0 106 -23.5 228t-70.5 300l172 47q53 -178 72 -299h417v320h170v-404q0 -72 14 -117t46.5 -68.5
t72 -31.5t103.5 -8z" />
    <glyph glyph-name="uniFC7A.liga" unicode="&#xfe9c;&#xfef0;" horiz-adv-x="1892" 
d="M1229 1249q-41 0 -70 29.5t-29 69.5q0 42 28 71t71 29t70.5 -29t27.5 -71q0 -40 -28.5 -69.5t-69.5 -29.5zM1102 1016q-42 0 -70 29t-28 69q0 42 28 70t70 28q44 0 71 -28t27 -70t-27 -70t-71 -28zM1354 1016q-44 0 -71.5 28t-27.5 70t27.5 70t71.5 28t71 -28t27 -70
q0 -41 -27.5 -69.5t-70.5 -28.5zM745 -492q-324 0 -506 164.5t-182 442.5q0 254 117 516l152 -53q-43 -100 -70 -217.5t-27 -202.5q0 -213 141.5 -320.5t401.5 -107.5q133 0 246.5 23t181 57.5t105.5 70t38 64.5q0 39 -38 58t-134 40l-163 37q-267 57 -267 307
q0 191 138.5 320t347.5 129q74 0 135 -23t108 -68t82.5 -97.5t69.5 -123.5l59 -123q26 -55 43 -83t41 -53.5t54 -34.5t73 -9l35 -6l-10 -209l-35 -6q-133 0 -206 66t-156 243l-43 92q-50 105 -117.5 160t-173.5 55q-111 0 -200 -63.5t-89 -142.5q0 -95 170 -134l137 -26
q155 -33 227 -93.5t72 -189.5q0 -65 -29.5 -129t-92 -123.5t-150 -105.5t-213.5 -73.5t-273 -27.5z" />
    <glyph glyph-name="uniFC13.liga" unicode="&#xfe9b;&#xfef0;" 
d="M1122 1386q-41 0 -69.5 29.5t-28.5 69.5q0 42 27.5 71t70.5 29t71 -29t28 -71q0 -40 -29 -69.5t-70 -29.5zM995 1153q-42 0 -70 29t-28 69q0 42 28 70.5t70 28.5q44 0 71.5 -28.5t27.5 -70.5t-27.5 -70t-71.5 -28zM1149 1251q0 42 27.5 70.5t70.5 28.5q44 0 71.5 -28.5
t27.5 -70.5q0 -41 -28 -69.5t-71 -28.5q-44 0 -71 28t-27 70zM1245 305q89 -31 139 -104.5t50 -177.5q0 -76 -28.5 -149.5t-89 -140t-145 -116.5t-206 -79.5t-263.5 -29.5q-304 0 -474.5 160.5t-170.5 429.5q0 249 117 512l150 -55q-43 -97 -68 -212.5t-25 -203.5
q0 -202 129.5 -305.5t366.5 -103.5q133 0 240.5 26t171 67t96.5 86t33 89q0 60 -44.5 90.5t-154.5 30.5h-238v217h250q47 63 47 199q0 158 -90 413l170 58q92 -242 92 -449q0 -144 -55 -252z" />
    <glyph glyph-name="uniFC7B.liga" unicode="&#xfe9c;&#xfef2;" horiz-adv-x="1892" 
d="M1229 1249q-41 0 -70 29.5t-29 69.5q0 42 28 71t71 29t70.5 -29t27.5 -71q0 -40 -28.5 -69.5t-69.5 -29.5zM1102 1016q-42 0 -70 29t-28 69q0 42 28 70t70 28q44 0 71 -28t27 -70t-27 -70t-71 -28zM1354 1016q-44 0 -71.5 28t-27.5 70t27.5 70t71.5 28t71 -28t27 -70
q0 -41 -27.5 -69.5t-70.5 -28.5zM745 -492q-324 0 -506 164.5t-182 442.5q0 254 117 516l152 -53q-43 -100 -70 -217.5t-27 -202.5q0 -213 141.5 -320.5t401.5 -107.5q133 0 246.5 23t181 57.5t105.5 70t38 64.5q0 39 -38 58t-134 40l-163 37q-267 57 -267 307
q0 191 138.5 320t347.5 129q74 0 135 -23t108 -68t82.5 -97.5t69.5 -123.5l59 -123q26 -55 43 -83t41 -53.5t54 -34.5t73 -9l35 -6l-10 -209l-35 -6q-133 0 -206 66t-156 243l-43 92q-50 105 -117.5 160t-173.5 55q-111 0 -200 -63.5t-89 -142.5q0 -95 170 -134l137 -26
q155 -33 227 -93.5t72 -189.5q0 -65 -29.5 -129t-92 -123.5t-150 -105.5t-213.5 -73.5t-273 -27.5zM653 -846q-41 0 -71.5 30t-30.5 73q0 41 30.5 71.5t71.5 30.5q43 0 73 -30.5t30 -71.5q0 -43 -29.5 -73t-73.5 -30zM922 -846q-44 0 -73.5 30t-29.5 73q0 42 29.5 72
t73.5 30q41 0 71.5 -30.5t30.5 -71.5q0 -43 -30 -73t-72 -30z" />
    <glyph glyph-name="uniFC14.liga" unicode="&#xfe9b;&#xfef2;" 
d="M1122 1386q-41 0 -69.5 29.5t-28.5 69.5q0 42 27.5 71t70.5 29t71 -29t28 -71q0 -40 -29 -69.5t-70 -29.5zM995 1153q-42 0 -70 29t-28 69q0 42 28 70.5t70 28.5q44 0 71.5 -28.5t27.5 -70.5t-27.5 -70t-71.5 -28zM1149 1251q0 42 27.5 70.5t70.5 28.5q44 0 71.5 -28.5
t27.5 -70.5q0 -41 -28 -69.5t-71 -28.5q-44 0 -71 28t-27 70zM1245 305q89 -31 139 -104.5t50 -177.5q0 -76 -28.5 -149.5t-89 -140t-145 -116.5t-206 -79.5t-263.5 -29.5q-304 0 -474.5 160.5t-170.5 429.5q0 249 117 512l150 -55q-43 -97 -68 -212.5t-25 -203.5
q0 -202 129.5 -305.5t366.5 -103.5q133 0 240.5 26t171 67t96.5 86t33 89q0 60 -44.5 90.5t-154.5 30.5h-238v217h250q47 63 47 199q0 158 -90 413l170 58q92 -242 92 -449q0 -144 -55 -252zM602 -641q42 0 72.5 -30.5t30.5 -71.5q0 -43 -29.5 -73t-73.5 -30q-42 0 -72 30
t-30 73q0 41 30.5 71.5t71.5 30.5zM870 -641q41 0 72 -30.5t31 -71.5q0 -42 -30.5 -72.5t-72.5 -30.5q-44 0 -73 30t-29 73q0 42 29 72t73 30z" />
    <glyph glyph-name="uniFE9CFE8A.liga" unicode="&#xfe9c;&#xfe8a;" horiz-adv-x="1892" 
d="M1229 1249q-41 0 -70 29.5t-29 69.5q0 42 28 71t71 29t70.5 -29t27.5 -71q0 -40 -28.5 -69.5t-69.5 -29.5zM1102 1016q-42 0 -70 29t-28 69q0 42 28 70t70 28q44 0 71 -28t27 -70t-27 -70t-71 -28zM1255 1114q0 42 27.5 70t71.5 28t71 -28t27 -70q0 -41 -27.5 -69.5
t-70.5 -28.5q-44 0 -71.5 28t-27.5 70zM293 866h147v-118h-379v112h62q-27 30 -27 84q0 71 48 123.5t130 52.5q49 0 89.5 -24t58.5 -58l-53 -86q-1 1 -9 6.5t-11 7.5t-11 7t-14 7t-14 5.5t-16.5 4.5t-17.5 1q-37 0 -64.5 -18.5t-27.5 -46.5q0 -26 29 -43t80 -17zM1892 221
l35 -6l-10 -209l-35 -6q-133 0 -206 66t-156 243l-43 92q-50 105 -117.5 160t-173.5 55q-111 0 -200 -63.5t-89 -142.5q0 -95 170 -134l137 -26q155 -33 227 -93.5t72 -189.5q0 -65 -29.5 -129t-92 -123.5t-150 -105.5t-213.5 -73.5t-273 -27.5q-324 0 -506 164.5
t-182 442.5q0 254 117 516l152 -53q-43 -100 -70 -217.5t-27 -202.5q0 -213 141.5 -320.5t401.5 -107.5q133 0 246.5 23t181 57.5t105.5 70t38 64.5q0 39 -38 58t-134 40l-163 37q-267 57 -267 307q0 191 138.5 320t347.5 129q74 0 135 -23t108 -68t82.5 -97.5t69.5 -123.5
l59 -123q26 -55 43 -83t41 -53.5t54 -34.5t73 -9z" />
    <glyph glyph-name="uniFE9BFE8A.liga" unicode="&#xfe9b;&#xfe8a;" 
d="M1122 1386q-41 0 -69.5 29.5t-28.5 69.5q0 42 27.5 71t70.5 29t71 -29t28 -71q0 -40 -29 -69.5t-70 -29.5zM995 1153q-42 0 -70 29t-28 69q0 42 28 70.5t70 28.5q44 0 71.5 -28.5t27.5 -70.5t-27.5 -70t-71.5 -28zM1149 1251q0 42 27.5 70.5t70.5 28.5q44 0 71.5 -28.5
t27.5 -70.5q0 -41 -28 -69.5t-71 -28.5q-44 0 -71 28t-27 70zM287 829h147v-118h-379v112h62q-27 30 -27 84q0 71 48 123.5t130 52.5q49 0 89.5 -24t58.5 -58l-54 -86l-10 7q-10 8 -13.5 10t-13.5 7.5t-17 8t-17.5 4.5t-20.5 2q-37 0 -64.5 -18.5t-27.5 -46.5q0 -26 29 -43
t80 -17zM1245 305q89 -31 139 -104.5t50 -177.5q0 -76 -28.5 -149.5t-89 -140t-145 -116.5t-206 -79.5t-263.5 -29.5q-304 0 -474.5 160.5t-170.5 429.5q0 249 117 512l150 -55q-43 -97 -68 -212.5t-25 -203.5q0 -202 129.5 -305.5t366.5 -103.5q133 0 240.5 26t171 67
t96.5 86t33 89q0 60 -44.5 90.5t-154.5 30.5h-238v217h250q47 63 47 199q0 158 -90 413l170 58q92 -242 92 -449q0 -144 -55 -252z" />
    <glyph glyph-name="uniFD2A.liga" unicode="&#xfeb4;&#xfeae;" horiz-adv-x="2582" 
d="M2583 221l34 -6l-10 -209l-35 -6q-298 0 -360 182q-28 -90 -102 -136t-175 -46q-234 0 -290 178q-32 -89 -109 -133.5t-190 -44.5q-132 0 -217.5 53t-110.5 162h-408v-35q0 -124 -39 -235t-110.5 -195t-180 -133t-239.5 -49q-108 0 -176 22l18 207q63 -8 140 -8
q105 0 188 33.5t131 88t73 117t25 126.5q0 53 -14 129t-28 129t-48 176l170 45q44 -150 55 -199h422v189h170v-224q0 -103 54 -140.5t157 -37.5q63 0 105.5 13.5t71 56t28.5 115.5v217h172v-217q0 -107 50 -146t149 -39q93 0 144.5 40t51.5 145v217h172v-217
q0 -105 58.5 -145t202.5 -40z" />
    <glyph glyph-name="uniFD0E.liga" unicode="&#xfeb3;&#xfeae;" horiz-adv-x="2410" 
d="M2073 700l165 56q72 -210 72 -367q0 -184 -98 -286.5t-268 -102.5q-242 0 -299 188q-31 -93 -110 -140.5t-189 -47.5q-279 0 -328 215h-408v-35q0 -124 -39 -235t-110.5 -195t-180 -133t-239.5 -49q-108 0 -176 22l18 207q63 -8 140 -8q105 0 188 33.5t131 88t73 117
t25 126.5q0 53 -14 129t-28 129t-48 176l170 45q44 -150 55 -199h422v189h170v-224q0 -103 54 -140.5t157 -37.5q98 0 151.5 42.5t53.5 156.5v203h172v-203q0 -115 50 -157t149 -42q89 0 136.5 43t47.5 115q0 85 -65 321z" />
    <glyph glyph-name="uniFD17.liga" unicode="&#xfeb4;&#xfef0;" horiz-adv-x="3106" 
d="M3107 221l35 -6l-9 -209l-34 -6q-299 0 -361 182q-30 -90 -103 -136t-175 -46q-233 0 -289 176q-33 -87 -107.5 -131.5t-177.5 -44.5q-92 0 -156.5 34.5t-110.5 100t-103 187.5l-37 79q-48 105 -116.5 160t-174.5 55q-113 0 -201 -64t-88 -146q0 -91 170 -130l135 -26
q157 -33 229 -93.5t72 -189.5q0 -65 -29.5 -129t-92 -123.5t-150 -105.5t-214 -73.5t-274.5 -27.5q-324 0 -506 164.5t-182 442.5q0 254 117 516l152 -53q-43 -100 -70 -217.5t-27 -202.5q0 -213 141.5 -320.5t401.5 -107.5q107 0 203 15.5t162 39.5t114.5 53t71.5 57t23 50
q0 39 -38 58t-134 40l-164 37q-73 15 -125.5 46.5t-81 74t-41 87t-12.5 95.5q0 193 137 323t342 130q73 0 134 -23t108.5 -68.5t82.5 -97t70 -123.5l62 -123q26 -54 43.5 -83.5t42.5 -54t56 -33.5t77 -9q97 0 149.5 39.5t52.5 145.5v217h172v-217q0 -106 51 -145.5
t150 -39.5q93 0 145 40t52 145v217h172v-217q0 -105 57.5 -145t200.5 -40z" />
    <glyph glyph-name="uniFCFB.liga" unicode="&#xfeb3;&#xfef0;" horiz-adv-x="2938" 
d="M2601 700l166 56q72 -210 72 -367q0 -184 -98.5 -286.5t-268.5 -102.5q-242 0 -299 188q-31 -93 -107 -140.5t-180 -47.5q-92 0 -156.5 34.5t-110.5 100t-103 187.5l-37 79q-48 105 -116.5 160t-174.5 55q-113 0 -201 -64t-88 -146q0 -91 170 -130l135 -26
q157 -33 229 -93.5t72 -189.5q0 -65 -29.5 -129t-92 -123.5t-150 -105.5t-214 -73.5t-274.5 -27.5q-324 0 -506 164.5t-182 442.5q0 254 117 516l152 -53q-43 -100 -70 -217.5t-27 -202.5q0 -213 141.5 -320.5t401.5 -107.5q107 0 203 15.5t162 39.5t114.5 53t71.5 57t23 50
q0 39 -38 58t-134 40l-164 37q-73 15 -125.5 46.5t-81 74t-41 87t-12.5 95.5q0 193 137 323t342 130q73 0 134 -23t108.5 -68.5t82.5 -97t70 -123.5l62 -123q26 -54 43.5 -83.5t42.5 -54t56 -33.5t77 -9q99 0 152.5 39t53.5 143v220h173v-220q0 -105 49.5 -143.5
t148.5 -38.5q89 0 136.5 43t47.5 115q0 85 -65 321z" />
    <glyph glyph-name="uniFD18.liga" unicode="&#xfeb4;&#xfef2;" horiz-adv-x="3106" 
d="M3107 221l35 -6l-9 -209l-34 -6q-299 0 -361 182q-30 -90 -103 -136t-175 -46q-233 0 -289 176q-33 -87 -107.5 -131.5t-177.5 -44.5q-92 0 -156.5 34.5t-110.5 100t-103 187.5l-37 79q-48 105 -116.5 160t-174.5 55q-113 0 -201 -64t-88 -146q0 -91 170 -130l135 -26
q157 -33 229 -93.5t72 -189.5q0 -65 -29.5 -129t-92 -123.5t-150 -105.5t-214 -73.5t-274.5 -27.5q-324 0 -506 164.5t-182 442.5q0 254 117 516l152 -53q-43 -100 -70 -217.5t-27 -202.5q0 -213 141.5 -320.5t401.5 -107.5q107 0 203 15.5t162 39.5t114.5 53t71.5 57t23 50
q0 39 -38 58t-134 40l-164 37q-73 15 -125.5 46.5t-81 74t-41 87t-12.5 95.5q0 193 137 323t342 130q73 0 134 -23t108.5 -68.5t82.5 -97t70 -123.5l62 -123q26 -54 43.5 -83.5t42.5 -54t56 -33.5t77 -9q97 0 149.5 39.5t52.5 145.5v217h172v-217q0 -106 51 -145.5
t150 -39.5q93 0 145 40t52 145v217h172v-217q0 -105 57.5 -145t200.5 -40zM651 -641q43 0 73 -30.5t30 -71.5q0 -43 -29.5 -73t-73.5 -30q-41 0 -71.5 30t-30.5 73q0 41 30.5 71.5t71.5 30.5zM920 -641q41 0 71.5 -30.5t30.5 -71.5q0 -43 -30 -73t-72 -30q-44 0 -73.5 30
t-29.5 73q0 42 29.5 72t73.5 30z" />
    <glyph glyph-name="uniFCFC.liga" unicode="&#xfeb3;&#xfef2;" horiz-adv-x="2938" 
d="M2601 700l166 56q72 -210 72 -367q0 -184 -98.5 -286.5t-268.5 -102.5q-242 0 -299 188q-31 -93 -107 -140.5t-180 -47.5q-92 0 -156.5 34.5t-110.5 100t-103 187.5l-37 79q-48 105 -116.5 160t-174.5 55q-113 0 -201 -64t-88 -146q0 -91 170 -130l135 -26
q157 -33 229 -93.5t72 -189.5q0 -65 -29.5 -129t-92 -123.5t-150 -105.5t-214 -73.5t-274.5 -27.5q-324 0 -506 164.5t-182 442.5q0 254 117 516l152 -53q-43 -100 -70 -217.5t-27 -202.5q0 -213 141.5 -320.5t401.5 -107.5q107 0 203 15.5t162 39.5t114.5 53t71.5 57t23 50
q0 39 -38 58t-134 40l-164 37q-73 15 -125.5 46.5t-81 74t-41 87t-12.5 95.5q0 193 137 323t342 130q73 0 134 -23t108.5 -68.5t82.5 -97t70 -123.5l62 -123q26 -54 43.5 -83.5t42.5 -54t56 -33.5t77 -9q99 0 152.5 39t53.5 143v220h173v-220q0 -105 49.5 -143.5
t148.5 -38.5q89 0 136.5 43t47.5 115q0 85 -65 321zM653 -641q43 0 73 -30.5t30 -71.5q0 -43 -29.5 -73t-73.5 -30q-41 0 -71.5 30t-30.5 73q0 41 30.5 71.5t71.5 30.5zM922 -641q41 0 71.5 -30.5t30.5 -71.5q0 -43 -30 -73t-72 -30q-44 0 -73.5 30t-29.5 73q0 42 29.5 72
t73.5 30z" />
    <glyph glyph-name="uniFEB4FEB0.liga" unicode="&#xfeb4;&#xfeb0;" horiz-adv-x="2582" 
d="M418 795q-49 0 -81 32.5t-32 77.5q0 47 32 80t81 33q47 0 78.5 -33.5t31.5 -79.5q0 -45 -31.5 -77.5t-78.5 -32.5zM2583 221l34 -6l-10 -209l-35 -6q-298 0 -360 182q-28 -90 -102 -136t-175 -46q-234 0 -290 178q-32 -89 -109 -133.5t-190 -44.5q-132 0 -217.5 53
t-110.5 162h-408v-35q0 -124 -39 -235t-110.5 -195t-180 -133t-239.5 -49q-108 0 -176 22l18 207q63 -8 140 -8q105 0 188 33.5t131 88t73 117t25 126.5q0 53 -14 129t-28 129t-48 176l170 45q44 -150 55 -199h422v189h170v-224q0 -103 54 -140.5t157 -37.5q63 0 105.5 13.5
t71 56t28.5 115.5v217h172v-217q0 -107 50 -146t149 -39q93 0 144.5 40t51.5 145v217h172v-217q0 -105 58.5 -145t202.5 -40z" />
    <glyph glyph-name="uniFEB3FEB0.liga" unicode="&#xfeb3;&#xfeb0;" horiz-adv-x="2410" 
d="M416 795q-49 0 -81 32.5t-32 77.5q0 47 32 80t81 33q47 0 78.5 -33.5t31.5 -79.5q0 -45 -31.5 -77.5t-78.5 -32.5zM2073 700l165 56q72 -210 72 -367q0 -184 -98 -286.5t-268 -102.5q-242 0 -299 188q-31 -93 -110 -140.5t-189 -47.5q-279 0 -328 215h-408v-35
q0 -124 -39 -235t-110.5 -195t-180 -133t-239.5 -49q-108 0 -176 22l18 207q63 -8 140 -8q105 0 188 33.5t131 88t73 117t25 126.5q0 53 -14 129t-28 129t-48 176l170 45q44 -150 55 -199h422v189h170v-224q0 -103 54 -140.5t157 -37.5q98 0 151.5 42.5t53.5 156.5v203h172
v-203q0 -115 50 -157t149 -42q89 0 136.5 43t47.5 115q0 85 -65 321z" />
    <glyph glyph-name="uniFEB4FB8B.liga" unicode="&#xfeb4;&#xfb8b;" horiz-adv-x="2582" 
d="M420 1032q-41 0 -69.5 29t-28.5 69q0 42 27.5 71.5t70.5 29.5t70.5 -29.5t27.5 -71.5q0 -40 -28.5 -69t-69.5 -29zM293 799q-42 0 -70 29t-28 69q0 42 28 70t70 28q44 0 71 -28t27 -70t-27 -70t-71 -28zM446 897q0 42 27.5 70t71.5 28t71 -28t27 -70q0 -41 -27.5 -69.5
t-70.5 -28.5q-44 0 -71.5 28t-27.5 70zM2583 221l34 -6l-10 -209l-35 -6q-298 0 -360 182q-28 -90 -102 -136t-175 -46q-234 0 -290 178q-32 -89 -109 -133.5t-190 -44.5q-132 0 -217.5 53t-110.5 162h-408v-35q0 -124 -39 -235t-110.5 -195t-180 -133t-239.5 -49
q-108 0 -176 22l18 207q63 -8 140 -8q105 0 188 33.5t131 88t73 117t25 126.5q0 53 -14 129t-28 129t-48 176l170 45q44 -150 55 -199h422v189h170v-224q0 -103 54 -140.5t157 -37.5q63 0 105.5 13.5t71 56t28.5 115.5v217h172v-217q0 -107 50 -146t149 -39q93 0 144.5 40
t51.5 145v217h172v-217q0 -105 58.5 -145t202.5 -40z" />
    <glyph glyph-name="uniFEB3FB8B.liga" unicode="&#xfeb3;&#xfb8b;" horiz-adv-x="2410" 
d="M418 1032q-41 0 -70 29t-29 69q0 42 28 71.5t71 29.5t70.5 -29.5t27.5 -71.5q0 -40 -28.5 -69t-69.5 -29zM291 799q-42 0 -70 29t-28 69q0 42 28 70t70 28q44 0 71 -28t27 -70t-27 -70t-71 -28zM444 897q0 42 27.5 70t71.5 28t71 -28t27 -70q0 -41 -27.5 -69.5
t-70.5 -28.5q-44 0 -71.5 28t-27.5 70zM2073 700l165 56q72 -210 72 -367q0 -184 -98 -286.5t-268 -102.5q-242 0 -299 188q-31 -93 -110 -140.5t-189 -47.5q-279 0 -328 215h-408v-35q0 -124 -39 -235t-110.5 -195t-180 -133t-239.5 -49q-108 0 -176 22l18 207
q63 -8 140 -8q105 0 188 33.5t131 88t73 117t25 126.5q0 53 -14 129t-28 129t-48 176l170 45q44 -150 55 -199h422v189h170v-224q0 -103 54 -140.5t157 -37.5q98 0 151.5 42.5t53.5 156.5v203h172v-203q0 -115 50 -157t149 -42q89 0 136.5 43t47.5 115q0 85 -65 321z" />
    <glyph glyph-name="uniFEB4FE8A.liga" unicode="&#xfeb4;&#xfe8a;" horiz-adv-x="3106" 
d="M285 850h147v-119h-379v113h62q-27 30 -27 84q0 71 48 123.5t130 52.5q49 0 89.5 -24t58.5 -58l-54 -86l-10 8q-10 7 -13.5 9t-13.5 7.5t-17 8t-17.5 4.5t-20.5 2q-37 0 -64.5 -19t-27.5 -47q0 -26 29 -42.5t80 -16.5zM3107 221l35 -6l-9 -209l-34 -6q-299 0 -361 182
q-30 -90 -103 -136t-175 -46q-233 0 -289 176q-33 -87 -107.5 -131.5t-177.5 -44.5q-92 0 -156.5 34.5t-110.5 100t-103 187.5l-37 79q-48 105 -116.5 160t-174.5 55q-113 0 -201 -64t-88 -146q0 -91 170 -130l135 -26q157 -33 229 -93.5t72 -189.5q0 -65 -29.5 -129
t-92 -123.5t-150 -105.5t-214 -73.5t-274.5 -27.5q-324 0 -506 164.5t-182 442.5q0 254 117 516l152 -53q-43 -100 -70 -217.5t-27 -202.5q0 -213 141.5 -320.5t401.5 -107.5q107 0 203 15.5t162 39.5t114.5 53t71.5 57t23 50q0 39 -38 58t-134 40l-164 37
q-73 15 -125.5 46.5t-81 74t-41 87t-12.5 95.5q0 193 137 323t342 130q73 0 134 -23t108.5 -68.5t82.5 -97t70 -123.5l62 -123q26 -54 43.5 -83.5t42.5 -54t56 -33.5t77 -9q97 0 149.5 39.5t52.5 145.5v217h172v-217q0 -106 51 -145.5t150 -39.5q93 0 145 40t52 145v217h172
v-217q0 -105 57.5 -145t200.5 -40z" />
    <glyph glyph-name="uniFEB3FE8A.liga" unicode="&#xfeb3;&#xfe8a;" horiz-adv-x="2938" 
d="M285 850h147v-119h-379v113h62q-27 30 -27 84q0 71 48 123.5t130 52.5q49 0 89.5 -24t58.5 -58l-54 -86l-10 8q-10 7 -13.5 9t-13.5 7.5t-17 8t-17.5 4.5t-20.5 2q-37 0 -64.5 -19t-27.5 -47q0 -26 29 -42.5t80 -16.5zM2601 700l166 56q72 -210 72 -367
q0 -184 -98.5 -286.5t-268.5 -102.5q-242 0 -299 188q-31 -93 -107 -140.5t-180 -47.5q-92 0 -156.5 34.5t-110.5 100t-103 187.5l-37 79q-48 105 -116.5 160t-174.5 55q-113 0 -201 -64t-88 -146q0 -91 170 -130l135 -26q157 -33 229 -93.5t72 -189.5q0 -65 -29.5 -129
t-92 -123.5t-150 -105.5t-214 -73.5t-274.5 -27.5q-324 0 -506 164.5t-182 442.5q0 254 117 516l152 -53q-43 -100 -70 -217.5t-27 -202.5q0 -213 141.5 -320.5t401.5 -107.5q107 0 203 15.5t162 39.5t114.5 53t71.5 57t23 50q0 39 -38 58t-134 40l-164 37
q-73 15 -125.5 46.5t-81 74t-41 87t-12.5 95.5q0 193 137 323t342 130q73 0 134 -23t108.5 -68.5t82.5 -97t70 -123.5l62 -123q26 -54 43.5 -83.5t42.5 -54t56 -33.5t77 -9q99 0 152.5 39t53.5 143v220h173v-220q0 -105 49.5 -143.5t148.5 -38.5q89 0 136.5 43t47.5 115
q0 85 -65 321z" />
    <glyph glyph-name="uniFD29.liga" unicode="&#xfeb8;&#xfeae;" horiz-adv-x="2582" 
d="M1669 1036q-41 0 -69.5 29.5t-28.5 69.5q0 42 27.5 71t70.5 29t70.5 -29t27.5 -71q0 -40 -28.5 -69.5t-69.5 -29.5zM1542 803q-42 0 -70 29t-28 69q0 42 28 70t70 28q44 0 71 -28t27 -70t-27 -70t-71 -28zM1696 901q0 42 27 70t71 28t71 -28t27 -70q0 -41 -27.5 -69.5
t-70.5 -28.5q-44 0 -71 28t-27 70zM2583 221l34 -6l-10 -209l-35 -6q-298 0 -360 182q-28 -90 -102 -136t-175 -46q-234 0 -290 178q-32 -89 -109 -133.5t-190 -44.5q-132 0 -217.5 53t-110.5 162h-408v-35q0 -124 -39 -235t-110.5 -195t-180 -133t-239.5 -49
q-108 0 -176 22l18 207q63 -8 140 -8q105 0 188 33.5t131 88t73 117t25 126.5q0 53 -14 129t-28 129t-48 176l170 45q44 -150 55 -199h422v189h170v-224q0 -103 54 -140.5t157 -37.5q63 0 105.5 13.5t71 56t28.5 115.5v217h172v-217q0 -107 50 -146t149 -39q93 0 144.5 40
t51.5 145v217h172v-217q0 -105 58.5 -145t202.5 -40z" />
    <glyph glyph-name="uniFD0D.liga" unicode="&#xfeb7;&#xfeae;" horiz-adv-x="2410" 
d="M1669 1036q-41 0 -69.5 29.5t-28.5 69.5q0 42 27.5 71t70.5 29t70.5 -29t27.5 -71q0 -40 -28.5 -69.5t-69.5 -29.5zM1542 803q-42 0 -70 29t-28 69q0 42 28 70t70 28q44 0 71 -28t27 -70t-27 -70t-71 -28zM1696 901q0 42 27 70t71 28t71 -28t27 -70q0 -41 -27.5 -69.5
t-70.5 -28.5q-44 0 -71 28t-27 70zM2073 700l165 56q72 -210 72 -367q0 -184 -98 -286.5t-268 -102.5q-242 0 -299 188q-31 -93 -110 -140.5t-189 -47.5q-279 0 -328 215h-408v-35q0 -124 -39 -235t-110.5 -195t-180 -133t-239.5 -49q-108 0 -176 22l18 207q63 -8 140 -8
q105 0 188 33.5t131 88t73 117t25 126.5q0 53 -14 129t-28 129t-48 176l170 45q44 -150 55 -199h422v189h170v-224q0 -103 54 -140.5t157 -37.5q98 0 151.5 42.5t53.5 156.5v203h172v-203q0 -115 50 -157t149 -42q89 0 136.5 43t47.5 115q0 85 -65 321z" />
    <glyph glyph-name="uniFEB8FEB0.liga" unicode="&#xfeb8;&#xfeb0;" horiz-adv-x="2582" 
d="M1669 1036q-41 0 -69.5 29.5t-28.5 69.5q0 42 27.5 71t70.5 29t70.5 -29t27.5 -71q0 -40 -28.5 -69.5t-69.5 -29.5zM418 795q-49 0 -81 32.5t-32 77.5q0 47 32 80t81 33q47 0 78.5 -33.5t31.5 -79.5q0 -45 -31.5 -77.5t-78.5 -32.5zM1542 803q-42 0 -70 29t-28 69
q0 42 28 70t70 28q44 0 71 -28t27 -70t-27 -70t-71 -28zM1696 901q0 42 27 70t71 28t71 -28t27 -70q0 -41 -27.5 -69.5t-70.5 -28.5q-44 0 -71 28t-27 70zM2583 221l34 -6l-10 -209l-35 -6q-298 0 -360 182q-28 -90 -102 -136t-175 -46q-234 0 -290 178q-32 -89 -109 -133.5
t-190 -44.5q-132 0 -217.5 53t-110.5 162h-408v-35q0 -124 -39 -235t-110.5 -195t-180 -133t-239.5 -49q-108 0 -176 22l18 207q63 -8 140 -8q105 0 188 33.5t131 88t73 117t25 126.5q0 53 -14 129t-28 129t-48 176l170 45q44 -150 55 -199h422v189h170v-224
q0 -103 54 -140.5t157 -37.5q63 0 105.5 13.5t71 56t28.5 115.5v217h172v-217q0 -107 50 -146t149 -39q93 0 144.5 40t51.5 145v217h172v-217q0 -105 58.5 -145t202.5 -40z" />
    <glyph glyph-name="uniFEB7FEB0.liga" unicode="&#xfeb7;&#xfeb0;" horiz-adv-x="2410" 
d="M1669 1036q-41 0 -69.5 29.5t-28.5 69.5q0 42 27.5 71t70.5 29t70.5 -29t27.5 -71q0 -40 -28.5 -69.5t-69.5 -29.5zM416 795q-49 0 -81 32.5t-32 77.5q0 47 32 80t81 33q47 0 78.5 -33.5t31.5 -79.5q0 -45 -31.5 -77.5t-78.5 -32.5zM1542 803q-42 0 -70 29t-28 69
q0 42 28 70t70 28q44 0 71 -28t27 -70t-27 -70t-71 -28zM1696 901q0 42 27 70t71 28t71 -28t27 -70q0 -41 -27.5 -69.5t-70.5 -28.5q-44 0 -71 28t-27 70zM2073 700l165 56q72 -210 72 -367q0 -184 -98 -286.5t-268 -102.5q-242 0 -299 188q-31 -93 -110 -140.5t-189 -47.5
q-279 0 -328 215h-408v-35q0 -124 -39 -235t-110.5 -195t-180 -133t-239.5 -49q-108 0 -176 22l18 207q63 -8 140 -8q105 0 188 33.5t131 88t73 117t25 126.5q0 53 -14 129t-28 129t-48 176l170 45q44 -150 55 -199h422v189h170v-224q0 -103 54 -140.5t157 -37.5
q98 0 151.5 42.5t53.5 156.5v203h172v-203q0 -115 50 -157t149 -42q89 0 136.5 43t47.5 115q0 85 -65 321z" />
    <glyph glyph-name="uniFEB8FB8B.liga" unicode="&#xfeb8;&#xfb8b;" horiz-adv-x="2582" 
d="M1669 1036q-41 0 -69.5 29.5t-28.5 69.5q0 42 27.5 71t70.5 29t70.5 -29t27.5 -71q0 -40 -28.5 -69.5t-69.5 -29.5zM420 1032q-41 0 -69.5 29t-28.5 69q0 42 27.5 71.5t70.5 29.5t70.5 -29.5t27.5 -71.5q0 -40 -28.5 -69t-69.5 -29zM1542 803q-42 0 -70 29t-28 69
q0 42 28 70t70 28q44 0 71 -28t27 -70t-27 -70t-71 -28zM1696 901q0 42 27 70t71 28t71 -28t27 -70q0 -41 -27.5 -69.5t-70.5 -28.5q-44 0 -71 28t-27 70zM293 799q-42 0 -70 29t-28 69q0 42 28 70t70 28q44 0 71 -28t27 -70t-27 -70t-71 -28zM446 897q0 42 27.5 70t71.5 28
t71 -28t27 -70q0 -41 -27.5 -69.5t-70.5 -28.5q-44 0 -71.5 28t-27.5 70zM2583 221l34 -6l-10 -209l-35 -6q-298 0 -360 182q-28 -90 -102 -136t-175 -46q-234 0 -290 178q-32 -89 -109 -133.5t-190 -44.5q-132 0 -217.5 53t-110.5 162h-408v-35q0 -124 -39 -235
t-110.5 -195t-180 -133t-239.5 -49q-108 0 -176 22l18 207q63 -8 140 -8q105 0 188 33.5t131 88t73 117t25 126.5q0 53 -14 129t-28 129t-48 176l170 45q44 -150 55 -199h422v189h170v-224q0 -103 54 -140.5t157 -37.5q63 0 105.5 13.5t71 56t28.5 115.5v217h172v-217
q0 -107 50 -146t149 -39q93 0 144.5 40t51.5 145v217h172v-217q0 -105 58.5 -145t202.5 -40z" />
    <glyph glyph-name="uniFEB7FB8B.liga" unicode="&#xfeb7;&#xfb8b;" horiz-adv-x="2410" 
d="M1669 1036q-41 0 -69.5 29.5t-28.5 69.5q0 42 27.5 71t70.5 29t70.5 -29t27.5 -71q0 -40 -28.5 -69.5t-69.5 -29.5zM418 1032q-41 0 -70 29t-29 69q0 42 28 71.5t71 29.5t70.5 -29.5t27.5 -71.5q0 -40 -28.5 -69t-69.5 -29zM1542 803q-42 0 -70 29t-28 69q0 42 28 70
t70 28q44 0 71 -28t27 -70t-27 -70t-71 -28zM1696 901q0 42 27 70t71 28t71 -28t27 -70q0 -41 -27.5 -69.5t-70.5 -28.5q-44 0 -71 28t-27 70zM291 799q-42 0 -70 29t-28 69q0 42 28 70t70 28q44 0 71 -28t27 -70t-27 -70t-71 -28zM444 897q0 42 27.5 70t71.5 28t71 -28
t27 -70q0 -41 -27.5 -69.5t-70.5 -28.5q-44 0 -71.5 28t-27.5 70zM2073 700l165 56q72 -210 72 -367q0 -184 -98 -286.5t-268 -102.5q-242 0 -299 188q-31 -93 -110 -140.5t-189 -47.5q-279 0 -328 215h-408v-35q0 -124 -39 -235t-110.5 -195t-180 -133t-239.5 -49
q-108 0 -176 22l18 207q63 -8 140 -8q105 0 188 33.5t131 88t73 117t25 126.5q0 53 -14 129t-28 129t-48 176l170 45q44 -150 55 -199h422v189h170v-224q0 -103 54 -140.5t157 -37.5q98 0 151.5 42.5t53.5 156.5v203h172v-203q0 -115 50 -157t149 -42q89 0 136.5 43
t47.5 115q0 85 -65 321z" />
    <glyph glyph-name="uniFD19.liga" unicode="&#xfeb8;&#xfef0;" horiz-adv-x="3106" 
d="M2195 1036q-41 0 -69.5 29.5t-28.5 69.5q0 42 27.5 71t70.5 29t71 -29t28 -71q0 -40 -29 -69.5t-70 -29.5zM2068 803q-42 0 -70 29t-28 69q0 42 28 70t70 28q44 0 71.5 -28t27.5 -70t-27.5 -70t-71.5 -28zM2222 901q0 42 27 70t71 28t71.5 -28t27.5 -70q0 -41 -28 -69.5
t-71 -28.5q-44 0 -71 28t-27 70zM3107 221l35 -6l-9 -209l-34 -6q-299 0 -361 182q-30 -90 -103 -136t-175 -46q-233 0 -289 176q-33 -87 -107.5 -131.5t-177.5 -44.5q-92 0 -156.5 34.5t-110.5 100t-103 187.5l-37 79q-48 105 -116.5 160t-174.5 55q-113 0 -201 -64
t-88 -146q0 -91 170 -130l135 -26q157 -33 229 -93.5t72 -189.5q0 -65 -29.5 -129t-92 -123.5t-150 -105.5t-214 -73.5t-274.5 -27.5q-324 0 -506 164.5t-182 442.5q0 254 117 516l152 -53q-43 -100 -70 -217.5t-27 -202.5q0 -213 141.5 -320.5t401.5 -107.5q107 0 203 15.5
t162 39.5t114.5 53t71.5 57t23 50q0 39 -38 58t-134 40l-164 37q-73 15 -125.5 46.5t-81 74t-41 87t-12.5 95.5q0 193 137 323t342 130q73 0 134 -23t108.5 -68.5t82.5 -97t70 -123.5l62 -123q26 -54 43.5 -83.5t42.5 -54t56 -33.5t77 -9q97 0 149.5 39.5t52.5 145.5v217
h172v-217q0 -106 51 -145.5t150 -39.5q93 0 145 40t52 145v217h172v-217q0 -105 57.5 -145t200.5 -40z" />
    <glyph glyph-name="uniFCFD.liga" unicode="&#xfeb7;&#xfef0;" horiz-adv-x="2938" 
d="M2198 1036q-41 0 -70 29.5t-29 69.5q0 42 28 71t71 29t70.5 -29t27.5 -71q0 -40 -28.5 -69.5t-69.5 -29.5zM2071 803q-42 0 -70.5 29t-28.5 69q0 41 28 69.5t71 28.5q44 0 71 -28t27 -70t-27 -70t-71 -28zM2224 901q0 42 27 70t71 28t71.5 -28t27.5 -70q0 -41 -28 -69.5
t-71 -28.5q-44 0 -71 28t-27 70zM2601 700l166 56q72 -210 72 -367q0 -184 -98.5 -286.5t-268.5 -102.5q-242 0 -299 188q-31 -93 -107 -140.5t-180 -47.5q-92 0 -156.5 34.5t-110.5 100t-103 187.5l-37 79q-48 105 -116.5 160t-174.5 55q-113 0 -201 -64t-88 -146
q0 -91 170 -130l135 -26q157 -33 229 -93.5t72 -189.5q0 -65 -29.5 -129t-92 -123.5t-150 -105.5t-214 -73.5t-274.5 -27.5q-324 0 -506 164.5t-182 442.5q0 254 117 516l152 -53q-43 -100 -70 -217.5t-27 -202.5q0 -213 141.5 -320.5t401.5 -107.5q107 0 203 15.5t162 39.5
t114.5 53t71.5 57t23 50q0 39 -38 58t-134 40l-164 37q-73 15 -125.5 46.5t-81 74t-41 87t-12.5 95.5q0 193 137 323t342 130q73 0 134 -23t108.5 -68.5t82.5 -97t70 -123.5l62 -123q26 -54 43.5 -83.5t42.5 -54t56 -33.5t77 -9q99 0 152.5 39t53.5 143v220h173v-220
q0 -105 49.5 -143.5t148.5 -38.5q89 0 136.5 43t47.5 115q0 85 -65 321z" />
    <glyph glyph-name="uniFD1A.liga" unicode="&#xfeb8;&#xfef2;" horiz-adv-x="3106" 
d="M2195 1036q-41 0 -69.5 29.5t-28.5 69.5q0 42 27.5 71t70.5 29t71 -29t28 -71q0 -40 -29 -69.5t-70 -29.5zM2068 803q-42 0 -70 29t-28 69q0 42 28 70t70 28q44 0 71.5 -28t27.5 -70t-27.5 -70t-71.5 -28zM2222 901q0 42 27 70t71 28t71.5 -28t27.5 -70q0 -41 -28 -69.5
t-71 -28.5q-44 0 -71 28t-27 70zM3107 221l35 -6l-9 -209l-34 -6q-299 0 -361 182q-30 -90 -103 -136t-175 -46q-233 0 -289 176q-33 -87 -107.5 -131.5t-177.5 -44.5q-92 0 -156.5 34.5t-110.5 100t-103 187.5l-37 79q-48 105 -116.5 160t-174.5 55q-113 0 -201 -64
t-88 -146q0 -91 170 -130l135 -26q157 -33 229 -93.5t72 -189.5q0 -65 -29.5 -129t-92 -123.5t-150 -105.5t-214 -73.5t-274.5 -27.5q-324 0 -506 164.5t-182 442.5q0 254 117 516l152 -53q-43 -100 -70 -217.5t-27 -202.5q0 -213 141.5 -320.5t401.5 -107.5q107 0 203 15.5
t162 39.5t114.5 53t71.5 57t23 50q0 39 -38 58t-134 40l-164 37q-73 15 -125.5 46.5t-81 74t-41 87t-12.5 95.5q0 193 137 323t342 130q73 0 134 -23t108.5 -68.5t82.5 -97t70 -123.5l62 -123q26 -54 43.5 -83.5t42.5 -54t56 -33.5t77 -9q97 0 149.5 39.5t52.5 145.5v217
h172v-217q0 -106 51 -145.5t150 -39.5q93 0 145 40t52 145v217h172v-217q0 -105 57.5 -145t200.5 -40zM651 -641q43 0 73 -30.5t30 -71.5q0 -43 -29.5 -73t-73.5 -30q-41 0 -71.5 30t-30.5 73q0 41 30.5 71.5t71.5 30.5zM920 -641q41 0 71.5 -30.5t30.5 -71.5q0 -43 -30 -73
t-72 -30q-44 0 -73.5 30t-29.5 73q0 42 29.5 72t73.5 30z" />
    <glyph glyph-name="uniFCFE.liga" unicode="&#xfeb7;&#xfef2;" horiz-adv-x="2938" 
d="M2198 1036q-41 0 -70 29.5t-29 69.5q0 42 28 71t71 29t70.5 -29t27.5 -71q0 -40 -28.5 -69.5t-69.5 -29.5zM2071 803q-42 0 -70.5 29t-28.5 69q0 41 28 69.5t71 28.5q44 0 71 -28t27 -70t-27 -70t-71 -28zM2224 901q0 42 27 70t71 28t71.5 -28t27.5 -70q0 -41 -28 -69.5
t-71 -28.5q-44 0 -71 28t-27 70zM2601 700l166 56q72 -210 72 -367q0 -184 -98.5 -286.5t-268.5 -102.5q-242 0 -299 188q-31 -93 -107 -140.5t-180 -47.5q-92 0 -156.5 34.5t-110.5 100t-103 187.5l-37 79q-48 105 -116.5 160t-174.5 55q-113 0 -201 -64t-88 -146
q0 -91 170 -130l135 -26q157 -33 229 -93.5t72 -189.5q0 -65 -29.5 -129t-92 -123.5t-150 -105.5t-214 -73.5t-274.5 -27.5q-324 0 -506 164.5t-182 442.5q0 254 117 516l152 -53q-43 -100 -70 -217.5t-27 -202.5q0 -213 141.5 -320.5t401.5 -107.5q107 0 203 15.5t162 39.5
t114.5 53t71.5 57t23 50q0 39 -38 58t-134 40l-164 37q-73 15 -125.5 46.5t-81 74t-41 87t-12.5 95.5q0 193 137 323t342 130q73 0 134 -23t108.5 -68.5t82.5 -97t70 -123.5l62 -123q26 -54 43.5 -83.5t42.5 -54t56 -33.5t77 -9q99 0 152.5 39t53.5 143v220h173v-220
q0 -105 49.5 -143.5t148.5 -38.5q89 0 136.5 43t47.5 115q0 85 -65 321zM653 -641q43 0 73 -30.5t30 -71.5q0 -43 -29.5 -73t-73.5 -30q-41 0 -71.5 30t-30.5 73q0 41 30.5 71.5t71.5 30.5zM922 -641q41 0 71.5 -30.5t30.5 -71.5q0 -43 -30 -73t-72 -30q-44 0 -73.5 30
t-29.5 73q0 42 29.5 72t73.5 30z" />
    <glyph glyph-name="uniFEB8FE8A.liga" unicode="&#xfeb8;&#xfe8a;" horiz-adv-x="3106" 
d="M2195 1036q-41 0 -69.5 29.5t-28.5 69.5q0 42 27.5 71t70.5 29t71 -29t28 -71q0 -40 -29 -69.5t-70 -29.5zM285 850h147v-119h-379v113h62q-27 30 -27 84q0 71 48 123.5t130 52.5q49 0 89.5 -24t58.5 -58l-54 -86l-10 8q-10 7 -13.5 9t-13.5 7.5t-17 8t-17.5 4.5t-20.5 2
q-37 0 -64.5 -19t-27.5 -47q0 -26 29 -42.5t80 -16.5zM2068 803q-42 0 -70 29t-28 69q0 42 28 70t70 28q44 0 71.5 -28t27.5 -70t-27.5 -70t-71.5 -28zM2222 901q0 42 27 70t71 28t71.5 -28t27.5 -70q0 -41 -28 -69.5t-71 -28.5q-44 0 -71 28t-27 70zM3107 221l35 -6
l-9 -209l-34 -6q-299 0 -361 182q-30 -90 -103 -136t-175 -46q-233 0 -289 176q-33 -87 -107.5 -131.5t-177.5 -44.5q-92 0 -156.5 34.5t-110.5 100t-103 187.5l-37 79q-48 105 -116.5 160t-174.5 55q-113 0 -201 -64t-88 -146q0 -91 170 -130l135 -26q157 -33 229 -93.5
t72 -189.5q0 -65 -29.5 -129t-92 -123.5t-150 -105.5t-214 -73.5t-274.5 -27.5q-324 0 -506 164.5t-182 442.5q0 254 117 516l152 -53q-43 -100 -70 -217.5t-27 -202.5q0 -213 141.5 -320.5t401.5 -107.5q107 0 203 15.5t162 39.5t114.5 53t71.5 57t23 50q0 39 -38 58
t-134 40l-164 37q-73 15 -125.5 46.5t-81 74t-41 87t-12.5 95.5q0 193 137 323t342 130q73 0 134 -23t108.5 -68.5t82.5 -97t70 -123.5l62 -123q26 -54 43.5 -83.5t42.5 -54t56 -33.5t77 -9q97 0 149.5 39.5t52.5 145.5v217h172v-217q0 -106 51 -145.5t150 -39.5
q93 0 145 40t52 145v217h172v-217q0 -105 57.5 -145t200.5 -40z" />
    <glyph glyph-name="uniFEB7FE8A.liga" unicode="&#xfeb7;&#xfe8a;" horiz-adv-x="2938" 
d="M2198 1036q-41 0 -70 29.5t-29 69.5q0 42 28 71t71 29t70.5 -29t27.5 -71q0 -40 -28.5 -69.5t-69.5 -29.5zM285 850h147v-119h-379v113h62q-27 30 -27 84q0 71 48 123.5t130 52.5q49 0 89.5 -24t58.5 -58l-54 -86l-10 8q-10 7 -13.5 9t-13.5 7.5t-17 8t-17.5 4.5t-20.5 2
q-37 0 -64.5 -19t-27.5 -47q0 -26 29 -42.5t80 -16.5zM2071 803q-42 0 -70.5 29t-28.5 69q0 41 28 69.5t71 28.5q44 0 71 -28t27 -70t-27 -70t-71 -28zM2224 901q0 42 27 70t71 28t71.5 -28t27.5 -70q0 -41 -28 -69.5t-71 -28.5q-44 0 -71 28t-27 70zM2601 700l166 56
q72 -210 72 -367q0 -184 -98.5 -286.5t-268.5 -102.5q-242 0 -299 188q-31 -93 -107 -140.5t-180 -47.5q-92 0 -156.5 34.5t-110.5 100t-103 187.5l-37 79q-48 105 -116.5 160t-174.5 55q-113 0 -201 -64t-88 -146q0 -91 170 -130l135 -26q157 -33 229 -93.5t72 -189.5
q0 -65 -29.5 -129t-92 -123.5t-150 -105.5t-214 -73.5t-274.5 -27.5q-324 0 -506 164.5t-182 442.5q0 254 117 516l152 -53q-43 -100 -70 -217.5t-27 -202.5q0 -213 141.5 -320.5t401.5 -107.5q107 0 203 15.5t162 39.5t114.5 53t71.5 57t23 50q0 39 -38 58t-134 40l-164 37
q-73 15 -125.5 46.5t-81 74t-41 87t-12.5 95.5q0 193 137 323t342 130q73 0 134 -23t108.5 -68.5t82.5 -97t70 -123.5l62 -123q26 -54 43.5 -83.5t42.5 -54t56 -33.5t77 -9q99 0 152.5 39t53.5 143v220h173v-220q0 -105 49.5 -143.5t148.5 -38.5q89 0 136.5 43t47.5 115
q0 85 -65 321z" />
    <glyph glyph-name="uniFD2B.liga" unicode="&#xfebc;&#xfeae;" horiz-adv-x="2691" 
d="M2691 221l35 -6l-10 -209l-35 -6q-216 0 -283 113q-150 -113 -438 -113h-602q-144 0 -237 66.5t-107 199.5h-408q4 -62 4 -86q0 -124 -39 -235t-110.5 -195t-180 -133t-239.5 -49q-108 0 -176 22l18 207q63 -8 140 -8q105 0 188 33.5t131 88t73 117t25 126.5
q0 24 -2.5 52.5t-5 52t-9.5 60.5t-11 58.5t-14.5 68.5t-15.5 67.5t-19 77.5t-19 79l170 45q28 -96 57 -232h424v226h172v-291q0 -93 37.5 -137.5t108.5 -55.5q373 686 811 686q128 0 229 -67t153 -170.5t52 -220.5q0 -116 -43 -201q60 -31 176 -31zM1468 221h521
q187 0 297 52.5t110 158.5q0 100 -82 178t-217 78q-179 0 -340 -128.5t-289 -338.5z" />
    <glyph glyph-name="uniFD0F.liga" unicode="&#xfebb;&#xfeae;" horiz-adv-x="2660" 
d="M2124 911q128 0 229 -67t153 -170.5t52 -220.5q0 -215 -149 -334t-449 -119h-602q-144 0 -237 66.5t-107 199.5h-408q4 -62 4 -86q0 -124 -39 -235t-110.5 -195t-180 -133t-239.5 -49q-108 0 -176 22l18 207q63 -8 140 -8q105 0 188 33.5t131 88t73 117t25 126.5
q0 24 -2.5 52.5t-5 52t-9.5 60.5t-11 58.5t-14.5 68.5t-15.5 67.5t-19 77.5t-19 79l170 45q28 -96 57 -232h424v226h172v-291q0 -93 37.5 -137.5t108.5 -55.5q373 686 811 686zM1468 221h521q187 0 297 52.5t110 158.5q0 100 -82 178t-217 78q-179 0 -340 -128.5
t-289 -338.5z" />
    <glyph glyph-name="uniFEBCFEB0.liga" unicode="&#xfebc;&#xfeb0;" horiz-adv-x="2691" 
d="M424 877q-49 0 -81 32.5t-32 77.5q0 47 32 80t81 33q47 0 79 -33.5t32 -79.5q0 -45 -32 -77.5t-79 -32.5zM2691 221l35 -6l-10 -209l-35 -6q-216 0 -283 113q-150 -113 -438 -113h-602q-144 0 -237 66.5t-107 199.5h-408q4 -62 4 -86q0 -124 -39 -235t-110.5 -195
t-180 -133t-239.5 -49q-108 0 -176 22l18 207q63 -8 140 -8q105 0 188 33.5t131 88t73 117t25 126.5q0 24 -2.5 52.5t-5 52t-9.5 60.5t-11 58.5t-14.5 68.5t-15.5 67.5t-19 77.5t-19 79l170 45q28 -96 57 -232h424v226h172v-291q0 -93 37.5 -137.5t108.5 -55.5
q373 686 811 686q128 0 229 -67t153 -170.5t52 -220.5q0 -116 -43 -201q60 -31 176 -31zM1468 221h521q187 0 297 52.5t110 158.5q0 100 -82 178t-217 78q-179 0 -340 -128.5t-289 -338.5z" />
    <glyph glyph-name="uniFEBBFEB0.liga" unicode="&#xfebb;&#xfeb0;" horiz-adv-x="2660" 
d="M424 877q-49 0 -81 32.5t-32 77.5q0 47 32 80t81 33q47 0 79 -33.5t32 -79.5q0 -45 -32 -77.5t-79 -32.5zM2124 911q128 0 229 -67t153 -170.5t52 -220.5q0 -215 -149 -334t-449 -119h-602q-144 0 -237 66.5t-107 199.5h-408q4 -62 4 -86q0 -124 -39 -235t-110.5 -195
t-180 -133t-239.5 -49q-108 0 -176 22l18 207q63 -8 140 -8q105 0 188 33.5t131 88t73 117t25 126.5q0 24 -2.5 52.5t-5 52t-9.5 60.5t-11 58.5t-14.5 68.5t-15.5 67.5t-19 77.5t-19 79l170 45q28 -96 57 -232h424v226h172v-291q0 -93 37.5 -137.5t108.5 -55.5
q373 686 811 686zM1468 221h521q187 0 297 52.5t110 158.5q0 100 -82 178t-217 78q-179 0 -340 -128.5t-289 -338.5z" />
    <glyph glyph-name="uniFEBCFB8B.liga" unicode="&#xfebc;&#xfb8b;" horiz-adv-x="2691" 
d="M426 1114q-41 0 -69.5 29t-28.5 69q0 42 27.5 71.5t70.5 29.5t70.5 -29.5t27.5 -71.5q0 -40 -28.5 -69t-69.5 -29zM299 881q-42 0 -70 29t-28 69q0 42 28 70t70 28q44 0 71 -28t27 -70t-27 -70t-71 -28zM453 979q0 42 27 70t71 28t71 -28t27 -70q0 -41 -27.5 -69.5
t-70.5 -28.5q-44 0 -71 28t-27 70zM2691 221l35 -6l-10 -209l-35 -6q-216 0 -283 113q-150 -113 -438 -113h-602q-144 0 -237 66.5t-107 199.5h-408q4 -62 4 -86q0 -124 -39 -235t-110.5 -195t-180 -133t-239.5 -49q-108 0 -176 22l18 207q63 -8 140 -8q105 0 188 33.5
t131 88t73 117t25 126.5q0 24 -2.5 52.5t-5 52t-9.5 60.5t-11 58.5t-14.5 68.5t-15.5 67.5t-19 77.5t-19 79l170 45q28 -96 57 -232h424v226h172v-291q0 -93 37.5 -137.5t108.5 -55.5q373 686 811 686q128 0 229 -67t153 -170.5t52 -220.5q0 -116 -43 -201q60 -31 176 -31z
M1468 221h521q187 0 297 52.5t110 158.5q0 100 -82 178t-217 78q-179 0 -340 -128.5t-289 -338.5z" />
    <glyph glyph-name="uniFEBBFB8B.liga" unicode="&#xfebb;&#xfb8b;" horiz-adv-x="2660" 
d="M426 1114q-41 0 -69.5 29t-28.5 69q0 42 27.5 71.5t70.5 29.5t70.5 -29.5t27.5 -71.5q0 -40 -28.5 -69t-69.5 -29zM299 881q-42 0 -70 29t-28 69q0 42 28 70t70 28q44 0 71 -28t27 -70t-27 -70t-71 -28zM453 979q0 42 27 70t71 28t71 -28t27 -70q0 -41 -27.5 -69.5
t-70.5 -28.5q-44 0 -71 28t-27 70zM2124 911q128 0 229 -67t153 -170.5t52 -220.5q0 -215 -149 -334t-449 -119h-602q-144 0 -237 66.5t-107 199.5h-408q4 -62 4 -86q0 -124 -39 -235t-110.5 -195t-180 -133t-239.5 -49q-108 0 -176 22l18 207q63 -8 140 -8q105 0 188 33.5
t131 88t73 117t25 126.5q0 24 -2.5 52.5t-5 52t-9.5 60.5t-11 58.5t-14.5 68.5t-15.5 67.5t-19 77.5t-19 79l170 45q28 -96 57 -232h424v226h172v-291q0 -93 37.5 -137.5t108.5 -55.5q373 686 811 686zM1468 221h521q187 0 297 52.5t110 158.5q0 100 -82 178t-217 78
q-179 0 -340 -128.5t-289 -338.5z" />
    <glyph glyph-name="uniFD21.liga" unicode="&#xfebc;&#xfef0;" horiz-adv-x="3067" 
d="M3068 221l35 -6l-11 -209l-34 -6q-204 0 -275 100q-148 -100 -424 -100h-481q-50 0 -88 6.5t-70 25t-55.5 39.5t-50 62.5t-46.5 81t-52 107.5l-21 40q-62 135 -133.5 194.5t-173.5 59.5q-113 0 -201 -64t-88 -146q0 -91 170 -130l135 -26q157 -33 229 -93.5t72 -189.5
q0 -65 -29.5 -129t-92 -123.5t-150 -105.5t-214 -73.5t-274.5 -27.5q-324 0 -506 164.5t-182 442.5q0 254 117 516l152 -53q-43 -100 -70 -217.5t-27 -202.5q0 -213 141.5 -320.5t401.5 -107.5q107 0 203 15.5t162 39.5t114.5 53t71.5 57t23 50q0 39 -38 58t-134 40l-164 37
q-73 15 -125.5 46.5t-81 74t-41 87t-12.5 95.5q0 193 137 323t342 130q74 0 134 -23t109 -70.5t87 -106t79 -144.5l21 -43q56 -121 88 -166q360 628 776 628q129 0 230.5 -67t153.5 -170.5t52 -220.5q0 -119 -47 -211q61 -21 156 -21zM1892 221h496q189 0 299.5 52.5
t110.5 158.5q0 99 -82.5 177.5t-216.5 78.5q-93 0 -183.5 -36.5t-169.5 -102t-147.5 -147t-130.5 -181.5h24z" />
    <glyph glyph-name="uniFD05.liga" unicode="&#xfebb;&#xfef0;" horiz-adv-x="3061" 
d="M2523 911q129 0 230.5 -67t153.5 -170.5t52 -220.5q0 -215 -150 -334t-450 -119h-481q-50 0 -88 6.5t-70 25t-55.5 39.5t-50 62.5t-46.5 81t-52 107.5l-21 40q-62 135 -133.5 194.5t-173.5 59.5q-113 0 -201 -64t-88 -146q0 -91 170 -130l135 -26q157 -33 229 -93.5
t72 -189.5q0 -65 -29.5 -129t-92 -123.5t-150 -105.5t-214 -73.5t-274.5 -27.5q-324 0 -506 164.5t-182 442.5q0 254 117 516l152 -53q-43 -100 -70 -217.5t-27 -202.5q0 -213 141.5 -320.5t401.5 -107.5q107 0 203 15.5t162 39.5t114.5 53t71.5 57t23 50q0 39 -38 58
t-134 40l-164 37q-73 15 -125.5 46.5t-81 74t-41 87t-12.5 95.5q0 193 137 323t342 130q74 0 134 -23t109 -70.5t87 -106t79 -144.5l21 -43q56 -121 88 -166q360 628 776 628zM1892 221h496q189 0 299.5 52.5t110.5 158.5q0 99 -82.5 177.5t-216.5 78.5q-93 0 -183.5 -36.5
t-169.5 -102t-147.5 -147t-130.5 -181.5h24z" />
    <glyph glyph-name="uniFD22.liga" unicode="&#xfebc;&#xfef2;" horiz-adv-x="3067" 
d="M3068 221l35 -6l-11 -209l-34 -6q-204 0 -275 100q-148 -100 -424 -100h-481q-50 0 -88 6.5t-70 25t-55.5 39.5t-50 62.5t-46.5 81t-52 107.5l-21 40q-62 135 -133.5 194.5t-173.5 59.5q-113 0 -201 -64t-88 -146q0 -91 170 -130l135 -26q157 -33 229 -93.5t72 -189.5
q0 -65 -29.5 -129t-92 -123.5t-150 -105.5t-214 -73.5t-274.5 -27.5q-324 0 -506 164.5t-182 442.5q0 254 117 516l152 -53q-43 -100 -70 -217.5t-27 -202.5q0 -213 141.5 -320.5t401.5 -107.5q107 0 203 15.5t162 39.5t114.5 53t71.5 57t23 50q0 39 -38 58t-134 40l-164 37
q-73 15 -125.5 46.5t-81 74t-41 87t-12.5 95.5q0 193 137 323t342 130q74 0 134 -23t109 -70.5t87 -106t79 -144.5l21 -43q56 -121 88 -166q360 628 776 628q129 0 230.5 -67t153.5 -170.5t52 -220.5q0 -119 -47 -211q61 -21 156 -21zM1892 221h496q189 0 299.5 52.5
t110.5 158.5q0 99 -82.5 177.5t-216.5 78.5q-93 0 -183.5 -36.5t-169.5 -102t-147.5 -147t-130.5 -181.5h24zM653 -641q43 0 73 -30.5t30 -71.5q0 -43 -29.5 -73t-73.5 -30q-41 0 -71.5 30t-30.5 73q0 41 30.5 71.5t71.5 30.5zM922 -641q41 0 71.5 -30.5t30.5 -71.5
q0 -43 -30 -73t-72 -30q-44 0 -73.5 30t-29.5 73q0 42 29.5 72t73.5 30z" />
    <glyph glyph-name="uniFD06.liga" unicode="&#xfebb;&#xfef2;" horiz-adv-x="3061" 
d="M2523 911q129 0 230.5 -67t153.5 -170.5t52 -220.5q0 -215 -150 -334t-450 -119h-481q-50 0 -88 6.5t-70 25t-55.5 39.5t-50 62.5t-46.5 81t-52 107.5l-21 40q-62 135 -133.5 194.5t-173.5 59.5q-113 0 -201 -64t-88 -146q0 -91 170 -130l135 -26q157 -33 229 -93.5
t72 -189.5q0 -65 -29.5 -129t-92 -123.5t-150 -105.5t-214 -73.5t-274.5 -27.5q-324 0 -506 164.5t-182 442.5q0 254 117 516l152 -53q-43 -100 -70 -217.5t-27 -202.5q0 -213 141.5 -320.5t401.5 -107.5q107 0 203 15.5t162 39.5t114.5 53t71.5 57t23 50q0 39 -38 58
t-134 40l-164 37q-73 15 -125.5 46.5t-81 74t-41 87t-12.5 95.5q0 193 137 323t342 130q74 0 134 -23t109 -70.5t87 -106t79 -144.5l21 -43q56 -121 88 -166q360 628 776 628zM1892 221h496q189 0 299.5 52.5t110.5 158.5q0 99 -82.5 177.5t-216.5 78.5q-93 0 -183.5 -36.5
t-169.5 -102t-147.5 -147t-130.5 -181.5h24zM653 -641q43 0 73 -30.5t30 -71.5q0 -43 -29.5 -73t-73.5 -30q-41 0 -71.5 30t-30.5 73q0 41 30.5 71.5t71.5 30.5zM922 -641q41 0 71.5 -30.5t30.5 -71.5q0 -43 -30 -73t-72 -30q-44 0 -73.5 30t-29.5 73q0 42 29.5 72t73.5 30z
" />
    <glyph glyph-name="uniFEBCFE8A.liga" unicode="&#xfebc;&#xfe8a;" horiz-adv-x="3067" 
d="M285 850h147v-119h-379v113h62q-27 30 -27 84q0 71 48 123.5t130 52.5q49 0 89.5 -24t58.5 -58l-54 -86l-10 8q-10 7 -13.5 9t-13.5 7.5t-17 8t-17.5 4.5t-20.5 2q-37 0 -64.5 -19t-27.5 -47q0 -26 29 -42.5t80 -16.5zM3068 221l35 -6l-11 -209l-34 -6q-204 0 -275 100
q-148 -100 -424 -100h-481q-50 0 -88 6.5t-70 25t-55.5 39.5t-50 62.5t-46.5 81t-52 107.5l-21 40q-62 135 -133.5 194.5t-173.5 59.5q-113 0 -201 -64t-88 -146q0 -91 170 -130l135 -26q157 -33 229 -93.5t72 -189.5q0 -65 -29.5 -129t-92 -123.5t-150 -105.5t-214 -73.5
t-274.5 -27.5q-324 0 -506 164.5t-182 442.5q0 254 117 516l152 -53q-43 -100 -70 -217.5t-27 -202.5q0 -213 141.5 -320.5t401.5 -107.5q107 0 203 15.5t162 39.5t114.5 53t71.5 57t23 50q0 39 -38 58t-134 40l-164 37q-73 15 -125.5 46.5t-81 74t-41 87t-12.5 95.5
q0 193 137 323t342 130q74 0 134 -23t109 -70.5t87 -106t79 -144.5l21 -43q56 -121 88 -166q360 628 776 628q129 0 230.5 -67t153.5 -170.5t52 -220.5q0 -119 -47 -211q61 -21 156 -21zM1892 221h496q189 0 299.5 52.5t110.5 158.5q0 99 -82.5 177.5t-216.5 78.5
q-93 0 -183.5 -36.5t-169.5 -102t-147.5 -147t-130.5 -181.5h24z" />
    <glyph glyph-name="uniFEBBFE8A.liga" unicode="&#xfebb;&#xfe8a;" horiz-adv-x="3061" 
d="M287 850h147v-119h-379v113h62q-27 30 -27 84q0 71 48 123.5t130 52.5q49 0 89.5 -24t58.5 -58l-54 -86l-10 8q-10 7 -13.5 9t-13.5 7.5t-17 8t-17.5 4.5t-20.5 2q-37 0 -64.5 -19t-27.5 -47q0 -26 29 -42.5t80 -16.5zM2523 911q129 0 230.5 -67t153.5 -170.5t52 -220.5
q0 -215 -150 -334t-450 -119h-481q-50 0 -88 6.5t-70 25t-55.5 39.5t-50 62.5t-46.5 81t-52 107.5l-21 40q-62 135 -133.5 194.5t-173.5 59.5q-113 0 -201 -64t-88 -146q0 -91 170 -130l135 -26q157 -33 229 -93.5t72 -189.5q0 -65 -29.5 -129t-92 -123.5t-150 -105.5
t-214 -73.5t-274.5 -27.5q-324 0 -506 164.5t-182 442.5q0 254 117 516l152 -53q-43 -100 -70 -217.5t-27 -202.5q0 -213 141.5 -320.5t401.5 -107.5q107 0 203 15.5t162 39.5t114.5 53t71.5 57t23 50q0 39 -38 58t-134 40l-164 37q-73 15 -125.5 46.5t-81 74t-41 87
t-12.5 95.5q0 193 137 323t342 130q74 0 134 -23t109 -70.5t87 -106t79 -144.5l21 -43q56 -121 88 -166q360 628 776 628zM1892 221h496q189 0 299.5 52.5t110.5 158.5q0 99 -82.5 177.5t-216.5 78.5q-93 0 -183.5 -36.5t-169.5 -102t-147.5 -147t-130.5 -181.5h24z" />
    <glyph glyph-name="uniFD2C.liga" unicode="&#xfec0;&#xfeae;" horiz-adv-x="2691" 
d="M2124 1087q-48 0 -80.5 33t-32.5 78q0 47 32 80t81 33q47 0 78.5 -33.5t31.5 -79.5q0 -45 -32 -78t-78 -33zM2691 221l35 -6l-10 -209l-35 -6q-216 0 -283 113q-150 -113 -438 -113h-602q-144 0 -237 66.5t-107 199.5h-408q4 -62 4 -86q0 -124 -39 -235t-110.5 -195
t-180 -133t-239.5 -49q-108 0 -176 22l18 207q63 -8 140 -8q105 0 188 33.5t131 88t73 117t25 126.5q0 24 -2.5 52.5t-5 52t-9.5 60.5t-11 58.5t-14.5 68.5t-15.5 67.5t-19 77.5t-19 79l170 45q28 -96 57 -232h424v226h172v-291q0 -93 37.5 -137.5t108.5 -55.5
q373 686 811 686q128 0 229 -67t153 -170.5t52 -220.5q0 -116 -43 -201q60 -31 176 -31zM1468 221h521q187 0 297 52.5t110 158.5q0 100 -82 178t-217 78q-179 0 -340 -128.5t-289 -338.5z" />
    <glyph glyph-name="uniFD10.liga" unicode="&#xfebf;&#xfeae;" horiz-adv-x="2660" 
d="M2124 1087q-48 0 -80.5 33t-32.5 78q0 47 32 80t81 33q47 0 78.5 -33.5t31.5 -79.5q0 -45 -32 -78t-78 -33zM2124 911q128 0 229 -67t153 -170.5t52 -220.5q0 -215 -149 -334t-449 -119h-602q-144 0 -237 66.5t-107 199.5h-408q4 -62 4 -86q0 -124 -39 -235t-110.5 -195
t-180 -133t-239.5 -49q-108 0 -176 22l18 207q63 -8 140 -8q105 0 188 33.5t131 88t73 117t25 126.5q0 24 -2.5 52.5t-5 52t-9.5 60.5t-11 58.5t-14.5 68.5t-15.5 67.5t-19 77.5t-19 79l170 45q28 -96 57 -232h424v226h172v-291q0 -93 37.5 -137.5t108.5 -55.5
q373 686 811 686zM1468 221h521q187 0 297 52.5t110 158.5q0 100 -82 178t-217 78q-179 0 -340 -128.5t-289 -338.5z" />
    <glyph glyph-name="uniFEC0FEB0.liga" unicode="&#xfec0;&#xfeb0;" horiz-adv-x="2691" 
d="M2124 1087q-48 0 -80.5 33t-32.5 78q0 47 32 80t81 33q47 0 78.5 -33.5t31.5 -79.5q0 -45 -32 -78t-78 -33zM424 877q-49 0 -81 32.5t-32 77.5q0 47 32 80t81 33q47 0 79 -33.5t32 -79.5q0 -45 -32 -77.5t-79 -32.5zM2691 221l35 -6l-10 -209l-35 -6q-216 0 -283 113
q-150 -113 -438 -113h-602q-144 0 -237 66.5t-107 199.5h-408q4 -62 4 -86q0 -124 -39 -235t-110.5 -195t-180 -133t-239.5 -49q-108 0 -176 22l18 207q63 -8 140 -8q105 0 188 33.5t131 88t73 117t25 126.5q0 24 -2.5 52.5t-5 52t-9.5 60.5t-11 58.5t-14.5 68.5t-15.5 67.5
t-19 77.5t-19 79l170 45q28 -96 57 -232h424v226h172v-291q0 -93 37.5 -137.5t108.5 -55.5q373 686 811 686q128 0 229 -67t153 -170.5t52 -220.5q0 -116 -43 -201q60 -31 176 -31zM1468 221h521q187 0 297 52.5t110 158.5q0 100 -82 178t-217 78q-179 0 -340 -128.5
t-289 -338.5z" />
    <glyph glyph-name="uniFEBFFEB0.liga" unicode="&#xfebf;&#xfeb0;" horiz-adv-x="2660" 
d="M2124 1087q-48 0 -80.5 33t-32.5 78q0 47 32 80t81 33q47 0 78.5 -33.5t31.5 -79.5q0 -45 -32 -78t-78 -33zM424 877q-49 0 -81 32.5t-32 77.5q0 47 32 80t81 33q47 0 79 -33.5t32 -79.5q0 -45 -32 -77.5t-79 -32.5zM2124 911q128 0 229 -67t153 -170.5t52 -220.5
q0 -215 -149 -334t-449 -119h-602q-144 0 -237 66.5t-107 199.5h-408q4 -62 4 -86q0 -124 -39 -235t-110.5 -195t-180 -133t-239.5 -49q-108 0 -176 22l18 207q63 -8 140 -8q105 0 188 33.5t131 88t73 117t25 126.5q0 24 -2.5 52.5t-5 52t-9.5 60.5t-11 58.5t-14.5 68.5
t-15.5 67.5t-19 77.5t-19 79l170 45q28 -96 57 -232h424v226h172v-291q0 -93 37.5 -137.5t108.5 -55.5q373 686 811 686zM1468 221h521q187 0 297 52.5t110 158.5q0 100 -82 178t-217 78q-179 0 -340 -128.5t-289 -338.5z" />
    <glyph glyph-name="uniFEC0FB8B.liga" unicode="&#xfec0;&#xfb8b;" horiz-adv-x="2691" 
d="M426 1114q-41 0 -69.5 29t-28.5 69q0 42 27.5 71.5t70.5 29.5t70.5 -29.5t27.5 -71.5q0 -40 -28.5 -69t-69.5 -29zM2124 1087q-48 0 -80.5 33t-32.5 78q0 47 32 80t81 33q47 0 78.5 -33.5t31.5 -79.5q0 -45 -32 -78t-78 -33zM299 881q-42 0 -70 29t-28 69q0 42 28 70
t70 28q44 0 71 -28t27 -70t-27 -70t-71 -28zM453 979q0 42 27 70t71 28t71 -28t27 -70q0 -41 -27.5 -69.5t-70.5 -28.5q-44 0 -71 28t-27 70zM2691 221l35 -6l-10 -209l-35 -6q-216 0 -283 113q-150 -113 -438 -113h-602q-144 0 -237 66.5t-107 199.5h-408q4 -62 4 -86
q0 -124 -39 -235t-110.5 -195t-180 -133t-239.5 -49q-108 0 -176 22l18 207q63 -8 140 -8q105 0 188 33.5t131 88t73 117t25 126.5q0 24 -2.5 52.5t-5 52t-9.5 60.5t-11 58.5t-14.5 68.5t-15.5 67.5t-19 77.5t-19 79l170 45q28 -96 57 -232h424v226h172v-291
q0 -93 37.5 -137.5t108.5 -55.5q373 686 811 686q128 0 229 -67t153 -170.5t52 -220.5q0 -116 -43 -201q60 -31 176 -31zM1468 221h521q187 0 297 52.5t110 158.5q0 100 -82 178t-217 78q-179 0 -340 -128.5t-289 -338.5z" />
    <glyph glyph-name="uniFEBFFB8B.liga" unicode="&#xfebf;&#xfb8b;" horiz-adv-x="2660" 
d="M426 1114q-41 0 -69.5 29t-28.5 69q0 42 27.5 71.5t70.5 29.5t70.5 -29.5t27.5 -71.5q0 -40 -28.5 -69t-69.5 -29zM2124 1087q-48 0 -80.5 33t-32.5 78q0 47 32 80t81 33q47 0 78.5 -33.5t31.5 -79.5q0 -45 -32 -78t-78 -33zM299 881q-42 0 -70 29t-28 69q0 42 28 70
t70 28q44 0 71 -28t27 -70t-27 -70t-71 -28zM453 979q0 42 27 70t71 28t71 -28t27 -70q0 -41 -27.5 -69.5t-70.5 -28.5q-44 0 -71 28t-27 70zM2124 911q128 0 229 -67t153 -170.5t52 -220.5q0 -215 -149 -334t-449 -119h-602q-144 0 -237 66.5t-107 199.5h-408q4 -62 4 -86
q0 -124 -39 -235t-110.5 -195t-180 -133t-239.5 -49q-108 0 -176 22l18 207q63 -8 140 -8q105 0 188 33.5t131 88t73 117t25 126.5q0 24 -2.5 52.5t-5 52t-9.5 60.5t-11 58.5t-14.5 68.5t-15.5 67.5t-19 77.5t-19 79l170 45q28 -96 57 -232h424v226h172v-291
q0 -93 37.5 -137.5t108.5 -55.5q373 686 811 686zM1468 221h521q187 0 297 52.5t110 158.5q0 100 -82 178t-217 78q-179 0 -340 -128.5t-289 -338.5z" />
    <glyph glyph-name="uniFD23.liga" unicode="&#xfec0;&#xfef0;" horiz-adv-x="3067" 
d="M2523 1087q-48 0 -80.5 33t-32.5 78q0 47 32 80t81 33q47 0 79 -33.5t32 -79.5q0 -45 -32 -78t-79 -33zM3068 221l35 -6l-11 -209l-34 -6q-204 0 -275 100q-148 -100 -424 -100h-481q-50 0 -88 6.5t-70 25t-55.5 39.5t-50 62.5t-46.5 81t-52 107.5l-21 40
q-62 135 -133.5 194.5t-173.5 59.5q-113 0 -201 -64t-88 -146q0 -91 170 -130l135 -26q157 -33 229 -93.5t72 -189.5q0 -65 -29.5 -129t-92 -123.5t-150 -105.5t-214 -73.5t-274.5 -27.5q-324 0 -506 164.5t-182 442.5q0 254 117 516l152 -53q-43 -100 -70 -217.5
t-27 -202.5q0 -213 141.5 -320.5t401.5 -107.5q107 0 203 15.5t162 39.5t114.5 53t71.5 57t23 50q0 39 -38 58t-134 40l-164 37q-73 15 -125.5 46.5t-81 74t-41 87t-12.5 95.5q0 193 137 323t342 130q74 0 134 -23t109 -70.5t87 -106t79 -144.5l21 -43q56 -121 88 -166
q360 628 776 628q129 0 230.5 -67t153.5 -170.5t52 -220.5q0 -119 -47 -211q61 -21 156 -21zM1892 221h496q189 0 299.5 52.5t110.5 158.5q0 99 -82.5 177.5t-216.5 78.5q-93 0 -183.5 -36.5t-169.5 -102t-147.5 -147t-130.5 -181.5h24z" />
    <glyph glyph-name="uniFD07.liga" unicode="&#xfebf;&#xfef0;" horiz-adv-x="3061" 
d="M2525 1087q-48 0 -80 33t-32 78q0 47 31.5 80t80.5 33q47 0 79 -33.5t32 -79.5q0 -45 -32 -78t-79 -33zM2523 911q129 0 230.5 -67t153.5 -170.5t52 -220.5q0 -215 -150 -334t-450 -119h-481q-50 0 -88 6.5t-70 25t-55.5 39.5t-50 62.5t-46.5 81t-52 107.5l-21 40
q-62 135 -133.5 194.5t-173.5 59.5q-113 0 -201 -64t-88 -146q0 -91 170 -130l135 -26q157 -33 229 -93.5t72 -189.5q0 -65 -29.5 -129t-92 -123.5t-150 -105.5t-214 -73.5t-274.5 -27.5q-324 0 -506 164.5t-182 442.5q0 254 117 516l152 -53q-43 -100 -70 -217.5
t-27 -202.5q0 -213 141.5 -320.5t401.5 -107.5q107 0 203 15.5t162 39.5t114.5 53t71.5 57t23 50q0 39 -38 58t-134 40l-164 37q-73 15 -125.5 46.5t-81 74t-41 87t-12.5 95.5q0 193 137 323t342 130q74 0 134 -23t109 -70.5t87 -106t79 -144.5l21 -43q56 -121 88 -166
q360 628 776 628zM1892 221h496q189 0 299.5 52.5t110.5 158.5q0 99 -82.5 177.5t-216.5 78.5q-93 0 -183.5 -36.5t-169.5 -102t-147.5 -147t-130.5 -181.5h24z" />
    <glyph glyph-name="uniFD24.liga" unicode="&#xfec0;&#xfef2;" horiz-adv-x="3067" 
d="M2523 1087q-48 0 -80.5 33t-32.5 78q0 47 32 80t81 33q47 0 79 -33.5t32 -79.5q0 -45 -32 -78t-79 -33zM3068 221l35 -6l-11 -209l-34 -6q-204 0 -275 100q-148 -100 -424 -100h-481q-50 0 -88 6.5t-70 25t-55.5 39.5t-50 62.5t-46.5 81t-52 107.5l-21 40
q-62 135 -133.5 194.5t-173.5 59.5q-113 0 -201 -64t-88 -146q0 -91 170 -130l135 -26q157 -33 229 -93.5t72 -189.5q0 -65 -29.5 -129t-92 -123.5t-150 -105.5t-214 -73.5t-274.5 -27.5q-324 0 -506 164.5t-182 442.5q0 254 117 516l152 -53q-43 -100 -70 -217.5
t-27 -202.5q0 -213 141.5 -320.5t401.5 -107.5q107 0 203 15.5t162 39.5t114.5 53t71.5 57t23 50q0 39 -38 58t-134 40l-164 37q-73 15 -125.5 46.5t-81 74t-41 87t-12.5 95.5q0 193 137 323t342 130q74 0 134 -23t109 -70.5t87 -106t79 -144.5l21 -43q56 -121 88 -166
q360 628 776 628q129 0 230.5 -67t153.5 -170.5t52 -220.5q0 -119 -47 -211q61 -21 156 -21zM1892 221h496q189 0 299.5 52.5t110.5 158.5q0 99 -82.5 177.5t-216.5 78.5q-93 0 -183.5 -36.5t-169.5 -102t-147.5 -147t-130.5 -181.5h24zM653 -641q43 0 73 -30.5t30 -71.5
q0 -43 -29.5 -73t-73.5 -30q-41 0 -71.5 30t-30.5 73q0 41 30.5 71.5t71.5 30.5zM922 -641q41 0 71.5 -30.5t30.5 -71.5q0 -43 -30 -73t-72 -30q-44 0 -73.5 30t-29.5 73q0 42 29.5 72t73.5 30z" />
    <glyph glyph-name="uniFD08.liga" unicode="&#xfebf;&#xfef2;" horiz-adv-x="3061" 
d="M2525 1087q-48 0 -80 33t-32 78q0 47 31.5 80t80.5 33q47 0 79 -33.5t32 -79.5q0 -45 -32 -78t-79 -33zM2523 911q129 0 230.5 -67t153.5 -170.5t52 -220.5q0 -215 -150 -334t-450 -119h-481q-50 0 -88 6.5t-70 25t-55.5 39.5t-50 62.5t-46.5 81t-52 107.5l-21 40
q-62 135 -133.5 194.5t-173.5 59.5q-113 0 -201 -64t-88 -146q0 -91 170 -130l135 -26q157 -33 229 -93.5t72 -189.5q0 -65 -29.5 -129t-92 -123.5t-150 -105.5t-214 -73.5t-274.5 -27.5q-324 0 -506 164.5t-182 442.5q0 254 117 516l152 -53q-43 -100 -70 -217.5
t-27 -202.5q0 -213 141.5 -320.5t401.5 -107.5q107 0 203 15.5t162 39.5t114.5 53t71.5 57t23 50q0 39 -38 58t-134 40l-164 37q-73 15 -125.5 46.5t-81 74t-41 87t-12.5 95.5q0 193 137 323t342 130q74 0 134 -23t109 -70.5t87 -106t79 -144.5l21 -43q56 -121 88 -166
q360 628 776 628zM1892 221h496q189 0 299.5 52.5t110.5 158.5q0 99 -82.5 177.5t-216.5 78.5q-93 0 -183.5 -36.5t-169.5 -102t-147.5 -147t-130.5 -181.5h24zM653 -641q43 0 73 -30.5t30 -71.5q0 -43 -29.5 -73t-73.5 -30q-41 0 -71.5 30t-30.5 73q0 41 30.5 71.5
t71.5 30.5zM922 -641q41 0 71.5 -30.5t30.5 -71.5q0 -43 -30 -73t-72 -30q-44 0 -73.5 30t-29.5 73q0 42 29.5 72t73.5 30z" />
    <glyph glyph-name="uniFEC0FE8A.liga" unicode="&#xfec0;&#xfe8a;" horiz-adv-x="3067" 
d="M2523 1087q-48 0 -80.5 33t-32.5 78q0 47 32 80t81 33q47 0 79 -33.5t32 -79.5q0 -45 -32 -78t-79 -33zM285 850h147v-119h-379v113h62q-27 30 -27 84q0 71 48 123.5t130 52.5q49 0 89.5 -24t58.5 -58l-54 -86l-10 8q-10 7 -13.5 9t-13.5 7.5t-17 8t-17.5 4.5t-20.5 2
q-37 0 -64.5 -19t-27.5 -47q0 -26 29 -42.5t80 -16.5zM3068 221l35 -6l-11 -209l-34 -6q-204 0 -275 100q-148 -100 -424 -100h-481q-50 0 -88 6.5t-70 25t-55.5 39.5t-50 62.5t-46.5 81t-52 107.5l-21 40q-62 135 -133.5 194.5t-173.5 59.5q-113 0 -201 -64t-88 -146
q0 -91 170 -130l135 -26q157 -33 229 -93.5t72 -189.5q0 -65 -29.5 -129t-92 -123.5t-150 -105.5t-214 -73.5t-274.5 -27.5q-324 0 -506 164.5t-182 442.5q0 254 117 516l152 -53q-43 -100 -70 -217.5t-27 -202.5q0 -213 141.5 -320.5t401.5 -107.5q107 0 203 15.5t162 39.5
t114.5 53t71.5 57t23 50q0 39 -38 58t-134 40l-164 37q-73 15 -125.5 46.5t-81 74t-41 87t-12.5 95.5q0 193 137 323t342 130q74 0 134 -23t109 -70.5t87 -106t79 -144.5l21 -43q56 -121 88 -166q360 628 776 628q129 0 230.5 -67t153.5 -170.5t52 -220.5q0 -119 -47 -211
q61 -21 156 -21zM1892 221h496q189 0 299.5 52.5t110.5 158.5q0 99 -82.5 177.5t-216.5 78.5q-93 0 -183.5 -36.5t-169.5 -102t-147.5 -147t-130.5 -181.5h24z" />
    <glyph glyph-name="uniFEBFFE8A.liga" unicode="&#xfebf;&#xfe8a;" horiz-adv-x="3061" 
d="M2525 1087q-48 0 -80 33t-32 78q0 47 31.5 80t80.5 33q47 0 79 -33.5t32 -79.5q0 -45 -32 -78t-79 -33zM287 850h147v-119h-379v113h62q-27 30 -27 84q0 71 48 123.5t130 52.5q49 0 89.5 -24t58.5 -58l-54 -86l-10 8q-10 7 -13.5 9t-13.5 7.5t-17 8t-17.5 4.5t-20.5 2
q-37 0 -64.5 -19t-27.5 -47q0 -26 29 -42.5t80 -16.5zM2523 911q129 0 230.5 -67t153.5 -170.5t52 -220.5q0 -215 -150 -334t-450 -119h-481q-50 0 -88 6.5t-70 25t-55.5 39.5t-50 62.5t-46.5 81t-52 107.5l-21 40q-62 135 -133.5 194.5t-173.5 59.5q-113 0 -201 -64
t-88 -146q0 -91 170 -130l135 -26q157 -33 229 -93.5t72 -189.5q0 -65 -29.5 -129t-92 -123.5t-150 -105.5t-214 -73.5t-274.5 -27.5q-324 0 -506 164.5t-182 442.5q0 254 117 516l152 -53q-43 -100 -70 -217.5t-27 -202.5q0 -213 141.5 -320.5t401.5 -107.5q107 0 203 15.5
t162 39.5t114.5 53t71.5 57t23 50q0 39 -38 58t-134 40l-164 37q-73 15 -125.5 46.5t-81 74t-41 87t-12.5 95.5q0 193 137 323t342 130q74 0 134 -23t109 -70.5t87 -106t79 -144.5l21 -43q56 -121 88 -166q360 628 776 628zM1892 221h496q189 0 299.5 52.5t110.5 158.5
q0 99 -82.5 177.5t-216.5 78.5q-93 0 -183.5 -36.5t-169.5 -102t-147.5 -147t-130.5 -181.5h24z" />
    <glyph glyph-name="uniFC31.liga" unicode="&#xfed3;&#xfef0;" horiz-adv-x="1542" 
d="M1010 1391q-49 0 -81 32.5t-32 77.5q0 47 32 80t81 33q47 0 78.5 -33.5t31.5 -79.5q0 -45 -31.5 -77.5t-78.5 -32.5zM1272 268q77 -27 122.5 -95t45.5 -165q0 -94 -46.5 -181.5t-134.5 -159.5t-232.5 -115.5t-324.5 -43.5q-304 0 -474.5 160.5t-170.5 429.5
q0 249 117 512l150 -55q-44 -98 -69.5 -210.5t-25.5 -199.5q0 -203 130.5 -309t367.5 -106q134 0 243 25t173.5 64.5t98.5 83t34 85.5q0 56 -48.5 84t-164.5 28h-234v203h267q66 53 106 129t41 164q-81 -150 -299 -150q-163 0 -251.5 90t-88.5 234q0 191 112.5 317.5
t293.5 126.5q123 0 213.5 -71t136 -191.5t45.5 -273.5q0 -256 -133 -410zM971 643q178 0 270 96q-4 31 -14.5 64t-31.5 69t-49 63.5t-70 45.5t-91 18q-106 0 -165.5 -59.5t-59.5 -136.5q0 -76 56 -118t155 -42z" />
    <glyph glyph-name="uniFC32.liga" unicode="&#xfed3;&#xfef2;" horiz-adv-x="1542" 
d="M1010 1391q-49 0 -81 32.5t-32 77.5q0 47 32 80t81 33q47 0 78.5 -33.5t31.5 -79.5q0 -45 -31.5 -77.5t-78.5 -32.5zM1272 268q77 -27 122.5 -95t45.5 -165q0 -94 -46.5 -181.5t-134.5 -159.5t-232.5 -115.5t-324.5 -43.5q-304 0 -474.5 160.5t-170.5 429.5
q0 249 117 512l150 -55q-44 -98 -69.5 -210.5t-25.5 -199.5q0 -203 130.5 -309t367.5 -106q134 0 243 25t173.5 64.5t98.5 83t34 85.5q0 56 -48.5 84t-164.5 28h-234v203h267q66 53 106 129t41 164q-81 -150 -299 -150q-163 0 -251.5 90t-88.5 234q0 191 112.5 317.5
t293.5 126.5q123 0 213.5 -71t136 -191.5t45.5 -273.5q0 -256 -133 -410zM971 643q178 0 270 96q-4 31 -14.5 64t-31.5 69t-49 63.5t-70 45.5t-91 18q-106 0 -165.5 -59.5t-59.5 -136.5q0 -76 56 -118t155 -42zM606 -641q42 0 72.5 -30.5t30.5 -71.5q0 -43 -29.5 -73
t-73.5 -30q-42 0 -72 30t-30 73q0 41 30.5 71.5t71.5 30.5zM874 -641q41 0 72 -30.5t31 -71.5q0 -42 -30.5 -72.5t-72.5 -30.5q-44 0 -73 30t-29 73q0 42 29 72t73 30z" />
    <glyph glyph-name="uniFED3FE8A.liga" unicode="&#xfed3;&#xfe8a;" horiz-adv-x="1542" 
d="M1010 1391q-49 0 -81 32.5t-32 77.5q0 47 32 80t81 33q47 0 78.5 -33.5t31.5 -79.5q0 -45 -31.5 -77.5t-78.5 -32.5zM1272 268q77 -27 122.5 -95t45.5 -165q0 -94 -46.5 -181.5t-134.5 -159.5t-232.5 -115.5t-324.5 -43.5q-304 0 -474.5 160.5t-170.5 429.5
q0 249 117 512l150 -55q-44 -98 -69.5 -210.5t-25.5 -199.5q0 -203 130.5 -309t367.5 -106q134 0 243 25t173.5 64.5t98.5 83t34 85.5q0 56 -48.5 84t-164.5 28h-234v203h267q66 53 106 129t41 164q-81 -150 -299 -150q-163 0 -251.5 90t-88.5 234q0 191 112.5 317.5
t293.5 126.5q123 0 213.5 -71t136 -191.5t45.5 -273.5q0 -256 -133 -410zM287 827h147v-118h-379v112h62q-27 30 -27 84q0 71 48 123.5t130 52.5q49 0 89.5 -24t58.5 -58l-54 -86l-10 7q-10 8 -13.5 10t-13.5 7.5t-17 8t-17.5 4.5t-20.5 2q-37 0 -64.5 -18.5t-27.5 -46.5
q0 -26 29 -43t80 -17zM971 643q178 0 270 96q-4 31 -14.5 64t-31.5 69t-49 63.5t-70 45.5t-91 18q-106 0 -165.5 -59.5t-59.5 -136.5q0 -76 56 -118t155 -42z" />
    <glyph glyph-name="uniFB6CFEF0.liga" unicode="&#xfb6c;&#xfef0;" horiz-adv-x="1542" 
d="M1012 1628q-41 0 -70 29t-29 69q0 42 28 71.5t71 29.5t70.5 -29.5t27.5 -71.5q0 -40 -28.5 -69t-69.5 -29zM885 1395q-42 0 -70.5 29t-28.5 69q0 41 28 69.5t71 28.5q44 0 71 -28t27 -70t-27 -70t-71 -28zM1038 1493q0 42 27.5 70t71.5 28t71 -28t27 -70
q0 -41 -27.5 -69.5t-70.5 -28.5q-44 0 -71.5 28t-27.5 70zM1272 268q77 -27 122.5 -95t45.5 -165q0 -94 -46.5 -181.5t-134.5 -159.5t-232.5 -115.5t-324.5 -43.5q-304 0 -474.5 160.5t-170.5 429.5q0 249 117 512l150 -55q-44 -98 -69.5 -210.5t-25.5 -199.5
q0 -203 130.5 -309t367.5 -106q134 0 243 25t173.5 64.5t98.5 83t34 85.5q0 56 -48.5 84t-164.5 28h-234v203h267q66 53 106 129t41 164q-81 -150 -299 -150q-163 0 -251.5 90t-88.5 234q0 191 112.5 317.5t293.5 126.5q123 0 213.5 -71t136 -191.5t45.5 -273.5
q0 -256 -133 -410zM971 643q178 0 270 96q-4 31 -14.5 64t-31.5 69t-49 63.5t-70 45.5t-91 18q-106 0 -165.5 -59.5t-59.5 -136.5q0 -76 56 -118t155 -42z" />
    <glyph glyph-name="uniFB6CFEF2.liga" unicode="&#xfb6c;&#xfef2;" horiz-adv-x="1542" 
d="M1012 1628q-41 0 -70 29t-29 69q0 42 28 71.5t71 29.5t70.5 -29.5t27.5 -71.5q0 -40 -28.5 -69t-69.5 -29zM885 1395q-42 0 -70.5 29t-28.5 69q0 41 28 69.5t71 28.5q44 0 71 -28t27 -70t-27 -70t-71 -28zM1038 1493q0 42 27.5 70t71.5 28t71 -28t27 -70
q0 -41 -27.5 -69.5t-70.5 -28.5q-44 0 -71.5 28t-27.5 70zM1272 268q77 -27 122.5 -95t45.5 -165q0 -94 -46.5 -181.5t-134.5 -159.5t-232.5 -115.5t-324.5 -43.5q-304 0 -474.5 160.5t-170.5 429.5q0 249 117 512l150 -55q-44 -98 -69.5 -210.5t-25.5 -199.5
q0 -203 130.5 -309t367.5 -106q134 0 243 25t173.5 64.5t98.5 83t34 85.5q0 56 -48.5 84t-164.5 28h-234v203h267q66 53 106 129t41 164q-81 -150 -299 -150q-163 0 -251.5 90t-88.5 234q0 191 112.5 317.5t293.5 126.5q123 0 213.5 -71t136 -191.5t45.5 -273.5
q0 -256 -133 -410zM971 643q178 0 270 96q-4 31 -14.5 64t-31.5 69t-49 63.5t-70 45.5t-91 18q-106 0 -165.5 -59.5t-59.5 -136.5q0 -76 56 -118t155 -42zM606 -641q42 0 72.5 -30.5t30.5 -71.5q0 -43 -29.5 -73t-73.5 -30q-42 0 -72 30t-30 73q0 41 30.5 71.5t71.5 30.5z
M874 -641q41 0 72 -30.5t31 -71.5q0 -42 -30.5 -72.5t-72.5 -30.5q-44 0 -73 30t-29 73q0 42 29 72t73 30z" />
    <glyph glyph-name="uniFB6CFE8A.liga" unicode="&#xfb6c;&#xfe8a;" horiz-adv-x="1542" 
d="M1012 1628q-41 0 -70 29t-29 69q0 42 28 71.5t71 29.5t70.5 -29.5t27.5 -71.5q0 -40 -28.5 -69t-69.5 -29zM885 1395q-42 0 -70.5 29t-28.5 69q0 41 28 69.5t71 28.5q44 0 71 -28t27 -70t-27 -70t-71 -28zM1038 1493q0 42 27.5 70t71.5 28t71 -28t27 -70
q0 -41 -27.5 -69.5t-70.5 -28.5q-44 0 -71.5 28t-27.5 70zM1272 268q77 -27 122.5 -95t45.5 -165q0 -94 -46.5 -181.5t-134.5 -159.5t-232.5 -115.5t-324.5 -43.5q-304 0 -474.5 160.5t-170.5 429.5q0 249 117 512l150 -55q-44 -98 -69.5 -210.5t-25.5 -199.5
q0 -203 130.5 -309t367.5 -106q134 0 243 25t173.5 64.5t98.5 83t34 85.5q0 56 -48.5 84t-164.5 28h-234v203h267q66 53 106 129t41 164q-81 -150 -299 -150q-163 0 -251.5 90t-88.5 234q0 191 112.5 317.5t293.5 126.5q123 0 213.5 -71t136 -191.5t45.5 -273.5
q0 -256 -133 -410zM287 827h147v-118h-379v112h62q-27 30 -27 84q0 71 48 123.5t130 52.5q49 0 89.5 -24t58.5 -58l-54 -86l-10 7q-10 8 -13.5 10t-13.5 7.5t-17 8t-17.5 4.5t-20.5 2q-37 0 -64.5 -18.5t-27.5 -46.5q0 -26 29 -43t80 -17zM971 643q178 0 270 96
q-4 31 -14.5 64t-31.5 69t-49 63.5t-70 45.5t-91 18q-106 0 -165.5 -59.5t-59.5 -136.5q0 -76 56 -118t155 -42z" />
    <glyph glyph-name="uniFC35.liga" unicode="&#xfed7;&#xfef0;" horiz-adv-x="1542" 
d="M874 1389q-42 0 -72 30t-30 72q0 41 30.5 71.5t71.5 30.5q42 0 72.5 -30.5t30.5 -71.5q0 -43 -29.5 -72.5t-73.5 -29.5zM1143 1389q-44 0 -73.5 29.5t-29.5 72.5q0 42 29.5 72t73.5 30q41 0 71.5 -30.5t30.5 -71.5q0 -42 -30 -72t-72 -30zM1272 268q77 -27 122.5 -95
t45.5 -165q0 -94 -46.5 -181.5t-134.5 -159.5t-232.5 -115.5t-324.5 -43.5q-304 0 -474.5 160.5t-170.5 429.5q0 249 117 512l150 -55q-44 -98 -69.5 -210.5t-25.5 -199.5q0 -203 130.5 -309t367.5 -106q134 0 243 25t173.5 64.5t98.5 83t34 85.5q0 56 -48.5 84t-164.5 28
h-234v203h267q66 53 106 129t41 164q-81 -150 -299 -150q-163 0 -251.5 90t-88.5 234q0 191 112.5 317.5t293.5 126.5q123 0 213.5 -71t136 -191.5t45.5 -273.5q0 -256 -133 -410zM971 643q178 0 270 96q-4 31 -14.5 64t-31.5 69t-49 63.5t-70 45.5t-91 18
q-106 0 -165.5 -59.5t-59.5 -136.5q0 -76 56 -118t155 -42z" />
    <glyph glyph-name="uniFC36.liga" unicode="&#xfed7;&#xfef2;" horiz-adv-x="1542" 
d="M874 1389q-42 0 -72 30t-30 72q0 41 30.5 71.5t71.5 30.5q42 0 72.5 -30.5t30.5 -71.5q0 -43 -29.5 -72.5t-73.5 -29.5zM1143 1389q-44 0 -73.5 29.5t-29.5 72.5q0 42 29.5 72t73.5 30q41 0 71.5 -30.5t30.5 -71.5q0 -42 -30 -72t-72 -30zM1272 268q77 -27 122.5 -95
t45.5 -165q0 -94 -46.5 -181.5t-134.5 -159.5t-232.5 -115.5t-324.5 -43.5q-304 0 -474.5 160.5t-170.5 429.5q0 249 117 512l150 -55q-44 -98 -69.5 -210.5t-25.5 -199.5q0 -203 130.5 -309t367.5 -106q134 0 243 25t173.5 64.5t98.5 83t34 85.5q0 56 -48.5 84t-164.5 28
h-234v203h267q66 53 106 129t41 164q-81 -150 -299 -150q-163 0 -251.5 90t-88.5 234q0 191 112.5 317.5t293.5 126.5q123 0 213.5 -71t136 -191.5t45.5 -273.5q0 -256 -133 -410zM971 643q178 0 270 96q-4 31 -14.5 64t-31.5 69t-49 63.5t-70 45.5t-91 18
q-106 0 -165.5 -59.5t-59.5 -136.5q0 -76 56 -118t155 -42zM606 -641q42 0 72.5 -30.5t30.5 -71.5q0 -43 -29.5 -73t-73.5 -30q-42 0 -72 30t-30 73q0 41 30.5 71.5t71.5 30.5zM874 -641q41 0 72 -30.5t31 -71.5q0 -42 -30.5 -72.5t-72.5 -30.5q-44 0 -73 30t-29 73
q0 42 29 72t73 30z" />
    <glyph glyph-name="uniFED7FE8A.liga" unicode="&#xfed7;&#xfe8a;" horiz-adv-x="1542" 
d="M874 1389q-42 0 -72 30t-30 72q0 41 30.5 71.5t71.5 30.5q42 0 72.5 -30.5t30.5 -71.5q0 -43 -29.5 -72.5t-73.5 -29.5zM1143 1389q-44 0 -73.5 29.5t-29.5 72.5q0 42 29.5 72t73.5 30q41 0 71.5 -30.5t30.5 -71.5q0 -42 -30 -72t-72 -30zM1272 268q77 -27 122.5 -95
t45.5 -165q0 -94 -46.5 -181.5t-134.5 -159.5t-232.5 -115.5t-324.5 -43.5q-304 0 -474.5 160.5t-170.5 429.5q0 249 117 512l150 -55q-44 -98 -69.5 -210.5t-25.5 -199.5q0 -203 130.5 -309t367.5 -106q134 0 243 25t173.5 64.5t98.5 83t34 85.5q0 56 -48.5 84t-164.5 28
h-234v203h267q66 53 106 129t41 164q-81 -150 -299 -150q-163 0 -251.5 90t-88.5 234q0 191 112.5 317.5t293.5 126.5q123 0 213.5 -71t136 -191.5t45.5 -273.5q0 -256 -133 -410zM287 827h147v-118h-379v112h62q-27 30 -27 84q0 71 48 123.5t130 52.5q49 0 89.5 -24
t58.5 -58l-54 -86l-10 7q-10 8 -13.5 10t-13.5 7.5t-17 8t-17.5 4.5t-20.5 2q-37 0 -64.5 -18.5t-27.5 -46.5q0 -26 29 -43t80 -17zM971 643q178 0 270 96q-4 31 -14.5 64t-31.5 69t-49 63.5t-70 45.5t-91 18q-106 0 -165.5 -59.5t-59.5 -136.5q0 -76 56 -118t155 -42z" />
    <glyph glyph-name="uniFC83.liga" unicode="&#xfedc;&#xfef0;" horiz-adv-x="2177" 
d="M2177 221l35 -6l-8 -209l-35 -6h-25q-72 0 -130 12.5t-104.5 33.5t-99.5 66t-97 91.5t-116 128.5q-39 -141 -198 -193q35 -52 35 -131q0 -94 -46 -181.5t-133.5 -159.5t-231 -115.5t-321.5 -43.5q-304 0 -474.5 160.5t-170.5 429.5q0 249 117 512l150 -55
q-43 -97 -68 -212.5t-25 -203.5q0 -202 129.5 -305.5t366.5 -103.5q133 0 241 25t171 64.5t96 83t33 85.5q0 49 -47 73.5t-162 24.5h-197v209h228q200 0 285 31.5t112 111.5l-330 387v185l860 469l74 -174l-748 -400l402 -448q52 -59 81.5 -89.5t71 -64t78 -48t87 -24.5
t114.5 -10z" />
    <glyph glyph-name="uniFC3D.liga" unicode="&#xfedb;&#xfef0;" horiz-adv-x="1685" 
d="M1458 401q0 -128 -92 -211q68 -64 68 -182q0 -75 -27.5 -146t-86.5 -135.5t-143.5 -113t-207 -77t-267.5 -28.5q-304 0 -474.5 160.5t-170.5 429.5q0 249 117 512l150 -55q-43 -97 -68 -212.5t-25 -203.5q0 -202 129.5 -305.5t366.5 -103.5q133 0 241 25t171 64.5t96 83
t33 85.5q0 47 -37.5 71.5t-126.5 24.5h-266v207h407q53 39 53 88q0 80 -107 166q-77 60 -318 199h-1l-1 1h-1l-1 1l-1 1h-1l-1 1h-1l-1 1h-1l-1 1l-1 1h-1l-1 1h-1l-1 1h-1l-1 1l-1 1h-1l-1 1h-1l-1 1h-1l-1 1l-1 1h-1l-2 1l-1 1h-1l-1 1h-1l-1 1l-1 1h-1l-1 1h-1l-1 1h-1
l-1 1l-1 1h-1l-1 1h-1l-1 1h-1l-1 1l-1 1h-1l-1 1h-1l-1 1h-1l-1 1h-1l-1 1l-1 1h-1l-1 1h-1l-1 1h-1l-1 1l-1 1h-1l-1 1h-1l-1 1h-1l-1 1l-1 1h-1l-1 1v209l792 463l70 -170l-670 -383q69 -41 107 -65t95.5 -62.5t89.5 -66t70 -66.5t58 -74.5t33.5 -79.5t13.5 -90z" />
    <glyph glyph-name="uniFC84.liga" unicode="&#xfedc;&#xfef2;" horiz-adv-x="2177" 
d="M2177 221l35 -6l-8 -209l-35 -6h-25q-72 0 -130 12.5t-104.5 33.5t-99.5 66t-97 91.5t-116 128.5q-39 -141 -198 -193q35 -52 35 -131q0 -94 -46 -181.5t-133.5 -159.5t-231 -115.5t-321.5 -43.5q-304 0 -474.5 160.5t-170.5 429.5q0 249 117 512l150 -55
q-43 -97 -68 -212.5t-25 -203.5q0 -202 129.5 -305.5t366.5 -103.5q133 0 241 25t171 64.5t96 83t33 85.5q0 49 -47 73.5t-162 24.5h-197v209h228q200 0 285 31.5t112 111.5l-330 387v185l860 469l74 -174l-748 -400l402 -448q52 -59 81.5 -89.5t71 -64t78 -48t87 -24.5
t114.5 -10zM614 -641q42 0 72.5 -30.5t30.5 -71.5q0 -43 -29.5 -73t-73.5 -30q-42 0 -72 30t-30 73q0 41 30.5 71.5t71.5 30.5zM883 -641q41 0 71.5 -30.5t30.5 -71.5q0 -43 -30.5 -73t-71.5 -30q-44 0 -73.5 30t-29.5 73q0 42 29.5 72t73.5 30z" />
    <glyph glyph-name="uniFC3E.liga" unicode="&#xfedb;&#xfef2;" horiz-adv-x="1685" 
d="M1458 401q0 -128 -92 -211q68 -64 68 -182q0 -75 -27.5 -146t-86.5 -135.5t-143.5 -113t-207 -77t-267.5 -28.5q-304 0 -474.5 160.5t-170.5 429.5q0 249 117 512l150 -55q-43 -97 -68 -212.5t-25 -203.5q0 -202 129.5 -305.5t366.5 -103.5q133 0 241 25t171 64.5t96 83
t33 85.5q0 47 -37.5 71.5t-126.5 24.5h-266v207h407q53 39 53 88q0 80 -107 166q-77 60 -318 199h-1l-1 1h-1l-1 1l-1 1h-1l-1 1h-1l-1 1h-1l-1 1l-1 1h-1l-1 1h-1l-1 1h-1l-1 1l-1 1h-1l-1 1h-1l-1 1h-1l-1 1l-1 1h-1l-2 1l-1 1h-1l-1 1h-1l-1 1l-1 1h-1l-1 1h-1l-1 1h-1
l-1 1l-1 1h-1l-1 1h-1l-1 1h-1l-1 1l-1 1h-1l-1 1h-1l-1 1h-1l-1 1h-1l-1 1l-1 1h-1l-1 1h-1l-1 1h-1l-1 1l-1 1h-1l-1 1h-1l-1 1h-1l-1 1l-1 1h-1l-1 1v209l792 463l70 -170l-670 -383q69 -41 107 -65t95.5 -62.5t89.5 -66t70 -66.5t58 -74.5t33.5 -79.5t13.5 -90z
M610 -641q42 0 72.5 -30.5t30.5 -71.5q0 -43 -29.5 -73t-73.5 -30q-42 0 -72 30t-30 73q0 41 30.5 71.5t71.5 30.5zM879 -641q41 0 71.5 -30.5t30.5 -71.5q0 -43 -30.5 -73t-71.5 -30q-44 0 -73.5 30t-29.5 73q0 42 29.5 72t73.5 30z" />
    <glyph glyph-name="uniFEDCFE8A.liga" unicode="&#xfedc;&#xfe8a;" horiz-adv-x="2177" 
d="M2177 221l35 -6l-8 -209l-35 -6h-25q-72 0 -130 12.5t-104.5 33.5t-99.5 66t-97 91.5t-116 128.5q-39 -141 -198 -193q35 -52 35 -131q0 -94 -46 -181.5t-133.5 -159.5t-231 -115.5t-321.5 -43.5q-304 0 -474.5 160.5t-170.5 429.5q0 249 117 512l150 -55
q-43 -97 -68 -212.5t-25 -203.5q0 -202 129.5 -305.5t366.5 -103.5q133 0 241 25t171 64.5t96 83t33 85.5q0 49 -47 73.5t-162 24.5h-197v209h228q200 0 285 31.5t112 111.5l-330 387v185l860 469l74 -174l-748 -400l402 -448q52 -59 81.5 -89.5t71 -64t78 -48t87 -24.5
t114.5 -10zM287 827h147v-118h-379v112h62q-27 30 -27 84q0 71 48 123.5t130 52.5q49 0 89.5 -24t58.5 -58l-54 -86l-10 7q-10 8 -13.5 10t-13.5 7.5t-17 8t-17.5 4.5t-20.5 2q-37 0 -64.5 -18.5t-27.5 -46.5q0 -26 29 -43t80 -17z" />
    <glyph glyph-name="uniFEDBFE8A.liga" unicode="&#xfedb;&#xfe8a;" horiz-adv-x="1685" 
d="M1458 401q0 -128 -92 -211q68 -64 68 -182q0 -75 -27.5 -146t-86.5 -135.5t-143.5 -113t-207 -77t-267.5 -28.5q-304 0 -474.5 160.5t-170.5 429.5q0 249 117 512l150 -55q-43 -97 -68 -212.5t-25 -203.5q0 -202 129.5 -305.5t366.5 -103.5q133 0 241 25t171 64.5t96 83
t33 85.5q0 47 -37.5 71.5t-126.5 24.5h-266v207h407q53 39 53 88q0 80 -107 166q-77 60 -318 199h-1l-1 1h-1l-1 1l-1 1h-1l-1 1h-1l-1 1h-1l-1 1l-1 1h-1l-1 1h-1l-1 1h-1l-1 1l-1 1h-1l-1 1h-1l-1 1h-1l-1 1l-1 1h-1l-2 1l-1 1h-1l-1 1h-1l-1 1l-1 1h-1l-1 1h-1l-1 1h-1
l-1 1l-1 1h-1l-1 1h-1l-1 1h-1l-1 1l-1 1h-1l-1 1h-1l-1 1h-1l-1 1h-1l-1 1l-1 1h-1l-1 1h-1l-1 1h-1l-1 1l-1 1h-1l-1 1h-1l-1 1h-1l-1 1l-1 1h-1l-1 1v209l792 463l70 -170l-670 -383q69 -41 107 -65t95.5 -62.5t89.5 -66t70 -66.5t58 -74.5t33.5 -79.5t13.5 -90zM289 827
h147v-118h-379v112h62q-27 30 -27 84q0 71 48 123.5t130 52.5q49 0 89.5 -24t58.5 -58l-53 -86q-1 1 -9 6.5t-11 7.5t-11 7t-14 7t-14 5.5t-16.5 4.5t-17.5 1q-37 0 -64.5 -18.5t-27.5 -46.5q0 -26 29 -43t80 -17z" />
    <glyph glyph-name="uniFB91FEF2.liga" unicode="&#xfb91;&#xfef2;" horiz-adv-x="2177" 
d="M2177 221l35 -6l-8 -209l-35 -6h-25q-72 0 -130 12.5t-104.5 33.5t-99.5 66t-97 91.5t-116 128.5q-39 -141 -198 -193q35 -52 35 -131q0 -94 -46 -181.5t-133.5 -159.5t-231 -115.5t-321.5 -43.5q-304 0 -474.5 160.5t-170.5 429.5q0 249 117 512l150 -55
q-43 -97 -68 -212.5t-25 -203.5q0 -202 129.5 -305.5t366.5 -103.5q133 0 241 25t171 64.5t96 83t33 85.5q0 49 -47 73.5t-162 24.5h-197v209h228q200 0 285 31.5t112 111.5l-330 387v185l860 469l74 -174l-748 -400l402 -448q52 -59 81.5 -89.5t71 -64t78 -48t87 -24.5
t114.5 -10z" />
    <glyph glyph-name="uniFB90FEF2.liga" unicode="&#xfb90;&#xfef2;" horiz-adv-x="1685" 
d="M1458 401q0 -128 -92 -211q68 -64 68 -182q0 -75 -27.5 -146t-86.5 -135.5t-143.5 -113t-207 -77t-267.5 -28.5q-304 0 -474.5 160.5t-170.5 429.5q0 249 117 512l150 -55q-43 -97 -68 -212.5t-25 -203.5q0 -202 129.5 -305.5t366.5 -103.5q133 0 241 25t171 64.5t96 83
t33 85.5q0 47 -37.5 71.5t-126.5 24.5h-266v207h407q53 39 53 88q0 80 -107 166q-77 60 -318 199h-1l-1 1h-1l-1 1l-1 1h-1l-1 1h-1l-1 1h-1l-1 1l-1 1h-1l-1 1h-1l-1 1h-1l-1 1l-1 1h-1l-1 1h-1l-1 1h-1l-1 1l-1 1h-1l-2 1l-1 1h-1l-1 1h-1l-1 1l-1 1h-1l-1 1h-1l-1 1h-1
l-1 1l-1 1h-1l-1 1h-1l-1 1h-1l-1 1l-1 1h-1l-1 1h-1l-1 1h-1l-1 1h-1l-1 1l-1 1h-1l-1 1h-1l-1 1h-1l-1 1l-1 1h-1l-1 1h-1l-1 1h-1l-1 1l-1 1h-1l-1 1v209l792 463l70 -170l-670 -383q69 -41 107 -65t95.5 -62.5t89.5 -66t70 -66.5t58 -74.5t33.5 -79.5t13.5 -90z" />
    <glyph glyph-name="uniFB91FE8A.liga" unicode="&#xfb91;&#xfe8a;" horiz-adv-x="2177" 
d="M2177 221l35 -6l-8 -209l-35 -6h-25q-72 0 -130 12.5t-104.5 33.5t-99.5 66t-97 91.5t-116 128.5q-39 -141 -198 -193q35 -52 35 -131q0 -94 -46 -181.5t-133.5 -159.5t-231 -115.5t-321.5 -43.5q-304 0 -474.5 160.5t-170.5 429.5q0 249 117 512l150 -55
q-43 -97 -68 -212.5t-25 -203.5q0 -202 129.5 -305.5t366.5 -103.5q133 0 241 25t171 64.5t96 83t33 85.5q0 49 -47 73.5t-162 24.5h-197v209h228q200 0 285 31.5t112 111.5l-330 387v185l860 469l74 -174l-748 -400l402 -448q52 -59 81.5 -89.5t71 -64t78 -48t87 -24.5
t114.5 -10zM287 827h147v-118h-379v112h62q-27 30 -27 84q0 71 48 123.5t130 52.5q49 0 89.5 -24t58.5 -58l-54 -86l-10 7q-10 8 -13.5 10t-13.5 7.5t-17 8t-17.5 4.5t-20.5 2q-37 0 -64.5 -18.5t-27.5 -46.5q0 -26 29 -43t80 -17z" />
    <glyph glyph-name="uniFB90FE8A.liga" unicode="&#xfb90;&#xfe8a;" horiz-adv-x="1685" 
d="M1458 401q0 -128 -92 -211q68 -64 68 -182q0 -75 -27.5 -146t-86.5 -135.5t-143.5 -113t-207 -77t-267.5 -28.5q-304 0 -474.5 160.5t-170.5 429.5q0 249 117 512l150 -55q-43 -97 -68 -212.5t-25 -203.5q0 -202 129.5 -305.5t366.5 -103.5q133 0 241 25t171 64.5t96 83
t33 85.5q0 47 -37.5 71.5t-126.5 24.5h-266v207h407q53 39 53 88q0 80 -107 166q-77 60 -318 199h-1l-1 1h-1l-1 1l-1 1h-1l-1 1h-1l-1 1h-1l-1 1l-1 1h-1l-1 1h-1l-1 1h-1l-1 1l-1 1h-1l-1 1h-1l-1 1h-1l-1 1l-1 1h-1l-2 1l-1 1h-1l-1 1h-1l-1 1l-1 1h-1l-1 1h-1l-1 1h-1
l-1 1l-1 1h-1l-1 1h-1l-1 1h-1l-1 1l-1 1h-1l-1 1h-1l-1 1h-1l-1 1h-1l-1 1l-1 1h-1l-1 1h-1l-1 1h-1l-1 1l-1 1h-1l-1 1h-1l-1 1h-1l-1 1l-1 1h-1l-1 1v209l792 463l70 -170l-670 -383q69 -41 107 -65t95.5 -62.5t89.5 -66t70 -66.5t58 -74.5t33.5 -79.5t13.5 -90zM289 827
h147v-118h-379v112h62q-27 30 -27 84q0 71 48 123.5t130 52.5q49 0 89.5 -24t58.5 -58l-53 -86q-1 1 -9 6.5t-11 7.5t-11 7t-14 7t-14 5.5t-16.5 4.5t-17.5 1q-37 0 -64.5 -18.5t-27.5 -46.5q0 -26 29 -43t80 -17z" />
    <glyph glyph-name="uniFB95FEF2.liga" unicode="&#xfb95;&#xfef2;" horiz-adv-x="2177" 
d="M1911 1708l43 -100l-799 -434l-43 100zM2177 221l35 -6l-8 -209l-35 -6h-25q-72 0 -130 12.5t-104.5 33.5t-99.5 66t-97 91.5t-116 128.5q-39 -141 -198 -193q35 -52 35 -131q0 -94 -46 -181.5t-133.5 -159.5t-231 -115.5t-321.5 -43.5q-304 0 -474.5 160.5t-170.5 429.5
q0 249 117 512l150 -55q-43 -97 -68 -212.5t-25 -203.5q0 -202 129.5 -305.5t366.5 -103.5q133 0 241 25t171 64.5t96 83t33 85.5q0 49 -47 73.5t-162 24.5h-197v209h228q200 0 285 31.5t112 111.5l-330 387v185l860 469l74 -174l-748 -400l402 -448q52 -59 81.5 -89.5
t71 -64t78 -48t87 -24.5t114.5 -10z" />
    <glyph glyph-name="uniFB94FEF2.liga" unicode="&#xfb94;&#xfef2;" horiz-adv-x="1685" 
d="M1491 1694l43 -99l-737 -436l-45 101zM1458 401q0 -128 -92 -211q68 -64 68 -182q0 -75 -27.5 -146t-86.5 -135.5t-143.5 -113t-207 -77t-267.5 -28.5q-304 0 -474.5 160.5t-170.5 429.5q0 249 117 512l150 -55q-43 -97 -68 -212.5t-25 -203.5q0 -202 129.5 -305.5
t366.5 -103.5q133 0 241 25t171 64.5t96 83t33 85.5q0 47 -37.5 71.5t-126.5 24.5h-266v207h407q53 39 53 88q0 80 -107 166q-77 60 -318 199h-1l-1 1h-1l-1 1l-1 1h-1l-1 1h-1l-1 1h-1l-1 1l-1 1h-1l-1 1h-1l-1 1h-1l-1 1l-1 1h-1l-1 1h-1l-1 1h-1l-1 1l-1 1h-1l-2 1l-1 1
h-1l-1 1h-1l-1 1l-1 1h-1l-1 1h-1l-1 1h-1l-1 1l-1 1h-1l-1 1h-1l-1 1h-1l-1 1l-1 1h-1l-1 1h-1l-1 1h-1l-1 1h-1l-1 1l-1 1h-1l-1 1h-1l-1 1h-1l-1 1l-1 1h-1l-1 1h-1l-1 1h-1l-1 1l-1 1h-1l-1 1v209l792 463l70 -170l-670 -383q69 -41 107 -65t95.5 -62.5t89.5 -66
t70 -66.5t58 -74.5t33.5 -79.5t13.5 -90z" />
    <glyph glyph-name="uniFB95FE8A.liga" unicode="&#xfb95;&#xfe8a;" horiz-adv-x="2177" 
d="M1911 1708l43 -100l-799 -434l-43 100zM2177 221l35 -6l-8 -209l-35 -6h-25q-72 0 -130 12.5t-104.5 33.5t-99.5 66t-97 91.5t-116 128.5q-39 -141 -198 -193q35 -52 35 -131q0 -94 -46 -181.5t-133.5 -159.5t-231 -115.5t-321.5 -43.5q-304 0 -474.5 160.5t-170.5 429.5
q0 249 117 512l150 -55q-43 -97 -68 -212.5t-25 -203.5q0 -202 129.5 -305.5t366.5 -103.5q133 0 241 25t171 64.5t96 83t33 85.5q0 49 -47 73.5t-162 24.5h-197v209h228q200 0 285 31.5t112 111.5l-330 387v185l860 469l74 -174l-748 -400l402 -448q52 -59 81.5 -89.5
t71 -64t78 -48t87 -24.5t114.5 -10zM287 827h147v-118h-379v112h62q-27 30 -27 84q0 71 48 123.5t130 52.5q49 0 89.5 -24t58.5 -58l-54 -86l-10 7q-10 8 -13.5 10t-13.5 7.5t-17 8t-17.5 4.5t-20.5 2q-37 0 -64.5 -18.5t-27.5 -46.5q0 -26 29 -43t80 -17z" />
    <glyph glyph-name="uniFB94FE8A.liga" unicode="&#xfb94;&#xfe8a;" horiz-adv-x="1685" 
d="M1491 1694l43 -99l-737 -436l-45 101zM1458 401q0 -128 -92 -211q68 -64 68 -182q0 -75 -27.5 -146t-86.5 -135.5t-143.5 -113t-207 -77t-267.5 -28.5q-304 0 -474.5 160.5t-170.5 429.5q0 249 117 512l150 -55q-43 -97 -68 -212.5t-25 -203.5q0 -202 129.5 -305.5
t366.5 -103.5q133 0 241 25t171 64.5t96 83t33 85.5q0 47 -37.5 71.5t-126.5 24.5h-266v207h407q53 39 53 88q0 80 -107 166q-77 60 -318 199h-1l-1 1h-1l-1 1l-1 1h-1l-1 1h-1l-1 1h-1l-1 1l-1 1h-1l-1 1h-1l-1 1h-1l-1 1l-1 1h-1l-1 1h-1l-1 1h-1l-1 1l-1 1h-1l-2 1l-1 1
h-1l-1 1h-1l-1 1l-1 1h-1l-1 1h-1l-1 1h-1l-1 1l-1 1h-1l-1 1h-1l-1 1h-1l-1 1l-1 1h-1l-1 1h-1l-1 1h-1l-1 1h-1l-1 1l-1 1h-1l-1 1h-1l-1 1h-1l-1 1l-1 1h-1l-1 1h-1l-1 1h-1l-1 1l-1 1h-1l-1 1v209l792 463l70 -170l-670 -383q69 -41 107 -65t95.5 -62.5t89.5 -66
t70 -66.5t58 -74.5t33.5 -79.5t13.5 -90zM289 827h147v-118h-379v112h62q-27 30 -27 84q0 71 48 123.5t130 52.5q49 0 89.5 -24t58.5 -58l-53 -86q-1 1 -9 6.5t-11 7.5t-11 7t-14 7t-14 5.5t-16.5 4.5t-17.5 1q-37 0 -64.5 -18.5t-27.5 -46.5q0 -26 29 -43t80 -17z" />
    <glyph glyph-name="uniFEDFFB51" unicode="&#xfedf;&#xfb51;" horiz-adv-x="1202" 
d="M588 1473q0 -168 -209 -168h-273v116h64q43 101 112.5 165.5t145.5 64.5q75 0 117.5 -51.5t42.5 -126.5zM424 1526q-83 0 -160 -105h133q97 0 97 47q0 26 -19.5 42t-50.5 16zM922 649q174 -160 174 -311q0 -168 -110.5 -253t-311.5 -85h-541v211l524 407
q-257 193 -643 455l101 168q105 -76 256 -184t255.5 -183t182.5 -133q48 48 63 92.5t15 118.5v500h176v-410q0 -144 -28 -229.5t-113 -163.5zM358 221h328q120 0 186 24t66 85q0 52 -40.5 99t-121.5 108z" />
    <glyph glyph-name="uniFEE0FB51" unicode="&#xfee0;&#xfb51;" horiz-adv-x="1376" 
d="M629 1454q0 -168 -209 -168h-273v117h64q42 101 112 165t146 64q75 0 117.5 -51.5t42.5 -126.5zM465 1507q-83 0 -160 -104h133q97 0 97 47q0 26 -19.5 41.5t-50.5 15.5zM1376 221l35 -6l-10 -209l-35 -6q-135 0 -224.5 52t-119.5 159q-46 -105 -148.5 -158t-246.5 -53
h-594v221h483l-254 924l174 55l262 -977q131 7 197 56.5t66 171.5v1001h176v-1006q0 -71 15.5 -117t49 -69t73 -31t101.5 -8z" />
    <glyph glyph-name="uniFC86.liga" unicode="&#xfee0;&#xfef0;" horiz-adv-x="1925" 
d="M1925 221l35 -6l-8 -209l-35 -6q-298 0 -350 276q-55 -93 -166 -137q33 -50 33 -125q0 -95 -46 -184t-133.5 -161.5t-231 -116.5t-321.5 -44q-304 0 -474.5 160.5t-170.5 429.5q0 249 117 512l150 -55q-43 -97 -68 -211.5t-25 -202.5q0 -203 129.5 -307t366.5 -104
q133 0 241 25t171 64.5t96 83t33 85.5q0 49 -44 73.5t-149 24.5h-235v217h274q77 0 133 5t109 19t85.5 38.5t52 65t19.5 97.5v924h177v-1006q0 -70 16 -116t49.5 -69t72.5 -31.5t97 -8.5z" />
    <glyph glyph-name="uniFC43.liga" unicode="&#xfedf;&#xfef0;" horiz-adv-x="1544" 
d="M1262 1452v-1149q83 -34 129.5 -106t46.5 -170q0 -77 -28 -151t-88 -140.5t-145 -117t-207.5 -80.5t-267.5 -30q-304 0 -474.5 160.5t-170.5 429.5q0 249 117 512l150 -55q-43 -97 -68 -212.5t-25 -203.5q0 -202 129.5 -305.5t366.5 -103.5q134 0 242.5 26t172 67t97 86
t33.5 89q0 60 -44.5 90.5t-154.5 30.5h-248v217h260v1116h177z" />
    <glyph glyph-name="uniFC87.liga" unicode="&#xfee0;&#xfef2;" horiz-adv-x="1925" 
d="M1925 221l35 -6l-8 -209l-35 -6q-298 0 -350 276q-55 -93 -166 -137q33 -50 33 -125q0 -95 -46 -184t-133.5 -161.5t-231 -116.5t-321.5 -44q-304 0 -474.5 160.5t-170.5 429.5q0 249 117 512l150 -55q-43 -97 -68 -211.5t-25 -202.5q0 -203 129.5 -307t366.5 -104
q133 0 241 25t171 64.5t96 83t33 85.5q0 49 -44 73.5t-149 24.5h-235v217h274q77 0 133 5t109 19t85.5 38.5t52 65t19.5 97.5v924h177v-1006q0 -70 16 -116t49.5 -69t72.5 -31.5t97 -8.5zM608 -641q42 0 72.5 -30.5t30.5 -71.5q0 -43 -29.5 -73t-73.5 -30q-42 0 -72 30
t-30 73q0 41 30.5 71.5t71.5 30.5zM877 -641q41 0 71.5 -30.5t30.5 -71.5q0 -43 -30.5 -73t-71.5 -30q-44 0 -73.5 30t-29.5 73q0 42 29.5 72t73.5 30z" />
    <glyph glyph-name="uniFC44.liga" unicode="&#xfedf;&#xfef2;" horiz-adv-x="1544" 
d="M1262 1452v-1149q83 -34 129.5 -106t46.5 -170q0 -77 -28 -151t-88 -140.5t-145 -117t-207.5 -80.5t-267.5 -30q-304 0 -474.5 160.5t-170.5 429.5q0 249 117 512l150 -55q-43 -97 -68 -212.5t-25 -203.5q0 -202 129.5 -305.5t366.5 -103.5q134 0 242.5 26t172 67t97 86
t33.5 89q0 60 -44.5 90.5t-154.5 30.5h-248v217h260v1116h177zM606 -641q42 0 72.5 -30.5t30.5 -71.5q0 -43 -29.5 -73t-73.5 -30q-42 0 -72 30t-30 73q0 41 30.5 71.5t71.5 30.5zM874 -641q41 0 72 -30.5t31 -71.5q0 -42 -30.5 -72.5t-72.5 -30.5q-44 0 -73 30t-29 73
q0 42 29 72t73 30z" />
    <glyph glyph-name="uniFEE0FE8A.liga" unicode="&#xfee0;&#xfe8a;" horiz-adv-x="1925" 
d="M1925 221l35 -6l-8 -209l-35 -6q-298 0 -350 276q-55 -93 -166 -137q33 -50 33 -125q0 -95 -46 -184t-133.5 -161.5t-231 -116.5t-321.5 -44q-304 0 -474.5 160.5t-170.5 429.5q0 249 117 512l150 -55q-43 -97 -68 -211.5t-25 -202.5q0 -203 129.5 -307t366.5 -104
q133 0 241 25t171 64.5t96 83t33 85.5q0 49 -44 73.5t-149 24.5h-235v217h274q77 0 133 5t109 19t85.5 38.5t52 65t19.5 97.5v924h177v-1006q0 -70 16 -116t49.5 -69t72.5 -31.5t97 -8.5zM293 821h147v-119h-379v113h62q-27 30 -27 84q0 71 48 123.5t130 52.5q49 0 89.5 -24
t58.5 -58l-53 -86q-1 1 -9 6.5t-11 7.5t-11 7t-14 7t-14 5.5t-16.5 4.5t-17.5 1q-37 0 -64.5 -18.5t-27.5 -46.5q0 -26 29 -43t80 -17z" />
    <glyph glyph-name="uniFEDFFE8A.liga" unicode="&#xfedf;&#xfe8a;" horiz-adv-x="1544" 
d="M1262 1452v-1149q83 -34 129.5 -106t46.5 -170q0 -77 -28 -151t-88 -140.5t-145 -117t-207.5 -80.5t-267.5 -30q-304 0 -474.5 160.5t-170.5 429.5q0 249 117 512l150 -55q-43 -97 -68 -212.5t-25 -203.5q0 -202 129.5 -305.5t366.5 -103.5q134 0 242.5 26t172 67t97 86
t33.5 89q0 60 -44.5 90.5t-154.5 30.5h-248v217h260v1116h177zM297 821h147v-119h-378v113h61q-27 30 -27 84q0 71 48.5 123.5t130.5 52.5q49 0 89 -24t58 -58l-53 -86l-10 7q-10 8 -13.5 10t-13.5 7.5t-17 8t-17.5 4.5t-20.5 2q-37 0 -65 -18.5t-28 -46.5q0 -26 29 -43
t80 -17z" />
    <glyph glyph-name="uniFC8A.liga" unicode="&#xfee8;&#xfeae;" horiz-adv-x="1433" 
d="M1110 993q-48 0 -80.5 33t-32.5 78q0 47 32 80t81 33q47 0 79 -33.5t32 -79.5q0 -45 -32 -78t-79 -33zM1434 221l34 -6l-10 -209l-35 -6q-165 0 -258.5 61.5t-115.5 204.5h-443q4 -62 4 -86q0 -124 -39 -235t-110.5 -195t-180 -133t-239.5 -49q-108 0 -176 22l18 207
q63 -8 140 -8q105 0 188 33.5t131 88t73 117t25 126.5q0 28 -2.5 59.5t-5 57.5t-9.5 68.5t-11 65.5t-15 76.5t-15.5 75t-18.5 87t-19 87.5l170 45q45 -184 64 -295h450v336h170v-371q0 -72 14 -117t46.5 -68.5t72 -31.5t103.5 -8z" />
    <glyph glyph-name="uniFC8B.liga" unicode="&#xfee8;&#xfeb0;" horiz-adv-x="1433" 
d="M1110 993q-48 0 -80.5 33t-32.5 78q0 47 32 80t81 33q47 0 79 -33.5t32 -79.5q0 -45 -32 -78t-79 -33zM418 940q-48 0 -80.5 33t-32.5 78q0 47 32 79.5t81 32.5q47 0 78.5 -33t31.5 -79q0 -45 -32 -78t-78 -33zM1434 221l34 -6l-10 -209l-35 -6q-165 0 -258.5 61.5
t-115.5 204.5h-443q4 -62 4 -86q0 -124 -39 -235t-110.5 -195t-180 -133t-239.5 -49q-108 0 -176 22l18 207q63 -8 140 -8q105 0 188 33.5t131 88t73 117t25 126.5q0 28 -2.5 59.5t-5 57.5t-9.5 68.5t-11 65.5t-15 76.5t-15.5 75t-18.5 87t-19 87.5l170 45q45 -184 64 -295
h450v336h170v-371q0 -72 14 -117t46.5 -68.5t72 -31.5t103.5 -8z" />
    <glyph glyph-name="uniFEE8FB8B.liga" unicode="&#xfee8;&#xfb8b;" horiz-adv-x="1433" 
d="M420 1178q-41 0 -69.5 29t-28.5 69q0 42 27.5 71t70.5 29t70.5 -29t27.5 -71q0 -40 -28.5 -69t-69.5 -29zM1110 993q-48 0 -80.5 33t-32.5 78q0 47 32 80t81 33q47 0 79 -33.5t32 -79.5q0 -45 -32 -78t-79 -33zM293 944q-42 0 -70 29t-28 69q0 42 28 70.5t70 28.5
q43 0 70.5 -28.5t27.5 -70.5t-27 -70t-71 -28zM446 1042q0 42 27.5 70.5t71.5 28.5q43 0 70.5 -28.5t27.5 -70.5q0 -41 -27.5 -69.5t-70.5 -28.5q-44 0 -71.5 28t-27.5 70zM1434 221l34 -6l-10 -209l-35 -6q-165 0 -258.5 61.5t-115.5 204.5h-443q4 -62 4 -86
q0 -124 -39 -235t-110.5 -195t-180 -133t-239.5 -49q-108 0 -176 22l18 207q63 -8 140 -8q105 0 188 33.5t131 88t73 117t25 126.5q0 28 -2.5 59.5t-5 57.5t-9.5 68.5t-11 65.5t-15 76.5t-15.5 75t-18.5 87t-19 87.5l170 45q45 -184 64 -295h450v336h170v-371q0 -72 14 -117
t46.5 -68.5t72 -31.5t103.5 -8z" />
    <glyph glyph-name="uniFC8D.liga" unicode="&#xfee8;&#xfee6;" horiz-adv-x="2125" 
d="M1804 1026q-48 0 -80 33t-32 78q0 47 31.5 79.5t80.5 32.5q47 0 79 -33t32 -79q0 -45 -32 -78t-79 -33zM676 836q-49 0 -81 32.5t-32 77.5q0 47 32 80t81 33q47 0 78.5 -33.5t31.5 -79.5q0 -45 -31.5 -77.5t-78.5 -32.5zM2126 221l35 -6l-11 -209l-34 -6
q-179 0 -275 72.5t-108 242.5h-408v-28q0 -282 -174.5 -445.5t-476.5 -163.5q-290 0 -453.5 150.5t-163.5 404.5q0 240 109 472l149 -56q-35 -77 -60.5 -183t-25.5 -190q0 -187 120.5 -281.5t338.5 -94.5q216 0 340.5 93t124.5 261q0 106 -23.5 228t-70.5 300l172 47
q53 -178 72 -299h417v320h170v-404q0 -72 14 -117t46.5 -68.5t72 -31.5t103.5 -8z" />
    <glyph glyph-name="uniFC8E.liga" unicode="&#xfee8;&#xfef0;" horiz-adv-x="1892" 
d="M1227 1012q-49 0 -81 32.5t-32 77.5q0 47 32 80t81 33q47 0 78.5 -33.5t31.5 -79.5q0 -45 -31.5 -77.5t-78.5 -32.5zM745 -492q-324 0 -506 164.5t-182 442.5q0 254 117 516l152 -53q-43 -100 -70 -217.5t-27 -202.5q0 -213 141.5 -320.5t401.5 -107.5q133 0 246.5 23
t181 57.5t105.5 70t38 64.5q0 39 -38 58t-134 40l-163 37q-267 57 -267 307q0 191 138.5 320t347.5 129q74 0 135 -23t108 -68t82.5 -97.5t69.5 -123.5l59 -123q26 -55 43 -83t41 -53.5t54 -34.5t73 -9l35 -6l-10 -209l-35 -6q-133 0 -206 66t-156 243l-43 92
q-50 105 -117.5 160t-173.5 55q-111 0 -200 -63.5t-89 -142.5q0 -95 170 -134l137 -26q155 -33 227 -93.5t72 -189.5q0 -65 -29.5 -129t-92 -123.5t-150 -105.5t-213.5 -73.5t-273 -27.5z" />
    <glyph glyph-name="uniFC4F.liga" unicode="&#xfee7;&#xfef0;" 
d="M1118 1149q-48 0 -80 33t-32 78q0 47 31.5 79.5t80.5 32.5q47 0 79 -33t32 -79q0 -45 -32 -78t-79 -33zM1245 305q89 -31 139 -104.5t50 -177.5q0 -76 -28.5 -149.5t-89 -140t-145 -116.5t-206 -79.5t-263.5 -29.5q-304 0 -474.5 160.5t-170.5 429.5q0 249 117 512
l150 -55q-43 -97 -68 -212.5t-25 -203.5q0 -202 129.5 -305.5t366.5 -103.5q133 0 240.5 26t171 67t96.5 86t33 89q0 60 -44.5 90.5t-154.5 30.5h-238v217h250q47 63 47 199q0 158 -90 413l170 58q92 -242 92 -449q0 -144 -55 -252z" />
    <glyph glyph-name="uniFC8F.liga" unicode="&#xfee8;&#xfef2;" horiz-adv-x="1892" 
d="M1227 1012q-49 0 -81 32.5t-32 77.5q0 47 32 80t81 33q47 0 78.5 -33.5t31.5 -79.5q0 -45 -31.5 -77.5t-78.5 -32.5zM745 -492q-324 0 -506 164.5t-182 442.5q0 254 117 516l152 -53q-43 -100 -70 -217.5t-27 -202.5q0 -213 141.5 -320.5t401.5 -107.5q133 0 246.5 23
t181 57.5t105.5 70t38 64.5q0 39 -38 58t-134 40l-163 37q-267 57 -267 307q0 191 138.5 320t347.5 129q74 0 135 -23t108 -68t82.5 -97.5t69.5 -123.5l59 -123q26 -55 43 -83t41 -53.5t54 -34.5t73 -9l35 -6l-10 -209l-35 -6q-133 0 -206 66t-156 243l-43 92
q-50 105 -117.5 160t-173.5 55q-111 0 -200 -63.5t-89 -142.5q0 -95 170 -134l137 -26q155 -33 227 -93.5t72 -189.5q0 -65 -29.5 -129t-92 -123.5t-150 -105.5t-213.5 -73.5t-273 -27.5zM653 -846q-41 0 -71.5 30t-30.5 73q0 41 30.5 71.5t71.5 30.5q43 0 73 -30.5
t30 -71.5q0 -43 -29.5 -73t-73.5 -30zM922 -846q-44 0 -73.5 30t-29.5 73q0 42 29.5 72t73.5 30q41 0 71.5 -30.5t30.5 -71.5q0 -43 -30 -73t-72 -30z" />
    <glyph glyph-name="uniFC50.liga" unicode="&#xfee7;&#xfef2;" 
d="M1118 1149q-48 0 -80 33t-32 78q0 47 31.5 79.5t80.5 32.5q47 0 79 -33t32 -79q0 -45 -32 -78t-79 -33zM1245 305q89 -31 139 -104.5t50 -177.5q0 -76 -28.5 -149.5t-89 -140t-145 -116.5t-206 -79.5t-263.5 -29.5q-304 0 -474.5 160.5t-170.5 429.5q0 249 117 512
l150 -55q-43 -97 -68 -212.5t-25 -203.5q0 -202 129.5 -305.5t366.5 -103.5q133 0 240.5 26t171 67t96.5 86t33 89q0 60 -44.5 90.5t-154.5 30.5h-238v217h250q47 63 47 199q0 158 -90 413l170 58q92 -242 92 -449q0 -144 -55 -252zM602 -641q42 0 72.5 -30.5t30.5 -71.5
q0 -43 -29.5 -73t-73.5 -30q-42 0 -72 30t-30 73q0 41 30.5 71.5t71.5 30.5zM870 -641q41 0 72 -30.5t31 -71.5q0 -42 -30.5 -72.5t-72.5 -30.5q-44 0 -73 30t-29 73q0 42 29 72t73 30z" />
    <glyph glyph-name="uniFEE8FE8A.liga" unicode="&#xfee8;&#xfe8a;" horiz-adv-x="1892" 
d="M1227 1012q-49 0 -81 32.5t-32 77.5q0 47 32 80t81 33q47 0 78.5 -33.5t31.5 -79.5q0 -45 -31.5 -77.5t-78.5 -32.5zM293 866h147v-118h-379v112h62q-27 30 -27 84q0 71 48 123.5t130 52.5q49 0 89.5 -24t58.5 -58l-53 -86q-1 1 -9 6.5t-11 7.5t-11 7t-14 7t-14 5.5
t-16.5 4.5t-17.5 1q-37 0 -64.5 -18.5t-27.5 -46.5q0 -26 29 -43t80 -17zM1892 221l35 -6l-10 -209l-35 -6q-133 0 -206 66t-156 243l-43 92q-50 105 -117.5 160t-173.5 55q-111 0 -200 -63.5t-89 -142.5q0 -95 170 -134l137 -26q155 -33 227 -93.5t72 -189.5
q0 -65 -29.5 -129t-92 -123.5t-150 -105.5t-213.5 -73.5t-273 -27.5q-324 0 -506 164.5t-182 442.5q0 254 117 516l152 -53q-43 -100 -70 -217.5t-27 -202.5q0 -213 141.5 -320.5t401.5 -107.5q133 0 246.5 23t181 57.5t105.5 70t38 64.5q0 39 -38 58t-134 40l-163 37
q-267 57 -267 307q0 191 138.5 320t347.5 129q74 0 135 -23t108 -68t82.5 -97.5t69.5 -123.5l59 -123q26 -55 43 -83t41 -53.5t54 -34.5t73 -9z" />
    <glyph glyph-name="uniFEE7FE8A.liga" unicode="&#xfee7;&#xfe8a;" 
d="M1118 1149q-48 0 -80 33t-32 78q0 47 31.5 79.5t80.5 32.5q47 0 79 -33t32 -79q0 -45 -32 -78t-79 -33zM287 829h147v-118h-379v112h62q-27 30 -27 84q0 71 48 123.5t130 52.5q49 0 89.5 -24t58.5 -58l-54 -86l-10 7q-10 8 -13.5 10t-13.5 7.5t-17 8t-17.5 4.5t-20.5 2
q-37 0 -64.5 -18.5t-27.5 -46.5q0 -26 29 -43t80 -17zM1245 305q89 -31 139 -104.5t50 -177.5q0 -76 -28.5 -149.5t-89 -140t-145 -116.5t-206 -79.5t-263.5 -29.5q-304 0 -474.5 160.5t-170.5 429.5q0 249 117 512l150 -55q-43 -97 -68 -212.5t-25 -203.5
q0 -202 129.5 -305.5t366.5 -103.5q133 0 240.5 26t171 67t96.5 86t33 89q0 60 -44.5 90.5t-154.5 30.5h-238v217h250q47 63 47 199q0 158 -90 413l170 58q92 -242 92 -449q0 -144 -55 -252z" />
    <glyph glyph-name="uniFC91.liga" unicode="&#xfef4;&#xfeae;" horiz-adv-x="1433" 
d="M1434 221l34 -6l-10 -209l-35 -6q-165 0 -258.5 61.5t-115.5 204.5h-443q4 -62 4 -86q0 -124 -39 -235t-110.5 -195t-180 -133t-239.5 -49q-108 0 -176 22l18 207q63 -8 140 -8q105 0 188 33.5t131 88t73 117t25 126.5q0 28 -2.5 59.5t-5 57.5t-9.5 68.5t-11 65.5
t-15 76.5t-15.5 75t-18.5 87t-19 87.5l170 45q45 -184 64 -295h450v336h170v-371q0 -72 14 -117t46.5 -68.5t72 -31.5t103.5 -8zM932 -150q42 0 72 -30t30 -72q0 -43 -29 -72.5t-73 -29.5q-42 0 -72.5 30t-30.5 72q0 41 31 71.5t72 30.5zM1200 -150q41 0 72 -30.5t31 -71.5
q0 -42 -30.5 -72t-72.5 -30q-44 0 -73 29.5t-29 72.5q0 42 29 72t73 30z" />
    <glyph glyph-name="uniFC92.liga" unicode="&#xfef4;&#xfeb0;" horiz-adv-x="1433" 
d="M418 940q-48 0 -80.5 33t-32.5 78q0 47 32 79.5t81 32.5q47 0 78.5 -33t31.5 -79q0 -45 -32 -78t-78 -33zM1434 221l34 -6l-10 -209l-35 -6q-165 0 -258.5 61.5t-115.5 204.5h-443q4 -62 4 -86q0 -124 -39 -235t-110.5 -195t-180 -133t-239.5 -49q-108 0 -176 22l18 207
q63 -8 140 -8q105 0 188 33.5t131 88t73 117t25 126.5q0 28 -2.5 59.5t-5 57.5t-9.5 68.5t-11 65.5t-15 76.5t-15.5 75t-18.5 87t-19 87.5l170 45q45 -184 64 -295h450v336h170v-371q0 -72 14 -117t46.5 -68.5t72 -31.5t103.5 -8zM932 -150q42 0 72 -30t30 -72
q0 -43 -29 -72.5t-73 -29.5q-42 0 -72.5 30t-30.5 72q0 41 31 71.5t72 30.5zM1200 -150q41 0 72 -30.5t31 -71.5q0 -42 -30.5 -72t-72.5 -30q-44 0 -73 29.5t-29 72.5q0 42 29 72t73 30z" />
    <glyph glyph-name="uniFC94.liga" unicode="&#xfef4;&#xfee6;" horiz-adv-x="2125" 
d="M676 836q-49 0 -81 32.5t-32 77.5q0 47 32 80t81 33q47 0 78.5 -33.5t31.5 -79.5q0 -45 -31.5 -77.5t-78.5 -32.5zM2126 221l35 -6l-11 -209l-34 -6q-179 0 -275 72.5t-108 242.5h-408v-28q0 -282 -174.5 -445.5t-476.5 -163.5q-290 0 -453.5 150.5t-163.5 404.5
q0 240 109 472l149 -56q-35 -77 -60.5 -183t-25.5 -190q0 -187 120.5 -281.5t338.5 -94.5q216 0 340.5 93t124.5 261q0 106 -23.5 228t-70.5 300l172 47q53 -178 72 -299h417v320h170v-404q0 -72 14 -117t46.5 -68.5t72 -31.5t103.5 -8zM1518 -150q42 0 72 -30t30 -72
q0 -43 -29 -72.5t-73 -29.5q-42 0 -72.5 30t-30.5 72q0 41 31 71.5t72 30.5zM1786 -150q41 0 71.5 -30.5t30.5 -71.5q0 -42 -30 -72t-72 -30q-44 0 -73.5 29.5t-29.5 72.5q0 42 29.5 72t73.5 30z" />
    <glyph glyph-name="uniFC95.liga" unicode="&#xfef4;&#xfef0;" horiz-adv-x="1892" 
d="M745 -492q-324 0 -506 164.5t-182 442.5q0 254 117 516l152 -53q-43 -100 -70 -217.5t-27 -202.5q0 -213 141.5 -320.5t401.5 -107.5q133 0 246.5 23t181 57.5t105.5 70t38 64.5q0 39 -38 58t-134 40l-163 37q-267 57 -267 307q0 191 138.5 320t347.5 129q74 0 135 -23
t108 -68t82.5 -97.5t69.5 -123.5l59 -123q26 -55 43 -83t41 -53.5t54 -34.5t73 -9l35 -6l-10 -209l-35 -6q-133 0 -206 66t-156 243l-43 92q-50 105 -117.5 160t-173.5 55q-111 0 -200 -63.5t-89 -142.5q0 -95 170 -134l137 -26q155 -33 227 -93.5t72 -189.5
q0 -65 -29.5 -129t-92 -123.5t-150 -105.5t-213.5 -73.5t-273 -27.5zM1327 -733q-42 0 -72 30t-30 72q0 41 30.5 72t71.5 31q42 0 72.5 -30.5t30.5 -72.5q0 -43 -29.5 -72.5t-73.5 -29.5zM1595 -733q-44 0 -73 29.5t-29 72.5q0 42 29.5 72.5t72.5 30.5q41 0 72 -31t31 -72
q0 -42 -30.5 -72t-72.5 -30z" />
    <glyph glyph-name="uniFC59.liga" unicode="&#xfef3;&#xfef0;" 
d="M1434 23q0 -76 -28.5 -149.5t-89 -140t-145 -116.5t-206 -79.5t-263.5 -29.5q-304 0 -474.5 160.5t-170.5 429.5q0 249 117 512l150 -55q-43 -97 -68 -212.5t-25 -203.5q0 -202 129.5 -305.5t366.5 -103.5q133 0 240.5 26t171 67t96.5 86t33 89q0 60 -44.5 90.5
t-154.5 30.5h-238v217h250q47 63 47 199q0 158 -90 413l170 58q92 -242 92 -449q0 -144 -55 -252q89 -31 139 -104.5t50 -177.5zM1124 -506q42 0 72.5 -30t30.5 -72q0 -43 -29.5 -73t-73.5 -30q-42 0 -72 30.5t-30 72.5q0 41 30.5 71.5t71.5 30.5zM1393 -506
q41 0 71.5 -30.5t30.5 -71.5q0 -42 -30.5 -72.5t-71.5 -30.5q-44 0 -73.5 30t-29.5 73q0 42 29.5 72t73.5 30z" />
    <glyph glyph-name="uniFC96.liga" unicode="&#xfef4;&#xfef2;" horiz-adv-x="1892" 
d="M745 -492q-324 0 -506 164.5t-182 442.5q0 254 117 516l152 -53q-43 -100 -70 -217.5t-27 -202.5q0 -213 141.5 -320.5t401.5 -107.5q133 0 246.5 23t181 57.5t105.5 70t38 64.5q0 39 -38 58t-134 40l-163 37q-267 57 -267 307q0 191 138.5 320t347.5 129q74 0 135 -23
t108 -68t82.5 -97.5t69.5 -123.5l59 -123q26 -55 43 -83t41 -53.5t54 -34.5t73 -9l35 -6l-10 -209l-35 -6q-133 0 -206 66t-156 243l-43 92q-50 105 -117.5 160t-173.5 55q-111 0 -200 -63.5t-89 -142.5q0 -95 170 -134l137 -26q155 -33 227 -93.5t72 -189.5
q0 -65 -29.5 -129t-92 -123.5t-150 -105.5t-213.5 -73.5t-273 -27.5zM1327 -733q-42 0 -72 30t-30 72q0 41 30.5 72t71.5 31q42 0 72.5 -30.5t30.5 -72.5q0 -43 -29.5 -72.5t-73.5 -29.5zM1595 -733q-44 0 -73 29.5t-29 72.5q0 42 29.5 72.5t72.5 30.5q41 0 72 -31t31 -72
q0 -42 -30.5 -72t-72.5 -30zM653 -846q-41 0 -71.5 30t-30.5 73q0 41 30.5 71.5t71.5 30.5q43 0 73 -30.5t30 -71.5q0 -43 -29.5 -73t-73.5 -30zM922 -846q-44 0 -73.5 30t-29.5 73q0 42 29.5 72t73.5 30q41 0 71.5 -30.5t30.5 -71.5q0 -43 -30 -73t-72 -30z" />
    <glyph glyph-name="uniFC5A.init.rlig" unicode="&#xfbfe;&#xfef4;" horiz-adv-x="1175" 
d="M305 201q-28 -94 -111.5 -147.5t-201.5 -53.5l-35 6l8 209l35 6q59 0 98 8t74 30t51.5 67.5t16.5 115.5v289h172v-268q0 -138 57.5 -190t183.5 -52q242 0 242 193q0 129 -57 397l166 43q61 -250 61 -420q0 -208 -116.5 -321t-311.5 -113q-127 0 -214 50t-118 151z
M184 -150q42 0 72.5 -30t30.5 -72q0 -43 -29.5 -72.5t-73.5 -29.5q-42 0 -72 30t-30 72q0 41 30.5 71.5t71.5 30.5zM453 -150q41 0 71.5 -30.5t30.5 -71.5q0 -42 -30 -72t-72 -30q-44 0 -73.5 29.5t-29.5 72.5q0 42 29.5 72t73.5 30zM737 -150q43 0 73 -30t30 -72
q0 -43 -29.5 -72.5t-73.5 -29.5q-42 0 -72 30t-30 72q0 41 30.5 71.5t71.5 30.5zM1006 -150q41 0 71.5 -30.5t30.5 -71.5q0 -42 -30 -72t-72 -30q-44 0 -73.5 29.5t-29.5 72.5q0 42 29.5 72t73.5 30z" />
    <glyph glyph-name="uniFC5A.liga" unicode="&#xfef3;&#xfef2;" 
d="M1434 23q0 -76 -28.5 -149.5t-89 -140t-145 -116.5t-206 -79.5t-263.5 -29.5q-304 0 -474.5 160.5t-170.5 429.5q0 249 117 512l150 -55q-43 -97 -68 -212.5t-25 -203.5q0 -202 129.5 -305.5t366.5 -103.5q133 0 240.5 26t171 67t96.5 86t33 89q0 60 -44.5 90.5
t-154.5 30.5h-238v217h250q47 63 47 199q0 158 -90 413l170 58q92 -242 92 -449q0 -144 -55 -252q89 -31 139 -104.5t50 -177.5zM1124 -506q42 0 72.5 -30t30.5 -72q0 -43 -29.5 -73t-73.5 -30q-42 0 -72 30.5t-30 72.5q0 41 30.5 71.5t71.5 30.5zM1393 -506
q41 0 71.5 -30.5t30.5 -71.5q0 -42 -30.5 -72.5t-71.5 -30.5q-44 0 -73.5 30t-29.5 73q0 42 29.5 72t73.5 30zM602 -641q42 0 72.5 -30.5t30.5 -71.5q0 -43 -29.5 -73t-73.5 -30q-42 0 -72 30t-30 73q0 41 30.5 71.5t71.5 30.5zM870 -641q41 0 72 -30.5t31 -71.5
q0 -42 -30.5 -72.5t-72.5 -30.5q-44 0 -73 30t-29 73q0 42 29 72t73 30z" />
    <glyph glyph-name="uniFEF3FB59.rlig" unicode="&#xfef3;&#xfb59;" horiz-adv-x="1175" 
d="M305 201q-28 -94 -111.5 -147.5t-201.5 -53.5l-35 6l8 209l35 6q59 0 98 8t74 30t51.5 67.5t16.5 115.5v289h172v-268q0 -138 57.5 -190t183.5 -52q242 0 242 193q0 129 -57 397l166 43q61 -250 61 -420q0 -208 -116.5 -321t-311.5 -113q-127 0 -214 50t-118 151z
M291 -248q0 -42 -27.5 -71t-70.5 -29t-71 29t-28 71q0 41 28 69.5t71 28.5t70.5 -28.5t27.5 -69.5zM444 -150q43 0 70 -28.5t27 -69.5q0 -42 -27 -71t-70 -29q-44 0 -72 29t-28 71t28 70t72 28zM737 -150q43 0 73 -30t30 -72q0 -43 -29.5 -72.5t-73.5 -29.5q-42 0 -72 30
t-30 72q0 41 30.5 71.5t71.5 30.5zM1006 -150q41 0 71.5 -30.5t30.5 -71.5q0 -42 -30 -72t-72 -30q-44 0 -73.5 29.5t-29.5 72.5q0 42 29.5 72t73.5 30zM319 -385q40 0 68.5 -28.5t28.5 -69.5t-27.5 -70t-69.5 -29q-43 0 -71.5 29t-28.5 70t28.5 69.5t71.5 28.5z" />
    <glyph glyph-name="uniFEF4FB8B.liga" unicode="&#xfef4;&#xfb8b;" horiz-adv-x="1433" 
d="M420 1178q-41 0 -69.5 29t-28.5 69q0 42 27.5 71t70.5 29t70.5 -29t27.5 -71q0 -40 -28.5 -69t-69.5 -29zM293 944q-42 0 -70 29t-28 69q0 42 28 70.5t70 28.5q43 0 70.5 -28.5t27.5 -70.5t-27 -70t-71 -28zM446 1042q0 42 27.5 70.5t71.5 28.5q43 0 70.5 -28.5
t27.5 -70.5q0 -41 -27.5 -69.5t-70.5 -28.5q-44 0 -71.5 28t-27.5 70zM1434 221l34 -6l-10 -209l-35 -6q-165 0 -258.5 61.5t-115.5 204.5h-443q4 -62 4 -86q0 -124 -39 -235t-110.5 -195t-180 -133t-239.5 -49q-108 0 -176 22l18 207q63 -8 140 -8q105 0 188 33.5t131 88
t73 117t25 126.5q0 28 -2.5 59.5t-5 57.5t-9.5 68.5t-11 65.5t-15 76.5t-15.5 75t-18.5 87t-19 87.5l170 45q45 -184 64 -295h450v336h170v-371q0 -72 14 -117t46.5 -68.5t72 -31.5t103.5 -8zM932 -150q42 0 72 -30t30 -72q0 -43 -29 -72.5t-73 -29.5q-42 0 -72.5 30
t-30.5 72q0 41 31 71.5t72 30.5zM1200 -150q41 0 72 -30.5t31 -71.5q0 -42 -30.5 -72t-72.5 -30q-44 0 -73 29.5t-29 72.5q0 42 29 72t73 30z" />
    <glyph glyph-name="uniFEF4FE8A.liga" unicode="&#xfef4;&#xfe8a;" horiz-adv-x="1892" 
d="M293 866h147v-118h-379v112h62q-27 30 -27 84q0 71 48 123.5t130 52.5q49 0 89.5 -24t58.5 -58l-53 -86q-1 1 -9 6.5t-11 7.5t-11 7t-14 7t-14 5.5t-16.5 4.5t-17.5 1q-37 0 -64.5 -18.5t-27.5 -46.5q0 -26 29 -43t80 -17zM1892 221l35 -6l-10 -209l-35 -6
q-133 0 -206 66t-156 243l-43 92q-50 105 -117.5 160t-173.5 55q-111 0 -200 -63.5t-89 -142.5q0 -95 170 -134l137 -26q155 -33 227 -93.5t72 -189.5q0 -65 -29.5 -129t-92 -123.5t-150 -105.5t-213.5 -73.5t-273 -27.5q-324 0 -506 164.5t-182 442.5q0 254 117 516
l152 -53q-43 -100 -70 -217.5t-27 -202.5q0 -213 141.5 -320.5t401.5 -107.5q133 0 246.5 23t181 57.5t105.5 70t38 64.5q0 39 -38 58t-134 40l-163 37q-267 57 -267 307q0 191 138.5 320t347.5 129q74 0 135 -23t108 -68t82.5 -97.5t69.5 -123.5l59 -123q26 -55 43 -83
t41 -53.5t54 -34.5t73 -9zM1327 -528q42 0 72.5 -30.5t30.5 -72.5q0 -43 -29.5 -72.5t-73.5 -29.5q-42 0 -72 30t-30 72q0 41 30.5 72t71.5 31zM1595 -528q41 0 72 -31t31 -72q0 -42 -30.5 -72t-72.5 -30q-44 0 -73 29.5t-29 72.5q0 42 29.5 72.5t72.5 30.5z" />
    <glyph glyph-name="uniFEF3FE8A.liga" unicode="&#xfef3;&#xfe8a;" 
d="M287 829h147v-118h-379v112h62q-27 30 -27 84q0 71 48 123.5t130 52.5q49 0 89.5 -24t58.5 -58l-54 -86l-10 7q-10 8 -13.5 10t-13.5 7.5t-17 8t-17.5 4.5t-20.5 2q-37 0 -64.5 -18.5t-27.5 -46.5q0 -26 29 -43t80 -17zM1434 23q0 -76 -28.5 -149.5t-89 -140t-145 -116.5
t-206 -79.5t-263.5 -29.5q-304 0 -474.5 160.5t-170.5 429.5q0 249 117 512l150 -55q-43 -97 -68 -212.5t-25 -203.5q0 -202 129.5 -305.5t366.5 -103.5q133 0 240.5 26t171 67t96.5 86t33 89q0 60 -44.5 90.5t-154.5 30.5h-238v217h250q47 63 47 199q0 158 -90 413l170 58
q92 -242 92 -449q0 -144 -55 -252q89 -31 139 -104.5t50 -177.5zM1124 -506q42 0 72.5 -30t30.5 -72q0 -43 -29.5 -73t-73.5 -30q-42 0 -72 30.5t-30 72.5q0 41 30.5 71.5t71.5 30.5zM1393 -506q41 0 71.5 -30.5t30.5 -71.5q0 -42 -30.5 -72.5t-71.5 -30.5q-44 0 -73.5 30
t-29.5 73q0 42 29.5 72t73.5 30z" />
    <glyph glyph-name="uniFC64.liga" unicode="&#xfe8c;&#xfeae;" horiz-adv-x="1433" 
d="M1153 1055h147v-119h-378v113h61q-27 30 -27 84q0 71 48.5 123.5t130.5 52.5q49 0 89 -24t58 -58l-53 -86l-10 7q-10 8 -13.5 10t-13.5 7.5t-17 8t-17.5 4.5t-20.5 2q-37 0 -65 -19t-28 -47q0 -26 29 -42.5t80 -16.5zM1434 221l34 -6l-10 -209l-35 -6q-165 0 -258.5 61.5
t-115.5 204.5h-443q4 -62 4 -86q0 -124 -39 -235t-110.5 -195t-180 -133t-239.5 -49q-108 0 -176 22l18 207q63 -8 140 -8q105 0 188 33.5t131 88t73 117t25 126.5q0 28 -2.5 59.5t-5 57.5t-9.5 68.5t-11 65.5t-15 76.5t-15.5 75t-18.5 87t-19 87.5l170 45q45 -184 64 -295
h450v336h170v-371q0 -72 14 -117t46.5 -68.5t72 -31.5t103.5 -8z" />
    <glyph glyph-name="uniFC65.liga" unicode="&#xfe8c;&#xfeb0;" horiz-adv-x="1433" 
d="M1153 1055h147v-119h-378v113h61q-27 30 -27 84q0 71 48.5 123.5t130.5 52.5q49 0 89 -24t58 -58l-53 -86l-10 7q-10 8 -13.5 10t-13.5 7.5t-17 8t-17.5 4.5t-20.5 2q-37 0 -65 -19t-28 -47q0 -26 29 -42.5t80 -16.5zM418 940q-48 0 -80.5 33t-32.5 78q0 47 32 79.5
t81 32.5q47 0 78.5 -33t31.5 -79q0 -45 -32 -78t-78 -33zM1434 221l34 -6l-10 -209l-35 -6q-165 0 -258.5 61.5t-115.5 204.5h-443q4 -62 4 -86q0 -124 -39 -235t-110.5 -195t-180 -133t-239.5 -49q-108 0 -176 22l18 207q63 -8 140 -8q105 0 188 33.5t131 88t73 117
t25 126.5q0 28 -2.5 59.5t-5 57.5t-9.5 68.5t-11 65.5t-15 76.5t-15.5 75t-18.5 87t-19 87.5l170 45q45 -184 64 -295h450v336h170v-371q0 -72 14 -117t46.5 -68.5t72 -31.5t103.5 -8z" />
    <glyph glyph-name="uniFE8CFB8B.liga" unicode="&#xfe8c;&#xfb8b;" horiz-adv-x="1433" 
d="M420 1178q-41 0 -69.5 29t-28.5 69q0 42 27.5 71t70.5 29t70.5 -29t27.5 -71q0 -40 -28.5 -69t-69.5 -29zM1153 1055h147v-119h-378v113h61q-27 30 -27 84q0 71 48.5 123.5t130.5 52.5q49 0 89 -24t58 -58l-53 -86l-10 7q-10 8 -13.5 10t-13.5 7.5t-17 8t-17.5 4.5
t-20.5 2q-37 0 -65 -19t-28 -47q0 -26 29 -42.5t80 -16.5zM293 944q-42 0 -70 29t-28 69q0 42 28 70.5t70 28.5q43 0 70.5 -28.5t27.5 -70.5t-27 -70t-71 -28zM446 1042q0 42 27.5 70.5t71.5 28.5q43 0 70.5 -28.5t27.5 -70.5q0 -41 -27.5 -69.5t-70.5 -28.5q-44 0 -71.5 28
t-27.5 70zM1434 221l34 -6l-10 -209l-35 -6q-165 0 -258.5 61.5t-115.5 204.5h-443q4 -62 4 -86q0 -124 -39 -235t-110.5 -195t-180 -133t-239.5 -49q-108 0 -176 22l18 207q63 -8 140 -8q105 0 188 33.5t131 88t73 117t25 126.5q0 28 -2.5 59.5t-5 57.5t-9.5 68.5t-11 65.5
t-15 76.5t-15.5 75t-18.5 87t-19 87.5l170 45q45 -184 64 -295h450v336h170v-371q0 -72 14 -117t46.5 -68.5t72 -31.5t103.5 -8z" />
    <glyph glyph-name="uniFC67.liga" unicode="&#xfe8c;&#xfee6;" horiz-adv-x="2125" 
d="M1847 1087h148v-118h-379v112h61q-26 29 -26 84q0 71 48 123.5t130 52.5q49 0 89 -23.5t58 -57.5l-53 -86l-9 6q-8 6 -10.5 7.5t-11 7t-14 7.5t-13.5 5t-16.5 4t-17.5 1q-37 0 -64.5 -18.5t-27.5 -46.5q0 -26 28.5 -43t79.5 -17zM676 836q-49 0 -81 32.5t-32 77.5
q0 47 32 80t81 33q47 0 78.5 -33.5t31.5 -79.5q0 -45 -31.5 -77.5t-78.5 -32.5zM2126 221l35 -6l-11 -209l-34 -6q-179 0 -275 72.5t-108 242.5h-408v-28q0 -282 -174.5 -445.5t-476.5 -163.5q-290 0 -453.5 150.5t-163.5 404.5q0 240 109 472l149 -56q-35 -77 -60.5 -183
t-25.5 -190q0 -187 120.5 -281.5t338.5 -94.5q216 0 340.5 93t124.5 261q0 106 -23.5 228t-70.5 300l172 47q53 -178 72 -299h417v320h170v-404q0 -72 14 -117t46.5 -68.5t72 -31.5t103.5 -8z" />
    <glyph glyph-name="uniFC68.liga" unicode="&#xfe8c;&#xfef0;" horiz-adv-x="1892" 
d="M1268 1073h147v-119h-379v113h62q-27 30 -27 84q0 71 48 123.5t130 52.5q49 0 89.5 -24t58.5 -58l-54 -86l-10 7q-10 8 -13.5 10t-13.5 7.5t-17 8t-17.5 4.5t-20.5 2q-37 0 -64.5 -18.5t-27.5 -46.5q0 -26 29 -43t80 -17zM1892 221l35 -6l-10 -209l-35 -6q-133 0 -206 66
t-156 243l-43 92q-50 105 -117.5 160t-173.5 55q-111 0 -200 -63.5t-89 -142.5q0 -95 170 -134l137 -26q155 -33 227 -93.5t72 -189.5q0 -65 -29.5 -129t-92 -123.5t-150 -105.5t-213.5 -73.5t-273 -27.5q-324 0 -506 164.5t-182 442.5q0 254 117 516l152 -53
q-43 -100 -70 -217.5t-27 -202.5q0 -213 141.5 -320.5t401.5 -107.5q133 0 246.5 23t181 57.5t105.5 70t38 64.5q0 39 -38 58t-134 40l-163 37q-267 57 -267 307q0 191 138.5 320t347.5 129q74 0 135 -23t108 -68t82.5 -97.5t69.5 -123.5l59 -123q26 -55 43 -83t41 -53.5
t54 -34.5t73 -9z" />
    <glyph glyph-name="uniFC03.liga" unicode="&#xfe8b;&#xfef0;" 
d="M1161 1210h148v-118h-379v112h61q-26 29 -26 84q0 71 48 123.5t130 52.5q49 0 89 -24t58 -58l-53 -86l-10 8q-10 7 -13.5 9t-13.5 7.5t-17 8t-17.5 4.5t-20.5 2q-37 0 -64.5 -18.5t-27.5 -46.5q0 -26 28.5 -43t79.5 -17zM1245 305q89 -31 139 -104.5t50 -177.5
q0 -76 -28.5 -149.5t-89 -140t-145 -116.5t-206 -79.5t-263.5 -29.5q-304 0 -474.5 160.5t-170.5 429.5q0 249 117 512l150 -55q-43 -97 -68 -212.5t-25 -203.5q0 -202 129.5 -305.5t366.5 -103.5q133 0 240.5 26t171 67t96.5 86t33 89q0 60 -44.5 90.5t-154.5 30.5h-238
v217h250q47 63 47 199q0 158 -90 413l170 58q92 -242 92 -449q0 -144 -55 -252z" />
    <glyph glyph-name="uniFC69.liga" unicode="&#xfe8c;&#xfef2;" horiz-adv-x="1892" 
d="M1268 1073h147v-119h-379v113h62q-27 30 -27 84q0 71 48 123.5t130 52.5q49 0 89.5 -24t58.5 -58l-54 -86l-10 7q-10 8 -13.5 10t-13.5 7.5t-17 8t-17.5 4.5t-20.5 2q-37 0 -64.5 -18.5t-27.5 -46.5q0 -26 29 -43t80 -17zM1892 221l35 -6l-10 -209l-35 -6q-133 0 -206 66
t-156 243l-43 92q-50 105 -117.5 160t-173.5 55q-111 0 -200 -63.5t-89 -142.5q0 -95 170 -134l137 -26q155 -33 227 -93.5t72 -189.5q0 -65 -29.5 -129t-92 -123.5t-150 -105.5t-213.5 -73.5t-273 -27.5q-324 0 -506 164.5t-182 442.5q0 254 117 516l152 -53
q-43 -100 -70 -217.5t-27 -202.5q0 -213 141.5 -320.5t401.5 -107.5q133 0 246.5 23t181 57.5t105.5 70t38 64.5q0 39 -38 58t-134 40l-163 37q-267 57 -267 307q0 191 138.5 320t347.5 129q74 0 135 -23t108 -68t82.5 -97.5t69.5 -123.5l59 -123q26 -55 43 -83t41 -53.5
t54 -34.5t73 -9zM653 -641q43 0 73 -30.5t30 -71.5q0 -43 -29.5 -73t-73.5 -30q-41 0 -71.5 30t-30.5 73q0 41 30.5 71.5t71.5 30.5zM922 -641q41 0 71.5 -30.5t30.5 -71.5q0 -43 -30 -73t-72 -30q-44 0 -73.5 30t-29.5 73q0 42 29.5 72t73.5 30z" />
    <glyph glyph-name="uniFC04.liga" unicode="&#xfe8b;&#xfef2;" 
d="M1161 1210h148v-118h-379v112h61q-26 29 -26 84q0 71 48 123.5t130 52.5q49 0 89 -24t58 -58l-53 -86l-10 8q-10 7 -13.5 9t-13.5 7.5t-17 8t-17.5 4.5t-20.5 2q-37 0 -64.5 -18.5t-27.5 -46.5q0 -26 28.5 -43t79.5 -17zM1245 305q89 -31 139 -104.5t50 -177.5
q0 -76 -28.5 -149.5t-89 -140t-145 -116.5t-206 -79.5t-263.5 -29.5q-304 0 -474.5 160.5t-170.5 429.5q0 249 117 512l150 -55q-43 -97 -68 -212.5t-25 -203.5q0 -202 129.5 -305.5t366.5 -103.5q133 0 240.5 26t171 67t96.5 86t33 89q0 60 -44.5 90.5t-154.5 30.5h-238
v217h250q47 63 47 199q0 158 -90 413l170 58q92 -242 92 -449q0 -144 -55 -252zM602 -641q42 0 72.5 -30.5t30.5 -71.5q0 -43 -29.5 -73t-73.5 -30q-42 0 -72 30t-30 73q0 41 30.5 71.5t71.5 30.5zM870 -641q41 0 72 -30.5t31 -71.5q0 -42 -30.5 -72.5t-72.5 -30.5
q-44 0 -73 30t-29 73q0 42 29 72t73 30z" />
    <glyph glyph-name="uniFE8CFE8A.liga" unicode="&#xfe8c;&#xfe8a;" horiz-adv-x="1892" 
d="M1268 1073h147v-119h-379v113h62q-27 30 -27 84q0 71 48 123.5t130 52.5q49 0 89.5 -24t58.5 -58l-54 -86l-10 7q-10 8 -13.5 10t-13.5 7.5t-17 8t-17.5 4.5t-20.5 2q-37 0 -64.5 -18.5t-27.5 -46.5q0 -26 29 -43t80 -17zM293 866h147v-118h-379v112h62q-27 30 -27 84
q0 71 48 123.5t130 52.5q49 0 89.5 -24t58.5 -58l-53 -86q-1 1 -9 6.5t-11 7.5t-11 7t-14 7t-14 5.5t-16.5 4.5t-17.5 1q-37 0 -64.5 -18.5t-27.5 -46.5q0 -26 29 -43t80 -17zM1892 221l35 -6l-10 -209l-35 -6q-133 0 -206 66t-156 243l-43 92q-50 105 -117.5 160t-173.5 55
q-111 0 -200 -63.5t-89 -142.5q0 -95 170 -134l137 -26q155 -33 227 -93.5t72 -189.5q0 -65 -29.5 -129t-92 -123.5t-150 -105.5t-213.5 -73.5t-273 -27.5q-324 0 -506 164.5t-182 442.5q0 254 117 516l152 -53q-43 -100 -70 -217.5t-27 -202.5q0 -213 141.5 -320.5
t401.5 -107.5q133 0 246.5 23t181 57.5t105.5 70t38 64.5q0 39 -38 58t-134 40l-163 37q-267 57 -267 307q0 191 138.5 320t347.5 129q74 0 135 -23t108 -68t82.5 -97.5t69.5 -123.5l59 -123q26 -55 43 -83t41 -53.5t54 -34.5t73 -9z" />
    <glyph glyph-name="uniFE8BFE8A.liga" unicode="&#xfe8b;&#xfe8a;" 
d="M1161 1210h148v-118h-379v112h61q-26 29 -26 84q0 71 48 123.5t130 52.5q49 0 89 -24t58 -58l-53 -86l-10 8q-10 7 -13.5 9t-13.5 7.5t-17 8t-17.5 4.5t-20.5 2q-37 0 -64.5 -18.5t-27.5 -46.5q0 -26 28.5 -43t79.5 -17zM287 829h147v-118h-379v112h62q-27 30 -27 84
q0 71 48 123.5t130 52.5q49 0 89.5 -24t58.5 -58l-54 -86l-10 7q-10 8 -13.5 10t-13.5 7.5t-17 8t-17.5 4.5t-20.5 2q-37 0 -64.5 -18.5t-27.5 -46.5q0 -26 29 -43t80 -17zM1245 305q89 -31 139 -104.5t50 -177.5q0 -76 -28.5 -149.5t-89 -140t-145 -116.5t-206 -79.5
t-263.5 -29.5q-304 0 -474.5 160.5t-170.5 429.5q0 249 117 512l150 -55q-43 -97 -68 -212.5t-25 -203.5q0 -202 129.5 -305.5t366.5 -103.5q133 0 240.5 26t171 67t96.5 86t33 89q0 60 -44.5 90.5t-154.5 30.5h-238v217h250q47 63 47 199q0 158 -90 413l170 58
q92 -242 92 -449q0 -144 -55 -252z" />
    <glyph glyph-name="uniFBFEFBFF.rlig" unicode="&#xfbfe;&#xfbff;" horiz-adv-x="1175" 
d="M305 201q-28 -94 -111.5 -147.5t-201.5 -53.5l-35 6l8 209l35 6q59 0 98 8t74 30t51.5 67.5t16.5 115.5v289h172v-268q0 -138 57.5 -190t183.5 -52q242 0 242 193q0 129 -57 397l166 43q61 -250 61 -420q0 -208 -116.5 -321t-311.5 -113q-127 0 -214 50t-118 151z
M184 -150q42 0 72.5 -30t30.5 -72q0 -43 -29.5 -72.5t-73.5 -29.5q-42 0 -72 30t-30 72q0 41 30.5 71.5t71.5 30.5zM453 -150q41 0 71.5 -30.5t30.5 -71.5q0 -42 -30 -72t-72 -30q-44 0 -73.5 29.5t-29.5 72.5q0 42 29.5 72t73.5 30zM737 -150q43 0 73 -30t30 -72
q0 -43 -29.5 -72.5t-73.5 -29.5q-42 0 -72 30t-30 72q0 41 30.5 71.5t71.5 30.5zM1006 -150q41 0 71.5 -30.5t30.5 -71.5q0 -42 -30 -72t-72 -30q-44 0 -73.5 29.5t-29.5 72.5q0 42 29.5 72t73.5 30z" />
    <glyph glyph-name="uni066E.init" unicode="&#x66e;" horiz-adv-x="518" 
d="M-8 0l-35 8l8 205l35 8q121 0 179.5 47t58.5 146q0 143 -58 397l166 43q64 -246 64 -420q0 -208 -113 -321t-305 -113z" />
    <glyph glyph-name="uni066E.medi" unicode="&#x66e;" horiz-adv-x="655" 
d="M655 221l35 -6l-8 -209l-35 -6q-133 0 -220.5 50.5t-117.5 152.5q-30 -95 -112.5 -149t-204.5 -54l-35 6l8 209l35 6q48 0 82 4.5t66 18t51.5 37.5t31 64t11.5 97v293h172v-289q0 -72 13.5 -117t46 -68.5t73.5 -31.5t108 -8z" />
    <glyph glyph-name="uni066E.fina" unicode="&#x66e;" horiz-adv-x="1918" 
d="M1919 221l35 -6l-8 -209l-35 -6q-138 0 -227.5 55t-116.5 166q-45 -111 -164.5 -166t-327.5 -55h-401q-325 0 -471 120t-146 363q0 195 88 394l150 -54q-68 -179 -68 -297q0 -157 113 -231t342 -74h393q216 0 323 53t107 164v297h172v-289q0 -72 14 -117t46.5 -68.5
t73.5 -31.5t108 -8z" />
    <glyph glyph-name="uni066F.fina" unicode="&#x66f;" horiz-adv-x="1611" 
d="M1479 221h133l35 -18l-11 -183l-34 -20h-152q-113 -479 -707 -479q-341 0 -513.5 159.5t-172.5 438.5q0 239 109 471l149 -55q-36 -77 -61 -182.5t-25 -190.5q0 -420 543 -420q465 0 539 266h-285q-186 0 -283.5 94t-97.5 246q0 202 120.5 340.5t307.5 138.5
q127 0 220 -74.5t139.5 -201t46.5 -287.5v-43zM803 365q0 -68 63.5 -104t180.5 -36h280v6q0 62 -15.5 125.5t-46 122t-85 95t-123.5 36.5q-119 0 -186.5 -75.5t-67.5 -169.5z" />
    <glyph glyph-name="uni06A1.init" unicode="&#x6a1;" horiz-adv-x="1005" 
d="M487 1196q129 0 225.5 -76.5t143.5 -199t47 -271.5q0 -189 -33.5 -316t-104.5 -200t-168 -103t-237 -30h-368l-35 6l8 209l35 6h365q48 0 85.5 3t77.5 11t70 22.5t57.5 39t45.5 58t29.5 81t14.5 107.5q-101 -156 -315 -156q-179 0 -273 97t-94 257q0 194 118.5 324.5
t305.5 130.5zM451 594q104 0 177 35t111 92q-10 46 -30 88.5t-51.5 82.5t-80.5 64.5t-108 24.5q-115 0 -181.5 -67t-66.5 -150q0 -81 62 -125.5t168 -44.5z" />
    <glyph glyph-name="uni06A1.medi" unicode="&#x6a1;" horiz-adv-x="1052" 
d="M1053 221l34 -6l-8 -209l-35 -6q-296 0 -532 98q-216 -98 -520 -98l-35 6l8 209l35 6q140 0 276 19q-153 140 -153 313q0 118 50 221.5t147 169.5t219 66q113 0 202.5 -61t137 -159t47.5 -210q0 -195 -176 -338q158 -21 303 -21zM279 565q0 -84 61.5 -152t177.5 -112
q119 42 184.5 105.5t65.5 140.5q0 97 -68.5 169t-175.5 72q-106 0 -175.5 -67t-69.5 -156z" />
    <glyph glyph-name="uni06A1.fina" unicode="&#x6a1;" horiz-adv-x="1966" 
d="M1966 221l35 -6l-10 -209l-35 -6q-276 0 -518 94q-193 -94 -520 -94h-244q-325 0 -471 120t-146 363q0 195 88 394l150 -54q-68 -179 -68 -299q0 -155 113 -229t342 -74h309q108 0 207 15q-164 141 -164 317q0 118 50 221.5t147 169.5t219 66q114 0 204.5 -61
t137.5 -158.5t47 -208.5q0 -194 -172 -340q135 -21 299 -21zM1192 565q0 -85 63.5 -153.5t184.5 -112.5q112 44 176.5 109t64.5 141q0 96 -68.5 167.5t-176.5 71.5q-106 0 -175 -67t-69 -156z" />
    <glyph glyph-name="uniFB51" unicode="&#x671;" horiz-adv-x="546" arabic-form="final" 
d="M473 1602q0 -168 -209 -168h-272v116h63q43 101 112.5 165.5t145.5 64.5q75 0 117.5 -51.5t42.5 -126.5zM309 1655q-82 0 -159 -105h133q96 0 96 47q0 26 -19.5 42t-50.5 16zM547 221l35 -6l-11 -209l-34 -6q-181 0 -291.5 88t-110.5 270v959h176v-893q0 -63 17 -104
t50.5 -62t73 -29t95.5 -8z" />
    <glyph glyph-name="uniFB57" unicode="&#x67e;" horiz-adv-x="1918" arabic-form="final" 
d="M1919 221l35 -6l-8 -209l-35 -6q-138 0 -227.5 55t-116.5 166q-45 -111 -164.5 -166t-327.5 -55h-401q-325 0 -471 120t-146 363q0 195 88 394l150 -54q-68 -179 -68 -297q0 -157 113 -231t342 -74h393q216 0 323 53t107 164v297h172v-289q0 -72 14 -117t46.5 -68.5
t73.5 -31.5t108 -8zM864 -248q0 -42 -27.5 -71t-70.5 -29q-42 0 -70 29t-28 71q0 40 28 69t70 29q43 0 70.5 -28.5t27.5 -69.5zM1018 -150q43 0 70.5 -28.5t27.5 -69.5q0 -42 -27.5 -71t-70.5 -29t-70.5 29t-27.5 71t27 70t71 28zM893 -385q41 0 69.5 -28.5t28.5 -69.5
t-27.5 -70t-70.5 -29t-70.5 29t-27.5 70t28.5 69.5t69.5 28.5z" />
    <glyph glyph-name="uniFB58" unicode="&#x67e;" horiz-adv-x="518" arabic-form="initial" 
d="M-8 0l-35 8l8 205l35 8q121 0 179.5 47t58.5 146q0 143 -58 397l166 43q64 -246 64 -420q0 -208 -113 -321t-305 -113zM82 -348q-42 0 -70 29t-28 71q0 40 28 69t70 29q43 0 70.5 -28.5t27.5 -69.5q0 -42 -27.5 -71t-70.5 -29zM334 -348q-43 0 -70.5 29t-27.5 71t27 70
t71 28q43 0 70.5 -28.5t27.5 -69.5q0 -42 -27.5 -71t-70.5 -29zM209 -582q-43 0 -70.5 29t-27.5 70t28.5 69.5t69.5 28.5t69.5 -28.5t28.5 -69.5t-27.5 -70t-70.5 -29z" />
    <glyph glyph-name="uniFB59" unicode="&#x67e;" horiz-adv-x="655" arabic-form="medial" 
d="M655 221l35 -6l-8 -209l-35 -6q-133 0 -220.5 50.5t-117.5 152.5q-30 -95 -112.5 -149t-204.5 -54l-35 6l8 209l35 6q48 0 82 4.5t66 18t51.5 37.5t31 64t11.5 97v293h172v-289q0 -72 13.5 -117t46 -68.5t73.5 -31.5t108 -8zM299 -248q0 -42 -27.5 -71t-70.5 -29
q-42 0 -70.5 29t-28.5 71q0 40 28.5 69t70.5 29q43 0 70.5 -28.5t27.5 -69.5zM453 -150q43 0 70.5 -28.5t27.5 -69.5q0 -42 -27.5 -71t-70.5 -29t-71 29t-28 71t27.5 70t71.5 28zM328 -385q41 0 69.5 -28.5t28.5 -69.5t-27.5 -70t-70.5 -29t-71 29t-28 70t29 69.5t70 28.5z
" />
    <glyph glyph-name="uniFB6B" unicode="&#x6a4;" horiz-adv-x="1966" arabic-form="final" 
d="M1454 1423q-41 0 -69.5 29.5t-28.5 69.5q0 42 27.5 71t70.5 29t70.5 -29t27.5 -71q0 -40 -28.5 -69.5t-69.5 -29.5zM1327 1190q-42 0 -70 29t-28 69q0 42 28 70t70 28q44 0 71 -28t27 -70t-27 -70t-71 -28zM1481 1288q0 42 27 70t71 28t71 -28t27 -70q0 -41 -27.5 -69.5
t-70.5 -28.5q-44 0 -71 28t-27 70zM1966 221l35 -6l-10 -209l-35 -6q-276 0 -518 94q-193 -94 -520 -94h-244q-325 0 -471 120t-146 363q0 195 88 394l150 -54q-68 -179 -68 -299q0 -155 113 -229t342 -74h309q108 0 207 15q-164 141 -164 317q0 118 50 221.5t147 169.5
t219 66q114 0 204.5 -61t137.5 -158.5t47 -208.5q0 -194 -172 -340q135 -21 299 -21zM1192 565q0 -85 63.5 -153.5t184.5 -112.5q112 44 176.5 109t64.5 141q0 96 -68.5 167.5t-176.5 71.5q-106 0 -175 -67t-69 -156z" />
    <glyph glyph-name="uniFB6C" unicode="&#x6a4;" horiz-adv-x="1005" arabic-form="initial" 
d="M492 1610q-41 0 -70 29t-29 69q0 42 28 71t71 29t70.5 -29t27.5 -71q0 -40 -28.5 -69t-69.5 -29zM365 1376q-42 0 -70.5 29.5t-28.5 69.5q0 41 28 69.5t71 28.5q44 0 71 -28t27 -70t-27.5 -70.5t-70.5 -28.5zM518 1475q0 42 27 70t71 28t71.5 -28t27.5 -70q0 -41 -28 -70
t-71 -29t-70.5 28.5t-27.5 70.5zM487 1196q129 0 225.5 -76.5t143.5 -199t47 -271.5q0 -189 -33.5 -316t-104.5 -200t-168 -103t-237 -30h-368l-35 6l8 209l35 6h365q48 0 85.5 3t77.5 11t70 22.5t57.5 39t45.5 58t29.5 81t14.5 107.5q-101 -156 -315 -156q-179 0 -273 97
t-94 257q0 194 118.5 324.5t305.5 130.5zM451 594q104 0 177 35t111 92q-10 46 -30 88.5t-51.5 82.5t-80.5 64.5t-108 24.5q-115 0 -181.5 -67t-66.5 -150q0 -81 62 -125.5t168 -44.5z" />
    <glyph glyph-name="uniFB6D" unicode="&#x6a4;" horiz-adv-x="1052" arabic-form="medial" 
d="M541 1423q-41 0 -70 29.5t-29 69.5q0 42 28 71t71 29t70.5 -29t27.5 -71q0 -40 -28.5 -69.5t-69.5 -29.5zM414 1190q-42 0 -70.5 29t-28.5 69q0 42 28.5 70t70.5 28q44 0 71 -28t27 -70t-27 -70t-71 -28zM567 1288q0 42 27.5 70t71.5 28t71 -28t27 -70q0 -41 -27.5 -69.5
t-70.5 -28.5q-44 0 -71.5 28t-27.5 70zM1053 221l34 -6l-8 -209l-35 -6q-296 0 -532 98q-216 -98 -520 -98l-35 6l8 209l35 6q140 0 276 19q-153 140 -153 313q0 118 50 221.5t147 169.5t219 66q113 0 202.5 -61t137 -159t47.5 -210q0 -195 -176 -338q158 -21 303 -21z
M279 565q0 -84 61.5 -152t177.5 -112q119 42 184.5 105.5t65.5 140.5q0 97 -68.5 169t-175.5 72q-106 0 -175.5 -67t-69.5 -156z" />
    <glyph glyph-name="uniFB7B" unicode="&#x686;" horiz-adv-x="1415" arabic-form="final" 
d="M1415 221l35 -6l-8 -209l-35 -6q-101 0 -174.5 27t-119 72.5t-72.5 119.5t-37 155t-11 191q-383 -109 -585.5 -277t-202.5 -380q0 -55 15.5 -106t54.5 -101t97.5 -86.5t151.5 -59t209 -22.5q170 0 315 34t216 66l26 -192q-32 -17 -74.5 -34t-117.5 -41t-177.5 -39
t-211.5 -15q-313 0 -489.5 151.5t-176.5 417.5q0 137 57.5 262t157.5 219.5t230 163t278 103.5h-705v205h1199v-205q-108 -23 -138 -31q1 -103 15 -171t47.5 -116t89.5 -69t141 -21zM702 102q0 -39 -26 -66.5t-68 -27.5t-68 27.5t-26 66.5q0 41 26 69t68 28t68 -28t26 -69z
M944 102q0 -39 -26 -66.5t-68 -27.5q-41 0 -67.5 27.5t-26.5 66.5q0 40 26.5 68.5t67.5 28.5q42 0 68 -28t26 -69zM731 -217q-42 0 -69 27.5t-27 66.5t27.5 66.5t68.5 27.5q38 0 65 -28t27 -66q0 -39 -26 -66.5t-66 -27.5z" />
    <glyph glyph-name="uniFB7C" unicode="&#x686;" horiz-adv-x="1495" arabic-form="initial" 
d="M1212 618h222l-15 -229h-356q-169 -118 -310 -195t-269.5 -119.5t-241.5 -58.5t-250 -16l-35 6l8 209l35 6q83 0 146.5 4t156 19.5t181.5 43t207 78.5t247 123q-46 21 -123 62q-57 29 -74.5 37.5t-68 31t-80.5 30.5t-75.5 16t-88.5 8q-153 0 -287 -90l-73 145
q42 59 146 110.5t232 51.5q48 0 95 -8t80 -17.5t75.5 -29t64 -31.5t64 -37.5t58.5 -34.5q135 -77 188.5 -96t140.5 -19zM874 -86q0 -42 -27.5 -71t-70.5 -29q-42 0 -70 29t-28 71q0 40 28 69t70 29q43 0 70.5 -28.5t27.5 -69.5zM1028 12q43 0 70.5 -28.5t27.5 -69.5
q0 -42 -27.5 -71t-70.5 -29t-70.5 29t-27.5 71t27 70t71 28zM903 -223q41 0 69.5 -29t28.5 -70t-27.5 -69.5t-70.5 -28.5t-70.5 28.5t-27.5 69.5t28.5 70t69.5 29z" />
    <glyph glyph-name="uniFB7D" unicode="&#x686;" arabic-form="medial" 
d="M1536 221l35 -6l-8 -209l-35 -6q-113 0 -190 26t-121 79.5t-63.5 121t-23.5 162.5h-67q-169 -118 -310 -195t-269.5 -119.5t-241.5 -58.5t-250 -16l-35 6l8 209l35 6q83 0 146.5 4t156 19.5t181.5 43t207 78.5t247 123q-46 21 -123 62q-57 29 -74.5 37.5t-68 31
t-80.5 30.5t-75.5 16t-88.5 8q-153 0 -287 -90l-73 145q42 59 146 110.5t232 51.5q48 0 95 -8t80 -17.5t75.5 -29t64 -31.5t64 -37.5t58.5 -34.5q135 -77 188.5 -96t140.5 -19h222l-15 -229h-168q19 -93 82.5 -130.5t202.5 -37.5zM874 -86q0 -42 -27.5 -71t-70.5 -29
q-42 0 -70 29t-28 71q0 40 28 69t70 29q43 0 70.5 -28.5t27.5 -69.5zM1028 12q43 0 70.5 -28.5t27.5 -69.5q0 -42 -27.5 -71t-70.5 -29t-70.5 29t-27.5 71t27 70t71 28zM903 -223q41 0 69.5 -29t28.5 -70t-27.5 -69.5t-70.5 -28.5t-70.5 28.5t-27.5 69.5t28.5 70t69.5 29z
" />
    <glyph glyph-name="uniFB8B" unicode="&#x698;" horiz-adv-x="788" arabic-form="final" 
d="M434 1106q-41 0 -69.5 29t-28.5 69q0 42 27.5 71.5t70.5 29.5t70.5 -29.5t27.5 -71.5q0 -40 -28.5 -69t-69.5 -29zM307 872q-42 0 -70 29t-28 70q0 42 28 70t70 28q44 0 71.5 -28t27.5 -70t-27.5 -70.5t-71.5 -28.5zM461 971q0 42 27 70t71 28t71 -28t27 -70
q0 -41 -27.5 -70t-70.5 -29t-70.5 28.5t-27.5 70.5zM608 221h180l35 -8l-10 -205l-35 -8h-184q-27 -130 -99 -231t-190 -161.5t-264 -60.5q-105 0 -176 23l18 207q63 -8 140 -8q85 0 155.5 21.5t118 56.5t80.5 82t48 96t15 100t-8 121.5t-15 113.5t-27.5 155.5t-27.5 150.5
l170 45q67 -333 76 -490z" />
    <glyph glyph-name="uniFB8F" unicode="&#x6a9;" horiz-adv-x="1988" arabic-form="final" 
d="M1989 221l34 -6l-10 -209l-35 -6h-22q-109 0 -188.5 27.5t-145 81.5t-158.5 159q-26 -130 -133.5 -199t-316.5 -69h-340q-325 0 -471 120t-146 363q0 195 88 394l150 -54q-68 -179 -68 -297q0 -157 113 -231t342 -74h348q164 0 234 33.5t92 114.5l-389 456v185l860 469
l74 -174l-748 -400l408 -456q54 -60 84 -91t70 -62.5t76 -44.5t84.5 -21.5t113.5 -8.5z" />
    <glyph glyph-name="uniFB90" unicode="&#x6a9;" horiz-adv-x="917" arabic-form="initial" 
d="M895 1288l-668 -381q216 -122 298 -184q169 -126 200 -265q8 -35 8 -73q0 -190 -130.5 -287.5t-375.5 -97.5h-235l-35 6l8 209l35 6h260q141 0 227 35t86 106q0 88 -111 175q-82 63 -327 194q-17 9 -52 28q-33 18 -50 27v209l792 463z" />
    <glyph glyph-name="uniFB91" unicode="&#x6a9;" horiz-adv-x="1124" arabic-form="medial" 
d="M1124 221l35 -6l-10 -209l-35 -6h-22q-109 0 -188.5 27.5t-145 81.5t-158.5 159q-28 -131 -137 -199.5t-322 -68.5h-149l-35 6l8 209l35 6h158q115 0 183 15t102.5 47t48.5 88l-390 454v185l863 469l71 -174l-747 -400l383 -430q60 -67 94 -102t76.5 -70t80.5 -49.5
t87 -23.5t114 -9z" />
    <glyph glyph-name="uniFB93" unicode="&#x6af;" horiz-adv-x="1988" arabic-form="final" 
d="M1722 1708l43 -100l-798 -434l-43 100zM1989 221l34 -6l-10 -209l-35 -6h-22q-109 0 -188.5 27.5t-145 81.5t-158.5 159q-26 -130 -133.5 -199t-316.5 -69h-340q-325 0 -471 120t-146 363q0 195 88 394l150 -54q-68 -179 -68 -297q0 -157 113 -231t342 -74h348
q164 0 234 33.5t92 114.5l-389 456v185l860 469l74 -174l-748 -400l408 -456q54 -60 84 -91t70 -62.5t76 -44.5t84.5 -21.5t113.5 -8.5z" />
    <glyph glyph-name="uniFB94" unicode="&#x6af;" horiz-adv-x="917" arabic-form="initial" 
d="M723 1694l43 -99l-737 -436l-45 101zM895 1288l-668 -381q216 -122 298 -184q169 -126 200 -265q8 -35 8 -73q0 -190 -130.5 -287.5t-375.5 -97.5h-235l-35 6l8 209l35 6h260q141 0 227 35t86 106q0 88 -111 175q-82 63 -327 194q-17 9 -52 28q-33 18 -50 27v209l792 463
z" />
    <glyph glyph-name="uniFB95" unicode="&#x6af;" horiz-adv-x="1124" arabic-form="medial" 
d="M858 1708l43 -100l-799 -434l-43 100zM1124 221l35 -6l-10 -209l-35 -6h-22q-109 0 -188.5 27.5t-145 81.5t-158.5 159q-28 -131 -137 -199.5t-322 -68.5h-149l-35 6l8 209l35 6h158q115 0 183 15t102.5 47t48.5 88l-390 454v185l863 469l71 -174l-747 -400l383 -430
q60 -67 94 -102t76.5 -70t80.5 -49.5t87 -23.5t114 -9z" />
    <glyph glyph-name="uniFB9F" unicode="&#x6ba;" horiz-adv-x="1513" arabic-form="final" 
d="M1323 221h190l35 -8l-8 -205l-35 -8h-194q-43 -217 -210.5 -339t-426.5 -122q-289 0 -453 151t-164 404q0 239 109 471l149 -53q-36 -79 -61 -185t-25 -190q0 -187 120.5 -282t338.5 -95q216 0 340.5 93t124.5 262q0 106 -23.5 228t-70.5 300l172 47q80 -276 92 -469z
" />
    <glyph glyph-name="uniFBFD" unicode="&#x6cc;" horiz-adv-x="1478" arabic-form="final" 
d="M934 221h545l34 -6l-8 -209l-35 -6h-45q-1 -77 -28.5 -148t-85.5 -134t-141 -109.5t-201.5 -73.5t-259.5 -27q-307 0 -479.5 164.5t-172.5 440.5q0 249 117 516l150 -56q-43 -98 -69 -214.5t-26 -204.5q0 -211 132 -317.5t372 -106.5q131 0 235.5 25.5t166.5 67t95.5 89
t37.5 96.5h-334v213z" />
    <glyph glyph-name="uniFBFE" unicode="&#x6cc;" horiz-adv-x="518" arabic-form="initial" 
d="M-8 0l-35 8l8 205l35 8q121 0 179.5 47t58.5 146q0 143 -58 397l166 43q64 -246 64 -420q0 -208 -113 -321t-305 -113zM76 -354q-42 0 -72.5 30t-30.5 72q0 41 31 71.5t72 30.5q42 0 72 -30t30 -72q0 -43 -29 -72.5t-73 -29.5zM344 -354q-44 0 -73 29.5t-29 72.5
q0 42 29 72t73 30q41 0 71.5 -30.5t30.5 -71.5q0 -42 -30 -72t-72 -30z" />
    <glyph glyph-name="uniFBFF" unicode="&#x6cc;" horiz-adv-x="655" arabic-form="medial" 
d="M655 221l35 -6l-8 -209l-35 -6q-133 0 -220.5 50.5t-117.5 152.5q-30 -95 -112.5 -149t-204.5 -54l-35 6l8 209l35 6q48 0 82 4.5t66 18t51.5 37.5t31 64t11.5 97v293h172v-289q0 -72 13.5 -117t46 -68.5t73.5 -31.5t108 -8zM193 -150q42 0 72 -30t30 -72
q0 -43 -29 -72.5t-73 -29.5q-42 0 -72.5 30t-30.5 72q0 41 31 71.5t72 30.5zM461 -150q41 0 71.5 -30.5t30.5 -71.5q0 -42 -30 -72t-72 -30q-44 0 -73.5 29.5t-29.5 72.5q0 42 29.5 72t73.5 30z" />
    <glyph glyph-name="uniFE82" unicode="&#x622;" horiz-adv-x="546" arabic-form="final" 
d="M496 1604v-129q-57 -39 -160 -39q-54 0 -135 19.5t-115 19.5q-70 0 -135 -27v127q71 49 155 49q46 0 130 -19.5t135 -19.5q61 0 125 19zM135 358v959h176v-893q0 -63 17 -104t50.5 -62t73 -29t95.5 -8l35 -6l-11 -209l-34 -6q-181 0 -291.5 88t-110.5 270z" />
    <glyph glyph-name="uniFE84" unicode="&#x623;" horiz-adv-x="546" arabic-form="final" 
d="M264 1554h148v-118h-379v112h61q-26 29 -26 84q0 71 48 123.5t130 52.5q49 0 89 -24t58 -58l-53 -86l-10 8q-10 7 -13.5 9t-13.5 7.5t-17 8t-17.5 4.5t-20.5 2q-37 0 -64.5 -18.5t-27.5 -46.5q0 -26 28.5 -43t79.5 -17zM547 221l35 -6l-11 -209l-34 -6q-181 0 -291.5 88
t-110.5 270v959h176v-893q0 -63 17 -104t50.5 -62t73 -29t95.5 -8z" />
    <glyph glyph-name="uniFE86" unicode="&#x624;" horiz-adv-x="1097" arabic-form="final" 
d="M606 1065h148v-119h-379v113h61q-26 29 -26 84q0 71 48 123.5t130 52.5q49 0 89 -24t58 -58l-53 -86l-10 7q-10 8 -13.5 10t-13.5 7.5t-17 8t-17.5 4.5t-20.5 2q-37 0 -64.5 -19t-27.5 -47q0 -26 28.5 -42.5t79.5 -16.5zM971 221h127l35 -18l-9 -183l-34 -20h-154
q-28 -99 -78 -178.5t-127 -142.5t-189 -97.5t-251 -34.5q-174 0 -287 37l16 201q137 -25 277 -25q194 0 316 69.5t173 178.5h-268q-186 0 -283.5 94t-97.5 246q0 201 121 340t307 139q127 0 220 -74.5t139.5 -201t46.5 -287.5v-43zM295 365q0 -69 64.5 -106.5t181.5 -37.5
h278q-1 66 -16 130.5t-45.5 124.5t-85 97t-125.5 37q-80 0 -139 -38.5t-86 -93t-27 -113.5z" />
    <glyph glyph-name="uniFE88" unicode="&#x625;" horiz-adv-x="552" arabic-form="final" 
d="M543 221h10l35 -6l-10 -209l-35 -6h-6q-186 0 -294 87.5t-108 266.5v1098h176v-1028q0 -61 16.5 -102t49 -62.5t72 -30t94.5 -8.5zM209 -340q0 -26 28.5 -42.5t79.5 -16.5h148v-121h-379v114h59q-24 30 -24 84q0 71 48 124t130 53q49 0 89 -24t58 -58l-53 -88
q-49 39 -92 39q-37 0 -64.5 -18t-27.5 -46z" />
    <glyph glyph-name="uniFE8A" unicode="&#x626;" horiz-adv-x="1478" arabic-form="final" 
d="M305 846h148v-119h-379v113h61q-26 29 -26 84q0 71 48 123.5t130 52.5q49 0 89 -24t58 -58l-53 -86l-10 8q-10 7 -13.5 9t-13.5 7.5t-17 8t-17.5 4.5t-20.5 2q-37 0 -64.5 -19t-27.5 -47q0 -26 28.5 -42.5t79.5 -16.5zM934 221h545l34 -6l-8 -209l-35 -6h-45
q-1 -77 -28.5 -148t-85.5 -134t-141 -109.5t-201.5 -73.5t-259.5 -27q-307 0 -479.5 164.5t-172.5 440.5q0 249 117 516l150 -56q-43 -98 -69 -214.5t-26 -204.5q0 -211 132 -317.5t372 -106.5q131 0 235.5 25.5t166.5 67t95.5 89t37.5 96.5h-334v213z" />
    <glyph glyph-name="uniFE8B" unicode="&#x626;" horiz-adv-x="518" arabic-form="initial" 
d="M299 1073h147v-119h-378v113h61q-27 30 -27 84q0 71 48.5 123.5t130.5 52.5q49 0 89 -24t58 -58l-53 -86l-10 7q-10 8 -13.5 10t-13.5 7.5t-17 8t-17.5 4.5t-20.5 2q-37 0 -65 -18.5t-28 -46.5q0 -26 29 -43t80 -17zM180 811l166 43q64 -246 64 -420q0 -208 -113 -321
t-305 -113l-35 8l8 205l35 8q121 0 179.5 47t58.5 146q0 143 -58 397z" />
    <glyph glyph-name="uniFE8C" unicode="&#x626;" horiz-adv-x="655" arabic-form="medial" 
d="M369 973h147v-119h-379v113h62q-27 30 -27 84q0 71 48 123.5t130 52.5q49 0 89.5 -24t58.5 -58l-54 -86l-10 7q-10 8 -13.5 10t-13.5 7.5t-17 8t-17.5 4.5t-20.5 2q-37 0 -64.5 -19t-27.5 -47q0 -26 29 -42.5t80 -16.5zM655 221l35 -6l-8 -209l-35 -6q-133 0 -220.5 50.5
t-117.5 152.5q-30 -95 -112.5 -149t-204.5 -54l-35 6l8 209l35 6q48 0 82 4.5t66 18t51.5 37.5t31 64t11.5 97v293h172v-289q0 -72 13.5 -117t46 -68.5t73.5 -31.5t108 -8z" />
    <glyph glyph-name="uniFE8E" unicode="&#x627;" horiz-adv-x="552" arabic-form="final" 
d="M135 354v1098h176v-1028q0 -61 16.5 -102t49 -62.5t72 -30t94.5 -8.5h10l35 -6l-10 -209l-35 -6h-6q-186 0 -294 87.5t-108 266.5z" />
    <glyph glyph-name="uniFE90" unicode="&#x628;" horiz-adv-x="1918" arabic-form="final" 
d="M1919 221l35 -6l-8 -209l-35 -6q-138 0 -227.5 55t-116.5 166q-45 -111 -164.5 -166t-327.5 -55h-401q-325 0 -471 120t-146 363q0 195 88 394l150 -54q-68 -179 -68 -297q0 -157 113 -231t342 -74h393q216 0 323 53t107 164v297h172v-289q0 -72 14 -117t46.5 -68.5
t73.5 -31.5t108 -8zM893 -150q47 0 79 -32.5t32 -77.5q0 -46 -32 -79.5t-79 -33.5q-49 0 -81 33t-32 80q0 45 32 77.5t81 32.5z" />
    <glyph glyph-name="uniFE91" unicode="&#x628;" horiz-adv-x="518" arabic-form="initial" 
d="M-8 0l-35 8l8 205l35 8q121 0 179.5 47t58.5 146q0 143 -58 397l166 43q64 -246 64 -420q0 -208 -113 -321t-305 -113zM209 -373q-49 0 -81 33t-32 80q0 45 32 77.5t81 32.5q47 0 78.5 -32.5t31.5 -77.5q0 -46 -31.5 -79.5t-78.5 -33.5z" />
    <glyph glyph-name="uniFE92" unicode="&#x628;" horiz-adv-x="655" arabic-form="medial" 
d="M655 221l35 -6l-8 -209l-35 -6q-133 0 -220.5 50.5t-117.5 152.5q-30 -95 -112.5 -149t-204.5 -54l-35 6l8 209l35 6q48 0 82 4.5t66 18t51.5 37.5t31 64t11.5 97v293h172v-289q0 -72 13.5 -117t46 -68.5t73.5 -31.5t108 -8zM328 -150q47 0 78.5 -32.5t31.5 -77.5
q0 -46 -31.5 -79.5t-78.5 -33.5q-49 0 -81 33t-32 80q0 45 32 77.5t81 32.5z" />
    <glyph glyph-name="uniFE94" unicode="&#x629;" horiz-adv-x="1136" arabic-form="final" 
d="M367 1284q-42 0 -72.5 30t-30.5 72q0 41 31 72t72 31q42 0 72 -30.5t30 -72.5q0 -43 -29 -72.5t-73 -29.5zM635 1284q-44 0 -73.5 29.5t-29.5 72.5q0 42 29.5 72.5t73.5 30.5q41 0 71.5 -31t30.5 -72q0 -42 -30 -72t-72 -30zM1137 221l34 -6l-8 -207l-35 -8
q-338 0 -385 299q-82 -172 -311 -172q-168 0 -271.5 97t-103.5 259q0 94 36 173t114 148t209.5 121.5t312.5 86.5v145h170v-717q0 -69 16.5 -114t50.5 -67t73 -30t98 -8zM455 350q106 0 176 31.5t98 77.5v356q-272 -49 -393 -129.5t-121 -175.5q0 -79 66 -119.5t174 -40.5z
" />
    <glyph glyph-name="uniFE96" unicode="&#x62a;" horiz-adv-x="1918" arabic-form="final" 
d="M762 872q-42 0 -72.5 30.5t-30.5 72.5q0 41 31 71.5t72 30.5q42 0 72 -30t30 -72q0 -43 -29 -73t-73 -30zM1030 872q-44 0 -73 30t-29 73q0 42 29 72t73 30q41 0 72 -30.5t31 -71.5q0 -42 -30.5 -72.5t-72.5 -30.5zM1919 221l35 -6l-8 -209l-35 -6q-138 0 -227.5 55
t-116.5 166q-45 -111 -164.5 -166t-327.5 -55h-401q-325 0 -471 120t-146 363q0 195 88 394l150 -54q-68 -179 -68 -297q0 -157 113 -231t342 -74h393q216 0 323 53t107 164v297h172v-289q0 -72 14 -117t46.5 -68.5t73.5 -31.5t108 -8z" />
    <glyph glyph-name="uniFE97" unicode="&#x62a;" horiz-adv-x="518" arabic-form="initial" 
d="M20 1112q0 41 31 71.5t72 30.5q42 0 72 -30t30 -72q0 -43 -29 -72.5t-73 -29.5q-42 0 -72.5 30t-30.5 72zM289 1112q0 42 29 72t73 30q41 0 72 -30.5t31 -71.5q0 -42 -30.5 -72t-72.5 -30q-44 0 -73 29.5t-29 72.5zM-8 0l-35 8l8 205l35 8q121 0 179.5 47t58.5 146
q0 143 -58 397l166 43q64 -246 64 -420q0 -208 -113 -321t-305 -113z" />
    <glyph glyph-name="uniFE98" unicode="&#x62a;" horiz-adv-x="655" arabic-form="medial" 
d="M193 909q-42 0 -72.5 30.5t-30.5 72.5q0 41 31 71.5t72 30.5q42 0 72 -30t30 -72q0 -43 -29 -73t-73 -30zM461 909q-44 0 -73.5 30t-29.5 73q0 42 29.5 72t73.5 30q41 0 71.5 -30.5t30.5 -71.5q0 -42 -30.5 -72.5t-71.5 -30.5zM655 221l35 -6l-8 -209l-35 -6
q-133 0 -220.5 50.5t-117.5 152.5q-30 -95 -112.5 -149t-204.5 -54l-35 6l8 209l35 6q48 0 82 4.5t66 18t51.5 37.5t31 64t11.5 97v293h172v-289q0 -72 13.5 -117t46 -68.5t73.5 -31.5t108 -8z" />
    <glyph glyph-name="uniFE9A" unicode="&#x62b;" horiz-adv-x="1918" arabic-form="final" 
d="M899 1112q-41 0 -69.5 29t-28.5 69q0 42 27.5 71.5t70.5 29.5t70.5 -29.5t27.5 -71.5q0 -40 -28.5 -69t-69.5 -29zM772 879q-42 0 -70 29t-28 69q0 42 28 70t70 28q44 0 71 -28t27 -70t-27 -70t-71 -28zM926 977q0 42 27 70t71 28t71 -28t27 -70q0 -41 -27.5 -69.5
t-70.5 -28.5q-44 0 -71 28t-27 70zM1919 221l35 -6l-8 -209l-35 -6q-138 0 -227.5 55t-116.5 166q-45 -111 -164.5 -166t-327.5 -55h-401q-325 0 -471 120t-146 363q0 195 88 394l150 -54q-68 -179 -68 -297q0 -157 113 -231t342 -74h393q216 0 323 53t107 164v297h172v-289
q0 -72 14 -117t46.5 -68.5t73.5 -31.5t108 -8z" />
    <glyph glyph-name="uniFE9B" unicode="&#x62b;" horiz-adv-x="518" arabic-form="initial" 
d="M260 1249q-41 0 -69.5 29.5t-28.5 69.5q0 42 27.5 71t70.5 29t70.5 -29t27.5 -71q0 -40 -28.5 -69.5t-69.5 -29.5zM133 1016q-42 0 -70 29t-28 69q0 42 28 70t70 28q44 0 71 -28t27 -70t-27 -70t-71 -28zM385 1016q-44 0 -71 28t-27 70t27 70t71 28t71 -28t27 -70
q0 -41 -27.5 -69.5t-70.5 -28.5zM-8 0l-35 8l8 205l35 8q121 0 179.5 47t58.5 146q0 143 -58 397l166 43q64 -246 64 -420q0 -208 -113 -321t-305 -113z" />
    <glyph glyph-name="uniFE9C" unicode="&#x62b;" horiz-adv-x="655" arabic-form="medial" 
d="M330 1149q-41 0 -70 29t-29 69q0 42 28 71.5t71 29.5t70.5 -29.5t27.5 -71.5q0 -40 -28.5 -69t-69.5 -29zM203 915q-42 0 -70.5 29.5t-28.5 69.5q0 42 28 70t71 28q44 0 71 -28t27 -70t-27.5 -70.5t-70.5 -28.5zM356 1014q0 42 27.5 70t71.5 28t71 -28t27 -70
q0 -41 -27.5 -70t-70.5 -29q-44 0 -71.5 28.5t-27.5 70.5zM655 221l35 -6l-8 -209l-35 -6q-133 0 -220.5 50.5t-117.5 152.5q-30 -95 -112.5 -149t-204.5 -54l-35 6l8 209l35 6q48 0 82 4.5t66 18t51.5 37.5t31 64t11.5 97v293h172v-289q0 -72 13.5 -117t46 -68.5
t73.5 -31.5t108 -8z" />
    <glyph glyph-name="uniFE9E" unicode="&#x62c;" horiz-adv-x="1415" arabic-form="final" 
d="M1415 221l35 -6l-8 -209l-35 -6q-102 0 -175.5 27t-119 72.5t-72.5 119.5t-36.5 155t-10.5 191q-383 -109 -585.5 -277t-202.5 -380q0 -55 15.5 -106t54.5 -101t97.5 -86.5t151.5 -59t209 -22.5q170 0 315 34t216 66l26 -192q-32 -17 -74.5 -34t-117.5 -41t-177.5 -39
t-211.5 -15q-313 0 -489.5 151.5t-176.5 417.5q0 137 57.5 262t157.5 219.5t230 163t278 103.5h-705v205h1199v-205q-108 -23 -138 -31q1 -103 15 -171t47.5 -116t89.5 -69t141 -21zM594 23q0 47 32 79.5t81 32.5q47 0 78.5 -33t31.5 -79q0 -45 -32 -78t-78 -33
q-48 0 -80.5 33t-32.5 78z" />
    <glyph glyph-name="uniFE9F" unicode="&#x62c;" horiz-adv-x="1495" arabic-form="initial" 
d="M1212 618h222l-15 -229h-356q-169 -118 -310 -195t-269.5 -119.5t-241.5 -58.5t-250 -16l-35 6l8 209l35 6q83 0 146.5 4t156 19.5t181.5 43t207 78.5t247 123q-46 21 -123 62q-57 29 -74.5 37.5t-68 31t-80.5 30.5t-75.5 16t-88.5 8q-153 0 -287 -90l-73 145
q42 59 146 110.5t232 51.5q48 0 95 -8t80 -17.5t75.5 -29t64 -31.5t64 -37.5t58.5 -34.5q135 -77 188.5 -96t140.5 -19zM903 12q47 0 79 -32.5t32 -77.5q0 -46 -32 -79.5t-79 -33.5q-49 0 -80.5 33t-31.5 80q0 45 32 77.5t80 32.5z" />
    <glyph glyph-name="uniFEA0" unicode="&#x62c;" arabic-form="medial" 
d="M1536 221l35 -6l-8 -209l-35 -6q-113 0 -190 26t-121 79.5t-63.5 121t-23.5 162.5h-67q-169 -118 -310 -195t-269.5 -119.5t-241.5 -58.5t-250 -16l-35 6l8 209l35 6q83 0 146.5 4t156 19.5t181.5 43t207 78.5t247 123q-46 21 -123 62q-57 29 -74.5 37.5t-68 31
t-80.5 30.5t-75.5 16t-88.5 8q-153 0 -287 -90l-73 145q42 59 146 110.5t232 51.5q48 0 95 -8t80 -17.5t75.5 -29t64 -31.5t64 -37.5t58.5 -34.5q135 -77 188.5 -96t140.5 -19h222l-15 -229h-168q19 -93 82.5 -130.5t202.5 -37.5zM901 12q47 0 79 -32.5t32 -77.5
q0 -46 -32 -79.5t-79 -33.5q-49 0 -81 33t-32 80q0 45 32 77.5t81 32.5z" />
    <glyph glyph-name="uniFEA2" unicode="&#x62d;" horiz-adv-x="1415" arabic-form="final" 
d="M1415 221l35 -6l-8 -209l-35 -6q-101 0 -174.5 27t-119 72.5t-72.5 119.5t-37 155t-11 191q-383 -109 -585.5 -277t-202.5 -380q0 -55 15.5 -106t54.5 -101t97.5 -86.5t151.5 -59t209 -22.5q170 0 315 34t216 66l26 -192q-32 -17 -74.5 -34t-117.5 -41t-177.5 -39
t-211.5 -15q-313 0 -489.5 151.5t-176.5 417.5q0 137 57.5 262t157.5 219.5t230 163t278 103.5h-705v205h1199v-205q-108 -23 -138 -31q1 -103 15 -171t47.5 -116t89.5 -69t141 -21z" />
    <glyph glyph-name="uniFEA3" unicode="&#x62d;" horiz-adv-x="1495" arabic-form="initial" 
d="M1212 618h222l-15 -229h-356q-169 -118 -310 -195t-269.5 -119.5t-241.5 -58.5t-250 -16l-35 6l8 209l35 6q83 0 146.5 4t156 19.5t181.5 43t207 78.5t247 123q-46 21 -123 62q-57 29 -74.5 37.5t-68 31t-80.5 30.5t-75.5 16t-88.5 8q-153 0 -287 -90l-73 145
q42 59 146 110.5t232 51.5q48 0 95 -8t80 -17.5t75.5 -29t64 -31.5t64 -37.5t58.5 -34.5q135 -77 188.5 -96t140.5 -19z" />
    <glyph glyph-name="uniFEA4" unicode="&#x62d;" arabic-form="medial" 
d="M1536 221l35 -6l-8 -209l-35 -6q-113 0 -190 26t-121 79.5t-63.5 121t-23.5 162.5h-67q-169 -118 -310 -195t-269.5 -119.5t-241.5 -58.5t-250 -16l-35 6l8 209l35 6q83 0 146.5 4t156 19.5t181.5 43t207 78.5t247 123q-46 21 -123 62q-57 29 -74.5 37.5t-68 31
t-80.5 30.5t-75.5 16t-88.5 8q-153 0 -287 -90l-73 145q42 59 146 110.5t232 51.5q48 0 95 -8t80 -17.5t75.5 -29t64 -31.5t64 -37.5t58.5 -34.5q135 -77 188.5 -96t140.5 -19h222l-15 -229h-168q19 -93 82.5 -130.5t202.5 -37.5z" />
    <glyph glyph-name="uniFEA6" unicode="&#x62e;" horiz-adv-x="1415" arabic-form="final" 
d="M686 1010q-49 0 -81 32.5t-32 77.5q0 47 32 80t81 33q47 0 79 -33.5t32 -79.5q0 -45 -32 -77.5t-79 -32.5zM1415 221l35 -6l-8 -209l-35 -6q-101 0 -174.5 27t-119 72.5t-72.5 119.5t-37 155t-11 191q-383 -109 -585.5 -277t-202.5 -380q0 -55 15.5 -106t54.5 -101
t97.5 -86.5t151.5 -59t209 -22.5q170 0 315 34t216 66l26 -192q-32 -17 -74.5 -34t-117.5 -41t-177.5 -39t-211.5 -15q-313 0 -489.5 151.5t-176.5 417.5q0 137 57.5 262t157.5 219.5t230 163t278 103.5h-705v205h1199v-205q-108 -23 -138 -31q1 -103 15 -171t47.5 -116
t89.5 -69t141 -21z" />
    <glyph glyph-name="uniFEA7" unicode="&#x62e;" horiz-adv-x="1495" arabic-form="initial" 
d="M537 1067q-48 0 -80.5 33t-32.5 78q0 47 32 79.5t81 32.5q47 0 78.5 -33t31.5 -79q0 -45 -32 -78t-78 -33zM1212 618h222l-15 -229h-356q-169 -118 -310 -195t-269.5 -119.5t-241.5 -58.5t-250 -16l-35 6l8 209l35 6q83 0 146.5 4t156 19.5t181.5 43t207 78.5t247 123
q-46 21 -123 62q-57 29 -74.5 37.5t-68 31t-80.5 30.5t-75.5 16t-88.5 8q-153 0 -287 -90l-73 145q42 59 146 110.5t232 51.5q48 0 95 -8t80 -17.5t75.5 -29t64 -31.5t64 -37.5t58.5 -34.5q135 -77 188.5 -96t140.5 -19z" />
    <glyph glyph-name="uniFEA8" unicode="&#x62e;" arabic-form="medial" 
d="M537 1067q-48 0 -80.5 33t-32.5 78q0 47 32 79.5t81 32.5q47 0 78.5 -33t31.5 -79q0 -45 -32 -78t-78 -33zM1536 221l35 -6l-8 -209l-35 -6q-113 0 -190 26t-121 79.5t-63.5 121t-23.5 162.5h-67q-169 -118 -310 -195t-269.5 -119.5t-241.5 -58.5t-250 -16l-35 6l8 209
l35 6q83 0 146.5 4t156 19.5t181.5 43t207 78.5t247 123q-46 21 -123 62q-57 29 -74.5 37.5t-68 31t-80.5 30.5t-75.5 16t-88.5 8q-153 0 -287 -90l-73 145q42 59 146 110.5t232 51.5q48 0 95 -8t80 -17.5t75.5 -29t64 -31.5t64 -37.5t58.5 -34.5q135 -77 188.5 -96
t140.5 -19h222l-15 -229h-168q19 -93 82.5 -130.5t202.5 -37.5z" />
    <glyph glyph-name="uniFEAA" unicode="&#x62f;" horiz-adv-x="1298" arabic-form="final" 
d="M1298 221l35 -6l-8 -209l-35 -6q-74 0 -131.5 15.5t-99.5 48.5t-72.5 74.5t-60.5 101.5q-42 -126 -149.5 -192t-274.5 -66q-83 0 -149 13.5t-111.5 37.5t-79 58t-51.5 75.5t-29 88.5t-11 97t1 103l153 8q-4 -80 16 -133t63.5 -79.5t94.5 -36t125 -9.5q136 0 219.5 47
t92.5 135l-299 631l172 80l311 -649q26 -55 43 -86t41 -62.5t49.5 -46t61 -24t83.5 -9.5z" />
    <glyph glyph-name="uniFEAC" unicode="&#x630;" horiz-adv-x="1298" arabic-form="final" 
d="M614 1255q-48 0 -80 33t-32 78q0 47 31.5 80t80.5 33q47 0 79 -33.5t32 -79.5q0 -45 -32 -78t-79 -33zM1298 221l35 -6l-8 -209l-35 -6q-74 0 -131.5 15.5t-99.5 48.5t-72.5 74.5t-60.5 101.5q-42 -126 -149.5 -192t-274.5 -66q-83 0 -149 13.5t-111.5 37.5t-79 58
t-51.5 75.5t-29 88.5t-11 97t1 103l153 8q-4 -80 16 -133t63.5 -79.5t94.5 -36t125 -9.5q136 0 219.5 47t92.5 135l-299 631l172 80l311 -649q26 -55 43 -86t41 -62.5t49.5 -46t61 -24t83.5 -9.5z" />
    <glyph glyph-name="uniFEAE" unicode="&#x631;" horiz-adv-x="788" arabic-form="final" 
d="M608 221h180l35 -8l-10 -205l-35 -8h-184q-27 -130 -99 -231t-190 -161.5t-264 -60.5q-105 0 -176 23l18 207q63 -8 140 -8q85 0 155.5 21.5t118 56.5t80.5 82t48 96t15 100t-8 121.5t-15 113.5t-27.5 155.5t-27.5 150.5l170 45q67 -333 76 -490z" />
    <glyph glyph-name="uniFEB0" unicode="&#x632;" horiz-adv-x="788" arabic-form="final" 
d="M432 868q-48 0 -80.5 33t-32.5 78q0 47 32 80t81 33q47 0 79 -33.5t32 -79.5q0 -45 -32 -78t-79 -33zM608 221h180l35 -8l-10 -205l-35 -8h-184q-27 -130 -99 -231t-190 -161.5t-264 -60.5q-105 0 -176 23l18 207q63 -8 140 -8q85 0 155.5 21.5t118 56.5t80.5 82t48 96
t15 100t-8 121.5t-15 113.5t-27.5 155.5t-27.5 150.5l170 45q67 -333 76 -490z" />
    <glyph glyph-name="uniFEB2" unicode="&#x633;" horiz-adv-x="2691" arabic-form="final" 
d="M2691 221l35 -6l-8 -209l-35 -6q-142 0 -233 45.5t-123 132.5q-56 -178 -283 -178q-233 0 -289 176q-33 -87 -108 -131.5t-179 -44.5h-157q-43 -217 -210.5 -339t-426.5 -122q-289 0 -453 151t-164 404q0 239 109 471l149 -53q-35 -79 -60.5 -184.5t-25.5 -188.5
q0 -188 120.5 -283.5t338.5 -95.5q216 0 340.5 93t124.5 262q0 159 -90 477l172 49q75 -243 88 -420h164q99 0 152 39t53 143v220h172v-220q0 -105 50 -143.5t148 -38.5q93 0 145 39t52 143v220h172v-220q0 -102 63 -142t197 -40z" />
    <glyph glyph-name="uniFEB3" unicode="&#x633;" horiz-adv-x="1675" arabic-form="initial" 
d="M1337 700l166 56q72 -210 72 -367q0 -184 -99 -286.5t-268 -102.5q-242 0 -299 188q-31 -93 -106.5 -140.5t-179.5 -47.5q-112 0 -191 46.5t-110 139.5q-28 -95 -108.5 -140.5t-221.5 -45.5l-35 6l8 209l35 6q140 0 199 38.5t59 148.5v215h172v-220q0 -105 53.5 -143.5
t159.5 -38.5q98 0 151.5 39t53.5 143v220h172v-220q0 -105 50 -143.5t149 -38.5q89 0 136.5 43t47.5 115q0 81 -66 321z" />
    <glyph glyph-name="uniFEB4" unicode="&#x633;" horiz-adv-x="1847" arabic-form="medial" 
d="M1847 221l35 -6l-10 -209l-35 -6q-299 0 -358 180q-30 -90 -103 -135t-176 -45q-235 0 -291 178q-31 -88 -106.5 -133t-179.5 -45q-112 0 -192.5 45t-111.5 133q-58 -178 -327 -178l-35 6l8 209l35 6q131 0 194.5 39t63.5 146v217h172v-217q0 -107 54 -146t159 -39
q63 0 105.5 13.5t71 56t28.5 115.5v217h172v-217q0 -107 50 -146t149 -39q93 0 144.5 40t51.5 145v217h172v-217q0 -104 59 -144.5t201 -40.5z" />
    <glyph glyph-name="uniFEB6" unicode="&#x634;" horiz-adv-x="2691" arabic-form="final" 
d="M1778 1036q-41 0 -70 29.5t-29 69.5q0 42 28 71t71 29t70.5 -29t27.5 -71q0 -40 -28.5 -69.5t-69.5 -29.5zM1651 803q-42 0 -70.5 29t-28.5 69q0 41 28 69.5t71 28.5q44 0 71 -28t27 -70t-27 -70t-71 -28zM1804 901q0 42 27.5 70t71.5 28t71 -28t27 -70
q0 -41 -27.5 -69.5t-70.5 -28.5q-44 0 -71.5 28t-27.5 70zM2691 221l35 -6l-8 -209l-35 -6q-142 0 -233 45.5t-123 132.5q-56 -178 -283 -178q-233 0 -289 176q-33 -87 -108 -131.5t-179 -44.5h-157q-43 -217 -210.5 -339t-426.5 -122q-289 0 -453 151t-164 404
q0 239 109 471l149 -53q-35 -79 -60.5 -184.5t-25.5 -188.5q0 -188 120.5 -283.5t338.5 -95.5q216 0 340.5 93t124.5 262q0 159 -90 477l172 49q75 -243 88 -420h164q99 0 152 39t53 143v220h172v-220q0 -105 50 -143.5t148 -38.5q93 0 145 39t52 143v220h172v-220
q0 -102 63 -142t197 -40z" />
    <glyph glyph-name="uniFEB7" unicode="&#x634;" horiz-adv-x="1675" arabic-form="initial" 
d="M934 1036q-41 0 -69.5 29.5t-28.5 69.5q0 42 27.5 71t70.5 29t70.5 -29t27.5 -71q0 -40 -28.5 -69.5t-69.5 -29.5zM807 803q-42 0 -70 29t-28 69q0 42 28 70t70 28q44 0 71 -28t27 -70t-27 -70t-71 -28zM961 901q0 42 27 70t71 28t71 -28t27 -70q0 -41 -27.5 -69.5
t-70.5 -28.5q-44 0 -71 28t-27 70zM1337 700l166 56q72 -210 72 -367q0 -184 -99 -286.5t-268 -102.5q-242 0 -299 188q-31 -93 -106.5 -140.5t-179.5 -47.5q-112 0 -191 46.5t-110 139.5q-28 -95 -108.5 -140.5t-221.5 -45.5l-35 6l8 209l35 6q140 0 199 38.5t59 148.5v215
h172v-220q0 -105 53.5 -143.5t159.5 -38.5q98 0 151.5 39t53.5 143v220h172v-220q0 -105 50 -143.5t149 -38.5q89 0 136.5 43t47.5 115q0 81 -66 321z" />
    <glyph glyph-name="uniFEB8" unicode="&#x634;" horiz-adv-x="1847" arabic-form="medial" 
d="M936 1032q-41 0 -69.5 29t-28.5 69q0 42 27.5 71.5t70.5 29.5t70.5 -29.5t27.5 -71.5q0 -40 -28.5 -69t-69.5 -29zM809 799q-42 0 -70 29t-28 69q0 42 28 70t70 28q44 0 71 -28t27 -70t-27 -70t-71 -28zM963 897q0 42 27 70t71 28t71 -28t27 -70q0 -41 -27.5 -69.5
t-70.5 -28.5q-44 0 -71 28t-27 70zM1847 221l35 -6l-10 -209l-35 -6q-299 0 -358 180q-30 -90 -103 -135t-176 -45q-235 0 -291 178q-31 -88 -106.5 -133t-179.5 -45q-112 0 -192.5 45t-111.5 133q-58 -178 -327 -178l-35 6l8 209l35 6q131 0 194.5 39t63.5 146v217h172
v-217q0 -107 54 -146t159 -39q63 0 105.5 13.5t71 56t28.5 115.5v217h172v-217q0 -107 50 -146t149 -39q93 0 144.5 40t51.5 145v217h172v-217q0 -104 59 -144.5t201 -40.5z" />
    <glyph glyph-name="uniFEBA" unicode="&#x635;" horiz-adv-x="2715" arabic-form="final" 
d="M2716 221l34 -6l-10 -209l-35 -6q-215 0 -282 113q-150 -113 -438 -113h-672q-43 -217 -210.5 -339t-428.5 -122q-289 0 -453 151t-164 404q0 239 109 471l149 -53q-36 -79 -61 -185t-25 -190q0 -187 120 -282t339 -95q216 0 340.5 93t124.5 262q0 167 -90 495l174 49
q75 -254 88 -438h10q180 332 385 511t428 179q128 0 229.5 -67t153.5 -170.5t52 -220.5q0 -116 -43 -201q60 -31 176 -31zM1493 221h520q187 0 297.5 52.5t110.5 158.5q0 100 -82 178t-217 78q-177 0 -339.5 -129.5t-289.5 -337.5z" />
    <glyph glyph-name="uniFEBB" unicode="&#x635;" horiz-adv-x="1902" arabic-form="initial" 
d="M1366 911q128 0 229 -67t153 -170.5t52 -220.5q0 -215 -149.5 -334t-450.5 -119h-588q-114 0 -195 48.5t-112 144.5q-52 -193 -313 -193l-35 6l8 209l35 6q57 0 97 8.5t73 30.5t49.5 62.5t16.5 101.5v215h174v-219q0 -92 37 -137t108 -58q373 686 811 686zM709 221h520
q189 0 299 52.5t110 158.5q0 99 -82.5 177.5t-216.5 78.5q-123 0 -242 -65.5t-211.5 -165.5t-176.5 -236z" />
    <glyph glyph-name="uniFEBC" unicode="&#x635;" horiz-adv-x="1931" arabic-form="medial" 
d="M1931 221l35 -6l-10 -209l-35 -6q-213 0 -281 111q-151 -111 -440 -111h-588q-114 0 -195 48.5t-112 144.5q-52 -193 -313 -193l-35 6l8 209l35 6q57 0 97 8.5t73 30.5t49.5 62.5t16.5 101.5v215h174v-219q0 -92 37 -137t108 -58q373 686 811 686q128 0 229 -67
t153 -170.5t52 -220.5q0 -116 -43 -203q56 -29 174 -29zM709 221h520q189 0 299 52.5t110 158.5q0 99 -82.5 177.5t-216.5 78.5q-123 0 -242 -65.5t-211.5 -165.5t-176.5 -236z" />
    <glyph glyph-name="uniFEBE" unicode="&#x636;" horiz-adv-x="2715" arabic-form="final" 
d="M2107 1087q-48 0 -80 33t-32 78q0 47 31.5 80t80.5 33q47 0 79 -33.5t32 -79.5q0 -45 -32 -78t-79 -33zM2716 221l34 -6l-10 -209l-35 -6q-215 0 -282 113q-150 -113 -438 -113h-672q-43 -217 -210.5 -339t-428.5 -122q-289 0 -453 151t-164 404q0 239 109 471l149 -53
q-36 -79 -61 -185t-25 -190q0 -187 120 -282t339 -95q216 0 340.5 93t124.5 262q0 167 -90 495l174 49q75 -254 88 -438h10q180 332 385 511t428 179q128 0 229.5 -67t153.5 -170.5t52 -220.5q0 -116 -43 -201q60 -31 176 -31zM1493 221h520q187 0 297.5 52.5t110.5 158.5
q0 100 -82 178t-217 78q-177 0 -339.5 -129.5t-289.5 -337.5z" />
    <glyph glyph-name="uniFEBF" unicode="&#x636;" horiz-adv-x="1902" arabic-form="initial" 
d="M1329 1087q-48 0 -80 33t-32 78q0 47 31.5 80t80.5 33q47 0 79 -33.5t32 -79.5q0 -45 -32 -78t-79 -33zM1366 911q128 0 229 -67t153 -170.5t52 -220.5q0 -215 -149.5 -334t-450.5 -119h-588q-114 0 -195 48.5t-112 144.5q-52 -193 -313 -193l-35 6l8 209l35 6
q57 0 97 8.5t73 30.5t49.5 62.5t16.5 101.5v215h174v-219q0 -92 37 -137t108 -58q373 686 811 686zM709 221h520q189 0 299 52.5t110 158.5q0 99 -82.5 177.5t-216.5 78.5q-123 0 -242 -65.5t-211.5 -165.5t-176.5 -236z" />
    <glyph glyph-name="uniFEC0" unicode="&#x636;" horiz-adv-x="1931" arabic-form="medial" 
d="M1329 1087q-48 0 -80 33t-32 78q0 47 31.5 80t80.5 33q47 0 79 -33.5t32 -79.5q0 -45 -32 -78t-79 -33zM1931 221l35 -6l-10 -209l-35 -6q-213 0 -281 111q-151 -111 -440 -111h-588q-114 0 -195 48.5t-112 144.5q-52 -193 -313 -193l-35 6l8 209l35 6q57 0 97 8.5
t73 30.5t49.5 62.5t16.5 101.5v215h174v-219q0 -92 37 -137t108 -58q373 686 811 686q128 0 229 -67t153 -170.5t52 -220.5q0 -116 -43 -203q56 -29 174 -29zM709 221h520q189 0 299 52.5t110 158.5q0 99 -82.5 177.5t-216.5 78.5q-123 0 -242 -65.5t-211.5 -165.5
t-176.5 -236z" />
    <glyph glyph-name="uniFEC2" unicode="&#x637;" horiz-adv-x="1581" arabic-form="final" 
d="M1581 221l35 -6l-10 -209l-35 -6q-213 0 -281 111q-154 -111 -440 -111h-821v221h168q60 111 112 189v1038h176v-623q0 -116 -57 -254q279 340 586 340q129 0 230.5 -67t153.5 -170.5t52 -220.5q0 -116 -43 -203q56 -29 174 -29zM354 221h525q189 0 299 52.5t110 158.5
q0 99 -82.5 177.5t-216.5 78.5q-94 0 -185.5 -36.5t-171.5 -102t-148.5 -147t-129.5 -181.5z" />
    <glyph glyph-name="uniFEC3" unicode="&#x637;" horiz-adv-x="1433" arabic-form="initial" 
d="M897 911q128 0 229 -67t153 -170.5t52 -220.5q0 -215 -149 -334t-449 -119h-741l-35 8l8 207l35 6h80q72 129 110 187v1040h177v-623q0 -112 -58 -256q277 342 588 342zM236 221h524q189 0 299 52.5t110 158.5q0 99 -82.5 177.5t-216.5 78.5q-123 0 -243 -65.5
t-213.5 -166t-177.5 -235.5z" />
    <glyph glyph-name="uniFEC4" unicode="&#x637;" horiz-adv-x="1462" arabic-form="medial" 
d="M1462 221l35 -6l-10 -209l-35 -6q-213 0 -281 111q-151 -111 -438 -111h-741l-35 8l8 207l35 6h80q72 129 110 187v1040h177v-623q0 -112 -58 -256q277 342 588 342q128 0 229 -67t153 -170.5t52 -220.5q0 -116 -43 -203q56 -29 174 -29zM236 221h524q189 0 299 52.5
t110 158.5q0 99 -82.5 177.5t-216.5 78.5q-123 0 -243 -65.5t-213.5 -166t-177.5 -235.5z" />
    <glyph glyph-name="uniFEC6" unicode="&#x638;" horiz-adv-x="1581" arabic-form="final" 
d="M1581 221l35 -6l-10 -209l-35 -6q-213 0 -281 111q-154 -111 -440 -111h-821v221h168q60 111 112 189v1038h176v-623q0 -116 -57 -254q279 340 586 340q129 0 230.5 -67t153.5 -170.5t52 -220.5q0 -116 -43 -203q56 -29 174 -29zM958 1087q-48 0 -80 33t-32 78
q0 47 31.5 80t80.5 33q47 0 79 -33.5t32 -79.5q0 -45 -32 -78t-79 -33zM354 221h525q189 0 299 52.5t110 158.5q0 99 -82.5 177.5t-216.5 78.5q-94 0 -185.5 -36.5t-171.5 -102t-148.5 -147t-129.5 -181.5z" />
    <glyph glyph-name="uniFEC7" unicode="&#x638;" horiz-adv-x="1433" arabic-form="initial" 
d="M897 911q128 0 229 -67t153 -170.5t52 -220.5q0 -215 -149 -334t-449 -119h-741l-35 8l8 207l35 6h80q72 129 110 187v1040h177v-623q0 -112 -58 -256q277 342 588 342zM842 1087q-48 0 -80.5 33t-32.5 78q0 47 32 80t81 33q47 0 78.5 -33.5t31.5 -79.5q0 -45 -32 -78
t-78 -33zM236 221h524q189 0 299 52.5t110 158.5q0 99 -82.5 177.5t-216.5 78.5q-123 0 -243 -65.5t-213.5 -166t-177.5 -235.5z" />
    <glyph glyph-name="uniFEC8" unicode="&#x638;" horiz-adv-x="1462" arabic-form="medial" 
d="M1462 221l35 -6l-10 -209l-35 -6q-213 0 -281 111q-151 -111 -438 -111h-741l-35 8l8 207l35 6h80q72 129 110 187v1040h177v-623q0 -112 -58 -256q277 342 588 342q128 0 229 -67t153 -170.5t52 -220.5q0 -116 -43 -203q56 -29 174 -29zM842 1087q-48 0 -80.5 33
t-32.5 78q0 47 32 80t81 33q47 0 78.5 -33.5t31.5 -79.5q0 -45 -32 -78t-78 -33zM236 221h524q189 0 299 52.5t110 158.5q0 99 -82.5 177.5t-216.5 78.5q-123 0 -243 -65.5t-213.5 -166t-177.5 -235.5z" />
    <glyph glyph-name="uniFECA" unicode="&#x639;" horiz-adv-x="1173" arabic-form="final" 
d="M569 129q-201 -94 -282.5 -165t-81.5 -163q0 -95 102 -162t309 -67q167 0 308.5 34.5t214.5 67.5l35 -192q-254 -129 -576 -129q-253 0 -404 113t-151 309q0 72 21 134.5t55.5 110.5t88 93t108.5 78t128 69q-217 230 -288 315l12 216q17 16 55 39t99.5 51.5t150 48.5
t178.5 20q189 0 297.5 -83t108.5 -222q0 -118 -77 -211t-239 -192q86 -21 385 -21h48l34 -6l-10 -209l-35 -6h-43q-252 0 -359.5 23t-191.5 106zM897 604q0 57 -73.5 94t-188.5 37q-93 0 -181.5 -24t-150.5 -58q151 -164 301 -319q293 149 293 270z" />
    <glyph glyph-name="uniFECB" unicode="&#x639;" horiz-adv-x="1107" arabic-form="initial" 
d="M612 221h420v-221h-1040l-35 12l6 193l37 16h244q-117 96 -117 277q0 117 53 219.5t158.5 169.5t241.5 67q70 0 134 -20.5t109.5 -54t76.5 -66t52 -65.5l-102 -148q-138 133 -287 133q-119 0 -195.5 -72t-76.5 -176q0 -124 96 -194t225 -70z" />
    <glyph glyph-name="uniFECC" unicode="&#x639;" horiz-adv-x="1105" arabic-form="medial" 
d="M1061 221h45l35 -6l-8 -209l-35 -6h-43q-233 0 -333.5 18t-176.5 82q-104 -56 -224 -78t-329 -22l-35 6l8 209l35 6q222 0 375 17q-75 74 -152.5 159t-116.5 138v215q18 16 56 38.5t100 52t150.5 49t179.5 19.5q189 0 297 -83t108 -222q0 -107 -68.5 -193.5
t-205.5 -183.5q74 -6 338 -6zM248 612q197 -216 309 -319q141 85 211 148.5t70 121.5q0 57 -74 94t-189 37q-93 0 -180 -24t-147 -58z" />
    <glyph glyph-name="uniFECE" unicode="&#x63a;" horiz-adv-x="1173" arabic-form="final" 
d="M637 1126q-48 0 -80.5 33t-32.5 78q0 47 32 80t81 33q47 0 79 -33.5t32 -79.5q0 -45 -32 -78t-79 -33zM569 129q-201 -94 -282.5 -165t-81.5 -163q0 -95 102 -162t309 -67q167 0 308.5 34.5t214.5 67.5l35 -192q-254 -129 -576 -129q-253 0 -404 113t-151 309
q0 72 21 134.5t55.5 110.5t88 93t108.5 78t128 69q-217 230 -288 315l12 216q17 16 55 39t99.5 51.5t150 48.5t178.5 20q189 0 297.5 -83t108.5 -222q0 -118 -77 -211t-239 -192q86 -21 385 -21h48l34 -6l-10 -209l-35 -6h-43q-252 0 -359.5 23t-191.5 106zM897 604
q0 57 -73.5 94t-188.5 37q-93 0 -181.5 -24t-150.5 -58q151 -164 301 -319q293 149 293 270z" />
    <glyph glyph-name="uniFECF" unicode="&#x63a;" horiz-adv-x="1107" arabic-form="initial" 
d="M573 1133q-48 0 -80 32.5t-32 77.5q0 47 31.5 80t80.5 33q47 0 79 -33.5t32 -79.5q0 -45 -32 -77.5t-79 -32.5zM612 221h420v-221h-1040l-35 12l6 193l37 16h244q-117 96 -117 277q0 117 53 219.5t158.5 169.5t241.5 67q70 0 134 -20.5t109.5 -54t76.5 -66t52 -65.5
l-102 -148q-138 133 -287 133q-119 0 -195.5 -72t-76.5 -176q0 -124 96 -194t225 -70z" />
    <glyph glyph-name="uniFED0" unicode="&#x63a;" horiz-adv-x="1105" arabic-form="medial" 
d="M573 1085q-48 0 -80 33t-32 78q0 47 31.5 80t80.5 33q47 0 79 -33.5t32 -79.5q0 -45 -32 -78t-79 -33zM1061 221h45l35 -6l-8 -209l-35 -6h-43q-233 0 -333.5 18t-176.5 82q-104 -56 -224 -78t-329 -22l-35 6l8 209l35 6q222 0 375 17q-75 74 -152.5 159t-116.5 138v215
q18 16 56 38.5t100 52t150.5 49t179.5 19.5q189 0 297 -83t108 -222q0 -107 -68.5 -193.5t-205.5 -183.5q74 -6 338 -6zM248 612q197 -216 309 -319q141 85 211 148.5t70 121.5q0 57 -74 94t-189 37q-93 0 -180 -24t-147 -58z" />
    <glyph glyph-name="uniFED2" unicode="&#x641;" horiz-adv-x="1966" arabic-form="final" 
d="M1452 1186q-49 0 -81 32.5t-32 77.5q0 47 32 80t81 33q47 0 79 -33.5t32 -79.5q0 -45 -32 -77.5t-79 -32.5zM1966 221l35 -6l-10 -209l-35 -6q-276 0 -518 94q-193 -94 -520 -94h-244q-325 0 -471 120t-146 363q0 195 88 394l150 -54q-68 -179 -68 -299q0 -155 113 -229
t342 -74h309q108 0 207 15q-164 141 -164 317q0 118 50 221.5t147 169.5t219 66q114 0 204.5 -61t137.5 -158.5t47 -208.5q0 -194 -172 -340q135 -21 299 -21zM1192 565q0 -85 63.5 -153.5t184.5 -112.5q112 44 176.5 109t64.5 141q0 96 -68.5 167.5t-176.5 71.5
q-106 0 -175 -67t-69 -156z" />
    <glyph glyph-name="uniFED3" unicode="&#x641;" horiz-adv-x="1005" arabic-form="initial" 
d="M487 1368q-46 0 -78 33t-32 78t31.5 76.5t78.5 31.5t78 -31.5t31 -76.5t-31.5 -78t-77.5 -33zM487 1196q129 0 225.5 -76.5t143.5 -199t47 -271.5q0 -189 -33.5 -316t-104.5 -200t-168 -103t-237 -30h-368l-35 6l8 209l35 6h365q48 0 85.5 3t77.5 11t70 22.5t57.5 39
t45.5 58t29.5 81t14.5 107.5q-101 -156 -315 -156q-179 0 -273 97t-94 257q0 194 118.5 324.5t305.5 130.5zM451 594q104 0 177 35t111 92q-10 46 -30 88.5t-51.5 82.5t-80.5 64.5t-108 24.5q-115 0 -181.5 -67t-66.5 -150q0 -81 62 -125.5t168 -44.5z" />
    <glyph glyph-name="uniFED4" unicode="&#x641;" horiz-adv-x="1052" arabic-form="medial" 
d="M539 1186q-49 0 -81 32.5t-32 77.5q0 47 32 80t81 33q47 0 78.5 -33.5t31.5 -79.5q0 -45 -31.5 -77.5t-78.5 -32.5zM1053 221l34 -6l-8 -209l-35 -6q-296 0 -532 98q-216 -98 -520 -98l-35 6l8 209l35 6q140 0 276 19q-153 140 -153 313q0 118 50 221.5t147 169.5t219 66
q113 0 202.5 -61t137 -159t47.5 -210q0 -195 -176 -338q158 -21 303 -21zM279 565q0 -84 61.5 -152t177.5 -112q119 42 184.5 105.5t65.5 140.5q0 97 -68.5 169t-175.5 72q-106 0 -175.5 -67t-69.5 -156z" />
    <glyph glyph-name="uniFED6" unicode="&#x642;" horiz-adv-x="1611" arabic-form="final" 
d="M938 1001q-42 0 -72 30.5t-30 72.5q0 41 30.5 71.5t71.5 30.5q42 0 72 -30t30 -72q0 -43 -29 -73t-73 -30zM1206 1001q-44 0 -73 30t-29 73q0 42 29 72t73 30q41 0 72 -30.5t31 -71.5q0 -42 -30.5 -72.5t-72.5 -30.5zM1477 221h133l35 -18l-11 -183l-35 -20h-151
q-113 -479 -707 -479q-341 0 -513.5 159.5t-172.5 438.5q0 239 109 471l149 -55q-36 -77 -61 -182.5t-25 -190.5q0 -420 543 -420q465 0 539 266h-285q-186 0 -283.5 94t-97.5 246q0 202 120.5 340.5t307.5 138.5q127 0 220 -74.5t139.5 -201t46.5 -287.5v-43zM801 365
q0 -68 63 -104t180 -36h281v6q0 62 -15.5 125.5t-46 122t-85 95t-123.5 36.5q-119 0 -186.5 -75.5t-67.5 -169.5z" />
    <glyph glyph-name="uniFED7" unicode="&#x642;" horiz-adv-x="1005" arabic-form="initial" 
d="M354 1370q-42 0 -72 30t-30 73q0 41 30.5 71.5t71.5 30.5q42 0 72.5 -30.5t30.5 -71.5q0 -43 -29.5 -73t-73.5 -30zM623 1370q-44 0 -73.5 30t-29.5 73q0 42 29.5 72t73.5 30q41 0 71.5 -30.5t30.5 -71.5q0 -43 -30.5 -73t-71.5 -30zM487 1196q129 0 225.5 -76.5
t143.5 -199t47 -271.5q0 -189 -33.5 -316t-104.5 -200t-168 -103t-237 -30h-368l-35 6l8 209l35 6h365q48 0 85.5 3t77.5 11t70 22.5t57.5 39t45.5 58t29.5 81t14.5 107.5q-101 -156 -315 -156q-179 0 -273 97t-94 257q0 194 118.5 324.5t305.5 130.5zM451 594q104 0 177 35
t111 92q-10 46 -30 88.5t-51.5 82.5t-80.5 64.5t-108 24.5q-115 0 -181.5 -67t-66.5 -150q0 -81 62 -125.5t168 -44.5z" />
    <glyph glyph-name="uniFED8" unicode="&#x642;" horiz-adv-x="1052" arabic-form="medial" 
d="M403 1184q-42 0 -72 30t-30 72q0 41 30.5 72t71.5 31q42 0 72.5 -30.5t30.5 -72.5q0 -43 -29.5 -72.5t-73.5 -29.5zM672 1184q-44 0 -73.5 29.5t-29.5 72.5q0 42 29.5 72.5t73.5 30.5q41 0 71.5 -31t30.5 -72q0 -42 -30 -72t-72 -30zM1053 221l34 -6l-8 -209l-35 -6
q-296 0 -532 98q-216 -98 -520 -98l-35 6l8 209l35 6q140 0 276 19q-153 140 -153 313q0 118 50 221.5t147 169.5t219 66q113 0 202.5 -61t137 -159t47.5 -210q0 -195 -176 -338q158 -21 303 -21zM279 565q0 -84 61.5 -152t177.5 -112q119 42 184.5 105.5t65.5 140.5
q0 97 -68.5 169t-175.5 72q-106 0 -175.5 -67t-69.5 -156z" />
    <glyph glyph-name="uniFEDA" unicode="&#x643;" horiz-adv-x="1773" arabic-form="final" 
d="M1774 221l34 -6l-10 -209l-35 -6q-135 0 -225 53t-117 156q-49 -108 -163.5 -158.5t-307.5 -50.5h-291q-318 0 -460 115.5t-142 351.5q0 192 88 391l150 -53q-68 -176 -68 -295q0 -148 109 -218.5t332 -70.5h278q79 0 136.5 4t111.5 16.5t88 33.5t54 56t20 83v1038h178
v-1006q0 -71 15.5 -117t49 -69t73.5 -31t102 -8zM1063 752q0 -101 -74 -156t-205 -55h-211v155h203q67 0 113.5 13.5t46.5 38.5q0 37 -65.5 62.5t-217.5 47.5v195l351 184l47 -135l-273 -127q150 -35 217.5 -86t67.5 -137z" />
    <glyph glyph-name="uniFEDB" unicode="&#x643;" horiz-adv-x="917" arabic-form="initial" 
d="M895 1288l-668 -381q216 -122 298 -184q169 -126 200 -265q8 -35 8 -73q0 -190 -130.5 -287.5t-375.5 -97.5h-235l-35 6l8 209l35 6h260q141 0 227 35t86 106q0 88 -111 175q-82 63 -327 194q-17 9 -52 28q-33 18 -50 27v209l792 463z" />
    <glyph glyph-name="uniFEDC" unicode="&#x643;" horiz-adv-x="1124" arabic-form="medial" 
d="M1124 221l35 -6l-10 -209l-35 -6h-22q-109 0 -188.5 27.5t-145 81.5t-158.5 159q-28 -131 -137 -199.5t-322 -68.5h-149l-35 6l8 209l35 6h158q115 0 183 15t102.5 47t48.5 88l-390 454v185l863 469l71 -174l-747 -400l383 -430q60 -67 94 -102t76.5 -70t80.5 -49.5
t87 -23.5t114 -9z" />
    <glyph glyph-name="uniFEDE" unicode="&#x644;" horiz-adv-x="1507" arabic-form="final" 
d="M1507 221l35 -6l-8 -209l-35 -6q-176 0 -260 94q-22 -267 -178 -413t-420 -146q-274 0 -429 152.5t-155 402.5q0 251 107 475l149 -53q-36 -81 -60 -186t-24 -193q0 -183 113 -279t317 -96q200 0 316.5 101.5t116.5 294.5v1298h176v-995q0 -135 57 -185.5t182 -50.5z" />
    <glyph glyph-name="uniFEDF" unicode="&#x644;" horiz-adv-x="563" arabic-form="initial" 
d="M236 1452h176v-1014q0 -222 -115 -330t-305 -108l-35 6l8 209l35 6q58 0 98 7.5t73 28.5t49 60.5t16 100.5v1034z" />
    <glyph glyph-name="uniFEE0" unicode="&#x644;" horiz-adv-x="655" arabic-form="medial" 
d="M655 221l35 -6l-8 -209l-35 -6q-132 0 -221 50.5t-119 148.5q-31 -93 -113 -146t-202 -53l-35 6l8 209l35 6q60 0 99.5 7.5t74 30t50.5 68t16 115.5v1010h176v-1006q0 -71 15.5 -117t49 -69t73 -31t101.5 -8z" />
    <glyph glyph-name="uniFEE2" unicode="&#x645;" horiz-adv-x="1521" arabic-form="final" 
d="M1522 221l34 -6l-10 -209l-35 -6q-111 0 -192 46t-119 134q-44 -79 -140.5 -133.5t-228.5 -54.5q-139 0 -234.5 55.5t-135.5 155.5q-148 -31 -194 -60.5t-46 -95.5v-694h-176v684q0 86 17 142.5t62.5 103t119.5 79t194 64.5q24 176 146 293t295 117q295 0 407 -404
q32 -121 83.5 -166t152.5 -45zM848 211q113 0 185 35t104 86q-71 282 -285 282q-112 0 -186 -68t-74 -171q0 -74 67 -119t189 -45z" />
    <glyph glyph-name="uniFEE3" unicode="&#x645;" horiz-adv-x="1185" arabic-form="initial" 
d="M705 836q165 0 271.5 -126.5t106.5 -310.5t-117 -295.5t-317 -111.5q-136 0 -229 54t-129 132q-35 -85 -115 -131.5t-184 -46.5l-35 6l8 209l35 6q55 0 96 9.5t82 45t60 97.5q54 226 175 344.5t292 118.5zM672 211q120 0 187 46t67 122q0 100 -70 168.5t-174 68.5
q-112 0 -190.5 -74.5t-114.5 -207.5q32 -52 105.5 -87.5t189.5 -35.5z" />
    <glyph glyph-name="uniFEE4" unicode="&#x645;" horiz-adv-x="1310" arabic-form="medial" 
d="M1311 221l35 -6l-11 -209l-35 -6q-111 0 -192 46t-119 134q-44 -79 -140 -133.5t-228 -54.5q-233 0 -338 149q-41 -67 -118.5 -104t-172.5 -37l-35 6l8 209l35 6q167 0 225 80q-2 16 -2 51q0 131 56.5 241.5t159 176.5t229.5 66q295 0 407 -404q32 -121 83.5 -166
t152.5 -45zM637 211q113 0 185 35t104 86q-70 282 -285 282q-111 0 -185.5 -68.5t-74.5 -170.5q0 -74 67 -119t189 -45z" />
    <glyph glyph-name="uniFEE6" unicode="&#x646;" horiz-adv-x="1513" arabic-form="final" 
d="M682 754q-49 0 -81 32.5t-32 77.5q0 47 32 80t81 33q47 0 79 -33.5t32 -79.5q0 -45 -32 -77.5t-79 -32.5zM1323 221h190l35 -8l-8 -205l-35 -8h-194q-43 -217 -210.5 -339t-426.5 -122q-289 0 -453 151t-164 404q0 239 109 471l149 -53q-36 -79 -61 -185t-25 -190
q0 -187 120.5 -282t338.5 -95q216 0 340.5 93t124.5 262q0 106 -23.5 228t-70.5 300l172 47q80 -276 92 -469z" />
    <glyph glyph-name="uniFEE7" unicode="&#x646;" horiz-adv-x="518" arabic-form="initial" 
d="M258 1012q-49 0 -81 32.5t-32 77.5q0 47 32 80t81 33q47 0 79 -33.5t32 -79.5q0 -45 -32 -77.5t-79 -32.5zM-8 0l-35 8l8 205l35 8q121 0 179.5 47t58.5 146q0 143 -58 397l166 43q64 -246 64 -420q0 -208 -113 -321t-305 -113z" />
    <glyph glyph-name="uniFEE8" unicode="&#x646;" horiz-adv-x="655" arabic-form="medial" 
d="M328 911q-48 0 -80.5 33t-32.5 78q0 47 32 80t81 33q47 0 78.5 -33.5t31.5 -79.5q0 -45 -32 -78t-78 -33zM655 221l35 -6l-8 -209l-35 -6q-133 0 -220.5 50.5t-117.5 152.5q-30 -95 -112.5 -149t-204.5 -54l-35 6l8 209l35 6q48 0 82 4.5t66 18t51.5 37.5t31 64t11.5 97
v293h172v-289q0 -72 13.5 -117t46 -68.5t73.5 -31.5t108 -8z" />
    <glyph glyph-name="uniFEE9" unicode="&#x647;" horiz-adv-x="1495" arabic-form="isolated" 
d="M438 901l33 133q930 -184 930 -649q0 -182 -110 -286.5t-308 -104.5q-194 0 -383 92q-189 -86 -369 -86q-126 0 -227 33l35 215q151 -44 344 -12q-135 135 -135 284q0 109 51 214.5t139 166.5zM627 766q-102 0 -165 -72t-63 -164q0 -66 62.5 -125.5t165.5 -103.5
q106 42 165.5 97.5t59.5 117.5q0 100 -60.5 175t-164.5 75zM1004 217q117 0 178 43t61 111q0 174 -254 297q17 -73 17 -129q0 -163 -166 -303q90 -19 164 -19z" />
    <glyph glyph-name="uniFEEA" unicode="&#x647;" horiz-adv-x="1136" arabic-form="final" 
d="M1137 221l34 -6l-8 -207l-35 -8q-338 0 -385 299q-82 -172 -311 -172q-168 0 -271.5 97t-103.5 259q0 94 36 173t114 148t209.5 121.5t312.5 86.5v145h170v-717q0 -69 16.5 -114t50.5 -67t73 -30t98 -8zM455 350q106 0 176 31.5t98 77.5v356q-272 -49 -393 -129.5
t-121 -175.5q0 -79 66 -119.5t174 -40.5z" />
    <glyph glyph-name="uniFEEB" unicode="&#x647;" horiz-adv-x="1361" arabic-form="initial" 
d="M291 901l33 133q936 -184 936 -649q0 -181 -109 -285t-305 -104q-197 0 -400 96q-221 -92 -454 -92l-35 6l8 209l35 6q111 0 240 17q-138 135 -138 282q0 109 50.5 214.5t138.5 166.5zM481 768q-102 0 -165.5 -73t-63.5 -165q0 -67 63 -126t168 -105q106 42 165 98.5
t59 118.5q0 101 -61.5 176.5t-164.5 75.5zM866 219q116 0 177 42t61 110q0 181 -264 299q18 -62 18 -131q0 -164 -166 -301q93 -19 174 -19z" />
    <glyph glyph-name="uniFEEC" unicode="&#x647;" horiz-adv-x="1130" arabic-form="medial" 
d="M825 221h305l35 -6l-8 -209l-35 -6h-118q43 -46 43 -109q0 -145 -110 -244.5t-302 -99.5q-111 0 -203.5 37t-155 101.5t-102.5 144t-57 170.5h-125l-35 6l8 209l35 6h109q12 122 51 237.5t100.5 212t153.5 155.5t200 59q104 0 179.5 -53t112 -137.5t36.5 -188.5
q0 -171 -117 -285zM594 662q-72 0 -133 -41.5t-100.5 -109t-64.5 -141t-36 -149.5h113q186 0 299.5 64.5t113.5 183.5q0 83 -49 138t-143 55zM657 -236q105 0 165.5 32t60.5 85q0 67 -89 111.5t-241 44.5h-283l-4 -2q11 -41 29 -78t50 -73t74 -62t103.5 -42t134.5 -16z" />
    <glyph glyph-name="uniFEEE" unicode="&#x648;" horiz-adv-x="1097" arabic-form="final" 
d="M971 221h127l35 -18l-9 -183l-34 -20h-154q-28 -99 -78 -178.5t-127 -142.5t-189 -97.5t-251 -34.5q-174 0 -287 37l16 201q137 -25 277 -25q194 0 316 69.5t173 178.5h-268q-186 0 -283.5 94t-97.5 246q0 201 121 340t307 139q127 0 220 -74.5t139.5 -201t46.5 -287.5
v-43zM295 365q0 -69 64.5 -106.5t181.5 -37.5h278q-1 66 -16 130.5t-45.5 124.5t-85 97t-125.5 37q-80 0 -139 -38.5t-86 -93t-27 -113.5z" />
    <glyph glyph-name="uniFEF0" unicode="&#x649;" horiz-adv-x="1478" arabic-form="final" 
d="M934 221h545l34 -6l-8 -209l-35 -6h-45q-1 -77 -28.5 -148t-85.5 -134t-141 -109.5t-201.5 -73.5t-259.5 -27q-307 0 -479.5 164.5t-172.5 440.5q0 249 117 516l150 -56q-43 -98 -69 -214.5t-26 -204.5q0 -211 132 -317.5t372 -106.5q131 0 235.5 25.5t166.5 67t95.5 89
t37.5 96.5h-334v213z" />
    <glyph glyph-name="uniFEF2" unicode="&#x64a;" horiz-adv-x="1478" arabic-form="final" 
d="M934 221h545l34 -6l-8 -209l-35 -6h-45q-1 -77 -28.5 -148t-85.5 -134t-141 -109.5t-201.5 -73.5t-259.5 -27q-307 0 -479.5 164.5t-172.5 440.5q0 249 117 516l150 -56q-43 -98 -69 -214.5t-26 -204.5q0 -211 132 -317.5t372 -106.5q131 0 235.5 25.5t166.5 67t95.5 89
t37.5 96.5h-334v213zM612 -641q42 0 72.5 -30.5t30.5 -71.5q0 -43 -29.5 -73t-73.5 -30q-42 0 -72 30t-30 73q0 41 30.5 71.5t71.5 30.5zM881 -641q41 0 71.5 -30.5t30.5 -71.5q0 -43 -30.5 -73t-71.5 -30q-44 0 -73.5 30t-29.5 73q0 42 29.5 72t73.5 30z" />
    <glyph glyph-name="uniFEF3" unicode="&#x64a;" horiz-adv-x="518" arabic-form="initial" 
d="M-8 0l-35 8l8 205l35 8q121 0 179.5 47t58.5 146q0 143 -58 397l166 43q64 -246 64 -420q0 -208 -113 -321t-305 -113zM76 -354q-42 0 -72.5 30t-30.5 72q0 41 31 71.5t72 30.5q42 0 72 -30t30 -72q0 -43 -29 -72.5t-73 -29.5zM344 -354q-44 0 -73 29.5t-29 72.5
q0 42 29 72t73 30q41 0 71.5 -30.5t30.5 -71.5q0 -42 -30 -72t-72 -30z" />
    <glyph glyph-name="uniFEF4" unicode="&#x64a;" horiz-adv-x="655" arabic-form="medial" 
d="M655 221l35 -6l-8 -209l-35 -6q-133 0 -220.5 50.5t-117.5 152.5q-30 -95 -112.5 -149t-204.5 -54l-35 6l8 209l35 6q48 0 82 4.5t66 18t51.5 37.5t31 64t11.5 97v293h172v-289q0 -72 13.5 -117t46 -68.5t73.5 -31.5t108 -8zM193 -150q42 0 72 -30t30 -72
q0 -43 -29 -72.5t-73 -29.5q-42 0 -72.5 30t-30.5 72q0 41 31 71.5t72 30.5zM461 -150q41 0 71.5 -30.5t30.5 -71.5q0 -42 -30 -72t-72 -30q-44 0 -73.5 29.5t-29.5 72.5q0 42 29.5 72t73.5 30z" />
    <glyph glyph-name=".notdef" horiz-adv-x="1368" 
d="M254 1845h868v-2736h-868v2736zM911 1571v90h-452v-90h178v-101h-180v-90h454v90h-180v101h180zM731 1118v191h-274v-285h454v94h-180zM547 1217h90v-99h-90v99zM911 860v90h-454v-90h180v-100h-180v-90h274v190h180zM911 512v274h-90v-180h-364v-94h454zM911 143v310
h-274v-154h94v63h90v-129h-274v220h-90v-310h454zM911 -330v310h-454v-310h454zM547 -111h274v-129h-274v129zM911 -483v90h-454v-90h192l-192 -129v-90h454v90h-278l190 129h88z" />
    <glyph glyph-name=".null" horiz-adv-x="1228" 
 />
    <glyph glyph-name="nonmarkingreturn" horiz-adv-x="682" 
 />
    <glyph glyph-name="CR" unicode="&#xd;" horiz-adv-x="479" 
 />
    <glyph glyph-name="space" unicode=" " horiz-adv-x="491" 
 />
    <glyph glyph-name="exclam" unicode="!" horiz-adv-x="563" 
d="M358 489h-151l-47 951h246zM123 117q0 61 41 101t102 40t102.5 -39.5t41.5 -101.5q0 -60 -41.5 -101t-102.5 -41q-59 0 -101 40.5t-42 101.5z" />
    <glyph glyph-name="quotedbl" unicode="&#x22;" horiz-adv-x="819" 
d="M299 891h-154l-22 549h203zM670 891h-152l-24 549h204z" />
    <glyph glyph-name="numbersign" unicode="#" horiz-adv-x="1325" 
d="M1241 1053v-154h-190l-66 -352h205v-152h-234l-73 -395h-164l76 395h-400l-73 -395h-164l75 395h-147v152h176l68 352h-191v154h221l74 387h158l-72 -387h402l73 387h158l-72 -387h160zM424 547h399l68 352h-402z" />
    <glyph glyph-name="dollar" unicode="$" horiz-adv-x="1081" 
d="M1012 434q0 -154 -107 -256.5t-280 -132.5v-227h-164v217q-103 6 -207 34.5t-176 71.5l49 193q192 -111 373 -111q145 0 223 53.5t78 141.5q0 49 -24 84t-65 55t-94 34t-112 26.5t-117.5 27.5t-111.5 41.5t-94 64.5t-65 100t-24 144q0 153 99.5 255.5t267.5 129.5v228
h164v-219q102 -6 198 -35.5t150 -71.5l-66 -178q-167 96 -329 96q-134 0 -203.5 -52t-69.5 -134q0 -68 39 -112.5t101.5 -67t137.5 -39t150.5 -39t138 -57t101.5 -101.5t39 -164z" />
    <glyph glyph-name="percent" unicode="%" horiz-adv-x="1849" 
d="M61 1085q0 91 32 164.5t87 119t124 69.5t147 24q76 0 143 -23t120 -66.5t84 -115t31 -161.5q0 -91 -32.5 -165t-87 -120.5t-123.5 -71t-146 -24.5q-73 0 -139.5 23t-121 67.5t-86.5 117t-32 162.5zM494 0h-209l1054 1440h209zM246 1092q0 -104 55.5 -161t144.5 -57
t145 56.5t56 156.5q0 98 -58.5 157t-144.5 59q-81 0 -139.5 -55.5t-58.5 -155.5zM1018 348q0 92 31.5 165t86 118.5t123.5 69.5t146 24q104 0 188.5 -39t138.5 -124t54 -204q0 -121 -56.5 -210t-144 -131t-190.5 -42q-72 0 -138.5 23.5t-120.5 68.5t-86 118t-32 163z
M1202 354q0 -104 55.5 -160.5t145.5 -56.5q88 0 143.5 56.5t55.5 156.5q0 99 -57 157t-144 58q-81 0 -140 -55.5t-59 -155.5z" />
    <glyph glyph-name="ampersand" unicode="&#x26;" horiz-adv-x="1449" 
d="M1147 283l295 -283h-275l-153 147q-219 -172 -469 -172q-207 0 -332 109.5t-125 275.5q0 71 22.5 131.5t66 108.5t91 83.5t111.5 72.5q-85 87 -132.5 167t-47.5 173q0 150 114 259t287 109q170 0 283.5 -99.5t113.5 -246.5q0 -68 -25 -126.5t-73.5 -106t-98 -81.5
t-120.5 -73l336 -321q115 164 112 372h203q-1 -137 -49.5 -266t-134.5 -233zM399 1100q0 -58 37.5 -112.5t120.5 -137.5q58 30 97 54t76.5 56t56 69t18.5 79q0 79 -56.5 130.5t-144.5 51.5q-101 0 -153 -57.5t-52 -132.5zM563 162q173 0 320 110l-377 361
q-100 -58 -154.5 -117.5t-54.5 -136.5q0 -89 72 -153t194 -64z" />
    <glyph glyph-name="quotesingle" unicode="'" horiz-adv-x="448" 
d="M299 891h-154l-22 549h203z" />
    </font>
</defs>
</svg>
