<svg width="63" height="62" viewBox="0 0 63 62" fill="none" xmlns="http://www.w3.org/2000/svg">
<path d="M36.3456 9.06732L40.8923 18.1607C41.5123 19.4265 43.1656 20.6407 44.5606 20.8732L52.8015 22.2423C58.0715 23.1207 59.3115 26.944 55.514 30.7157L49.1073 37.1223C48.0223 38.2073 47.4281 40.2998 47.764 41.7982L49.5981 49.729C51.0448 56.0065 47.7123 58.4348 42.1581 55.154L34.434 50.5815C33.039 49.7548 30.7398 49.7548 29.319 50.5815L21.5948 55.154C16.0665 58.4348 12.7081 55.9807 14.1548 49.729L15.989 41.7982C16.3248 40.2998 15.7306 38.2073 14.6456 37.1223L8.23897 30.7157C4.46731 26.944 5.68147 23.1207 10.9515 22.2423L19.1923 20.8732C20.5615 20.6407 22.2148 19.4265 22.8348 18.1607L27.3815 9.06732C29.8615 4.13316 33.8915 4.13316 36.3456 9.06732Z" stroke="#292D32" stroke-width="3.875" stroke-linecap="round" stroke-linejoin="round"/>
</svg>
