<svg width="197" height="135" viewBox="0 0 197 135" fill="none" xmlns="http://www.w3.org/2000/svg">
<path opacity="0.4" d="M153.521 100.485C171.431 100.485 185.95 98.408 185.95 95.8463C185.95 93.2847 171.431 91.208 153.521 91.208C135.61 91.208 121.091 93.2847 121.091 95.8463C121.091 98.408 135.61 100.485 153.521 100.485Z" fill="#D16D95"/>
<path opacity="0.4" d="M50.1831 127.491C68.0933 127.491 82.6123 125.415 82.6123 122.853C82.6123 120.291 68.0933 118.215 50.1831 118.215C32.273 118.215 17.7539 120.291 17.7539 122.853C17.7539 125.415 32.273 127.491 50.1831 127.491Z" fill="#D16D95"/>
<path d="M171.76 55.5616C171.958 55.0781 172.028 54.6231 171.958 54.2108C171.873 53.6989 171.591 53.2297 171.112 52.8174C170.76 52.5046 170.267 52.206 169.647 51.9074C164.857 49.604 159.7 48.6514 154.178 49.0353C148.669 49.4192 143.682 51.0827 139.244 54.026C136.102 56.1303 134.242 58.4195 133.679 60.8792C133.383 62.1731 133.425 63.5665 133.819 65.0595C134.144 66.3249 134.721 67.633 135.524 68.9837C136.482 70.5762 137.567 71.927 138.793 73.0644C140.145 74.3157 141.611 75.2256 143.16 75.7801C145.048 76.4769 147.105 76.6759 149.331 76.3915C151.346 76.1356 153.825 75.5811 156.756 74.7422C159.686 73.8891 161.631 72.9507 162.575 71.8985C163.518 70.8606 163.758 69.7942 163.265 68.742L171.042 56.827C171.408 56.3009 171.634 55.8886 171.76 55.5616Z" fill="#442222"/>
<path d="M133.04 25.0423C132.111 23.5778 132.435 22.682 133.984 22.3266C132.829 21.2886 131.97 20.535 131.378 20.08C130.138 19.1416 128.898 18.4449 127.687 17.9899C126.236 17.4639 124.869 17.2932 123.573 17.4923C122.502 17.6487 121.333 18.0752 120.079 18.7719C120.037 18.8004 118.966 19.4829 116.867 20.8194C114.049 22.5398 111.64 23.0233 109.625 22.2697C109.667 23.3076 109.865 24.3029 110.231 25.284C110.583 26.2793 111.076 27.175 111.71 27.9855C112.358 28.7959 113.105 29.4926 113.95 30.0614C114.781 30.6301 115.655 31.0567 116.571 31.3126C116.613 31.3126 116.669 31.3268 116.712 31.341C116.669 31.3268 116.627 31.3126 116.571 31.3126C115.43 31.5543 114.288 31.6254 113.133 31.5401C113.302 32.6633 113.767 33.7724 114.514 34.8388C115.12 35.7203 115.951 36.6161 116.993 37.5403C117.881 38.3365 118.74 38.9479 119.558 39.3744C120.544 39.9147 121.53 40.2133 122.488 40.256L123.15 39.1612C124.432 39.9574 125.855 40.3982 127.419 40.4977C128.983 40.583 130.462 40.2986 131.829 39.6588C132.111 38.6493 132.096 37.455 131.801 36.0473C131.505 34.6397 131.11 33.4738 130.645 32.5354C130.18 31.597 130.42 30.886 131.35 30.4311C130.209 29.7059 130.49 28.7959 132.209 27.7011C131.068 26.194 131.336 25.3124 133.04 25.0423Z" fill="#562C2C"/>
<path d="M136.278 24.3859C135.771 23.9593 135.208 23.4475 134.588 22.8787C134.376 22.6797 134.165 22.4948 133.968 22.3242C132.418 22.6797 132.108 23.5897 133.024 25.0399C131.319 25.2959 131.052 26.1774 132.207 27.6846C130.488 28.7794 130.206 29.6894 131.347 30.4145C131.643 30.4003 131.953 30.3861 132.277 30.4003C132.855 30.4287 133.418 30.514 133.968 30.6562C136.673 29.2628 137.448 27.1727 136.278 24.3859Z" fill="#FA9543"/>
<path d="M131.347 30.4187C131.642 30.4044 131.952 30.3902 132.276 30.4044C132.854 30.4329 133.418 30.5182 133.967 30.6604C136.672 29.267 137.447 27.1769 136.278 24.39C135.77 23.9635 135.207 23.4516 134.587 22.8829C134.376 22.6838 134.164 22.499 133.967 22.3284C132.417 22.6838 132.107 23.5938 133.023 25.0441C131.318 25.3 131.051 26.1816 132.206 27.6887C130.487 28.7835 130.205 29.6935 131.347 30.4187Z" stroke="#FA9543" stroke-width="0.245878" stroke-miterlimit="3.4736" stroke-linecap="round" stroke-linejoin="round"/>
<path d="M131.352 30.4174C130.422 30.8866 130.183 31.5833 130.648 32.5217C131.113 33.4601 131.507 34.626 131.803 36.0337C132.099 37.4413 132.113 38.6356 131.831 39.6451C130.464 40.2992 128.985 40.5836 127.421 40.484C125.857 40.3845 124.435 39.9437 123.152 39.1475L122.504 40.2565C121.532 40.2139 120.56 39.9153 119.574 39.375C118.757 38.9484 117.911 38.3228 117.01 37.5408C115.967 36.6166 115.136 35.7209 114.53 34.8393C113.769 33.7587 113.319 32.6639 113.149 31.5406C114.305 31.626 115.446 31.5549 116.587 31.3131C115.671 31.043 114.798 30.6307 113.967 30.0619C113.121 29.4932 112.375 28.7965 111.726 27.986C111.092 27.1756 110.599 26.2656 110.247 25.2845C109.881 24.3035 109.684 23.3082 109.641 22.2702C111.656 23.0238 114.065 22.5404 116.869 20.8057C118.954 19.4692 120.025 18.7867 120.067 18.7583C121.321 18.0616 122.49 17.635 123.561 17.4786C124.857 17.2796 126.224 17.4502 127.675 17.9763C128.887 18.4313 130.126 19.128 131.366 20.0664C131.958 20.5214 132.817 21.2749 133.973 22.3129M116.573 31.3274C116.615 31.3274 116.672 31.3416 116.714 31.3558" stroke="#472523" stroke-width="0.245878" stroke-miterlimit="3.4736" stroke-linecap="round" stroke-linejoin="round"/>
<path d="M154.014 29.7077C153.521 28.3569 152.873 27.1483 152.056 26.082C151.183 24.9303 150.196 24.0203 149.069 23.3236C147.942 22.6269 146.928 22.1719 146.054 21.9302C145.026 21.6458 143.772 21.5605 142.307 21.66C140.982 21.5889 138.883 22.0013 135.981 22.897C133.543 23.6506 131.43 24.4326 129.641 25.2573C129.162 25.4848 127.725 26.0962 125.358 27.1057C123.85 27.7455 122.85 28.2289 122.385 28.5418C120.835 29.5655 119.596 30.7598 118.68 32.1106C117.637 33.6462 116.961 35.4377 116.679 37.4851C116.412 39.3762 116.82 41.9639 117.877 45.2626C118.933 48.5613 120.272 51.4761 121.906 54.0354C123.526 56.5947 125.597 58.5568 128.091 59.936C130.585 61.3152 131.627 62.3105 131.191 62.9219C130.754 63.5333 131.064 67.9268 132.121 76.1024C133.177 84.278 134.671 84.7187 136.615 77.4105C138.559 70.1022 140.531 66.1637 142.518 65.595C144.589 64.9978 146.477 63.8319 148.168 62.1115C149.717 60.5332 150.971 58.6422 151.929 56.4525C152.746 54.5899 153.38 52.4145 153.845 49.9547C154.155 48.3196 154.451 46.0589 154.747 43.1725C155.029 40.2862 155.156 38.0112 155.113 36.3335C155.085 33.8452 154.705 31.6272 154.014 29.7077Z" fill="#623432"/>
<path d="M127.589 58.8981C127.223 58.5284 126.829 58.2014 126.392 57.9312C125.448 57.3483 124.56 57.0923 123.729 57.1919C123.292 57.2345 122.884 57.3767 122.503 57.6042C122.236 57.7748 121.968 57.9739 121.729 58.2298C121.165 58.827 120.827 59.5379 120.714 60.3341C120.601 61.0166 120.658 61.6849 120.855 62.3674C121.052 63.0214 121.362 63.6186 121.785 64.1447C122.334 64.8414 123.025 65.3675 123.856 65.7229C124.687 66.0926 125.533 66.2348 126.392 66.1353C127.265 66.05 128.068 65.7229 128.801 65.1684C129.125 64.9267 129.407 64.6565 129.646 64.3437C129.477 64.1873 129.308 64.0309 129.167 63.8745C129.322 64.0309 129.477 64.1873 129.646 64.3437L127.589 58.8981ZM127.449 61.9693C127.646 62.4385 127.688 62.8792 127.575 63.2916C126.899 63.3342 126.293 63.32 125.744 63.2347C125.194 63.1494 124.701 62.9646 124.279 62.6518C123.898 62.3816 123.687 62.0972 123.659 61.7844C123.631 61.5712 123.701 61.3579 123.842 61.1588C123.983 60.974 124.152 60.846 124.363 60.7465C124.56 60.6754 124.772 60.6327 125.011 60.6327C125.194 60.6327 125.42 60.647 125.687 60.6754C125.279 60.2346 124.715 59.8507 124.025 59.5095C123.602 59.3104 123.053 59.0687 122.348 58.7843C123.278 59.0261 124.039 59.2678 124.645 59.5237C125.448 59.8649 126.11 60.2915 126.646 60.7891C127.012 61.173 127.28 61.5569 127.449 61.9693Z" fill="#F7AB8B"/>
<path d="M127.574 63.2903C127.687 62.8638 127.645 62.423 127.448 61.968C127.279 61.5557 126.997 61.1718 126.631 60.8163C126.095 60.3187 125.433 59.8921 124.63 59.5509C124.024 59.2949 123.263 59.039 122.333 58.8115C123.038 59.0959 123.601 59.3376 124.01 59.5367C124.7 59.8779 125.264 60.2618 125.673 60.7026C125.405 60.6741 125.179 60.6599 124.996 60.6599C124.757 60.6599 124.531 60.7026 124.348 60.7737C124.137 60.859 123.968 61.0012 123.827 61.186C123.672 61.3851 123.616 61.5983 123.644 61.8116C123.672 62.1244 123.883 62.4088 124.264 62.6789C124.7 62.9775 125.179 63.1766 125.729 63.2619C126.292 63.3188 126.912 63.333 127.574 63.2903Z" fill="#E2936F"/>
<path d="M127.588 58.8974C127.222 58.5277 126.828 58.2007 126.391 57.9305C125.447 57.3475 124.559 57.0916 123.728 57.1911C123.291 57.2338 122.883 57.376 122.502 57.6035C122.235 57.7741 121.967 57.9732 121.728 58.2291C121.164 58.8263 120.826 59.5372 120.713 60.3334C120.6 61.0159 120.657 61.6842 120.854 62.3667C121.051 63.0207 121.361 63.6179 121.784 64.144C122.333 64.8407 123.024 65.3667 123.855 65.7222C124.686 66.0919 125.532 66.2341 126.391 66.1345C127.264 66.0492 128.068 65.7222 128.8 65.1677C129.124 64.926 129.406 64.6558 129.645 64.343M129.674 64.3572C129.505 64.2008 129.335 64.0444 129.195 63.888" stroke="#E48F66" stroke-width="0.245878" stroke-miterlimit="3.4736" stroke-linecap="round" stroke-linejoin="round"/>
<path d="M168.22 45.9734L168.248 45.817C167.882 42.0918 166.67 38.5941 164.628 35.3238C162.585 32.0536 159.978 29.4516 156.808 27.5179C153.652 25.5842 150.215 24.3757 146.509 23.9207C142.79 23.4372 139.493 23.7358 136.591 24.8164C133.689 25.8828 131.125 27.3473 128.884 29.1957C126.644 31.0441 125.01 33.1626 123.967 35.5371C122.84 38.1249 122.361 40.7979 122.559 43.5563C122.742 46.3147 123.291 48.6181 124.193 50.4665C125.095 52.3149 125.447 54.1775 125.235 56.0827C125.024 57.9738 125.193 59.7937 125.771 61.5142C126.348 63.2346 127.447 64.7702 129.082 66.1209C130.462 67.2584 132.083 68.1826 133.97 68.9078C135.619 69.5334 137.211 69.903 138.775 70.031C138.916 70.0452 139.071 70.0452 139.226 70.0594C147.2 69.9457 153.652 67.4575 158.569 62.5948C161.542 59.6516 163.472 57.1491 164.374 55.0732V55.059C164.473 54.8457 164.543 54.6325 164.628 54.4192C164.557 54.6325 164.473 54.8457 164.374 55.059V55.0732C164.712 55.2439 165.092 55.3718 165.487 55.4713C166.375 55.6704 167.234 55.6278 168.065 55.3576C168.896 55.0875 169.615 54.604 170.235 53.9215C170.855 53.2533 171.263 52.4855 171.489 51.6324C171.672 50.9783 171.714 50.2958 171.63 49.6276C171.545 48.9167 171.32 48.291 170.953 47.7223C170.517 47.0398 169.925 46.5422 169.178 46.2152C168.868 46.1014 168.544 46.0161 168.22 45.9734C167.783 45.9166 167.347 45.9592 166.938 46.1014C166.135 46.3573 165.416 46.9403 164.811 47.8503C164.515 48.2768 164.289 48.746 164.106 49.2295C164.289 48.746 164.529 48.2768 164.811 47.8503C165.431 46.9261 166.135 46.3431 166.938 46.1014C167.361 45.9592 167.783 45.9166 168.22 45.9734Z" fill="#F7AB8B"/>
<path d="M168.247 45.817C167.881 42.0918 166.669 38.5941 164.626 35.3238C162.583 32.0536 159.977 29.4516 156.807 27.5179C153.651 25.5842 150.213 24.3757 146.508 23.9207C142.789 23.4372 139.492 23.7358 136.59 24.8164C133.687 25.8828 131.123 27.3473 128.883 29.1957C126.643 31.0441 125.009 33.1626 123.966 35.5371C122.839 38.1249 122.36 40.7979 122.557 43.5563C122.74 46.3147 123.29 48.6181 124.191 50.4665C125.093 52.3149 125.445 54.1775 125.234 56.0827C125.023 57.9738 125.192 59.7937 125.769 61.5142C126.347 63.2346 127.446 64.7702 129.08 66.1209C130.461 67.2584 132.081 68.1826 133.969 68.9078C135.617 69.5334 137.209 69.903 138.773 70.031C138.914 70.0452 139.069 70.0452 139.224 70.0594C147.198 69.9457 153.651 67.4575 158.568 62.5948C161.541 59.6516 163.471 57.1491 164.372 55.0732M164.64 54.4476C164.556 54.6609 164.485 54.8742 164.387 55.0875C164.725 55.2581 165.105 55.386 165.5 55.4856C166.387 55.6846 167.247 55.642 168.078 55.3718C168.909 55.1017 169.628 54.6182 170.247 53.9358C170.867 53.2675 171.276 52.4997 171.501 51.6466C171.684 50.9925 171.727 50.3101 171.642 49.6418C171.558 48.9309 171.332 48.3053 170.966 47.7365C170.529 47.054 169.937 46.5564 169.191 46.2294C168.867 46.0872 168.543 46.0019 168.219 45.9592C167.782 45.9023 167.345 45.945 166.937 46.0872C166.134 46.3431 165.415 46.9261 164.809 47.8361C164.513 48.2626 164.288 48.7318 164.105 49.2152" stroke="#E48F66" stroke-width="0.245878" stroke-miterlimit="3.4736" stroke-linecap="round" stroke-linejoin="round"/>
<g opacity="0.43">
<path d="M143.02 51.5098C140.864 50.7814 138.456 50.6326 135.797 51.0741C133.137 51.5049 131 52.3002 129.355 53.4601C127.71 54.6308 126.975 55.4896 127.119 56.0476C127.279 56.6162 128.285 56.7014 130.107 56.314C131.96 55.9266 134.193 55.4746 136.821 54.9687C139.448 54.4628 141.76 54.2254 143.755 54.2457C145.75 54.2767 146.661 54.0186 146.501 53.45C146.342 52.8921 145.192 52.2489 143.02 51.5098Z" fill="url(#paint0_radial_26_16420)"/>
</g>
<path d="M174.708 36.9135C174.596 34.9941 173.962 32.6622 172.792 29.9039C171.553 26.9749 169.904 24.3729 167.875 22.1122C165.847 19.8514 163.283 18.2021 160.211 17.1642C158.281 16.5101 156.238 16.1546 154.069 16.0978C154.435 15.6854 154.731 15.2589 154.942 14.7897C155.182 14.2636 155.196 13.8513 154.956 13.5669C154.787 13.3678 154.548 13.2683 154.223 13.2683C153.899 13.2825 153.59 13.3821 153.294 13.5811C153.026 13.766 152.786 14.0077 152.603 14.3063C152.448 14.5622 152.322 14.8608 152.209 15.2162C152.152 15.4295 152.082 15.7281 151.997 16.112C151.983 16.1404 151.983 16.1546 151.983 16.1831C151.983 16.1546 151.997 16.1404 151.997 16.112C152.026 15.7281 151.885 15.3726 151.589 15.0172C151.406 14.8039 151.082 14.5338 150.617 14.2067C150.293 13.9792 150.039 13.837 149.884 13.7517C149.602 13.5953 149.335 13.4958 149.095 13.4532C148.926 13.4105 148.785 13.4247 148.673 13.51C148.574 13.5953 148.56 13.766 148.602 14.0077C148.785 14.747 149.307 15.4011 150.166 15.9982C150.279 16.0693 150.405 16.1546 150.56 16.2542C150.391 16.2684 150.222 16.2968 150.053 16.3111C146.362 16.7803 132.189 20.8609 129.244 23.7757C126.243 26.7189 126.314 29.3778 126.257 30.046C126.201 30.7854 126.271 31.4821 126.483 32.1077C126.624 32.5201 126.807 32.8755 127.06 33.1457C127.342 33.4585 127.666 33.6433 128.033 33.6717C128.286 33.7002 128.554 33.6433 128.836 33.5153C129.047 33.4158 129.286 33.2594 129.568 33.0604C130.808 32.1077 131.822 30.956 132.583 29.5911C132.344 30.1171 132.203 30.7001 132.175 31.3115C132.132 32.1219 132.273 32.8897 132.597 33.5864C132.766 33.9703 132.978 34.2831 133.231 34.5249C133.527 34.8092 133.837 34.9941 134.189 35.0509C134.852 35.1789 135.542 34.9087 136.232 34.2547C136.937 33.5864 137.542 32.5627 138.078 31.1835C138.655 32.3068 139.261 33.3589 139.881 34.34C144.784 42.1175 151.673 46.5679 160.535 47.6911C161.352 47.8333 162.17 47.9186 162.987 47.947C164.762 50.0798 165.988 52.5396 166.65 55.3406C167.326 58.1274 167.368 60.9711 166.819 63.8717C166.678 63.9285 166.509 63.9854 166.326 64.0281C165.931 64.1276 165.635 64.1987 165.438 64.2556C165.1 64.3551 164.875 64.4546 164.762 64.5399C164.649 64.611 164.508 64.7674 164.339 65.0091C164.156 65.2366 163.86 65.4926 163.452 65.7485C163.029 66.0044 162.691 66.1182 162.409 66.0897C162.24 66.0755 162.057 66.0613 161.86 66.0471C160.704 69.5306 160.648 73.199 160.958 74.4786C161.972 74.0094 170.947 71.706 172.595 64.2271C173.074 63.3598 173.257 62.5067 173.159 61.6536C175.371 61.3124 177.244 60.1749 178.766 58.2554C180.274 56.3359 180.95 54.2458 180.795 51.9993C178.991 51.8855 177.554 51.2741 176.47 50.1793C175.385 49.0561 174.751 47.8333 174.568 46.4825C174.384 45.1318 174.384 43.6815 174.568 42.1175C174.779 40.5677 174.821 38.8188 174.708 36.9135Z" fill="#623432"/>
<path d="M171.477 51.6692C171.66 51.0152 171.702 50.3469 171.618 49.6644C171.533 48.9535 171.308 48.3279 170.956 47.7734C170.519 47.0909 169.927 46.5933 169.18 46.2662C168.856 46.1241 168.532 46.0387 168.222 46.0103C167.786 45.9534 167.349 45.9961 166.94 46.1241C166.123 46.3516 165.405 46.9345 164.785 47.8587C164.489 48.2853 164.263 48.7545 164.08 49.2379L164.376 55.0817C164.475 54.8684 164.545 54.6551 164.616 54.4418C164.545 54.6551 164.461 54.8684 164.376 55.0817V55.0959C164.714 55.2665 165.095 55.3945 165.489 55.494C166.377 55.6931 167.236 55.6504 168.067 55.3802C168.899 55.1101 169.617 54.6267 170.223 53.9584C170.843 53.2901 171.266 52.5223 171.477 51.6692ZM169.659 47.9156C168.997 48.2853 168.462 48.5838 168.067 48.8256C167.419 49.2379 166.912 49.6929 166.546 50.1763C166.799 50.1194 167.025 50.0768 167.208 50.0626C167.448 50.0341 167.673 50.0483 167.87 50.1052C168.096 50.1621 168.279 50.2758 168.434 50.4465C168.603 50.6313 168.687 50.8304 168.687 51.0436C168.687 51.3564 168.518 51.6692 168.166 51.9678C167.772 52.3233 167.293 52.565 166.757 52.7072C166.222 52.8494 165.616 52.9347 164.954 52.9631C164.785 52.565 164.771 52.11 164.926 51.6266C165.052 51.2 165.278 50.7877 165.616 50.3896C166.081 49.8351 166.701 49.3374 167.462 48.8967C168.039 48.5981 168.772 48.2568 169.659 47.9156Z" fill="#F7AB8B"/>
<path d="M168.065 48.838C168.46 48.5962 168.995 48.2834 169.657 47.928C168.77 48.2692 168.037 48.5962 167.459 48.9233C166.699 49.364 166.079 49.8617 165.614 50.4162C165.276 50.8143 165.05 51.2267 164.923 51.6532C164.768 52.1366 164.782 52.5916 164.952 52.9897C165.628 52.9613 166.22 52.8618 166.755 52.7338C167.29 52.5916 167.769 52.3499 168.164 51.9944C168.516 51.6816 168.685 51.3831 168.685 51.0703C168.685 50.857 168.601 50.6579 168.431 50.4731C168.276 50.3025 168.093 50.1887 167.868 50.1318C167.671 50.075 167.445 50.0607 167.206 50.0892C167.023 50.1034 166.797 50.1461 166.544 50.2029C166.91 49.6911 167.417 49.2503 168.065 48.838Z" fill="#E2936F"/>
<path d="M164.083 49.2353C164.266 48.7519 164.506 48.2827 164.787 47.8561C165.407 46.9319 166.126 46.349 166.929 46.1073C167.352 45.9651 167.774 45.9367 168.211 45.9935C168.521 46.0362 168.845 46.1215 169.169 46.2495C169.916 46.5765 170.507 47.0741 170.944 47.7566C171.296 48.3111 171.522 48.951 171.606 49.6477C171.691 50.3301 171.649 50.9984 171.465 51.6525C171.24 52.5056 170.831 53.2734 170.212 53.9416C169.592 54.6241 168.873 55.0933 168.056 55.3635C167.225 55.6336 166.365 55.6763 165.478 55.4772C165.083 55.3777 164.703 55.2497 164.365 55.0791M164.379 55.0933C164.477 54.88 164.548 54.6668 164.618 54.4535" stroke="#E48F66" stroke-width="0.245878" stroke-miterlimit="3.4736" stroke-linecap="round" stroke-linejoin="round"/>
<path d="M163.007 47.9549C162.19 47.9265 161.373 47.8412 160.556 47.699C161.218 49.3057 161.739 50.7702 162.134 52.1209C162.627 53.7702 162.951 55.3343 163.12 56.813C163.317 58.4908 163.317 60.0974 163.12 61.633C162.923 63.2397 162.5 64.7184 161.88 66.0692C162.077 66.0834 162.261 66.0976 162.43 66.1118C162.711 66.1403 163.05 66.0265 163.472 65.7706C163.881 65.5004 164.177 65.2587 164.36 65.0312C164.529 64.7895 164.67 64.6331 164.783 64.562C164.895 64.4767 165.121 64.3914 165.459 64.2919C165.656 64.235 165.952 64.1497 166.346 64.0644C166.53 64.0217 166.684 63.9648 166.825 63.908C167.389 61.0074 167.333 58.1637 166.67 55.3769C166.022 52.5475 164.797 50.0877 163.007 47.9549Z" fill="#6D3B3B"/>
<path d="M134.534 51.6351C134.394 50.732 134.141 49.9842 133.802 49.3903C133.448 48.7971 133.112 48.5291 132.778 48.587C132.444 48.6314 132.193 48.9976 132.052 49.6706C131.911 50.3436 131.924 51.131 132.064 52.0341C132.204 52.9372 132.458 53.6986 132.797 54.2925C133.15 54.8857 133.488 55.1672 133.821 55.1093C134.155 55.0514 134.392 54.6859 134.533 54.0129C134.674 53.3263 134.674 52.5382 134.534 51.6351Z" fill="#21000D"/>
<path d="M141.29 50.0954C141.473 49.7541 141.586 49.3845 141.642 49.0006C141.698 48.6167 141.684 48.2328 141.628 47.8631C141.445 48.4461 141.177 49.0006 140.811 49.4982C140.642 49.7257 140.473 49.9248 140.29 50.1096C140.163 49.3418 139.965 48.6878 139.67 48.1475C139.346 47.5503 139.022 47.2659 138.683 47.3228C138.331 47.3655 138.078 47.7209 137.909 48.3892C137.754 49.0574 137.725 49.8395 137.838 50.7494C137.951 51.6594 138.162 52.413 138.486 53.0102C138.81 53.6216 139.148 53.9059 139.486 53.8633C139.825 53.8206 140.064 53.4509 140.219 52.7827C140.247 52.6831 140.275 52.5694 140.29 52.4699C140.698 52.2992 141.05 52.1002 141.346 51.8443C141.628 51.6025 141.853 51.3324 142.037 51.0196C142.22 50.6926 142.332 50.3513 142.361 49.9959C141.769 50.5646 141.107 51.0196 140.36 51.3893C140.36 51.3466 140.36 51.304 140.36 51.2755C140.754 50.9343 141.064 50.5504 141.29 50.0954Z" fill="#21000D"/>
<path d="M139.245 51.1174C139.061 50.9171 138.895 50.844 138.732 50.8881C138.569 50.9323 138.462 51.079 138.401 51.3456C138.341 51.6122 138.363 51.9153 138.451 52.2449C138.538 52.5745 138.669 52.8482 138.853 53.0486C139.038 53.2489 139.207 53.3357 139.37 53.2916C139.533 53.2474 139.65 53.0834 139.697 52.8204C139.758 52.5538 139.736 52.2507 139.648 51.9211C139.574 51.5878 139.43 51.3178 139.245 51.1174Z" fill="#F5ECEC"/>
<path d="M137.28 40.4695C138.365 40.1425 139.534 40.1283 140.774 40.4269C142.014 40.7255 143.043 41.408 143.846 42.5028C143.296 40.6686 142.394 39.6022 141.155 39.3036C139.915 39.005 138.619 39.3889 137.28 40.4695Z" fill="#21000D"/>
<path d="M127.145 44.7724C127.666 43.7629 128.483 42.924 129.568 42.2415C130.667 41.5591 131.878 41.3173 133.203 41.5164C131.526 40.6206 130.145 40.5069 129.061 41.1894C127.962 41.8576 127.328 43.052 127.145 44.7724Z" fill="#21000D"/>
<path d="M142.28 53.3822C142.594 53.6563 142.815 54.0282 142.943 54.4838C142.767 54.2033 142.493 53.9354 142.119 53.6519L142.109 53.6504C142.088 53.6188 142.046 53.5842 142.005 53.5637C141.735 53.3527 141.463 53.2677 141.197 53.2821C141.546 53.028 141.914 53.0719 142.28 53.3822ZM132.054 56.1279C132.233 55.8471 132.463 55.7287 132.751 55.7459C132.569 55.8437 132.386 56.0677 132.201 56.4179C132.02 56.6844 131.933 57.0077 131.927 57.386C131.806 56.8753 131.848 56.4607 132.054 56.1279Z" fill="#C47554"/>
<path d="M142.104 53.6902C140.774 62.3573 137.494 63.274 132.245 56.4513" stroke="#C47554" stroke-width="0.359582" stroke-linecap="round" stroke-linejoin="round"/>
<path d="M158.728 18.408C158.298 19.1424 157.914 19.7857 157.55 20.3412C157.24 23.3509 158.595 25.1171 161.586 25.643C162.078 25.3452 162.59 25.1024 163.123 24.9145C163.423 24.8096 163.713 24.7345 164.016 24.6579C164.895 23.6162 164.356 22.8322 162.399 22.3057C163.07 20.529 162.548 19.7716 160.845 20.018C161.301 18.351 160.75 17.5826 159.161 17.7019C159.015 17.9184 158.871 18.1632 158.728 18.408Z" fill="#FA9543"/>
<path d="M182.726 13.5105C182.783 12.4743 182.686 11.4552 182.421 10.4547C180.708 11.775 178.269 12.0175 175.088 11.1836C172.693 10.5342 171.479 10.197 171.422 10.1891C170.014 9.88773 168.774 9.82522 167.716 10C166.42 10.2012 165.164 10.7699 163.932 11.6934C162.898 12.4806 161.92 13.519 161.009 14.7789C160.579 15.3846 159.963 16.3684 159.173 17.7007C160.762 17.5814 161.313 18.3498 160.857 20.0168C162.56 19.7705 163.081 20.5278 162.411 22.3045C164.367 22.831 164.906 23.615 164.028 24.6567C165.053 24.8289 165.473 25.426 165.302 26.4606C165.131 27.4951 165.096 28.7292 165.224 30.1597C165.351 31.5903 165.689 32.74 166.253 33.6214C167.751 33.8412 169.236 33.6763 170.706 33.1267C172.177 32.5771 173.402 31.7257 174.398 30.5852L175.329 31.4545C176.242 31.1241 177.088 30.5582 177.879 29.7551C178.53 29.0963 179.163 28.2679 179.787 27.2401C180.523 26.0569 181.041 24.9552 181.368 23.9318C181.769 22.6714 181.895 21.4845 181.731 20.3727C180.657 20.7924 179.539 21.0597 178.375 21.1747C179.181 20.6417 179.89 19.9908 180.511 19.1922C181.161 18.3905 181.674 17.5039 182.051 16.5465C182.467 15.5562 182.671 14.5609 182.726 13.5105Z" fill="#6B3E3E"/>
<path d="M166.842 95.8545L136.449 105.394L125.549 73.3911L155.982 63.9021L166.842 95.8545Z" fill="#6B2B2B"/>
<path d="M154.335 62.3816L152.908 62.9054C151.48 60.7195 151.48 58.8963 152.908 57.4558L154.335 62.3816Z" fill="#FAF6C6"/>
<path d="M155.982 63.9021V61.7766L166.842 94.142V95.8444L155.982 63.9021Z" fill="#844A49"/>
<path d="M109.63 58.7947L125.54 73.3908L136.45 105.394L120.18 90.5456L109.63 58.7947Z" fill="#4D1312"/>
<path d="M111.775 59.1266L111.864 59.0359C112.673 58.2603 113.132 56.981 113.242 55.2081C118.891 54.3015 123.762 58.6632 127.835 68.2832C130.729 65.0396 134.392 62.3198 138.804 60.1339C143.505 57.666 148.206 56.7694 152.908 57.4544C151.48 58.8949 151.48 60.7182 152.908 62.9041L125.689 71.7484L111.775 59.1266Z" fill="#EEE1AC"/>
<path d="M110.6 58.0591L111.777 59.1268L125.681 71.7486L152.911 62.9043L154.338 62.3805L155.985 61.7761V63.9016L125.552 73.3906L109.631 58.7944L110.6 58.0591Z" fill="#844A48"/>
<path d="M124.935 72.8114L126.033 71.4414L128.079 93.0687L126.572 91.7088L125.125 93.0183L124.935 72.8114Z" fill="#EE9821"/>
<path d="M154.485 79.6276C154.086 79.3556 154.066 79.0836 154.445 78.8116C154.824 78.5296 155.842 78.2777 157.519 78.036C159.196 77.7942 160.114 77.6633 160.274 77.6532C160.444 77.633 160.604 77.5827 160.753 77.4819C160.923 77.3611 161.023 77.1898 161.043 76.9682C161.073 76.807 161.083 76.6358 161.093 76.4343C161.532 76.4847 161.961 76.6862 162.4 77.0387C162.849 77.4014 163.099 77.8547 163.129 78.3785C163.159 78.8015 163.039 79.2448 162.789 79.6981C162.61 80.0305 162.33 80.4133 161.961 80.8363C161.232 81.6825 160.514 82.3977 159.815 82.9719C158.987 83.6669 158.148 84.2008 157.29 84.5836C156.391 84.9966 156.461 84.6138 157.499 83.4554C158.547 82.3171 159.516 81.4206 160.414 80.786C159.595 81.34 158.727 81.7832 157.809 82.1257C156.87 82.4682 155.922 82.6797 154.954 82.7603C154.685 82.7704 154.485 82.7301 154.375 82.6495C154.265 82.5589 154.205 82.4581 154.215 82.3574C154.225 82.2466 154.285 82.1257 154.405 82.0048C154.525 81.884 154.824 81.6825 155.293 81.3904C155.763 81.0982 156.381 80.786 157.14 80.4435C157.899 80.101 158.877 79.7081 160.074 79.275C156.751 79.7786 154.894 79.8995 154.485 79.6276Z" fill="#F5AC89"/>
<path d="M116.692 78.1018C116.702 78.1018 116.702 78.1018 116.692 78.1018C117.55 78.6558 118.149 79.0487 118.479 79.2703C119.097 79.6933 119.597 80.1466 119.966 80.6302C120.096 80.7913 120.165 80.9424 120.195 81.0633C120.215 81.1439 120.205 81.2346 120.185 81.3151C120.155 81.4058 120.116 81.4662 120.056 81.5065C119.976 81.5569 119.896 81.577 119.796 81.567C119.726 81.567 119.636 81.5569 119.517 81.5267C118.858 81.3655 118.219 81.1439 117.6 80.8518C117.031 80.5899 116.592 80.328 116.293 80.056C115.873 79.6531 115.624 79.2098 115.544 78.7263C115.524 78.5551 115.534 78.3939 115.594 78.2529C115.654 78.0816 115.883 77.9406 116.293 77.8298C116.412 77.9205 116.562 78.0111 116.692 78.1018ZM114.097 74.4653C113.917 74.143 113.867 73.8005 113.957 73.4177C114.037 73.0148 114.227 72.7126 114.516 72.491C114.786 72.7529 114.895 73.1357 114.855 73.6393C115.933 74.1228 116.912 74.6869 117.77 75.3417C118.079 75.5734 118.279 75.7749 118.369 75.9461C118.429 76.0871 118.449 76.1979 118.419 76.2785C118.369 76.3893 118.249 76.4498 118.059 76.48C117.78 76.5001 117.411 76.4296 116.961 76.2684C117.82 76.8225 118.449 77.3362 118.848 77.8298C118.968 77.9507 119.048 78.0816 119.087 78.2025C119.137 78.3637 119.127 78.4946 119.048 78.5954C118.918 78.7565 118.668 78.7666 118.299 78.6357C117.59 78.3939 117.071 78.1924 116.732 78.0413H116.722V78.0313C116.562 77.9607 116.412 77.8902 116.273 77.8197C116.253 77.8096 116.223 77.7895 116.203 77.7794C115.864 77.5981 115.574 77.4067 115.315 77.2053C114.965 76.9232 114.736 76.6512 114.626 76.3692C114.556 76.1879 114.526 76.0065 114.556 75.8252C114.586 75.6238 114.656 75.4626 114.776 75.3417L114.865 75.2007V75.1906C114.496 74.9488 114.247 74.7071 114.097 74.4653Z" fill="#F5AC89"/>
<path d="M163.195 76.4736C162.9 76.2319 162.604 76.0755 162.28 76.0044C162.153 75.976 162.026 75.9617 161.899 75.9617C161.603 75.8906 161.237 75.8906 160.814 75.9475C160.392 76.0044 160.04 76.1039 159.786 76.2319C159.532 76.3456 159.363 76.4594 159.293 76.5447C159.222 76.6442 159.208 76.7438 159.251 76.8291C159.293 76.9144 159.391 76.9855 159.546 77.0281C160.18 77.1845 160.786 77.1561 161.378 76.957C160.913 77.3125 160.631 77.6679 160.533 78.0234C160.476 78.2509 160.49 78.4784 160.575 78.7059C160.674 78.9476 160.829 79.0898 161.04 79.1467C161.237 79.2035 161.434 79.1751 161.646 79.0614C161.843 78.9618 161.998 78.8196 162.125 78.6206C161.927 79.1893 161.885 79.7723 161.998 80.3979C162.04 80.668 162.139 80.8671 162.28 80.9666C162.378 81.0377 162.491 81.0804 162.618 81.0804C162.745 81.0804 162.871 81.0519 162.97 80.9808C163.167 80.8813 163.336 80.7107 163.477 80.4548C163.745 80.0282 163.928 79.5874 164.013 79.104C164.097 78.6064 164.083 78.1229 163.942 77.6679C163.844 77.1987 163.576 76.8006 163.195 76.4736Z" fill="#EF8695"/>
<path d="M161.884 75.9642C161.589 75.8931 161.222 75.8931 160.8 75.95C160.377 76.0068 160.039 76.1064 159.785 76.2343C159.532 76.3481 159.363 76.4618 159.292 76.5471C159.222 76.6467 159.208 76.7462 159.25 76.8315C159.292 76.9168 159.391 76.9879 159.546 77.0306C160.18 77.187 160.786 77.1585 161.377 76.9595C160.912 77.3149 160.631 77.6704 160.532 78.0259C160.476 78.2533 160.49 78.4808 160.574 78.7083C160.673 78.95 160.828 79.0922 161.039 79.1491C161.236 79.206 161.434 79.1775 161.645 79.0638C161.842 78.9643 161.997 78.8221 162.124 78.623C161.927 79.1918 161.884 79.7747 161.997 80.4003C162.039 80.6705 162.138 80.8695 162.279 80.9691C162.378 81.0402 162.49 81.0828 162.617 81.0828C162.744 81.0828 162.871 81.0544 162.969 80.9833C163.167 80.8838 163.336 80.7131 163.476 80.4572C163.744 80.0306 163.927 79.5899 164.012 79.1065C164.096 78.6088 164.082 78.1254 163.941 77.6704C163.801 77.2012 163.533 76.8031 163.152 76.476C162.857 76.2343 162.561 76.0779 162.237 76.0068C162.152 75.9784 162.025 75.9642 161.884 75.9642Z" stroke="#FEA6B6" stroke-width="0.245878" stroke-miterlimit="3.4736" stroke-linecap="round" stroke-linejoin="round"/>
<path d="M132.734 48.5768C132.396 48.6336 132.156 49.0033 132.029 49.6574C131.917 50.2545 131.902 50.9512 132.015 51.719C131.79 51.5911 131.564 51.4489 131.339 51.2783C130.846 50.9086 130.423 50.4678 130.085 49.956C130.127 50.3399 130.226 50.7095 130.381 51.0508C130.55 51.4062 130.775 51.719 131.029 52.0034C131.381 52.3589 131.79 52.6432 132.241 52.8423C132.255 52.885 132.255 52.9276 132.269 52.9703C131.452 52.8281 130.677 52.5864 129.944 52.2309C130.085 52.5579 130.282 52.8565 130.564 53.0982C130.818 53.3399 131.128 53.5248 131.466 53.6812C131.818 53.8376 132.212 53.9229 132.649 53.9656C132.691 54.0651 132.748 54.1646 132.804 54.2499C133.156 54.8471 133.494 55.1172 133.833 55.0746C134.171 55.0177 134.396 54.6338 134.537 53.9656C134.678 53.2973 134.664 52.5011 134.509 51.6053C134.354 50.6953 134.1 49.956 133.762 49.3588C133.424 48.79 133.086 48.5199 132.734 48.5768Z" fill="#21000D"/>
<path d="M133.612 52.1533C133.427 51.953 133.262 51.8799 133.099 51.924C132.935 51.9682 132.828 52.1149 132.768 52.3815C132.707 52.648 132.729 52.9512 132.817 53.2808C132.904 53.6104 133.035 53.8841 133.22 54.0845C133.404 54.2848 133.573 54.3716 133.737 54.3275C133.9 54.2833 134.017 54.1192 134.064 53.8563C134.124 53.5897 134.102 53.2866 134.015 52.957C133.941 52.6237 133.796 52.3537 133.612 52.1533Z" fill="#F5ECEC"/>
<path d="M18.7361 55.339C19.8069 55.6661 20.6945 56.1068 21.3989 56.6614C21.0044 56.6756 20.6804 56.6898 20.4127 56.7324C20.0605 56.7893 19.7505 56.9031 19.4969 57.0453C19.201 57.2159 18.9756 57.4576 18.8207 57.7562C18.6516 58.069 18.5952 58.3818 18.6798 58.6946C18.8066 59.1354 19.1588 59.5193 19.7646 59.8178C20.469 60.1733 21.2298 60.3439 22.047 60.3297C22.8641 60.3297 23.7517 60.216 24.7097 60.0027C24.7943 59.3629 24.6393 58.7372 24.2589 58.0974C23.9208 57.5429 23.4418 57.0453 22.8218 56.6187C21.9343 56.0073 20.8776 55.5381 19.6378 55.2111C18.7079 54.9694 17.5386 54.7703 16.1438 54.6423C17.2005 54.8983 18.074 55.1258 18.7361 55.339Z" fill="#E2936F"/>
<path d="M92.4649 67.7006C92.803 66.3641 92.7607 65.056 92.324 63.8048C91.9154 62.6105 91.2532 61.7147 90.3516 61.1033C89.4076 60.4635 88.4214 60.2929 87.3788 60.6057C86.1954 60.9327 84.7583 62.2266 83.0254 64.5015L80.7712 70.9709C82.2224 73.0468 83.589 74.1842 84.857 74.4117C86.125 74.6392 87.2802 74.4971 88.3087 73.971C89.3372 73.4449 90.2107 72.6771 90.9292 71.6818C91.7041 70.6154 92.2113 69.2931 92.4649 67.7006ZM90.3516 64.1318C89.2808 64.3878 88.4073 64.6295 87.7452 64.8285C86.6744 65.1556 85.7868 65.5963 85.0824 66.1508C85.4769 66.1651 85.8009 66.1793 86.0686 66.2219C86.4208 66.2788 86.7308 66.3926 86.9844 66.5347C87.2802 66.7054 87.5056 66.9471 87.6606 67.2457C87.8297 67.5585 87.886 67.8713 87.8015 68.1841C87.6747 68.6248 87.3225 69.0087 86.7167 69.3073C86.0122 69.6628 85.2515 69.8334 84.4343 69.8192C83.6172 69.8192 82.7296 69.7054 81.7715 69.4922C81.687 68.8523 81.8279 68.2267 82.2224 67.5869C82.5605 67.0324 83.0395 66.5347 83.6594 66.1082C84.547 65.4968 85.6037 65.0276 86.8435 64.7006C87.8015 64.4588 88.9568 64.274 90.3516 64.1318Z" fill="#F8AF89"/>
<path d="M87.7435 64.8283C88.4057 64.6292 89.2792 64.3875 90.3499 64.1316C88.9551 64.2738 87.7858 64.4586 86.8559 64.7003C85.6161 65.0274 84.5595 65.4966 83.6719 66.108C83.052 66.5345 82.573 67.0321 82.2348 67.5867C81.8404 68.2265 81.6854 68.8521 81.784 69.4919C82.7561 69.7052 83.6437 69.819 84.4468 69.819C85.2639 69.8332 86.0247 69.6483 86.7291 69.3071C87.3349 69.0085 87.7013 68.6246 87.814 68.1838C87.8844 67.871 87.8421 67.5582 87.6731 67.2454C87.5181 66.9468 87.2927 66.7051 86.9968 66.5345C86.7432 66.3923 86.4333 66.2786 86.0811 66.2217C85.8134 66.179 85.4893 66.1506 85.0948 66.1506C85.7852 65.6103 86.6728 65.1553 87.7435 64.8283Z" fill="#E2936F"/>
<path d="M83.024 64.5008C84.7569 62.2259 86.1939 60.932 87.3633 60.5908C88.4059 60.278 89.4062 60.4486 90.3501 61.0884C91.2518 61.6998 91.9139 62.6098 92.3225 63.7899C92.7593 65.0411 92.8015 66.3492 92.4634 67.6858C92.2098 69.2782 91.7026 70.6148 90.9418 71.6669C90.2233 72.6764 89.3498 73.43 88.3213 73.9561C87.2928 74.4822 86.1376 74.6243 84.8696 74.3969C83.6016 74.1694 82.2209 73.0319 80.7698 70.9702L83.024 64.5008Z" stroke="#E2936F" stroke-width="0.36883" stroke-miterlimit="3.4736" stroke-linecap="round" stroke-linejoin="round"/>
<path d="M91.4096 49.1191C91.311 47.4271 90.9306 45.9484 90.2684 44.6972C89.6063 43.446 88.7891 42.5076 87.8311 41.8962C85.746 40.6449 83.8158 39.8629 82.0265 39.5643C79.7723 39.1804 77.8563 39.4932 76.2643 40.4601C74.7568 41.4127 73.6578 42.9199 72.9393 44.9816C72.3758 46.6167 72.0799 48.5788 72.0236 50.8822C71.9813 52.7022 72.0517 54.3657 72.2067 55.8729C72.3899 57.636 72.7139 59.2569 73.1788 60.7356C73.7001 62.3991 74.4045 63.8921 75.2921 65.2428C76.2361 66.6931 77.3632 68.0581 78.6734 69.3377C81.4207 66.2239 83.6467 63.6219 85.3515 61.5602C87.0703 59.4986 88.5214 57.3231 89.7331 55.0482C90.9588 52.8017 91.5082 50.8111 91.4096 49.1191Z" fill="#311413"/>
<path d="M87.8185 41.8957C88.7765 42.5071 89.5936 43.4455 90.2558 44.6967C90.918 45.948 91.2984 47.4267 91.397 49.1187C91.4956 50.8107 90.9321 52.8012 89.7345 55.0762C88.5229 57.3511 87.0718 59.5265 85.3529 61.5882C83.6341 63.6499 81.4081 66.2519 78.6749 69.3657C77.3646 68.086 76.2375 66.7211 75.2936 65.2708C74.406 63.92 73.7016 62.4129 73.1803 60.7635C72.7154 59.2848 72.3913 57.6639 72.2082 55.9008C72.0532 54.3937 71.9828 52.7301 72.025 50.9102C72.0814 48.6068 72.3913 46.6447 72.9408 45.0095C73.6452 42.9479 74.7582 41.4407 76.2657 40.5023C77.8577 39.5212 79.7738 39.2226 82.028 39.6065C83.8173 39.8625 85.7474 40.6445 87.8185 41.8957Z" stroke="#311413" stroke-width="0.36883" stroke-miterlimit="3.4736" stroke-linecap="round" stroke-linejoin="round"/>
<path d="M85.8144 25.5833C85.279 24.1188 84.3491 22.7397 83.0248 21.4742C81.94 20.4221 80.5593 19.4268 78.9109 18.4883C74.3884 15.9006 69.1615 14.1802 63.2442 13.3271C58.2146 12.5735 52.6354 12.474 46.5069 12.9858C44.3654 13.1707 42.5197 13.3982 40.9841 13.6825C39.0117 14.038 37.2365 14.5356 35.6445 15.147C32.9958 16.1707 30.5303 17.6779 28.2479 19.6543C26.05 21.5595 24.1762 23.7776 22.6124 26.3085C20.4568 29.7636 19.048 37.3846 18.3717 49.1717C18.583 49.2001 18.7803 49.257 18.9916 49.3139C19.0902 49.3423 19.1888 49.3708 19.2734 49.3992C20.5554 49.84 21.6966 50.6646 22.6969 51.8874C23.8381 53.2808 24.613 54.9728 24.9934 56.9492C24.5989 54.9728 23.8381 53.2808 22.6969 51.8874C21.6966 50.6646 20.5554 49.84 19.2734 49.3992C19.1748 49.3708 19.0902 49.3423 18.9916 49.3139C18.7803 49.257 18.5689 49.2001 18.3717 49.1717C17.1882 48.9584 16.0611 49.1433 15.0186 49.712C13.6802 50.4514 12.6517 51.8448 11.9472 53.8922C11.0737 56.4089 10.9751 58.7691 11.6514 60.9588C12.2995 63.0489 13.6097 64.7693 15.5821 66.1058C17.3432 67.1011 19.062 67.0443 20.7527 65.9494C22.3306 64.9257 23.8381 63.0062 25.2893 60.2052C25.4161 61.5133 25.6978 62.7787 26.1346 64.0015C27.4166 67.2149 29.2623 69.7884 31.6433 71.7221C34.9823 74.6227 39.3639 76.9261 44.8021 78.6465C49.705 80.1963 54.791 81.0778 60.0743 81.2911C65.1885 81.5044 69.246 81.0778 72.2751 80.0115C78.6996 77.7507 82.5458 74.2388 83.8419 69.4614C84.5323 66.8736 84.49 64.1437 83.701 61.2431C83.0952 59.0535 82.7994 57.3757 82.7994 56.224C82.7994 55.0581 83.0248 53.5794 83.4756 51.7595C83.9265 49.9395 84.3914 46.9678 84.8704 42.8587C85.3353 38.7638 84.6027 35.849 82.6726 34.1002C84.166 33.5314 85.2085 32.3797 85.8003 30.6309C86.4202 28.9105 86.4202 27.2327 85.8144 25.5833Z" fill="#F8AF89"/>
<path d="M18.3735 49.1851C19.0498 37.3838 20.4728 29.7627 22.6142 26.3077C24.1781 23.7768 26.0519 21.5587 28.2497 19.6534C30.5321 17.6771 32.9976 16.1699 35.6463 15.1462C37.2383 14.5348 39.0135 14.0372 40.9859 13.6817C42.5216 13.3973 44.3672 13.1698 46.5087 12.985C52.6373 12.4731 58.2023 12.5869 63.232 13.312C69.1493 14.1651 74.3762 15.8856 78.8986 18.4733C80.5611 19.4259 81.9277 20.4212 83.0125 21.4592C84.3369 22.7388 85.2667 24.1038 85.8021 25.5683C86.3938 27.2176 86.4079 28.9096 85.8303 30.6158C85.2386 32.3647 84.196 33.5164 82.7026 34.0851C84.6327 35.834 85.3654 38.7488 84.9004 42.8437C84.4214 46.9528 83.9565 49.9245 83.5056 51.7444C83.0548 53.5644 82.8294 55.0573 82.8294 56.209C82.8294 57.3607 83.1252 59.0385 83.7311 61.2281C84.52 64.1287 84.5764 66.8728 83.872 69.4464C82.5758 74.2237 78.7296 77.7499 72.3051 79.9964C69.2761 81.0628 65.2044 81.4894 60.1043 81.2761C54.821 81.0628 49.7209 80.1813 44.8321 78.6315C39.3939 76.911 34.9982 74.6076 31.6733 71.7071C29.2923 69.7734 27.4467 67.1998 26.1646 63.9865C25.7279 62.7637 25.4461 61.4983 25.3193 60.1902C23.8681 63.0054 22.3607 64.9107 20.7827 65.9344C19.0921 67.0292 17.3732 67.0719 15.6122 66.0908C13.6397 64.7543 12.3295 63.0338 11.6814 60.9437C11.0052 58.7541 11.1038 56.3938 11.9773 53.8772C12.6817 51.8297 13.7102 50.4363 15.0486 49.697C16.0771 49.1424 17.1901 48.9576 18.3735 49.1851ZM18.3735 49.1851C18.5849 49.2135 18.7821 49.2704 18.9935 49.3273C19.0921 49.3557 19.1907 49.3842 19.2752 49.4126C20.5573 49.8534 21.6985 50.678 22.6988 51.9008C23.84 53.2942 24.6148 54.9862 24.9952 56.9626M82.7026 34.0994C82.6885 34.1278 82.6603 34.1562 82.6321 34.1704" stroke="#E2936F" stroke-width="0.36883" stroke-miterlimit="3.4736" stroke-linecap="round" stroke-linejoin="round"/>
<path d="M112.486 16.9366C110.81 13.055 108.584 9.82741 105.794 7.28231C103.131 4.83675 100.018 3.05944 96.4532 1.95041C93.0014 0.869807 89.2257 0.457473 85.14 0.713405C81.1106 0.955118 76.9121 1.83666 72.5446 3.34381C69.7128 4.31067 67.5854 4.95049 66.1765 5.2633C63.3024 5.88891 60.5129 6.07375 57.836 5.78938C56.5117 5.6472 54.0039 5.24908 50.3127 4.59503C47.1709 4.04051 44.6631 3.72771 42.7893 3.62818C40.0138 3.486 37.4778 3.71349 35.1673 4.32488C33.9698 4.63769 32.5186 5.36283 30.7998 6.5003C29.3487 7.45294 28.1229 8.40557 27.0945 9.3582C25.7279 7.87949 24.3331 7.02638 22.9242 6.79889C21.7126 6.59983 20.7968 6.86998 20.2051 7.59512C19.9374 7.92214 19.7965 8.29182 19.7965 8.71838C19.7965 9.15915 19.9374 9.59992 20.2333 10.0265C20.9377 11.0502 22.3043 11.8322 24.319 12.3441C23.0792 12.0597 21.7971 11.9602 20.5009 12.0597C19.078 12.1592 17.7255 12.4863 16.4434 13.0266C16.1475 13.1403 15.9221 13.2825 15.7531 13.4389C15.5417 13.6379 15.4431 13.8654 15.4713 14.1072C15.4995 14.4342 15.7531 14.7185 16.218 14.9603C17.1337 15.4437 18.2327 15.7423 19.5288 15.856C20.0501 15.8987 20.7264 15.9129 21.5717 15.8987C19.3457 17.6333 17.5141 19.4675 16.0771 21.4296C14.2878 23.861 12.9635 26.5198 12.1323 29.4062C11.1179 32.9039 10.8784 36.558 11.3996 40.3401C12.0195 44.7905 13.6679 49.3262 16.373 53.9472C18.8667 57.6013 21.1772 58.8525 23.3046 57.6724C24.7698 56.7624 26.0519 55.6107 27.1508 54.2315C28.2497 52.8524 29.0669 51.3452 29.6304 49.6959C30.194 48.0607 30.4617 46.3545 30.4476 44.5772C30.4194 42.8284 30.1235 41.1364 29.5459 39.5155C30.3349 39.2169 31.0957 38.8756 31.8424 38.4917C33.9416 37.3827 35.7027 35.9751 37.1256 34.2547C38.619 32.4631 39.6475 30.4299 40.2111 28.1692C40.7605 26.008 40.6901 23.534 39.9997 20.7187C40.7464 21.9842 41.9581 23.1927 43.6346 24.3444C45.3112 25.4961 46.9877 26.2639 48.6361 26.6336C50.4676 27.0459 51.8765 26.8753 52.8627 26.1075C54.018 25.2117 54.4547 23.5908 54.1871 21.259C56.5258 26.6051 58.8927 30.4441 61.3159 32.7759C63.3306 34.7239 64.9367 35.6481 66.1484 35.577C67.36 35.5059 68.2053 35.2642 68.7125 34.8518C69.2197 34.4395 69.6424 33.7428 69.9946 32.7475C70.3468 31.7522 70.4736 30.8707 70.3609 30.1171C70.2482 29.3493 70.0368 28.4962 69.741 27.5578C73.8972 33.1741 78.1379 37.1979 82.4349 39.6292C86.6193 41.9895 91.0431 43.0701 95.7065 42.871C99.0455 42.6435 102.075 41.6909 104.822 40.0131C107.414 38.4349 109.513 36.359 111.12 33.7854C112.697 31.2404 113.627 28.5246 113.895 25.6099C114.191 22.5956 113.712 19.695 112.486 16.9366Z" fill="#381919"/>
<g opacity="0.49">
<path d="M69.2854 57.3231C66.1445 55.2738 62.3557 54.0455 57.9149 53.6552C53.4783 53.2478 49.6987 53.6305 46.6002 54.8096C43.4731 55.9996 41.9331 57.0668 41.9274 58.016C41.9417 58.9885 43.515 59.5386 46.6187 59.6771C49.7223 59.8155 53.4854 60.0135 57.9321 60.2774C62.3459 60.5693 66.1485 61.1248 69.3027 61.9892C72.4812 62.8598 74.0468 62.8229 74.0325 61.8503C74.0139 60.895 72.4463 59.3958 69.2854 57.3231Z" fill="url(#paint1_radial_26_16420)"/>
</g>
<path d="M25.3033 60.233L25.0216 56.9628C24.6271 54.9864 23.8663 53.2944 22.7251 51.901C21.7248 50.6783 20.5695 49.8536 19.2875 49.4128C19.1888 49.3844 19.1043 49.3559 19.0057 49.3275C17.5827 48.9152 16.2584 49.0431 15.0186 49.7256C13.6802 50.465 12.6517 51.8584 11.9472 53.9058C11.0737 56.4225 10.9751 58.7828 11.6514 60.9866C12.2995 63.0767 13.6097 64.7972 15.5821 66.1337C17.3432 67.129 19.062 67.0721 20.7527 65.9773C22.3447 64.9678 23.8522 63.0483 25.3033 60.233Z" fill="#F8AF89"/>
<path d="M25.0243 56.9621C24.6298 54.9857 23.869 53.2937 22.7278 51.9003C21.7275 50.6775 20.5722 49.8529 19.2901 49.4121C19.1915 49.3836 19.107 49.3552 19.0084 49.3268C17.5854 48.9144 16.2611 49.0424 15.0213 49.7249C13.6828 50.4642 12.6544 51.8577 11.9499 53.9051C11.0764 56.4218 10.9778 58.782 11.6541 60.9859C12.3021 63.076 13.6124 64.7964 15.5848 66.133C17.3459 67.1282 19.0647 67.0714 20.7554 65.9765C22.3474 64.967 23.8549 63.0476 25.306 60.2323C25.4328 61.5404 25.7146 62.8058 26.1513 64.0286" stroke="#E2936F" stroke-width="0.36883" stroke-miterlimit="3.4736" stroke-linecap="round" stroke-linejoin="round"/>
<path d="M17.6239 53.8401C16.7751 53.5849 15.6555 53.2751 14.283 52.947C16.0708 53.1293 17.5697 53.3662 18.7616 53.676C20.3508 54.0952 21.7052 54.6966 22.8429 55.4803C23.6375 56.0271 24.2515 56.665 24.6849 57.3757C25.1906 58.1959 25.3892 58.9978 25.2628 59.8179C24.0167 60.0913 22.879 60.2371 21.8497 60.2371C20.8023 60.2553 19.8271 60.0366 18.9241 59.581C18.1476 59.1983 17.6781 58.7062 17.5336 58.1412C17.4433 57.7402 17.4975 57.3393 17.7142 56.9383C17.9128 56.5556 18.2018 56.2458 18.581 56.0271C18.9061 55.8448 19.3034 55.699 19.7548 55.6261C20.098 55.5714 20.5133 55.535 21.019 55.535C20.1521 54.8424 19.0144 54.2592 17.6239 53.8401Z" fill="#E2936F"/>
<path d="M69.8341 56.5354C69.9891 55.2984 69.9327 54.2035 69.6509 53.2793C69.3833 52.3552 68.9747 51.8575 68.4252 51.7864C67.8758 51.7153 67.3686 52.0992 66.8755 52.9239C66.3824 53.7486 66.0583 54.7865 65.9034 56.0377C65.7484 57.2889 65.8047 58.3695 66.0724 59.2937C66.3401 60.2322 66.7487 60.7298 67.2981 60.7867C67.8476 60.8578 68.3548 60.4739 68.8479 59.6492C69.3551 58.8245 69.6791 57.7866 69.8341 56.5354ZM69.0029 53.8481C69.2142 53.8481 69.3833 54.0045 69.5242 54.3173C69.6791 54.6301 69.7496 55.014 69.7496 55.4548C69.7496 55.8955 69.6791 56.2652 69.5242 56.578C69.3833 56.8908 69.2001 57.0472 69.0029 57.0472C68.7915 57.0472 68.6225 56.8908 68.4675 56.578C68.3125 56.2652 68.2421 55.8813 68.2421 55.4405C68.2421 54.9998 68.3125 54.6159 68.4675 54.3031C68.6225 54.0045 68.8056 53.8481 69.0029 53.8481Z" fill="#21000D"/>
<path d="M69.5411 54.3171C69.4002 54.0043 69.2171 53.8479 69.0198 53.8479C68.8085 53.8479 68.6394 54.0043 68.4845 54.3171C68.3295 54.6299 68.259 55.0138 68.259 55.4546C68.259 55.8954 68.3295 56.2793 68.4845 56.5921C68.6394 56.9049 68.8085 57.0613 69.0198 57.0613C69.2312 57.0613 69.4002 56.9049 69.5411 56.5921C69.6961 56.2793 69.7665 55.9096 69.7665 55.4688C69.7665 55.0138 69.6961 54.6299 69.5411 54.3171Z" fill="#F5ECEC"/>
<path d="M69.7685 55.4571C69.7685 55.8979 69.698 56.2675 69.5431 56.5803C69.4022 56.8931 69.219 57.0495 69.0218 57.0495C68.8104 57.0495 68.6414 56.8931 68.4864 56.5803C68.3314 56.2675 68.261 55.8836 68.261 55.4429C68.261 55.0021 68.3314 54.6182 68.4864 54.3054C68.6414 53.9926 68.8104 53.8362 69.0218 53.8362C69.2331 53.8362 69.4022 53.9926 69.5431 54.3054C69.698 54.6324 69.7685 55.0163 69.7685 55.4571Z" stroke="white" stroke-width="0.245878" stroke-miterlimit="3.4736" stroke-linecap="round" stroke-linejoin="round"/>
<path d="M58.0392 56.539C58.1942 55.302 58.1378 54.2072 57.856 53.283C57.5883 52.3588 57.1798 51.8612 56.6303 51.7901C56.0808 51.719 55.5737 52.1029 55.0806 52.9275C54.5874 53.7522 54.2634 54.7902 54.1084 56.0414C53.9535 57.2926 54.0098 58.3732 54.2775 59.2974C54.5452 60.2358 54.9538 60.7335 55.5032 60.7903C56.0527 60.8614 56.5599 60.4775 57.053 59.6529C57.5602 58.8282 57.8842 57.7903 58.0392 56.539ZM57.2079 53.8517C57.4193 53.8517 57.5883 54.0082 57.7292 54.321C57.8842 54.6338 57.9546 55.0177 57.9546 55.4584C57.9546 55.8992 57.8842 56.2689 57.7292 56.5817C57.5883 56.8945 57.4052 57.0509 57.2079 57.0509C57.0107 57.0509 56.8276 56.8945 56.6726 56.5817C56.5176 56.2689 56.4472 55.885 56.4472 55.4442C56.4472 55.0034 56.5176 54.6195 56.6726 54.3067C56.8276 54.0081 57.0107 53.8517 57.2079 53.8517Z" fill="#21000D"/>
<path d="M57.7459 54.3208C57.6051 54.008 57.4219 53.8516 57.2247 53.8516C57.0274 53.8516 56.8443 54.008 56.6893 54.3208C56.5343 54.6336 56.4639 55.0175 56.4639 55.4582C56.4639 55.899 56.5343 56.2829 56.6893 56.5957C56.8443 56.9085 57.0133 57.0649 57.2247 57.0649C57.436 57.0649 57.6051 56.9085 57.7459 56.5957C57.9009 56.2829 57.9714 55.9132 57.9714 55.4725C57.9714 55.0175 57.9009 54.6336 57.7459 54.3208Z" fill="#F5ECEC"/>
<path d="M57.9731 55.4605C57.9731 55.9013 57.9026 56.2709 57.7476 56.5838C57.6068 56.8966 57.4236 57.053 57.2264 57.053C57.0291 57.053 56.846 56.8966 56.691 56.5838C56.536 56.2709 56.4656 55.8871 56.4656 55.4463C56.4656 55.0055 56.536 54.6216 56.691 54.3088C56.846 53.996 57.015 53.8396 57.2264 53.8396C57.4377 53.8396 57.6068 53.996 57.7476 54.3088C57.9026 54.6358 57.9731 55.0197 57.9731 55.4605Z" stroke="white" stroke-width="0.245878" stroke-miterlimit="3.4736" stroke-linecap="round" stroke-linejoin="round"/>
<path d="M46.2691 32.6945C44.7898 33.1495 43.5641 34.0595 42.592 35.4245C41.6058 36.8036 40.9718 38.5099 40.7041 40.5289C44.5644 35.8937 50.0308 34.5145 57.0893 36.4197C55.1309 34.6709 53.1867 33.4765 51.2565 32.8651C49.4673 32.268 47.8048 32.2111 46.2691 32.6945ZM81.6459 45.9034C81.8431 43.8702 81.6036 42.0645 80.9274 40.5004C80.2793 38.9506 79.2931 37.7989 77.9547 37.0169C76.5599 36.2207 74.9256 35.9079 73.0377 36.0927C71.023 36.2491 68.8815 36.96 66.5851 38.2255C73.883 37.9553 78.9127 40.5147 81.6459 45.9034Z" fill="#3C1925"/>
<path d="M43.2859 59.285C42.8351 59.6262 42.6378 60.1239 42.7083 60.7779C42.8773 60.4082 43.2436 60.0385 43.8354 59.6973C43.8776 59.6547 43.9199 59.612 43.9903 59.5693C44.413 59.3134 44.9202 59.2139 45.4978 59.285C45.047 59.0717 44.6243 58.9722 44.258 58.9722C43.8917 58.9722 43.5677 59.0717 43.2859 59.285ZM69.8995 63.9771C69.3218 63.5505 68.7301 63.3372 68.1384 63.323C68.5892 63.4936 69.1528 63.8491 69.8009 64.3752C70.3785 64.7733 70.8152 65.2567 71.1252 65.8112C71.0829 65.598 71.0266 65.3989 70.9561 65.2141C70.7448 64.7306 70.3926 64.3325 69.8995 63.9771Z" fill="#C47554"/>
<path d="M69.7891 64.3592C69.0705 65.5109 68.5211 66.3782 68.1407 66.9612C67.4785 67.9849 66.8727 68.8238 66.3373 69.4778C64.858 71.2694 63.3082 72.3073 61.6599 72.5917C59.6029 72.9613 57.236 72.2362 54.5592 70.4305C51.4878 68.3546 47.9093 64.7715 43.8376 59.6956" stroke="#C47554" stroke-width="0.36883" stroke-miterlimit="3.4736" stroke-linecap="round" stroke-linejoin="round"/>
<path d="M22.5294 100.149C22.5576 100.49 22.5999 100.846 22.6422 101.187C23.4734 107.543 26.9674 113.841 33.1523 120.112C35.2234 119.813 37.0972 119.301 38.8019 118.576C37.5339 116.031 36.0828 113.571 34.4767 111.197C32.4902 108.282 30.3064 105.552 27.9113 103.021C27.3337 102.979 26.7702 102.893 26.1925 102.751C25.9248 102.68 25.6712 102.609 25.4176 102.524C25.6712 102.609 25.9389 102.68 26.1925 102.751C26.7702 102.893 27.3337 102.979 27.9113 103.021C30.3064 105.552 32.4902 108.282 34.4767 111.197C36.0828 113.571 37.5339 116.031 38.8019 118.576C42.7468 116.898 45.7336 114.069 47.7482 110.116C41.352 101.258 35.0543 95.5566 28.8975 93.0399C24.0933 91.0636 21.9659 93.4381 22.5294 100.149Z" fill="#623A80"/>
<path d="M38.8152 118.575C37.1105 119.3 35.2226 119.812 33.1656 120.111C26.9807 113.84 23.4726 107.527 22.6414 101.186C22.5991 100.845 22.5568 100.489 22.5287 100.148C21.9651 93.4369 24.0784 91.0767 28.8827 93.053C35.0394 95.5697 41.3371 101.257 47.7475 110.115C45.7469 114.068 42.76 116.883 38.8152 118.575ZM38.8152 118.575C37.5472 116.03 36.0961 113.57 34.49 111.196C32.5035 108.281 30.3197 105.551 27.9246 103.02C27.347 102.978 26.7835 102.892 26.2058 102.75C25.9381 102.679 25.6845 102.608 25.4309 102.523M25.8536 100.916C26.558 101.598 27.2484 102.295 27.9246 103.006" stroke="#35175A" stroke-width="0.245878" stroke-miterlimit="3.4736" stroke-linecap="round" stroke-linejoin="round"/>
<path d="M28.9958 121.206L71.896 134.671L87.2808 89.4992L44.3244 76.1055L28.9958 121.206Z" fill="#6B2B2B"/>
<path d="M46.6465 73.957L48.6612 74.6963C50.6759 71.6109 50.6759 69.0374 48.6612 67.0042L46.6465 73.957Z" fill="#FAF6C6"/>
<path d="M44.3244 76.1026V73.1025L28.9958 118.786V121.189L44.3244 76.1026Z" fill="#844A49"/>
<path d="M109.756 68.8955L87.2848 89.498L71.8999 134.67L94.8645 113.712L109.756 68.8955Z" fill="#4D1312"/>
<path d="M106.71 69.3634L106.583 69.2354C105.442 68.1406 104.794 66.3348 104.639 63.8324C96.665 62.5527 89.7897 68.7093 84.0415 82.2879C79.9558 77.7096 74.7852 73.8706 68.558 70.7852C61.9222 67.3017 55.2864 66.0363 48.6506 67.0031C50.6653 69.0363 50.6653 71.6099 48.6506 74.6953L87.0706 87.179L106.71 69.3634Z" fill="#EEE1AC"/>
<path d="M108.384 67.8557L106.721 69.3629L87.0817 87.1785L48.6618 74.6948L46.6471 73.9554L44.3225 73.1023V76.1024L87.279 89.4961L109.75 68.8937L108.384 67.8557Z" fill="#844A48"/>
<path d="M88.1606 88.682L86.6108 86.7483L83.7227 117.275L85.8501 115.356L87.8929 117.204L88.1606 88.682Z" fill="#EE9821"/>
<path d="M46.4413 98.2975C47.0048 97.9136 47.033 97.5297 46.4976 97.1458C45.9622 96.7477 44.5252 96.3923 42.1583 96.051C39.7914 95.7098 38.4952 95.5249 38.2698 95.5107C38.0303 95.4823 37.8049 95.4112 37.5935 95.269C37.354 95.0984 37.2131 94.8567 37.185 94.5439C37.1427 94.3164 37.1286 94.0747 37.1004 93.7903C36.4805 93.8614 35.8747 94.1457 35.2548 94.6434C34.6208 95.1553 34.2686 95.7951 34.2263 96.5344C34.1841 97.1316 34.3531 97.7572 34.7054 98.3971C34.959 98.8663 35.3534 99.4066 35.8747 100.004C36.9032 101.198 37.9176 102.208 38.9038 103.018C40.0732 103.999 41.2566 104.753 42.4682 105.293C43.7362 105.876 43.6376 105.336 42.1724 103.701C40.7071 102.094 39.3405 100.828 38.0726 99.9326C39.2278 100.715 40.4535 101.34 41.7497 101.824C43.074 102.307 44.4125 102.606 45.7791 102.719C46.1595 102.734 46.4413 102.677 46.5962 102.563C46.7512 102.435 46.8357 102.293 46.8216 102.151C46.8076 101.994 46.723 101.824 46.554 101.653C46.3849 101.482 45.9622 101.198 45.3001 100.786C44.6379 100.373 43.7644 99.9326 42.6937 99.4492C41.6229 98.9658 40.2422 98.4113 38.5516 97.7999C43.2431 98.5108 45.8636 98.6814 46.4413 98.2975Z" fill="#F5AC89"/>
<path d="M99.7555 96.1344C98.5439 96.9165 97.6985 97.471 97.2336 97.7838C96.3601 98.381 95.6698 99.0208 95.1485 99.7033C94.9653 99.9308 94.8667 100.144 94.8244 100.315C94.7963 100.428 94.8104 100.556 94.8385 100.67C94.8808 100.798 94.9372 100.883 95.0217 100.94C95.1344 101.011 95.2471 101.04 95.388 101.026C95.4866 101.026 95.6134 100.997 95.7825 100.969C96.7123 100.741 97.614 100.428 98.4875 100.016C99.2906 99.6464 99.9105 99.2767 100.333 98.8928C100.925 98.3241 101.277 97.6985 101.39 97.016C101.418 96.7743 101.404 96.5468 101.333 96.3477C101.249 96.106 100.925 95.907 100.347 95.7505C100.15 95.8785 99.9527 96.0065 99.7555 96.1344ZM103.419 91.0016C103.672 90.5466 103.743 90.0632 103.616 89.5229C103.503 88.9684 103.235 88.5418 102.827 88.229C102.446 88.5987 102.291 89.139 102.348 89.8499C100.826 90.5182 99.4596 91.3144 98.2339 92.2386C97.7972 92.5656 97.5154 92.85 97.3886 93.0917C97.3041 93.2908 97.2759 93.4472 97.3181 93.5609C97.3886 93.7173 97.5577 93.8026 97.8253 93.8453C98.2198 93.8737 98.7411 93.7742 99.3751 93.5467C98.1776 94.3287 97.29 95.0538 96.7123 95.7505C96.5433 95.9212 96.4306 96.106 96.3742 96.2766C96.3038 96.5041 96.3178 96.689 96.4306 96.8312C96.6137 97.0586 96.9659 97.0729 97.4872 96.888C98.4875 96.5468 99.2201 96.2624 99.6991 96.0491H99.7132C99.7132 96.0491 99.7132 96.0349 99.7273 96.0349C99.9527 95.9354 100.164 95.8359 100.361 95.7363C100.389 95.7221 100.432 95.6937 100.474 95.6795C100.953 95.4235 101.362 95.1534 101.728 94.869C102.221 94.4709 102.545 94.087 102.7 93.6889C102.799 93.4329 102.841 93.177 102.799 92.9211C102.756 92.6367 102.658 92.4092 102.489 92.2386L102.362 92.0395C102.869 91.6841 103.221 91.3428 103.419 91.0016Z" fill="#F5AC89"/>
<defs>
<radialGradient id="paint0_radial_26_16420" cx="0" cy="0" r="1" gradientUnits="userSpaceOnUse" gradientTransform="translate(137.754 54.4471) rotate(22.0179) scale(8.57792 3.73048)">
<stop stop-color="#D23F41" stop-opacity="0.8078"/>
<stop offset="0.5176" stop-color="#DB5E61" stop-opacity="0.5686"/>
<stop offset="1" stop-color="#F0ACAD" stop-opacity="0.0588235"/>
</radialGradient>
<radialGradient id="paint1_radial_26_16420" cx="0" cy="0" r="1" gradientUnits="userSpaceOnUse" gradientTransform="translate(59.6076 59.8273) rotate(32.7908) scale(38.651 16.768)">
<stop stop-color="#D23F41" stop-opacity="0.8078"/>
<stop offset="0.5176" stop-color="#DB5E61" stop-opacity="0.5686"/>
<stop offset="1" stop-color="#F0ACAD" stop-opacity="0.0588235"/>
</radialGradient>
</defs>
</svg>
