<svg width="79" height="78" viewBox="0 0 79 78" fill="none" xmlns="http://www.w3.org/2000/svg">
<path d="M32.574 63.5437L11.7445 27.4659C9.81583 24.1254 12.2267 19.9497 16.084 19.9497L57.743 19.9497C61.6003 19.9497 64.0111 24.1254 62.0824 27.4659L41.2529 63.5437C39.3243 66.8842 34.5026 66.8842 32.574 63.5437Z" fill="#FAE7AC" stroke="black" stroke-width="2.00432"/>
<path d="M38.5872 67.5519L17.7577 31.4741C15.829 28.1336 18.2398 23.9579 22.0972 23.9579L63.7562 23.9579C67.6135 23.9579 70.0243 28.1336 68.0956 31.4741L47.2661 67.5519C45.3375 70.8924 40.5158 70.8924 38.5872 67.5519Z" fill="#FCDB6F" stroke="black" stroke-width="2.00432"/>
<path d="M60.9653 20.9523L67.9805 25.9631" stroke="black" stroke-width="2.00432" stroke-linecap="round"/>
<path d="M33.9067 65.0459L41.924 70.0567" stroke="black" stroke-width="2.00432" stroke-linecap="round"/>
</svg>
