<svg width="375" height="195" viewBox="0 0 375 195" fill="none" xmlns="http://www.w3.org/2000/svg">
<path d="M162.5 29.9998H153.5V75.9998H162.5V29.9998Z" fill="white"/>
<path d="M9.5 29.9998H0.5V75.9998H9.5V29.9998Z" fill="white"/>
<path d="M138.203 66.7998H131.5V39.1998H122.203V66.7998H115.5V75.9998H122.203H131.5H138.203H147.5V66.7998V29.9998H138.203V66.7998Z" fill="white"/>
<path d="M30.5233 67.1885H25.8587V48.5941H30.5233V67.1885ZM51.2943 29.9998V39.2969V67.1885H39.882V48.5941V39.2969H30.5233H25.8587H16.5V48.5941V67.1885V76.4857H25.8587H30.5233V90.9998H39.882V76.4857H51.2943H60.653H72.0653H81.424H86.0886H95.4473H100.141H109.5V67.1885V48.5941H100.141V67.1885H95.4473V48.5941H86.0886V67.1885H81.424V48.5941H72.0653V67.1885H60.653V39.2969H109.5V29.9998H60.653H51.2943Z" fill="white"/>
<path d="M0.5 107H23.9118V115.921H10.2647V130.867H21.9412V139.758H10.2647V156.079H24.5V165H0.5V107Z" fill="white"/>
<path d="M44.0729 128.047L50.1254 135.152C55.3846 139.859 57.5 145.59 57.5 152.199C57.5 158.719 54.0037 166 43.4265 166C36.287 166 29.5 161.701 29.5 153.31V146.058H39.1369V151.994C39.1369 154.099 39.5777 157.666 43.4265 157.666C46.1884 157.666 47.7162 155.503 47.7162 152.228C47.7162 148.222 46.1002 145.123 43.0446 141.994L36.1988 134.245C32.9082 131.058 29.9995 126.994 29.9995 119.362C29.9995 110.649 35.1118 106 43.3972 106C49.9491 106 57.0299 108.485 57.0299 118.924V125.678H47.7749V120.444C47.7749 116.614 46.5409 114.362 43.5441 114.362C40.6941 114.362 39.2251 115.941 39.2251 119.011C39.2545 121 39.6952 124.128 44.0729 128.047Z" fill="white"/>
<path d="M89.5 152.052C89.5 160.766 84.4101 166 75.9854 166C67.6484 166 62.5 160.766 62.5 152.14V119.918C62.5 111.204 67.6484 106 75.9269 106C84.4101 106 89.5 111.234 89.5 119.859V128.105H79.7589V118.602C79.7589 115.912 78.5303 114.333 75.9854 114.333C73.3819 114.333 72.2118 115.912 72.2118 118.602V153.368C72.2118 156.058 73.3527 157.637 75.9854 157.637C78.5303 157.637 79.7589 156.029 79.7589 153.368V141.906H89.5V152.052Z" fill="white"/>
<path d="M93.5 107H103.496L108.317 149.966H108.465L112.96 107H122.335L126.683 149.966H126.831L131.652 107H141.5L132.391 165H121.833L117.515 125.719H117.426L112.872 165H102.225L93.5 107Z" fill="white"/>
<path d="M159.239 145.403L156.231 114.634H155.942L152.559 145.403H159.239ZM150.245 165H140.5L149.465 107H162.535L171.5 165H161.437L160.222 153.681H151.489L150.245 165Z" fill="white"/>
<path d="M203.639 169.483C203.639 169.086 203.779 168.731 204.058 168.438C204.337 168.146 204.655 168 205.054 168C205.432 168 205.771 168.146 206.05 168.438C206.329 168.731 206.468 169.065 206.468 169.483C206.468 169.879 206.329 170.234 206.05 170.527C205.771 170.819 205.452 170.944 205.054 170.944C204.675 170.944 204.337 170.798 204.058 170.527C203.779 170.234 203.639 169.9 203.639 169.483ZM203.52 176.019C203.082 176.019 202.663 176.124 202.305 176.333C201.926 176.542 201.608 176.834 201.349 177.168C201.09 177.523 200.871 177.92 200.731 178.379C200.572 178.839 200.512 179.319 200.512 179.841C200.512 180.343 200.592 180.781 200.751 181.115C200.91 181.47 201.129 181.763 201.388 182.013C201.667 182.243 201.986 182.41 202.345 182.515C202.703 182.619 203.102 182.661 203.5 182.661C203.878 182.661 204.237 182.619 204.596 182.535C204.954 182.452 205.273 182.306 205.572 182.097C205.851 181.888 206.09 181.616 206.269 181.261C206.448 180.927 206.528 180.489 206.528 179.946C206.528 179.34 206.428 178.797 206.269 178.317C206.09 177.836 205.871 177.419 205.612 177.085C205.333 176.729 205.014 176.458 204.655 176.291C204.277 176.103 203.898 176.019 203.52 176.019ZM200.193 169.483C200.193 169.086 200.333 168.731 200.612 168.438C200.89 168.146 201.209 168 201.608 168C202.006 168 202.325 168.146 202.604 168.438C202.882 168.731 203.022 169.065 203.022 169.483C203.022 169.879 202.882 170.234 202.604 170.527C202.325 170.819 202.006 170.944 201.608 170.944C201.209 170.944 200.89 170.798 200.612 170.527C200.333 170.234 200.193 169.9 200.193 169.483ZM198.5 180.092C198.5 179.361 198.62 178.609 198.839 177.857C199.058 177.105 199.396 176.416 199.835 175.811C200.273 175.205 200.811 174.704 201.448 174.328C202.086 173.952 202.783 173.764 203.58 173.764C204.257 173.764 204.894 173.91 205.492 174.202C206.09 174.495 206.608 174.913 207.066 175.456C207.504 175.999 207.863 176.646 208.122 177.44C208.38 178.212 208.5 179.11 208.5 180.113C208.5 180.718 208.4 181.324 208.221 181.909C208.042 182.494 207.743 183.016 207.325 183.454C206.906 183.914 206.388 184.269 205.731 184.561C205.074 184.854 204.317 185 203.4 185C202.663 185 201.986 184.895 201.388 184.707C200.791 184.519 200.273 184.206 199.835 183.809C199.396 183.392 199.078 182.89 198.839 182.285C198.62 181.658 198.5 180.927 198.5 180.092Z" fill="white"/>
<path d="M222.415 184C221.678 184 221.043 183.838 220.531 183.534C220.02 183.23 219.528 182.683 219.017 181.893C218.812 182.379 218.566 182.764 218.239 183.048C217.931 183.331 217.563 183.554 217.174 183.676C216.785 183.817 216.376 183.898 215.946 183.939C215.516 183.979 215.065 184 214.635 184H210.5V181.771H215.372C216.13 181.771 216.724 181.67 217.133 181.488C217.543 181.305 217.747 181.022 217.747 180.657C217.747 180.313 217.645 179.989 217.481 179.644C217.297 179.3 217.072 178.935 216.806 178.53L213.919 174.296L216.007 173L219.283 178.348C219.651 178.935 219.958 179.462 220.224 179.887C220.491 180.313 220.757 180.677 221.002 180.941C221.248 181.204 221.473 181.407 221.698 181.549C221.924 181.69 222.169 181.751 222.415 181.751C223.131 181.751 223.5 182.116 223.5 182.825C223.5 183.27 223.418 183.574 223.234 183.736C223.07 183.919 222.804 184 222.415 184Z" fill="white"/>
<path d="M222.55 184C221.856 184 221.5 183.672 221.5 183.036C221.5 182.636 221.579 182.363 221.757 182.218C221.916 182.072 222.193 182 222.55 182H226.45C227.144 182 227.5 182.327 227.5 182.963C227.5 183.363 227.421 183.636 227.243 183.782C227.084 183.927 226.807 184 226.431 184H222.55Z" fill="white"/>
<path d="M226.546 184C225.855 184 225.5 183.672 225.5 183.036C225.5 182.636 225.599 182.363 225.757 182.218C225.914 182.072 226.191 182 226.566 182H230.454C231.145 182 231.5 182.327 231.5 182.963C231.5 183.363 231.421 183.636 231.243 183.782C231.086 183.927 230.809 184 230.454 184H226.546Z" fill="white"/>
<path d="M230.546 184C229.855 184 229.5 183.672 229.5 183.036C229.5 182.636 229.579 182.363 229.757 182.218C229.914 182.072 230.191 182 230.566 182H234.454C235.145 182 235.5 182.327 235.5 182.963C235.5 183.363 235.421 183.636 235.243 183.782C235.086 183.927 234.809 184 234.434 184H230.546Z" fill="white"/>
<path d="M234.546 184C233.855 184 233.5 183.672 233.5 183.036C233.5 182.636 233.579 182.363 233.757 182.218C233.934 182.072 234.191 182 234.566 182H238.454C239.145 182 239.5 182.327 239.5 182.963C239.5 183.363 239.421 183.636 239.243 183.782C239.066 183.927 238.809 184 238.434 184H234.546Z" fill="white"/>
<path d="M238.546 184C237.855 184 237.5 183.672 237.5 183.036C237.5 182.636 237.579 182.363 237.757 182.218C237.914 182.072 238.191 182 238.566 182H242.454C243.145 182 243.5 182.327 243.5 182.963C243.5 183.363 243.421 183.636 243.243 183.782C243.086 183.927 242.809 184 242.434 184H238.546Z" fill="white"/>
<path d="M242.578 184C241.866 184 241.5 183.626 241.5 182.9C241.5 182.443 241.581 182.132 241.764 181.966C241.947 181.8 242.212 181.717 242.598 181.717H253.437C253.437 180.534 253.294 179.537 252.969 178.728C252.664 177.919 252.257 177.254 251.728 176.756C251.2 176.258 250.61 175.885 249.898 175.656C249.207 175.428 248.455 175.304 247.661 175.304C247.133 175.304 246.584 175.345 245.994 175.449C245.404 175.553 244.916 175.656 244.55 175.76V173.581C244.916 173.477 245.384 173.353 245.974 173.207C246.563 173.083 247.214 173 247.926 173C249.288 173 250.447 173.228 251.423 173.685C252.4 174.141 253.193 174.764 253.843 175.573C254.494 176.383 254.962 177.296 255.267 178.354C255.572 179.413 255.734 180.513 255.755 181.696H257.422C258.134 181.696 258.5 182.07 258.5 182.796C258.5 183.253 258.419 183.564 258.236 183.73C258.053 183.896 257.788 183.979 257.402 183.979H242.578V184Z" fill="white"/>
<path d="M263.205 169.409C263.205 169.032 263.347 168.695 263.631 168.417C263.914 168.139 264.238 168 264.644 168C265.029 168 265.373 168.139 265.657 168.417C265.94 168.695 266.082 169.012 266.082 169.409C266.082 169.786 265.94 170.124 265.657 170.402C265.373 170.68 265.049 170.799 264.644 170.799C264.259 170.799 263.914 170.66 263.631 170.402C263.347 170.124 263.205 169.806 263.205 169.409ZM259.701 169.409C259.701 169.032 259.843 168.695 260.126 168.417C260.41 168.139 260.734 168 261.139 168C261.544 168 261.868 168.139 262.152 168.417C262.436 168.695 262.577 169.012 262.577 169.409C262.577 169.786 262.436 170.124 262.152 170.402C261.868 170.68 261.544 170.799 261.139 170.799C260.754 170.799 260.41 170.66 260.126 170.402C259.843 170.124 259.701 169.806 259.701 169.409ZM257.574 184C256.865 184 256.5 183.642 256.5 182.948C256.5 182.511 256.601 182.213 256.763 182.054C256.925 181.896 257.209 181.816 257.594 181.816H259.397C259.822 181.816 260.187 181.796 260.491 181.757C260.795 181.717 261.058 181.637 261.261 181.499C261.463 181.379 261.625 181.181 261.727 180.923C261.828 180.665 261.868 180.327 261.868 179.871V173.836H264.076V178.898C264.076 179.335 264.097 179.732 264.178 180.109C264.238 180.466 264.36 180.784 264.542 181.022C264.725 181.26 264.968 181.459 265.272 181.598C265.576 181.737 265.96 181.816 266.426 181.816C267.156 181.816 267.5 182.173 267.5 182.868C267.5 183.305 267.419 183.603 267.237 183.762C267.075 183.92 266.791 184 266.406 184C265.697 184 265.15 183.841 264.704 183.503C264.279 183.166 263.995 182.769 263.854 182.273C263.529 182.987 263.023 183.464 262.334 183.662C261.645 183.881 260.795 183.98 259.782 183.98H257.574V184Z" fill="white"/>
<path d="M278.722 179.097C278.722 178.728 278.66 178.341 278.537 177.992C278.413 177.624 278.249 177.314 278.023 177.042C277.797 176.771 277.509 176.558 277.18 176.383C276.851 176.209 276.481 176.132 276.028 176.132C275.267 176.132 274.568 176.442 273.931 177.081C273.293 177.721 272.697 178.825 272.121 180.434C272.8 180.841 273.458 181.17 274.136 181.422C274.794 181.674 275.473 181.79 276.172 181.79C276.933 181.79 277.55 181.597 278.023 181.17C278.496 180.763 278.722 180.085 278.722 179.097ZM283.39 183.651C282.69 183.651 282.094 183.515 281.601 183.263C281.087 183.011 280.675 182.566 280.367 181.965V181.907C280.017 182.566 279.524 183.07 278.845 183.438C278.167 183.806 277.344 184 276.337 184C275.473 184 274.609 183.864 273.746 183.593C272.861 183.321 271.977 182.856 271.031 182.197C270.805 182.546 270.558 182.818 270.312 183.011C270.065 183.205 269.798 183.36 269.53 183.457C269.263 183.554 268.975 183.612 268.687 183.632C268.399 183.651 268.091 183.67 267.762 183.67H266.59C265.87 183.67 265.5 183.321 265.5 182.643C265.5 182.217 265.582 181.926 265.767 181.771C265.952 181.616 266.22 181.539 266.61 181.539H267.721C267.947 181.539 268.173 181.519 268.399 181.461C268.646 181.403 268.872 181.287 269.119 181.112C269.366 180.938 269.592 180.705 269.818 180.395C270.044 180.104 270.25 179.697 270.456 179.174C270.887 178.07 271.319 177.178 271.792 176.5C272.265 175.821 272.738 175.298 273.211 174.911C273.705 174.542 274.177 174.29 274.692 174.174C275.185 174.058 275.699 174 276.193 174C276.892 174 277.529 174.135 278.105 174.368C278.681 174.62 279.195 174.969 279.627 175.414C280.058 175.88 280.387 176.422 280.634 177.042C280.881 177.663 281.004 178.38 281.004 179.155C281.004 179.271 281.004 179.387 280.984 179.504C280.984 179.62 280.963 179.717 280.963 179.833C281.148 180.376 281.416 180.802 281.765 181.093C282.115 181.383 282.67 181.519 283.41 181.519C284.13 181.519 284.5 181.868 284.5 182.546C284.5 182.973 284.418 183.263 284.233 183.418C284.068 183.573 283.78 183.651 283.39 183.651Z" fill="white"/>
<path d="M283.646 184C282.889 184 282.5 183.639 282.5 182.939C282.5 182.498 282.608 182.198 282.781 182.038C282.976 181.878 283.257 181.797 283.668 181.797H288.143V165H290.5V184H283.646Z" fill="white"/>
<path d="M295.5 165H293.5V184H295.5V165Z" fill="white"/>
<path d="M312.714 179.357C312.714 178.97 312.652 178.562 312.528 178.196C312.403 177.809 312.237 177.483 312.009 177.198C311.781 176.912 311.491 176.688 311.159 176.505C310.827 176.322 310.433 176.24 309.998 176.24C309.23 176.24 308.484 176.587 307.758 177.299C307.032 178.012 306.472 179.153 306.058 180.762C306.742 181.19 307.406 181.536 308.09 181.801C308.753 182.066 309.438 182.188 310.143 182.188C310.91 182.188 311.532 181.984 312.009 181.536C312.486 181.108 312.714 180.395 312.714 179.357ZM317.422 184.143C316.737 184.143 316.115 184.001 315.618 183.736C315.099 183.471 314.684 183.003 314.373 182.371V182.31C314.021 183.003 313.523 183.532 312.839 183.919C312.175 184.306 311.325 184.51 310.329 184.51C309.459 184.51 308.567 184.347 307.675 184.021C306.783 183.695 305.871 183.186 304.938 182.514C304.44 182.656 304.046 182.819 303.777 183.023C303.486 183.227 303.279 183.471 303.134 183.817C303.009 184.143 302.906 184.551 302.864 185.019C302.823 185.508 302.823 186.078 302.823 186.771V195H300.5V186.71C300.5 185.814 300.541 184.999 300.624 184.306C300.707 183.614 300.873 183.003 301.143 182.453C301.412 181.923 301.765 181.475 302.242 181.088C302.719 180.701 303.362 180.375 304.171 180.11C304.399 178.909 304.73 177.931 305.207 177.157C305.684 176.383 306.182 175.751 306.763 175.283C307.323 174.814 307.903 174.489 308.505 174.285C309.106 174.102 309.645 174 310.143 174C310.827 174 311.449 174.142 312.051 174.387C312.652 174.652 313.15 175.018 313.585 175.487C314.021 175.976 314.353 176.546 314.601 177.198C314.85 177.849 314.975 178.603 314.975 179.418C314.975 179.54 314.975 179.662 314.954 179.784C314.933 179.907 314.933 180.008 314.933 180.131C315.12 180.701 315.389 181.149 315.721 181.455C316.074 181.76 316.634 181.903 317.401 181.903C318.127 181.903 318.5 182.269 318.5 182.982C318.5 183.43 318.417 183.736 318.23 183.899C318.085 184.062 317.816 184.143 317.422 184.143Z" fill="white"/>
<path d="M316.546 184C315.855 184 315.5 183.672 315.5 183.036C315.5 182.636 315.579 182.363 315.757 182.218C315.934 182.072 316.191 182 316.566 182H320.454C321.145 182 321.5 182.327 321.5 182.963C321.5 183.363 321.421 183.636 321.243 183.782C321.086 183.927 320.809 184 320.434 184H316.546Z" fill="white"/>
<path d="M320.546 184C319.855 184 319.5 183.672 319.5 183.036C319.5 182.636 319.579 182.363 319.757 182.218C319.914 182.072 320.191 182 320.566 182H324.454C325.145 182 325.5 182.327 325.5 182.963C325.5 183.363 325.421 183.636 325.243 183.782C325.066 183.927 324.809 184 324.434 184H320.546Z" fill="white"/>
<path d="M324.55 184C323.856 184 323.5 183.672 323.5 183.036C323.5 182.636 323.579 182.363 323.757 182.218C323.916 182.072 324.193 182 324.55 182H328.45C329.144 182 329.5 182.327 329.5 182.963C329.5 183.363 329.421 183.636 329.243 183.782C329.084 183.927 328.807 184 328.431 184H324.55Z" fill="white"/>
<path d="M328.546 184C327.855 184 327.5 183.672 327.5 183.036C327.5 182.636 327.579 182.363 327.757 182.218C327.934 182.072 328.191 182 328.566 182H332.454C333.145 182 333.5 182.327 333.5 182.963C333.5 183.363 333.421 183.636 333.243 183.782C333.066 183.927 332.809 184 332.434 184H328.546Z" fill="white"/>
<path d="M332.55 184C331.856 184 331.5 183.672 331.5 183.036C331.5 182.636 331.579 182.363 331.757 182.218C331.916 182.072 332.193 182 332.569 182H336.45C337.163 182 337.5 182.327 337.5 182.963C337.5 183.363 337.421 183.636 337.243 183.782C337.064 183.927 336.807 184 336.431 184H332.55Z" fill="white"/>
<path d="M348.309 179.126C348.309 178.757 348.249 178.369 348.129 178.019C348.01 177.65 347.851 177.34 347.631 177.068C347.412 176.796 347.133 176.582 346.815 176.408C346.496 176.233 346.137 176.155 345.699 176.155C344.962 176.155 344.285 176.466 343.667 177.107C343.05 177.747 342.472 178.854 341.914 180.466C342.572 180.874 343.209 181.204 343.867 181.456C344.504 181.708 345.161 181.825 345.839 181.825C346.576 181.825 347.173 181.631 347.631 181.204C348.09 180.796 348.309 180.116 348.309 179.126ZM336.556 183.689C335.859 183.689 335.5 183.34 335.5 182.66C335.5 182.233 335.58 181.942 335.759 181.786C335.938 181.631 336.197 181.553 336.576 181.553H337.651C337.871 181.553 338.09 181.534 338.309 181.475C338.528 181.417 338.767 181.301 338.986 181.126C339.205 180.951 339.444 180.718 339.663 180.408C339.882 180.116 340.102 179.709 340.281 179.184C340.699 178.077 341.118 177.184 341.576 176.505C342.034 175.825 342.492 175.301 342.95 174.912C343.428 174.543 343.886 174.291 344.384 174.175C344.882 174.058 345.361 174 345.839 174C346.516 174 347.133 174.136 347.691 174.369C348.269 174.621 348.747 174.971 349.165 175.417C349.584 175.883 349.902 176.427 350.141 177.048C350.38 177.67 350.5 178.388 350.5 179.165C350.5 180.641 350.141 181.825 349.404 182.699C348.667 183.573 347.532 184 346.018 184C345.181 184 344.345 183.864 343.508 183.592C342.671 183.32 341.795 182.854 340.878 182.194C340.659 182.543 340.42 182.815 340.181 183.009C339.942 183.204 339.683 183.359 339.424 183.456C339.165 183.553 338.886 183.611 338.608 183.631C338.329 183.65 338.03 183.67 337.711 183.67H336.556V183.689Z" fill="white"/>
<path d="M362.52 167.916H357.692V166.722H358.884C358.626 166.324 358.507 165.866 358.507 165.368C358.507 164.99 358.566 164.632 358.685 164.353C358.805 164.055 358.983 163.816 359.182 163.617C359.401 163.418 359.639 163.278 359.917 163.159C360.195 163.059 360.474 163 360.752 163C361.05 163 361.308 163.02 361.526 163.059C361.745 163.099 361.904 163.159 362.023 163.239V164.453C361.666 164.294 361.288 164.214 360.891 164.214C360.474 164.214 360.156 164.333 359.977 164.592C359.778 164.851 359.679 165.11 359.679 165.408C359.679 165.747 359.798 166.065 360.017 166.324C360.235 166.583 360.593 166.702 361.05 166.702H362.54V167.916H362.52ZM368.5 165.11V184H353.5V181.81H359.44V168.971H361.606V181.81H366.334V165.11H368.5Z" fill="white"/>
<path d="M374.5 165H372.5V184H374.5V165Z" fill="white"/>
<path d="M240.226 5.99976C235.638 9.98693 232.566 15.1075 229.023 19.7221C226.094 23.5676 222.059 25.9356 218.577 29.1537C220.441 25.3082 220.789 20.9162 223.165 17.2124C227.261 10.8775 233.979 8.40825 240.226 5.99976ZM215.095 19.884C217.491 17.2529 220.174 15.2087 223.349 14.3991C217.164 18.6089 217.491 26.138 215.586 32.4325C214.89 34.7398 213.866 36.8852 213.333 39.2734L213.497 39.3949C214.521 36.703 216.303 34.1326 218.597 31.9872C222.96 27.9191 229.514 25.4701 231.665 19.5197C231.562 27.7774 224.455 34.0516 217.942 38.9091C215.033 41.0747 212.555 44.0095 211.039 47.0656C211.285 44.7785 211.408 42.8963 211.203 40.6497C210.507 33.4445 210.077 25.3689 215.095 19.884ZM202.56 44.5357C202.56 37.2292 205.448 31.2586 209.749 25.8142C209.872 25.7535 209.974 25.632 210.138 25.6523C205.386 32.7968 209.708 41.8236 209.094 49.9396L208.459 58.258C208.561 58.3187 208.561 58.5616 208.766 58.4807C209.053 57.5496 209.135 56.5781 209.298 55.6067C210.445 48.9074 216.406 44.2321 221.465 39.496C222.673 38.3829 223.533 37.0471 224.107 35.6303C223.677 38.9698 222.755 42.3903 221.219 45.4262C217.327 53.1982 209.81 59.4926 208.459 68.3373C207.803 59.8569 202.56 53.5625 202.56 44.5357ZM198.955 54.9185C199.488 52.6315 199.897 50.2634 200.901 48.1788C198.996 57.833 205.489 64.8156 207.721 73.1543C208.561 76.3116 208.848 79.6511 210.138 82.5858C210.261 82.6466 210.364 82.5251 210.425 82.4442C207.23 73.5388 211.92 65.3216 216.508 58.3187C217.717 56.4769 218.29 54.3316 218.864 52.166C219.355 56.1936 218.495 60.8487 217.737 64.9978C216.774 70.341 214.911 75.3604 213.436 80.5214C212.473 83.7395 212.719 87.3826 213.231 90.7626L212.76 90.3983C209.339 84.1645 202.601 79.3071 200.573 72.5268C198.955 67.1027 197.829 60.8284 198.955 54.9185ZM198.648 73.7817C199.406 84.0228 210.425 89.4875 215.689 97.9071C216.815 99.7084 217.962 101.57 219.601 103.007C219.355 101.915 218.433 100.943 217.942 99.8703C216.262 96.2677 215.504 92.0781 215.914 87.7874C216.426 82.5656 218.638 77.7081 217.778 72.203C222.305 81.8775 220.85 93.9604 223.472 104.404C224.045 106.711 225.479 108.735 226.36 110.941C221.915 107.602 216.078 104.627 211.183 100.822C206.451 97.138 202.355 92.827 200.225 87.2004C198.668 83.1525 198.279 78.3356 198.648 73.7817ZM204.219 97.2999C209.421 108.917 222.468 109.828 231.132 116.952C232.791 118.308 234.409 119.563 236.232 120.393L236.335 120.292C234.327 118.511 232.156 116.365 230.62 114.139C225.664 107.015 227.302 97.2797 223.492 89.7506C226.974 93.8592 230.231 98.0893 232.218 102.785C235.433 110.354 236.54 118.997 243.749 124.745C235.925 122.194 226.933 122.7 219.888 118.147C212.473 113.37 205.612 105.821 204.219 97.2999ZM217.553 118.976C225.889 128.347 239.468 125.332 250.57 127.679C252.126 128.003 253.56 128.509 255.24 128.266C253.908 127.436 252.167 127.356 250.652 126.789C242.029 123.571 240.677 114.443 235.966 108.169C242.008 112.135 246.985 117.56 252.618 122.64C256.55 126.182 261.425 127.7 266.505 128.732C265.276 129.177 263.678 129.076 262.367 129.4C253.273 131.626 243.176 135.148 233.467 131.99C227.22 129.926 220.727 125.089 217.553 118.976ZM310.5 144.782C309.476 145.935 308.165 147.008 306.916 148C298.887 139.783 289.445 130.695 280.473 130.695C274.902 130.695 270.908 134.885 266.238 137.819C259.766 141.908 250.856 144.215 243.237 141.22C239.141 139.681 235.167 137.415 232.197 133.731C238.199 137.819 247.19 138.366 253.949 135.593C261.425 132.517 269.044 128.448 277.585 128.448C290.161 128.469 302.123 136.868 310.5 144.782Z" fill="white"/>
<path d="M332.774 5.99976C337.362 9.98693 340.434 15.1075 343.978 19.7221C346.907 23.5676 350.942 25.9356 354.424 29.1537C352.56 25.3082 352.212 20.9162 349.836 17.2124C345.739 10.8775 339.021 8.40825 332.774 5.99976ZM357.906 19.884C355.509 17.2529 352.826 15.2087 349.651 14.3991C355.837 18.6089 355.509 26.138 357.414 32.4325C358.11 34.7398 359.134 36.8852 359.667 39.2734L359.503 39.3949C358.479 36.703 356.718 34.1326 354.403 31.9872C350.04 27.9191 343.486 25.4701 341.336 19.5197C341.438 27.7774 348.545 34.0516 355.059 38.9091C357.987 41.0747 360.445 44.0095 361.981 47.0656C361.715 44.7785 361.613 42.8963 361.818 40.6497C362.473 33.4445 362.924 25.3689 357.906 19.884ZM370.441 44.5357C370.441 37.2292 367.553 31.2586 363.231 25.8142C363.108 25.7535 363.006 25.632 362.862 25.6523C367.614 32.7968 363.292 41.8236 363.907 49.9396L364.542 58.258C364.439 58.3187 364.439 58.5616 364.235 58.4807C363.948 57.5496 363.866 56.5781 363.702 55.6067C362.555 48.9074 356.595 44.2321 351.536 39.496C350.348 38.3829 349.467 37.0471 348.893 35.6303C349.303 38.9698 350.245 42.3903 351.781 45.4262C355.673 53.1982 363.19 59.4926 364.542 68.3373C365.197 59.8569 370.441 53.5625 370.441 44.5357ZM374.045 54.9185C373.513 52.6315 373.103 50.2634 372.1 48.1788C374.004 57.833 367.512 64.8156 365.279 73.1543C364.439 76.3116 364.153 79.6511 362.862 82.5858C362.739 82.6466 362.637 82.5251 362.555 82.4442C365.771 73.5388 361.06 65.3216 356.492 58.3187C355.284 56.4769 354.71 54.3316 354.137 52.166C353.645 56.1936 354.506 60.8487 355.263 64.9978C356.226 70.341 358.09 75.3604 359.544 80.5214C360.507 83.7395 360.261 87.3826 359.769 90.7626L360.241 90.3983C363.641 84.1645 370.379 79.3273 372.407 72.5268C374.045 67.1027 375.172 60.8284 374.045 54.9185ZM374.353 73.7817C373.595 84.0228 362.575 89.4875 357.312 97.9071C356.185 99.7084 355.038 101.57 353.399 103.007C353.645 101.915 354.567 100.943 355.059 99.8703C356.738 96.2677 357.496 92.0781 357.086 87.7874C356.574 82.5656 354.362 77.7081 355.222 72.203C350.675 81.8775 352.15 93.9604 349.528 104.404C348.955 106.711 347.521 108.735 346.64 110.941C351.085 107.602 356.943 104.627 361.818 100.822C366.549 97.138 370.645 92.827 372.776 87.2004C374.332 83.1525 374.721 78.3356 374.353 73.7817ZM368.782 97.2999C363.579 108.917 350.532 109.828 341.868 116.952C340.209 118.308 338.57 119.563 336.768 120.393L336.686 120.292C338.693 118.511 340.844 116.365 342.401 114.139C347.357 107.015 345.698 97.2797 349.528 89.7506C346.046 93.8592 342.79 98.0893 340.803 102.785C337.587 110.354 336.481 118.997 329.272 124.745C337.096 122.194 346.087 122.7 353.133 118.147C360.527 113.37 367.389 105.821 368.782 97.2999ZM355.448 118.976C347.132 128.347 333.532 125.332 322.431 127.679C320.874 128.003 319.42 128.509 317.761 128.266C319.092 127.436 320.833 127.356 322.349 126.789C330.972 123.571 332.323 114.443 337.034 108.169C330.992 112.135 326.015 117.56 320.362 122.64C316.45 126.182 311.555 127.7 306.475 128.732C307.683 129.177 309.281 129.076 310.592 129.4C319.686 131.626 329.804 135.148 339.492 131.99C345.78 129.926 352.273 125.089 355.448 118.976ZM262.5 144.782C263.524 145.935 264.835 147.008 266.084 148C274.113 139.783 283.556 130.695 292.527 130.695C298.077 130.695 302.092 134.885 306.762 137.819C313.234 141.908 322.144 144.215 329.763 141.22C333.86 139.681 337.833 137.415 340.803 133.731C334.802 137.819 325.81 138.366 319.051 135.593C311.555 132.517 303.956 128.448 295.415 128.448C282.818 128.469 270.877 136.868 262.5 144.782Z" fill="white"/>
<path d="M342.311 89.0249L340.968 88.292C338.097 94.1958 334.311 99.5703 329.791 104.212L321.913 96.3334C325.781 92.3636 328.895 87.8238 331.196 82.9582L329.852 82.2253C327.572 87.0705 324.518 91.4678 320.854 95.2747L313.708 88.1291C316.782 84.9329 319.205 81.3092 320.956 77.3801L319.632 76.6473C317.902 80.5153 315.541 84.0372 312.629 87.0705L304.73 79.1716C306.929 76.8508 308.619 74.1636 309.779 71.2728L308.436 70.5399C307.336 73.3696 305.708 75.9347 303.672 78.113L296.506 70.9471C298.562 68.667 299.743 65.8169 299.906 62.7632H310.044C309.962 65.5115 309.392 68.1377 308.456 70.5602L309.8 71.2931C310.858 68.6059 311.469 65.7354 311.55 62.7632H322.727C322.625 67.7101 321.526 72.3925 319.632 76.6676L320.935 77.3598C322.971 72.7996 324.091 67.8527 324.193 62.7428H334.311C334.209 69.7052 332.6 76.2808 329.832 82.2253L331.175 82.9582C334.107 76.7083 335.715 69.8477 335.817 62.7428H346.994C346.892 71.9039 344.734 80.556 340.968 88.3123L342.311 89.0249C346.342 80.6985 348.5 71.4967 348.5 61.9692C348.5 53.8668 346.953 46.0086 344.001 38.7205L342.617 39.3109C345.406 46.1918 346.892 53.6021 346.994 61.216H335.797C335.715 55.129 334.514 49.2252 332.315 43.7285L330.931 44.3189C333.048 49.6323 334.188 55.3325 334.29 61.216H324.193C324.111 56.7372 323.236 52.3806 321.648 48.3294L320.284 48.9198C321.79 52.8082 322.605 56.9612 322.707 61.2363H311.53C311.449 58.5084 310.94 55.8415 310.003 53.3375L308.639 53.9278C309.494 56.2486 309.962 58.712 310.044 61.2363H299.906C299.743 58.1826 298.562 55.3325 296.506 53.0525L303.672 45.8865C305.891 48.2276 307.56 50.9759 308.639 53.9482L310.003 53.3578C308.843 50.2227 307.072 47.3319 304.73 44.8279L312.629 36.929C316.009 40.4306 318.574 44.5021 320.284 48.9402L321.648 48.3498C319.877 43.7489 317.19 39.5144 313.668 35.8704L320.834 28.7044C325.272 33.2646 328.671 38.578 330.951 44.3393L332.336 43.7489C329.974 37.8247 326.473 32.3485 321.892 27.6458L329.791 19.7266C335.39 25.4471 339.705 32.1042 342.596 39.3109L343.981 38.7205C340.906 31.1066 336.306 24.1035 330.32 18.1183C324.315 12.1127 317.291 7.51182 309.637 4.41742L309.087 5.82212C316.314 8.7333 322.971 13.0492 328.712 18.6476L320.813 26.5465C316.192 22.0677 310.818 18.5865 304.995 16.2454L304.445 17.6297C310.064 19.9098 315.256 23.2892 319.755 27.6254L312.589 34.7914C309.107 31.4527 305.097 28.8469 300.74 27.0758L300.191 28.4601C304.344 30.1702 308.191 32.6538 311.53 35.85L303.631 43.7489C301.412 41.652 298.867 40.003 296.119 38.863L295.569 40.2473C298.135 41.3263 300.496 42.8531 302.573 44.8075L295.407 51.9735C293.126 49.9377 290.276 48.7569 287.223 48.5941V38.4558C290.134 38.5373 292.964 39.1684 295.59 40.2677L296.139 38.8834C293.35 37.7026 290.337 37.0511 287.243 36.9697V25.7932C291.763 25.895 296.16 26.8111 300.231 28.4805L300.781 27.0961C296.526 25.3453 291.966 24.4089 287.243 24.3071V14.1689C293.249 14.2503 299.071 15.4514 304.486 17.6501L305.036 16.2657C299.458 14.006 293.452 12.7642 287.263 12.6827V1.50624C294.877 1.58767 302.267 3.09416 309.128 5.86283L309.677 4.45814C302.41 1.5266 294.572 -0.000244141 286.51 -0.000244141C276.535 -0.000244141 267.129 2.38163 258.762 6.57536L259.434 7.87826C267.516 3.82704 276.453 1.62839 285.757 1.50624V12.6827C278.184 12.8049 271.018 14.6371 264.646 17.7926L265.318 19.0955C271.608 15.9807 278.55 14.291 285.757 14.1689V24.2867C280.118 24.3885 274.784 25.7525 270.02 28.0733L270.692 29.3762C275.334 27.1368 280.444 25.8747 285.737 25.7729V36.9494C282.235 37.0511 278.896 37.8858 275.883 39.2905L276.576 40.6138C279.426 39.2905 282.54 38.5373 285.757 38.4558V48.5941C284.189 48.6755 282.683 49.0419 281.299 49.6323L281.97 50.9352C283.395 50.3652 284.922 50.0598 286.49 50.0598C289.666 50.0598 292.679 51.3017 294.918 53.541C297.178 55.8008 298.42 58.7934 298.42 61.9692C298.42 68.5448 293.065 73.8989 286.49 73.8989C283.294 73.8989 280.301 72.6571 278.062 70.3974C275.802 68.1377 274.58 65.1451 274.58 61.9692C274.58 58.7934 275.822 55.7804 278.062 53.541C279.202 52.401 280.525 51.5256 281.97 50.9352L281.299 49.6323C279.914 50.2023 278.652 51.0167 277.573 51.9938L270.407 44.8279C272.26 43.0771 274.357 41.6724 276.596 40.6341L275.904 39.3109C273.481 40.4509 271.282 41.9574 269.348 43.7692L261.45 35.85C264.218 33.1831 267.353 31.0252 270.712 29.3762L270.041 28.0733C266.478 29.8037 263.221 32.0838 260.411 34.8118L253.245 27.6458C256.869 24.1442 260.961 21.2738 265.338 19.0955L264.666 17.7926C260.065 20.0726 255.851 23.0653 252.207 26.6075L244.288 18.6883C248.828 14.2503 253.958 10.6266 259.475 7.85791L258.803 6.555C246.731 12.6217 236.898 22.5156 230.913 34.6286L232.216 35.3207C235.005 29.6409 238.689 24.3885 243.229 19.7266L251.148 27.6458C247.464 31.4527 244.39 35.8297 242.069 40.6545L243.372 41.3467C245.57 36.7254 248.543 32.4503 252.207 28.684L259.373 35.85C256.482 38.8426 254.1 42.3442 252.309 46.1715L253.612 46.8637C255.281 43.2196 257.561 39.8605 260.411 36.8883L268.31 44.8075C266.295 46.9451 264.646 49.4491 263.465 52.2178L264.768 52.9303C265.847 50.3449 267.374 47.963 269.348 45.8661L276.514 53.0321C274.54 55.2307 273.298 58.0809 273.115 61.216H262.976C263.058 58.3252 263.669 55.5158 264.748 52.91L263.445 52.1974C262.264 54.9865 261.572 58.0198 261.47 61.1956H250.293C250.395 56.1672 251.515 51.3017 253.571 46.8433L252.268 46.1511C250.131 50.752 248.909 55.8415 248.807 61.1956H238.689C238.791 54.2129 240.4 47.454 243.331 41.3263L242.028 40.6341C239.015 46.884 237.285 53.8464 237.183 61.216H226.006C226.129 52.0956 228.246 43.2807 232.175 35.3004L230.872 34.6082C226.8 42.8531 224.5 52.1567 224.5 61.9489C224.5 67.9544 225.355 73.8175 227.004 79.4363L228.47 79.0699C226.943 73.8175 226.088 68.3209 226.027 62.7021H237.203C237.264 67.3844 237.997 71.965 239.321 76.3215L240.766 75.9551C239.463 71.7003 238.771 67.2419 238.689 62.6817H248.807C248.868 66.3869 249.5 70.0106 250.599 73.4714L252.044 73.105C250.965 69.7867 250.375 66.2647 250.293 62.6817H261.47C261.551 65.3486 262.04 67.9137 262.915 70.3567L264.361 69.9902C263.506 67.6694 263.038 65.2061 262.956 62.6817H273.094C273.257 65.7354 274.438 68.6059 276.494 70.8656L269.328 78.0316C267.109 75.6701 265.44 72.9421 264.361 69.9902L262.915 70.3567C264.055 73.5732 265.867 76.5455 268.269 79.0902L260.371 86.9891C256.523 82.9786 253.714 78.2352 252.044 73.0846L250.599 73.4511C252.329 78.8663 255.281 83.854 259.332 88.0477L252.166 95.2137C246.812 89.6967 242.944 83.1007 240.766 75.9347L239.3 76.3623C241.56 83.7929 245.55 90.6128 251.108 96.3334L243.209 104.232C236.206 97.0662 231.218 88.4548 228.47 79.0902L227.004 79.4567C229.895 89.3099 235.208 98.3488 242.659 105.82C247.708 110.869 253.49 114.94 259.76 117.953L260.493 116.63C254.569 113.8 249.072 109.994 244.247 105.27L252.146 97.3716C256.258 101.362 260.941 104.538 266.01 106.858L266.743 105.555C261.796 103.316 257.215 100.201 253.205 96.313L260.371 89.147C263.73 92.3636 267.577 94.9083 271.751 96.6795L272.484 95.3765C268.432 93.6665 264.687 91.2439 261.429 88.1088L269.328 80.2099C271.873 82.6121 274.825 84.4036 278.041 85.564L278.795 84.2408C275.7 83.1618 272.85 81.4517 270.407 79.1513L277.573 71.9853C279.853 74.0211 282.703 75.2019 285.757 75.3851V85.5233C283.355 85.4622 281.014 85.0144 278.795 84.2408L278.041 85.564C280.484 86.4394 283.09 86.928 285.757 87.0094V98.1859C281.136 98.0841 276.657 97.1273 272.504 95.3765L271.771 96.6795C276.148 98.532 280.891 99.5703 285.777 99.6517V109.77C279.12 109.668 272.687 108.202 266.783 105.535L266.05 106.838C272.178 109.647 278.856 111.174 285.777 111.276V122.453C276.901 122.351 268.331 120.335 260.533 116.61L259.78 117.933C268.005 121.923 277.084 124 286.49 124C296.363 124 305.871 121.699 314.441 117.363L313.729 115.999C305.748 120.03 296.771 122.371 287.243 122.493V111.317C294.796 111.215 302.064 109.403 308.619 106.085L307.927 104.741C301.677 107.876 294.674 109.709 287.243 109.81V99.6924C292.903 99.5906 298.358 98.2266 303.285 95.7633L302.593 94.4197C297.951 96.7405 292.74 98.0841 287.243 98.2063V87.0298C290.846 86.928 294.328 86.0526 297.483 84.5054L296.791 83.1618C293.88 84.5868 290.663 85.4215 287.243 85.5233V75.3851C290.297 75.2222 293.147 74.0415 295.427 71.9853L302.593 79.1513C300.883 80.7596 298.928 82.1235 296.791 83.1618L297.483 84.5054C299.722 83.4061 301.799 81.981 303.672 80.2303L311.571 88.1291C308.945 90.6535 305.911 92.7911 302.613 94.4401L303.305 95.7837C306.685 94.094 309.84 91.8953 312.629 89.2081L319.775 96.3537C316.294 99.7331 312.304 102.563 307.927 104.762L308.619 106.105C313.057 103.866 317.169 100.975 320.834 97.4123L328.712 105.291C324.315 109.586 319.246 113.21 313.708 115.999L314.421 117.363C320.223 114.432 325.597 110.564 330.32 105.841C335.308 100.873 339.339 95.1933 342.311 89.0249Z" fill="white"/>
<path d="M289.5 48.0201L289.52 48.4667L289.887 48.4464V47.9998L289.5 48.0201Z" fill="white"/>
<path d="M289.632 46.9244H289.122V47.3111H289.632V46.9244Z" fill="white"/>
<path d="M288.225 46.7817L288.653 46.8426L288.714 46.4772L288.265 46.4163L288.225 46.7817Z" fill="white"/>
<path d="M287.408 46.5976L287.857 46.6585L287.898 46.2727L287.469 46.2118L287.408 46.5976Z" fill="white"/>
<path d="M284.735 46.1528H284.245V46.5395H284.735V46.1528Z" fill="white"/>
<path d="M283.143 46.9026L283.571 46.9635L283.632 46.598L283.204 46.5371L283.143 46.9026Z" fill="white"/>
<path d="M282.694 47.3487L283.184 47.4909L283.286 47.1254L282.776 46.9833L282.694 47.3487Z" fill="white"/>
<path d="M282.226 47.5739L282.287 47.9596L282.675 47.8987L282.593 47.5129L282.226 47.5739Z" fill="white"/>
<path d="M232.578 86.1716V86.8011H233.068V87.6132H233.456L233.394 86.6792L232.884 86.4762V86.1716H232.578Z" fill="white"/>
<path d="M236.148 90.2117L236.393 90.7802L236.903 91.4706L237.597 92.1203L237.842 91.6736L237.413 90.7193L236.964 90.3945L236.638 89.5214L235.72 89.0747L236.148 90.2117Z" fill="white"/>
<path d="M250.514 108.505L250.575 109.073L251.208 109.276L251.453 109.662L251.881 109.398L251.575 108.586L250.759 107.875L250.004 107.754L250.514 108.505Z" fill="white"/>
<path d="M284.551 51.5935H283.857L283.735 50.2128L284.123 49.9488V49.2585H281.939L281.878 48.5682L282.184 48.3651L281.674 48.1824L281.307 48.69L281.184 49.2585L280.551 49.3803V49.6849H280.123V50.5173L278.368 51.9792L274.858 51.8574C274.613 52.4259 273.981 51.7965 273.981 51.7965C273.858 51.4107 272.981 51.7965 272.981 51.7965C272.981 52.5071 271.797 51.4919 271.797 51.4919L269.614 49.9082C268.349 48.7712 266.471 50.2331 266.41 50.5376C266.471 51.4107 264.961 50.7204 264.961 50.7204C264.961 50.7204 263.717 50.3346 263.513 50.8422C263.329 51.3498 262.513 51.228 262.513 51.228L262.39 51.4716L261.758 51.5935L261.635 51.9792L260.88 52.1011L262.758 52.0401C263.268 51.9792 262.574 53.1163 262.247 53.0553L261.37 53.1163L261.064 53.4208H260.248L259.88 53.9284L258.697 53.8675C258.697 53.8675 258.003 54.436 258.064 54.6188C258.126 54.8218 257.942 55.3903 257.758 55.3903C257.575 55.3903 257.187 55.9588 257.309 56.1416C257.432 56.3243 256.942 56.974 256.942 56.974L256.82 57.6034L256.452 57.7253V59.4308L255.697 59.9384V60.6897L254.575 61.8876L254.697 62.9028L253.759 63.918L253.881 64.9332L253.31 65.1362L253.187 65.5829L252.942 66.9027L253.575 66.9636C253.881 66.8418 253.84 67.7961 253.575 67.9179C253.33 68.0397 252.636 68.3037 253.004 68.5473C253.391 68.8113 252.004 68.7301 252.004 68.3646C252.004 67.9788 251.249 67.6743 251.065 67.7961C250.881 67.9179 250.555 67.2276 250.555 67.2276C249.861 66.5372 247.739 67.2885 247.739 67.2885L247.433 68.3037C246.739 68.4255 246.311 69.5828 246.311 69.5828C245.739 69.7656 245.311 70.4559 245.494 70.659C245.678 70.8417 245.188 70.9026 245.188 70.9026V72.3036L244.882 72.7503L244.943 74.2731C245.331 74.2731 245.249 74.9634 245.249 74.9634C244.617 75.0243 244.739 75.8568 244.739 75.8568L243.433 76.3035L243.188 76.6893L241.556 76.6283L241.127 77.075L240.679 76.6283H237.536L237.414 76.3238L236.781 76.1817L236.72 75.4913L235.781 75.5522L235.597 75.938L234.598 75.9989C234.659 76.6283 233.598 77.5826 233.475 77.339C233.353 77.075 232.659 76.3847 232.986 76.2629C233.292 76.141 234.108 75.9989 234.108 75.9989V75.5522L231.782 75.4913L231.537 75.8771L230.598 75.938V76.9532L230.149 77.075C229.843 77.2578 230.21 77.9684 230.21 77.9684C230.659 78.4151 230.149 79.1054 230.149 79.1054C229.782 79.4912 230.455 80.1816 230.455 80.1816C230.965 80.3034 230.149 80.6892 230.149 80.6892C230.272 81.3186 230.659 81.5216 230.659 81.5216C230.272 82.151 230.904 82.4759 230.904 82.4759L230.965 83.552L231.394 83.7957V84.486L231.659 84.9327H232.659L232.598 83.349C231.72 82.3338 233.353 82.0901 233.414 82.4759C233.475 82.8617 234.169 83.0444 234.169 83.0444C234.292 83.9987 235.353 84.5672 235.679 83.6129C235.985 82.6586 236.25 83.2272 236.434 83.6738C236.618 84.1205 237.801 85.1966 237.801 85.1966H238.74L238.862 86.09C239.924 86.0291 240.23 86.1509 240.679 87.6128C241.127 89.0747 242.311 89.4605 242.311 89.4605L243.188 89.3996C243.188 88.6483 244.066 89.5214 244.066 89.9072C244.066 90.293 245.76 91.7346 245.76 91.7346L247.453 92.1203L249.025 93.3792L250.208 93.2574H250.718C251.024 92.1812 252.534 93.3183 252.657 93.704C252.779 94.0898 253.779 94.7192 253.922 94.3944C254.044 94.0695 254.738 94.2726 254.861 95.2269C254.983 96.1811 255.432 95.9781 255.432 95.9781L259.003 95.9172L260.248 94.8411L263.451 94.7802C265.084 94.7192 264.084 92.5061 263.758 92.5061C263.186 92.0594 263.941 90.232 263.941 90.232L259.37 85.9885C258.309 85.9885 259.248 84.4657 259.248 84.4657C259.982 83.8769 258.983 83.0647 258.983 83.0647C259.105 82.3135 258.534 81.4201 258.534 81.4201C257.411 80.6688 257.717 79.207 257.717 79.207V78.1917C256.779 77.3187 258.085 77.1765 258.085 77.1765C258.513 76.4253 257.779 75.8568 257.779 75.8568L257.717 75.0243L256.718 74.9025L256.595 71.9178L254.33 68.6895C253.902 68.5676 254.208 67.7961 254.208 67.7961C254.779 67.4712 254.085 66.72 254.085 66.72L254.024 65.319L255.35 65.1972L255.656 64.6896H256.289L256.228 63.0449C256.534 62.2328 257.289 62.6592 257.289 62.6592L258.166 62.7201L258.676 61.7658L258.799 60.9942L258.105 60.9333C257.35 60.4866 257.738 58.842 257.738 58.842C258.921 57.0755 260.309 58.0907 260.309 58.0907L261.186 58.0298C262.513 58.9232 261.309 60.5678 261.309 60.5678C261.044 60.9536 261.186 62.1516 261.186 62.1516L261.492 64.182L260.676 64.8723C259.982 65.2581 259.982 66.1515 260.737 66.3342C261.248 66.3951 261.044 67.593 260.289 66.7809C259.166 66.7809 260.921 67.7961 260.411 67.5321C261.533 68.1006 261.288 67.0245 261.288 67.0245L262.798 65.8266C263.37 65.3799 264.37 66.7809 264.37 66.9636C264.37 67.1464 266.88 67.0245 266.88 67.0245C267.573 67.4712 267.818 68.6082 267.818 68.6082C268.512 67.7149 269.94 68.5473 268.879 69.0549C269.879 69.6844 269.879 70.2529 269.879 70.2529C270.695 69.9889 270.695 70.6387 270.695 70.8214C270.695 71.0244 270.961 69.8671 270.961 69.8671C270.022 69.1768 272.206 68.9128 271.573 70.192L271.206 70.7605L271.838 71.2681L271.899 72.73C273.267 72.6081 272.899 70.9026 272.899 70.9026L273.532 70.7808C273.532 70.2123 273.981 70.5168 273.981 70.5168C273.532 68.3646 274.981 67.9788 274.981 67.9788C275.797 67.7961 275.858 66.0702 275.858 66.0702C275.287 65.8063 275.613 64.9332 276.225 65.6845C276.858 66.456 275.858 64.1617 275.858 64.1617L275.348 63.715L274.654 63.6541L274.593 62.9434H273.471L273.287 63.8368L272.838 63.9586L272.716 63.6947L272.532 64.385H271.41L271.348 63.6338L272.042 63.451L272.308 63.0652L272.491 62.05H273.307L274.369 61.7455C274.43 60.6694 275.001 60.913 275.001 60.913L275.368 61.2176L275.94 61.6643L276.001 62.05L275.613 62.2328L275.552 62.7404L275.736 63.4307H276.246C276.43 62.4155 277.756 62.4155 278.123 63.0449L278.491 62.1516C277.613 61.7049 278.47 61.0145 278.715 61.3394C278.96 61.644 279.552 60.5069 279.552 60.5069C279.552 60.5069 280.001 61.0754 279.552 60.3242C279.123 59.5729 279.858 59.1872 279.858 59.1872C279.735 58.4359 280.674 58.5577 280.674 58.5577L280.735 57.5425L279.858 57.4816C279.674 58.375 278.919 57.6035 279.307 57.4207C279.694 57.238 280.062 56.8522 280.062 56.8522V56.2228L280.449 56.101L280.511 55.4715H281.449L282.266 55.0857L282.449 54.7812L283.327 54.7203L284.592 53.5832L284.469 53.0756C283.714 53.0756 284.469 52.5071 284.469 52.5071L284.551 51.5935Z" fill="white"/>
<path d="M259.289 64.1418L258.166 64.02L258.228 64.4667H258.534C259.044 65.3601 258.595 67.5123 258.595 67.5123C258.595 67.5123 257.84 67.5732 257.717 67.1875C257.595 66.8017 257.268 68.0199 257.534 68.2027C257.799 68.4057 258.656 68.2027 258.717 68.893C258.779 69.5833 259.289 68.4463 259.289 68.4463V64.1418Z" fill="white"/>
<path d="M258.779 69.6436L258.146 69.2578V70.7806L259.167 72.1004L259.534 71.2273L259.657 70.6385L259.228 70.4557L259.289 69.5218L259.657 69.4405L259.718 69.0142L258.779 69.6436Z" fill="white"/>
<path d="M259.35 72.9322L259.289 73.4398L259.779 73.5008V72.8713L259.35 72.9322Z" fill="white"/>
<path d="M258.696 76.1606V76.6073L259.227 76.5464V76.0997L258.696 76.1606Z" fill="white"/>
<path d="M259.963 74.5983C260.105 74.5983 260.228 74.4765 260.228 74.3344C260.228 74.1923 260.105 74.0704 259.963 74.0704C259.82 74.0704 259.697 74.1923 259.697 74.3344C259.697 74.4765 259.82 74.5983 259.963 74.5983Z" fill="white"/>
<path d="M260.391 75.3901C260.534 75.3901 260.657 75.512 260.657 75.6541C260.657 75.7962 260.534 75.918 260.391 75.918C260.248 75.918 260.126 75.7962 260.126 75.6541C260.126 75.512 260.248 75.3901 260.391 75.3901Z" fill="white"/>
<path d="M260.412 68.1622C260.555 68.1622 260.677 68.2841 260.677 68.4262C260.677 68.5683 260.555 68.6901 260.412 68.6901C260.269 68.6901 260.146 68.5683 260.146 68.4262C260.146 68.2841 260.269 68.1622 260.412 68.1622Z" fill="white"/>
<path d="M280.98 62.7401L281.103 61.9888L281.144 61.4203L281.409 61.0346L282.164 60.7097V59.5118H281.797L281.735 59.0651L281.042 59.0042L280.919 59.329H280.593L280.531 59.8163H280.919L280.98 60.2021L280.715 60.466L280.593 60.7706L280.103 60.8924L278.96 61.9888L278.899 62.4964L278.593 62.9228L278.226 63.8771L276.899 63.938L276.654 65.0751L276.838 66.0294L277.96 66.476L278.103 65.8466L278.47 65.6436L278.532 65.0142L278.777 64.5675L279.164 64.1411L279.287 63.6335L279.899 63.2477L280.654 63.1259L280.98 62.7401Z" fill="white"/>
<path d="M283.49 63.3684V62.4953L283.368 61.6629L282.429 61.2162L281.735 61.8456L281.613 62.7187V63.2872L280.98 63.409L280.858 65.1146L280.348 65.2973L280.409 65.9267L279.715 66.1095L279.021 66.2922L278.899 67.1247L278.389 67.4292L278.123 68.2008L277.817 70.0281C277.817 70.0281 278.389 71.1043 278.695 70.5967C279.001 70.0891 279.511 70.0281 279.511 70.0281L279.695 69.5815L281.388 69.6424C281.511 68.952 282.327 69.1957 282.327 69.5205C282.327 69.8454 282.96 69.5815 282.96 69.5815L283.388 68.8911H284.082L284.143 68.1196L284.449 67.9368V66.7998C285.449 66.4749 285.327 65.5409 285.327 65.5409L285.572 65.2161L285.449 64.7694C284.939 64.5664 285.184 64.14 285.51 64.2618C285.816 64.3836 285.082 63.6933 285.082 63.6933C284.715 64.0181 284.388 63.3075 284.388 63.3075H283.49V63.3684Z" fill="white"/>
<path d="M284.49 71.0454C284.429 71.7967 283.49 72.0606 283.49 72.0606L282.797 71.8779L282.409 71.553L282.348 70.6799L282.899 70.619L283.021 71.0048L284.49 71.0454Z" fill="white"/>
<path d="M287.877 66.985C288.02 67.5332 288 66.1119 288.245 66.1525C288.49 66.2134 288.306 65.2592 288.306 65.2592L287.184 66.0916C287.735 66.1525 287.816 66.7211 287.877 66.985Z" fill="white"/>
<path d="M291.184 63.6946C291.449 64.2631 291.388 65.0956 292.306 65.7047C292.632 65.928 292.122 66.3341 291.796 66.1514C291.49 65.9686 290.612 64.5677 290.612 64.5677V63.7352C290.816 63.2479 291.082 63.4509 291.184 63.6946Z" fill="white"/>
<path d="M291.203 82.943L291.387 83.1258L291.57 83.4506L291.999 82.74L291.632 82.6182L291.203 82.943Z" fill="white"/>
<path d="M298.489 80.6875L298.693 81.0124L299.203 80.6875L298.999 80.3627L298.489 80.6875Z" fill="white"/>
<path d="M316.833 94.2114L317.404 94.4754L317.466 95.5515C318.221 96.3027 320.669 95.6733 320.669 95.4906C320.669 95.3078 320.547 93.1556 320.547 93.1556L320.241 92.8307L320.18 91.247C320.424 90.4146 318.976 89.2166 318.853 89.4806C318.731 89.7445 317.915 89.5415 317.915 89.8054C317.915 90.0491 317.404 91.3282 317.649 91.7749C317.915 92.2216 317.466 92.2216 317.404 92.648C317.343 93.0541 316.711 93.8256 316.833 94.2114Z" fill="white"/>
<path d="M315.466 91.6738C315.344 92.1611 314.915 92.425 314.65 92.2423C314.405 92.0596 314.956 92.5672 315.099 92.8108C315.221 93.0545 315.588 93.0545 315.731 92.8108C315.854 92.5469 315.793 91.9783 315.915 91.7347C316.017 91.4707 315.527 91.4098 315.466 91.6738Z" fill="white"/>
<path d="M312.976 80.0591H312.548V81.257H312.976V80.0591Z" fill="white"/>
<path d="M319.037 67.8775C318.752 67.512 320.282 66.8623 320.547 67.6135C320.792 68.3851 320.547 68.243 320.302 68.182C320.037 68.1211 319.405 68.3851 319.037 67.8775Z" fill="white"/>
<path d="M320.322 59.7771L320.996 59.8787L321.077 59.5132L320.383 59.3914L320.322 59.7771Z" fill="white"/>
<path d="M318.629 60.0412L318.16 60.3052L317.752 60.0412L317.548 60.3661L318.058 60.6909L318.14 60.7519L318.242 60.6909L318.629 60.4676L318.67 60.5894L319.017 60.4473L318.895 60.1427L318.813 59.9397L318.629 60.0412Z" fill="white"/>
<path d="M320.976 45.0768H320.037C320.037 45.0768 320.343 45.1987 319.486 44.3865C318.609 43.554 318.037 44.5692 318.037 44.5692L317.037 44.6911V45.7063L316.527 45.889L316.589 46.5184L317.282 46.4575C317.282 46.4575 317.282 47.2088 317.466 46.9042C317.65 46.5793 319.221 46.9651 319.098 47.7367C319.058 48.0412 320.67 48.8737 320.486 49.8889C321.302 50.0107 321.119 50.8432 321.119 50.8432L322.18 50.965L322.486 50.3356L322.812 50.3965V50.0107L322.119 49.828L321.996 47.7976L321.547 47.493L321.67 46.9854L321.18 46.8027L321.425 45.9702L320.976 45.0768Z" fill="white"/>
<path d="M323.731 51.5333L323.221 51.4724L322.099 51.6755L321.466 52.8734C321.466 52.8734 321.772 53.0561 322.037 53.5028C322.282 53.9495 322.425 56.5484 321.67 56.9748C320.915 57.4215 321.731 57.1575 321.731 57.1575L321.609 58.5585C321.792 59.1879 322.119 58.8834 322.303 58.5585C322.486 58.2337 322.67 58.1727 322.935 57.8682C323.18 57.5636 323.568 56.9748 323.629 56.5281C323.69 56.0814 323.996 55.3911 323.813 55.2084C323.629 55.0256 323.996 54.1322 323.996 54.1322C323.996 54.1322 324.241 53.6246 323.996 53.117C323.751 52.6094 324.057 52.0409 324.241 51.777L323.731 51.5333Z" fill="white"/>
<path d="M324.485 54.1099L324.873 54.1708L324.934 53.6632L324.547 53.6226L324.485 54.1099Z" fill="white"/>
<path d="M324.139 55.6938L324.465 55.8765L324.649 55.4907L324.322 55.308L324.139 55.6938Z" fill="white"/>
<path d="M323.914 50.8424L323.669 50.2739C323.669 50.2739 323.669 49.7663 323.792 49.5227C323.914 49.2587 323.547 49.0151 323.363 48.9542C323.18 48.8933 323.241 48.3857 323.18 48.1217C323.118 47.8781 322.67 47.675 322.67 47.675C322.67 47.675 322.547 46.7207 322.547 46.538C322.547 46.3552 321.976 46.0913 322.18 45.9086C322.363 45.7055 322.486 45.4619 322.69 45.34C322.874 45.2182 322.506 44.3248 322.812 44.5076C323.118 44.7106 323.118 45.0152 323.261 45.2588C323.384 45.5228 323.2 46.3959 323.506 46.5989C323.812 46.7816 323.445 47.4111 323.955 47.4111C324.465 47.4111 324.139 48.609 324.139 48.609C324.139 48.609 324.016 49.5024 324.322 49.5633C324.628 49.6242 324.445 51.147 324.445 51.147L323.914 50.8424Z" fill="white"/>
<path d="M319.854 40.5876C320.037 40.8516 320.404 41.0343 320.404 41.278C320.404 41.5216 320.282 41.7247 320.649 41.7856C321.017 41.8465 321.282 41.7247 321.404 42.0292C321.527 42.3541 321.527 42.8617 321.466 43.1053C321.404 43.3693 321.527 43.7348 321.833 43.7348C322.139 43.7348 322.221 43.7957 322.221 43.9987C322.221 44.1815 322.588 43.3084 322.588 43.3084C322.261 43.0647 322.017 42.4759 322.017 42.4759C322.017 42.4759 321.71 41.5825 321.71 41.4607C321.71 41.3389 321.262 41.2171 321.078 41.1562C320.894 41.0952 320.568 40.5267 320.568 40.5267L319.854 40.5876Z" fill="white"/>
<path d="M320.465 40.0193C320.282 39.7553 320.098 39.5726 319.833 39.4507C319.588 39.3289 319.404 39.2071 319.139 39.2071C318.894 39.2071 318.629 38.9431 318.772 38.6386C318.894 38.3137 318.588 38.1919 318.588 37.9482C318.588 37.7046 318.772 37.7046 319.098 37.8873C319.404 38.0701 319.343 38.1513 319.608 38.4559C319.853 38.7807 319.975 39.0853 320.22 39.0244C320.486 38.9634 320.669 39.5929 320.914 39.4101C321.159 39.2274 321.098 39.8568 321.098 39.8568L320.465 40.0193Z" fill="white"/>
<path d="M313.14 47.1678C313.487 47.513 311.263 47.4318 311.263 47.1678C311.263 46.9242 311.446 46.0308 312.018 46.2136C312.569 46.3963 312.65 45.0765 312.65 45.0765C312.65 45.0765 312.14 45.1374 312.589 44.8938C313.018 44.6501 312.589 44.2644 312.405 44.0613C312.222 43.8786 312.038 43.5537 312.038 43.5537H312.916C313.303 43.2898 313.426 42.0918 313.426 42.0918C314.181 42.3355 314.548 41.8279 314.548 41.8279C314.548 41.8279 314.67 42.2137 314.936 42.5182C315.181 42.8431 314.303 42.9649 314.609 43.1476C314.936 43.3304 315.058 43.8989 314.936 44.1019C314.813 44.2847 314.12 44.1628 314.12 43.8989C314.12 43.6552 313.875 44.2238 314.12 44.5283C314.364 44.8329 313.813 45.2796 313.691 45.2796C313.569 45.2796 312.752 45.4014 313.446 45.7872C314.14 46.1729 314.895 45.9699 314.895 45.9699C314.895 45.9699 315.446 45.909 315.65 46.2339C315.854 46.5384 315.589 46.6196 315.283 46.6196C314.977 46.6196 313.467 46.4978 313.467 46.4978C313.467 46.4978 312.956 46.9851 313.14 47.1678Z" fill="white"/>
<path d="M309.12 47.735C309.426 47.6741 310.181 47.6132 310.303 47.7959C310.426 47.9989 309.854 48.2426 309.854 48.2426L309.099 48.3644C308.875 48.0598 308.814 47.7959 309.12 47.735Z" fill="white"/>
<path d="M317.2 42.4166C317.71 42.1526 318.771 42.1526 318.71 41.7871C318.649 41.4014 319.343 41.2795 319.343 41.2795L319.526 42.0511L320.077 42.4369L320.139 43.1272C320.139 43.1272 320.322 43.0054 319.628 43.1881C318.935 43.3912 319.384 43.6957 319.384 43.6957L317.874 43.7566L317.69 43.1272L317.2 42.4166Z" fill="white"/>
<path d="M314.772 39.0052C315.16 39.0052 314.65 40.4671 315.65 40.3249C316.65 40.2031 315.711 40.7716 316.466 40.8325C317.221 40.8935 317.017 40.264 317.282 39.8173C317.547 39.3706 317.405 39.127 316.976 38.9849C316.527 38.863 316.527 38.863 316.405 38.3554C316.282 37.8478 315.772 37.726 315.772 37.726L315.589 36.9545L314.772 37.4621L313.956 38.5382C313.956 39.3706 314.385 39.0052 314.772 39.0052Z" fill="white"/>
<path d="M316.611 43.9725L316.416 44.3528L316.743 44.5187L316.938 44.1385L316.611 43.9725Z" fill="white"/>
<path d="M316.159 43.7549H315.772V44.2016H316.159V43.7549Z" fill="white"/>
<path d="M315.712 35.3499L315.773 35.9184L316.14 35.8778L316.079 35.3093L315.712 35.3499Z" fill="white"/>
<path d="M315.403 41.2175H315.017V41.5228H315.403V41.2175Z" fill="white"/>
<path d="M313.997 40.8324L314.038 41.1979L314.65 41.137L314.609 40.7715L313.997 40.8324Z" fill="white"/>
<path d="M308.508 47.1481L308.855 47.2902L309.038 46.8435L308.712 46.7014L308.508 47.1481Z" fill="white"/>
<path d="M306.854 45.7646L306.895 46.1504L307.507 46.0895L307.487 45.7037L306.854 45.7646Z" fill="white"/>
<path d="M294.632 46.09L294.652 46.4757L296.019 46.4148V46.0291L294.632 46.09Z" fill="white"/>
<path d="M293.591 46.0111L293.713 46.5797L294.081 46.4984L293.958 45.9299L293.591 46.0111Z" fill="white"/>
<path d="M293.325 46.598L293.447 46.9635L293.631 46.9026L293.508 46.5371L293.325 46.598Z" fill="white"/>
<path d="M296.591 45.9085L296.529 46.3349L297.223 46.3958C297.223 46.3958 297.529 46.6598 297.529 46.8425C297.529 47.0253 297.978 47.2283 298.223 47.2283C298.468 47.2283 299.162 46.7207 299.162 46.7207C299.162 46.7207 299.468 45.8273 299.223 45.8882C298.978 45.9491 298.468 46.3349 298.407 45.9491C298.345 45.5634 297.59 45.7664 297.59 45.7664L296.591 45.9085Z" fill="white"/>
<path d="M299.713 45.1989C299.713 45.3816 299.591 45.6456 299.958 45.7065C300.325 45.7674 301.019 45.4628 301.08 45.8283C301.141 46.2141 301.141 46.4577 301.651 46.6608C302.162 46.8638 302.468 46.9247 302.835 46.9247C303.202 46.9247 304.019 46.8029 304.019 46.8029C304.019 46.8029 304.896 46.945 305.08 47.1278C305.773 47.8181 306.202 48.0211 306.406 47.6963C306.59 47.3714 306.345 46.6811 306.284 46.4374C306.222 46.1735 305.345 44.9755 305.018 45.2395C304.712 45.5034 304.651 45.2395 304.08 45.4222C303.508 45.605 302.325 45.4831 302.264 45.2395C302.202 44.9755 301.325 44.8537 301.325 44.6101C301.325 44.3461 300.692 44.0415 300.774 44.4273C300.835 44.8131 300.325 44.9958 300.203 44.874C300.101 44.6913 299.713 45.1989 299.713 45.1989Z" fill="white"/>
<path d="M314.139 37.0956L314.588 35.6947C313.956 35.5728 314.078 34.8622 314.078 34.8622C314.017 34.2937 313.14 33.6643 312.833 33.847C312.527 34.0297 312.65 32.5272 312.65 32.5272C312.65 32.5272 313.221 32.1414 313.466 32.3242C313.711 32.5272 311.344 29.1568 310.834 29.4816C310.324 29.7862 309.201 29.1568 309.262 28.5882C309.324 28.0197 307.018 26.1111 307.018 26.1111C307.018 26.1111 306.263 25.6035 306.14 25.9893C306.018 26.3751 305.753 26.6187 306.14 26.8218C306.508 27.0045 306.446 26.4969 306.895 26.9436C307.344 27.3903 308.14 27.9588 307.834 28.3243C307.528 28.7101 307.14 28.8319 307.14 28.8319L307.589 29.3395H308.283L308.405 30.4156C308.405 30.4156 309.16 30.8014 309.344 31.2278C309.528 31.6745 309.528 31.9181 309.344 32.1821C309.16 32.446 308.793 32.8724 308.854 33.3191C308.916 33.7658 309.426 33.9485 309.426 33.9485L309.915 34.0094L310.303 34.1922V35.0246C310.793 34.9028 311.609 35.5931 311.548 36.0398C311.487 36.4865 311.67 36.2226 312.303 36.6692C312.936 37.1159 312.752 37.1768 313.18 37.5017C313.588 37.8672 313.956 37.6641 314.139 37.0956Z" fill="white"/>
<path d="M303.794 28.4863C303.733 28.2223 303.61 27.3492 303.977 27.4102C304.345 27.4711 304.1 27.4102 304.549 27.6132C304.977 27.7959 305.059 27.2883 305.059 27.2883H305.753L306.63 27.9787L306.508 28.5472L305.875 28.6081C305.569 28.1005 304.936 28.3035 305.059 28.7299C305.181 29.1766 304.753 29.9888 304.488 30.0497C304.243 30.1106 303.426 30.1106 303.488 29.7451C303.549 29.3796 303.794 28.4863 303.794 28.4863Z" fill="white"/>
<path d="M303.284 26.7814V26.2738C303.284 26.2738 303.223 25.7662 302.917 25.7662C302.611 25.7662 302.039 25.3804 302.162 25.1368C302.284 24.8931 301.101 24.6292 301.101 24.6292C301.101 24.6292 300.04 23.614 300.407 23.7561C300.774 23.8779 300.591 23.3094 300.591 23.3094C300.591 23.3094 299.836 23.4312 299.652 23.3703C299.468 23.3094 299.529 22.7409 299.529 22.7409C299.529 22.7409 298.774 22.5581 298.774 22.7409C298.774 22.9236 299.019 22.9236 299.142 23.3094C299.264 23.6952 299.203 24.3246 299.774 24.4464C300.346 24.5682 300.468 24.6901 300.529 24.954C300.591 25.218 301.284 25.2586 301.284 25.2586L301.794 25.5225L303.284 26.7814Z" fill="white"/>
<path d="M295.836 20.2632L296.53 20.3241L296.346 19.8165L295.836 19.6947V20.2632Z" fill="white"/>
<path d="M296.326 17.6664C295.673 17.1791 297.204 18.0522 297.204 18.0522C297.693 18.0522 298.02 18.4379 298.02 18.6207C298.02 18.8237 298.714 18.7425 298.714 18.7425L298.775 18.2958L298.265 17.6664L297.836 17.3618C297.836 17.3618 297.142 17.3009 297.142 17.1182C297.142 16.9151 296.591 17.8491 296.326 17.6664Z" fill="white"/>
<path d="M307.875 18.0517C307.691 18.5999 307.63 19.3715 307.324 19.3715C307.018 19.3715 307.14 20.2039 307.14 20.2039C307.14 20.2039 307.957 20.2039 308.201 20.2648C308.446 20.3258 308.446 20.9552 308.446 20.9552C309.385 20.8943 309.773 22.1531 309.63 22.478C309.507 22.8028 309.997 22.8028 309.997 22.8028C309.997 22.8028 309.997 23.8181 309.875 24.0617C309.752 24.3257 310.691 24.5084 310.936 24.8942C311.181 25.2799 310.813 26.5388 310.63 26.5997C310.446 26.6606 311.14 26.8637 311.079 27.1682C311.017 27.4931 311.262 27.1682 311.324 27.6758C311.385 28.1834 311.507 29.2595 311.507 29.2595L312.385 29.3204C312.507 28.488 314.14 28.4677 314.405 28.5692C315.466 28.955 316.282 30.5996 316.282 30.9854C316.282 31.3712 315.588 31.4321 315.588 31.4321L315.711 33.2594C316.772 33.564 317.649 35.0868 317.527 35.3507C317.405 35.6147 318.282 35.5538 318.282 35.5538C318.404 34.4168 319.466 34.8025 319.527 35.168C319.588 35.5538 319.772 36.366 319.772 36.366L320.098 36.9345L320.527 37.3812L321.22 37.3202L321.404 37.706L322.22 37.8278C322.22 37.8278 322.914 38.5791 322.975 38.7821C323.037 38.9649 323.975 38.904 324.24 38.9649C324.485 39.0258 324.873 39.2288 324.934 39.5334C324.995 39.8582 325.383 40.3658 325.383 40.3658C325.383 40.3658 326.138 40.5486 326.199 40.8125C326.261 41.0765 326.587 41.645 326.587 41.645L327.22 42.1526L327.281 42.7211L327.975 42.782L328.158 43.5333L329.281 43.4724L329.913 43.0257C330.73 42.579 331.28 42.0105 331.362 41.7668C331.423 41.5232 331.546 40.5689 332.178 40.7516C332.811 40.9344 332.362 39.3506 332.362 39.3506C332.362 39.3506 331.485 38.7212 331.546 38.3964C331.607 38.0918 330.668 37.4624 330.73 37.1984C330.791 36.9345 329.913 36.4472 329.974 36.1832C330.036 35.9193 329.526 35.2289 329.526 35.2289L328.587 34.3559L328.464 33.7873L327.709 33.7264L326.199 31.8788L326.261 31.3712L325.832 31.3102V30.6199L325.383 30.356L324.689 30.295L323.302 28.7722L323.179 28.0819H322.486L322.608 26.7418C323.057 26.1733 322.792 25.0972 322.792 25.0972C322.792 25.0972 321.914 25.5439 321.465 25.3612C321.037 25.1581 321.649 24.7317 321.649 24.7317V24.1835L321.282 23.7977C321.282 23.7977 320.2 23.9196 320.159 23.7368C320.098 23.5338 319.914 22.7216 319.914 22.7216L319.853 21.6455L319.425 21.4628L319.363 21.077L318.67 21.1379V20.3867L318.302 20.2648L317.935 20.0618L317.874 19.3106L316.486 19.2496L316.037 18.6202L315.507 17.8487L313.936 17.7268L313.568 17.3411L312.936 17.2192L312.487 17.0365L312.303 17.3614L311.12 17.4223L311.058 17.8081C310.446 18.1126 307.936 17.8487 307.875 18.0517Z" fill="white"/>
<path d="M314.446 16.4061C314.344 15.8985 315.711 15.4518 316.017 15.8376C316.323 16.2233 317.201 16.2843 317.343 18.1725C317.384 18.8629 316.221 17.4822 316.221 17.4822L315.282 17.1573C314.772 17.0355 314.507 16.7106 314.446 16.4061Z" fill="white"/>
<path d="M295.713 17.0164L296.06 17.1788L296.305 16.6103L295.978 16.4479L295.713 17.0164Z" fill="white"/>
<path d="M292.815 10.9664L291.999 10.1339V9.44358L291.754 9.17963L291.51 8.28625L290.693 8.0426L289.877 8.36747L289 8.93598L288.061 9.0578L287.551 9.62632L289.551 9.80905L289.918 10.4385L291.367 10.5603L292.305 11.5146C293.142 11.7785 293.326 11.3928 292.815 10.9664Z" fill="white"/>
<path d="M292.693 7.85689C292.55 7.30868 291.755 8.54723 292.571 8.79087C293.387 9.05483 294.203 8.79087 294.203 8.79087L294.387 8.4051L297.529 8.46601C297.795 8.20206 297.897 7.83658 297.897 7.83658C297.897 7.83658 298.652 7.57263 298.958 7.71476C299.264 7.83658 299.019 6.82138 298.713 6.96351C298.407 7.08533 297.774 7.02442 297.774 7.02442H296.652C296.591 6.57773 295.591 6.76047 295.53 7.02442C295.468 7.28837 295.101 7.34929 295.101 7.34929L293.652 7.47111C293.509 7.85689 292.754 8.10054 292.693 7.85689Z" fill="white"/>
<path d="M286.49 18.5394C287.449 18.8439 287.817 18.6206 287.878 18.3566C287.939 18.0927 288 18.0317 288.388 17.9708C288.755 17.9099 288.327 17.1384 287.939 17.2196C287.572 17.2805 287.184 17.0775 287.123 16.7729C287.062 16.448 286.429 15.6359 286.368 16.2653C286.307 16.8947 285.919 16.8947 286 17.3414C286.062 17.7881 286.245 18.4581 286.49 18.5394Z" fill="white"/>
<path d="M279.287 19.249C279.246 19.0257 280.532 18.985 280.715 19.1881C280.899 19.3708 280.777 19.6957 281.348 19.6957C281.899 19.6957 281.654 20.0815 281.593 20.2642C281.532 20.4469 280.899 20.386 280.838 20.2033C280.777 20.0003 279.838 19.9393 279.838 19.9393C279.838 19.9393 279.348 19.5536 279.287 19.249Z" fill="white"/>
<path d="M300.121 6.07234L299.795 5.74748L299.529 6.03173L299.958 6.45812L300.08 6.57994L300.223 6.47842L300.835 5.97082L300.611 5.66626L300.121 6.07234Z" fill="white"/>
<path d="M297.142 4.52774L296.754 4.26379L296.55 4.58866L297.04 4.91352L297.142 4.97443L297.244 4.91352L297.937 4.46683L297.733 4.14197L297.142 4.52774Z" fill="white"/>
<path d="M294.366 17.8467L294.917 17.9076L295.305 18.5167L295.611 18.3137L295.182 17.6234L295.121 17.5422H295.04L294.407 17.4609L294.366 17.8467Z" fill="white"/>
<path d="M274.389 35.207L274.45 35.8974H275.389C275.756 35.8974 275.083 35.4507 275.083 35.4507C275.083 35.4507 274.328 35.5116 274.389 35.207Z" fill="white"/>
<path d="M275.593 35.2297L275.96 35.5343L276.205 35.25L275.838 34.9252L275.593 35.2297Z" fill="white"/>
<path d="M264.166 23.3698L264.533 23.7556L264.799 23.4916L264.431 23.1058L264.166 23.3698Z" fill="white"/>
<path d="M281.572 104.892L281.98 105.095L281.838 105.217L282.123 105.481L282.429 105.156L282.613 104.994L282.368 104.872L281.756 104.547L281.572 104.892Z" fill="white"/>
<path d="M276.899 100.322L276.716 100.484L276.92 100.626L277.369 100.931L277.573 100.626L277.328 100.464L277.532 100.302L277.287 100.017L276.899 100.322Z" fill="white"/>
<path d="M324.139 88.3024C324.057 87.9776 323.69 87.8558 323.649 87.8354L323.526 88.2009C323.567 88.2212 323.608 88.2415 323.649 88.2618L323.73 88.5867C323.71 88.6273 323.669 88.6679 323.649 88.7085L323.934 88.9522C324.118 88.7085 324.2 88.5055 324.139 88.3024Z" fill="white"/>
<path d="M324.118 87.0439L324.71 87.1048L324.771 86.5769L324.159 86.4753L324.118 87.0439Z" fill="white"/>
<path d="M339.239 82.1516C339.504 81.9891 339.851 81.6846 339.81 82.3749C339.769 83.0856 339.484 82.8622 339.239 83.0856C339.014 83.3495 338.871 82.3952 339.239 82.1516Z" fill="white"/>
<path d="M342.443 79.4697C342.423 79.4494 342.423 79.4088 342.423 79.3885C342.423 79.2869 342.402 79.1448 342.321 79.0027L341.994 79.1651C342.035 79.2463 342.035 79.3479 342.055 79.4291C342.055 79.5306 342.076 79.6524 342.178 79.7539C342.239 79.7945 342.321 79.8148 342.423 79.7945L342.361 79.4291C342.402 79.4088 342.423 79.4494 342.443 79.4697Z" fill="white"/>
<path d="M341.606 79.7763C341.708 80.1621 341.831 80.5479 341.851 80.5479L342.198 80.4057C342.198 80.4057 342.055 80.0403 341.974 79.6748L341.606 79.7763Z" fill="white"/>
<path d="M340.238 81.2771L339.872 81.2365C339.851 81.541 339.912 81.9065 340.218 81.9674L340.279 81.6019C340.238 81.5613 340.218 81.4192 340.238 81.2771Z" fill="white"/>
<path d="M338.586 73.7242C338.565 73.6023 338.484 73.5008 338.382 73.4602C338.096 73.3384 337.627 73.5414 337.402 73.6836L337.606 74.0084C337.851 73.846 338.157 73.7648 338.219 73.8054L338.198 73.7851L338.586 73.7242Z" fill="white"/>
<path d="M321.221 53.5027C320.956 53.7666 320.405 53.8885 320.405 53.8885L320.221 54.5788L319.915 54.8224C319.915 54.8224 319.976 55.0255 319.915 55.4519C319.854 55.8986 319.282 56.1422 319.282 56.1422L319.037 56.4671C319.037 56.4671 317.527 56.5483 317.344 56.4671C316.772 56.2234 317.16 55.4519 317.527 55.5128C317.895 55.5737 317.466 54.4367 317.466 54.4367L317.976 54.3758C317.976 54.3758 318.037 53.2387 318.221 53.2387C318.405 53.2387 318.16 52.8733 317.915 52.6702C317.67 52.4875 317.364 51.8377 317.099 51.919C316.854 51.9799 315.854 51.919 315.854 51.919L315.67 52.3047L314.977 52.4266C314.977 52.4266 315.038 52.9139 314.915 53.056C314.548 53.5027 313.099 54.457 313.732 52.8733L313.916 52.4875V51.919L312.793 51.8581C312.793 51.8581 312.222 51.6753 312.222 51.4114C312.222 51.1474 312.161 50.8429 312.161 50.8429L310.814 49.381L309.243 49.1982L309.12 48.8734L308.181 48.7515C307.059 48.183 306.059 48.6906 306.243 49.6449C306.427 50.5992 306.753 50.9647 306.12 50.9647C305.488 50.9647 305.365 50.4571 305.365 50.4571C305.365 50.4571 304.855 50.254 304.855 50.518C304.855 50.7819 304.672 51.2692 304.855 51.5332C305.039 51.7971 304.61 52.1626 304.406 51.9799C304.223 51.7971 303.713 51.2286 303.835 51.0256C303.957 50.8429 302.958 49.6449 303.957 49.4419C304.957 49.2388 303.896 48.6906 304.264 48.5688L304.774 48.3048H305.284L305.59 48.0612L304.774 47.9191L304.264 47.8582L303.325 47.7972C302.386 48.4267 302.203 49.1982 302.203 49.1982C301.692 50.1525 300.509 48.8124 300.937 48.3048C301.386 47.7972 299.57 48.2439 299.244 48.4876C298.938 48.7312 297.999 48.6094 297.999 48.6094C297.815 49.1779 296.938 48.5485 297.183 48.1627C297.428 47.7769 297.428 47.5333 297.428 47.5333L297.122 47.4724L296.754 48.1627C295.877 48.1627 295.632 48.6703 295.816 48.9952C295.999 49.2997 295.571 48.9343 295.448 49.381C295.326 49.8277 295.509 49.8276 295.877 50.0104C296.264 50.1931 295.693 50.1931 295.938 50.518C296.183 50.8429 296.938 50.518 296.509 50.9647C296.06 51.4114 295.183 51.2083 295.183 51.2083C295.122 51.7768 293.938 51.655 293.816 51.4723C293.693 51.2692 292.755 50.1525 292.755 50.1525L291.571 50.0916C291.449 49.2185 292.122 49.6449 292.387 48.9546C292.632 48.2642 292.775 47.1272 292.775 47.1272C292.775 47.1272 291.775 47.0663 291.714 47.3912C291.653 47.716 291.02 47.8988 291.02 47.8988C291.02 47.8988 290.51 48.1018 290.714 48.3455C290.898 48.6094 290.326 48.7312 290.326 48.7312C290.326 48.7312 290.428 49.1373 290.265 49.2997C289.775 49.8073 288.51 49.3607 288.327 49.1779L287.572 48.8531L286.817 48.3455L285.939 48.7312L285.694 48.9952H284.756L284.694 49.7464L286.388 49.9495L286.511 51.5129L285.817 51.2692H285.368L285.184 50.8835L284.817 50.8226V52.2235L285.184 52.5484L285.49 52.853L286.123 52.9139L286.245 53.6651L287.816 53.726L288 54.0306L288.939 54.0915L290.755 55.9392L290.632 56.5077L290.306 56.6701C290.428 57.1168 289.49 56.8528 289.49 56.8528V57.2386L289.918 57.2995L290.367 57.5432L291 56.4671C291.694 56.0204 292 56.6498 292.061 57.0356C292.122 57.4214 291.755 57.3605 291.755 57.3605V58.2335L292.122 58.3553C292.755 59.1269 291.877 59.5533 291.877 59.5533L291.694 60.1827C291.51 60.7512 290.816 60.6294 290.816 60.6294L290.571 61.0152L289.816 61.1979L291.306 61.401C291.449 60.8934 291.816 60.7715 292 61.0152C292.183 61.2791 292.183 61.7055 292.183 61.7055L292.551 61.7664L292.489 62.4568L292.877 62.5786V64.609L293.326 65.1166C294.081 64.7917 294.081 65.2993 293.693 65.5633C293.326 65.8272 293.571 66.9643 293.571 66.9643L293.265 67.2891V67.7967L292.898 68.0607V68.751C292.265 68.4262 291.51 68.5683 291.326 68.751C290.755 68.3652 289.571 68.5074 289.571 68.8119C289.939 69.3195 289.143 69.4414 289.143 69.4414L288.694 69.949C289.02 70.5784 288.388 70.6393 288.388 70.6393V71.8372L287.633 72.5276L287.694 74.1722C287.694 74.6189 288.633 74.6798 288.816 74.4159C289 74.1722 289.755 74.9235 289.755 74.9235H290.326L290.449 73.7864L290.082 73.6037V71.7763L290.714 71.086C291.469 70.822 291.204 72.7306 291.204 72.9336C291.265 73.624 291.571 73.5631 291.898 73.4412C292.53 73.1976 292.02 74.1316 291.53 74.0707C291.02 74.0098 291.347 74.7001 291.347 74.7001L291.653 74.8219L291.081 75.2686L290.592 75.8371L289.959 75.6544L289.204 75.5935L288.959 75.1468L288.51 75.0859L288.449 75.959L288.143 76.3447L287.388 77.1163C288.388 77.1163 287.266 77.8066 287.021 77.8066C287.592 77.9894 286.959 78.5782 285.511 78.1315V78.5782L285 78.6391L285.449 79.1467L285.96 79.2076L285.776 80.2837C285.776 81.1162 283.715 80.5274 283.511 80.3446L283.45 81.4817L283.082 81.5426L283.144 82.3141L283.082 83.3902L283.776 83.2481V83.6948L285.47 83.7557L287.919 81.1568L289.367 80.8522C289.49 80.2228 290.122 80.9741 290.122 80.9741C290.755 80.9131 290.877 81.3598 290.877 81.3598L291.694 81.4817C292.387 81.6847 291.959 81.7456 292 81.9893C292.061 82.375 292.367 82.2532 292.367 82.2532L292.449 81.4207L292.816 81.4817L292.449 81.035L291.755 80.7101L291 80.4055C290.49 79.7152 291.122 79.837 291.632 79.8979H292.449C292.449 79.8979 293.387 81.1568 293.387 81.4817C293.387 81.7862 293.836 81.8674 293.836 81.8674L294.387 81.8065L294.571 82.2532H295.142L295.326 82.639H296.448L296.53 82.0502L295.469 81.8674L295.407 81.238L294.632 81.035C294.387 79.9589 294.816 79.6543 295.142 80.1619L295.509 80.2228L295.387 79.2685L295.836 79.1467L295.714 77.8269L295.346 77.7051V77.2584L296.917 77.3193C296.795 76.4869 296.979 76.1214 296.979 76.1214H297.428L297.489 76.4463L299.407 76.629L300.774 75.0859C300.713 74.9641 300.897 74.8828 300.754 74.7407C300.57 74.558 300.305 74.7407 299.999 74.558C299.693 74.3752 299.999 73.2991 299.938 73.0352C299.876 72.7915 300.999 72.4057 300.815 72.9743C300.631 73.5428 300.815 73.8067 300.815 73.8067C301.631 73.0352 302.325 73.8676 302.264 74.0707C302.203 74.2534 302.692 74.4565 303.019 74.2534C303.325 74.0707 303.713 74.8219 303.59 75.2077C303.468 75.5935 302.325 75.5326 302.264 75.1468C302.203 74.761 302.019 74.9031 301.896 75.0859C301.774 75.2889 301.203 75.3904 300.897 75.2077C300.835 75.1671 300.795 75.1265 300.795 75.1062L299.427 76.6493H299.529C300.284 77.096 299.897 77.6645 299.652 77.7863C299.407 77.9081 298.958 77.9081 298.958 77.9081L298.836 78.1721L297.203 78.2939L297.081 78.9233C296.264 78.8015 295.958 79.6949 296.142 80.1213C296.326 80.568 296.142 80.9537 296.142 80.9537L296.836 81.2786L297.713 81.0147C297.836 80.3852 298.407 80.2634 298.897 79.8776C299.407 79.4919 300.223 80.568 299.958 81.0756C299.713 81.5832 299.713 81.7659 299.713 81.7659L299.774 82.3344L299.142 82.5781L298.632 82.842L298.57 83.1466H296.877L296.53 83.4511L295.714 83.5121L295.469 83.8978L294.918 83.9587C294.918 83.9587 293.979 84.4054 294.346 84.913C294.734 85.4206 292.775 85.3597 292.347 84.6491C292.224 85.2785 291.53 84.71 291.53 84.71L290.837 84.5273L290.775 83.573C290.653 82.9435 289.449 82.9435 289.51 83.3902C289.571 83.8369 287.245 83.573 287.245 83.573L286.49 83.9384L285.796 84.3242L285.735 84.6491L284.613 84.7709L284.103 85.0349L283.919 84.6491H283.409L282.899 85.3394C281.572 85.4003 280.328 86.1719 280.45 86.4764C280.572 86.781 279.94 87.1059 279.94 87.1059L279.368 87.2886L279.001 87.8571L278.246 88.1008L278.124 89.4408L277.756 89.6845V90.253L277.328 90.3748V90.6997L276.695 90.7606L277.083 91.7149L277.593 91.9585C278.471 92.0804 278.103 93.1565 278.103 93.1565L278.613 93.2174L278.879 93.9077L279.368 94.9229C279.552 95.6945 280.123 95.4914 280.368 95.4305C280.613 95.3696 280.879 96.1818 280.879 96.1818L283.388 96.2427C283.388 96.2427 283.266 96.5066 283.695 96.6285C284.123 96.7503 287.021 96.8721 287.143 96.6894C287.021 96.1209 288.714 95.999 289.408 96.5066C290.102 97.0142 291.041 96.6894 291.041 96.6894L291.979 97.8264L292.612 99.2274L293.673 99.5522L294.428 99.735L294.673 100.811L295.244 100.872L295.428 101.562C296.122 102.07 295.244 103.146 295.244 103.146V104.547L295.754 104.811L295.693 105.319L296.509 106.151L297.448 106.212L299.836 108.75L301.713 109.318L302.019 110.334L302.529 110.273L302.917 109.948L304.427 109.887L305.182 109.197L305.998 109.075L312.956 103.187L312.324 102.801V101.4C313.467 100.588 313.528 99.1259 312.446 99.004C311.65 98.9025 312.018 98.0498 312.773 97.9279L313.201 97.7452V97.1767L314.65 95.8366V94.8214L311.528 92.2225C310.14 91.7149 311.528 88.6693 312.467 88.7505C313.405 88.8114 312.405 84.0603 312.405 84.0603L311.895 83.8166L312.018 82.2938H311.324L310.202 83.7557L309.896 84.7709C309.773 86.0907 305.876 85.847 305.692 85.644C305.508 85.4612 304.182 84.8724 304.182 84.8724C304.182 84.8724 303.182 84.0603 302.998 84.3039C302.815 84.5476 301.937 83.979 301.937 84.1821C301.937 84.3648 301.121 83.7354 301.121 83.7354L299.876 83.2887L300.815 83.0857L300.631 82.3141L302.264 83.1466C302.447 83.4105 303.264 83.3496 303.264 83.3496L303.509 83.6745C303.509 83.6745 304.019 83.6136 304.325 83.9791C304.631 84.3648 306.263 84.04 306.263 84.04L306.712 84.4257L307.406 84.6694L309.345 84.7303L309.406 83.5324L309.773 83.1466L309.712 82.3953L310.161 82.0096V81.3801L310.528 81.2583L310.589 79.8573L310.814 79.837V76.7914L309.875 75.898C309.814 76.2229 308.814 76.2229 308.814 76.2229C308.814 76.2229 308.569 76.6696 308.365 76.6696C308.181 76.6696 308.63 77.2381 308.488 77.6239C308.365 78.0097 307.855 78.0097 307.855 78.0097L306.916 78.2736L306.671 78.5985H305.672L305.549 77.766L306.671 77.4411L307.304 77.1366L307.61 76.5072C307.671 75.8777 308.426 75.9387 308.426 75.9387C308.426 75.9387 309.875 74.7407 309.936 74.1722C309.998 73.6037 310.508 72.02 311.385 72.02H313.018C313.65 71.756 313.467 70.9439 313.467 70.9439L314.283 70.822L314.405 71.2687C314.405 71.2687 315.528 71.3905 315.65 71.2078C315.772 71.0251 316.017 70.5784 316.344 70.7611C316.65 70.9439 317.67 70.3144 317.67 70.3144C317.731 69.8677 319.303 70.0708 319.303 70.0708L319.486 69.5023C319.486 69.5023 318.425 68.0404 318.242 68.0404C318.058 68.0404 317.058 67.147 316.915 67.4719C315.915 67.2079 315.976 65.8272 315.976 65.8272L315.589 64.9542C315.589 64.4466 314.65 63.3704 314.466 63.4923C313.528 62.8019 314.222 61.9695 314.466 61.9086C314.711 61.8476 315.344 60.9543 315.344 60.9543L315.65 60.0609L316.711 59.7563L316.834 58.9239L316.262 58.8629C316.262 58.8629 316.895 57.7259 317.201 57.7259C317.507 57.7259 319.588 57.7259 319.772 57.6041C319.956 57.4823 320.343 56.4671 320.343 56.2843C320.343 56.0813 320.853 56.0204 321.037 55.9595C321.221 55.8986 321.67 55.391 321.792 55.127C321.915 54.8224 321.466 53.2387 321.221 53.5027Z" fill="white"/>
<path d="M286.49 76.3242C286.592 76.2226 286.673 76.6084 286.857 76.5678C287.041 76.5272 287.143 76.913 286.959 76.913C286.775 76.913 286.775 77.1363 286.775 77.2378C286.775 77.3394 286.775 77.5627 286.633 77.7048C286.49 77.847 286.347 77.7454 286.163 77.6642C285.98 77.5627 285.898 77.5627 285.653 77.5627C285.408 77.5627 285.612 77.9485 285.612 77.9485C285.612 77.9485 284.612 77.9079 284.817 77.7658C285 77.6236 285.204 77.5627 285.061 77.4815C284.919 77.38 285.061 77.2785 285.061 77.0957C285.061 76.913 285.531 76.9942 285.388 76.8521C285.245 76.7099 285.388 76.1617 285.633 76.4663L285.776 76.1211C285.633 75.979 285.735 75.9384 285.449 75.8369C285.163 75.7353 285.408 75.1668 285.408 75.1668L285.449 74.7811C285.551 74.3141 286.49 74.2532 286.531 74.6998C286.571 75.1262 286.531 75.4105 286.531 75.4105L286.816 75.512C286.816 75.512 286.775 75.7963 286.531 75.7963C286.286 75.7963 286.531 75.9384 286.388 76.0805L286.49 76.3242Z" fill="white"/>
<path d="M283.388 76.7899C283.531 76.5057 283.857 75.2671 284.245 75.6529C284.612 76.0387 284.857 75.6529 284.857 75.6529C284.857 75.6529 285.041 75.8356 284.959 76.2214C284.857 76.5869 284.775 76.9727 284.53 77.0336C284.306 77.0742 284.102 77.2163 283.837 77.2772C283.531 77.3178 283.388 76.7899 283.388 76.7899Z" fill="white"/>
</svg>
