<svg width="375" height="75" viewBox="0 0 375 75" fill="none" xmlns="http://www.w3.org/2000/svg">
<path d="M0.554688 0.111084H18.006C18.006 9.12323 18.006 18.1618 18.006 27.1739C27.6135 27.2004 37.221 27.2004 46.8547 27.1739C46.9337 18.1618 47.0127 9.12323 47.118 0.111084H64.543C64.543 24.7689 64.5693 49.4532 64.543 74.1111H46.8811C46.8284 64.4118 46.8284 54.7389 46.8547 45.0397C37.2473 45.0397 27.6135 45.0397 18.006 45.0397C18.006 54.7389 18.006 64.4118 17.9797 74.1111H0.554688V0.111084Z" fill="white"/>
<path d="M128.555 0.111084H145.543C145.543 24.7689 145.569 49.4532 145.543 74.1111H128.555C128.555 49.4532 128.555 24.7689 128.555 0.111084Z" fill="white"/>
<path d="M84.1864 21.0292C98.6232 13.3369 118.625 21.556 123.113 37.441C129.203 54.4324 115.133 74.1899 97.1795 74.1108H93.4259C84.7377 71.74 75.7607 67.2089 71.4559 58.8844C64.605 45.5547 70.301 27.1408 84.1864 21.0292ZM91.2736 33.4895C81.9553 37.3093 80.0129 51.4556 88.9112 56.856C96.6545 63.4682 109.018 57.4356 109.936 47.6622C111.616 37.6781 100.408 29.0902 91.2736 33.4895Z" fill="white"/>
<path d="M165.19 21.0061C179.392 13.4987 199.027 21.2432 203.857 36.7321C210.551 53.8015 196.507 74.1637 178.263 74.111H174.43C165.715 71.7402 156.738 67.1568 152.407 58.8065C145.634 45.4776 151.33 27.1437 165.19 21.0061ZM172.33 33.4394C164.587 36.7848 161.095 47.7429 167.08 54.302C173.039 62.547 187.923 60.4133 190.364 50.1927C194.328 39.7351 182.489 28.5662 172.33 33.4394Z" fill="white"/>
<path d="M224.775 26.7863C232.732 14.4893 253.896 17.5769 257.609 31.7104C259.413 45.7375 258.007 59.9775 258.405 74.1111H242.784C242.386 62.7191 243.765 51.194 241.988 39.8818C238.911 32.7219 227.083 33.4671 225.677 41.3457C224.484 52.2054 225.518 63.1982 225.2 74.1111H209.578C209.552 56.3576 209.525 38.6308 209.631 20.8774C214.83 20.8774 220.001 20.8774 225.2 20.8774C225.094 22.3679 224.881 25.2958 224.775 26.7863Z" fill="white"/>
<path d="M284.555 0.111084H296.555C296.368 24.7689 296.528 49.4532 296.448 74.1111H284.688C284.608 49.4532 284.848 24.7689 284.555 0.111084Z" fill="#81838A"/>
<path d="M331.039 0.111084H340.2C356.943 1.22108 371.501 14.9375 373.66 31.6139C375.502 41.2868 371.922 50.7747 367.526 59.2318C369.842 61.5839 372.185 63.9097 374.555 66.2354C371.949 68.9047 369.342 71.5475 366.657 74.1111H366.025C363.682 71.9704 361.418 69.7239 359.154 67.4775C352.994 70.5697 346.65 73.5297 339.7 74.1111H331.961C324.326 71.9439 316.692 68.7461 311.059 62.8789C298.607 50.7747 297.054 29.4468 307.32 15.4661C312.901 7.45823 322.062 3.12394 331.039 0.111084ZM327.064 11.8982C310.216 17.6861 304.714 41.5247 316.692 54.5539C328.881 70.8604 358.681 65.2575 363.182 44.9604C370.632 24.2404 346.887 3.20323 327.064 11.8982Z" fill="#81838A"/>
</svg>
