<svg width="451" height="109" viewBox="0 0 451 109" fill="none" xmlns="http://www.w3.org/2000/svg">
<path d="M49.8488 3.8988C53.5896 1.81129 57.9217 1.25709 62.0967 0.592041C62.6047 1.46953 63.1128 2.33779 63.63 3.21528C64.8031 5.90317 65.7268 8.68344 66.5858 11.4914C68.4516 17.7724 69.1074 24.3213 69.7817 30.8147C71.0656 47.7364 70.4098 64.769 68.5994 81.6261C63.7039 75.5206 59.7413 68.75 55.7603 62.0257C50.6524 53.8789 46.4127 45.224 42.7826 36.3198C41.9236 33.909 41.1846 31.4613 40.4272 29.0135C39.8268 24.6815 39.9284 20.2848 40.3072 15.9343C42.136 11.0665 45.3504 6.60517 49.8488 3.8988Z" fill="#E12229"/>
<path d="M76.4877 20.6081C78.0672 13.7914 79.4435 6.82685 82.778 0.592041C87.655 1.27556 92.8183 2.02374 96.8825 5.04416C101.205 8.29549 104.688 13.1633 105.029 18.6961C106.193 28.2561 102.231 37.3635 98.2311 45.7967C93.5758 54.8302 88.7172 63.7529 83.0089 72.1861C80.8105 75.1049 79.6005 79.0398 76.3676 80.9887C76.2198 78.7627 76.1275 76.5274 75.915 74.3106C74.6404 69.803 75.7303 65.0461 74.742 60.5016C74.4187 53.0568 74.3448 45.5843 74.7327 38.1487C75.4255 34.4817 75.1114 30.7316 75.5271 27.0369C76.1737 24.9494 76.3215 22.7695 76.4877 20.6081Z" fill="#E12229"/>
<path d="M21.5843 20.9411C21.9723 20.0913 23.3763 19.768 23.8381 20.7194C39.1157 40.4768 52.5553 61.7768 62.7342 84.61C58.6608 83.4 55.0307 81.1185 51.2529 79.225C39.3744 72.4083 27.0248 65.9241 17.123 56.2994C11.6271 50.8682 9.87209 42.1764 12.5692 34.9717C14.3796 29.6329 17.825 25.0699 21.5843 20.9411Z" fill="#E12229"/>
<path d="M121.683 20.2202C122.034 20.2202 122.745 20.2295 123.096 20.2295C127.65 25.1434 131.308 30.861 133.405 37.2528C133.802 41.3724 133.996 45.649 132.425 49.5654C130.135 54.6271 126.181 58.6728 121.665 61.8133C114.284 67.6232 106.11 72.2878 97.9723 76.9246C92.8366 79.7418 87.821 82.9101 82.2051 84.7112C92.7535 61.7487 106.193 40.1716 121.683 20.2202Z" fill="#E12229"/>
<path d="M3.80389 75.9642C0.635676 69.9141 0.109178 62.4785 2.35372 56.0312C21.3538 66.6166 40.4462 77.091 58.7535 88.8494C58.7812 89.2281 58.8274 90.004 58.8551 90.3827C46.9951 90.0964 35.0981 90.7707 23.2565 90.0317C21.3168 89.5422 19.3863 89.0065 17.4651 88.4338C11.7845 85.7921 6.55645 81.7279 3.80389 75.9642Z" fill="#E12229"/>
<path d="M139.15 58.0172C140.434 57.1582 141.986 56.9734 143.491 56.8164C143.732 60.4649 144.073 64.1319 143.732 67.7897C142.66 76.5923 136.665 84.5729 128.417 87.9073C127.484 88.2583 126.551 88.6185 125.627 88.9603C123.817 89.4037 121.997 89.7824 120.178 90.1888C108.927 90.392 97.6678 90.2257 86.4081 90.3366L86.3896 88.8679C103.533 77.8485 121.295 67.8266 139.15 58.0172Z" fill="#E12229"/>
<path d="M13.8809 94.8994C28.8999 94.3914 43.9189 93.6802 58.9471 93.5693C52.5737 98.3817 45.9879 103.092 38.7463 106.528C34.5435 108.671 29.334 108.736 25.159 106.501C20.2819 103.933 16.735 99.4993 13.8809 94.8994Z" fill="#E12229"/>
<path d="M86.5469 93.5972C101.409 93.745 116.271 94.3731 131.124 94.955C127.558 100.793 122.663 106.852 115.476 107.979C109.279 109.198 103.783 105.365 98.7117 102.4C94.6383 99.4995 90.103 97.1533 86.5469 93.5972Z" fill="#E12229"/>
<path d="M198.32 31.2769C201.008 31.2307 203.687 31.2122 206.375 31.2584C207.321 31.3231 208.36 31.2584 208.887 31.277C208.887 33.9489 208.961 35.6921 208.887 38.2506C208.73 51.2929 209.09 64.3444 208.702 77.3775C205.525 77.3221 202.357 77.4791 199.188 77.2944C198.985 77.0912 198.597 76.6755 198.403 76.4631C198.191 70.3206 198.412 64.169 198.329 58.0265C190.561 58.0265 182.793 58.0081 175.025 58.0358C175.016 64.4738 175.071 70.9118 174.979 77.3498C171.589 77.3498 168.19 77.3498 164.791 77.3775C164.56 61.9983 164.744 46.6099 164.689 31.2307C168.134 31.2307 171.58 31.2307 175.034 31.2399C175.034 37.4101 175.025 43.5895 175.034 49.7596C182.793 49.7781 190.561 49.7689 198.329 49.7689C198.339 43.608 198.339 37.447 198.32 31.2769Z" fill="white"/>
<path d="M217.607 31.2394C221.052 31.2302 224.507 31.2302 227.952 31.2394C227.97 40.3653 227.98 49.4912 227.98 58.6264C227.98 62.3396 228.478 66.6901 231.933 68.8699C235.268 70.6711 239.313 70.5233 242.971 70.0615C246.869 69.7012 250.083 66.1543 250.056 62.2472C250.277 51.9482 250.102 41.64 250.13 31.341C253.75 31.1932 257.371 31.2025 260.992 31.2856C260.974 41.289 260.955 51.2924 261.02 61.2958C260.955 66.3575 258.812 71.9088 254.138 74.4027C248.624 77.8481 241.9 77.7372 235.646 77.5432C230.197 77.4509 224.553 75.6312 220.655 71.6964C217.902 69.0177 217.856 64.8889 217.644 61.305C217.542 51.2832 217.635 41.2613 217.607 31.2394Z" fill="white"/>
<path d="M310.03 31.2764C313.78 31.2579 317.54 31.2579 321.299 31.2671C324.837 43.1179 328.984 54.7747 332.771 66.5515C335.939 54.7747 339.246 43.0348 342.498 31.2764C346.654 31.2579 350.811 31.2394 354.967 31.3133C358.449 43.201 362.551 54.9132 365.904 66.8379C369.728 55.0518 373.007 43.0994 376.757 31.2949C380.184 31.2487 383.601 31.221 387.028 31.2394C386.816 32.3663 386.612 33.4932 386.4 34.6201C382.271 45.8704 378.937 57.3979 374.946 68.7037C373.986 71.6317 372.887 74.5136 371.769 77.3862C367.585 77.3401 363.4 77.3585 359.225 77.3401C355.882 66.2467 352.547 55.1441 348.936 44.1432C348.76 44.1894 348.409 44.2632 348.234 44.3094C345.167 55.3104 342.544 66.4499 339.2 77.377C335.025 77.3862 330.841 77.3585 326.666 77.4232C323.793 70.4864 321.724 63.254 319.008 56.2618C315.877 47.9857 312.857 39.6633 310.03 31.2764Z" fill="white"/>
<path d="M391.785 42.7668C394.186 35.5159 402.047 31.7843 409.215 31.2947C416.41 31.1654 423.596 31.2024 430.792 31.304C430.783 33.8164 430.792 36.3288 430.847 38.8412C423.365 40.2082 415.662 38.5179 408.189 39.8295C403.728 40.9379 402.056 45.7226 401.548 49.796C411.293 49.8883 421.047 49.7682 430.792 49.8606C430.866 52.6039 430.949 55.375 430.302 58.0721C420.705 57.8781 411.09 57.9705 401.493 58.0167C401.779 62.0716 402.878 67.2442 407.478 68.3895C415.089 70.1907 423.042 68.8237 430.801 69.3132C430.82 72.0381 431.023 74.8276 430.182 77.46C423.495 77.2014 416.817 77.4508 410.129 77.3492C403.155 76.9335 395.646 73.7746 392.385 67.2257C388.33 59.6885 389.282 50.6273 391.785 42.7668Z" fill="white"/>
<path d="M282.975 33.5855C283.105 33.0313 283.382 31.9229 283.52 31.3779C287.363 31.184 291.214 31.2209 295.066 31.2117C297.163 35.1835 299.019 39.2754 300.784 43.4042C305.716 54.7746 311.803 65.674 315.932 77.3677C312.21 77.3585 308.496 77.3585 304.783 77.3123C303.222 73.6638 301.707 69.9968 300.165 66.339C292.932 66.4314 285.691 66.3667 278.458 66.376C276.99 70.0799 275.641 73.8393 273.859 77.4047C270.339 77.3308 266.829 77.3492 263.319 77.3677C265.776 69.9876 269.489 63.1062 272.658 56.0124C276.269 48.6137 279.253 40.9287 282.975 33.5855ZM281.867 58.1091C286.661 58.1645 291.464 58.0906 296.267 58.1737C296.212 57.4625 296.119 56.0585 296.073 55.3473C295.639 56.0401 298.16 58.6954 297.726 59.3789C293.625 59.6283 285.538 58.1922 281.446 58.1737C284.301 58.1737 288.291 58.2057 291.145 58.1318C292.41 57.9563 295.593 59.6609 296.267 58.1737C296.285 57.7211 294.974 54.5068 294.992 54.0542C293.173 49.6298 291.251 45.2423 289.275 40.8918C286.43 46.4431 284.444 52.4193 281.867 58.1091Z" fill="white"/>
<path d="M439.917 31.2487C443.584 31.221 447.261 31.221 450.937 31.2394C450.771 46.6279 451.288 62.0348 450.66 77.4047C447.113 77.3308 443.575 77.3401 440.028 77.377C439.77 62.0071 440.001 46.6186 439.917 31.2487Z" fill="white"/>
</svg>
