<svg width="331" height="73" viewBox="0 0 331 73" fill="none" xmlns="http://www.w3.org/2000/svg">
<g clip-path="url(#clip0_637_2903)">
<path d="M66.201 45.0317C66.8252 40.8344 65.3758 34.8167 64.4933 32.6928C67.227 24.0961 64.5435 25.512 62.9291 29.2469V29.2975C61.3857 26.2504 59.5446 23.3657 57.433 20.6863V20.6357C59.0041 18.034 60.3003 15.2738 61.3004 12.4002C59.6358 14.748 57.8779 16.9731 56.0698 19.0753L56.0195 19.003C53.6624 16.3088 50.9962 13.9056 48.0767 11.8439C50.1697 10.7511 52.3261 9.78611 54.5343 8.95425C51.6429 9.07207 48.7805 9.58237 46.0246 10.4713C44.1883 9.30099 42.2327 8.33224 40.1913 7.58167C41.6263 8.73031 42.9752 9.92229 44.2739 11.1359C40.02 12.7762 36.2343 15.4488 33.253 18.9164L33.1884 18.8152C31.7428 17.7138 30.2011 16.7467 28.582 15.9256C29.8951 17.2693 31.1364 18.7141 32.2987 20.0794V20.1589C30.8305 22.1908 29.6542 24.4209 28.8045 26.7835C30.3645 25.0791 32.0173 23.4632 33.7553 21.9433H33.8127C36.597 25.4957 39.0833 29.2749 41.246 33.2419L41.3895 33.2852C37.6751 36.3434 33.758 39.1432 29.6655 41.6652C34.3128 40.6561 38.7461 38.8267 42.76 36.2615L42.8604 36.2977C44.8831 40.4036 46.5654 44.6707 47.8902 49.0555H47.8112C39.603 55.3044 44.36 54.9576 48.7512 52.6676V52.552C49.6839 56.2146 50.3943 59.3716 50.3943 59.3716L50.6239 59.5161C51.4275 56.7059 51.1118 53.4189 50.9324 51.4106H50.9898C56.1872 47.9919 60.2658 43.1038 62.7139 37.3596L62.7713 37.4535C64.4718 41.2173 66.1938 44.9305 66.1938 44.9305L66.201 45.0317ZM55.3738 24.2261C57.3882 27.2059 59.2212 30.3059 60.8627 33.5091C58.186 38.5794 54.6311 43.1274 50.3656 46.9388C49.5829 42.376 48.1092 37.9612 45.9959 33.8487L46.0533 33.9426C49.5846 31.124 52.6861 27.7992 55.259 24.0744L55.3738 24.2261ZM46.1107 12.9348C48.8548 15.6892 51.3921 18.6448 53.702 21.7771V21.8205C50.7627 24.9783 47.6511 27.9689 44.3816 30.7784H44.2237C41.8216 26.9513 38.8472 23.5203 35.4055 20.6068H35.3697C38.7113 17.7528 42.2851 15.1865 46.0533 12.9348H46.1107Z" fill="#204483"/>
<path d="M33.8218 15.2905L38.0244 8.5135L33.9011 0.499756C28.3269 0.872362 22.9154 2.53989 18.0937 5.3707C13.272 8.20151 9.17222 12.1181 6.11789 16.8113C3.06357 21.5045 1.13836 26.8457 0.494271 32.4134C-0.149821 37.9812 0.504829 43.6229 2.40654 48.8932C2.40654 48.8932 2.01006 9.38864 33.8362 15.3049" fill="#59B948"/>
<path d="M36.8447 0.499756C36.8447 0.499756 81.3651 10.9018 57.0925 52.5815L54.1865 56.9353L63.493 59.5161C67.9685 54.3853 70.8733 48.1105 71.8702 41.4202C72.8671 34.73 71.9152 27.8987 69.125 21.7194C66.3349 15.5402 61.8208 10.2664 56.107 6.5104C50.3932 2.75439 43.714 0.670188 36.8447 0.499756Z" fill="#204483"/>
<path d="M17.6539 46.6464L9.13753 45.3522L3.79492 51.8232C6.23453 57.005 9.88419 61.5318 14.4397 65.0263C18.9952 68.5209 24.3246 70.8818 29.9836 71.9125C35.6427 72.9431 41.4675 72.6136 46.9725 70.9514C52.4775 69.2891 57.5033 66.3423 61.631 62.3565C61.631 62.3565 22.4326 79.6844 17.6539 46.6464Z" fill="#59B948"/>
<path d="M94.6807 15.844H100.072V35.7733H100.262C101.374 34.183 102.493 32.7156 103.546 31.3638L116.318 15.844H123.011L107.884 33.3878L124.189 57.1555H117.803L104.044 36.8792L100.072 41.4116V57.1555H94.6807V15.844Z" fill="#59B948"/>
<path d="M133.626 19.218C133.626 20.1028 133.253 20.9513 132.589 21.5769C131.926 22.2025 131.026 22.554 130.088 22.554C129.15 22.554 128.25 22.2025 127.586 21.5769C126.923 20.9513 126.55 20.1028 126.55 19.218C126.537 18.7726 126.621 18.3294 126.796 17.9154C126.971 17.5014 127.233 17.1252 127.567 16.8098C127.9 16.4943 128.299 16.2462 128.738 16.0806C129.176 15.9149 129.646 15.8351 130.119 15.846C130.589 15.8303 131.059 15.9073 131.496 16.072C131.934 16.2368 132.33 16.4858 132.66 16.803C132.99 17.1203 133.247 17.4988 133.413 17.9147C133.579 18.3305 133.652 18.7744 133.626 19.218ZM127.262 57.1555V27.5507H132.99V57.1555H127.262Z" fill="#59B948"/>
<path d="M143.796 27.6976L147.663 42.6851C148.512 45.9598 149.275 49.0047 149.846 52.0209H150.024C150.688 49.0406 151.658 45.8736 152.621 42.6851L157.401 27.6473H161.874L166.397 42.4266C167.482 45.9598 168.331 49.0621 168.994 52.0424H169.18C169.747 48.8194 170.493 45.6308 171.413 42.4912L175.586 27.6976H180.844L171.413 57.1412H166.576L162.117 43.0944C161.085 39.9174 160.219 36.6886 159.52 33.4211H159.399C158.697 36.7157 157.809 39.967 156.738 43.1591L152.022 57.1555H147.185L138.353 27.712L143.796 27.6976Z" fill="#59B948"/>
<path d="M193.823 19.2178C193.823 20.1026 193.45 20.9511 192.787 21.5767C192.123 22.2023 191.223 22.5538 190.285 22.5538C189.347 22.5538 188.447 22.2023 187.784 21.5767C187.12 20.9511 186.747 20.1026 186.747 19.2178C186.735 18.7717 186.819 18.3279 186.994 17.9134C187.169 17.4989 187.432 17.1224 187.767 16.8069C188.101 16.4913 188.501 16.2434 188.94 16.0781C189.38 15.9129 189.85 15.8338 190.323 15.8457C190.794 15.8311 191.262 15.9088 191.699 16.074C192.136 16.2393 192.531 16.4884 192.86 16.8055C193.189 17.1226 193.445 17.5009 193.611 17.9162C193.776 18.3315 193.849 18.7748 193.823 19.2178ZM187.467 57.1555V27.5505H193.18V57.1555H187.467Z" fill="#59B948"/>
<path d="M209.974 20.398H197.369V15.844H228.058V20.398H215.387V57.1555H209.974V20.398Z" fill="#204483"/>
<path d="M230.805 43.9913C230.927 51.217 235.548 54.199 240.901 54.199C243.695 54.2838 246.476 53.7655 249.052 52.6793L249.963 56.5073C246.862 57.7935 243.525 58.4139 240.169 58.328C231.106 58.328 225.696 52.3711 225.696 43.5038C225.696 34.6365 230.941 27.6473 239.501 27.6473C249.109 27.6473 251.664 36.0917 251.664 41.4967C251.653 42.331 251.593 43.164 251.484 43.9913H230.805ZM246.497 40.1633C246.555 36.7584 245.098 31.4753 239.078 31.4753C233.661 31.4753 231.293 36.4931 230.87 40.1633H246.497Z" fill="#204483"/>
<path d="M279.896 56.6293C277.189 57.8113 274.251 58.3925 271.29 58.3315C262.261 58.3315 256.385 52.3055 256.385 43.2988C256.385 34.292 262.692 27.6483 272.444 27.6483C275.041 27.6216 277.614 28.1407 279.991 29.171L278.758 33.3152C276.816 32.3035 274.64 31.8083 272.444 31.8788C265.582 31.8788 261.867 36.9064 261.867 43.0187C261.867 49.8347 266.319 54.0364 272.261 54.0364C274.569 54.0585 276.852 53.5674 278.94 52.6L279.896 56.6293Z" fill="#204483"/>
<path d="M285.894 14.6637H291.189V32.3141H291.309C292.206 30.7281 293.518 29.4231 295.1 28.5427C296.743 27.5644 298.61 27.0392 300.516 27.0197C304.427 27.0197 310.68 29.455 310.68 39.62V57.1555H305.385V40.2306C305.385 35.4822 303.639 31.4665 298.649 31.4665C297.061 31.4973 295.522 32.0308 294.249 32.992C292.976 33.9532 292.033 35.2938 291.551 36.8255C291.262 37.6424 291.139 38.5097 291.189 39.3758V57.1555H285.894V14.6637Z" fill="#204483"/>
<path d="M314.072 15.8322H310.681V14.6637H318.943V15.8322H315.529V25.2866H314.042L314.072 15.8322Z" fill="#204483"/>
<path d="M329.167 20.6196C329.09 19.1395 329 17.3619 329.014 16.0376H328.972C328.61 17.2769 328.179 18.6013 327.65 20.0672L325.807 25.2229H324.791L323.101 20.1664C322.607 18.665 322.189 17.2982 321.89 16.0376C321.89 17.3619 321.779 19.1395 321.688 20.7329L321.41 25.2866H320.123L320.853 14.6637H322.572L324.353 19.8052C324.784 21.1083 325.139 22.2768 325.403 23.3816C325.668 22.3051 326.036 21.1437 326.502 19.8052L328.381 14.6637H330.099L330.746 25.2866H329.431L329.167 20.6196Z" fill="#204483"/>
</g>
<defs>
<clipPath id="clip0_637_2903">
<rect width="330.492" height="72" fill="white" transform="translate(0.253906 0.499756)"/>
</clipPath>
</defs>
</svg>
