<svg width="287" height="73" viewBox="0 0 287 73" fill="none" xmlns="http://www.w3.org/2000/svg">
<path d="M1.98257 0.965559C2.94427 0.573187 3.95983 0.957866 4.85229 1.33485C16.9159 6.68189 29.0102 11.9597 41.0661 17.3298C42.6664 17.8837 43.8127 19.6225 43.1126 21.3074C42.1586 23.1 40.4737 24.354 39.1042 25.8081C36.9731 27.7931 35.142 30.0858 32.8955 31.9399C31.5645 32.9016 29.9411 32.0322 28.941 31.0167C19.7856 22.6922 10.5379 14.4678 1.36708 6.15872C-0.456299 4.89698 -0.0485387 1.758 1.98257 0.965559ZM3.32895 2.86587C2.10567 4.0276 1.98257 6.10487 3.41358 7.1512C11.7227 14.7601 20.1626 22.2306 28.5178 29.7934C29.4872 30.9397 31.426 31.109 32.4031 29.878C35.0497 27.1776 37.7578 24.5387 40.3429 21.7844C41.7047 20.4842 41.1815 17.9991 39.3735 17.4144C28.764 12.5752 18.0237 8.01288 7.39118 3.23516C6.09865 2.72739 4.61379 1.84263 3.32895 2.86587Z" fill="white"/>
<path d="M85.9813 10.6211C88.474 10.6211 90.9667 10.6211 93.4671 10.6288C93.4902 16.3374 93.4671 22.0461 93.4825 27.7624C96.0214 27.7547 98.5603 27.7547 101.099 27.7624C101.107 30.3936 101.107 33.0171 101.107 35.6483C98.5603 35.656 96.0214 35.6483 93.4825 35.656C93.7133 39.8875 92.8978 44.2497 94.0365 48.3889C95.2059 52.4049 99.1681 54.8361 103.161 55.2669C103.161 57.875 103.161 60.4832 103.161 63.0913C94.2827 63.1913 86.3582 55.5977 86.0274 46.7501C85.9043 34.7097 86.012 22.6615 85.9813 10.6211Z" fill="white"/>
<path d="M144.014 10.5211C146.553 10.5211 149.091 10.5211 151.63 10.5211C151.638 20.4228 151.615 30.3167 151.638 40.2183C156.439 36.1638 161.009 31.8477 165.825 27.8163C169.78 27.2931 173.834 27.7547 177.827 27.6162C172.719 32.1016 167.571 36.5562 162.509 41.1031C167.564 48.4197 172.757 55.6516 177.758 63.0144C174.65 63.0067 171.541 63.0067 168.433 63.0298C164.502 57.4058 160.493 51.8356 156.685 46.127C155.016 47.6426 153.323 49.1275 151.615 50.597C151.646 54.7361 151.623 58.8752 151.63 63.0144C149.091 63.0144 146.553 63.0144 144.014 63.0221C144.014 45.5192 144.014 28.0163 144.014 10.5211Z" fill="white"/>
<path d="M183.66 30.3321C189.761 26.2083 198.639 27.07 203.825 32.3016C208.11 36.2023 209.895 42.2725 209.256 47.9427C200.639 47.9811 192.023 47.8811 183.413 48.0042C184.567 51.174 186.945 54.136 190.399 54.8592C194.254 55.9517 198.124 53.7975 200.401 50.7585C202.501 52.2126 204.579 53.6898 206.671 55.1516C203.601 59.5831 198.662 62.8605 193.169 62.999C185.937 63.4375 179.113 58.3598 176.712 51.6664C173.881 44.0651 176.666 34.6559 183.66 30.3321ZM184.529 40.0644C189.845 40.1568 195.169 40.1414 200.486 40.0875C198.601 37.5256 195.731 35.5175 192.43 35.5868C189.191 35.556 186.414 37.5871 184.529 40.0644Z" fill="white"/>
<path d="M217.226 42.8186C218.034 36.2175 222.935 30.2396 229.374 28.4239C231.767 27.67 234.306 27.8008 236.783 27.9393C236.729 30.632 236.722 33.3248 236.737 36.0175C230.859 34.0556 224.381 39.0872 224.589 45.2036C224.181 51.4201 230.651 56.6825 236.668 54.7898C236.691 57.4364 236.722 60.0753 236.783 62.7219V62.7989C232.536 63.3605 228.051 62.5604 224.535 60.0292C219.073 56.3055 216.249 49.312 217.226 42.8186Z" fill="white"/>
<path d="M113.563 39.4873C113.848 38.2256 115.609 37.6101 116.363 38.8564C118.094 40.926 120.703 42.6494 121.51 45.2498C116.994 51.497 111.755 57.2133 106.946 63.2528C105.908 62.8527 104.323 62.1603 105 60.7524C107.8 53.6435 110.686 46.5654 113.563 39.4873Z" fill="white"/>
<path d="M254.033 21.4459C256.479 15.1833 262.757 10.6364 269.535 10.5748C269.543 13.1753 269.543 15.7757 269.543 18.3761C266.989 18.7993 264.35 19.6071 262.696 21.7382C260.311 24.2694 260.149 27.9085 260.211 31.1859C262.765 31.1782 265.319 31.1782 267.881 31.1859C267.874 33.8094 267.881 36.4406 267.874 39.0718C265.335 39.0718 262.788 39.0718 260.249 39.0795C260.249 47.0578 260.249 55.0283 260.249 63.0066C257.749 63.0143 255.241 63.0143 252.748 62.9604C252.817 53.2049 252.756 43.4418 252.779 33.6863C252.833 29.5933 252.325 25.308 254.033 21.4459Z" fill="white"/>
<path d="M269.573 27.5162C269.673 18.6148 277.398 10.5442 286.407 10.598C286.414 13.1908 286.414 15.7758 286.407 18.3763C283.329 18.7302 280.206 20.1227 278.636 22.9309C276.974 25.3543 277.121 28.3856 277.074 31.1861C279.621 31.1861 282.168 31.1784 284.714 31.1861C284.737 33.8096 284.737 36.4408 284.722 39.072C282.191 39.072 279.659 39.072 277.128 39.0643C277.105 47.0425 277.128 55.0208 277.113 63.0067C274.589 63.0067 272.058 63.0144 269.535 62.9913C269.558 51.1663 269.481 39.3336 269.573 27.5162Z" fill="white"/>
<path d="M119.533 24.6618C120.471 22.7076 120.794 20.2995 122.41 18.7685C124.218 18.4377 124.572 20.438 125.218 21.6382C130.919 34.6865 136.859 47.6348 142.513 60.7062C143.275 61.9371 141.813 62.7527 141.021 63.3681C135.658 58.0288 130.611 52.3663 125.387 46.8885C122.064 43.2033 118.425 39.7873 115.324 35.9098C116.194 32.0014 118.217 28.4393 119.533 24.6618Z" fill="white"/>
<path d="M47.1438 20.746C48.3594 20.469 49.5288 21.0614 50.629 21.5154C58.8073 25.1929 67.0548 28.7088 75.2562 32.3402C77.2873 32.9634 77.7874 36.1024 76.064 37.3257C74.9869 38.1027 73.756 38.6336 72.5711 39.2106C49.8058 50.2663 27.0712 61.3989 4.2827 72.4161C1.48992 74.101 -1.24131 69.8387 0.997527 67.7999C10.2991 58.0983 19.7315 48.5198 29.11 38.8875C35.2341 32.9634 40.7273 26.3469 47.1438 20.746ZM44.8049 24.5697C32.9952 36.6332 21.224 48.7429 9.4451 60.8295C7.72943 62.6606 5.71371 64.2532 4.2827 66.3304C3.16712 68.2923 5.55983 71.1235 7.6448 69.8541C29.3792 59.4832 50.9213 48.6891 72.6712 38.3566C73.4174 36.7871 73.5944 34.5098 71.6248 33.7866C63.9389 30.3937 56.2376 27.0163 48.5286 23.6926C47.1899 22.7463 45.7281 23.4618 44.8049 24.5697Z" fill="white"/>
<path d="M236.783 27.9392C244.492 29.4241 250.501 36.6022 250.655 44.4419C251.317 52.8202 245.169 61.2986 236.783 62.7219C236.722 60.0753 236.691 57.4364 236.668 54.7898C240.176 53.2895 242.984 49.9428 243.092 46.0191C243.492 41.703 240.646 37.6562 236.737 36.0175C236.722 33.3247 236.73 30.632 236.783 27.9392Z" fill="white"/>
<path opacity="0.51" d="M157.4 11.89C159.385 14.5058 158.054 18.2757 158.415 21.3531C158.069 21.3608 157.369 21.3916 157.023 21.3993C156.977 18.2295 156.892 15.0367 157.4 11.89Z" fill="white"/>
<path opacity="0.51" d="M176.549 12.3824C178.742 12.1208 180.957 12.2824 183.166 12.2824C183.173 12.6286 183.189 13.321 183.196 13.6672C182.496 13.6749 181.096 13.6903 180.404 13.6903C180.35 16.1215 180.604 18.5757 180.304 20.9915C180.073 21.1915 179.596 21.5916 179.365 21.7916C179.273 19.0989 179.334 16.3984 179.319 13.7057C178.211 13.6826 177.103 13.6441 175.995 13.6057C176.134 13.3056 176.411 12.6901 176.549 12.3824Z" fill="white"/>
<path opacity="0.51" d="M230.482 13.598C230.536 12.8594 230.874 12.2747 231.513 11.8285C232.167 14.6982 230.443 18.6142 233.352 20.5453C234.406 20.7761 235.352 20.0606 236.314 19.7452C236.575 17.4371 236.46 15.1136 236.744 12.8133C236.983 12.6132 237.46 12.2132 237.691 12.0208C237.698 14.6597 238.329 17.5294 237.26 20.0298C236.329 21.9379 234.013 21.3301 232.313 21.5455C230.105 19.499 230.336 16.3369 230.482 13.598Z" fill="white"/>
<path opacity="0.91" d="M165.01 14.5988C165.664 11.8522 169.557 11.9061 171.188 13.7218C169.473 13.7295 166.034 12.4369 165.987 15.1912C167.211 17.1377 171.142 16.2376 171.219 19.0688C170.827 22.4232 165.957 22.0078 164.349 19.7458C166.218 20.3152 170.68 21.8231 170.103 18.361C168.403 17.1223 164.733 17.4762 165.01 14.5988Z" fill="white"/>
<path opacity="0.91" d="M191.799 12.0138C193.723 15.0374 194.977 18.4148 196.308 21.7231C195.146 21.2769 194.669 20.1844 194.246 19.1073C192.73 19.0765 191.214 19.0688 189.699 19.0765C189.106 20.0382 188.676 21.2307 187.521 21.6923C188.76 18.3918 190.222 15.1682 191.799 12.0138ZM189.907 18.2918C191.23 18.2918 192.561 18.2918 193.892 18.2918C193.23 16.7453 192.584 15.1912 191.922 13.6525C191.245 15.1912 190.568 16.7376 189.907 18.2918Z" fill="white"/>
<path opacity="0.91" d="M202.409 12.0368C204.687 14.3449 206.472 17.0684 208.549 19.5534C208.718 17.0145 207.926 14.2372 209.272 11.9214C209.541 15.1912 209.457 18.4763 209.372 21.7461C206.887 19.6534 205.302 16.7606 203.217 14.3064C203.194 16.676 203.202 19.0379 203.194 21.4076L202.348 21.3691C202.332 18.2532 202.309 15.145 202.409 12.0368Z" fill="white"/>
<path opacity="0.91" d="M216.758 12.5676C218.781 12.5907 221.105 12.006 222.867 13.2677C224.044 14.1679 223.359 15.7066 222.905 16.7837C223.567 17.6762 224.29 18.6609 223.951 19.8458C222.474 22.3 219.166 21.1306 216.835 21.3922C216.85 18.4532 216.858 15.5066 216.758 12.5676ZM217.82 13.3678C217.82 14.1833 217.812 15.8066 217.812 16.6145C219.381 16.3375 221.905 17.1607 222.605 15.2065C222.728 12.6523 219.443 13.6909 217.82 13.3678ZM217.82 17.3453C217.812 18.4378 217.812 19.5303 217.804 20.6228C219.643 20.4151 222.366 21.2768 223.244 19.0379C222.72 16.5298 219.628 17.6608 217.82 17.3453Z" fill="white"/>
<path opacity="0.91" d="M244.977 21.3768C245.123 18.1994 244.454 14.8835 245.577 11.8214C246.262 14.6834 246 17.6378 246.008 20.5536C247.724 20.7152 249.709 20.1151 251.186 21.2614C249.116 21.4307 247.047 21.3922 244.977 21.3768Z" fill="white"/>
</svg>
