<svg width="194" height="126" viewBox="0 0 194 126" fill="none" xmlns="http://www.w3.org/2000/svg">
<path d="M35.5355 35.5614C44.5258 35.5215 53.5162 35.5747 62.5092 35.5374C65.3854 35.6119 68.2695 35.4177 71.1431 35.6199C71.5501 38.6451 72.0663 41.6756 71.9865 44.738C71.3373 44.7194 70.5231 44.9029 70.0362 44.3522C69.4775 43.6258 69.2141 42.7265 68.7298 41.9549C67.2798 39.6508 64.7043 38.0837 61.9771 37.932C60.3887 37.8442 58.8003 37.7591 57.2118 37.7484C56.8979 41.6569 57.0522 45.5814 57.0229 49.4979C56.9724 53.8161 57.1081 58.1344 57.297 62.45C57.3848 63.7058 58.0367 64.8153 58.4224 65.9887C58.6193 64.6583 58.7151 63.1551 59.7288 62.152C61.7563 60.0208 64.7202 59.1055 67.5618 58.7384C70.8983 58.4723 74.4529 58.6825 77.4089 60.4039C78.3721 60.9228 79.0106 61.8301 79.713 62.6389C81.3813 58.4324 82.3258 53.9864 83.7838 49.7107C84.5395 47.2417 85.0849 44.7114 85.8592 42.2449C86.096 41.17 86.5882 40.0739 86.378 38.959C85.2126 37.0327 82.5147 38.4588 81.0593 36.9981C81.6074 36.6283 82.1662 36.2319 82.8313 36.1201C85.8592 35.58 88.9402 35.4682 92.0106 35.5135C91.9574 37.924 91.0554 40.1962 90.3158 42.4605C89.3739 44.871 88.7992 47.404 87.8493 49.8145C87.2427 51.3231 87.0059 52.9488 86.3993 54.46C85.8113 55.8116 85.5718 57.2856 85.5585 58.757C85.4281 58.592 85.3004 58.4297 85.17 58.2701C84.6432 61.4443 83.5178 64.4694 82.6823 67.5664C81.775 70.8869 80.6576 74.1702 80.0589 77.5625C81.807 77.2406 83.0655 75.9049 84.3985 74.846C85.7102 73.7924 86.8197 72.5073 87.6498 71.0439C86.2662 67.1381 86.0002 62.9129 86.4951 58.8208C86.6414 57.6927 86.676 56.5353 87.0538 55.4551C87.9744 53.0871 89.0094 50.6526 90.9277 48.9072C92.6225 47.4279 94.6979 46.361 96.8902 45.8448C100.668 45.0706 104.87 45.2967 108.161 47.4864C111.715 49.5564 113.402 53.7417 113.714 57.6821C113.785 59.1987 114.017 60.7818 113.575 62.2611C112.663 63.0859 111.322 63.1391 110.151 63.187C104.069 63.2216 97.9838 63.1551 91.8988 63.203C92.0372 65.6481 92.5188 68.189 93.8784 70.267C95.2539 72.2785 97.6432 73.4731 100.054 73.5848C102.294 73.6966 104.593 73.7072 106.751 73.0048C108.725 72.3902 110.819 71.7171 112.891 72.313C112.926 72.9702 112.953 73.6301 112.982 74.2899C114.483 73.3241 115.901 72.1029 117.705 71.749C119.7 71.2701 121.602 72.2678 123.452 72.8691C123.992 70.8231 124.306 68.7025 125.184 66.7603C124.319 66.3026 123.154 65.9913 122.85 64.9324C123.827 64.1954 125.178 64.3763 126.205 63.767C126.996 61.9179 127.624 59.9303 129.058 58.451C130.313 59.5153 130.337 61.2341 130.446 62.7427C131.093 63.171 132.237 63.3466 132.423 64.1475C131.556 64.8712 130.364 64.9723 129.435 65.5816C128.988 65.9993 128.829 66.6192 128.619 67.17C127.706 69.9477 126.437 72.651 126.064 75.575C125.894 76.7005 126.485 77.7142 127.198 78.5283C128.315 77.4002 129.326 76.1284 129.904 74.6331C130.282 73.8349 130.441 72.9117 131.008 72.2199C131.452 72.196 131.897 72.2279 132.344 72.2465C132.825 74.8114 131.447 77.3843 129.438 78.9115C128.243 79.8188 126.674 79.7842 125.253 79.9278C125.115 82.8253 125.218 85.7281 125.327 88.6255C125.256 89.2322 125.436 90.1581 124.705 90.4135C123.273 90.8499 121.733 90.6796 120.277 90.4641C119.998 86.67 120.277 82.8546 120.115 79.0552C120.03 78.0308 119.697 76.8149 118.668 76.3626C117.159 75.6149 115.486 76.6739 114.504 77.81C113.49 78.8529 113.94 80.3988 113.889 81.6945C113.855 84.6 114.009 87.5107 113.793 90.4108C112.138 90.7594 110.433 90.7168 108.765 90.4907C108.618 86.0713 108.783 81.6466 108.682 77.2246C106.527 77.7035 104.377 78.3182 102.15 78.3182C100.014 78.3208 97.8295 78.3261 95.7674 77.6982C92.7104 76.8441 90.079 74.7582 88.2192 72.2279C88.2085 72.9622 87.9957 73.6833 87.5141 74.25C86.386 75.6761 85.0982 76.9905 83.6455 78.0867C82.6956 78.8263 81.5196 79.1483 80.466 79.6911C79.8966 79.9279 80.0749 80.6622 80.0403 81.1571C80.1946 82.9903 80.45 84.8341 81.0008 86.5955C81.2083 87.1356 81.3759 87.846 82.0012 88.0482C83.2437 88.4686 84.59 88.1945 85.8645 88.4526C86.3301 88.9528 85.774 89.5967 85.3935 89.9639C84.3293 90.5093 83.0734 90.331 81.9187 90.472C79.7529 90.5918 77.353 91.0228 75.4028 89.8149C74.7589 88.7745 74.8733 87.4602 74.6046 86.2975C72.9017 88.3834 70.579 90.0916 67.8518 90.4534C65.6036 90.7461 63.193 90.9057 61.0485 90.0277C58.7284 88.9049 57.0203 86.4518 57.0921 83.8284C56.9032 80.6382 58.5821 77.3364 61.4423 75.8304C64.3637 74.1702 67.6709 73.3959 70.7546 72.1055C72.3191 71.4084 74.0352 70.5038 74.6179 68.7664C75.2245 66.8188 74.7855 64.6583 73.8915 62.8677C73.0348 61.5613 71.5714 60.5104 69.9564 60.5396C68.7192 60.5662 67.2878 60.3427 66.2607 61.1995C64.7655 62.3489 64.4595 64.3577 64.1535 66.1004C63.9726 67.0104 64.0072 68.0267 63.4591 68.8196C62.2591 68.9473 61.0485 68.801 59.8459 68.8063C54.9663 68.7691 50.0839 68.8116 45.2016 68.801C44.5099 68.809 43.7888 68.6972 43.2301 68.2609C43.0518 67.8378 43.544 67.7341 43.8394 67.6356C45.3453 67.2445 47.1359 67.3429 48.3173 66.1722C49.488 64.818 49.5305 62.8996 49.5811 61.2021C49.5864 56.2373 49.6157 51.2699 49.5438 46.3078C49.4135 43.9983 49.3177 41.6862 49.1846 39.3794C49.1208 38.8207 49.158 38.2274 48.9159 37.7112C47.2344 37.7378 45.5555 37.9054 43.8793 38.0517C41.3384 38.2806 39.0688 39.9115 37.8077 42.0959C37.2543 42.9287 37.0387 43.9557 36.3949 44.7273C35.8175 44.8072 35.2348 44.7805 34.6548 44.7885C34.7532 41.6995 35.3732 38.6504 35.5355 35.5614ZM96.4539 50.9533C93.5884 52.3821 92.3591 55.6893 91.9201 58.6692C97.3585 58.741 102.8 58.7357 108.238 58.6772C108.046 56.844 107.78 54.9469 106.82 53.3372C105.822 51.7488 104.215 50.4238 102.299 50.2056C100.341 50.0087 98.2099 49.9076 96.4539 50.9533ZM69.1848 75.3435C67.1654 76.4903 64.9038 77.6131 63.7571 79.7443C62.307 82.1681 62.911 85.5711 65.0768 87.3697C66.4284 88.4526 68.3494 88.3808 69.8553 87.6677C72.0956 86.6008 73.9394 84.5521 74.4503 82.083C75.2218 78.7385 74.8494 75.2664 74.7083 71.8714C73.0002 73.2283 71.1138 74.3325 69.1848 75.3435Z" fill="#180000"/>
<path d="M132.559 41.0502C135.632 38.488 139.706 37.3572 143.662 37.4131C147.39 37.4264 151.274 37.9958 154.502 39.978C155.18 40.4223 155.997 40.9358 156.101 41.8218C156.322 43.4422 156.244 45.0918 156.066 46.7148C154.169 47.1352 152.692 45.7383 151.088 45.0199C148.079 43.6151 144.636 42.6466 141.326 43.4767C139.642 43.9291 137.944 44.7432 136.877 46.1693C135.733 47.9945 135.121 50.3359 135.938 52.4139C136.744 55.1517 139.224 56.8811 141.584 58.2195C146.017 60.5928 151.006 62.0801 154.837 65.4644C157.189 67.6542 158.998 70.69 159.006 73.9812C158.998 76.0751 159.179 78.2462 158.431 80.2524C157.615 82.49 156.468 84.7063 154.648 86.2947C151.679 88.8782 147.805 90.3762 143.878 90.5598C140.384 90.6955 136.779 90.7567 133.44 89.5514C131.575 88.8623 129.617 88.1998 128.087 86.8854C126.732 85.744 127.078 83.7831 127.086 82.2159C127.201 81.612 127.033 80.6355 127.786 80.4227C128.786 80.0555 129.803 80.6222 130.617 81.1703C132.264 82.3117 134.134 83.0753 136.007 83.7671C138.192 84.5839 140.562 84.5121 142.856 84.4828C145.753 84.4722 148.725 83.1418 150.399 80.7286C152.474 77.7886 152.214 73.2735 149.422 70.8735C146.049 67.8856 141.629 66.6085 137.737 64.48C134.169 62.7798 130.995 60.0314 129.305 56.4102C128.278 54.2577 128.353 51.8099 128.425 49.4845C128.595 46.2678 130.117 43.1495 132.559 41.0502Z" fill="#180000"/>
</svg>
