<svg width="194" height="126" viewBox="0 0 194 126" fill="none" xmlns="http://www.w3.org/2000/svg">
<path d="M98.1655 21.082C114.383 21.0862 130.601 21.082 146.819 21.0862C146.806 40.0366 146.819 58.9871 146.814 77.9333C146.802 80.5331 146.939 83.1745 146.337 85.7245C144.975 92.3195 140.672 98.2917 134.712 101.477C128.757 104.633 121.522 105.373 115.077 103.358C107.215 100.896 100.873 94.1926 98.8922 86.1855C98.3316 83.893 98.1198 81.5216 98.1613 79.1668C98.1738 59.8052 98.1655 40.4436 98.1655 21.082ZM121.842 29.4961C121.879 30.7421 121.9 32.0004 121.709 33.2381C120.364 32.9058 119.583 31.7014 118.636 30.8002C118.407 30.9954 117.951 31.3858 117.722 31.581C118.495 32.5237 119.45 33.3045 120.181 34.2888C119.425 35.5804 117.581 34.6833 116.352 34.92C116.352 35.2398 116.352 35.8794 116.352 36.1992C117.519 36.1992 118.69 36.195 119.857 36.1743C120.027 36.7682 120.384 37.5033 119.815 38.0058C119.022 38.4211 118.162 38.6952 117.357 39.0856C117.647 39.3887 117.938 39.6878 118.229 39.9909C119.637 39.7376 120.733 38.853 121.83 38.0016C121.871 39.2102 121.859 40.4229 121.842 41.6314C122.262 41.6605 122.685 41.6895 123.109 41.7186C123.117 40.6264 123.109 39.5341 123.088 38.4418C123.304 38.3006 123.736 38.0182 123.952 37.877C124.753 38.7242 125.58 39.5466 126.435 40.3356C126.651 40.1363 127.087 39.7418 127.303 39.5424C126.531 38.6453 125.688 37.8106 124.824 37.0049C125.488 35.5222 127.415 36.4193 128.678 36.195C128.682 35.8794 128.686 35.2481 128.69 34.9325C127.536 34.9159 126.369 35.0363 125.227 34.8411C124.928 34.3095 124.733 33.5869 125.235 33.1135C125.954 32.7272 126.763 32.5445 127.507 32.2039C127.361 31.934 127.075 31.3858 126.934 31.1117C125.572 31.4024 124.313 32.0337 123.499 33.1965C122.851 32.0461 123.167 30.6922 123.125 29.438C122.693 29.4546 122.266 29.4754 121.842 29.4961ZM111.758 56.5575C110.542 58.4388 110.18 60.777 110.716 62.9491C111.43 66.7491 114.151 69.9262 117.581 71.6082C117.593 72.4015 117.606 73.1947 117.627 73.9879C113.403 74.1208 109.171 73.9921 104.947 74.0502C104.968 76.6459 104.976 79.2457 104.939 81.8414C116.63 81.912 128.329 81.7625 140.02 81.9161C140.12 79.2706 140.145 76.621 140.008 73.9796C135.834 74.1208 131.656 74.0004 127.482 74.0461C127.486 73.2113 127.494 72.3765 127.503 71.5418C131.959 69.5068 135.057 64.6061 134.501 59.6723C134.015 56.9853 132.196 54.7883 130.364 52.8654C127.976 50.5106 125.318 48.405 122.428 46.7023C118.445 49.4558 114.346 52.3671 111.758 56.5575Z" fill="#0D4C9C"/>
<path d="M61.1157 30.7628C61.3525 30.7378 61.8217 30.6963 62.0585 30.6714C62.0751 32.7188 62.0709 34.7622 62.0585 36.8096C61.8217 36.7805 61.3441 36.7266 61.1074 36.6975C61.1448 34.7206 61.1406 32.7396 61.1157 30.7628Z" fill="#0D4C9C"/>
<path d="M50.2432 32.9224C50.4758 32.9265 50.9409 32.9348 51.1735 32.939C51.1735 33.944 51.186 34.9532 51.2233 35.9583C51.5057 35.9292 52.0706 35.8711 52.3571 35.842C52.3488 34.8702 52.3488 33.8984 52.353 32.9307L53.1794 32.9473C53.1794 33.9399 53.1753 34.9325 53.1711 35.925C53.4577 35.9334 54.0349 35.95 54.3215 35.9541C54.3298 34.9325 54.3298 33.9108 54.363 32.8892C54.5832 32.9058 55.0275 32.9431 55.2518 32.9598C55.2476 34.2181 55.2518 35.4807 55.2767 36.739C53.9394 36.7224 52.598 36.7183 51.269 36.8844C51.2566 38.8197 48.9391 39.3264 47.5396 38.5166C46.684 37.9268 46.846 36.8097 46.7588 35.9126C46.9831 35.9126 47.4357 35.9084 47.66 35.9084C47.8095 36.5771 47.6766 37.4824 48.4491 37.8147C49.0928 38.1552 49.7781 37.7732 50.1435 37.2208C50.3346 35.7963 50.2058 34.3552 50.2432 32.9224Z" fill="#0D4C9C"/>
<path d="M58.1173 32.9099C58.3499 32.9182 58.8109 32.939 59.0435 32.9514C59.0019 34.5628 59.1764 36.1908 58.9479 37.7939C58.4662 39.0066 57.0334 38.7242 55.9993 38.774C55.9993 38.5498 55.9951 38.1012 55.9951 37.877C56.697 37.7482 57.6937 38.0556 58.055 37.2333C58.1755 35.7963 58.0758 34.351 58.1173 32.9099Z" fill="#0D4C9C"/>
<path d="M64.5088 33.8986C67.4658 33.774 70.4352 33.7781 73.3922 33.8736C74.5011 33.9193 74.9496 35.0116 75.2195 35.917C78.1308 35.9045 81.0421 35.9086 83.9534 35.9128C84.1569 34.3803 85.5357 33.6369 86.9852 33.8197C86.9852 34.8288 86.9852 35.838 86.981 36.8472C81.1916 36.7974 75.3981 36.9303 69.6046 36.8805C67.9807 36.8265 66.3278 37.0549 64.7247 36.7019C64.7206 36.5358 64.7164 36.2035 64.7164 36.0374C67.8479 35.7259 71.0166 36 74.1647 35.9086C74.1148 35.6595 74.0151 35.1611 73.9653 34.9119C70.9917 34.6544 68.0057 34.9285 65.0279 34.7707C64.8992 34.5547 64.6375 34.1187 64.5088 33.8986ZM85.2367 34.9576C85.1453 35.1985 84.9543 35.6761 84.8588 35.917C85.1869 35.9211 85.8431 35.9294 86.167 35.9336C86.1545 35.6387 86.1296 35.049 86.1213 34.7541C85.8971 34.8039 85.4568 34.9078 85.2367 34.9576Z" fill="#0D4C9C"/>
<path d="M78.8536 40.5722C78.6169 39.8454 79.6676 39.916 80.1079 39.9783C80.0954 40.3604 80.0829 40.7466 80.0705 41.1287C79.6427 41.0747 78.8287 41.2491 78.8536 40.5722Z" fill="#0D4C9C"/>
<path d="M83.0853 41.6892C83.3055 41.6851 83.7498 41.6768 83.9699 41.6726C83.999 43.7242 83.9824 45.7758 83.9907 47.8275C74.1521 47.8067 64.3135 47.8358 54.4749 47.815C53.5654 46.2244 52.7514 44.5798 51.7671 43.0307C51.5553 42.4326 50.38 42.6361 50.6292 43.3089C51.2854 44.912 52.4482 46.2493 53.121 47.8524C51.0154 47.8067 48.914 47.8108 46.8125 47.8358C46.8084 47.6032 46.7959 47.1422 46.7876 46.9096C48.3699 46.9221 49.9522 46.9221 51.5345 46.9179C50.8451 45.7302 50.1599 44.5341 49.3833 43.4003C49.6989 42.8106 50.0228 42.2291 50.3592 41.656C50.9407 41.6768 51.5179 41.7017 52.0952 41.7225C53.0919 43.4335 54.0596 45.157 55.0563 46.8681C56.9751 46.8847 58.8938 46.8681 60.8125 46.8847C60.2643 45.7302 59.8739 44.4925 59.1679 43.4252C58.6114 42.9185 57.76 43.2549 57.0955 43.122C57.2782 42.0713 58.6321 42.1502 59.3838 42.4409C60.7211 43.5955 60.555 45.834 62.1539 46.756C63.1922 47.0176 64.2844 46.8639 65.3435 46.893C65.3393 45.8215 65.3393 44.75 65.3269 43.6827C65.5387 43.6495 65.9581 43.5872 66.1699 43.5581C66.1865 43.8945 66.2198 44.5673 66.2364 44.9037C68.8694 44.9535 71.5025 44.8456 74.1272 44.9452C75.1904 44.9494 75.5891 46.0666 75.859 46.9013C76.9097 46.9221 77.9605 46.9304 79.0153 46.8972C78.6499 45.888 77.3292 45.2235 77.6698 44.0191C77.9771 43.2799 78.6457 42.7483 79.3061 42.333C80.2779 42.4659 80.9299 43.475 81.395 44.2641C81.3618 45.3564 80.1616 45.8797 79.9913 46.9221C81.0213 46.9304 82.0512 46.9221 83.0812 46.9138C83.0687 45.1737 83.0646 43.4294 83.0853 41.6892ZM79.0735 43.6869C78.9281 43.9693 78.6333 44.5341 78.4838 44.8165C79.0901 44.9577 79.7089 44.9951 80.3236 44.9037C80.2239 44.2766 79.9166 43.284 79.0735 43.6869ZM66.2073 45.7758C66.2073 46.0583 66.2073 46.6189 66.2073 46.8972C69.1435 46.893 72.0797 46.9262 75.0118 46.8806C74.7502 46.1372 74.1812 45.564 73.3423 45.7634C70.9626 45.7675 68.5829 45.7758 66.2073 45.7758Z" fill="#0D4C9C"/>
<path d="M86.0593 41.7352C86.2794 41.702 86.7114 41.6314 86.9315 41.5981C87.0519 43.3798 86.8816 45.1739 87.1059 46.9514C87.7206 46.9431 88.3352 46.9348 88.9499 46.9307L88.9249 47.8153C87.9656 47.8194 87.0062 47.8194 86.0469 47.8236C86.0552 45.7927 86.0427 43.7619 86.0593 41.7352Z" fill="#0D4C9C"/>
<path d="M46.833 51.3539C47.0324 51.1753 47.2317 50.9967 47.4352 50.8223C48.1288 50.9261 48.8348 50.9178 49.5242 50.7642C49.8814 51.2168 49.9935 51.7194 49.4702 52.1014C48.8306 51.7152 48.0831 51.7609 47.4144 52.0184C47.2192 51.7983 47.024 51.574 46.833 51.3539Z" fill="#0D4C9C"/>
<path d="M80.0415 52.2671C80.6645 51.6109 81.2625 50.1781 82.3714 50.7845C82.0599 51.0669 81.7027 51.2911 81.3622 51.5362C81.5823 51.6981 82.0225 52.0221 82.2426 52.1799C81.5449 52.4997 80.7724 52.3128 80.0415 52.2671Z" fill="#0D4C9C"/>
<path d="M83.073 50.6394C83.3014 50.6353 83.7541 50.6353 83.9825 50.6311C83.9825 52.6952 84.0074 54.7592 83.9576 56.8233C82.6494 56.8026 81.3412 56.8067 80.033 56.815C79.9997 56.1007 80.2697 55.6231 81.0795 55.6978C81.0671 54.8672 81.0546 54.0366 81.0463 53.206C81.2747 53.1894 81.7316 53.152 81.96 53.1312C82.122 54.1861 81.3495 56.1173 83.0772 55.9055C83.0772 54.1487 83.0689 52.3962 83.073 50.6394Z" fill="#0D4C9C"/>
<path d="M86.0342 50.6934C86.2668 50.6685 86.7319 50.6187 86.9603 50.5979C86.9977 52.3339 86.9894 54.074 86.9811 55.8141C87.5833 55.81 88.1855 55.8058 88.7877 55.8017C88.8541 56.0176 88.9787 56.4496 89.041 56.6655C88.0401 56.8275 87.0185 56.8524 86.0176 56.6697C86.0716 54.6762 86.055 52.6869 86.0342 50.6934Z" fill="#0D4C9C"/>
<path d="M69.5049 50.5605C69.7499 50.6228 70.24 50.7433 70.485 50.8056C70.5806 52.4793 70.4892 54.1613 70.51 55.8391C71.1786 55.8225 71.8514 55.8059 72.52 55.7809C72.5367 54.5226 73.3714 53.6047 74.472 53.1022C74.4678 52.5872 74.4637 52.0681 74.4595 51.5531C74.7129 51.5531 75.2154 51.5531 75.4687 51.5531C75.4853 51.9144 75.5185 52.6412 75.5352 53.0067C76.0709 53.5092 76.8683 53.7792 77.1673 54.4976C77.4746 55.212 77.811 55.9222 78.3759 56.4787C77.4871 56.8109 76.5444 56.8524 75.6099 56.8109C75.3732 57.5792 75.2569 58.7545 74.202 58.7545C73.2261 58.9622 72.6031 58.1067 72.5242 57.2428C73.1098 57.4422 73.6787 57.7287 74.2975 57.8201C74.3848 57.5792 74.5633 57.0933 74.6506 56.8524C65.3726 56.7486 56.0864 56.84 46.8043 56.8109C46.9081 55.9886 46.5634 54.9503 47.1988 54.29C48.0336 53.7958 48.9639 53.4968 49.836 53.0856C49.836 53.9951 49.8277 54.9088 49.8111 55.8225C55.1395 55.8225 60.4637 55.8225 65.7921 55.8225C65.7755 54.9213 65.763 54.02 65.7547 53.1188C67.4118 52.9153 66.6227 54.8216 66.7847 55.8266C67.6983 55.8225 68.612 55.8225 69.5215 55.8225C69.5132 54.0699 69.5091 52.3131 69.5049 50.5605ZM73.3216 55.7809C73.6123 55.7976 74.1979 55.8266 74.4886 55.8432C74.4761 55.2494 74.4595 54.6555 74.4346 54.0616C73.8989 54.5184 73.5666 55.1331 73.3216 55.7809ZM75.5352 53.9993C75.5102 54.6181 75.4895 55.2369 75.4812 55.8557C75.7885 55.8349 76.4031 55.7893 76.7105 55.7685C76.4696 55.0874 76.1 54.4644 75.5352 53.9993ZM48.1499 54.7261C47.286 54.8631 47.7055 56.109 48.478 55.8599C49.3792 55.7602 48.9514 54.4104 48.1499 54.7261Z" fill="#0D4C9C"/>
<path d="M121.26 56.9477C123.781 56.0091 126.689 58.2518 126.352 60.9222C126.211 63.8584 122.286 65.5778 120.089 63.5553C117.751 61.8359 118.486 57.7659 121.26 56.9477Z" fill="#0D4C9C"/>
<path d="M65.2355 59.5602C64.7288 59.1532 64.7413 58.6092 65.2023 58.1814C65.8958 58.4264 66.6392 58.414 67.3411 58.2105C67.7107 58.6258 67.7522 59.0743 67.3411 59.4813C66.6517 59.2529 65.8917 59.1657 65.2355 59.5602Z" fill="#0D4C9C"/>
<path d="M121.841 29.4964C122.265 29.4756 122.693 29.4548 123.125 29.4382C123.166 30.6925 122.851 32.0464 123.498 33.1968C124.312 32.0339 125.571 31.4026 126.933 31.1119C127.074 31.386 127.361 31.9342 127.506 32.2042C126.763 32.5447 125.953 32.7275 125.234 33.1137C124.732 33.5871 124.927 34.3098 125.226 34.8414C126.368 35.0366 127.535 34.9161 128.69 34.9327C128.686 35.2484 128.682 35.8796 128.677 36.1953C127.415 36.4195 125.488 35.5225 124.823 37.0051C125.687 37.8108 126.53 38.6456 127.303 39.5426C127.087 39.742 126.651 40.1365 126.435 40.3359C125.579 39.5468 124.753 38.7245 123.951 37.8773C123.735 38.0185 123.303 38.3009 123.087 38.4421C123.108 39.5343 123.116 40.6266 123.108 41.7188C122.684 41.6898 122.261 41.6607 121.841 41.6316C121.858 40.4231 121.87 39.2104 121.829 38.0019C120.733 38.8532 119.636 39.7378 118.228 39.9912C117.938 39.688 117.647 39.389 117.356 39.0858C118.162 38.6954 119.021 38.4213 119.815 38.006C120.384 37.5035 120.027 36.7684 119.856 36.1745C118.689 36.1953 117.518 36.1994 116.351 36.1994C116.351 35.8796 116.351 35.2401 116.351 34.9203C117.58 34.6836 119.424 35.5806 120.18 34.289C119.449 33.3047 118.494 32.524 117.722 31.5812C117.95 31.386 118.407 30.9956 118.635 30.8004C119.582 31.7017 120.363 32.906 121.709 33.2383C121.9 32.0007 121.879 30.7423 121.841 29.4964Z" fill="#F1B700"/>
<path d="M111.758 56.5574C114.346 52.3669 118.445 49.4556 122.427 46.7021C125.318 48.4049 127.976 50.5105 130.364 52.8653C132.195 54.7882 134.015 56.9851 134.5 59.6722C135.057 64.606 131.959 69.5066 127.503 71.5416C127.494 72.3764 127.486 73.2112 127.482 74.0459C131.656 74.0002 135.834 74.1207 140.007 73.9795C140.144 76.6208 140.12 79.2705 140.02 81.916C128.329 81.7623 116.63 81.9118 104.939 81.8412C104.976 79.2456 104.968 76.6457 104.947 74.0501C109.171 73.9919 113.403 74.1207 117.627 73.9878C117.606 73.1945 117.593 72.4013 117.581 71.6081C114.15 69.9261 111.43 66.749 110.716 62.9489C110.18 60.7769 110.541 58.4387 111.758 56.5574ZM121.26 56.9478C118.486 57.7659 117.751 61.8359 120.089 63.5553C122.286 65.5778 126.211 63.8585 126.352 60.9222C126.689 58.2518 123.781 56.0092 121.26 56.9478Z" fill="#DD4539"/>
</svg>
