<svg width="195" height="126" viewBox="0 0 195 126" fill="none" xmlns="http://www.w3.org/2000/svg">
<rect x="75.1729" y="27.4924" width="35.4882" height="35.4882" fill="white"/>
<path d="M41.4974 70.1788L40.3936 69.0537L39.291 70.1788L40.3936 71.3038L41.4974 70.1788Z" fill="#0F2837"/>
<path d="M38.8936 70.1788L37.7898 69.0537L36.686 70.1788L37.7898 71.3038L38.8936 70.1788Z" fill="#0F2837"/>
<path d="M60.0384 70.0884L58.9358 68.9634L57.832 70.0884L58.9358 71.2135L60.0384 70.0884Z" fill="#0F2837"/>
<mask id="mask0_1_26072" style="mask-type:luminance" maskUnits="userSpaceOnUse" x="35" y="23" width="125" height="79">
<path d="M159.206 23.9038H35.6978V101.659H159.206V23.9038Z" fill="white"/>
</mask>
<g mask="url(#mask0_1_26072)">
<path d="M61.0613 74.0588C60.9411 73.7639 60.7607 73.4973 60.5315 73.2761C60.3024 73.0549 60.0297 72.8839 59.7307 72.7742C59.4317 72.6644 59.1131 72.6182 58.7953 72.6386C58.4775 72.659 58.1674 72.7454 57.8849 72.8925C57.5497 73.0656 57.2553 73.3081 57.0211 73.6038C56.7682 73.9242 56.5724 74.2857 56.4423 74.6726C56.2977 75.0937 56.2254 75.5362 56.2286 75.9814C56.2075 76.3287 56.2556 76.6768 56.3702 77.0053C56.4848 77.3339 56.6636 77.6364 56.8961 77.8952C57.1391 78.1304 57.4282 78.3126 57.7451 78.4305C58.062 78.5484 58.3999 78.5994 58.7375 78.5803C59.0772 78.5824 59.4151 78.5287 59.7375 78.4215C60.0377 78.3228 60.3182 78.1722 60.5663 77.9765V79.2266C60.5663 79.4641 60.1746 79.642 59.3912 79.7603C58.6074 79.8853 45.2355 79.9379 43.693 79.9379H43.2904C42.8435 79.9768 42.3968 79.8607 42.0254 79.6091C41.8835 79.4673 41.7759 79.2948 41.7109 79.105C41.6459 78.9152 41.6252 78.7131 41.6504 78.514L41.7216 72.48L40.3153 72.73V73.8163C39.1025 74.0168 37.9534 74.4984 36.9601 75.2226C36.5905 75.4894 36.2892 75.8398 36.0806 76.2451C35.8721 76.6505 35.7622 77.0994 35.7601 77.5552C35.7543 77.8969 35.8287 78.2352 35.9771 78.543C36.1256 78.8509 36.3441 79.1196 36.6151 79.3278C36.8891 79.5369 37.1993 79.6937 37.5302 79.7903C37.8952 79.8991 38.2743 79.953 38.6552 79.9504C39.2701 79.9652 39.878 79.8177 40.4178 79.5228C40.6186 80.8646 41.5741 81.535 43.2842 81.5342H43.6942C44.3192 81.5342 57.0836 81.5254 57.5586 81.5079C58.0337 81.4904 58.4549 81.4579 58.8237 81.4104C59.1437 81.3715 59.4613 81.3147 59.775 81.2404C60.0295 81.1802 60.277 81.0939 60.5138 80.9829C60.9431 80.801 61.2912 80.4684 61.4926 80.0479C61.7098 79.4776 61.8065 78.8685 61.7764 78.259C61.8542 76.8226 61.6077 75.387 61.0551 74.0588M59.7913 77.1027C59.4989 77.186 59.1964 77.2281 58.8925 77.2277C58.4818 77.255 58.0749 77.1349 57.7449 76.8889C57.6067 76.7635 57.4989 76.6083 57.4296 76.435C57.3603 76.2618 57.3313 76.075 57.3449 75.8889C57.3324 75.4313 57.491 74.9856 57.7899 74.6388C57.9245 74.4775 58.0935 74.3481 58.2845 74.2603C58.4754 74.1725 58.6836 74.1285 58.8937 74.1313C59.116 74.1252 59.3357 74.1803 59.5288 74.2905C59.7219 74.4007 59.881 74.5619 59.9888 74.7564C60.3013 75.3818 60.4745 76.0676 60.4963 76.7664C60.2867 76.9246 60.048 77.0397 59.7938 77.1052M38.8752 78.4028C38.6338 78.4032 38.3929 78.3823 38.1552 78.3403C37.9424 78.3047 37.7357 78.239 37.5414 78.1453C37.3752 78.066 37.2312 77.9465 37.1226 77.7977C37.0163 77.6406 36.9629 77.4536 36.9701 77.264C36.9721 76.9978 37.0708 76.7415 37.2476 76.5427C37.4589 76.3018 37.7133 76.1026 37.9977 75.9552C38.3393 75.7722 38.7009 75.6292 39.0752 75.5289C39.489 75.4134 39.9118 75.3327 40.3391 75.2876L40.3653 78.1528C39.8852 78.3288 39.3765 78.4136 38.8652 78.4028" fill="#0F2837"/>
<path d="M82.7845 71.9764L81.6819 70.8513L80.5781 71.9764L81.6819 73.1014L82.7845 71.9764Z" fill="#0F2837"/>
<path d="M85.3831 71.9764L84.2806 70.8513L83.1768 71.9764L84.2806 73.1014L85.3831 71.9764Z" fill="#0F2837"/>
<path d="M103.557 71.6902L102.453 70.5652L101.351 71.6902L102.453 72.8153L103.557 71.6902Z" fill="#0F2837"/>
<path d="M103.752 75.1117L104.856 73.9866L103.752 72.8616L102.649 73.9866L103.752 75.1117Z" fill="#0F2837"/>
<path d="M102.257 73.9866L101.159 72.8616L100.057 73.9866L101.159 75.1117L102.257 73.9866Z" fill="#0F2837"/>
<path d="M119.077 70.3026L119.129 79.0255C119.13 79.1059 119.114 79.1855 119.082 79.2592C119.05 79.3329 119.002 79.399 118.943 79.453C118.804 79.5804 118.64 79.6775 118.462 79.738C118.246 79.8139 118.023 79.8647 117.795 79.8893C117.545 79.9193 105.108 79.933 104.838 79.933C103.426 79.933 102.72 79.5651 102.72 78.8292C102.72 78.7355 102.743 78.4792 102.79 78.0642C102.836 77.6492 102.891 77.1891 102.951 76.6891L101.74 76.5466C101.716 76.7016 101.693 76.8791 101.67 77.0816C101.646 77.2842 101.616 77.4842 101.581 77.6867C101.546 77.8892 101.51 78.0867 101.475 78.283C101.44 78.4792 101.408 78.6417 101.385 78.773C101.347 78.9667 101.264 79.1485 101.141 79.3034C101.019 79.4582 100.862 79.5816 100.682 79.663C100.307 79.8405 87.5401 79.9293 86.7576 79.9293C86.4026 79.9293 86.0626 79.9293 85.7425 79.9118C85.4225 79.8943 85.125 79.8818 84.8525 79.858C85.152 79.5826 85.3895 79.2464 85.549 78.872C85.7085 78.4976 85.7864 78.0935 85.7775 77.6867C85.7806 77.2639 85.7051 76.8443 85.555 76.4491C85.4156 76.0818 85.2106 75.743 84.95 75.4491C84.7001 75.1679 84.3978 74.9382 84.06 74.7728C83.7247 74.6087 83.3563 74.5234 82.983 74.5234C82.6097 74.5234 82.2414 74.6087 81.9061 74.7728C81.5685 74.9386 81.2663 75.1683 81.0161 75.4491C80.7554 75.743 80.5504 76.0818 80.411 76.4491C80.2613 76.8444 80.1863 77.264 80.1898 77.6867C80.1782 78.0939 80.2549 78.4988 80.4146 78.8736C80.5742 79.2484 80.8131 79.5843 81.1148 79.858C80.8298 79.8814 80.5269 79.8993 80.206 79.9118C79.886 79.9243 67.3441 79.9293 67.0004 79.9293C66.5581 79.9681 66.1162 79.8519 65.7503 79.6005C65.6106 79.4569 65.504 79.2844 65.4379 79.0953C65.3718 78.9061 65.3479 78.7048 65.3678 78.5055L65.439 70.05L64.0327 70.3001L64.104 79.0405C64.129 80.7014 65.0961 81.5319 67.0054 81.5319C67.6691 81.5319 80.5323 81.4794 81.1723 81.3731C81.7902 81.2721 82.398 81.1169 82.9887 80.9093C83.579 81.1167 84.1863 81.2719 84.8037 81.3731C85.4512 81.4799 86.1064 81.533 86.7626 81.5319C87.5126 81.5319 100.363 81.4281 100.905 81.2206C101.379 81.0645 101.788 80.7571 102.071 80.3456C102.382 80.7768 102.805 81.1154 103.294 81.3254C103.782 81.5355 104.319 81.609 104.846 81.5381C105.289 81.5381 117.894 81.4944 118.292 81.4044C118.672 81.3224 119.033 81.1716 119.359 80.9593C119.675 80.75 119.937 80.4695 120.124 80.1405C120.331 79.7572 120.432 79.3258 120.418 78.8905L120.491 70.0613L119.077 70.3026ZM82.9812 79.5055C81.8894 79.1497 81.3436 78.5621 81.3436 77.7429C81.3387 77.2991 81.5079 76.871 81.8148 76.5504C81.9632 76.3965 82.142 76.2751 82.3399 76.1941C82.7508 76.0278 83.2103 76.0278 83.6212 76.1941C83.8192 76.2748 83.9981 76.3962 84.1462 76.5504C84.4549 76.87 84.6247 77.2986 84.6187 77.7429C84.6187 78.5613 84.0729 79.1488 82.9812 79.5055Z" fill="#0F2837"/>
<path d="M122.814 81.5343L122.726 70.3025L124.132 70.0525L124.043 81.5343H122.814Z" fill="#0F2837"/>
<path d="M135.453 78.8651C135.47 79.2436 135.406 79.6215 135.265 79.9731C135.124 80.3247 134.909 80.6417 134.634 80.9028C134.012 81.4339 133.208 81.7047 132.391 81.659C131.559 81.719 130.736 81.4542 130.095 80.9203C129.823 80.6408 129.612 80.3072 129.477 79.9411C129.342 79.5749 129.286 79.1845 129.311 78.7951C129.308 78.2367 129.392 77.6811 129.561 77.1488C129.712 76.663 129.937 76.2034 130.229 75.7863C130.488 75.4136 130.822 75.0986 131.209 74.8612C131.564 74.6406 131.973 74.5233 132.391 74.5224C132.815 74.522 133.231 74.6392 133.593 74.8612C133.978 75.097 134.309 75.4124 134.563 75.7863C134.851 76.2075 135.07 76.6715 135.213 77.1613C135.377 77.7129 135.458 78.2859 135.454 78.8614M131.079 73.0936L129.976 71.9686L131.079 70.8435L132.183 71.9686L131.079 73.0936ZM134.248 79.0214C134.251 78.6344 134.206 78.2485 134.114 77.8726C134.037 77.5512 133.908 77.2446 133.731 76.9651C133.581 76.7263 133.38 76.5229 133.144 76.3688C132.92 76.2266 132.659 76.1524 132.394 76.155C132.142 76.1557 131.894 76.2197 131.674 76.3413C131.441 76.4665 131.237 76.6394 131.076 76.8488C130.903 77.0755 130.768 77.3288 130.676 77.5988C130.574 77.8909 130.523 78.1983 130.525 78.5076C130.511 78.7256 130.547 78.9438 130.63 79.1457C130.713 79.3476 130.842 79.5279 131.005 79.6727C131.407 79.9648 131.898 80.1064 132.394 80.0727C132.633 80.0741 132.872 80.0472 133.105 79.9927C133.312 79.9475 133.51 79.8694 133.693 79.7614C133.845 79.6729 133.981 79.5587 134.094 79.4239C134.19 79.3125 134.243 79.1709 134.245 79.0239M133.675 73.0961L132.571 71.9711L133.675 70.846L134.779 71.9711L133.675 73.0961Z" fill="#0F2837"/>
<path d="M134.951 83.6885C135.566 83.4638 136.161 83.19 136.731 82.8697C137.233 82.592 137.707 82.2676 138.148 81.9009C138.504 81.6052 138.818 81.2615 139.08 80.8796C139.287 80.5972 139.405 80.2594 139.419 79.9095C139.409 79.6618 139.367 79.4163 139.294 79.1795C139.199 78.8496 139.083 78.526 138.948 78.2107C138.798 77.8599 138.623 77.4944 138.423 77.1144C138.222 76.7344 138.008 76.3669 137.781 76.0119L139.063 75.2993C139.565 75.9706 139.961 76.7152 140.236 77.5069C140.507 78.2304 140.652 78.9948 140.665 79.767C140.65 80.9174 140.191 82.0173 139.384 82.8372C138.376 83.8656 137.136 84.6372 135.769 85.0873L134.951 83.6885Z" fill="#0F2837"/>
<path d="M143.123 81.5345L143.034 70.3027L144.44 70.0527L144.352 81.5345H143.123Z" fill="#0F2837"/>
<path d="M145.331 83.6881C145.945 83.4633 146.54 83.1895 147.111 82.8693C147.612 82.591 148.085 82.2663 148.526 81.8993C148.882 81.6054 149.196 81.2639 149.46 80.8843C149.667 80.6019 149.784 80.264 149.797 79.9142C149.787 79.6664 149.745 79.421 149.672 79.1842C149.577 78.8543 149.461 78.5307 149.326 78.2154C149.177 77.8645 149.002 77.4991 148.801 77.1191C148.599 76.739 148.385 76.3715 148.159 76.0165L149.441 75.304C149.943 75.9753 150.339 76.7199 150.616 77.5116C150.885 78.2353 151.03 78.9996 151.043 79.7717C151.029 80.9222 150.57 82.0225 149.762 82.8419C148.755 83.8699 147.515 84.6415 146.148 85.092L145.331 83.6881ZM148.589 73.8627L147.486 72.7376L148.589 71.6125L149.692 72.7376L148.589 73.8627Z" fill="#0F2837"/>
<path d="M153.377 83.6343C155.941 83.2777 157.419 82.3464 157.81 80.8405C157.56 81.0246 157.279 81.1631 156.981 81.2492C156.656 81.3457 156.319 81.3937 155.981 81.3917C155.625 81.4055 155.271 81.3391 154.944 81.1973C154.617 81.0556 154.326 80.8422 154.093 80.5729C153.598 79.9678 153.344 79.2005 153.381 78.4191C153.377 77.9522 153.449 77.4877 153.594 77.044C153.724 76.647 153.923 76.2761 154.182 75.949C154.423 75.6472 154.727 75.4015 155.072 75.2289C155.421 75.0552 155.807 74.9665 156.197 74.9702C156.637 74.9618 157.071 75.0738 157.452 75.2941C157.834 75.5144 158.147 75.8346 158.36 76.2202C158.935 77.3052 159.203 78.5267 159.135 79.7529C159.142 80.4291 159.018 81.1002 158.77 81.7292C158.532 82.3248 158.182 82.8686 157.737 83.3306C157.274 83.8071 156.728 84.1959 156.126 84.4781C155.462 84.7908 154.753 84.9979 154.026 85.0919L153.377 83.6343ZM156.207 79.9504C156.536 79.9513 156.863 79.9032 157.177 79.8079C157.444 79.7372 157.695 79.6167 157.917 79.4529C157.915 78.6979 157.736 77.9539 157.392 77.2815C157.281 77.0727 157.119 76.8944 156.923 76.7623C156.727 76.6301 156.501 76.5481 156.265 76.5234C156.03 76.4988 155.792 76.5322 155.572 76.6208C155.353 76.7093 155.158 76.8504 155.006 77.0315C154.701 77.4146 154.546 77.8953 154.57 78.3841C154.556 78.597 154.588 78.8103 154.663 79.0099C154.738 79.2095 154.855 79.3908 155.006 79.5416C155.337 79.8296 155.769 79.9763 156.207 79.9504Z" fill="#0F2837"/>
<path d="M36.248 87.8682H37.6931L40.8795 93.3147L44.0671 87.8682H45.4784L45.9647 98.3374H44.4921L44.1471 90.3008L41.1932 95.2435H40.4432L37.5406 90.3683L37.1793 98.3424H35.7617L36.248 87.8682Z" fill="#0F2837"/>
<path d="M48.5318 87.8169L49.6568 88.942L48.5318 90.067L47.4067 88.942L48.5318 87.8169ZM47.8343 91.0333H49.2456V98.3324H47.8343V91.0333Z" fill="#0F2837"/>
<path d="M51.2545 98.3314V91.4961C51.2545 91.3961 51.2545 91.2461 51.2383 91.0323H52.5883L52.6371 92.1311C52.7313 92.0061 52.8463 91.8678 52.9821 91.7161C53.1285 91.555 53.2968 91.4153 53.4821 91.3011C53.6998 91.1663 53.9344 91.0608 54.1797 90.9873C54.4725 90.9003 54.7768 90.8581 55.0822 90.8623C55.4763 90.8303 55.8725 90.8885 56.2408 91.0325C56.609 91.1766 56.9396 91.4027 57.2073 91.6936C57.6964 92.3422 57.9408 93.1426 57.8974 93.9537V98.3289H56.4798V94.0587C56.5255 93.5215 56.3691 92.9866 56.041 92.5587C55.8806 92.3949 55.6868 92.2675 55.4729 92.1851C55.259 92.1027 55.0298 92.0672 54.801 92.0811C54.4668 92.0646 54.1346 92.1399 53.8402 92.2988C53.5458 92.4576 53.3005 92.6941 53.1309 92.9824C52.9617 93.2633 52.842 93.5711 52.7771 93.8925C52.7038 94.2355 52.6674 94.5855 52.6684 94.9363V98.3277L51.2545 98.3314Z" fill="#0F2837"/>
<path d="M60.3043 87.8169L61.4293 88.942L60.3043 90.067L59.1792 88.942L60.3043 87.8169ZM59.608 91.0333H61.0193V98.3324H59.608V91.0333Z" fill="#0F2837"/>
<path d="M63.3739 96.4966C63.6454 96.7631 63.9653 96.9753 64.3165 97.1216C64.7195 97.2854 65.1516 97.3653 65.5865 97.3566C65.9916 97.3702 66.3945 97.2924 66.7653 97.1291C66.9073 97.0723 67.0285 96.9735 67.1127 96.846C67.1969 96.7184 67.2402 96.5681 67.2366 96.4153C67.2406 96.2648 67.2058 96.1159 67.1354 95.9828C67.0498 95.8475 66.9304 95.7368 66.7891 95.6615C66.5858 95.5505 66.3701 95.4636 66.1466 95.4028C65.8791 95.324 65.5465 95.2378 65.1465 95.144C64.8608 95.081 64.5801 94.9975 64.3065 94.894C64.0364 94.795 63.7833 94.6546 63.5564 94.4777C63.3375 94.3082 63.1558 94.0955 63.0227 93.8527C62.8803 93.5795 62.8102 93.2744 62.8189 92.9664C62.8108 92.638 62.8953 92.314 63.0627 92.0314C63.2274 91.7616 63.4493 91.5311 63.7127 91.3563C63.995 91.169 64.3057 91.0284 64.6327 90.94C64.9776 90.8451 65.3338 90.7976 65.6915 90.7988C66.2326 90.7866 66.7715 90.8691 67.2841 91.0426C67.7135 91.1955 68.1106 91.427 68.4554 91.7251L67.6854 92.6976C67.4413 92.4852 67.1627 92.3161 66.8616 92.1976C66.4941 92.0544 66.1021 91.9848 65.7078 91.9926C65.3342 91.9763 64.9624 92.0523 64.6252 92.2139C64.4937 92.2806 64.3848 92.3846 64.3121 92.5129C64.2394 92.6412 64.2062 92.7881 64.2165 92.9351C64.2229 93.094 64.2797 93.2466 64.3786 93.3711C64.4774 93.4956 64.6133 93.5854 64.7665 93.6277C65.2268 93.8104 65.7014 93.955 66.1853 94.0602C66.5123 94.1384 66.8345 94.2353 67.1504 94.3502C67.4323 94.4511 67.6974 94.5939 67.9367 94.774C68.1589 94.9445 68.3411 95.1617 68.4704 95.4103C68.6071 95.6937 68.674 96.0057 68.6654 96.3203C68.6731 96.6589 68.5866 96.9931 68.4154 97.2854C68.2452 97.5652 68.0151 97.8038 67.7416 97.9841C67.4433 98.1784 67.1146 98.3217 66.7691 98.4079C66.3944 98.5026 66.0093 98.5501 65.6228 98.5492C65.0556 98.5925 64.4857 98.5156 63.9502 98.3237C63.4147 98.1318 62.9257 97.8291 62.5151 97.4354L63.3739 96.4966Z" fill="#0F2837"/>
<path d="M70.9384 92.2111H69.6196V91.0336H70.9384V88.6472H72.3498V91.0336H74.4849V92.2111H72.3498V95.8051C72.3077 96.2272 72.4042 96.6515 72.6248 97.0139C72.7205 97.1246 72.8404 97.2118 72.9752 97.2688C73.1101 97.3258 73.2562 97.3511 73.4023 97.3426C73.6333 97.3506 73.8633 97.308 74.0761 97.2176C74.2729 97.1212 74.4534 96.9947 74.6111 96.8426L75.2549 97.7064C74.986 97.9754 74.6688 98.1913 74.3199 98.3427C73.9574 98.4813 73.5715 98.5479 73.1836 98.539C72.8712 98.5668 72.5566 98.5253 72.2622 98.4172C71.9679 98.3091 71.7011 98.1373 71.481 97.9139C71.0727 97.3449 70.8804 96.6492 70.9384 95.9513V92.2111Z" fill="#0F2837"/>
<path d="M76.4635 98.3316V91.4888C76.4635 91.395 76.4635 91.2388 76.4473 91.0338H77.7973L77.8461 92.2113C77.9458 92.065 78.0557 91.9259 78.1749 91.795C78.3225 91.6349 78.4906 91.4949 78.6749 91.3788C78.8866 91.2448 79.1136 91.137 79.3512 91.0575C79.6366 90.9637 79.9358 90.9185 80.2362 90.9237C80.381 90.9228 80.5256 90.9332 80.6687 90.955C80.7964 90.9751 80.9219 91.0069 81.0437 91.05L80.7287 92.3676C80.497 92.2875 80.2525 92.2502 80.0074 92.2576C79.7184 92.255 79.4321 92.3138 79.1674 92.4301C78.9148 92.5422 78.6884 92.7057 78.5024 92.9101C78.1064 93.3398 77.8876 93.9034 77.8898 94.4877V98.3329L76.4635 98.3316Z" fill="#0F2837"/>
<path d="M82.4586 100.122C82.5682 100.219 82.6891 100.303 82.8186 100.372C82.9737 100.449 83.1454 100.487 83.3186 100.482C83.4698 100.486 83.6191 100.448 83.7499 100.372C83.8841 100.285 83.9973 100.17 84.0812 100.034C84.1915 99.8603 84.2857 99.6766 84.3624 99.4854C84.4524 99.2704 84.5537 99.0229 84.6687 98.7354L84.8562 98.2654L81.5923 91.03H83.2124L85.565 96.539L87.6388 91.03H89.1751L86.2563 98.1404C86.1204 98.4737 85.9817 98.8425 85.84 99.2467C85.7003 99.6444 85.5237 100.028 85.3125 100.393C85.1156 100.74 84.8553 101.046 84.5449 101.297C84.2157 101.545 83.8109 101.673 83.3986 101.658C83.0836 101.667 82.7697 101.616 82.4736 101.508C82.2323 101.414 82.0094 101.279 81.8148 101.108L82.4586 100.122Z" fill="#0F2837"/>
<path d="M96.1316 98.5517C95.5981 98.558 95.069 98.4537 94.5778 98.2454C94.1196 98.0507 93.7058 97.7649 93.3615 97.4054C93.0198 97.0484 92.7484 96.6302 92.5614 96.1728C92.1722 95.2106 92.1722 94.1348 92.5614 93.1726C92.7485 92.7153 93.0199 92.2972 93.3615 91.9401C93.7064 91.5812 94.12 91.2955 94.5778 91.1C95.5683 90.6919 96.68 90.6919 97.6705 91.1C98.1297 91.2968 98.5456 91.5823 98.8943 91.9401C99.6025 92.6727 99.9984 93.6519 99.9984 94.6708C99.9984 95.6898 99.6025 96.669 98.8943 97.4016C98.5462 97.7601 98.1301 98.0457 97.6705 98.2416C97.1842 98.449 96.6602 98.5532 96.1316 98.5479M96.1316 97.3241C96.4852 97.3292 96.835 97.2513 97.1529 97.0966C97.447 96.9521 97.7086 96.7492 97.9217 96.5003C98.1332 96.2504 98.2957 95.9629 98.4005 95.6528C98.5097 95.3371 98.5655 95.0055 98.5655 94.6715C98.5644 94.3424 98.5087 94.0159 98.4005 93.7052C98.2934 93.3922 98.1284 93.1022 97.9142 92.8501C97.6999 92.5997 97.4382 92.394 97.1442 92.2451C96.8297 92.0895 96.4825 92.0115 96.1316 92.0176C95.7789 92.0122 95.4298 92.0901 95.1128 92.2451C94.8185 92.3898 94.5565 92.5926 94.3428 92.8414C94.1314 93.0913 93.9689 93.3788 93.864 93.6889C93.755 94.0046 93.6992 94.3362 93.699 94.6702C93.6988 95.0014 93.7546 95.3302 93.864 95.6428C93.9715 95.9533 94.1364 96.2408 94.3503 96.4903C94.5634 96.7415 94.8248 96.9472 95.1191 97.0953C95.4332 97.2507 95.78 97.3287 96.1304 97.3228" fill="#0F2837"/>
<path d="M102.145 92.2085H100.826V91.031H102.145V90.4347C102.135 89.9986 102.207 89.5644 102.356 89.1546C102.48 88.8224 102.672 88.5199 102.92 88.2671C103.15 88.0407 103.426 87.867 103.73 87.7583C104.037 87.6471 104.361 87.5912 104.688 87.5933C105.074 87.5934 105.459 87.6542 105.826 87.7733C106.211 87.903 106.561 88.1165 106.853 88.3984L106.146 89.3084C105.805 89.002 105.365 88.8293 104.906 88.8221C104.724 88.814 104.543 88.8448 104.373 88.9125C104.204 88.9802 104.051 89.0832 103.925 89.2147C103.638 89.603 103.504 90.0839 103.55 90.5647V91.036H105.638V92.2135H103.55V98.3388H102.139L102.145 92.2085Z" fill="#0F2837"/>
<path d="M119.223 96.4967C119.07 96.731 118.89 96.947 118.688 97.1405C118.423 97.4005 118.13 97.6295 117.813 97.8231C117.439 98.0513 117.038 98.2331 116.62 98.3643C116.138 98.5159 115.635 98.5902 115.129 98.5843C114.4 98.5938 113.677 98.4547 113.004 98.1756C112.382 97.9143 111.822 97.527 111.358 97.038C110.889 96.5391 110.524 95.9524 110.283 95.3117C109.77 93.916 109.77 92.3834 110.283 90.9877C110.525 90.3385 110.89 89.7419 111.358 89.2301C111.822 88.7249 112.385 88.321 113.013 88.0438C113.689 87.7496 114.419 87.6026 115.157 87.6126C115.661 87.6055 116.164 87.6746 116.648 87.8176C117.052 87.9373 117.44 88.1083 117.8 88.3263C118.109 88.5134 118.394 88.7376 118.648 88.9939C118.86 89.2065 119.052 89.4379 119.222 89.6852L118.153 90.5952C118.015 90.401 117.866 90.2149 117.707 90.0377C117.522 89.8357 117.312 89.6588 117.082 89.5114C116.822 89.3463 116.543 89.2145 116.25 89.1189C115.9 89.0097 115.535 88.9569 115.168 88.9626C114.656 88.9534 114.148 89.0587 113.682 89.2708C113.215 89.483 112.802 89.7967 112.473 90.1889C112.147 90.5776 111.899 91.0254 111.743 91.5077C111.573 92.024 111.489 92.5644 111.493 93.1078C111.488 93.6495 111.576 94.188 111.751 94.7004C111.91 95.175 112.158 95.615 112.481 95.9967C112.796 96.3639 113.187 96.6586 113.627 96.8605C114.1 97.0746 114.615 97.1817 115.134 97.1743C115.547 97.1834 115.958 97.1225 116.35 96.9943C116.657 96.8909 116.947 96.7458 117.214 96.563C117.426 96.4156 117.621 96.2444 117.794 96.053C117.947 95.8805 118.077 95.7367 118.179 95.6204L119.223 96.4967Z" fill="#0F2837"/>
<path d="M120.708 91.0337H122.122V95.3177C122.074 95.8525 122.225 96.3863 122.544 96.8177C122.704 96.9776 122.895 97.1016 123.106 97.1814C123.317 97.2611 123.543 97.2949 123.768 97.2803C124.123 97.2946 124.474 97.2079 124.782 97.0302C125.047 96.8663 125.27 96.6434 125.434 96.379C125.607 96.0998 125.726 95.7913 125.787 95.4689C125.855 95.1251 125.889 94.7755 125.888 94.4251V91.0349H127.302V97.8853C127.302 98.0378 127.302 98.1865 127.318 98.334H125.958L125.911 97.2502C125.803 97.3923 125.688 97.5287 125.566 97.659C125.418 97.8143 125.25 97.9489 125.066 98.059C124.848 98.1886 124.616 98.2915 124.374 98.3653C124.085 98.4528 123.784 98.495 123.482 98.4903C123.091 98.5231 122.699 98.4659 122.334 98.3231C121.969 98.1802 121.642 97.9556 121.378 97.6665C120.896 97.0189 120.657 96.2225 120.702 95.4164L120.708 91.0337Z" fill="#0F2837"/>
<path d="M130.656 87.8635H129.242V98.3328H130.656V87.8635Z" fill="#0F2837"/>
<path d="M133.214 92.2111H131.896V91.0336H133.214V88.6472H134.625V91.0336H136.76V92.2111H134.625V95.8051C134.583 96.2272 134.679 96.6515 134.9 97.0139C134.996 97.1245 135.116 97.2117 135.25 97.2687C135.385 97.3257 135.531 97.351 135.677 97.3426C135.908 97.3507 136.138 97.3081 136.351 97.2176C136.548 97.1214 136.729 96.9948 136.886 96.8426L137.53 97.7064C137.264 97.9848 136.942 98.2031 136.584 98.3467C136.227 98.4902 135.843 98.5558 135.459 98.539C135.146 98.5668 134.832 98.5253 134.537 98.4172C134.243 98.3091 133.976 98.1373 133.756 97.9139C133.348 97.3449 133.156 96.6492 133.214 95.9513V92.2111Z" fill="#0F2837"/>
<path d="M138.407 91.0337H139.821V95.3177C139.773 95.8525 139.924 96.3863 140.243 96.8177C140.402 96.9776 140.594 97.1016 140.805 97.1814C141.016 97.2611 141.242 97.2949 141.467 97.2803C141.821 97.2943 142.173 97.2076 142.48 97.0302C142.744 96.8664 142.968 96.6435 143.132 96.379C143.305 96.0997 143.425 95.7913 143.486 95.4689C143.554 95.1251 143.588 94.7755 143.587 94.4251V91.0349H145.001V97.8853C145.001 98.0378 145.001 98.1865 145.017 98.334H143.667L143.62 97.2502C143.512 97.3923 143.397 97.5287 143.275 97.659C143.127 97.8143 142.959 97.9489 142.775 98.059C142.557 98.1886 142.325 98.2915 142.083 98.3653C141.794 98.4528 141.493 98.495 141.191 98.4903C140.8 98.5231 140.408 98.4659 140.043 98.3231C139.678 98.1802 139.351 97.9556 139.087 97.6665C138.605 97.0189 138.365 96.2225 138.411 95.4164L138.407 91.0337Z" fill="#0F2837"/>
<path d="M146.962 98.3316V91.4888C146.962 91.395 146.962 91.2388 146.946 91.0337H148.296L148.345 92.2113C148.444 92.065 148.554 91.9259 148.673 91.795C148.821 91.635 148.989 91.495 149.173 91.3788C149.385 91.245 149.612 91.1371 149.85 91.0575C150.135 90.9637 150.434 90.9185 150.735 90.9237C150.88 90.9228 151.024 90.9332 151.167 90.955C151.295 90.975 151.42 91.0069 151.542 91.05L151.227 92.3676C150.716 92.2015 150.163 92.2237 149.667 92.4301C149.414 92.5423 149.187 92.7057 149.001 92.9101C148.605 93.34 148.387 93.9034 148.388 94.4877V98.3328L146.962 98.3316Z" fill="#0F2837"/>
<path d="M158.939 97.2639C158.821 97.392 158.696 97.5131 158.564 97.6264C158.364 97.7935 158.145 97.9358 157.911 98.0502C157.61 98.1987 157.294 98.3168 156.97 98.4027C156.567 98.5066 156.153 98.5567 155.737 98.5514C155.206 98.5578 154.679 98.4619 154.185 98.2689C153.729 98.0915 153.316 97.8187 152.975 97.4689C152.633 97.1135 152.369 96.6913 152.199 96.2288C152.01 95.7165 151.916 95.1737 151.923 94.6275C151.919 94.1153 152.01 93.6067 152.191 93.1274C152.447 92.441 152.908 91.8503 153.512 91.4359C154.116 91.0216 154.833 90.8038 155.566 90.8123C156.127 90.7969 156.683 90.921 157.183 91.1736C157.621 91.4032 158 91.7309 158.29 92.1311C158.584 92.5436 158.8 93.0068 158.926 93.4975C159.063 94.0201 159.132 94.5584 159.13 95.0988H153.37C153.377 95.4086 153.449 95.7134 153.581 95.9938C153.709 96.2609 153.888 96.5007 154.107 96.7001C154.328 96.8993 154.582 97.0584 154.857 97.1701C155.142 97.2859 155.446 97.3445 155.753 97.3426C156.278 97.3622 156.8 97.2546 157.275 97.0289C157.596 96.8758 157.888 96.6686 158.138 96.4163L158.939 97.2639ZM157.666 94.0475C157.636 93.5127 157.426 93.0039 157.07 92.6037C156.877 92.3999 156.643 92.2408 156.382 92.1376C156.122 92.0343 155.842 91.9895 155.562 92.0061C155.253 92.0011 154.946 92.0598 154.661 92.1786C154.406 92.2858 154.174 92.4402 153.977 92.6337C153.791 92.82 153.642 93.0408 153.54 93.2837C153.435 93.5249 153.376 93.7835 153.366 94.0462L157.666 94.0475Z" fill="#0F2837"/>
<path d="M133.483 28.7346C132.718 39.1826 133.654 49.5881 133.404 60.1287C133.359 62.0663 133.599 64.1389 133.457 66.0852C133.441 66.3152 133.376 66.4902 133.023 66.4952C132.546 66.4208 132.059 66.4208 131.582 66.4952C131.426 65.0989 131.486 64.0188 131.359 62.8175C131.182 60.2798 131.135 57.7347 131.217 55.1922C131.179 50.2982 130.764 45.3167 131.122 40.4264C131.247 38.3153 131.265 36.1991 131.174 34.0861C131.047 32.3064 131.022 30.5209 131.101 28.7384C131.891 28.6356 132.691 28.631 133.483 28.7246" fill="#EB5A3C"/>
<path d="M46.7505 25.7943C47.6056 25.878 47.9806 26.133 48.0469 27.0906C48.1456 28.5232 47.9381 29.3082 48.0906 30.7158C48.5994 35.391 47.5081 40.1287 47.9969 44.8052C48.2556 47.2778 48.0069 49.5004 48.0956 51.9843C48.2206 55.6745 48.0594 59.8597 47.9706 64.1949H36.4588C36.1233 62.8207 36.0533 61.3951 36.2525 59.9947C36.3418 59.3349 36.374 58.6687 36.3488 58.0034C36.3238 55.2832 36.4938 52.8606 36.4738 50.1417C36.4998 48.5428 36.4024 46.9442 36.1825 45.3602C35.9513 43.9639 36.3075 41.5213 36.1025 40.1225C35.8363 38.3586 35.6975 27.8694 35.7888 25.8593C35.7888 25.8593 45.398 25.6618 46.7505 25.7943Z" fill="#EB5A3C"/>
<path d="M67.8582 28.243C67.1981 27.993 67.2969 28.7768 67.3056 29.1893C67.3131 29.5643 67.3056 29.8069 67.2969 30.3144C67.2831 31.3244 67.3694 34.0808 67.3806 35.0746C67.4006 36.7472 67.5057 38.2073 67.4769 39.5261C67.4219 42.0075 67.4106 44.4888 67.5119 46.9689C67.7619 53.1442 67.4669 59.3333 67.6519 65.4698C67.6682 66.0036 68.0032 66.1524 68.4895 66.2761L69.2032 66.3949C69.1795 61.1371 69.5958 55.6256 69.262 50.3816C69.1232 48.1953 69.2057 46.0064 69.1995 43.82C69.1995 41.7162 69.182 39.6136 69.222 37.5097C69.2445 36.2347 69.232 34.9584 69.1907 33.6845C69.1407 32.1032 69.2257 29.0593 68.7995 28.6418C68.542 28.3855 68.2932 28.4018 67.8569 28.2393" fill="#6E1946"/>
<path d="M56.4883 62.0758C57.1883 62.0596 57.052 61.5408 57.0458 61.1245C57.0458 60.742 57.1321 60.4995 57.1408 59.9895C57.1596 58.9719 57.0871 56.1918 57.0808 55.1892C57.0695 53.5029 56.972 52.0291 57.0083 50.7003C57.0771 48.2001 57.1008 45.7 57.0083 43.1999C56.7858 36.9721 57.1171 30.733 56.9645 24.544C56.9508 24.0065 56.597 23.9802 55.9932 23.9602L55.1582 23.999C55.1582 29.3005 55.2132 34.9407 55.2832 40.5848C55.312 42.7949 55.2832 44.5137 55.2832 46.7238C55.2832 48.8489 55.3245 50.5365 55.3195 52.6579C55.3195 53.7829 55.2682 55.0217 55.2557 56.5818C55.242 58.1769 55.1657 61.1895 55.5395 61.6683C55.6439 61.8162 55.7869 61.9327 55.9528 62.0052C56.1187 62.0777 56.3013 62.1034 56.4808 62.0796" fill="#91B9B4"/>
<path d="M71.6333 65.3276C70.9945 65.2463 70.907 64.9588 70.9282 64.2263C70.992 62.0587 70.852 57.4284 70.6232 54.592C70.4153 52.0178 70.4727 49.4291 70.7945 46.8667C70.8742 45.1188 70.8412 43.3675 70.6957 41.6239C70.682 38.76 70.8582 36.5174 70.8457 34.5861C70.837 33.3947 70.8007 32.2047 70.7445 31.0146C70.692 29.9046 70.707 27.4495 70.7157 27.1782C71.052 27.1272 71.3933 27.1172 71.732 27.1482C72.2004 27.1739 72.659 27.2929 73.0808 27.4982C73.2755 29.1117 73.3378 30.7385 73.2671 32.3622C73.2671 33.1472 73.2146 36.3911 73.2671 37.1712C73.3533 38.4675 73.3071 39.7763 73.3158 41.0801C73.3271 42.7402 73.4271 44.3978 73.4233 46.0579C73.4233 48.1642 73.2458 50.2606 73.1958 52.3657C73.1008 56.2409 73.5909 61.2536 73.5496 64.4913C73.5409 65.1363 73.6159 65.4838 72.9246 65.4838C72.9246 65.4838 72.272 65.4038 71.6333 65.3226" fill="#EB5A3C"/>
<path d="M129.932 63.5497C130.057 61.9397 129.716 59.4483 129.714 58.1545C129.714 57.3957 129.625 54.2555 129.674 53.4993C129.754 52.2492 129.695 50.9779 129.694 49.7153C129.694 48.109 129.784 46.5039 129.766 44.8963C129.744 42.8575 129.546 40.8299 129.475 38.7923C129.326 34.5533 129.951 28.9168 129.692 25.9241C128.436 25.6936 127.157 25.6072 125.881 25.6666C125.597 28.193 125.524 30.7385 125.662 33.277C125.691 35.1521 125.525 37.3185 125.562 40.0898C125.591 42.1974 126.13 44.7151 125.911 46.4189C125.593 48.9002 125.554 51.4092 125.793 53.8993C126.136 57.4494 126.011 63.2747 126.056 63.3522L129.932 63.5497Z" fill="#B41932"/>
<path d="M141.137 63.6362C141.307 59.2522 141.283 56.5971 141.356 52.8094C141.406 50.138 140.981 46.7491 141.032 43.9339C141.202 40.024 141.115 36.107 140.773 32.2084C140.681 31.1283 140.836 29.0945 140.796 28.0119C140.768 27.2869 140.741 26.3518 140.714 25.6255C142.782 26.0539 144.909 26.1161 146.998 25.8093C151.374 24.8905 158.613 25.8368 158.613 25.8368C158.961 26.7514 159.124 27.7263 159.09 28.7044C158.982 30.4409 158.97 32.1819 159.053 33.9197C159.157 36.9023 158.599 39.5387 158.599 43.7527C158.599 46.5203 159.015 48.3404 159.11 50.1843C159.208 52.0806 158.878 53.6719 159 56.6846C159.077 58.5397 159.034 63.4024 159.064 63.8487C159.064 63.8487 146.031 63.9237 143.251 63.5912C142.55 63.4643 141.831 63.4805 141.137 63.6387" fill="#6E1946"/>
<path d="M117.293 24.044C117.365 30.5943 117.418 37.8572 117.747 43.7737C117.854 45.7463 117.797 48.2202 117.872 50.4703C117.907 51.4703 117.733 53.4704 117.653 54.803C117.589 55.8805 117.617 56.9618 117.643 58.0407C117.703 59.2363 117.687 60.4346 117.595 61.6283C116.891 61.5188 116.174 61.5188 115.47 61.6283C115.318 60.7644 115.295 59.8826 115.403 59.012C115.539 51.1516 114.993 45.41 115.121 38.1722C115.164 35.8221 115.088 32.6132 114.903 30.2705C114.753 28.161 114.806 26.0421 115.061 23.9427C115.805 23.9295 116.548 23.9633 117.287 24.044" fill="#FAC39B"/>
<path d="M139.174 24.393C139.376 27.7682 139.218 29.997 139.282 32.9034C139.34 35.4548 139.622 37.6311 139.467 40.56C139.334 43.0877 139.592 45.6215 139.646 48.1541C139.699 50.6184 139.74 53.0827 139.771 55.547C139.815 57.4559 139.857 59.1834 139.86 61.0948C139.86 61.4148 139.822 62.0948 139.825 62.4186C139.387 62.343 138.941 62.3199 138.497 62.3498C137.358 62.456 136.209 62.4085 135.082 62.2086C134.675 62.1161 135.017 55.4583 135.027 54.842C135.07 52.3419 135.083 49.8417 135.068 47.3416C135.056 44.809 134.818 42.1214 134.771 39.5912C134.722 37.0324 134.862 34.6297 134.795 32.0721C134.727 29.4907 134.651 27.2931 134.583 24.7118C134.57 24.1855 135.065 23.9117 135.897 24.1392C137.005 24.443 138.165 24.0805 139.171 24.4005" fill="#FF9619"/>
<path d="M52.4196 27.5682C52.8105 27.6445 53.1616 27.8569 53.4104 28.1678C53.6592 28.4787 53.7897 28.8678 53.7784 29.2658C53.7997 30.5021 53.7784 31.5997 53.7459 32.6747C53.7134 33.8786 53.6772 35.0499 53.6922 36.3637C53.7572 41.7077 53.9872 46.8129 53.7484 52.3482C53.5459 57.0372 53.9784 61.6124 53.9284 65.9101C52.5009 65.8289 50.8108 65.7014 49.4282 65.6351C49.8182 57.7035 49.5695 50.1931 49.4782 41.9377C49.427 37.2937 50.192 33.671 49.5407 27.4857C50.4989 27.3967 51.4643 27.424 52.4159 27.567" fill="#6E1946"/>
<path d="M113.72 45.1861C113.621 42.361 113.641 37.0182 113.855 34.1856C114.094 31.0292 113.312 26.2489 111.567 26.3539C109.995 26.3281 108.423 26.3828 106.856 26.5177C105.632 26.5802 104.068 26.5865 102.848 26.6915C101.373 26.749 99.8948 26.7181 98.4229 26.599C95.7978 26.599 93.5364 26.8115 90.9151 26.8152C88.3749 26.8152 85.5398 26.7502 83.0122 26.559C80.4874 26.275 77.9498 26.1206 75.4093 26.0964C75.0518 26.1064 74.848 27.7103 74.7768 29.6754C74.7093 31.5705 74.5855 35.6757 74.743 37.637C75.2338 37.0274 75.8455 36.526 76.5395 36.1644C77.2335 35.8027 77.9949 35.5887 78.7757 35.5357C80.0071 35.3931 81.2513 35.4006 82.4809 35.5582C82.0164 35.0088 81.489 34.5158 80.9096 34.0893C80.4999 33.7103 79.9983 33.4449 79.4545 33.3193C78.7832 33.2205 78.0882 33.2843 77.4094 33.2493C77.8318 32.757 78.3759 32.384 78.9874 32.1675C79.5989 31.9511 80.2565 31.8986 80.8946 32.0155C82.0371 32.173 83.9535 34.1606 84.6448 33.6168C85.4135 33.0143 85.111 30.6454 86.1286 30.3879C86.9561 30.1791 87.5036 33.3343 87.9024 34.0306C88.8349 32.8187 90.2075 32.0232 91.7226 31.8167C92.5064 31.7255 94.9178 32.013 95.244 33.1655C94.2913 33.0318 93.3203 33.167 92.4403 33.5557C91.5603 33.9445 90.8065 34.5713 90.2638 35.3656C91.528 34.8267 92.9143 34.6394 94.2761 34.8236C95.638 35.0078 96.9248 35.5566 98.0004 36.4119C98.5672 36.8662 99.0635 37.4021 99.473 38.002C99.6778 38.2281 99.831 38.496 99.9221 38.7872C100.013 39.0784 100.04 39.3858 100.001 39.6884C99.0005 39.4871 98.0667 37.7633 96.3316 37.2295C94.8691 36.8107 93.3146 36.8399 91.8689 37.3132C95.1665 37.847 99.7192 42.2335 98.1467 45.8249C97.6379 46.9862 97.4966 46.2099 97.3154 45.2349C97.1766 44.298 96.801 43.4121 96.2241 42.661C95.7474 42.0128 95.215 41.4075 94.6327 40.8522C93.7963 40.1923 92.7898 39.7835 91.7301 39.6734C93.8552 40.2696 95.2165 44.4936 95.399 44.9449C95.7606 46.0782 95.9176 47.2667 95.8628 48.455C95.8791 49.1263 95.9341 51.4552 95.0828 51.6777C95.0953 51.6777 95.2228 46.0374 91.2301 42.8085C92.1397 44.7054 92.4867 46.8233 92.2301 48.9113C92.1999 49.987 91.9443 51.0444 91.4801 52.0152C91.3713 52.2427 90.9488 53.279 90.7826 53.3165C90.25 53.4415 90.5325 50.1589 90.4525 49.5801C90.3538 48.8638 89.0612 44.0211 87.7024 45.2049C87.0136 45.8087 87.3636 48.5325 87.4524 49.7426C87.5561 51.2314 87.7349 53.4028 87.7612 54.8941C87.7699 57.6943 87.9502 60.4914 88.3012 63.2695C91.8501 61.3582 107.468 53.3565 109.698 59.9568C109.706 60.1656 109.573 60.0181 109.573 60.0181C108.046 57.733 103.879 58.9105 101.796 59.5531C98.0862 60.7848 94.523 62.4197 91.1701 64.4283C96.6953 64.4421 105.21 64.4283 111.519 64.4283C111.863 64.4285 112.204 64.3594 112.521 64.2249C112.838 64.0905 113.125 63.8936 113.365 63.6459C113.604 63.3982 113.791 63.1049 113.915 62.7833C114.038 62.4618 114.096 62.1187 114.084 61.7744C114.047 60.7069 114.02 59.4306 114.02 58.0418C114.02 56.4879 114.101 54.7916 114.145 53.2415C114.23 50.1364 113.822 48.2938 113.714 45.1886M82.7247 48.4388C82.5046 49.2413 82.2346 50.6064 82.1946 50.9552C82.1546 51.3039 81.8684 53.2328 81.8684 53.2328C81.747 53.1448 81.6568 53.0205 81.6109 52.8778C81.111 51.3961 80.8989 49.8326 80.9858 48.2713C81.2571 43.8436 82.8334 42.6672 82.8409 42.6798C82.1309 42.2735 80.7033 43.9411 79.9558 44.9924C78.9557 46.3974 79.1282 47.3675 79.0007 49.5476C78.4645 49.4388 77.9332 48.5475 77.8982 47.8825C77.7869 46.427 77.9981 44.9649 78.5167 43.6004C79.0352 42.2359 79.8485 41.0026 80.8983 39.9884C80.1249 40.0088 79.3585 40.1414 78.6232 40.3821C77.3087 40.9206 76.24 41.9265 75.6231 43.206C74.2217 45.9337 75.1155 49.1801 74.9205 52.1577C74.8068 53.8753 75.0593 55.5666 75.0455 57.283C75.033 58.5793 74.7055 58.8243 76.0006 58.9406C76.5145 58.9878 77.025 59.0663 77.5294 59.1756C80.4635 59.782 83.1373 61.2836 85.1823 63.4733C85.5248 59.4993 85.571 55.8366 85.571 51.8477C85.571 50.2701 85.8311 46.8925 84.7798 45.5436C83.7285 44.1948 82.9759 47.5437 82.7284 48.4375M75.238 60.0406C75.1693 61.5819 75.2605 62.8282 75.288 64.6258C76.6015 64.5683 77.9174 64.61 79.2245 64.7508C80.6796 64.8408 82.2246 64.6821 83.681 64.8758C81.4546 62.462 78.6132 60.3369 75.238 60.0419M77.7294 38.7371C78.6921 38.1444 79.7103 37.647 80.7696 37.252C79.9654 36.9442 79.1018 36.8233 78.244 36.8982C77.3862 36.9731 76.5567 37.242 75.8181 37.6845C74.443 38.5595 74.9043 40.9659 74.7255 42.511C75.3984 41.0231 76.4291 39.7249 77.7257 38.7321" fill="#0F2837"/>
<path d="M123.318 27.0565C123.418 27.0701 123.509 27.1187 123.576 27.1936C123.643 27.2686 123.681 27.3648 123.683 27.4652C123.787 31.7617 123.881 35.6344 124.158 40.0734C124.321 42.2145 124.302 44.3657 124.102 46.5037C123.764 49.2251 124.458 51.4327 124.266 54.169C124.016 57.7792 124.544 60.7444 124.339 64.357L119.854 64.4558C119.479 64.4683 119.149 64.1183 119.202 63.2545C119.254 62.3907 119.179 58.6718 119.179 55.8791C119.355 53.051 119.375 50.2153 119.24 47.385C119.088 45.8511 119.453 44.2211 119.365 42.6835C119.204 39.8958 119.115 37.462 119.057 34.6706C119.022 33.023 119.057 30.4904 119.008 28.8716C118.972 27.7465 119.217 26.9152 119.84 26.6339C120.554 26.3139 122.509 26.9465 123.319 27.0565" fill="#91B9B4"/>
<path d="M58.5775 59.9983C58.5325 61.0408 58.5112 61.3983 58.5112 61.7921C58.5112 62.0534 58.7438 62.0996 58.955 62.2159C59.0963 62.2934 60.3038 62.5471 60.6976 62.6309C61.0862 62.7117 61.482 62.7536 61.8789 62.7559C63.0415 62.7359 64.1915 63.1372 65.3503 63.0284C65.389 63.0245 65.4262 63.0117 65.4591 62.9909C65.6117 62.9038 65.739 62.7785 65.8284 62.6272C65.9179 62.476 65.9664 62.3041 65.9691 62.1284C66.1029 61.1421 65.8328 60.2808 65.9841 58.4832C66.1354 56.6856 66.0016 51.8166 66.0116 50.6478C66.0841 41.7799 65.5803 41.6336 65.8053 34.7895C65.8908 32.8712 65.8071 30.9491 65.5553 29.0455C65.3534 27.8799 65.278 26.6959 65.3303 25.5141C65.3495 25.4191 65.348 25.3211 65.3259 25.2268C65.3038 25.1325 65.2617 25.044 65.2024 24.9674C65.1431 24.8908 65.0681 24.8278 64.9823 24.7828C64.8965 24.7378 64.802 24.7118 64.7053 24.7065C62.7839 24.6065 58.7487 24.914 58.7487 24.914C58.5324 25.8798 58.4624 26.8726 58.5412 27.8592C58.58 28.6955 58.4162 30.073 58.4162 30.9106C58.4162 31.8556 58.3525 32.7957 58.395 33.7395C58.51 36.2696 58.5787 38.8035 58.5012 41.3348C58.3062 47.7477 58.87 51.4678 58.6262 57.7706L58.5775 59.9983Z" fill="#FF9619"/>
</g>
</svg>
