<svg width="194" height="126" viewBox="0 0 194 126" fill="none" xmlns="http://www.w3.org/2000/svg">
<path d="M147.564 53.0222C146.088 53.0629 144.719 51.7358 144.761 50.2188C144.74 48.7664 146.092 47.3721 147.585 47.3941C149.151 47.3941 150.411 48.7012 150.369 50.2181C150.413 51.7338 149.038 53.0648 147.564 53.0222Z" fill="#64C3B6"/>
<path d="M126.561 54.1518C125.503 53.5842 125.103 52.2635 125.671 51.2038C126.223 50.1595 127.545 49.7623 128.603 50.3294C129.663 50.8977 130.063 52.219 129.494 53.2768C129.402 53.4608 129.264 53.63 129.126 53.7676C128.449 54.4437 127.423 54.6129 126.561 54.1518Z" fill="#08B0A2"/>
<path d="M136.148 52.333C134.978 51.4256 134.77 49.7433 135.658 48.5899L135.676 48.5712C136.584 47.4378 138.247 47.2111 139.419 48.1178C140.591 49.0239 140.798 50.7062 139.892 51.8783C139.835 51.9726 139.759 52.0482 139.684 52.1237C138.738 53.0698 137.226 53.1828 136.148 52.333Z" fill="#64C3B6"/>
<path d="M117.459 56.9001C117.182 56.6231 117.011 56.2388 117.022 55.8443C117.023 54.5462 118.63 53.8068 119.592 54.7677C119.879 55.0551 120.039 55.449 120.029 55.8443C120.061 57.1229 118.44 57.8811 117.459 56.9001Z" fill="#009D8E"/>
<path d="M49.5263 52.4194C51.3817 50.564 49.9086 47.5611 47.5579 47.6263C46.1055 47.6056 44.7118 48.9573 44.7332 50.451C44.7332 52.0164 46.0403 53.2764 47.5572 53.2344C48.2934 53.2557 49.009 52.9367 49.5263 52.4194Z" fill="#64C3B6"/>
<path d="M69.0807 54.0161C68.9425 54.1543 68.7739 54.2925 68.5899 54.3842C67.5321 54.9532 66.2108 54.5534 65.6425 53.4937C65.0754 52.4352 65.4733 51.1146 66.5169 50.5617C67.5766 49.9934 68.8973 50.3938 69.4649 51.4517C69.926 52.3132 69.7568 53.34 69.0807 54.0161Z" fill="#08B0A2"/>
<path d="M59.5515 52.3572C59.4759 52.4328 59.4004 52.5083 59.3061 52.5658C58.134 53.4718 56.4516 53.2645 55.5456 52.0924C54.6382 50.9216 54.8656 49.258 55.9989 48.35L56.0177 48.3313C57.1711 47.4433 58.8534 47.6512 59.7607 48.8221C60.61 49.8993 60.4969 51.4124 59.5515 52.3572Z" fill="#64C3B6"/>
<path d="M119.326 46.9518C118.222 46.461 117.73 45.1713 118.206 44.0812C118.682 42.9911 119.956 42.4848 121.061 42.9446C122.167 43.436 122.658 44.7264 122.183 45.8165C122.075 46.0774 121.921 46.2918 121.721 46.4913C121.121 47.09 120.171 47.3057 119.326 46.9518Z" fill="#009D8E"/>
<path d="M144.317 32.4665C143.638 31.7871 143.237 30.883 143.263 29.9543C143.237 28.1209 144.946 26.4121 146.804 26.4134C148.707 26.3605 150.368 27.9188 150.371 29.9802C150.371 33.1013 146.552 34.701 144.317 32.4665Z" fill="#08B0A2"/>
<path d="M103.066 42.1696C103.294 41.2035 104.248 40.6074 105.226 40.8231C106.178 41.0647 106.788 42.0301 106.56 42.9956C106.483 43.3256 106.306 43.6317 106.09 43.8474C104.785 45.1526 102.653 43.9165 103.066 42.1696Z" fill="#008F80"/>
<path d="M111.847 40.0303C110.737 39.6396 110.166 38.4093 110.571 37.3128C110.977 36.2175 112.208 35.6466 113.304 36.0515C114.385 36.4422 114.97 37.6576 114.566 38.7542C114.566 38.7542 114.566 38.7542 114.581 38.769C114.461 39.068 114.296 39.3238 114.086 39.5343C113.514 40.1052 112.644 40.3151 111.847 40.0303Z" fill="#009D8E"/>
<path d="M119.528 37.2569C118.162 36.5943 117.615 34.9153 118.298 33.5688C119.001 32.2029 120.64 31.6572 122.026 32.3385C123.373 33.0231 123.92 34.7021 123.237 36.0486C123.08 36.3205 122.925 36.5556 122.729 36.7513C121.909 37.5708 120.601 37.8233 119.528 37.2569Z" fill="#009D8E"/>
<path d="M127.522 35.2408C126.037 34.2599 125.625 32.2495 126.607 30.7641C127.59 29.2814 129.598 28.8694 131.084 29.851C132.566 30.8791 132.957 32.8662 131.974 34.349C131.883 34.533 131.722 34.6932 131.587 34.8295C130.513 35.9034 128.822 36.1308 127.522 35.2408Z" fill="#009D8E"/>
<path d="M135.917 33.3975C134.568 32.2312 134.41 30.1995 135.573 28.8524C136.716 27.482 138.749 27.3225 140.119 28.4643C141.466 29.6286 141.624 31.6597 140.484 33.0314C140.416 33.0992 140.37 33.145 140.301 33.2141C139.114 34.4017 137.24 34.4909 135.917 33.3975Z" fill="#08B0A2"/>
<path d="M147.253 43.5996C145.507 43.597 144.137 42.1634 144.136 40.4823C144.113 38.8252 145.638 37.3438 147.274 37.3438C148.955 37.3438 150.417 38.7393 150.369 40.4836C150.413 42.1524 149.075 43.597 147.253 43.5996Z" fill="#64C3B6"/>
<path d="M102.782 53.5705C102.9 52.6561 103.744 52.0226 104.647 52.1524C105.549 52.2809 106.195 53.1133 106.065 54.0161C106.019 54.3926 105.854 54.7201 105.608 54.9661C104.492 56.0827 102.557 55.1456 102.782 53.5705Z" fill="#008F80"/>
<path d="M110.089 48.2887C110.384 47.2328 111.481 46.6135 112.551 46.9235C113.605 47.218 114.225 48.3165 113.931 49.3724C113.819 49.7108 113.649 49.9904 113.409 50.2294C111.964 51.6747 109.541 50.2423 110.089 48.2887Z" fill="#009D8E"/>
<path d="M127.467 44.4602C126.251 43.6866 125.864 42.0837 126.619 40.8496C127.374 39.6522 128.977 39.2654 130.193 40.0029C131.428 40.7578 131.815 42.3607 131.059 43.5948C130.949 43.7802 130.82 43.9455 130.691 44.074C129.844 44.922 128.517 45.1054 127.467 44.4602Z" fill="#08B0A2"/>
<path d="M135.996 42.9169C134.801 41.9205 134.623 40.151 135.597 38.9369C136.593 37.7428 138.363 37.5652 139.557 38.5591C140.771 39.5336 140.95 41.3057 139.955 42.4985C139.955 42.4985 139.955 42.4985 139.974 42.5178C139.895 42.5973 139.835 42.6567 139.775 42.7167C138.761 43.7306 137.11 43.8307 135.996 42.9169Z" fill="#08B0A2"/>
<path d="M50.7868 27.4679C50.1074 26.7885 49.2033 26.3875 48.2747 26.4133C46.4412 26.3875 44.7324 28.0962 44.7337 29.9542C44.6808 31.8587 46.2404 33.5184 48.3005 33.521C50.2979 33.521 52.9903 29.6714 50.7868 27.4679Z" fill="#08B0A2"/>
<path d="M91.5833 44.0979C91.3676 44.3136 91.0615 44.4905 90.7315 44.5674C89.766 44.796 88.8005 44.1857 88.559 43.2338C88.3439 42.2554 88.94 41.3022 89.9055 41.073C91.6485 40.6616 92.8936 42.7882 91.5833 44.0979Z" fill="#008F80"/>
<path d="M84.0514 39.7892C83.8409 39.9997 83.5852 40.1644 83.2861 40.2845C83.2713 40.2697 83.2713 40.2697 83.2713 40.2697C82.1747 40.6746 80.9593 40.0895 80.5686 39.0078C80.1631 37.9119 80.7346 36.681 81.8292 36.2747C82.9258 35.8698 84.156 36.4407 84.5467 37.5508C84.8322 38.3491 84.6217 39.219 84.0514 39.7892Z" fill="#009D8E"/>
<path d="M76.3053 36.9931C76.1097 37.1882 75.8746 37.3438 75.6027 37.5007C74.2562 38.184 72.5771 37.637 71.8926 36.2892C71.2113 34.9046 71.7576 33.2643 73.1228 32.5617C74.4693 31.8784 76.1484 32.4254 76.811 33.7913C77.3774 34.8646 77.1249 36.173 76.3053 36.9931Z" fill="#009D8E"/>
<path d="M68.1134 35.0696C67.9771 35.2059 67.8169 35.366 67.6329 35.4564C66.1501 36.44 64.163 36.0499 63.1349 34.5665C62.1539 33.0812 62.5653 31.0734 64.048 30.0898C65.5334 29.1089 67.5438 29.5202 68.5247 31.0056C69.4146 32.3056 69.1867 33.9963 68.1134 35.0696Z" fill="#009D8E"/>
<path d="M59.384 33.5749C59.3149 33.644 59.2691 33.6899 59.2013 33.7577C57.8296 34.8975 55.7979 34.7387 54.6342 33.3922C53.4924 32.0231 53.6519 29.9901 55.0223 28.847C56.3694 27.6833 58.4011 27.8415 59.5674 29.1906C60.6608 30.5145 60.5717 32.3873 59.384 33.5749Z" fill="#08B0A2"/>
<path d="M50.0821 38.5044C49.486 37.9084 48.7123 37.5771 47.8715 37.5764C46.2144 37.5538 44.7329 39.0786 44.7329 40.715C44.7329 42.4005 46.1324 43.8581 47.8728 43.8097C50.6536 43.8833 52.0182 40.4412 50.0821 38.5044Z" fill="#64C3B6"/>
<path d="M91.8773 55.2156C91.6313 55.4616 91.3039 55.627 90.9274 55.6728C90.0246 55.802 89.1921 55.1568 89.0636 54.2546C88.9344 53.3512 89.5673 52.5071 90.4818 52.3896C92.0582 52.1648 92.9926 54.0996 91.8773 55.2156Z" fill="#008F80"/>
<path d="M84.5319 50.4626C84.2929 50.7016 84.0133 50.8714 83.6749 50.9845C82.619 51.2789 81.5205 50.6596 81.226 49.605C80.916 48.5349 81.5353 47.4377 82.5912 47.1432C84.5435 46.5943 85.9778 49.0161 84.5319 50.4626Z" fill="#009D8E"/>
<path d="M76.4789 46.7087C76.2793 46.9082 76.0649 47.0626 75.804 47.1704C74.7139 47.6457 73.4243 47.1549 72.9322 46.0487C72.4717 44.9437 72.9787 43.6695 74.0688 43.1942C75.1595 42.7183 76.4485 43.2097 76.9394 44.3141C77.2939 45.1594 77.0782 46.1094 76.4789 46.7087Z" fill="#009D8E"/>
<path d="M68.1334 44.3189C68.0048 44.4474 67.8395 44.5772 67.6542 44.687C66.42 45.4426 64.8172 45.0557 64.0622 43.8209C63.3247 42.6049 63.7116 41.002 64.9089 40.2471C66.143 39.4915 67.7459 39.8783 68.5195 41.0944C69.1647 42.1438 68.9813 43.4716 68.1334 44.3189Z" fill="#08B0A2"/>
<path d="M59.0925 42.9648C59.0324 43.0249 58.973 43.0843 58.8936 43.1637C58.8742 43.1443 58.8742 43.1443 58.8742 43.1443C57.6814 44.1389 55.9093 43.9606 54.9348 42.7472C53.9409 41.5531 54.1185 39.7823 55.3126 38.7865C56.5267 37.8132 58.2962 37.9908 59.2927 39.1856C60.2065 40.3002 60.1064 41.9502 59.0925 42.9648Z" fill="#08B0A2"/>
<path d="M78.1055 56.0669C78.1042 55.2313 77.3932 54.5415 76.6021 54.5635C75.304 54.5641 74.5646 56.1715 75.5255 57.1331C75.8129 57.4205 76.2068 57.58 76.6021 57.5703C77.366 57.5897 78.1042 56.9342 78.1055 56.0669Z" fill="#009D8E"/>
<path d="M97.5088 49.6745C96.5149 49.6758 95.8194 48.8814 95.8413 48.007C95.8407 46.6166 97.5947 45.7409 98.6906 46.8368C99.7006 47.8468 99.0535 49.6764 97.5088 49.6745Z" fill="#008F80"/>
<path d="M97.5113 61.644C96.6918 61.6666 95.973 60.9252 95.9956 60.1283C95.995 58.858 97.6179 58.0747 98.5969 59.053C99.5508 60.0075 98.8494 61.6834 97.5113 61.644Z" fill="#008F80"/>
<path d="M94.7292 101.047H95.6682L95.6727 97.6825H97.262V97.0742H95.6746C95.6753 97.009 95.6804 96.2657 95.6798 96.3309C95.6798 95.1943 95.962 94.5039 97.0431 94.4807L97.0812 94.48V94.4871H97.583V93.933C97.24 93.9492 96.5962 93.8665 95.9381 94.1158C94.3197 94.7299 94.7757 96.0357 94.7292 101.047Z" fill="#A6A6A8"/>
<path d="M84.9875 95.6244H84.0485L84.0376 98.6649C84.0376 99.7311 83.7896 100.457 82.7537 100.511C81.074 100.425 81.4892 98.7152 81.455 95.6238H80.516C80.5832 98.7527 80.1104 100.269 81.7243 100.88C82.1408 101.038 82.5393 101.036 82.7072 101.052L82.7079 101.061C82.7395 101.059 82.7737 101.06 82.7957 101.061L82.7963 101.052C83.3608 100.996 83.4589 101.036 83.9859 100.773L84.0401 100.746C84.0104 102.259 84.2152 103.602 82.6575 103.623L82.7072 104.167C83.4157 104.161 84.1086 103.975 84.5794 103.437C84.9326 103.024 84.9468 102.434 84.9992 101.81C84.9992 101.745 84.9992 98.4995 84.9992 98.7055L84.9875 95.6244Z" fill="#A6A6A8"/>
<path d="M55.2869 95.0864C55.5575 95.0864 55.7783 94.8662 55.7783 94.595V94.4329C55.7783 94.1623 55.5581 93.9414 55.2869 93.9414C55.0163 93.9414 54.7954 94.1616 54.7954 94.4329V94.595C54.7954 94.8655 55.0163 95.0864 55.2869 95.0864Z" fill="#A6A6A8"/>
<path d="M54.7954 95.6865H55.7977V101.047H54.7954V95.6865Z" fill="#A6A6A8"/>
<path d="M65.3053 95.0864C65.5759 95.0864 65.7967 94.8662 65.7967 94.595V94.4329C65.7967 94.1623 65.5765 93.9414 65.3053 93.9414C65.0347 93.9414 64.8145 94.1616 64.8145 94.4329V94.595C64.8145 94.8655 65.0347 95.0864 65.3053 95.0864Z" fill="#A6A6A8"/>
<path d="M64.8145 95.6245H65.8167V101.056H64.8145V95.6245Z" fill="#A6A6A8"/>
<path d="M136.775 94.9693C137.046 94.9693 137.267 94.7491 137.267 94.4778V94.4326C137.267 94.162 137.047 93.9412 136.775 93.9412C136.505 93.9412 136.285 94.1614 136.285 94.4326V94.4778C136.285 94.7491 136.505 94.9693 136.775 94.9693Z" fill="#A6A6A8"/>
<path d="M136.275 95.6245H137.277V101.056H136.275V95.6245Z" fill="#A6A6A8"/>
<path d="M114.24 99.2075V95.6252H113.258L113.247 98.4655C113.247 99.9469 114.002 100.976 115.599 101.042V101.048H118.428V95.6259H117.426V100.519H115.55C114.828 100.518 114.24 99.9295 114.24 99.2075Z" fill="#A6A6A8"/>
<path d="M106.445 98.2074C106.467 98.2888 106.239 100.26 107.854 100.873C108.303 101.044 108.735 101.041 108.833 101.052V101.057H111.784V93.9419H110.782V95.6255C110.715 95.6255 108.669 95.632 108.797 95.632C107.225 95.6952 106.445 96.702 106.445 98.2074ZM108.906 96.1544H110.782V100.527H108.906C108.184 100.527 107.596 99.9388 107.596 99.2168V97.4647C107.595 96.7421 108.184 96.1544 108.906 96.1544Z" fill="#A6A6A8"/>
<path d="M148.972 95.8078C148.518 95.6353 148.06 95.6366 147.993 95.6295V95.625H145.158V101.056H146.16V96.1539H148.036C148.758 96.1539 149.346 96.7422 149.346 97.4642V101.056H150.371L150.382 98.2069C150.382 96.8624 149.758 96.1055 148.972 95.8078Z" fill="#A6A6A8"/>
<path d="M119.752 98.504C119.752 99.9771 120.505 100.988 122.076 101.05L122.112 101.052V101.056H124.467V100.534H122.184C121.47 100.534 120.888 99.9525 120.888 99.2376C120.888 99.2338 120.849 98.6338 120.849 98.2999C120.849 97.9667 120.888 97.4455 120.888 97.4404C120.888 96.7287 121.469 96.1475 122.184 96.1475H124.467V95.625C122.55 95.6747 121.214 95.3654 120.353 96.3457C119.498 97.348 119.832 98.0293 119.752 98.504Z" fill="#A6A6A8"/>
<path d="M70.3177 97.9721C69.7113 97.7415 68.5967 97.9469 68.4075 97.0583C68.319 96.643 68.7181 96.1083 69.619 96.1083L70.6542 96.1064V95.4386C69.9212 95.4347 69.0855 95.2991 68.3855 95.5633C67.2185 96.0063 67.0242 97.1442 67.6247 97.8481C68.5243 98.8704 69.6422 98.3389 70.1414 98.9156C70.3926 99.2069 70.4437 99.482 70.2938 99.7351C69.8056 100.559 68.7187 100.328 67.6693 100.362V101.062C67.876 101.081 69.2903 101.06 69.473 101.041C71.9006 100.787 72.0504 98.6295 70.3177 97.9721Z" fill="#A6A6A8"/>
<path d="M45.9065 93.9386H44.7324V101.047H45.716V95.9574L48.3166 101.047H48.8468L51.4565 95.794L51.6541 95.4291V101.047H52.7068V93.9386H51.5534L48.8068 99.4576H48.7047C47.8051 97.6843 45.7754 93.681 45.9065 93.9386Z" fill="#A6A6A8"/>
<path d="M101.954 97.5199H104.489V96.9742H101.954V94.5467H105.744V93.939H100.956V101.047H105.744V100.527H101.954" fill="#A6A6A8"/>
<path d="M73.7375 100.128C73.226 99.5162 73.403 98.5113 73.3636 96.3214H74.951V95.6246H73.3617L73.3578 94.0198H72.4188C72.4595 98.0767 72.2089 99.6027 72.8269 100.327C73.0394 100.568 73.3087 100.752 73.6271 100.872C74.2367 101.104 74.8806 101.033 75.1622 101.047V100.526C74.7314 100.508 74.1095 100.576 73.7375 100.128Z" fill="#A6A6A8"/>
<path d="M76.411 101.056H77.3959C77.4333 97.9391 77.0155 96.1999 78.887 96.196H79.312V95.6245C78.9968 95.6407 78.3394 95.5645 77.6742 95.8163C75.9829 96.4576 76.4795 98.0805 76.411 101.056Z" fill="#A6A6A8"/>
<path d="M142.589 95.8037C142.183 95.65 141.825 95.6468 141.632 95.6255C141.405 95.6519 140.118 95.4556 139.345 96.3378C138.587 97.227 138.784 98.341 138.751 98.5328C138.751 100.032 139.531 100.987 141.048 101.048C141.229 101.008 142.565 101.259 143.369 100.342C143.781 99.8606 143.964 99.3026 143.964 98.5328C143.932 98.4547 144.23 96.4256 142.589 95.8037ZM141.154 100.538C140.088 100.538 139.858 99.446 139.808 98.9759C139.447 95.5505 141.486 96.228 141.56 96.1402C142.603 96.1402 142.846 97.1909 142.902 97.6423C143.331 101.116 141.223 100.456 141.154 100.538Z" fill="#A6A6A8"/>
<path d="M125.225 98.9395C125.455 100.756 126.828 101.228 128.633 101.027C129.2 100.901 129.29 100.846 129.619 100.645V101.047H130.644V95.6143C130.579 95.6143 127.389 95.6214 127.592 95.6207C126.904 95.6485 126.262 95.8455 125.811 96.3595C124.942 97.3792 125.248 98.6334 125.225 98.9395ZM126.367 97.491C126.366 96.7573 126.967 96.1574 127.703 96.1574H129.618V98.7612L129.607 99.1875C129.607 99.9114 128.97 100.524 128.217 100.524H127.7C126.962 100.524 126.362 99.9237 126.362 99.1862C126.362 99.1862 126.319 98.7664 126.319 98.3402C126.321 97.9139 126.367 97.4942 126.367 97.491Z" fill="#A6A6A8"/>
<path d="M133.329 99.5536C133.185 98.9401 133.259 98.4635 133.232 96.2323H134.82V95.6246H133.231L133.227 94.0198H132.287C132.328 98.0767 132.078 99.6027 132.696 100.327C133.507 101.248 134.846 101.005 135.03 101.047V100.526C134.787 100.471 133.677 100.792 133.329 99.5536Z" fill="#A6A6A8"/>
<path d="M92.3246 95.7917C91.91 95.6341 91.5277 95.6309 91.3643 95.6121C91.2603 95.6509 88.4724 95.2124 88.4724 98.143C88.4989 98.2515 88.2387 100.27 89.8538 100.882C90.5022 101.129 91.684 101.125 92.3246 100.882C92.6372 100.764 92.9013 100.583 93.1086 100.347C93.8565 99.4714 93.6769 98.4117 93.7053 98.1437C93.7053 96.823 93.0951 96.0836 92.3246 95.7917ZM92.6223 99.2738C92.3208 100.846 90.9659 100.497 90.8845 100.543C89.815 100.543 89.5845 99.4469 89.5348 98.9755C89.1705 95.5359 91.2177 96.2186 91.2933 96.1294C92.3401 96.1294 92.5842 97.184 92.6398 97.6374C92.6824 97.99 92.7379 98.6713 92.6223 99.2738Z" fill="#A6A6A8"/>
<path d="M60.4719 95.6295V95.625H57.6362V101.056H58.6385V96.1539H60.5146C61.2366 96.1539 61.8249 96.7422 61.8249 97.4642V101.056H62.8491L62.8601 98.2069C62.8601 97.4177 62.6722 96.8462 62.2505 96.3541C61.5782 95.5875 60.5372 95.6495 60.4719 95.6295Z" fill="#A6A6A8"/>
<path d="M119.71 74.4903C120.208 74.4903 120.611 74.0869 120.611 73.5894C120.611 73.0918 120.208 72.6885 119.71 72.6885C119.212 72.6885 118.809 73.0918 118.809 73.5894C118.809 74.0869 119.212 74.4903 119.71 74.4903Z" fill="#009D8E"/>
<path d="M137.117 76.4201L137.103 83.664C137.103 84.1129 137.063 84.5107 136.984 84.8465C136.894 85.1649 136.775 85.4148 136.627 85.5917C136.481 85.7674 136.288 85.8953 136.052 85.9734C135.845 86.0432 135.584 86.078 135.278 86.078H135.241L135.323 86.9763H135.354C135.919 86.9763 136.428 86.8917 136.869 86.7245C137.31 86.5579 137.683 86.3021 137.979 85.9663C138.454 85.4103 138.736 84.654 138.818 83.7189L138.802 76.4194H137.117V76.4201Z" fill="#009D8E"/>
<path d="M132.687 72.6885H134.333V83.2589H132.687V72.6885Z" fill="#009D8E"/>
<path d="M128.416 76.4201L128.402 83.664C128.402 84.1109 128.362 84.5087 128.283 84.8465C128.193 85.1655 128.073 85.4154 127.926 85.5917C127.78 85.7674 127.586 85.8953 127.351 85.9734C127.144 86.0432 126.883 86.078 126.577 86.078H126.539L126.621 86.9763H126.652C127.217 86.9763 127.727 86.8917 128.168 86.7245C128.608 86.5579 128.981 86.3021 129.277 85.9663C129.753 85.4096 130.035 84.6534 130.116 83.7189L130.1 76.4194H128.416V76.4201Z" fill="#009D8E"/>
<path d="M115.917 79.9643V83.2592H125.349V76.4202H119.462C117.504 76.4202 115.917 78.0069 115.917 79.9643ZM123.695 77.7757V81.8236H117.576V79.8009C117.576 78.6824 118.483 77.7757 119.601 77.7757H123.695Z" fill="#009D8E"/>
<path d="M97.4248 74.4903C97.9224 74.4903 98.3257 74.0869 98.3257 73.5894C98.3257 73.0918 97.9224 72.6885 97.4248 72.6885C96.9273 72.6885 96.5239 73.0918 96.5239 73.5894C96.5239 74.0869 96.9273 74.4903 97.4248 74.4903Z" fill="#009D8E"/>
<path d="M56.7793 86.9226C57.2769 86.9226 57.6802 86.5193 57.6802 86.0217C57.6802 85.5242 57.2769 85.1208 56.7793 85.1208C56.2818 85.1208 55.8784 85.5242 55.8784 86.0217C55.8784 86.5193 56.2818 86.9226 56.7793 86.9226Z" fill="#009D8E"/>
<path d="M59.3823 86.9226C59.8799 86.9226 60.2832 86.5193 60.2832 86.0217C60.2832 85.5242 59.8799 85.1208 59.3823 85.1208C58.8848 85.1208 58.4814 85.5242 58.4814 86.0217C58.4814 86.5193 58.8848 86.9226 59.3823 86.9226Z" fill="#009D8E"/>
<path d="M100.028 74.4903C100.525 74.4903 100.929 74.0869 100.929 73.5894C100.929 73.0918 100.525 72.6885 100.028 72.6885C99.5303 72.6885 99.127 73.0918 99.127 73.5894C99.127 74.0869 99.5303 74.4903 100.028 74.4903Z" fill="#009D8E"/>
<path d="M122.313 74.4903C122.81 74.4903 123.213 74.0869 123.213 73.5894C123.213 73.0918 122.81 72.6885 122.313 72.6885C121.815 72.6885 121.412 73.0918 121.412 73.5894C121.412 74.0869 121.815 74.4903 122.313 74.4903Z" fill="#009D8E"/>
<path d="M137.981 74.4903C138.479 74.4903 138.882 74.0869 138.882 73.5894C138.882 73.0918 138.479 72.6885 137.981 72.6885C137.483 72.6885 137.08 73.0918 137.08 73.5894C137.08 74.0869 137.483 74.4903 137.981 74.4903Z" fill="#009D8E"/>
<path d="M104.377 81.8233H100.257V76.4199H98.6102V81.8233H82.1423V79.9092C82.1423 78.7312 83.0975 77.7754 84.2754 77.7754H91.3043V76.4199H84.1346C82.1178 76.4199 80.4826 78.0551 80.4826 80.0719V81.8233H67.1804V72.6885H65.5511V81.8233H60.9614V76.4199H59.3146V81.8233H56.1973L56.1831 80.1791L56.1825 80.1785V80.1559C56.1825 78.9928 55.8182 78.0751 55.1001 77.4274C54.4614 76.819 53.5528 76.4806 52.3981 76.4199H45.8736L45.8729 76.4206L45.8955 83.3836C45.8955 83.8305 45.8555 84.2283 45.7767 84.566C45.6869 84.8844 45.5674 85.1343 45.4196 85.3113C45.2736 85.4863 45.0805 85.6155 44.8454 85.693C44.8119 85.7039 44.7686 85.7091 44.7324 85.7181V86.6591C45.0669 86.6203 45.3795 86.5506 45.6617 86.444C46.1022 86.2774 46.4761 86.0223 46.7719 85.6859C47.2472 85.1285 47.53 84.3723 47.6101 83.4385L47.6095 83.2589H106.077V72.6885H104.377V81.8233ZM47.7031 77.7754L52.4717 77.7767L52.597 77.7761C52.67 77.7871 52.73 77.7981 52.7959 77.8103C53.7807 77.9924 54.4969 78.8507 54.4969 79.853V81.8233H47.6056L47.5953 77.8839C47.5953 77.8239 47.6437 77.7754 47.7031 77.7754Z" fill="#009D8E"/>
<path d="M150.381 76.4202H144.553C142.566 76.4202 140.956 78.0308 140.956 80.0179V83.2592H148.673L148.672 83.6641C148.672 84.1116 148.632 84.5095 148.553 84.8466C148.463 85.1643 148.344 85.4142 148.196 85.5918C148.05 85.7675 147.857 85.8954 147.622 85.9735C147.534 86.0026 147.433 86.0219 147.328 86.0394V86.9616C147.733 86.9299 148.105 86.8511 148.438 86.7252C148.878 86.5586 149.252 86.3029 149.547 85.967C150.023 85.411 150.305 84.6548 150.386 83.7196L150.381 76.4202ZM144.694 77.7757H148.686V77.8299L148.676 81.8236H142.615V79.8545C142.615 78.7063 143.546 77.7757 144.694 77.7757Z" fill="#009D8E"/>
<path d="M108.574 72.6885C108.561 72.6885 108.55 72.6995 108.55 72.7124V83.235C108.55 83.248 108.561 83.2589 108.574 83.2589H110.173C110.186 83.2589 110.197 83.2486 110.197 83.235V72.7124C110.197 72.6988 110.186 72.6885 110.173 72.6885H108.574Z" fill="#009D8E"/>
</svg>
